<?xml version="1.0" encoding="UTF-8"?>
<svg width="580" height="580" version="1.0" xmlns="http://www.w3.org/2000/svg">
	<g transform="matrix(48.15 0 0 48.15 -536.27 -33.307)" display="none" fill="none" stroke="#757575" stroke-width=".1">
		<rect x="1" y="1" width="10" height="10" display="inline"/>
		<rect x="2" y="2" width="8" height="8" display="inline"/>
	</g>
	<path transform="matrix(14.686 0 0 14.686 565.77 1146.1)" d="m-8.7427-60.989c-3.03e-5 0.77313-0.37316 1.1597-1.1194 1.1597h-3.96c-0.7471 1.3e-5 -1.1206-0.38654-1.1206-1.1597v-1.8799c-2.4e-5 -0.74705 0.37351-1.1206 1.1206-1.1206h3.96c0.74623 1.8e-5 1.1194 0.37355 1.1194 1.1206v1.8799zm-11.279 0.040283c-1.9e-5 0.74627-0.38698 1.1194-1.1609 1.1194h-8.5596c-0.74708 1.3e-5 -1.1206-0.37312-1.1206-1.1194v-1.9202c-8e-6 -0.74705 0.37353-1.1206 1.1206-1.1206h8.5596c0.77391 1.8e-5 1.1609 0.37355 1.1609 1.1206v1.9202zm17.56 9.0002h-2.8809v-10c-3.37e-5 -1.547-0.53999-2.8538-1.6199-3.9203-1.0799-1.0665-2.38-1.5997-3.9001-1.5997h-18.719c-1.547 2.2e-5 -2.8538 0.53326-3.9203 1.5997-1.0665 1.0665-1.5997 2.3733-1.5997 3.9203v7.0801c-4e-6 1.1198 0.39998 2.0797 1.2 2.8796 0.79996 0.79997 1.7598 1.2 2.8796 1.2h6.4404c0.079739-1.1466 0.53303-2.1199 1.3599-2.9199 0.82681-0.79996 1.827-1.1999 3.0005-1.2 1.1466 9e-6 2.1399 0.39999 2.9797 1.2 0.83982 0.79997 1.2866 1.7599 1.3403 2.8796h14.559c-3.78e-5 -0.74625-0.37317-1.1194-1.1194-1.1194zm-17.76 2.7991c-0.37355 3e-6 -0.69358-0.13326-0.96008-0.39978-0.26654-0.26652-0.3998-0.58654-0.39978-0.96008-1.8e-5 -0.39957 0.13324-0.72611 0.39978-0.97961 0.2665-0.25349 0.58653-0.38024 0.96008-0.38025 0.3727 5e-6 0.69253 0.12676 0.95947 0.38025 0.26691 0.2535 0.40037 0.58004 0.40039 0.97961-2e-5 0.37354-0.13348 0.69357-0.40039 0.96008-0.26695 0.26652-0.58677 0.39978-0.95947 0.39978zm0-4.519c-0.88055 8e-6 -1.6274 0.30661-2.2406 0.9198-0.61322 0.61321-0.91982 1.3597-0.9198 2.2394-1.6e-5 0.85368 0.30658 1.5871 0.9198 2.2003 0.61318 0.6132 1.36 0.9198 2.2406 0.9198 0.85284 1e-6 1.5861-0.3066 2.1997-0.9198 0.61358-0.6132 0.92039-1.3466 0.92041-2.2003-2.2e-5 -0.87972-0.30682-1.6262-0.92041-2.2394-0.61363-0.61319-1.3469-0.91979-2.1997-0.9198z" fill="#00f"/>
</svg>
