<?xml version="1.0" encoding="UTF-8"?>
<svg width="32" height="32" version="1.0" xmlns="http://www.w3.org/2000/svg">
	<g stroke="#000">
		<path d="m16.499 1.2873-11.126 11.42h2.2253v17.129h6.6759v-8.705h4.6032l1.5e-5 8.705h6.5233v-17.129h2.2253l-11.126-11.42z" fill="#b3b3b3" fill-rule="evenodd" stroke-width=".063625"/>
		<path d="m2.6786 14.321-0.17857 13.929" fill="none" stroke-width="2"/>
		<path d="m2.8571 23.071 26.786 0.17857" fill="none" stroke-width="2"/>
		<path d="m29.821 27.714 0.17857-9.1071" fill="none" stroke-width="2"/>
		<rect x="13.393" y="17.982" width="14.107" height="2.5" ry="1.25" stroke-width="2.3"/>
		<path transform="matrix(1.2835 0 0 1.288 -.90762 -5.1485)" d="m9.2857 16.018a1.5179 1.3393 0 1 1-3.0357 0 1.5179 1.3393 0 1 1 3.0357 0z" stroke-width="2.3"/>
		<rect x="5.0893" y="19.946" width="5.4464" height=".44643" ry=".22321" stroke-width="2"/>
	</g>
</svg>
