<?xml version="1.0" encoding="UTF-8"?>
<svg width="18.64" height="18.64" baseProfile="full" version="1.1" viewBox="0 0 200 200" xmlns="http://www.w3.org/2000/svg">
	<rect width="200" height="200" rx="40" ry="40" fill="blue"/>
	<path d="m115 71.691v88.728h11.83v10.563h-2.1122-51.547v-10.563h11.831v-78.166h-11.831v-10.563h2.1128 39.717l3e-5 6.4e-5zm-30.844-27.886c0-3.8029 1.3736-7.2181 4.1199-10.246 2.7462-3.0282 6.3027-4.542 10.668-4.542h2.1128c3.6616 0 7.0418 1.3381 10.14 4.0142 3.0988 2.6756 4.6476 6.2671 4.6476 10.774 0 3.8023-1.3375 7.2176-4.0137 10.246-2.6761 3.0282-6.2671 4.542-10.774 4.542h-2.1128c-3.6616 0-7.0418-1.3381-10.14-4.0137-3.0988-2.6761-4.6482-6.2677-4.6482-10.774h1.6e-5z" fill="#fff" fill-rule="evenodd"/>
</svg>
