<?xml version="1.0" encoding="UTF-8"?>
<svg width="18" height="18" version="1.0" xmlns="http://www.w3.org/2000/svg">
	<g transform="matrix(.067202 0 0 .067227 -14.474 -27.175)">
		<rect x="224.29" y="413.08" width="250" height="250" ry="48.571" fill="#c7f1a3" stroke="#000" stroke-linecap="round" stroke-linejoin="round" stroke-miterlimit="1.1" stroke-width="17.8"/>
		<path d="m247.28 532.72 204.02 40.237" fill="none" stroke="#000" stroke-linecap="round" stroke-miterlimit="1.1" stroke-width="14.2"/>
		<path d="m349.29 554.13-21.513 45.168h43.025l-21.513-45.168z" fill-rule="evenodd" stroke="#000" stroke-width=".83189px"/>
		<g transform="matrix(.87859 .37187 -.34624 .94364 144 -69.706)">
			<path d="m338.54 463.22c-8.9525 1.6674-20.957 48.627-20.957 48.627l34.614-4.7865s-4.3295 15.512-8.185 27.017c-2.4047 7.1759 5.6071 9.4906 9.6399 1.5291 7.449-14.706 13.052-30.96 13.052-30.96s-18.71-43.188-28.164-41.427z" fill-rule="evenodd" stroke="#000" stroke-width="1.3347px"/>
			<path transform="matrix(-1.6649 -.16364 -.28816 1.3383 941.37 -110.14)" d="m286.86 449.51c0.00356 5.1312-3.7105 9.2929-8.2933 9.2929s-8.2968-4.1618-8.2933-9.2929c-0.00356-5.1312 3.7105-9.2929 8.2933-9.2929s8.2968 4.1618 8.2933 9.2929z" stroke-width="5.9"/>
		</g>
		<g transform="matrix(-.94928 -.095303 -.149 .99405 828.53 98.07)">
			<path d="m338.54 463.22c-8.9525 1.6674-20.957 48.627-20.957 48.627l34.614-4.7865s-4.3295 15.512-8.185 27.017c-2.4047 7.1759 5.6071 9.4906 9.6399 1.5291 7.449-14.706 13.052-30.96 13.052-30.96s-18.71-43.188-28.164-41.427z" fill-rule="evenodd" stroke="#000" stroke-width="1.3347px"/>
			<path transform="matrix(-1.6649 -.16364 -.28816 1.3383 941.37 -110.14)" d="m286.86 449.51c0.00356 5.1312-3.7105 9.2929-8.2933 9.2929s-8.2968-4.1618-8.2933-9.2929c-0.00356-5.1312 3.7105-9.2929 8.2933-9.2929s8.2968 4.1618 8.2933 9.2929z" stroke-width="5.9"/>
		</g>
	</g>
</svg>
