<?xml version="1.0" encoding="UTF-8"?>
<svg width="16" height="16" version="1.0" xmlns="http://www.w3.org/2000/svg">
	<g transform="matrix(.18176 0 0 .18176 -.71568 -.75443)">
		<g transform="matrix(.99572 0 0 .99973 .015928 .024999)" stroke="#000">
			<path transform="matrix(5.5017 0 0 5.5017 3.9375 4.1506)" d="m9.6 7.9698a1.5849 1.6 0 1 1-3.1698 0 1.5849 1.6 0 1 1 3.1698 0z" fill="#0101ff" stroke-width=".05"/>
			<path d="m8.6867 52.624c-1.8699-0.45505-3.613-1.791-4.287-3.2857-0.38912-0.86292-0.4177-1.1814-0.17786-1.982 0.37941-1.2663 1.6333-2.5156 3.2907-3.2784 1.1958-0.55041 1.5557-0.60177 3.1301-0.44664 2.0691 0.20388 5.2495 0.79836 10.04 1.8766 5.7678 1.2983 6.8363 1.738 6.4798 2.6669-0.38615 1.0063-4.9056 2.4323-11.909 3.7578-4.0549 0.76739-5.5898 0.92902-6.566 0.69146z" fill="#00f" stroke-width=".27508"/>
			<path d="m46.323 91.254c-0.89376-0.58914-1.4816-1.2987-2.197-2.6522-0.4686-0.8865-0.51327-1.2822-0.38484-3.4093 0.32378-5.3623 2.7925-15.573 3.9362-16.28 1.1354-0.70169 2.3066 2.5011 3.965 10.843 1.1517 5.7927 1.1255 7.6985-0.13206 9.6194-0.45588 0.69636-1.1934 1.5159-1.6388 1.8211-1.0202 0.69903-2.538 0.72371-3.5484 0.05768h-5e-6z" fill="#00f" stroke-width=".27508"/>
			<path d="m17.045 79.336c-1.003-0.86271-1.1353-2.4028-0.41143-4.7861 0.4886-1.6086 0.74759-2.0194 2.0861-3.309 1.9765-1.9042 8.1125-5.9835 11.788-7.8366 3.066-1.546 3.8124-1.7401 3.8124-0.99182 0 1.5562-5.8334 10.985-8.7818 14.194-2.0149 2.1932-3.6453 3.0699-5.9888 3.2203-1.6249 0.10427-1.867 0.056773-2.5041-0.49117l-7e-6 3e-6z" fill="#00f" stroke-width=".27508"/>
			<path d="m73.52 79.21c-2.7629-1.3618-10.861-12.881-11.579-16.47-0.14489-0.72442-0.10321-0.78878 0.5107-0.78878 1.3496 0 4.3878 1.6607 10.001 5.4666 6.0489 4.1012 7.6317 6.1631 7.244 9.4369-0.18016 1.5211-0.58546 2.1874-1.5312 2.517-1.1244 0.39196-3.7043 0.30194-4.6458-0.16211h-3e-6z" fill="#00f" stroke-width=".27508"/>
			<path d="m79.165 51.596c-6.5708-1.3549-9.0693-2.1385-10.098-3.1671-0.54681-0.54681-0.50795-0.79115 0.19957-1.2547 1.455-0.95337 13.394-3.484 16.57-3.5122 2.0572-0.018317 2.2056 0.019256 3.5638 0.90248 1.8815 1.2235 2.7126 2.7927 2.267 4.2802-0.34634 1.156-1.64 2.5375-3.0495 3.2566-1.5118 0.77128-3.8756 0.64497-9.4532-0.50515z" fill="#00f" stroke-width=".27508"/>
			<path d="m31.794 34.014c-2.1565-1.1965-7.8616-5.0071-10.778-7.199-2.4435-1.8363-3.6316-3.1239-4.2513-4.6072-0.74698-1.7878-0.31948-4.6488 0.80467-5.3854 0.92281-0.60465 3.6961-0.58814 4.9563 0.029506 1.4594 0.71527 3.4838 2.9472 6.0903 6.7145 4.1841 6.0474 6.1921 10.092 5.4525 10.984-0.41817 0.50386-0.38664 0.51129-2.2743-0.53604v-3e-6z" fill="#00f" stroke-width=".27508"/>
			<path d="m62.014 34.509c-0.40967-0.40967-0.066241-1.4168 1.3655-4.0043 2.2562-4.0776 6.6872-10.632 8.299-12.275 1.2236-1.2477 1.5933-1.471 2.8622-1.7291 2.0636-0.4197 4.0638 0.031206 4.707 1.0611 0.18794 0.30095 0.39846 1.254 0.4678 2.1178 0.10224 1.2736 0.021667 1.7863-0.42607 2.7112-0.87237 1.8021-3.6092 4.1383-9.1511 7.8117-6.3284 4.1947-7.5753 4.8556-8.1243 4.3066l6e-6 3e-6z" fill="#00f" stroke-width=".27508"/>
			<path d="m47.497 27.03c-0.80215-0.96652-2.105-5.7122-3.2043-11.671-0.89934-4.8754-0.89231-6.5187 0.035166-8.2246 2.105-3.8716 5.6634-3.6395 7.7919 0.5081 0.36561 0.71243 0.42236 1.2835 0.31371 3.1567-0.21326 3.6768-2.4833 14.043-3.4318 15.671-0.49822 0.85519-1.0802 1.072-1.5047 0.5605h6e-6z" fill="#00f" stroke-width=".27508"/>
		</g>
	</g>
</svg>
