<?xml version="1.0" encoding="UTF-8"?>
<svg width="32" height="32" version="1.1" xmlns="http://www.w3.org/2000/svg">
	<path d="m5.7002 21.316c0.30668 0.09044 1.0599 0.01434 0.80176-0.49446-0.14325-0.28233-0.81721-0.63776-1.1149-0.72206-0.44858-0.12708-1.2023 0.42444-0.62629 0.77811l-0.12526 0.37578c-0.48233-0.23048-0.6198-0.93581-0.58053-1.4405 0.027609-0.35492 0.34808-0.72919 0.47504-1.0647 0.34683-0.91658 0.6317-1.8174 0.90146-2.7557 0.10783-0.37509 0.13977-1.0849 0.46586-1.3323 0.30554-0.23179 0.77476-0.26555 1.1178-0.43628 0.2529-0.12588 0.41811-0.38486 0.69011-0.46897 0.58402-0.18056 1.1594-0.13403 1.4395-0.76871 0.59147 0.89291 1.0852 1.7249 1.1834 2.8183 0.06977 0.77729-0.46083 1.5743-0.63995 2.3173-0.1252 0.51939-0.08662 1.0484-0.22302 1.5657-0.17016 0.64508-0.50204 1.2413-0.66394 1.8789-0.097702 0.38461-0.010144 0.8222-0.13021 1.1899-0.21488 0.65817-1.4416 1.0515-1.2957 1.8786 0.06739 0.38223 0.51306 0.45738 0.83003 0.52227 0.73602 0.15062 1.5283 0.05768 2.2547-0.05605 0.24188-0.03789 0.53554 0.0089 0.72437-0.17993 0.45588-0.45582-0.08274-1.3172 0.06495-1.8517 0.10578-0.3831 0.46816-0.71692 0.65742-1.0647 0.41147-0.75631 0.75988-1.553 0.99581-2.3799h0.06263c0.01503 0.72888 0.19096 1.6424 0.4706 2.3173 0.17655 0.42613 0.63118 1.0375 0.61878 1.5031-0.02129 0.7979-1.2302 1.3198-0.65041 2.2535 0.58333 0.93926 1.9621-0.0057 2.6925-0.17098 0.40045-0.09062 0.93744 0.02799 1.134-0.45682 0.27131-0.66913-0.27939-1.3034-0.37177-1.9388-0.10578-0.72713 0.03081-1.4587-0.1024-2.192-0.09745-0.53667-0.53429-1.1612-0.51964-1.691 0.01027-0.37283 0.27494-0.81431 0.36087-1.19l2.3799 1.1176 1.0021 0.57337c0.0043 0.53235-0.01021 1.1684 0.08324 1.691 0.04466 0.24958 0.27901 0.50172 0.20755 0.7597-0.13935 0.50266-1.3697 1.0184-1.0928 1.551 0.15219 0.29273 0.57231 0.393 0.86466 0.46816 0.7404 0.19039 2.6802 0.47642 3.2245-0.21783 0.23987-0.30594 0.21995-0.815 0.22008-1.1832 3.76e-4 -0.92804 0.0982-1.9113-0.12526-2.8183 0.80592 0.49696 0.98917 1.4957 1.3931 2.3173 0.13991 0.28459 0.43146 0.7359 0.33607 1.0638-0.14718 0.50567-1.6557 1.2952-0.95773 1.978 0.19352 0.18933 0.54532 0.20342 0.79427 0.2792 0.72036 0.2192 2.9069 0.57694 3.2475-0.37828 0.31822-0.89272 0.23699-2.4692 0.01553-3.3811-0.13033-0.53667-0.43308-1.0022-0.486-1.5657-0.04866-0.51851 0.31052-1.0433 0.34885-1.5657 0.0533-0.72732-0.17154-1.366-0.1939-2.0668-0.01435-0.45081 0.13691-0.91502 0.13691-1.3778 0.68792 1.8235-0.03219 3.7854 0.46853 5.6367 0.0729 0.2695 0.1014 1.7978 0.6412 1.6439 0.20242-0.05768 0.26229-0.40866 0.22165-0.5792-0.17724-0.74416-0.49828-1.4021-0.50003-2.192-8.45e-4 -0.39281 0.17862-0.79765 0.22252-1.19 0.25922-2.3168 0.62128-5.5387-1.3673-7.2375-0.88671-0.7575-1.8472-1.3108-2.8181-1.938-0.75976-0.49081-1.5373-1.0638-2.4425-1.2592-0.664-0.14328-1.3919 0.068475-2.0668 0.03567-1.4715-0.071534-2.917-0.35007-4.3841-0.48789-0.66763-0.062721-1.3289 0.066-2.0041-0.060992-1.4508-0.27286-2.5239-1.3692-3.9457-1.7278-0.45037-0.11357-1.2309-0.03574-1.691 0.045089-0.43452 0.076339-0.66462 0.38071-1.003 0.62165-0.98267 0.69976-2.2714 1.8219-2.8155 2.9276-0.33402 0.67878-0.36983 1.5859-0.58411 2.3173-0.31233 1.0661-0.90566 1.9532-1.0813 3.0688-0.18392 1.1685 0.09784 2.3959 0.097765 3.5699-5.68e-5 0.88257-0.49377 1.9622-0.17953 2.8183 0.43926 1.1968 2.7711 1.5922 2.9352 0z"/>
</svg>
