<?xml version="1.0" ?><svg id="Layer_1" style="enable-background:new 0 0 32 32;" version="1.1" viewBox="0 0 32 32" xml:space="preserve" xmlns="http://www.w3.org/2000/svg" xmlns:xlink="http://www.w3.org/1999/xlink"><style type="text/css">
	.st2{fill:#e8eef5;}
</style><path class="st2" d="M17,3L3,17l12,12l14-14V3H17z M17.2324219,18.3032227c0.390625,0.3901367,0.390625,1.0234375,0,1.4140625  c-0.1953125,0.1953125-0.4511719,0.2929688-0.7070313,0.2929688s-0.5117188-0.0976563-0.7070313-0.2929688l-1.0610352-1.06073  l-1.0610352,1.06073c-0.1953125,0.1953125-0.4511719,0.2929688-0.7070313,0.2929688s-0.5117188-0.0976563-0.7070313-0.2929688  c-0.390625-0.390625-0.390625-1.0239258,0-1.4140625l1.0608521-1.0605469l-1.0608521-1.0605469  c-0.390625-0.3901367-0.390625-1.0234375,0-1.4140625s1.0234375-0.390625,1.4140625,0l1.0610352,1.06073l1.0610352-1.06073  c0.390625-0.390625,1.0234375-0.390625,1.4140625,0s0.390625,1.0239258,0,1.4140625l-1.0608521,1.0605469L17.2324219,18.3032227z   M23,11.666626c-0.7363892,0.7363892-1.9302979,0.7363892-2.666687,0c-0.7363892-0.7363281-0.7363892-1.9302368,0-2.666626  S22.2636108,8.2636108,23,9S23.7363892,10.9302979,23,11.666626z"/></svg>
