<?xml version="1.0" encoding="UTF-8"?>
<svg width="580px" height="580px" enable-background="new 0 0 580 580" version="1.1" viewBox="0 0 580 580" xmlns="http://www.w3.org/2000/svg">
	<polygon points="552.19 248.69 527.09 201.84 517.05 154.15 512.86 117.33 483.58 139.09 453.46 165.86 423.34 133.23 471.03 81.357 460.99 70.481 415.81 65.461 373.15 48.729 326.29 22.792 291.99 15.262 251 24.465 211.67 47.892 175.7 58.768 118.8 62.951 118.8 72.991 167.33 128.21 132.19 158.33 72.789 107.29 66.932 154.15 51.036 195.14 22.589 247.85 11.713 287.17 30.119 339.04 56.056 390.08 66.932 460.36 126.33 414.34 157.29 447.81 106.25 501.36 115.46 509.72 149.76 513.07 181.55 521.44 235.94 553.23 274.42 564.94 311.23 559.92 358.09 539 399.08 523.11 443.42 517.25 462.67 505.54 414.98 456.18 449.28 424.38 500.32 472.91 509.52 457.85 514.54 412.67 537.13 369.16 561.39 323.15 567.25 290.52" fill="param(fill)" fill-opacity="param(fill-opacity)" stroke="param(outline)" stroke-opacity="param(outline-opacity)" stroke-width="param(outline-width)"/>
</svg>
