<?xml version="1.0" encoding="UTF-8"?>
<svg width="580px" height="580px" enable-background="new 0 0 579.997 579.997" version="1.1" viewBox="0 0 580 580" xmlns="http://www.w3.org/2000/svg">
	<polygon points="200.01 212.02 272 336.73 286.72 328.23 214.73 203.51" fill="param(fill)" fill-opacity="param(fill-opacity)" stroke="param(outline)" stroke-opacity="param(outline-opacity)" stroke-width="param(outline-width)"/>
	<polygon points="224.54 197.85 296.54 322.56 311.29 314.06 239.28 189.34" fill="param(fill)" fill-opacity="param(fill-opacity)" stroke="param(outline)" stroke-opacity="param(outline-opacity)" stroke-width="param(outline-width)"/>
	<polygon points="175.45 226.19 247.45 350.91 262.17 342.4 190.17 217.69" fill="param(fill)" fill-opacity="param(fill-opacity)" stroke="param(outline)" stroke-opacity="param(outline-opacity)" stroke-width="param(outline-width)"/>
	<path d="m517.43 380.92-93.582-162.1h85.221v-108.84h-435.37v108.84h15.022l177.37 307.22 9.07 15.695 15.714-9.068 219.94-126.98 15.695-9.07-9.07-15.697zm-33.305-187.04h-74.678l-33.382-57.822h108.06v57.822zm-299.96-57.822-85.528 49.382v-49.382h85.528zm104.27 356.15-162.13-280.84 130.44-75.307h77.446l142.77 247.3-188.53 108.84z" fill="param(fill)" fill-opacity="param(fill-opacity)" stroke="param(outline)" stroke-opacity="param(outline-opacity)" stroke-width="param(outline-width)"/>
	<polygon points="381.38 411.35 443.24 375.64 406.96 312.78 345.1 348.5" fill="param(fill)" fill-opacity="param(fill-opacity)" stroke="param(outline)" stroke-opacity="param(outline-opacity)" stroke-width="param(outline-width)"/>
</svg>
