<?xml version="1.0" encoding="UTF-8"?>
<svg width="580px" height="580px" enable-background="new -282 -282 579.997 579.997" version="1.1" viewBox="-282 -282 580 580" xmlns="http://www.w3.org/2000/svg">
	<path d="m230.96-24.913-17.199-17.201 10.378-10.378c16.209-16.25 16.209-42.688-0.021-58.954l-135.26-135.24c-7.869-7.887-18.34-12.23-29.485-12.23s-21.616 4.344-29.467 12.212l-130.08 130.07c-8.484-2.338-17.413-3.593-26.63-3.593-55.324 0-100.33 45.009-100.33 100.33 0 33.587 16.585 63.37 41.992 81.596l-6.765 6.765c-7.887 7.869-12.23 18.342-12.23 29.49 0 11.129 4.331 21.599 12.213 29.498l135.25 135.25c7.884 7.884 18.36 12.226 29.501 12.226 11.149 0 21.628-4.348 29.487-12.225l228.67-228.65c16.215-16.251 16.215-42.691-0.015-58.956zm-171.59-189.67 132.65 132.63-9.048 9.048-87.272-87.284c-7.882-7.864-18.354-12.195-29.485-12.195s-21.604 4.331-29.505 12.214l-81.884 81.891c-4.373-6.113-9.422-11.715-15.058-16.705l119.6-119.6zm-186.18 137.9c8.512 0 16.585 1.894 23.84 5.262 0.553 0.257 1.099 0.523 1.642 0.797 0.379 0.19 0.758 0.381 1.132 0.58 0.432 0.229 0.854 0.469 1.279 0.708 0.47 0.267 0.941 0.528 1.402 0.808 0.213 0.128 0.42 0.265 0.631 0.396 9.107 5.668 16.505 13.832 21.213 23.538 0.019 0.037 0.038 0.073 0.057 0.11 0.23 0.479 0.44 0.969 0.658 1.454 0.202 0.454 0.409 0.904 0.6 1.364 0.139 0.334 0.267 0.673 0.398 1.009 0.249 0.634 0.493 1.27 0.72 1.914 0.085 0.241 0.164 0.484 0.246 0.727 0.255 0.757 0.497 1.52 0.72 2.29 0.066 0.228 0.132 0.455 0.195 0.685 0.439 1.59 0.808 3.194 1.107 4.809 0.055 0.301 0.11 0.602 0.161 0.903 0.076 0.451 0.148 0.902 0.214 1.354 0.076 0.535 0.144 1.072 0.205 1.611 0.049 0.42 0.092 0.841 0.131 1.262 0.056 0.617 0.105 1.235 0.142 1.858 0.016 0.267 0.03 0.535 0.042 0.803 0.037 0.843 0.064 1.688 0.064 2.54 0 31.32-25.479 56.801-56.799 56.801-0.852 0-1.696-0.027-2.538-0.064-0.27-0.012-0.539-0.026-0.808-0.042-0.617-0.036-1.23-0.085-1.842-0.141-0.442-0.041-0.883-0.087-1.324-0.138-0.519-0.06-1.035-0.124-1.55-0.197-0.463-0.067-0.925-0.141-1.387-0.219-0.283-0.048-0.564-0.101-0.847-0.152-1.644-0.304-3.278-0.679-4.896-1.128-0.211-0.059-0.421-0.118-0.631-0.18-0.694-0.201-1.386-0.418-2.073-0.646-0.236-0.078-0.472-0.157-0.707-0.239-0.609-0.211-1.213-0.435-1.812-0.666-21.25-8.22-36.368-28.865-36.368-52.988 1e-3 -31.311 25.474-56.783 56.783-56.783zm99.618 307.28-132.64-132.64 18.558-18.559c2.371 0.345 4.768 0.607 7.189 0.781 0.032 3e-3 0.064 4e-3 0.097 7e-3 1.043 0.073 2.09 0.129 3.141 0.171 0.247 0.01 0.494 0.02 0.741 0.028 1.094 0.035 2.19 0.06 3.293 0.06 55.333 0 100.35-45.018 100.35-100.35 0-1.104-0.024-2.201-0.06-3.297-9e-3 -0.244-0.019-0.489-0.028-0.734-0.042-1.063-0.098-2.121-0.174-3.176-1e-3 -0.02-2e-3 -0.039-3e-3 -0.059-0.175-2.426-0.438-4.826-0.782-7.202l93.713-93.722 132.65 132.66-226.04 226.02z" fill="param(fill)" fill-opacity="param(fill-opacity)" stroke="param(outline)" stroke-opacity="param(outline-opacity)" stroke-width="param(outline-width)"/>
</svg>
