<?xml version="1.0" encoding="UTF-8"?>
<svg width="580px" height="580px" enable-background="new 0 0 579.997 579.997" version="1.1" viewBox="0 0 580 580" xmlns="http://www.w3.org/2000/svg">
	<path d="m518.65 262.01c-3.426-4.765-8.936-7.59-14.804-7.59h-43.349c0.024-0.399 0.057-0.797 0.055-1.202-0.244-50.812-17.943-98.636-49.838-134.66-32.466-36.674-75.747-56.871-121.88-56.871-46.305 0.01-89.7 20.344-122.19 57.257-31.918 36.261-49.496 84.325-49.496 135.34 0 0.048 7e-3 0.094 7e-3 0.141h-43.301c-5.868 0-11.379 2.825-14.804 7.59-3.426 4.766-4.349 10.888-2.479 16.451l72.906 216.93c2.494 7.423 9.451 12.424 17.282 12.424h284.19c7.832 0 14.788-5.002 17.283-12.426l72.889-216.93c1.871-5.564 0.948-11.686-2.478-16.45zm-365.25-7.731c0-86.194 60.761-156.33 135.44-156.35 74.281 0 135.05 69.738 135.46 155.46 2e-3 0.348 0.036 0.686 0.057 1.028h-270.96c0-0.046 7e-3 -0.092 7e-3 -0.14zm90.18 105.97-5.749-69.365h99.836l-5.973 69.365h-88.114zm84.862 37.77-6.314 73.332h-69.339l-6.078-73.332h81.731zm-129.19-107.14 5.749 69.365h-80.934v4.583l-24.853-73.948h100.04zm-64.032 107.14h72.911l6.078 73.332h-54.344l-24.645-73.332zm282.62 73.332h-57.362l6.313-73.332h75.688l-24.639 73.332zm37.33-111.1h-85.127l5.973-69.365h102.46l-23.306 69.365z" fill="param(fill)" fill-opacity="param(fill-opacity)" stroke="param(outline)" stroke-opacity="param(outline-opacity)" stroke-width="param(outline-width)"/>
</svg>
