<?xml version="1.0" encoding="UTF-8"?>
<svg width="580px" height="580px" enable-background="new 0 0 579.997 579.997" version="1.1" viewBox="0 0 580 580" xmlns="http://www.w3.org/2000/svg">
	<path d="m507.16 253.96c0.306-2.806 0.475-5.652 0.475-8.539 0-43.064-34.934-77.963-77.945-77.963h-121.81c-43.065 0-77.963 34.898-77.963 77.963 0 2.887 0.169 5.733 0.475 8.539h-2.896c0.082-2.019 0.136-4.054 0.136-6.113v-5.277c0-42.357-17.573-76.688-39.257-76.688-21.7 0-39.273 34.33-39.273 76.688v5.277c0 2.06 0.054 4.095 0.136 6.113h-4.122v-108.84h-72.56v290.24h72.56v-108.84h290.24v108.84h72.561v-181.4h-0.76z" fill="param(fill)" fill-opacity="param(fill-opacity)" stroke="param(outline)" stroke-opacity="param(outline-opacity)" stroke-width="param(outline-width)"/>
</svg>
