<?xml version="1.0" encoding="UTF-8"?>
<svg width="580px" height="580px" enable-background="new 0 0 579.997 579.997" version="1.1" viewBox="0 0 580 580" xmlns="http://www.w3.org/2000/svg">
	<path d="m377.69 98.521c-26.953-21.852-71.077-32.793-132.5-32.793h-120.72v445h87.931v-166.61h32.794c61.418 0 105.54-10.941 132.5-32.793 26.883-21.852 40.395-57.318 40.395-106.4s-13.513-84.553-40.396-106.4zm-68.543 157.07c-11.647 9.748-31.88 14.604-60.68 14.604h-36.066v-130.54h36.066c28.8 0 49.032 4.891 60.68 14.604 11.611 9.746 17.417 26.635 17.417 50.668 0 24.068-5.805 40.957-17.417 50.668z" fill="param(fill)" fill-opacity="param(fill-opacity)" stroke="param(outline)" stroke-opacity="param(outline-opacity)" stroke-width="param(outline-width)"/>
</svg>
