<?xml version="1.0" encoding="UTF-8"?>
<svg width="580px" height="580px" enable-background="new 0 0 579.997 579.997" version="1.1" viewBox="0 0 580 580" xmlns="http://www.w3.org/2000/svg">
	<path d="m543.68 290.46c0.532-15.016-16.239-16.947-33.967-24.891l22.976-79.189h-29.854l-48.291 72.4c-19.288-6.293-74.953-7.941-128.28-7.941l52.829-197.3h-57.438l-114.63 198.54c-47.865 0-107.88 3.119-127.07 5.283-17.799 2.021-42.37 10.016-42.37 33.098s24.571 31.061 42.37 33.115c19.199 2.129 79.209 5.248 127.07 5.248l114.63 198.55h57.438l-52.829-197.28c53.326 0 108.99-1.668 128.28-7.943l48.291 72.402h29.854l-22.976-79.209c17.729-7.944 34.501-9.875 33.969-24.891z" fill="param(fill)" fill-opacity="param(fill-opacity)" stroke="param(outline)" stroke-opacity="param(outline-opacity)" stroke-width="param(outline-width)"/>
</svg>
