<?xml version="1.0" encoding="UTF-8"?>
<svg width="580px" height="580px" enable-background="new 0 0 580 580" version="1.1" viewBox="0 0 580 580" xmlns="http://www.w3.org/2000/svg">
	<path d="m403.26 427.96c-0.04-2.995-1.444-5.955-5.858-8.479-4.699-2.967-11.023-5.057-18.188-6.571v-214.16c0.327-23.437-9.189-46.855-25.772-63.42-16.582-16.564-40.011-26.057-63.446-25.705-22.993 0.35-45.701 10.155-61.723 26.651-16.021 16.496-25.16 39.48-24.839 62.474v214.51c-3.167 0.655-6.286 1.372-9.313 2.202-9.73 2.776-13.804 7.512-13.97 12.392-0.174 5.122 0.479 19.263 0.257 31.752-1.645 6.058 4.461 12.611 17.775 15.337 23.398 6.316 52.671 5.54 79.374 6.573 36.357 0.457 74.47 0.168 108-6.387 10.075-2.737 16.916-7.809 17.669-12.917 0.063-0.124 0.104-0.254 0.097-0.4-0.012-11.623 0.084-22.65-0.064-33.854z" fill="param(fill)" fill-opacity="param(fill-opacity)" stroke="param(outline)" stroke-opacity="param(outline-opacity)" stroke-width="param(outline-width)"/>
</svg>
