<?xml version="1.0" encoding="UTF-8"?>
<svg width="580px" height="580px" enable-background="new 0 0 580 580" version="1.1" viewBox="0 0 580 580" xmlns="http://www.w3.org/2000/svg">
	<path d="m183.24 107.22h-54.142c-5.884 0-11.525 2.344-15.676 6.514-4.151 4.169-6.469 9.821-6.442 15.705l1.592 350.52c0.044 9.758 6.478 18.334 15.833 21.106 2.08 0.616 4.193 0.913 6.284 0.913 7.313 0 14.33-3.64 18.493-9.984l52.551-80.078c2.366-3.605 3.626-7.823 3.626-12.136v-270.44c0-12.215-9.903-22.118-22.119-22.118z" fill="param(fill)" fill-opacity="param(fill-opacity)" opacity=".5" stroke="param(outline)" stroke-miterlimit="10" stroke-opacity="param(outline-opacity)" stroke-width="param(outline-width)"/>
	<path d="m458.34 113.73c-4.151-4.17-9.792-6.514-15.676-6.514h-54.144c-12.216 0-22.118 9.903-22.118 22.119v270.44c0 4.313 1.26 8.53 3.626 12.136l52.552 80.078c4.164 6.345 11.179 9.984 18.493 9.984 2.09 0 4.205-0.297 6.284-0.913 9.355-2.772 15.789-11.349 15.833-21.106l1.592-350.52c0.028-5.885-2.292-11.537-6.442-15.706z" fill="param(fill)" fill-opacity="param(fill-opacity)" opacity=".5" stroke="param(outline)" stroke-miterlimit="10" stroke-opacity="param(outline-opacity)" stroke-width="param(outline-width)"/>
	<path d="m879.29 36.805" fill="param(fill)" fill-opacity="param(fill-opacity)" stroke="param(outline)" stroke-opacity="param(outline-opacity)" stroke-width="param(outline-width)"/>
	<path d="m879.29 36.805" fill="param(fill)" fill-opacity="param(fill-opacity)" stroke="param(outline)" stroke-opacity="param(outline-opacity)" stroke-width="param(outline-width)"/>
	<path d="m491.33 87.05h-408.7c-6.108 0-11.06 4.951-11.06 11.059v393.12c0 6.107 4.952 11.06 11.06 11.06h54.147c6.108 0 11.059-4.952 11.059-11.06v-352.4h278.28v351.72c0 6.107 4.952 11.06 11.06 11.06h54.146c6.107 0 11.06-4.952 11.06-11.06v-392.45c0-6.108-4.953-11.059-11.06-11.059z" fill="param(fill)" fill-opacity="param(fill-opacity)" stroke="param(outline)" stroke-miterlimit="10" stroke-opacity="param(outline-opacity)" stroke-width="param(outline-width)"/>
</svg>
