<?xml version="1.0" encoding="UTF-8"?>
<svg width="580px" height="580px" enable-background="new 0 0 580 580" version="1.1" viewBox="0 0 580 580" xmlns="http://www.w3.org/2000/svg">
	<g transform="translate(879.29 36.805)" fill="param(fill)" fill-opacity="param(fill-opacity)" stroke="param(outline)" stroke-opacity="param(outline-opacity)" stroke-width="param(outline-width)">
		<path d="m0 0"/>
		<path d="m0 0"/>
	</g>
	<g fill="param(fill)" fill-opacity="param(fill-opacity)" stroke="param(outline)" stroke-miterlimit="10" stroke-opacity="param(outline-opacity)" stroke-width="param(outline-width)">
		<path d="m364.79 386.39c-10.628-9.264-29.576-16.851-53.821-21.643v-76.84c6.895 2.067 13.535 5.019 17.364 8.801 5.953 5.881 9.927 14.017 11.81 24.179 0.165 0.893 0.995 1.5 1.896 1.392l34.306-4.193c0.469-0.057 0.894-0.305 1.174-0.685s0.392-0.859 0.308-1.324c-3.119-17.33-10.923-31.01-23.192-40.658-9.539-7.5-25.109-13.103-43.665-15.871v-10.506c0-9.217-7.473-16.689-16.689-16.689-9.217 0-16.689 7.472-16.689 16.689v9.927c-21.887 2.61-38.681 9.497-49.964 20.532-12.516 12.241-18.861 27.105-18.861 44.18 0 17.22 6.434 31.508 19.123 42.466 11.353 9.803 28.06 17.133 49.703 21.84v85.896c-9.26-1.994-16.956-6.178-22.934-12.504-7.552-7.995-12.649-19.61-15.148-34.523-0.154-0.924-1.019-1.55-1.949-1.414l-33.021 4.971c-0.895 0.135-1.531 0.94-1.456 1.842 1.744 20.774 9.537 37.186 23.163 48.776 12.253 10.425 29.509 17.188 51.344 20.164v14.076c0 9.217 7.472 16.689 16.689 16.689s16.689-7.473 16.689-16.689v-14.477c21.972-2.677 40.576-10.219 52.052-21.313 14.103-13.632 21.253-29.988 21.254-48.614-3e-3 -18.248-6.558-33.213-19.486-44.477zm-53.821 9.916c14.024 4.294 22.907 8.426 26.982 12.546 5.939 6.007 8.951 14.094 8.951 24.036 0 11.362-4.016 20.897-11.934 28.342-5.848 5.498-15.056 9.294-24 11.595v-76.519zm-33.379-39.258c-9.003-3.021-16.378-6.911-21.977-11.612-6.994-5.874-10.394-13.701-10.394-23.929 0-8.806 3.411-16.681 10.138-23.408 5.423-5.423 12.886-9.321 22.233-11.644v70.593z"/>
		<path d="m518 88.499c-3.286-14.739-17.901-24.023-32.637-20.738l-369.53 82.38c-14.739 3.286-24.023 17.898-20.738 32.637 2.839 12.736 14.134 21.399 26.662 21.399 1.97 0 3.972-0.215 5.975-0.661l369.53-82.38c14.74-3.286 24.025-17.898 20.739-32.637z"/>
	</g>
	<path d="m455.31 202.66c-3.723-2e-3 -7.423 1.53-10.056 4.163-2.633 2.632-4.164 6.333-4.163 10.056v170.53c-2e-3 3.724 1.53 7.424 4.163 10.056 2.633 2.633 6.333 4.165 10.056 4.163h51.844c3.724 2e-3 7.424-1.53 10.057-4.163 2.632-2.632 4.164-6.332 4.162-10.056v-170.53c2e-3 -3.723-1.53-7.423-4.162-10.056-2.633-2.633-6.333-4.165-10.057-4.163h-51.844z" enable-background="new    " fill="param(fill)" fill-opacity="param(fill-opacity)" opacity=".75" stroke="param(outline)" stroke-miterlimit="10" stroke-opacity="param(outline-opacity)" stroke-width="param(outline-width)"/>
	<path d="m78.813 59.663c-4.639 0-9.251 1.908-12.531 5.188s-5.188 7.893-5.188 12.531v306.53c0 4.639 1.907 9.251 5.188 12.531 3.28 3.28 7.892 5.188 12.531 5.188h44.844c4.639 0 9.251-1.907 12.531-5.188 3.28-3.28 5.188-7.893 5.188-12.531v-154.47c-22.415 6.882-49.301 0.786-63.781-18.25-21.961-26.269-10.755-72.689 21.625-84.938 14.049-3.254 28.104-6.478 42.156-9.719v-39.155c0-4.639-1.907-9.251-5.188-12.531-3.28-3.28-7.892-5.187-12.531-5.188h-44.844z" enable-background="new    " fill="param(fill)" fill-opacity="param(fill-opacity)" opacity=".75" stroke="param(outline)" stroke-miterlimit="10" stroke-opacity="param(outline-opacity)" stroke-width="param(outline-width)"/>
</svg>
