<?xml version="1.0" encoding="UTF-8"?>
<svg width="16px" height="16px" xmlns="http://www.w3.org/2000/svg">
	<g>
		<rect width="16" height="16" rx="4" fill="#6c7be1"/>
		<path d="m7.8744 2.8268c-0.091282 0-0.16477 0.073485-0.16477 0.16477v0.058356 0.070371h-0.027459l0.027459 0.018879v0.053207 0.14417l-1.1997 0.81698h-0.0034343l0.0034343 0.0017154 1.2272 0.83757h-0.9869c-0.1817 0-0.33629 0.10942-0.40334 0.26603h-4.9654c-0.18205 0-0.32782 0.14577-0.32782 0.32782 0 0-0.21024 1.0715-0.21797 1.0899-0.11408 0.27062-0.17678 0.56912-0.17678 0.8822v1.8605h0.6728c0.017066 0.0027136 0.031924 0.012014 0.049776 0.012014h0.51318v0.22999h0.71571c0.0077892 0.27096 0.22834 0.48916 0.50117 0.48916 0.27295 0 0.49357-0.21803 0.50117-0.48916h0.71743c0.0077892 0.27096 0.22662 0.48916 0.49945 0.48916 0.27295 0 0.49357-0.21803 0.50117-0.48916h5.4013c0.007789 0.27096 0.22662 0.48916 0.49945 0.48916 0.27295 0 0.49356-0.21803 0.50117-0.48916h0.7037c0.007786 0.27096 0.22662 0.48916 0.49945 0.48916 0.27295 0 0.49528-0.21803 0.50289-0.48916h0.75519v-0.22999l0.48572-0.0017153c0.018205 0 0.034107-0.0074799 0.051491-0.010299h0.6934v-1.8605c2e-6 -0.31307-0.064413-0.61158-0.1785-0.8822l-0.23686-1.0899c0-0.18205-0.14749-0.32782-0.32954-0.32782h-4.9499c-0.066841-0.15709-0.22301-0.26603-0.40506-0.26603h-1.0126l1.2272-0.83757v-0.0017154l-1.2152-0.82728v-0.13387-0.042908l0.042908-0.029178h-0.042908v-0.070371-0.058356c0-0.091282-0.073489-0.16477-0.16477-0.16477h-0.28491zm0.1476 0.53035h0.0085836l1.1671 0.7981-1.1723 0.79981-1.174-0.79981 1.1705-0.7981zm-6.45 2.5144h0.3999c0.12171 0 0.21969 0.097985 0.21969 0.21969v0.90451c0 0.12171-0.097981 0.21969-0.21969 0.21969h-0.60758c-0.12171 0-0.21969-0.097985-0.21969-0.21969 0 0 0.21375-0.96403 0.22484-0.99033 0.011087-0.026303 0.026486-0.050518 0.046338-0.070371 0.019856-0.019856 0.044072-0.035252 0.070371-0.046342 0.026303-0.011086 0.05539-0.017164 0.085819-0.017164zm1.2924 0h0.52005c0.12171 0 0.21969 0.097985 0.21969 0.21969v2.8405c0 0.12171-0.097984 0.21969-0.21969 0.21969h-0.52005c-0.12171 0-0.21969-0.097981-0.21969-0.21969v-2.8405c0-0.12171 0.097986-0.21969 0.21969-0.21969zm1.2255 0h0.52005c0.12171 0 0.21969 0.097985 0.21969 0.21969v2.8405c0 0.12171-0.097982 0.21969-0.21969 0.21969h-0.52005c-0.12171 0-0.21969-0.097981-0.21969-0.21969v-2.8405c0-0.12171 0.097982-0.21969 0.21969-0.21969zm1.3439 0h1.1723c0.12171 0 0.21969 0.097985 0.21969 0.21969v0.90451c0 0.12171-0.097985 0.21969-0.21969 0.21969h-1.1723c-0.12171 0-0.21969-0.097985-0.21969-0.21969v-0.90451c0-0.12171 0.097981-0.21969 0.21969-0.21969zm2.0064 0h1.1723c0.12171 0 0.21969 0.097985 0.21969 0.21969v0.90451c0 0.12171-0.097985 0.21969-0.21969 0.21969h-1.1723c-0.12171 0-0.21969-0.097985-0.21969-0.21969v-0.90451c0-0.12171 0.097981-0.21969 0.21969-0.21969zm1.9772 0h1.1723c0.12171 0 0.21969 0.097985 0.21969 0.21969v0.90451c0 0.12171-0.097981 0.21969-0.21969 0.21969h-1.1723c-0.12171 0-0.21969-0.097985-0.21969-0.21969v-0.90451c0-0.12171 0.097981-0.21969 0.21969-0.21969zm2.0356 0h0.52005c0.12171 0 0.21969 0.097985 0.21969 0.21969v2.8405c0 0.12171-0.097981 0.21969-0.21969 0.21969h-0.52005c-0.12171 0-0.21969-0.097981-0.21969-0.21969v-2.8405c0-0.12171 0.097981-0.21969 0.21969-0.21969zm1.2255 0h0.52005c0.12171 0 0.21969 0.097985 0.21969 0.21969v2.8405c0 0.12171-0.097982 0.21969-0.21969 0.21969h-0.52005c-0.12171 0-0.21969-0.097981-0.21969-0.21969v-2.8405c0-0.12171 0.097985-0.21969 0.21969-0.21969zm1.3834 0h0.40162c0.030426 0 0.059516 0.0060774 0.085815 0.017164 0.026303 0.01109 0.0488 0.026486 0.068656 0.046342 0.019853 0.019853 0.036971 0.044068 0.048057 0.070371 0.011087 0.026299 0.22484 0.99033 0.22484 0.99033 0 0.12171-0.09798 0.21969-0.21969 0.21969h-0.6093c-0.12171 0-0.21969-0.097985-0.21969-0.21969v-0.90451c0-0.12171 0.097986-0.21969 0.21969-0.21969z" fill="#fff" fill-rule="evenodd" stroke-width="3pt"/>
	</g>
</svg>
