<?xml version="1.0" encoding="UTF-8"?>
<svg width="580px" height="580px" enable-background="new 0 0 580 580" version="1.1" viewBox="0 0 580 580" xmlns="http://www.w3.org/2000/svg">
	<path d="m413.34 111.75h-164.34c-8.482 0-16.938 6.131-16.938 15.938l-0.01 16.775c-11.361-1.421-22.556 1.513-32.702 31.677 0.027 17.29 0.369 34.736 0.825 52.241-17.695 71.973-53.214 113.29-78.548 174.34-11.54 61.568 69.732 90.63 94.848 27.356 1.207-4.436 1.557-9.304 0.978-14.003-0.271-2.201-0.747-130.86-0.643-196.06l15.197 0.09-0.132 222.83h17.438l0.156 24.938 160.09-0.094 0.125-24.844 15 0.125v-318.62c0-6.796-3.937-12.688-11.344-12.688zm-213.6 311.69c-15.642 45.063-65.586 31.231-63.751-10.752 21.754-45.423 49.797-99.75 65.725-130.74 1.341 48.164 2.045 96.011-1.974 141.5zm191.32-183.59c0 5.614-3.001 9.688-9.406 9.688l-105.59-0.281c-6.098 0-11.344-4.505-11.344-11.063l0.531-81.5c0-6.523 4.52-10.094 10.531-10.094h104.91c5.809 0 10.375 2.365 10.375 10.375v82.875z" fill="param(fill)" fill-opacity="param(fill-opacity)" stroke="param(outline)" stroke-opacity="param(outline-opacity)" stroke-width="param(outline-width)"/>
</svg>
