<?xml version="1.0" encoding="UTF-8"?>
<svg width="580px" height="580px" enable-background="new 0 0 580 580" version="1.1" viewBox="0 0 580 580" xmlns="http://www.w3.org/2000/svg">
	<g transform="matrix(48.15 0 0 48.15 -536.27 -33.307)" display="none" fill="none" stroke="#757575" stroke-width=".1">
		<rect x="1" y="1" width="10" height="10" display="inline"/>
		<rect x="2" y="2" width="8" height="8" display="inline"/>
	</g>
	<g fill="param(fill)" fill-opacity="param(fill-opacity)" opacity=".5" stroke="param(outline)" stroke-opacity="param(outline-opacity)" stroke-width="param(outline-width)">
		<path d="m239.81 100.79-203.26-25.851c-1.432-0.184-2.87 0.263-3.949 1.219-1.079 0.957-1.692 2.333-1.682 3.775l0.591 85.763c0.01 1.428 0.63 2.783 1.703 3.725 0.917 0.804 2.091 1.241 3.297 1.241 0.206 0 0.412-0.013 0.618-0.039l202.67-25.259c2.503-0.312 4.382-2.439 4.382-4.961v-34.653c0-2.518-1.872-4.643-4.369-4.96z"/>
		<path d="m551.85 76.148c-1.078-0.949-2.508-1.389-3.938-1.208l-202.66 25.851c-2.496 0.319-4.367 2.443-4.367 4.96v34.061c0 2.517 1.871 4.641 4.367 4.96l202.66 25.851c0.211 0.027 0.423 0.04 0.633 0.04 1.209 0 2.386-0.439 3.305-1.248 1.077-0.949 1.695-2.316 1.695-3.752v-85.762c0-1.437-0.618-2.803-1.695-3.753z"/>
	</g>
	<g fill="param(fill)" fill-opacity="param(fill-opacity)" stroke="param(outline)" stroke-opacity="param(outline-opacity)" stroke-width="param(outline-width)">
		<path d="m220.74 85.721h140.98c5.894 0 8.531-3.988 8.531-7.94 0-2.874-1.418-5.397-3.991-7.106-0.113-0.075-0.229-0.145-0.347-0.21l-72.264-39.941c-1.511-0.834-3.344-0.832-4.854 9e-3l-71.655 39.941c-0.106 0.059-0.209 0.122-0.311 0.188-2.599 1.708-4.03 4.237-4.029 7.118 0 2.928 1.195 4.738 2.199 5.742 1.005 1.003 2.815 2.199 5.742 2.199z"/>
		<path d="m405.45 543.02-46.839-357.42h6.637c7.063 0 11.451-4.388 11.453-11.455-2e-3 -7.076-4.391-11.471-11.454-11.471h-147.45c-3.519 0-6.338 1.039-8.381 3.087-2.04 2.045-3.073 4.866-3.073 8.384 0 3.516 1.035 6.334 3.078 8.376s4.861 3.078 8.376 3.078h6.626l-47.419 357.41c-0.189 1.428 0.246 2.868 1.196 3.952 0.949 1.084 2.32 1.705 3.761 1.705h218.53c1.439 0 2.809-0.62 3.758-1.702s1.387-2.52 1.2-3.947z"/>
		<path d="m255.32 123.39c0 20.463 16.648 37.112 37.112 37.112 20.463 0 37.111-16.648 37.111-37.112s-16.648-37.112-37.111-37.112-37.112 16.649-37.112 37.112z"/>
	</g>
</svg>
