<?xml version="1.0" encoding="UTF-8"?>
<svg width="580px" height="580px" enable-background="new 0 0 580 580" version="1.1" viewBox="0 0 580 580" xmlns="http://www.w3.org/2000/svg">
	<circle cx="294.32" cy="291.75" r="76.263" fill="param(fill)" fill-opacity="param(fill-opacity)" stroke="param(outline)" stroke-opacity="param(outline-opacity)" stroke-width="param(outline-width)"/>
	<path d="m563.24 323.16-77.969-77.969c-18.662-76.536-82.249-135.67-161.13-147.72v-70.796c0-2.499-1.505-4.751-3.813-5.708-2.308-0.955-4.966-0.428-6.732 1.339l-78.678 78.677c-1.07 1.07-1.701 2.494-1.792 3.996-67.079 22.034-118.33 79.258-131.83 149.74h-73.49c-2.499 0-4.751 1.505-5.708 3.813s-0.428 4.966 1.339 6.732l78.677 78.677c0.874 0.874 1.982 1.458 3.176 1.692 19.913 69.755 77.484 123.78 149.22 138.6v73.506c0 2.499 1.505 4.751 3.813 5.708 0.765 0.316 1.567 0.47 2.363 0.47 1.608 0 3.188-0.628 4.37-1.81l78.678-78.677c0.518-0.518 0.927-1.12 1.229-1.771 70.609-18.848 125.68-76.118 141.37-147.95h72.538c2.499 0 4.751-1.505 5.708-3.813 0.958-2.307 0.429-4.964-1.338-6.731zm-224.51 146.58-73.693-72.837c-1.772-1.752-4.425-2.268-6.724-1.307-2.3 0.96-3.797 3.208-3.797 5.7v69.526c-67.107-14.907-120.5-66.67-137.74-132.88l71.864-72.709c1.751-1.772 2.267-4.424 1.307-6.724s-3.208-3.797-5.701-3.797h-69.609c13.604-66.1 62.881-119.32 126.74-138.61l72.239 71.398c1.18 1.166 2.748 1.784 4.344 1.784 0.802 0 1.611-0.156 2.38-0.478 2.3-0.96 3.797-3.208 3.797-5.701v-72.367c72.568 11.914 130.93 66.557 148.31 137.16l-74.41 75.285c-1.752 1.772-2.268 4.424-1.307 6.724 0.96 2.3 3.208 3.797 5.7 3.797h70.479c-15.668 66.699-67.833 119.48-134.18 136.04z" fill="param(fill)" fill-opacity="param(fill-opacity)" stroke="param(outline)" stroke-opacity="param(outline-opacity)" stroke-width="param(outline-width)"/>
</svg>
