<?xml version="1.0" encoding="UTF-8"?>
<svg width="580px" height="580px" enable-background="new 0 0 580 580" version="1.1" viewBox="0 0 580 580" xmlns="http://www.w3.org/2000/svg">
	<path d="m145.36 505.15v-419.58h158.27c27.857 0 49.132 1.336 63.824 4.007 20.607 3.435 37.875 9.97 51.805 19.604 13.93 9.636 25.139 23.136 33.63 40.499 8.49 17.364 12.735 36.445 12.736 57.242-1e-3 35.681-11.354 65.876-34.06 90.585-22.706 24.71-63.729 37.064-123.07 37.064h-107.61v170.58h-55.525zm55.525-220.1h108.47c35.871 0 61.345-6.678 76.418-20.035 15.073-13.356 22.609-32.151 22.61-56.383-1e-3 -17.554-4.437-32.58-13.309-45.078-8.873-12.498-20.562-20.75-35.063-24.757-9.35-2.479-26.616-3.72-51.804-3.721h-107.33v149.97z" enable-background="new    " fill="param(fill)" fill-opacity="param(fill-opacity)" opacity=".5"/>
	<path d="m144.62 74.625c-6.265 1e-3 -11.343 5.079-11.344 11.344v419.56c1e-3 6.265 5.079 11.343 11.344 11.344h55.5c6.265-1e-3 11.343-5.079 11.344-11.344v-159.22h96.281c60.915 0 105.4-12.414 131.44-40.75 24.546-26.711 37.03-60.163 37.03-98.25 0-22.341-4.6-43.25-13.875-62.219-9.203-18.818-21.712-34.007-37.375-44.844-15.518-10.734-34.405-17.779-56.219-21.438-0.058-0.01-0.13-0.021-0.188-0.031-15.918-2.875-37.568-4.156-65.688-4.156h-158.25zm11.344 22.688h146.91c27.495 0 48.361 1.367 61.813 3.813 0.052 0.011 0.104 0.021 0.155 0.031 19.319 3.22 34.923 9.245 47.22 17.75 12.193 8.436 22.096 20.248 29.875 36.156 7.704 15.758 11.594 32.996 11.594 52.25 0 33.275-10.197 60.2-31.063 82.906-19.375 21.084-56.952 33.406-114.72 33.406h-107.62c-6.265 0-11.343 5.079-11.344 11.344v159.22h-32.813l1e-3 -396.88zm44.156 26.812c-6.265 1e-3 -11.343 5.079-11.344 11.344v149.97c1e-3 6.265 5.079 11.343 11.344 11.344h108.47c37.279 0 65.552-6.556 83.97-22.875 17.621-15.615 26.405-38.29 26.405-64.875 0-19.465-5.052-37.114-15.375-51.656-10.229-14.409-24.466-24.47-41.313-29.125-0.031-0.011-0.063-0.021-0.095-0.031-11.788-3.127-29.159-4.093-54.719-4.094l-107.34-1e-3zm11.344 22.688h96c24.703 0 41.813 1.491 48.781 3.313 0.031 8e-3 0.094 0.023 0.125 0.031 12.092 3.369 21.229 9.795 28.719 20.344 7.421 10.454 11.188 22.889 11.188 38.531 0 21.881-6.257 36.777-18.781 47.875-11.731 10.395-34.442 17.188-68.906 17.188h-97.125l-1e-3 -127.28z" fill="param(fill)" fill-opacity="param(fill-opacity)" stroke="param(outline)" stroke-opacity="param(outline-opacity)" stroke-width="param(outline-width)"/>
	<path d="m145.19 74.219c-2.97 0-5.931 1.212-8.031 3.313s-3.312 5.062-3.313 8.031v22.469h35.344v-33.813h-24zm66.937 0v32.281h41.938v-32.281h-41.938zm85.375 0v31.438h41.938v-30.5c-10.578-0.622-22.506-0.938-35.969-0.938h-5.969zm87.469 7.5v22.375h41.938v-3.281c-0.447-0.32-0.891-0.655-1.344-0.969-11.687-8.084-25.275-14.097-40.594-18.125zm42.187 21.281v41.938h35.906c-0.041-0.083-0.084-0.167-0.125-0.25-8.347-17.068-19.42-31.13-33.094-41.688h-2.687zm-172.34 1.875v41.563h41.938v-41.563h-41.938zm86.593 0.156v41.938h41.938v-41.938h-41.938zm-171.47 2.469v41.938h41.938v-41.938h-41.938zm215.03 38.531v23.156c0.229 0.311 0.462 0.62 0.688 0.938 3.819 5.38 6.687 11.287 8.563 17.875h32.688v-41.969h-41.939zm-251.12 3.938v41.938h35.344v-41.938h-35.344zm334.78 8.219v28.719h-41.469v41.938h41.938v-40.781h6.563c-1.274-10.344-3.606-20.322-7.032-29.876zm-298.69 33.187v41.938h41.938v-41.938h-41.938zm224.44 38.563c-1.968 7.418-5.114 13.771-9.406 19.281v22.656h41.938v-41.938h-32.532zm74.25 0.062v27.219c3.038-8.699 5.211-17.792 6.563-27.219h-6.563zm-334.78 3.844v41.938h35.344v-41.938h-35.344zm293.31 36.937v41.938h4.813c2.751-2.371 5.35-4.886 7.781-7.531 9.624-10.474 17.385-21.982 23.281-34.406h-35.875zm-87.718 0.813c-5.488 0.847-11.416 1.475-17.875 1.813h17.875v-1.813zm1.968 1.219v41.938h41.938v-41.938h-41.938zm-129.28 0.906v0.563h41.938v-0.563h-41.938zm42.688 0v40.844h41.938v-40.844h-41.938zm-84.875 1.531v41.938h41.938v-41.938h-41.938zm215.03 38.563v23c16.359-4.709 30.374-11.338 41.938-20.031v-2.969h-41.938zm-87.469 1.531v30.563h10.844c10.894 0 21.264-0.406 31.094-1.219v-29.344h-41.938zm-85.375 0.875v29.688h41.938v-29.688h-41.938zm-78.281 1.5v41.969h35.344v-41.969h-35.344zm36.094 41.437v41.938h41.938v-41.938h-41.938zm-36.094 42.469v41.938h35.344v-41.938h-35.344zm36.094 41.406v41.938h41.938v-41.938h-41.938zm-36.094 42.469v19.656c1e-3 2.97 1.212 5.932 3.313 8.031s5.062 3.313 8.031 3.313h24v-31h-35.344z" enable-background="new    " fill="#fff" opacity=".75"/>
</svg>
