<?xml version="1.0" encoding="UTF-8"?>
<svg width="580px" height="580px" enable-background="new 0 0 580 580" version="1.1" viewBox="0 0 580 580" xmlns="http://www.w3.org/2000/svg">
	<g transform="matrix(48.15 0 0 48.15 -536.27 -33.307)" display="none" fill="none" stroke="#757575" stroke-width=".1">
		<rect x="1" y="1" width="10" height="10" display="inline"/>
		<rect x="2" y="2" width="8" height="8" display="inline"/>
	</g>
	<path d="m434.6 482.81c-15.029 7.814-38.862 5.758-55.734-3.038-23.249-12.121-36.412-9.157-60.778 1.677-18.878 8.394-35.917 8.39-54.717 0-24.351-10.865-36.91-13.798-60.159-1.677-16.872 8.796-41.053 10.853-56.082 3.038-26.349-13.705-45.178-16.26-66.103-3.345 0 0-9.032 6.852-28.932 6.852v48.488c12.55 0 22.35-2.45 30.789-7.622 10.709-6.564 30.689-13.415 54.455-1.292 23.765 12.123 43.914 12.123 64.063 1.58 20.149-10.541 31.315-12.44 55.797-1.844 23.765 12.123 47.272 11.008 67.42 0.467 24.482-10.598 35.905-9.164 56.055 1.377 20.15 10.543 40.298 10.543 64.063-1.58 23.762-12.123 43.104-5.212 53.834 1.292 8.983 5.444 17.967 7.622 31.408 7.622v-48.488c-20.247 0.032-28.932-6.852-28.932-6.852-20.92-12.915-40.099-10.36-66.447 3.345z" fill="param(fill)" fill-opacity="param(fill-opacity)" stroke="param(outline)" stroke-opacity="param(outline-opacity)" stroke-width="param(outline-width)"/>
	<path d="m501.31 408.72c-41.12-22.432-59.021 4.875-81.125 4.875v-109.34l34.125-78.531c5.166-12.122-7e-3 -23.198-12.406-28.469l-20.656-8.406v-68h-39.813v-35.813h-55.781v-48h-69.219v48h-55.781v35.813h-39.813v68l-20.656 8.406c-12.399 5.271-17.573 16.347-12.406 28.469l34.094 78.531v109.34c-22.088-0.025-40.898-26.858-81.094-4.438 0 0-11.5 6.417-28.938 6.844v46.875c13.625-1.012 20.146-3.198 30.469-8.969 10.961-6.128 31.016-12.092 54.781 0.031 23.767 12.123 43.914 12.136 64.063 1.594s37.706-11.081 56.563-1.594c23.767 12.123 42.419 12.259 66.375 0.281 19.328-9.8 36.695-9.229 56.844 1.313s40.297 10.529 64.063-1.594 43.702-5.982 54.75-0.031c9.703 5.226 16.526 7.957 30.5 8.969v-47.313c-17.787-0.426-28.939-6.843-28.939-6.843zm-109.53-232.53-100.75-41.563-100.72 41.563v-27.438h39.781v-35.281h121.91v35.281h39.781v27.438z" fill="param(fill)" fill-opacity="param(fill-opacity)" stroke="param(outline)" stroke-opacity="param(outline-opacity)" stroke-width="param(outline-width)"/>
</svg>
