<?xml version="1.0" encoding="UTF-8"?>
<svg width="580px" height="580px" enable-background="new 0 0 580 580" version="1.1" viewBox="0 0 580 580" xmlns="http://www.w3.org/2000/svg">
	<path d="m381.93 119.68c0.011 48.303-39.138 87.469-87.44 87.48-48.303 0.011-87.469-39.137-87.48-87.44v-0.04c-0.011-48.303 39.137-87.469 87.44-87.48 48.304-0.011 87.47 39.138 87.48 87.441v0.039z" enable-background="new    " fill="param(fill)" fill-opacity="param(fill-opacity)" opacity=".6"/>
	<path d="m381.93 291.68c0.011 48.303-39.138 87.47-87.44 87.479-48.303 0.012-87.469-39.137-87.48-87.439v-0.04c-0.011-48.303 39.137-87.469 87.44-87.48 48.304-0.011 87.47 39.137 87.48 87.44v0.04z" enable-background="new    " fill="param(fill)" fill-opacity="param(fill-opacity)" opacity=".2"/>
	<path d="m381.93 461.68c0.011 48.303-39.138 87.469-87.44 87.48-48.303 0.011-87.469-39.138-87.48-87.441v-0.039c-0.011-48.304 39.137-87.47 87.44-87.479 48.304-0.012 87.47 39.137 87.48 87.439v0.04z" enable-background="new    " fill="param(fill)" fill-opacity="param(fill-opacity)" opacity=".3"/>
	<path d="m296.09 17.83c-1.154-0.013-2.315 0-3.47 0.029-49.731-0.086-95.369 42.462-97.875 92.299-1.587 25.614 0.168 51.293-0.504 76.935 0.213 95.855-0.637 191.73 0.504 287.57 4.148 45.803 43.393 85.555 89.333 89.629 43.417 4.869 88.303-21.282 103.92-62.284 8.26-19.931 8.13-41.869 7.415-63.084-0.274-110.33 0.624-220.68-0.534-330.99-4.116-45.501-42.812-85.077-88.443-89.451-3.441-0.393-6.888-0.616-10.351-0.653zm-0.029 24.973c42.626 0 77.202 34.576 77.202 77.202s-34.576 77.172-77.202 77.172c-42.627 0-77.173-34.546-77.173-77.172s34.546-77.202 77.173-77.202zm0 170.84c42.626 0 77.202 34.576 77.202 77.202 0 42.627-34.576 77.172-77.202 77.172-42.627 0-77.173-34.545-77.173-77.172s34.546-77.202 77.173-77.202zm0 170.84c42.626 0 77.202 34.576 77.202 77.202 0 42.627-34.576 77.173-77.202 77.173-42.627 0-77.173-34.546-77.173-77.173 0-42.626 34.546-77.202 77.173-77.202z" fill="param(fill)" fill-opacity="param(fill-opacity)" stroke="param(outline)" stroke-miterlimit="10" stroke-opacity="param(outline-opacity)" stroke-width="param(outline-width)"/>
	<path d="m296.09 17.83c-1.154-0.013-2.315 0-3.47 0.029-49.731-0.086-95.369 42.462-97.875 92.299-1.587 25.614 0.168 51.293-0.504 76.935 0.213 95.855-0.637 191.73 0.504 287.57 4.148 45.803 43.393 85.555 89.333 89.629 43.417 4.869 88.303-21.282 103.92-62.284 8.26-19.931 8.13-41.869 7.415-63.084-0.274-110.33 0.624-220.68-0.534-330.99-4.116-45.501-42.812-85.077-88.443-89.451-3.441-0.393-6.888-0.616-10.351-0.653zm-0.029 24.973c42.626 0 77.202 34.576 77.202 77.202s-34.576 77.172-77.202 77.172c-42.627 0-77.173-34.546-77.173-77.172s34.546-77.202 77.173-77.202zm0 170.84c42.626 0 77.202 34.576 77.202 77.202 0 42.627-34.576 77.172-77.202 77.172-42.627 0-77.173-34.545-77.173-77.172s34.546-77.202 77.173-77.202zm0 170.84c42.626 0 77.202 34.576 77.202 77.202 0 42.627-34.576 77.173-77.202 77.173-42.627 0-77.173-34.546-77.173-77.173 0-42.626 34.546-77.202 77.173-77.202z" fill="param(fill)" fill-opacity="param(fill-opacity)" stroke="param(outline)" stroke-opacity="param(outline-opacity)" stroke-width="param(outline-width)"/>
</svg>
