<?xml version="1.0" encoding="UTF-8"?>
<svg width="580px" height="580px" enable-background="new 0 0 580 580" version="1.1" viewBox="0 0 580 580" xmlns="http://www.w3.org/2000/svg">
	<g transform="matrix(48.15 0 0 48.15 -536.27 -33.307)" display="none" fill="none" stroke="#757575" stroke-width=".1">
		<rect x="1" y="1" width="10" height="10" display="inline"/>
		<rect x="2" y="2" width="8" height="8" display="inline"/>
	</g>
	<path d="m527.05 330.51-195.07-117.24v-128.36c0.012-12.336-4.618-23.317-13.037-30.918-7.453-6.73-17.338-10.436-27.832-10.436-19.553 0-40.359 14.144-40.405 40.381v129.37l-192.32 117.27c-5.955 3.631-9.588 10.102-9.588 17.076v52.717c0 6.415 3.078 12.441 8.275 16.202 5.197 3.762 11.882 4.8 17.977 2.796l177.58-58.437v73.387l-39.824 31.439c-3.604 2.845-5.706 7.183-5.706 11.773v41.694c0 4.768 2.267 9.252 6.106 12.079 2.609 1.921 5.732 2.921 8.895 2.921 1.492 0 2.993-0.223 4.452-0.676l66.475-20.663 66.475 20.663c4.551 1.413 9.507 0.581 13.347-2.245 3.839-2.827 6.105-7.312 6.105-12.079v-41.694c0-4.617-2.127-8.978-5.766-11.82l-40.243-31.44v-73.338l177.55 58.436c2.043 0.672 4.152 1.002 6.251 1.002 4.158 0 8.271-1.298 11.726-3.798 5.198-3.761 8.275-9.787 8.275-16.202v-52.717c0-7.019-3.681-13.525-9.697-17.141z" fill="param(fill)" fill-opacity="param(fill-opacity)" stroke="param(outline)" stroke-opacity="param(outline-opacity)" stroke-width="param(outline-width)"/>
</svg>
