<?xml version="1.0" encoding="UTF-8"?>
<svg width="580px" height="580px" enable-background="new 0 0 580 580" version="1.1" viewBox="0 0 580 580" xmlns="http://www.w3.org/2000/svg">
	<path d="m147.68 188.26c15.117 13.259 33.727 20.562 52.401 20.562 2.306 0 4.635-0.113 6.926-0.335 27.083-1.704 52.583-17.38 66.825-41.016 2.239-1.494 5.04-2.167 8.935-2.167 2.278 0 4.662 0.215 7.186 0.443 2.633 0.238 5.357 0.483 8.085 0.483 4.4 0 10.903-0.562 16.553-5.42 0.117-0.1 0.229-0.206 0.336-0.316 2.121-2.195 4.141-4.558 6.095-6.842 5.101-5.966 9.938-11.625 16.263-14.286 3.201 1.394 5.751 4.226 8.646 7.44 2.706 3.005 5.503 6.112 9.212 8.37 1.634 0.994 3.688 0.971 5.298-0.061 3.272-2.096 5.831-4.986 8.306-7.781 3.698-4.177 6.285-6.914 9.705-7.461 2.713 1.896 5.125 4.419 7.659 7.069 2.882 3.014 5.861 6.131 9.556 8.594 1.65 1.102 3.798 1.121 5.469 0.051 3.382-2.164 6.052-5.169 8.634-8.076 3.957-4.454 6.765-7.339 10.335-7.895 2.275 1.563 4.325 3.763 6.478 6.072 3.396 3.643 6.906 7.41 11.991 9.594 1.796 0.771 3.873 0.426 5.322-0.881 9.674-8.724 21.712-19.582 31.236-31.825 0.688-0.884 1.06-1.974 1.054-3.095-0.031-6.358-4.812-10.431-8.652-13.704-1.843-1.57-3.583-3.053-4.503-4.455-0.245-0.372-0.537-0.71-0.871-1.004-1.594-1.406-3.204-3.196-4.909-5.092-4.933-5.481-11.07-12.304-20.239-12.304-1.219 0-2.465 0.124-3.712 0.368-3.891 0.301-8.053 0.442-13.065 0.442-4.085 0-8.281-0.096-12.34-0.188-4.124-0.093-8.388-0.19-12.604-0.19-3.021 0-5.74 0.049-8.307 0.15h-0.924c-9.258 0-18.686 0.055-27.802 0.108-9.12 0.054-18.55 0.108-27.815 0.108-22.202 0-39.271-0.33-55.001-1.066-3.2-3.006-5.974-6.594-8.891-10.368-5.232-6.767-10.64-13.763-19.117-18.067-14.107-9.333-31.128-14.271-47.729-13.763l-0.349-1e-3c-23.413 0-46.058 11.443-62.13 31.394-16.099 19.985-22.481 44.598-17.518 67.548 3.183 18.482 13.115 35.831 27.972 48.863zm20.779-85.967c0.153-4e-3 0.309-6e-3 0.461-6e-3 9.975 0 16.712 8.012 19.452 14.874 2.803 7.021 3.276 16.92-3.802 23.643-0.089 0.084-0.175 0.172-0.257 0.263-3.995 4.396-10.144 6.918-16.87 6.918-8.847 0-19.06-4.521-21.936-14.619-0.028-0.099-0.06-0.198-0.094-0.295-2.383-6.751-1.018-14.968 3.563-21.442 4.251-6.009 10.429-9.456 16.948-9.456 0.632 0 1.275 0.032 1.913 0.096 0.207 0.021 0.415 0.028 0.622 0.024z" fill="param(fill)" fill-opacity="param(fill-opacity)" stroke="param(outline)" stroke-opacity="param(outline-opacity)" stroke-width="param(outline-width)"/>
	<path d="m451.03 347.17-30.94-79.805c-5.822-15.193-18.435-28.172-42.209-28.172h-162.31c-23.775 0-36.387 12.979-42.209 28.172l-30.907 79.805c-12.252 1.571-33.972 15.952-33.972 43.197v101.49h30.083v32.456c0 39.93 56.509 39.46 56.509 0v-32.456h203.33v32.456c0 39.46 56.51 39.93 56.51 0v-32.456h30.084v-101.49c1e-3 -27.245-21.719-41.626-33.971-43.197zm-283.3 83.528c-14.416 0-26.096-12.061-26.096-26.92s11.681-26.888 26.096-26.888c14.417 0 26.097 12.028 26.097 26.888s-11.68 26.92-26.097 26.92zm129.03-84.352h-122.31l23.295-62.803c2.911-8.822 7.274-15.194 17.463-15.289h163.04c10.188 0.095 14.553 6.466 17.464 15.289l23.295 62.803h-122.24zm129 84.352c-14.415 0-26.129-12.061-26.129-26.92s11.714-26.888 26.129-26.888c14.417 0 26.097 12.028 26.097 26.888s-11.68 26.92-26.097 26.92z" fill="param(fill)" fill-opacity="param(fill-opacity)" stroke="param(outline)" stroke-opacity="param(outline-opacity)" stroke-width="param(outline-width)"/>
</svg>
