<?xml version="1.0" encoding="UTF-8"?>
<svg width="580px" height="580px" enable-background="new 0 0 580 580" version="1.1" viewBox="0 0 580 580" xmlns="http://www.w3.org/2000/svg">
	<path d="m463.08 144.69c-9.316-19.048-21.888-34.135-37.367-44.844-15.23-10.535-34.178-17.752-56.313-21.452-15.499-2.809-37.015-4.174-65.769-4.174h-158.28c-6.265 0-11.344 5.079-11.344 11.344v419.58c0 6.265 5.079 11.344 11.344 11.344h55.525c6.265 0 11.344-5.079 11.344-11.344v-159.24h96.271c63.248 0 106.24-13.323 131.42-40.732 24.584-26.753 37.05-59.813 37.051-98.262-1e-3 -22.443-4.674-43.378-13.89-62.226zm-153.73 129.02h-97.129v-127.29h95.985c29.903 1e-3 43.063 1.806 48.838 3.327 11.992 3.327 21.406 9.992 28.777 20.374 7.546 10.629 11.214 23.227 11.215 38.511-1e-3 21.025-6.147 36.691-18.791 47.894-12.866 11.401-36.045 17.181-68.895 17.181z" fill="param(fill)" fill-opacity="param(fill-opacity)" stroke="param(outline)" stroke-opacity="param(outline-opacity)" stroke-width="param(outline-width)"/>
</svg>
