<?xml version="1.0" encoding="UTF-8"?>
<svg width="580px" height="580px" enable-background="new 0 0 580 580" version="1.1" viewBox="0 0 580 580" xmlns="http://www.w3.org/2000/svg">
	<path d="m292.4 215.45c-42.119-0.02-76.279 34.109-76.298 76.228v0.07c-0.02 42.118 34.109 76.278 76.228 76.297 42.118 0.02 76.278-34.108 76.298-76.227v-0.07c0.02-42.119-34.109-76.279-76.228-76.298z" fill="param(fill)" fill-opacity="param(fill-opacity)" stroke="param(outline)" stroke-opacity="param(outline-opacity)" stroke-width="param(outline-width)"/>
	<path d="m564.58 258.53c-0.957-2.309-3.209-3.813-5.708-3.813h-73.473c-13.466-70.5-64.717-127.76-131.85-149.81-0.106-1.475-0.735-2.87-1.788-3.923l-78.677-78.677c-1.766-1.767-4.423-2.295-6.732-1.339s-3.813 3.209-3.813 5.708v70.69c-41.16 6.227-79.134 25.314-109.12 55.289-25.947 25.935-43.738 57.854-52.113 92.644l-77.865 77.865c-1.767 1.767-2.295 4.424-1.339 6.732s3.209 3.813 5.708 3.813h72.47c7.877 36.485 26.035 70.002 53.045 97.037 24.894 24.917 55.303 42.315 88.473 51.084 0.293 0.586 0.676 1.128 1.148 1.6l78.677 78.677c1.182 1.183 2.762 1.81 4.369 1.81 0.796 0 1.599-0.153 2.363-0.47 2.309-0.957 3.813-3.209 3.813-5.708v-73.382c37.301-7.632 71.588-25.975 99.135-53.509 24.094-24.083 41.157-53.326 50.178-85.236 1.159-0.246 2.233-0.819 3.084-1.671l78.677-78.677c1.766-1.766 2.295-4.423 1.339-6.732zm-232.41 212.38v-69.616c0-2.492-1.497-4.74-3.797-5.7-2.301-0.961-4.95-0.445-6.724 1.307l-73.814 72.956c-31.997-7.942-61.342-24.449-85.243-48.373-24.52-24.541-41.221-54.808-48.883-87.779h70.542 0.02c3.412 0 6.178-2.766 6.178-6.178 0-1.844-0.808-3.5-2.089-4.632l-74.141-75.013c17.36-70.608 75.722-125.27 148.33-137.22v72.443c0 2.492 1.497 4.74 3.797 5.701 0.769 0.321 1.578 0.478 2.379 0.478 1.596 0 3.165-0.619 4.344-1.784l72.306-71.465c63.858 19.311 113.12 72.561 126.69 138.68h-69.627c-2.492 0-4.74 1.497-5.7 3.797-0.961 2.3-0.445 4.951 1.307 6.724l71.882 72.728c-17.223 66.238-70.633 118.04-137.75 132.95z" fill="param(fill)" fill-opacity="param(fill-opacity)" stroke="param(outline)" stroke-opacity="param(outline-opacity)" stroke-width="param(outline-width)"/>
</svg>
