<?xml version="1.0" encoding="UTF-8"?>
<svg width="580px" height="580px" enable-background="new 0 0 580 580" version="1.1" viewBox="0 0 580 580" xmlns="http://www.w3.org/2000/svg">
	<g transform="matrix(48.15 0 0 48.15 -536.27 -33.307)" display="none" fill="none" stroke="#757575" stroke-width=".1">
		<rect x="1" y="1" width="10" height="10" display="inline"/>
		<rect x="2" y="2" width="8" height="8" display="inline"/>
	</g>
	<path d="m547.65 390.85c-0.039-3.744 0.208-7.645 0.47-11.756 0.782-12.313 1.669-26.27-5.938-38.454-0.451-0.724-1.04-1.353-1.732-1.853-22.032-15.892-45.746-29.713-68.68-43.079-15.388-8.969-31.299-18.243-46.456-28.007-0.06-0.038-0.118-0.075-0.179-0.111-30.732-18.439-60.642-36.456-88.945-53.579-1.224-9.149-0.834-18.485-0.424-28.315 0.38-9.108 0.772-18.523-0.207-27.968-0.032-8.665 0.117-17.185 0.262-25.426 0.436-24.763 0.847-48.152-3.395-73.968-0.092-0.556-0.254-1.098-0.483-1.613-7.145-16.023-24.328-26.64-42.255-25.974-0.195-2e-3 -0.391-4e-3 -0.583-4e-3 -10.856 0-20.503 4.044-27.9 11.696-9.762 10.099-15.024 26.073-14.448 43.847-0.072 16.273-0.029 32.164 0.013 47.532 0.073 26.917 0.143 52.392-0.353 79.812-7.653 5.978-16.188 10.697-25.176 15.667-8.645 4.781-17.582 9.723-25.789 15.944-18.283 11.41-37.104 22.719-55.308 33.658-31.5 18.928-64.071 38.5-95.099 59.331-0.92 0.618-1.67 1.458-2.179 2.443-7.123 13.788-6.316 28.266-5.537 42.267 0.425 7.626 0.826 14.829-0.029 21.735-0.084 0.682-0.062 1.371 0.067 2.046 1.869 9.765 10.854 16.584 21.85 16.584 4.777 0 9.373-1.358 13.084-3.848 27.214-8.432 54.628-17.617 81.148-26.502 31.054-10.404 63.076-21.134 95.003-30.726 0.021 7.482 0.149 14.961 0.274 22.262 0.224 13.081 0.456 26.604 0.063 39.839-0.186 2.669-0.166 5.344-0.146 7.931 0.03 4.058 0.059 7.916-0.692 11.151-4.81 5.065-10.821 9.235-17.162 13.633-11.121 7.714-22.62 15.689-28.65 29.421-0.172 0.392-0.305 0.799-0.398 1.216-1.968 8.841-1.692 17.619-1.424 26.109 0.158 5.007 0.307 9.735 0.016 14.4-0.024 0.38-0.014 0.762 0.028 1.14 1.251 11.195 10.864 20.304 21.429 20.304 2.574 0 5.09-0.536 7.486-1.593 6.209-1.973 12.572-3.879 18.728-5.724 11.72-3.511 23.839-7.142 35.571-11.423 2.914-1.062 6.042-1.6 9.295-1.6 4.612 0 9.573 1.105 14.347 3.197 0.234 0.103 0.476 0.191 0.721 0.267 4.901 1.495 9.96 3.255 14.851 4.956 15.441 5.372 31.402 10.951 48.471 10.694 0.935-0.013 1.855-0.225 2.702-0.621 14.199-6.654 12.499-23.052 11.389-33.011 1.862-14.438 2.256-34.326-13.54-44.729-4.28-3.438-8.714-6.756-13.004-9.967-7.27-5.442-14.764-11.053-21.446-17.22l-0.049-1.987c-0.654-26.244-1.328-53.293-0.138-78.853 8.494 2.801 17.045 5.466 25.381 8.064 12.717 3.964 25.866 8.062 38.58 12.572 0.047 0.017 0.094 0.033 0.142 0.049 10.128 3.335 20.422 6.813 30.377 10.176 31.696 10.707 64.471 21.779 97.507 30.179 0.888 0.227 1.811 0.264 2.715 0.112 5.666-0.954 10.273-4.162 13.325-9.275 3.817-6.393 4.743-15.326 2.449-23.048z" fill="param(fill)" fill-opacity="param(fill-opacity)" stroke="param(outline)" stroke-opacity="param(outline-opacity)" stroke-width="param(outline-width)"/>
</svg>
