<?xml version="1.0" encoding="UTF-8"?>
<svg width="580px" height="580px" enable-background="new 0 0 580 580" version="1.1" viewBox="0 0 580 580" xmlns="http://www.w3.org/2000/svg">
	<path d="m452.56 170.84-31.875-81.406c-6-15.5-19-28.75-43.5-28.75h-45v-21.25c0-8.5-4.625-12.813-12.125-12.813h-52.47c-7.5 0-12.125 4.313-12.125 12.813v21.25h-45.531c-24.5 0-37.5 13.25-43.5 28.75l-31.875 81.406c-12.626 1.603-34.969 16.267-34.969 44.063v103.56h31v33.094c0 40.736 58.219 40.257 58.219 0v-33.094h209.53v33.094c0 40.257 58.25 40.736 58.25 0v-33.094h30.969v-103.56c0-27.796-22.375-42.459-35-44.062zm-291.94 84.344c-14.857 0-26.906-12.31-26.906-27.469s12.049-27.438 26.906-27.438c14.855 0 26.906 12.278 26.906 27.438s-12.051 27.469-26.906 27.469zm133-86.282h-126.06l24-62.969c3-9 7.5-15.497 18-15.594h168c10.5 0.097 15 6.594 18 15.594l24 62.969h-125.94zm132.88 86.282c-14.856 0-26.875-12.31-26.875-27.469s12.019-27.438 26.875-27.438c14.854 0 26.906 12.278 26.906 27.438s-12.052 27.469-26.906 27.469z" fill="param(fill)" fill-opacity="param(fill-opacity)" stroke="param(outline)" stroke-opacity="param(outline-opacity)" stroke-width="param(outline-width)"/>
	<polygon points="104.97 452.35 137.45 452.35 137.45 529.98 169.3 529.98 169.3 452.35 201.79 452.35 201.79 426.9 104.97 426.9" fill="param(fill)" fill-opacity="param(fill-opacity)" stroke="param(outline)" stroke-opacity="param(outline-opacity)" stroke-width="param(outline-width)"/>
	<rect x="441.41" y="426.9" width="31.922" height="103.08" fill="param(fill)" fill-opacity="param(fill-opacity)" stroke="param(outline)" stroke-opacity="param(outline-opacity)" stroke-width="param(outline-width)"/>
	<path d="m426.93 426.9h-34.734l-17.719 31.711-18.281-31.711h-35.086l32.344 49.359-35.443 53.516-38.666-102.88h-34.734l-38.742 103.08h32.555l4.992-17.016h36.281l5.063 17.016h68.695l20.391-33.117 20.32 33.117h35.789l-35.086-53.156 32.061-49.922zm-176.62 63.774 11.32-37.055 11.391 37.055h-22.711z" fill="param(fill)" fill-opacity="param(fill-opacity)" stroke="param(outline)" stroke-opacity="param(outline-opacity)" stroke-width="param(outline-width)"/>
</svg>
