<?xml version="1.0" encoding="UTF-8"?>
<svg width="580px" height="580px" enable-background="new 0 0 580 580" version="1.1" viewBox="0 0 580 580" xmlns="http://www.w3.org/2000/svg">
	<path d="m464.64 367.73c-12.842 0-25.093 2.572-36.271 7.22-1.111-3.846-2.242-7.758-3.379-11.686-4.421-15.279-8.924-30.792-12.717-43.466-3.736-12.486-7.194-20.176-8.327-25.71-0.883-4.313 4.581-3.942 10.338-8.74 4.348-3.623 8.035-9.743 9.164-15.972 0.94-5.478-0.225-10.981-2.772-15.488-8.85-13.521-17.484-13.266-28.908-13.266h-39.814l0.095 24.396 38.196 0.078c4.558 9e-3 6.922 6.417-1.987 8.91-3.903 1.081-8.251 5.729-9.706 11.488-1.455 5.76-0.368 11.505 1.761 16.825 0.489 1.224 1.446 4.983 2.85 10.247l-173.41 0.875-10.24-25.066c11.563-2.645 38.089-9.007 41.763-12.503 4.362-3.973 0-9.951-3.379-9.951h-90.502c1.118 19.963 16.766 24.303 25.232 25.617l10.005 24.491c-1.076 0.885-1.996 1.974-2.678 3.242l-30.605 56.839c-10.894-4.375-22.779-6.788-35.218-6.788-52.265 0-94.786 42.521-94.786 94.786s42.521 94.785 94.786 94.785c49.128 0 89.643-37.57 94.33-85.488h11.273c3.119 9.38 10.257 17.126 19.529 21.506l-5.026 11.699-17.144 0.157c-3.673 0.033-6.625 3.039-6.591 6.712 0.034 3.653 3.005 6.592 6.65 6.592 0.021 0 0.042 0 0.063-1e-3l38.482-0.353c3.673-0.033 6.625-3.039 6.591-6.712-0.034-3.653-3.005-6.592-6.65-6.592-0.021 0-0.042 0-0.063 1e-3l-10.935 0.101 3.686-8.579c2.706 0.559 5.514 0.863 8.399 0.863 21.346 0 38.712-16.158 38.712-36.021 0-4.007-0.718-7.857-2.021-11.461l108.59-73.688c1.084 3.759 2.155 7.474 3.202 11.104-21.547 17.39-35.355 44.001-35.355 73.78 0 52.266 42.521 94.786 94.786 94.786s94.785-42.521 94.785-94.786c-3e-3 -52.262-42.524-94.783-94.788-94.783zm-75.256-33.413c1.971 6.653 4.086 13.883 6.25 21.316l-115.58 78.428c-1.082-0.763-2.207-1.476-3.373-2.132l5.133-11.945 17.219-0.158c3.674-0.034 6.625-3.039 6.592-6.713-0.034-3.653-3.006-6.592-6.651-6.592h-0.062l-38.483 0.353c-3.674 0.034-6.625 3.039-6.591 6.713 0.033 3.653 3.005 6.592 6.65 6.592h0.063l10.859-0.1-3.529 8.214c-3.536-0.992-7.281-1.532-11.16-1.532-0.226 0-0.448 0.013-0.673 0.016l-37.418-91.597 170.75-0.863zm-196.48 6.853 38.548 94.362c-5.278 4.244-9.314 9.786-11.528 16.093h-11.829c-3.551-26.869-18.399-50.223-39.602-65.119l24.411-45.336zm-11.142 110.46h-48.333l22.617-42.003c13.184 10.167 22.584 24.997 25.716 42.003zm-67.63 81.269c-37.929 0-68.786-30.856-68.786-68.785s30.857-68.786 68.786-68.786c7.982 0 15.644 1.382 22.777 3.893l-31.304 58.137c-1.817 3.375-1.727 7.457 0.239 10.748s5.517 5.306 9.35 5.306h67.078c-4.554 33.544-33.365 59.487-68.14 59.487zm350.51-1.592c-37.929 0-68.786-30.857-68.786-68.786 0-17.561 6.623-33.597 17.491-45.765 1.24 4.193 2.347 7.873 3.265 10.881 1.206 3.95 1.817 6.164 2.837 8.674l0.424 1.043 0.619 0.946c0.443 0.709 4.797 12.96 16.565 23.054l0.098 0.064 0.064 0.099c8.458 7.005 15.752 9.517 20.359 10.979 4.852 1.492 11.491 0.727 14.706-4.26 2.551-3.659 0.305-11.064-4.525-14.574-1.902-1.329-7.382-5.681-14.112-11.57-6.003-5.359-6.49-9.463-10.068-15.759 0.091 0.203-0.899-2.651-2.022-6.326-1.151-3.771-2.651-8.809-4.369-14.674-0.486-1.66-0.992-3.395-1.513-5.179 8.811-4.109 18.622-6.419 28.968-6.419 37.929 0 68.785 30.856 68.785 68.785s-30.858 68.787-68.786 68.787z" fill="param(fill)" fill-opacity="param(fill-opacity)" stroke="param(outline)" stroke-opacity="param(outline-opacity)" stroke-width="param(outline-width)"/>
	<path d="m143.68 198.26c15.117 13.259 33.727 20.562 52.401 20.562 2.306 0 4.635-0.113 6.926-0.335 27.083-1.704 52.583-17.38 66.825-41.016 2.239-1.494 5.04-2.167 8.935-2.167 2.278 0 4.662 0.215 7.186 0.443 2.634 0.238 5.357 0.483 8.085 0.483 4.4 0 10.903-0.562 16.553-5.42 0.117-0.1 0.229-0.206 0.336-0.316 2.121-2.195 4.141-4.558 6.095-6.842 5.101-5.966 9.938-11.625 16.263-14.286 3.201 1.394 5.751 4.226 8.646 7.44 2.706 3.005 5.503 6.112 9.212 8.37 1.634 0.994 3.689 0.971 5.298-0.061 3.272-2.096 5.831-4.986 8.306-7.781 3.698-4.177 6.285-6.914 9.705-7.461 2.713 1.896 5.125 4.419 7.659 7.069 2.882 3.014 5.861 6.131 9.556 8.594 1.651 1.102 3.797 1.122 5.469 0.051 3.382-2.164 6.052-5.169 8.634-8.076 3.957-4.454 6.765-7.339 10.335-7.895 2.275 1.563 4.325 3.763 6.478 6.072 3.396 3.643 6.906 7.41 11.991 9.594 1.796 0.771 3.872 0.426 5.322-0.881 9.674-8.724 21.712-19.582 31.236-31.825 0.688-0.884 1.06-1.974 1.054-3.095-0.031-6.358-4.812-10.431-8.652-13.704-1.843-1.57-3.583-3.053-4.503-4.455-0.245-0.372-0.537-0.71-0.871-1.004-1.594-1.406-3.204-3.196-4.909-5.092-4.933-5.481-11.07-12.304-20.239-12.304-1.219 0-2.465 0.124-3.712 0.368-3.891 0.301-8.053 0.442-13.065 0.442-4.085 0-8.281-0.096-12.34-0.188-4.124-0.093-8.388-0.19-12.604-0.19-3.021 0-5.74 0.049-8.307 0.15h-0.924c-9.258 0-18.686 0.055-27.802 0.108-9.12 0.054-18.55 0.108-27.815 0.108-22.202 0-39.271-0.33-55.001-1.066-3.2-3.006-5.974-6.594-8.891-10.368-5.232-6.767-10.64-13.763-19.117-18.067-14.108-9.333-31.123-14.275-47.729-13.763l-0.349-1e-3c-23.413 0-46.058 11.443-62.13 31.394-16.099 19.985-22.481 44.598-17.518 67.548 3.183 18.482 13.115 35.831 27.972 48.863zm20.779-85.967c0.153-4e-3 0.309-6e-3 0.461-6e-3 9.975 0 16.712 8.012 19.452 14.874 2.803 7.021 3.276 16.92-3.802 23.643-0.089 0.084-0.175 0.172-0.257 0.263-3.995 4.396-10.144 6.918-16.87 6.918-8.847 0-19.06-4.521-21.936-14.619-0.028-0.099-0.06-0.198-0.094-0.295-2.383-6.751-1.018-14.968 3.563-21.442 4.251-6.009 10.429-9.456 16.948-9.456 0.632 0 1.275 0.032 1.913 0.096 0.206 0.021 0.414 0.028 0.622 0.024z" fill="param(fill)" fill-opacity="param(fill-opacity)" stroke="param(outline)" stroke-opacity="param(outline-opacity)" stroke-width="param(outline-width)"/>
</svg>
