<svg xmlns="http://www.w3.org/2000/svg" width="24" height="24" viewBox="0 0 6.3499999 6.3500002">
  <path d="M3.5250951 2.2434672v-.489219c.2714485-.2174344.5428968-.4348578.8143453-.6522921v1.0632374h.5472433c-.001814-.5564555.0036171-1.113164-.0027045-1.66945445-.0227183-.23717612-.3465118-.30850613-.491624-.13534214-.378123.30369724-.756246.60740549-1.1343691.91110269C2.8469389.9484458 2.4452824.61168057 2.0283133.29727613c-.232771-.11300337-.4023417.11861557-.5707229.23846363C1.0824756.8427603.69591404 1.1369718.32814091 1.4521906c-.1054392.1798436-.0438992.3996769-.0604349.5997244.001981 1.1377587-.003966 2.2758146.002979 3.4133752.0268981.2354044.345925.3139203.49134678.1353091.44778521-.3654865.90712401-.7180649 1.34755181-1.0917716.1151257-.1918273.0291729-.4281891.0707581-.6395271.0696785-.7508138.6218172-1.4158709 1.3447573-1.6258334ZM1.6292907 4.2068581c-.2714521.2174344-.5429042.4348578-.81435631.6522921v-3.104902c.27145211-.2174344.54290421-.4348578.81435631-.6522921Zm3.5701099.6066242c.4180655-.5888302.2368757-1.4844498-.3690658-1.8733205-.5719127-.4092067-1.4427662-.2608134-1.8482757.3152408-.43372.5519657-.3330025 1.4301985.2253321 1.8616889.4420112.3744 1.1315599.4161284 1.6076328.0812119.2953388.2957081.5906776.5914052.8860163.8871133.1281255-.1282884.256251-.2565657.3843764-.3848541-.2953386-.2957081-.5906774-.5914162-.8860161-.8871243Zm-1.1270622.0717482c-.5126968.0184872-.9345167-.5266558-.7887036-1.0190661.1102452-.4985948.7367424-.7728555 1.1767653-.5132195.4558228.2272942.5705596.9000433.2146495 1.2650567-.1516301.1687402-.3758377.2686704-.6027112.2672289Z"/>
</svg>
