<svg xmlns="http://www.w3.org/2000/svg" width="24" height="24">
  <path d="M21.834146 6.7076063 17.2923 2.1658089c-.221079-.2210784-.579349-.2210784-.800297 0l-1.241867 1.2418628 2.270923 2.2710457c.221014.2209477.22121.5792811 0 .8002941l-.800297.8002942c-.221079.2212091-.579349.2212091-.800428 0L13.649346 5.008456l-2.000922 2.0009804 2.271054 2.2709147c.220948.220948.220948.579347 0 .8004249l-.800428.800294c-.221079.221209-.579348.221079-.800297.000131l-2.271086-2.2709799-2.0009222 2.0008819 2.2709882 2.27098c.220948.221079.221079.579347 0 .800294l-.8004929.800425c-.2209485.221209-.5793485.221079-.8003623 0l-2.2709229-2.270915-4.2801456 4.280066c-.2210792.220947-.2210792.579346 0 .800359l4.5419439 4.541928c.2209485.221013.5793484.221013.8003622 0L21.834113 7.5080311c.221112-.2208823.221243-.5793137.000033-.8004248zM7.8154694 19.966038c-.3758183.375947-.9852975.375947-1.3613119 0-.3758183-.375948-.3758183-.985295.0001307-1.36134.3758183-.375817.9853629-.375817 1.3611812 0 .3759164.376045.3759164.985392 0 1.36134z"/>
</svg>
