<svg xmlns="http://www.w3.org/2000/svg" width="24" height="24">
  <path d="M19 3H5c-1.105 0-2 .895-2 2v14c0 1.105.895 2 2 2h14c1.105 0 2-.895 2-2V5c0-1.105-.895-2-2-2zm-1.093 12.684-1.735.024s-.374.073-.864-.265c-.649-.446-1.261-1.606-1.738-1.455-.484.154-.469 1.198-.469 1.198s.004.184-.107.304c-.12.129-.355.116-.355.116h-.777s-1.714.142-3.225-1.433c-1.646-1.717-3.1-5.106-3.1-5.106s-.085-.214.006-.323c.103-.121.381-.124.381-.124l1.857-.009s.175.031.301.123c.103.076.162.219.162.219s.3.761.698 1.45c.776 1.343 1.137 1.637 1.4 1.493.384-.21.269-1.898.269-1.898s.007-.613-.193-.886c-.156-.213-.449-.276-.578-.292-.105-.014.066-.257.289-.367.334-.163.925-.173 1.622-.166.543.006.7.039.912.091.641.155.423.753.423 2.188 0 .46-.083 1.106.248 1.319.143.092.491.014 1.36-1.466.413-.702.722-1.527.722-1.527s.068-.147.173-.21c.108-.065.253-.045.253-.045l1.955-.012s.587-.071.683.196c.1.279-.219.93-1.018 1.995-1.311 1.75-1.457 1.587-.368 2.599 1.04.967 1.255 1.437 1.291 1.496.43.716-.478.773-.478.773z"/>
</svg>
