<?xml version="1.0" encoding="UTF-8"?>
<svg width="580px" height="580px" enable-background="new 0 0 580 580" version="1.1" viewBox="0 0 580 580" xmlns="http://www.w3.org/2000/svg">
	<path d="m473.53 185.48c-17.474-0.047-34.951-0.022-52.435 2e-3 -10.235 0.014-20.47 0.029-30.701 0.029-19.678 0-35.269-0.055-49.788-0.178-0.029-1.289 0.071-2.963 0.142-4.13 0.132-2.198 0.268-4.467 0.098-6.818-0.044-27.959-0.037-56.385-0.031-83.879 5e-3 -17.177 9e-3 -34.354 1e-3 -51.53-3e-3 -5.521-4.479-9.996-10-9.996h-86.219c-5.523 0-10 4.477-10 10v146.74c-0.333 0.024-0.732 0.04-1.207 0.04-1.59 0-3.355-0.169-5.063-0.332l-1.376-0.128c-0.337-0.03-0.677-0.042-1.014-0.038-13.723 0.176-28.244 0.255-47.083 0.255-8.907 0-17.815-0.017-26.723-0.035-15.225-0.029-30.444-0.057-45.665-2e-3 -5.509 0.021-9.963 4.492-9.963 10v77c0 5.512 4.46 9.984 9.972 10 16.9 0.047 33.814 0.023 50.719-2e-3 9.897-0.015 19.794-0.029 29.691-0.029 18.931 0 33.945 0.055 47.921 0.177 0.029 1.289-0.072 2.964-0.142 4.131-0.132 2.197-0.268 4.464-0.099 6.815 0.044 50.967 0.038 102.78 0.031 152.9-4e-3 31.515-8e-3 63.03 0 94.545 1e-3 5.521 4.478 9.997 10 9.997h86.219c5.518 0 9.992-4.469 10-9.985 0.048-33.449 0.022-67.461-2e-3 -100.35-0.039-51.932-0.079-105.58 0.167-158.4 0.174-5e-3 0.363-8e-3 0.571-8e-3 1.067 0 2.269 0.072 3.54 0.148 1.448 0.087 2.946 0.177 4.493 0.177 0.828 0 1.594-0.026 2.325-0.078 15.945-0.028 31.893-0.036 47.839-0.036l54.383 0.01c6.461 0 12.916-1e-3 19.376-4e-3 5.521-3e-3 9.995-4.479 9.995-10v-77c1e-3 -5.514-4.46-9.986-9.972-10.002z" fill="param(fill)" fill-opacity="param(fill-opacity)" stroke="param(outline)" stroke-opacity="param(outline-opacity)" stroke-width="param(outline-width)"/>
</svg>
