<?xml version="1.0" encoding="UTF-8"?>
<svg width="580px" height="580px" enable-background="new 0 0 580 580" version="1.1" viewBox="0 0 580 580" xmlns="http://www.w3.org/2000/svg">
	<path d="m373.98 195.93h-168.92c-5.561 0-10.068 4.508-10.068 10.068v168.92c0 5.561 4.507 10.068 10.068 10.068h168.92c5.561 0 10.068-4.508 10.068-10.068v-168.92c1e-3 -5.561-4.507-10.068-10.068-10.068z" fill="param(fill)" fill-opacity="param(fill-opacity)" opacity=".5"/>
	<path d="m373.98 195.93h-168.92c-5.561 0-10.068 4.508-10.068 10.068v168.92c0 5.561 4.507 10.068 10.068 10.068h168.92c5.561 0 10.068-4.508 10.068-10.068v-168.92c1e-3 -5.561-4.507-10.068-10.068-10.068z" fill="none" stroke="param(outline)" stroke-opacity="param(outline-opacity)" stroke-width="param(outline-width)"/>
</svg>
