<?xml version="1.0" encoding="UTF-8"?>
<svg width="580px" height="580px" enable-background="new 0 0 580 580" version="1.1" viewBox="0 0 580 580" xmlns="http://www.w3.org/2000/svg">
	<path d="m390.26 489.96c-36.356 7.307-46.516 7.916-68.67 4.121-71.386-12.228-136.02-67.692-161.54-138.62-12.325-34.258-12.277-96.262 0.1-130.74 26.238-73.088 91.889-128.08 164.87-138.11 25.345-3.482 36.219-2.849 68.998 4.019 40.96 8.582 48.691 8.242 40.38-1.773-16.259-19.59-96.565-46.405-138.98-46.405-28.456 0-77.686 9.129-99.847 18.516-61.003 25.839-116.32 85.341-138.2 148.64-8.003 23.163-12.566 44.967-12.862 78.955-0.304 33.962 4.859 59.185 12.862 82.348 22.941 66.395 84.42 129.41 148.08 151.79 12.422 4.366 29.978 9.408 39.011 11.204 44.176 8.783 105.79 1.254 148.05-18.091 28.617-13.102 48.133-26.989 43.794-31.166-1.863-1.793-22.588 0.598-46.056 5.315z" fill="param(fill)" fill-opacity="param(fill-opacity)" stroke="param(outline)" stroke-opacity="param(outline-opacity)" stroke-width="param(outline-width)"/>
	<path d="m518.53 256.98c-17.291-1.109-34.631-0.393-51.943-0.597-8.201-21.146-11.944-44.899-25.374-63.386-1.05-0.843-2.43-1.493-3.831-1.095-8.732 6.287-10.413 18.609-15.025 27.813-4.197 11.5-8.092 23.133-12.19 34.679-22.088 1.882-45.491-1.019-66.72 5.871-5.359 6.326 5.563 11.272 9.155 15.374 13.529 11.098 28.266 20.534 41.942 31.495-5.818 21.219-16.548 41.761-17.763 63.883 3.651 9.818 14.808 1.773 19.916-2.102 13.953-9.212 27-21.287 42.028-28.148 19.214 10.274 35.542 25.931 54.729 36.52 8.572 0.246 6.089-11.844 5.075-17.314-3.166-17.604-11.967-34.746-14.827-51.893 15.766-16.222 36.706-26.405 51.744-43.336 0.965-8.5-11.512-6.447-16.916-7.764z" fill="param(fill)" fill-opacity="param(fill-opacity)" stroke="param(outline)" stroke-opacity="param(outline-opacity)" stroke-width="param(outline-width)"/>
</svg>
