<?xml version="1.0" encoding="UTF-8"?>
<svg width="580px" height="580px" enable-background="new 0 0 580 580" version="1.1" viewBox="0 0 580 580" xmlns="http://www.w3.org/2000/svg">
	<path d="m265.7 346.18c-5.82-1.698-13.98-4.853-18.133-7.009-12.983-6.74-33.326-28.609-40.137-43.146 0 0-5.576-13.388-5.883-20.384-1.081-24.608-0.728-34.059-0.517-77.937 0.224-46.562 0.782-87.444 1.738-90.847 2.121-7.55 15.871-14.686 25.558-13.264l6.803 0.999v-21.411c0-15.245 1.018-22.864 3.535-26.457 4.069-5.809 18.161-11.135 24.841-9.388 3.35 0.876 4.548-0.021 4.548-3.406 0-2.528 2.8-7.191 6.223-10.363 4.946-4.584 8.73-5.767 18.448-5.767 15.89 0 20.729 4.991 22.354 23.052l1.185 13.171 9.993 0.241c6.095 0.147 12.518 2.124 16.462 5.066 6.395 4.769 6.116 5.176 7.128 34.783 0.593 17.071 0.27 27.538 1.235 31.293 11.568-12.02 46.901-4.47 48.204 4.489 0.393 2.7-1.974 8.868-5.258 13.707-10.143 14.945-11.471 23.304-12.901 81.205 0 0 0.413 24.853-1.885 42.654-2.299 17.802-7.308 28.554-7.308 28.554-9.51 19.301-26.285 36.617-43.756 45.165-15.636 7.651-45.269 10.022-62.477 5zm52.258-21.241c18.604-8.442 32.432-23.324 40.657-43.752 3.526-8.759 4.523-20.509 5.783-68.198 1.255-47.519 2.219-58.935 5.5-65.142 2.188-4.139 3.979-8.49 3.979-9.668 0-3.961-11.336-0.021-16.862 5.863-4.731 5.036-5.637 8.921-6.653 28.569l-1.177 22.74h-13.688l0.546-59.522c0.567-61.911-0.049-66.292-9.319-66.292-2.336 0-5.91 1.663-7.943 3.695-3.135 3.135-3.695 11.519-3.695 55.264v51.569h-14.11v-70.262c0-75.193-0.434-77.96-11.646-74.401-4.712 1.496-4.816 3.044-4.816 71.92v70.392h-16.462v-59.851c0-53.056-0.438-60.096-3.861-62.012-2.124-1.188-5.69-1.683-7.926-1.098-3.568 0.933-4.269 6.021-5.746 41.696-0.925 22.348-1.493 50.569-1.261 62.712 0.571 29.899 0.929 28.38-6.487 27.527l-6.467-0.744-0.654-35.177c-0.686-36.936-1.25-38.795-11.803-38.865l-5.402-0.036 0.698 84.072c0.689 82.892 0.776 84.217 6.181 94.347 18.316 34.329 59.447 49.716 92.634 34.654z" fill="param(fill)" fill-opacity="param(fill-opacity)" stroke="param(outline)" stroke-opacity="param(outline-opacity)" stroke-width="param(outline-width)"/>
	<path d="m292.19 195.81c-17.556-1.156-34.953 6.269-46.188 19.844-15.888 17.593-19.028 44.494-10.656 66.219 6.078 13.65 18.084 24.236 30.93 31.408 14.519 7.115 32.19 5.367 46.789-0.033 15.682-7.039 27.452-21.633 33.686-37.284 5.335-17.175 6.701-37.7-3.436-53.498-11.547-16.338-30.95-27.178-51.125-26.656z" fill="param(fill)" fill-opacity="param(fill-opacity)" stroke="param(outline)" stroke-opacity="param(outline-opacity)" stroke-width="param(outline-width)"/>
	<path d="m375.98 362.93h-168.92c-5.561 0-10.068 4.508-10.068 10.068v168.92c0 5.561 4.507 10.068 10.068 10.068h168.92c5.561 0 10.068-4.508 10.068-10.068v-168.92c1e-3 -5.561-4.507-10.068-10.068-10.068z" fill="param(fill)" fill-opacity="param(fill-opacity)" opacity=".5"/>
	<path d="m375.98 362.93h-168.92c-5.561 0-10.068 4.508-10.068 10.068v168.92c0 5.561 4.507 10.068 10.068 10.068h168.92c5.561 0 10.068-4.508 10.068-10.068v-168.92c1e-3 -5.561-4.507-10.068-10.068-10.068z" fill="none" stroke="param(outline)" stroke-opacity="param(outline-opacity)" stroke-width="param(outline-width)"/>
</svg>
