<svg xmlns="http://www.w3.org/2000/svg" id="raster_style" viewBox="0 0 24 24">
    <path style="fill:#AEC8E0;" d="M21.8,2C21.8,2,21.4,1.6,21.8,2C21.7,1.9,21.7,1.9,21.8,2C21.7,1.9,21.7,1.9,21.8,2
C21.7,1.9,21.7,1.9,21.8,2c-0.4-0.4-0.9-0.1-0.9-0.1s-7.5,5.5-7.4,5.5l-2,1.6h5.7c2.3-3,4.6-6.3,4.6-6.3S22.1,2.3,21.8,2z"/> <path style="fill:#AEC8E0;" d="M9.2,16.7c0.1,0,1.2-0.6,1.2-0.6L9,11.5c-1,1.3-1.6,1.9-2,3.2L9.2,16.7z"/> <path style="fill:#00B066;" d="M6.4,15c-5.6,0.5-3.2,5.4-6.4,7c4.2,0,8.5-0.8,8.7-4.7C8.6,17.1,6.4,15,6.4,15z"/> <g id="layer1" transform="translate(-105.56848,-413.10538)"> <path id="path3390" style="fill:#DCE8F3;" d="M129.6,425.1h-8v-8h5.9c1.1,0,2.1,0.6,2.1,1.7V425.1z"/> <path id="path3384" style="fill:#3498DB;" d="M121.6,425.1h-8v-6.3c0-1.1,0.9-1.7,2.1-1.7h5.9V425.1L121.6,425.1z"/> <path id="path3390-9" style="fill:#DCE8F3;" d="M121.6,433.1v-8h-8v5.7c0,1.1,0.9,2.3,2.1,2.3H121.6z"/> <path id="path3384-2" style="fill:#3498DB;" d="M129.6,430.8v-5.7h-8v8h5.9C128.7,433.1,129.6,432,129.6,430.8z"/> </g>
</svg>