<?xml version="1.0" encoding="UTF-8" standalone="no"?>
<!-- Generator: Adobe Illustrator 22.0.1, SVG Export Plug-In . SVG Version: 6.00 Build 0)  -->

<svg
   xmlns:dc="http://purl.org/dc/elements/1.1/"
   xmlns:cc="http://creativecommons.org/ns#"
   xmlns:rdf="http://www.w3.org/1999/02/22-rdf-syntax-ns#"
   xmlns:svg="http://www.w3.org/2000/svg"
   xmlns="http://www.w3.org/2000/svg"
   xmlns:sodipodi="http://sodipodi.sourceforge.net/DTD/sodipodi-0.dtd"
   xmlns:inkscape="http://www.inkscape.org/namespaces/inkscape"
   version="1.1"
   id="Layer_1"
   x="0px"
   y="0px"
   viewBox="0 0 16 16"
   style="enable-background:new 0 0 16 16;"
   xml:space="preserve"
   sodipodi:docname="postgis_layer.svg"
   inkscape:version="0.92.5 (2060ec1f9f, 2020-04-08)"><metadata
   id="metadata31"><rdf:RDF><cc:Work
       rdf:about=""><dc:format>image/svg+xml</dc:format><dc:type
         rdf:resource="http://purl.org/dc/dcmitype/StillImage" /></cc:Work></rdf:RDF></metadata><defs
   id="defs29" /><sodipodi:namedview
   pagecolor="#ffffff"
   bordercolor="#666666"
   borderopacity="1"
   objecttolerance="10"
   gridtolerance="10"
   guidetolerance="10"
   inkscape:pageopacity="0"
   inkscape:pageshadow="2"
   inkscape:window-width="3784"
   inkscape:window-height="2090"
   id="namedview27"
   showgrid="false"
   inkscape:zoom="14.75"
   inkscape:cx="10.381031"
   inkscape:cy="0.28094738"
   inkscape:window-x="56"
   inkscape:window-y="33"
   inkscape:window-maximized="1"
   inkscape:current-layer="Layer_1" />
<style
   type="text/css"
   id="style2">
	.st0{fill:#DCE8F3;}
	.st1{fill:#81B0DC;}
	.st2{fill:#3498DB;}
	.st3{fill:#0070C5;}
	.st4{fill:#FFFFFF;}
</style>
<circle
   class="st0"
   cx="11.998"
   cy="12"
   r="3.999"
   id="circle4"
   style="fill:#dce8f3;fill-opacity:1" />
<path
   class="st1"
   d="M10.499,14.3c-0.133-0.133-0.267-0.1-0.5-0.167c-0.233-0.067-0.2-0.267-0.233-0.433  c-0.033-0.167-0.1-0.133-0.2-0.2c-0.067-0.067-0.067-0.133-0.067-0.2c-0.033-0.067-0.067-0.1-0.3-0.133  c-0.233-0.033-0.2,0-0.433-0.167c-0.167-0.1-0.633-0.333-0.733-0.5c0.1,1.133,0.866,2.3,1.832,2.9c0.233-0.3,0.7-0.6,0.766-0.667  C10.765,14.633,10.632,14.4,10.499,14.3"
   id="path6"
   style="fill:#81b0dc;fill-opacity:1" />
<path
   class="st1"
   d="M14.364,13.667c-0.133-0.067-0.267-0.2-0.5-0.333c-0.2-0.133-0.067-0.433,0.033-0.8  c0.1-0.333-0.6-0.567-0.866-0.667c-0.3-0.1-0.566-0.233-0.966-0.267c-0.3-0.033-0.4,0.033-0.533,0.2  c-0.2,0.267-0.6,0.233-0.666,0.467c-0.067,0.233-0.167,0.533,0.4,0.8c0.566,0.267,0.8,0.233,0.9,0.667  c0.1,0.467-0.366,1.267,0.033,1.7c0.4,0.433,1.366-0.433,1.533-0.633c0.167-0.2,0.5-0.633,0.666-0.8  C14.597,13.8,14.497,13.733,14.364,13.667"
   id="path8"
   style="fill:#81b0dc;fill-opacity:1" />
<path
   class="st1"
   d="M14.863,9.233c-0.167,0.1-0.5,0.3-0.8,0.367c-0.366,0.067-0.733,0.1-0.7,0.333c0.033,0.167-0.1,0.433,0.1,0.533  c0.067,0.033,0.233-0.033,0.3-0.1c0.067-0.1,0.167,0.267-0.167,0.267c-0.3,0.033-0.466,0.067-0.633,0.033  c-0.267-0.1-0.233,0.067-0.267,0.267c-0.033,0.2-0.2-0.1-0.233-0.233c-0.033-0.167-0.033-0.233-0.233-0.3  c-0.3-0.1-0.9,0.067-0.466,0.4c0.4,0.333,0.433,0.467,0.566,0.5c0.167,0.033,0.233-0.067,0.5-0.033c0.267,0.033,0.5,0.333,0.666,0.4  c0.167,0.067,0.633,0.167,0.766,0.333s0.267,0.733,0.366,0.967c0.1,0.267,0.6,0.667,0.8,0.333c0.2-0.367,0.267-0.567,0.5-0.567  C16.263,11.167,15.33,9.567,14.863,9.233"
   id="path10"
   style="fill:#81b0dc;fill-opacity:1" />
<path
   class="st1"
   d="M8.733,11.9c0.133-0.167,0.1-0.333,0.267-0.467c0.167-0.133,0.466-0.233,0.6-0.367  c0.167-0.133,0.233-0.167,0.167-0.233c-0.1-0.1-0.133-0.133-0.1-0.133c0.033-0.033,0.167-0.133,0.167-0.133  c0.033,0.033,0.1,0.2,0.2,0.267s0.167,0.067,0.133-0.367C10.132,10.067,9.699,10,9.499,9.8c-0.1-0.1-0.466-0.333-0.566-0.367  c-0.5,0.567-0.8,1.267-0.9,2.067c0.033,0.033,0.3,0.267,0.333,0.3C8.5,11.933,8.6,12.067,8.733,11.9"
   id="path12"
   style="fill:#81b0dc;fill-opacity:1" />
<path
   class="st1"
   d="M10.665,9.1c0.167,0.167,0.466,0.333,0.5,0.367c0,0.033,0.133-0.133,0.067-0.4  c-0.033-0.233,0.1-0.267,0.2-0.333s0.533-0.1,0.666-0.2c0.133-0.067,0.333-0.2-0.067-0.533c-0.5,0-1.033,0.1-1.499,0.267  c0.033,0.1,0.067,0.2-0.033,0.367C10.399,8.867,10.466,8.967,10.665,9.1"
   id="path14"
   style="fill:#81b0dc;fill-opacity:1" />
<path
   class="st2"
   d="M11.998,7c0.703,0,1.371,0.147,1.979,0.41c0.728-3.654-0.909-6.178-6.891-6.324  C3.879,0.155,2.224,2.483,2.224,4.293l0.31,3.362c0,1.034-1.345,0.983-1.345,0.052c0-1.345,0-1.034,0-1.345  c0-0.621-0.517-0.879-0.517-0.879L0,6.31c0,0,0.155,0,0.155,0.31v0.931c0,3.207,4.034,3.414,4.655,0.31h0.724L6.31,12H7  C7,9.243,9.242,7,11.998,7z"
   id="path16"
   style="fill:#3498db;fill-opacity:1" />
<path
   class="st3"
   d="M8.276,0.776c-0.776,0-1.448,0.31-1.966,0.879V5.69C6.828,6.207,7.5,6.569,8.276,6.569  c1.552,0,2.793-1.293,2.793-2.897C11.121,2.069,9.828,0.776,8.276,0.776z"
   id="path18"
   style="fill:#0070c5;fill-opacity:1" />
<circle
   class="st4"
   cx="4.138"
   cy="4.138"
   r="0.517"
   id="circle20"
   style="fill:#ffffff;fill-opacity:1" />
<path
   class="st2"
   d="M7.862,0c-0.724,0-1.5,0.362-2.017,0.931v4.345c0.517,0.569,1.293,0.931,2.017,0.931  c1.448,0,2.69-1.397,2.69-3.103S9.362,0,7.862,0z"
   id="path22"
   style="fill:#3498db;fill-opacity:1" />
<path
   class="st3"
   d="M7,12c0-0.207,0.017-0.41,0.041-0.61c-0.02-0.002-0.037-0.011-0.058-0.011c-0.362,0-0.621,0.259-0.621,0.621  L7,12L7,12z"
   id="path24"
   style="fill:#0070c5;fill-opacity:1" />
</svg>