<?xml version="1.0" encoding="UTF-8"?>
<svg width="580px" height="580px" enable-background="new 0 0 579.997 579.997" version="1.1" viewBox="0 0 580 580" xmlns="http://www.w3.org/2000/svg">
	<path d="m144.9 193.88c-1.196-32.441-1.918-54.17-2.164-65.219-5.032-37.473-16.802-56.209-35.31-56.209-8.41 0-12.615 5.154-12.615 15.48 0 3.133 1.338 8.779 3.977 16.943 2.885 7.934 4.311 13.564 4.311 16.941v146.99c0 3.607 1.812 8.656 5.418 15.148 4.311 7.916 9.483 11.875 15.482 11.875 14.427 0 21.622-26.055 21.622-78.184 0-4.803-0.123-9.977-0.352-15.5l-0.369-8.267z" fill="param(fill)" fill-opacity="param(fill-opacity)" stroke="param(outline)" stroke-opacity="param(outline-opacity)" stroke-width="param(outline-width)"/>
	<path d="m481.07 73.17c-11.295-13.705-25.968-20.549-43.982-20.549-18.016 0-27.023 3.359-27.023 10.098 0 2.639 1.935 5.877 5.771 9.73 2.885 2.885 9.008 6.967 18.367 12.244 8.656 4.557 13.934 8.287 15.869 11.172 3.343 4.557 5.031 12.967 5.031 25.211 0 18.982-6.967 31.949-20.9 38.916-17.276 8.41-30.261 14.656-38.916 18.736-14.146 11.771-21.253 32.549-21.253 62.334 0 20.426 2.393 34.113 7.213 41.08 6.229 8.885 19.247 13.336 38.917 13.336 30.014 0 45.038-3.484 45.038-10.451 0-4.328-4.539-9.605-13.688-15.852-9.852-6.49-17.171-11.418-21.956-14.777-8.902-6.246-13.371-15.729-13.371-28.467 0-14.408 6.967-25.58 20.901-33.496l38.916-21.623c13.934-11.541 20.9-28.59 20.9-51.162 0-18.261-5.277-33.761-15.834-46.48z" fill="param(fill)" fill-opacity="param(fill-opacity)" stroke="param(outline)" stroke-opacity="param(outline-opacity)" stroke-width="param(outline-width)"/>
	<path d="m379.35 393.46c5.277-23.012 7.917-37.789 7.917-44.299 0-6.018-0.353-10.943-1.056-14.744-2.182-12.525-9.642-23.68-22.379-33.533-12.702-10.08-25.44-15.129-38.178-15.129-5.277 0-9.958 1.195-14.039 3.605-5.067 3.115-7.565 7.072-7.565 11.877 0 3.852 1.795 7.072 5.384 9.746 10.837 5.77 19.001 10.063 24.489 12.949 7.46 4.326 11.189 13.934 11.189 28.852 0 10.803-2.182 19.705-6.474 26.672-0.985 1.408-4.927 6.123-11.894 14.004-4.328 4.82-6.475 9.854-6.475 15.166 0 2.393 4.082 9.605 12.245 21.605 8.375 11.998 12.597 22.096 12.597 30.295 0 8.162-1.899 14.637-5.771 19.422-2.639 3.379-8.022 7.813-16.186 13.336-8.163 5.314-13.723 9.502-16.608 12.633-1.671 1.689-2.498 3.941-2.498 6.826 0 10.557 6.932 15.834 20.866 15.834 11.787 0 24.173-5.736 37.156-17.277 12.456-10.801 20.514-22.096 24.139-33.885 1.407-4.539 2.146-10.309 2.146-17.275 0-14.393-2.991-28.467-9.008-42.154-2.426-5.524-2.426-13.688 3e-3 -24.526z" fill="param(fill)" fill-opacity="param(fill-opacity)" stroke="param(outline)" stroke-opacity="param(outline-opacity)" stroke-width="param(outline-width)"/>
	<path d="m306.05 178.14c4.3-1.58 9.058-3.327 13.777-5.459 1.103 0.095 2.243 0.186 3.468 0.186 9.949 0 18.016-8.066 18.016-18.016 0-9.853-7.909-17.857-17.725-18.014-0.276-0.018-0.595-0.048-0.935-0.078-4.04-0.351-9.576-0.833-15.178 1.903l-0.186 0.092c-4.04 2.03-8.931 3.826-13.661 5.563-2.475 0.909-5.035 1.85-7.549 2.85-0.56 0.224-1.181 0.449-1.827 0.674-1.27-16.922-2.619-34.362-5.346-51.247-1.586-9.822-10.838-16.5-20.657-14.913-9.822 1.586-16.499 10.835-14.913 20.657 2.567 15.896 3.8 32.36 5.105 49.791 0.028 0.384 0.058 0.769 0.087 1.152-3.87 0.493-8.151 1.233-12.754 2.063-1.309 0.235-2.968 0.535-4.058 0.715-1.471 1e-3 -2.967 0.185-4.457 0.565-9.64 2.465-15.456 12.277-12.991 21.917 0.383 1.496 3.91 13.565 18.037 13.565 1.313 0 2.72-0.104 4.223-0.332 1.545-0.233 3.443-0.575 5.643-0.973 2.346-0.423 6.263-1.129 9.562-1.605 1.478 12.7 3.487 25.36 6.565 37.718 0.074 0.497 0.149 1.697 0.2 2.504 0.132 2.11 0.282 4.503 0.812 7.073 1.755 8.52 9.256 14.386 17.627 14.386 1.204 0 2.427-0.122 3.652-0.374 9.704-1.998 15.966-11.454 14.036-21.156-0.056-0.415-0.122-1.476-0.167-2.186-0.156-2.49-0.351-5.589-1.169-8.841-2.723-10.89-4.506-22.184-5.842-33.852 4.332-1.118 8.422-2.412 11.985-3.838 2.037-0.808 4.262-1.625 6.62-2.49zm-57.339-10.058c-0.169-0.479-0.356-0.948-0.562-1.404 0.206 0.454 0.393 0.922 0.562 1.404zm-10.561-10.834c-1.157-0.443-2.363-0.769-3.602-0.966 1.2 0.181 2.412 0.504 3.602 0.966z" fill="param(fill)" fill-opacity="param(fill-opacity)" stroke="param(outline)" stroke-opacity="param(outline-opacity)" stroke-width="param(outline-width)"/>
	<path d="m248.68 358.41h-0.472c-6.018-0.01-12.29-3e-3 -19.355 1.577-1.662 0.38-3.111 0.811-4.391 1.191-0.722 0.214-1.679 0.499-2.17 0.607-8.31-0.038-33.364-1.247-45.504-1.833-8.009-0.387-8.719-0.418-9.495-0.418-9.949 0-18.016 8.065-18.016 18.016 0 9.846 7.896 17.846 17.702 18.013 0.801 0.027 4.335 0.198 8.071 0.379 18.804 0.907 39.542 1.876 47.626 1.876 4.982 0 9.071-1.216 12.057-2.104 0.83-0.246 1.613-0.479 2.06-0.581 3.1-0.693 6.77-0.699 11.408-0.691h0.479c9.949 0 18.016-8.066 18.016-18.016-1e-3 -9.95-8.067-18.016-18.016-18.016z" fill="param(fill)" fill-opacity="param(fill-opacity)" stroke="param(outline)" stroke-opacity="param(outline-opacity)" stroke-width="param(outline-width)"/>
	<path d="m244.04 433.35c-5.629 1.121-9.801 2.139-15.555 3.571-9.031 2.266-21.032 4.555-31.621 6.574-7.059 1.346-13.154 2.509-17.688 3.528-9.706 2.185-15.805 11.825-13.62 21.532 1.886 8.375 9.319 14.063 17.56 14.063 1.31 0 2.641-0.144 3.973-0.443 3.953-0.89 10.061-2.055 16.525-3.288 11.064-2.11 23.605-4.502 33.607-7.012 5.378-1.339 8.995-2.222 13.857-3.19 9.758-1.943 16.093-11.43 14.148-21.188-1.942-9.757-11.434-16.094-21.186-14.147z" fill="param(fill)" fill-opacity="param(fill-opacity)" stroke="param(outline)" stroke-opacity="param(outline-opacity)" stroke-width="param(outline-width)"/>
</svg>
