<?xml version="1.0" encoding="UTF-8"?>
<svg width="580px" height="580px" enable-background="new 0 0 579.997 579.997" version="1.1" viewBox="0 0 580 580" xmlns="http://www.w3.org/2000/svg">
	<path d="m355.36 414.5 148.54 0.068-74.291-128.81 74.29-128.81-148.54 0.062-74.096-128.47-74.285 128.53-148.7 0.062 74.331 128.62-74.331 128.61 148.7 0.068 74.289 128.54 74.1-128.48zm91.904-32.666-73.043-0.033 36.512-63.306 36.531 63.339zm-110.79-0.051-110.62-0.05-55.468-95.978 55.471-95.977 110.61-0.045 55.385 96.027-55.382 96.023zm110.79-192.1-36.532 63.34-36.515-63.31 73.047-0.03zm-166.03-95.724 36.376 63.069-72.845 0.029 36.469-63.098zm-166.29 95.861 73.124-0.03-36.572 63.277-36.552-63.247zm0 191.86 36.552-63.243 36.569 63.276-73.121-0.033zm129.82 32.766 72.853 0.034-36.38 63.075-36.473-63.109z" fill="param(fill)" fill-opacity="param(fill-opacity)" stroke="param(outline)" stroke-opacity="param(outline-opacity)" stroke-width="param(outline-width)"/>
</svg>
