<?xml version="1.0" encoding="UTF-8"?>
<svg width="580px" height="580px" enable-background="new 0 0 579.997 579.997" version="1.1" viewBox="0 0 580 580" xmlns="http://www.w3.org/2000/svg">
	<path d="m504.77 154.19 7.089-34.708-222.61-94.895-222.61 94.895 7.089 34.708h431.05zm-215.52-90.298 127.01 54.143h-254.03l127.01-54.143z" fill="param(fill)" fill-opacity="param(fill-opacity)" stroke="param(outline)" stroke-opacity="param(outline-opacity)" stroke-width="param(outline-width)"/>
	<rect x="107.28" y="347.36" width="363.94" height="30.932" fill="param(fill)" fill-opacity="param(fill-opacity)" stroke="param(outline)" stroke-opacity="param(outline-opacity)" stroke-width="param(outline-width)"/>
	<rect x="83.663" y="403.08" width="411.19" height="36.439" fill="param(fill)" fill-opacity="param(fill-opacity)" stroke="param(outline)" stroke-opacity="param(outline-opacity)" stroke-width="param(outline-width)"/>
	<rect x="53.033" y="466.78" width="472.43" height="39.971" fill="param(fill)" fill-opacity="param(fill-opacity)" stroke="param(outline)" stroke-opacity="param(outline-opacity)" stroke-width="param(outline-width)"/>
	<path d="m139.49 164.47s-12.446 61.119-12.446 170.01h52.469c0-108.89-13.488-170.01-13.488-170.01h-26.535z" fill="param(fill)" fill-opacity="param(fill-opacity)" stroke="param(outline)" stroke-opacity="param(outline-opacity)" stroke-width="param(outline-width)"/>
	<path d="m230.23 164.47s-12.446 61.119-12.446 170.01h52.469c0-108.89-13.487-170.01-13.487-170.01h-26.536z" fill="param(fill)" fill-opacity="param(fill-opacity)" stroke="param(outline)" stroke-opacity="param(outline-opacity)" stroke-width="param(outline-width)"/>
	<path d="m320.96 164.47s-12.429 61.119-12.429 170.01h52.469c0-108.89-13.487-170.01-13.487-170.01h-26.553z" fill="param(fill)" fill-opacity="param(fill-opacity)" stroke="param(outline)" stroke-opacity="param(outline-opacity)" stroke-width="param(outline-width)"/>
	<path d="m411.7 164.47s-12.429 61.119-12.429 170.01h52.469c0-108.89-13.487-170.01-13.487-170.01h-26.553z" fill="param(fill)" fill-opacity="param(fill-opacity)" stroke="param(outline)" stroke-opacity="param(outline-opacity)" stroke-width="param(outline-width)"/>
</svg>
