<?xml version="1.0" encoding="UTF-8"?>
<svg enable-background="new 0 0 818.8 111.5" version="1.1" viewBox="0 0 818.8 111.5" xmlns="http://www.w3.org/2000/svg">
	<path style="fill:#231F20;" d="M0,111.5V0.1h7.4l69.9,69.8V0.1h22.3v111.4h-8.2L22.3,42.4v69.1  H0"/>
	<path style="fill:#231F20;" d="m225.8 111.5v-111.4l-81.9-0.1v20.8h59.6v23.8h-34v20.7h34v25.3h-59.5v20.8l81.8 0.1"/>
	<path style="fill:#231F20;" d="m502.3 0.1v20.8h-37.1v90.6h-22.3v-90.6h-37.1v-20.8h96.5"/>
	<path style="fill:#176FC1;" d="m550.4 95.5c-10.7-10.6-16-23.9-16-39.9 0.1-15.7 5.4-28.8 16-39.5s23.9-16 39.6-16c15.9 0 29.5 5 40.9 14.9l-14.9 16.3c-7.6-5.9-16.3-8.9-26.1-8.9-10 0-18.1 3.2-24.2 9.4s-9.2 14.1-9.2 23.8c0.1 10.4 3.2 18.6 9.3 24.7s14.2 9.1 24.2 9.1c8 0 14.2-1.6 18.5-4.8v-19.2l-14.9 0.1v-20.8h37.4v52c-11.3 9.9-25 14.9-40.9 14.9-15.8-0.1-29.1-5.5-39.7-16.1"/>
	<path style="fill:#176FC1;" d="M674.9,111.5h22.2V0h-22.2V111.5z"/>
	<path style="fill:#176FC1;" d="m801.4 3.8c5.7 2.5 11 6.2 16 11.2l-14.9 14.9c-5-6-11.9-8.9-20.8-8.9s-14.6 2.1-17.1 6.3-2.5 7.8 0 10.8 8.2 5.2 17.1 6.7c9.4 1 18 4.1 25.6 9.3 7.7 5.2 11.5 13.5 11.5 24.9 0 8.9-4.1 16.6-12.3 23s-17.7 9.7-28.6 9.7c-10.3 0-19-1.5-25.9-4.4-6.9-3-12.9-6.9-17.8-11.9l14.8-15.1c5 6 13.4 9.4 25.3 10.4 9.9 0 16.1-2.1 18.5-6.3 2.5-4.2 2.5-8.4 0-12.6-2.4-4.2-8.6-6.8-18.5-7.8-8.9-1-17.1-3.7-24.5-8.2s-11.2-12.1-11.2-23c0-9.9 4.2-17.8 12.7-23.7 8.4-6 17.1-9 26-9 10.3 0 18.4 1.2 24.1 3.7"/>
	<path style="fill:#231F20;" d="M340.2,43.3l31.6-43.2h-26.2L327,25.4L340.2,43.3"/>
	<path style="fill:#176FC1;" d="m332.8 53.5-39.2-53.4h-26.2l39 53.4-42.6 58h26.5l42.5-58"/>
	<path style="fill:#231F20;" d="m340.2 63.6-13.2 18 21.9 29.9h26.4l-35.1-47.9"/>
</svg>
