<svg width="16" height="10" viewBox="0 0 16 10" fill="none" xmlns="http://www.w3.org/2000/svg">
<path fill-rule="evenodd" clip-rule="evenodd" d="M14.9776 3.99487H3.43863L5.70663 1.71587C6.09464 1.32587 6.09263 0.693869 5.70363 0.305869C5.31263 -0.0821308 4.68163 -0.0801308 4.29263 0.308869L0.370635 4.25087C0.162635 4.43287 0.0256348 4.69287 0.0256348 4.99187C0.0256348 4.99487 0.0276348 4.99787 0.0276348 5.00187C0.0256348 5.26087 0.121635 5.51887 0.318635 5.71587L4.31563 9.69387C4.51063 9.88687 4.76463 9.98387 5.01863 9.98387C5.27463 9.98387 5.53063 9.88587 5.72563 9.68987C6.11363 9.29987 6.11163 8.66887 5.72263 8.28087L3.41863 5.98887H14.9776C15.5286 5.98887 15.9746 5.54187 15.9746 4.99187C15.9746 4.44087 15.5286 3.99487 14.9776 3.99487Z" fill="#016FC4"/>
</svg>
