<?xml version="1.0" encoding="UTF-8"?>
<svg width="580px" height="580px" enable-background="new 0 0 580 580" version="1.1" viewBox="0 0 580 580" xmlns="http://www.w3.org/2000/svg">
	<g transform="matrix(48.15 0 0 48.15 -536.27 -33.307)" display="none" fill="none" stroke="#757575" stroke-width=".1">
		<rect x="1" y="1" width="10" height="10" display="inline"/>
		<rect x="2" y="2" width="8" height="8" display="inline"/>
	</g>
	<path d="m203.06 182.54h19.004l33.269 110.93c2.643 9.51 8.188 14.266 16.635 14.266 12.153 0 18.23-6.077 18.23-18.231 0-2.643-0.524-5.021-1.572-7.133l-36.461-121.21c-2.644-8.462-8.712-16.65-18.206-24.565-11.622-9.509-24.299-14.265-38.032-14.265h-84.769c-13.218 0-25.105 4.755-35.663 14.265-7.931 7.383-13.209 15.571-15.837 24.565l-36.46 121.21c-1.047 2.644-1.571 5.021-1.571 7.133 0 12.154 6.068 18.231 18.206 18.231 8.462 0 14.015-4.756 16.659-14.266l33.27-110.93h18.206l-54.667 197.27h53.096v153.7c0 13.733 6.601 20.6 19.802 20.6s19.802-6.866 19.802-20.6v-154.48h19.826v155.27c0 13.201 6.601 19.802 19.802 19.802s19.802-6.601 19.802-19.802v-154.5h53.071l-55.442-197.27z" fill="param(fill)" fill-opacity="param(fill-opacity)" stroke="param(outline)" stroke-opacity="param(outline-opacity)" stroke-width="param(outline-width)"/>
	<path d="m155.53 113.61c12.137 0 22.433-4.223 30.888-12.669 8.454-8.446 12.681-18.48 12.681-30.102 0-12.153-4.227-22.453-12.681-30.9-8.455-8.446-18.75-12.669-30.888-12.669-11.622 0-21.66 4.224-30.114 12.669-8.455 8.447-12.682 18.747-12.682 30.9 0 11.622 4.227 21.656 12.682 30.102 8.454 8.447 18.492 12.67 30.114 12.669z" fill="param(fill)" fill-opacity="param(fill-opacity)" stroke="param(outline)" stroke-opacity="param(outline-opacity)" stroke-width="param(outline-width)"/>
	<path d="m518.88 492.76c-1.722 7.979-4.492 14.063-8.31 18.254-3.817 4.191-9.457 6.286-16.92 6.286-7.692 0-13.662-2.598-17.91-7.793-4.248-5.194-6.372-14.796-6.372-28.803 0-11.309 1.779-19.604 5.339-24.885 4.707-7.118 11.48-10.677 20.321-10.678 3.903 1e-3 7.434 0.804 10.591 2.411s5.827 3.904 8.008 6.889c1.32 1.78 2.584 4.593 3.789 8.438l34.443-7.663c-4.421-13.318-11.18-23.191-20.278-29.621-9.099-6.429-21.599-9.644-37.5-9.644-20.321 0-36.036 5.611-47.144 16.833-11.108 11.224-16.662 27.282-16.662 48.178 0 15.671 3.157 28.53 9.472 38.576s13.82 17.063 22.518 21.053c8.696 3.99 19.905 5.984 33.625 5.984 11.309 0 20.622-1.636 27.941-4.908 7.319-3.271 13.447-8.122 18.384-14.552s8.554-14.438 10.85-24.024l-34.185-10.331z" fill="param(fill)" fill-opacity="param(fill-opacity)" stroke="param(outline)" stroke-opacity="param(outline-opacity)" stroke-width="param(outline-width)"/>
	<polygon points="371.8 488.63 352.26 418.11 315.32 418.11 295.86 488.63 282.51 418.11 245.48 418.11 273.56 544.34 311.79 544.34 333.83 464.86 355.96 544.34 394.19 544.34 422 418.11 385.15 418.11" fill="param(fill)" fill-opacity="param(fill-opacity)" stroke="param(outline)" stroke-opacity="param(outline-opacity)" stroke-width="param(outline-width)"/>
</svg>
