<?xml version="1.0" encoding="UTF-8"?>
<svg width="580px" height="580px" enable-background="new 0 0 580 580" version="1.1" viewBox="0 0 580 580" xmlns="http://www.w3.org/2000/svg">
	<path d="m92.003 280.69c-68.254 32.771-97.339 115.33-64.568 183.59 24.106 50.207 71.868 85.371 124.37 84.113l4.647-62.574c-34.863 9.17-61.593-3.626-80.011-41.987-22.359-46.567-7.335-98.144 39.233-120.5 12.966-6.226 20.218-3.29 35.587-4.814l-9.696-50.958c-16.749 1.182-33.56 5.452-49.564 13.136z" enable-background="new    " fill="param(fill)" fill-opacity="param(fill-opacity)" opacity=".75" stroke="param(outline)" stroke-opacity="param(outline-opacity)" stroke-width="param(outline-width)"/>
	<path d="m384.72 76.054c72.23-22.702 149.88 17.716 172.58 89.946 16.699 53.132 5.847 111.44-33.353 146.39l-46.144-42.519c31.723-17.123 42.5-44.729 29.74-85.324-15.488-49.281-61.696-76.679-110.98-61.19-13.722 4.313-17.013 11.411-29.276 20.798l-27.734-43.835c13.038-10.579 28.231-18.948 45.167-24.27z" enable-background="new    " fill="param(fill)" fill-opacity="param(fill-opacity)" opacity=".75" stroke="param(outline)" stroke-opacity="param(outline-opacity)" stroke-width="param(outline-width)"/>
	<g fill="param(fill)" fill-opacity="param(fill-opacity)" stroke="param(outline)" stroke-opacity="param(outline-opacity)" stroke-width="param(outline-width)">
		<path d="m255.72 67.474c-0.169 0.906-0.41 1.796-0.717 2.667 0.213 0.857 0.368 1.735 0.445 2.633l0.272-5.3z"/>
		<path d="m145.59 109.7c0.931-0.063 1.864-0.05 2.794 0.034 0.77-0.415 1.563-0.794 2.405-1.089l-5.199 1.055z"/>
		<path d="m175.62 193.09c-0.931 0.063-1.865 0.05-2.795-0.034-0.771 0.415-1.564 0.794-2.406 1.09l5.201-1.056z"/>
		<path d="m175.62 193.09c1.511-0.102 3.015-0.396 4.483-0.911l-4.483 0.911z"/>
		<polygon points="167.01 339.98 158.46 338.42 149.9 337.01"/>
		<polygon points="380.92 156.73 375.63 163.63 370.45 170.6"/>
		<path d="m529.9 311.68c6.916-10.071 7.262-18.675 4.789-25.739-1.218-6.673-4.292-13.087-9.271-18.408-13.221-14.129-35-15.435-49.792-3.418-11.048 6.587-16.695 19.374-31.005 23.871-45.671 14.354-86.488-9.209-100.84-54.879-3.319-10.563-4.854-20.816-4.721-30.525 9.341-5.057 18.629-14.468 28.532-28.489l8.033-10.465 7.866-10.6c18.994-23.577 24.743-41.393 17.486-57.313-0.231-0.849-0.493-1.663-0.791-2.426-3.599-6.062-10.217-16.255-17.303-18.585-0.542-0.425-1.074-0.85-1.637-1.274-18.079-13.646-50.675-2.958-73.2 7.358-1.41-1.622-3.042-3.125-4.892-4.449l-36.426-26.07c-10.67-7.637-24.857-6.846-31.206 1.74l-2.092 2.829c-0.835-0.01-1.678 0.016-2.528 0.089l-42.522 3.656c-0.1 8e-3 -0.197 0.022-0.296 0.032l-2.611-2.016c-8.451-6.525-22.047-3.205-29.905 7.304l-26.823 35.874c-7.857 10.509-7.362 24.71 1.089 31.235l8.119 6.269c0.738 0.569 1.516 1.06 2.325 1.481l12.712 36.228c-3.258 4.649-4.903 10.803-4.083 17.204l4.956 38.706c-23.738 7.635-57.096 22.339-61.123 45.504-0.121 0.694-0.219 1.368-0.325 2.048-3.583 6.542-1.452 18.507 0.062 25.394 0.304 0.763 0.67 1.536 1.083 2.316 5.579 16.58 21.949 25.66 51.924 29.899l12.976 2.364 13.025 2.155c16.811 3.473 30.023 3.999 40.299 1.311 6.731 6.999 12.615 15.534 17.408 25.516 20.721 43.157 7.013 88.25-36.144 108.97-13.522 6.493-26.382 1.013-38.952 3.752-19.01 1.332-34.021 17.165-34.021 36.515 0 7.288 2.138 14.072 5.808 19.777 3.02 6.846 9.15 12.891 21.076 15.521 2.192 0.603 4.467 1.005 6.804 1.19 20.637 2.729 36.016-3.358 57.062-13.462 71.666-34.409 105.38-125.86 70.973-197.52-10.14-21.12-24.253-38.602-40.946-51.88-4.097-18.226-22.734-36.4-38.55-48.991 1.692-3.918 2.403-8.457 1.806-13.125l-5.42-42.333c-1.314-10.26-8.586-18.315-17.149-20.013l-12.926-36.838 26.069-34.865c1.485-1.986 2.67-4.105 3.561-6.279l33.685-2.896c1.524 1.862 3.336 3.582 5.422 5.075l36.425 26.07c1.323 0.947 2.701 1.763 4.11 2.452-3.369 20.416-5.443 48.983 4.68 66.22-3.118 21.102-1.479 43.509 5.545 65.859 23.836 75.841 110.93 119.58 186.77 95.745 22.271-6.999 37.661-13.062 50.867-29.156 1.58-1.734 2.965-3.579 4.152-5.515zm-362.71-232.93c-5e-3 0.534 8e-3 1.07 0.054 1.609l0.088-1.718c0.853-0.656 1.653-1.188 2.38-1.561 1.803 3.398 4.708 6.248 8.278 8.244-2.417 7.508-12.308 21.301-19.753 28.107-3.01-2.087-6.408-3.378-9.858-3.69-1.265 0.682-2.425 1.516-3.479 2.478-7e-3 -0.211-0.015-0.406-0.022-0.63-0.018-0.514 0.059-1.115 0.208-1.78l0.499-0.101c-0.161 0.011-0.321 0.02-0.482 0.035 1.793-7.776 14.164-24.805 22.087-30.993zm17.497 149.72c-3.722-2.469-6.028-3.849-6.028-3.849l-0.797-0.139s-2.439 0.481-6.482 1.468c-3.334-9.379-5.159-26.822-3.111-33.868 1.487 0.513 3.013 0.842 4.55 0.981 2.092-1.127 3.917-2.66 5.415-4.512 0.126 0.113 0.241 0.215 0.374 0.333 5.109 4.566 8.803 30.802 6.079 39.586zm66.304-151.66c1.782-1.985 3.153-4.246 4.01-6.668-0.294-1.183-0.713-2.323-1.244-3.411 0.466-0.027 0.958-0.055 1.5-0.085 0.156-9e-3 0.332 3e-3 0.503 0.01l-0.042 0.82c0.051-0.271 0.096-0.544 0.134-0.818 7.556 0.43 28.893 15.383 33.995 23.376-3.932 2.201-6.234 3.636-6.234 3.636l-0.487 0.646s-0.503 1.751-1.254 4.787c-8.846-2.826-25.843-15.055-30.881-22.293z"/>
	</g>
</svg>
