<?xml version="1.0" encoding="UTF-8"?>
<svg width="580px" height="580px" enable-background="new 0 0 580 580" version="1.1" viewBox="0 0 580 580" xmlns="http://www.w3.org/2000/svg">
	<g transform="matrix(48.15 0 0 48.15 -536.27 -33.307)" display="none" fill="none" stroke="#757575" stroke-width=".1">
		<rect x="1" y="1" width="10" height="10" display="inline"/>
		<rect x="2" y="2" width="8" height="8" display="inline"/>
	</g>
	<path d="m140.51 136.16c10.35 0 19.129-3.601 26.338-10.804 7.209-7.202 10.813-15.758 10.813-25.668 0-10.363-3.604-19.146-10.813-26.349-7.209-7.202-15.989-10.803-26.338-10.804-9.91 1e-3 -18.469 3.602-25.678 10.804-7.209 7.203-10.814 15.985-10.814 26.349 0 9.91 3.604 18.466 10.814 25.668 7.208 7.203 15.768 10.804 25.678 10.804z" fill="param(fill)" fill-opacity="param(fill-opacity)" stroke="param(outline)" stroke-opacity="param(outline-opacity)" stroke-width="param(outline-width)"/>
	<path d="m456.53 135.5c9.909 0 18.469-3.604 25.678-10.813s10.813-15.768 10.814-25.679c-1e-3 -10.349-3.605-19.015-10.814-25.998-7.209-6.982-15.769-10.473-25.678-10.474-9.911 1e-3 -18.467 3.492-25.669 10.474-7.202 6.983-10.804 15.649-10.803 25.998-1e-3 9.911 3.601 18.47 10.803 25.679 7.203 7.209 15.758 10.814 25.669 10.813z" fill="param(fill)" fill-opacity="param(fill-opacity)" stroke="param(outline)" stroke-opacity="param(outline-opacity)" stroke-width="param(outline-width)"/>
	<path d="m538.62 157.44c-8.783-9.683-20.157-14.524-34.121-14.524h-96.611c-13.058 0-24.205 4.619-33.441 13.854-9.236 9.237-13.854 20.61-13.854 34.121v112.14c0 10.817 4.955 16.226 14.865 16.226 9.456 0 14.184-5.408 14.185-16.226v-109.44h17.565v297.26c0 13.511 6.755 20.267 20.267 20.267 13.511 0 20.267-6.756 20.267-20.267v-172.28h17.565v172.28c0 13.511 6.755 20.267 20.267 20.267 13.965 0 20.946-6.756 20.947-20.267v-297.26h16.886v109.44c-1e-3 11.257 4.728 16.886 14.185 16.886 9.469 0 14.204-5.629 14.205-16.886v-111.48c-3e-3 -13.057-4.395-24.427-13.177-34.111z" fill="param(fill)" fill-opacity="param(fill-opacity)" stroke="param(outline)" stroke-opacity="param(outline-opacity)" stroke-width="param(outline-width)"/>
	<path d="m222.92 176.71c-2.254-7.216-7.429-14.198-15.524-20.947-9.91-8.109-20.72-12.164-32.431-12.164h-72.283c-11.271 0-21.408 4.055-30.41 12.164-6.763 6.295-11.264 13.278-13.504 20.947l-31.09 103.35c-0.894 2.254-1.34 4.282-1.34 6.082 0 10.364 5.175 15.545 15.525 15.545 7.216 0 11.951-4.055 14.205-12.164l28.369-94.591h15.524l-46.616 168.21h45.275v131.06c0 11.711 5.628 17.566 16.885 17.566s16.885-5.855 16.885-17.566v-131.72h16.906v132.4c0 11.257 5.628 16.886 16.885 16.886 11.256 0 16.885-5.629 16.885-16.886v-131.74h45.254l-47.275-168.21h16.205l28.369 94.591c2.254 8.109 6.982 12.164 14.185 12.164 10.363 0 15.545-5.182 15.545-15.545 0-2.254-0.447-4.281-1.34-6.082l-31.089-103.35z" fill="param(fill)" fill-opacity="param(fill-opacity)" stroke="param(outline)" stroke-opacity="param(outline-opacity)" stroke-width="param(outline-width)"/>
	<rect x="282.65" y="61.172" width="35.812" height="451.29" fill="param(fill)" fill-opacity="param(fill-opacity)" stroke="param(outline)" stroke-opacity="param(outline-opacity)" stroke-width="param(outline-width)"/>
</svg>
