<?xml version="1.0" encoding="UTF-8"?>
<svg width="580px" height="580px" enable-background="new 0 0 580 580" version="1.1" viewBox="0 0 580 580" xmlns="http://www.w3.org/2000/svg">
	<path d="m170.85 479.72c-36.582-20.633-58.877-68.876-42.415-140.98 11.548-50.58 45.201-113 19.41-164.98 31.286 21.625 63.813 73.047 96.618 131.12 2.262-62.808-30.329-103.96-6.901-189.79 16.076 106.18 80.559 112.76 113.3 209.34 13.925-45.408 42.891-60.354 28.756-173.11 142.34 194.4 61.214 263.45 32.781 332.99l9.201-96.618c-44.644 129.05-80.412 152.86-112.72 181.73 18.057-60.578 25.178-121.16-11.502-181.73-8.906 99.462-34.04 78.764-39.108 158.73-50.254-37.93-60.576-76.838-69.588-140.33-6.836 7.431-18.381 38.482-17.827 73.616z" fill="param(fill)" fill-opacity="param(fill-opacity)" stroke="param(outline)" stroke-miterlimit="10" stroke-opacity="param(outline-opacity)" stroke-width="param(outline-width)"/>
	<path d="m274.94 15.604c-37.226 151.16 30.739 149.83 68.438 238.67 26.443-136.99-52.662-106.16-68.438-238.67z" fill="param(fill)" fill-opacity="param(fill-opacity)" stroke="param(outline)" stroke-miterlimit="10" stroke-opacity="param(outline-opacity)" stroke-width="param(outline-width)"/>
</svg>
