<?xml version="1.0" encoding="UTF-8"?>
<svg width="580px" height="580px" enable-background="new 0 0 580 580" version="1.1" viewBox="0 0 580 580" xmlns="http://www.w3.org/2000/svg">
	<g fill="param(fill)" fill-opacity="param(fill-opacity)" stroke="param(outline)" stroke-miterlimit="10" stroke-opacity="param(outline-opacity)" stroke-width="param(outline-width)">
		<path d="m374.56 125.86c22.55 0 40.834-18.284 40.834-40.835 0-22.552-18.284-40.836-40.834-40.836-22.552 0-40.834 18.284-40.834 40.836 0 22.551 18.282 40.835 40.834 40.835z"/>
		<path d="m322.09 200.92 0.25 311.75c0 31.184 45.857 30.899 45.857-0.714l0.027-181.37 8.926-0.086-0.028 181.37c0 31.612 46.394 32.411 46.394 0.799l0.026-313.06h8.059v111.8c0 26.838 36.42 26.838 36.42 0.479v-122.3c0-32.876-24.469-52.237-50.349-52.237h-72.61c-17.222 0-29.722 6.817-40.222 21.817l-36.75 53.554h-63.77c-25.624 0-24.186 36.34-0.48 36.34h73.5c5.751 0 12.75-2.144 16.773-8.148l27.977-39.996z"/>
	</g>
	<g fill="param(fill)" fill-opacity="param(fill-opacity)" stroke="param(outline)" stroke-miterlimit="10" stroke-opacity="param(outline-opacity)" stroke-width="param(outline-width)">
		<path d="m202.27 392.12v-29.863h-29.863v29.863h29.863z"/>
		<path d="m106.15 44.193"/>
		<path d="m218.48 325.85-21.751-21.753-21.75 21.753 21.75 21.748 21.751-21.748z"/>
		<path d="m106.15 44.193"/>
		<path d="m198.19 284.76-21.752-21.749-21.751 21.749 21.751 21.751 21.752-21.751z"/>
		<path d="m106.15 44.193"/>
		<path d="m243.34 535.75 38.776-206.16h-29.172l-33.984 177.45h-50.383l-33.256-177.37h-29.172l38.048 206.09h99.143z"/>
	</g>
</svg>
