<?xml version="1.0" encoding="UTF-8"?>
<svg width="580px" height="580px" enable-background="new 0 0 580 580" version="1.1" viewBox="0 0 580 580" xmlns="http://www.w3.org/2000/svg">
	<g transform="translate(879.29 36.805)" fill="param(fill)" fill-opacity="param(fill-opacity)" stroke="param(outline)" stroke-opacity="param(outline-opacity)" stroke-width="param(outline-width)">
		<path d="m0 0"/>
		<path d="m0 0"/>
	</g>
	<g transform="matrix(1.8717 0 0 1.8717 79.488 -14.535)" opacity=".5">
		<path d="m117.85 49.031c-10.577 1e-3 -19.8 3.838-27.635 11.474-7.834 7.637-11.744 16.907-11.744 27.866 0 10.972 3.91 20.306 11.744 27.943s17.058 11.436 27.635 11.436c0.39 0 0.771-0.01 1.157-0.019 0.39 0.01 0.782 0.019 1.177 0.019 10.576 0 19.761-3.798 27.596-11.436 7.834-7.637 11.744-16.971 11.744-27.943-1e-3 -10.959-3.911-20.229-11.744-27.866-7.835-7.637-17.02-11.474-27.596-11.474-0.394 0-0.786 0.029-1.177 0.039-0.386-0.01-0.768-0.039-1.157-0.039zm-29.969 81.121c-2.38 0-4.547 0.255-6.479 0.771-1.271-0.116-2.549-0.166-3.838-0.135-18.516 0.438-33.189 15.81-32.764 34.326l0.694 78.236c-0.07 12.104 6.387 23.303 16.893 29.313 2.149 1.229 4.402 2.195 6.711 2.912v13.21l49.908-1.466 49.928 1.466v-14.714c1.121-0.51 2.206-1.077 3.278-1.717 10.398-6.195 16.656-17.501 16.373-29.601l-0.675-78.256c0.047-9.066-3.578-17.773-10.047-24.125-5.828-5.722-13.523-9.089-21.618-9.546-1.836-0.453-3.865-0.675-6.094-0.675h-62.27z" fill="param(fill)" fill-opacity="param(fill-opacity)" stroke="param(outline)" stroke-opacity="param(outline-opacity)" stroke-width="param(outline-width)"/>
	</g>
	<path d="m534.67 48.007c0.176-0.777 0.219-1.585 0.101-2.392-0.205-1.394-0.064-3.597 0.072-5.728 0.309-4.821 0.659-10.286-2.3-14.424-1.226-1.714-3.202-2.731-5.31-2.731h-473.18c-1.897 0-3.701 0.825-4.94 2.261s-1.794 3.34-1.517 5.217c0.205 1.394 0.064 3.597-0.073 5.728-0.224 3.487-0.462 7.309 0.54 10.725-0.289 0.75-0.448 1.552-0.448 2.376v485.17c-0.107 0.656-0.119 1.33-0.02 2.002 8e-3 0.056 0.012 0.12 0.02 0.178v4.047c-0.028 0.497-0.06 1.002-0.092 1.503-0.309 4.821-0.659 10.285 2.3 14.424 1.226 1.714 3.203 2.73 5.31 2.73h473.18c1.897 0 3.7-0.825 4.94-2.261 1.24-1.437 1.794-3.341 1.518-5.218-0.205-1.394-0.064-3.597 0.072-5.727 0.19-2.979 0.396-6.203-0.173-9.209v-488.67zm-160.87 369.7c-0.926 1.14-1.479 2.593-1.479 4.172v106.86h-142.35v-105.64c0-2.031-0.918-3.859-2.372-5.078 1.454-1.219 2.372-3.047 2.372-5.078v-359.84h142.35v360.44c0 1.576 0.553 3.03 1.479 4.171zm-174.17-364.61v337.53c0 3.293 2.42 6.086 5.68 6.555 5.577 0.803 9.83 7.748 11 13.876 0.013 0.068 0.027 0.137 0.042 0.204 0.155 0.693 0.291 1.5 0.428 2.539 0.224 1.708 1.083 3.186 2.315 4.217-1.229 1.029-2.088 2.503-2.314 4.207-0.542 4.09-2.72 13.74-11.242 16.287-0.027 3e-3 -0.055 6e-3 -0.082 0.01-3.326 0.402-5.827 3.225-5.827 6.574v83.64h-121.65v-475.64h121.65zm203.03 475.64v-83.671c0-3.259-2.37-6.033-5.59-6.541-6.312-0.997-11.133-9.756-11.513-16.993-0.076-1.453-0.615-2.774-1.47-3.825 0.774-0.953 1.292-2.13 1.438-3.435 0.809-7.222 4.356-15.506 11.886-17.103 3.061-0.648 5.249-3.351 5.249-6.479v-337.59h101.65v475.64h-101.65z" fill="param(fill)" fill-opacity="param(fill-opacity)" stroke="param(outline)" stroke-miterlimit="10" stroke-opacity="param(outline-opacity)" stroke-width="param(outline-width)"/>
</svg>
