<?xml version="1.0" encoding="UTF-8"?>
<svg width="580px" height="580px" enable-background="new 0 0 580 580" version="1.1" viewBox="0 0 580 580" xmlns="http://www.w3.org/2000/svg">
	<path d="m358.8 463.4c-14.079-2.213-24.236-4.426-30.472-6.638-0.805-6.839-1.207-14.481-1.207-22.93l2.112-123.1c0-39.825-0.402-72.208-1.207-97.148h-20.213c-12.471 12.269-24.036 20.817-34.696 25.644-15.688 7.442-33.891 11.767-54.608 12.974v16.896c14.482 1.006 24.639 2.615 30.472 4.827s9.855 4.827 12.068 7.844c1.207 6.638 1.81 13.074 1.81 19.309l-0.604 49.177 0.302 14.181-0.302 15.085c0.604 10.861 0.905 18.203 0.905 22.024 0 4.827-0.15 10.409-0.452 16.745-0.302 6.335-0.453 10.71-0.453 13.124v3.318c0 9.453-0.955 15.537-2.866 18.253s-5.38 4.777-10.409 6.185l-34.093 4.525 0.604 19.611c3.419 0 9.755-0.352 19.007-1.057 9.252-0.703 18.806-1.055 28.662-1.055 34.395 0 61.85 0.502 82.365 1.508 6.235 0.402 10.861 0.604 13.878 0.604 2.615 0 6.638-0.101 12.068-0.303l0.302-16.593c-3.218-1.205-7.542-2.211-12.973-3.015z" fill="param(fill)" fill-opacity="param(fill-opacity)" stroke="param(outline)" stroke-opacity="param(outline-opacity)" stroke-width="param(outline-width)"/>
	<path d="m296.65 165.31c7.04 0 13.929-2.062 20.667-6.185 6.737-4.123 11.666-9.604 14.783-16.443 3.117-6.838 4.676-13.677 4.676-20.516 0-9.252-3.922-17.549-11.766-24.89-7.845-7.341-17.7-11.012-29.567-11.012-11.063 0-20.113 3.47-27.153 10.408-7.04 6.94-10.56 15.84-10.56 26.701 0 11.465 4.073 21.32 12.219 29.567s17.047 12.37 26.701 12.37z" fill="param(fill)" fill-opacity="param(fill-opacity)" stroke="param(outline)" stroke-opacity="param(outline-opacity)" stroke-width="param(outline-width)"/>
</svg>
