<?xml version="1.0" encoding="UTF-8"?>
<svg width="580px" height="580px" enable-background="new 0 0 580 580" version="1.1" viewBox="0 0 580 580" xmlns="http://www.w3.org/2000/svg">
	<g transform="matrix(48.15 0 0 48.15 -1210.2 -51.871)" display="none" fill="none" stroke="#757575" stroke-width=".1">
		<rect x="1" y="1" width="10" height="10" display="inline"/>
		<rect x="2" y="2" width="8" height="8" display="inline"/>
	</g>
	<g transform="matrix(48.15 0 0 48.15 -1870.5 102.97)" display="none" fill="none" stroke="#757575" stroke-width=".1">
		<rect x="1" y="1" width="10" height="10" display="inline"/>
		<rect x="2" y="2" width="8" height="8" display="inline"/>
	</g>
	<g transform="matrix(48.15 0 0 48.15 -1210.2 -182.07)" display="none" fill="none" stroke="#757575" stroke-width=".1">
		<rect x="1" y="1" width="10" height="10" display="inline"/>
		<rect x="2" y="2" width="8" height="8" display="inline"/>
	</g>
	<path d="m550.78 375.49c-1.029-1.195-2.527-1.883-4.104-1.883h-1.286l-79.826-192.08c30.638-6.637 47.148-23.932 60.31-41.981 0.829-1.137 0.648-2.72-0.415-3.641-1.063-0.922-2.655-0.875-3.663 0.107-12.837 12.52-45.262 27.641-66.271 27.642-1.034 0-2.04-0.038-2.991-0.112-0.065-5e-3 -0.131-8e-3 -0.196-8e-3 -23.157-0.137-48.395-8.994-74.98-26.307-21.3-14.276-47.133-22.986-78.804-26.552l-2.05-54.249c-0.111-2.942-2.57-5.251-5.498-5.209-0.033 0-0.064 0.01-0.098 0.011-0.032-1e-3 -0.063-0.011-0.097-0.011h-0.089c-2.904 0-5.299 2.297-5.409 5.21l-2.05 54.249c-31.67 3.565-57.502 12.274-78.773 26.532-26.616 17.333-51.854 26.19-75.011 26.327-0.065 0-0.131 3e-3 -0.196 8e-3 -0.95 0.074-1.956 0.112-2.991 0.112-21.009 0-53.434-15.122-66.272-27.642-1.008-0.981-2.6-1.031-3.663-0.107-1.063 0.921-1.244 2.504-0.415 3.641 13.16 18.049 29.672 35.345 60.311 41.981l-79.829 192.08h-1.286c-1.577 0-3.076 0.688-4.104 1.883-1.029 1.195-1.485 2.779-1.25 4.339 5.433 36.052 44.737 63.238 91.425 63.238s85.993-27.187 91.426-63.238c0.235-1.56-0.221-3.144-1.25-4.339-1.028-1.195-2.527-1.883-4.104-1.883h-1.23l-77.821-190.13c0.33 0.037 0.649 0.082 0.981 0.117 0.094 0.01 0.188 0.015 0.283 0.015h0.044c36.268-0.586 55.436-10.783 73.972-20.644 1.187-0.631 2.373-1.262 3.563-1.891 7.81-2.897 15.355-6.561 22.653-10.104 16.537-8.03 32.156-15.614 51.424-15.614 0.39 0 0.786 0.026 1.178 0.033l-13.388 354.27h-106.95c-2.99 0-5.415 2.425-5.415 5.415v24.217c0 2.99 2.424 5.415 5.415 5.415h257.82c2.99 0 5.415-2.425 5.415-5.415v-24.217c0-2.99-2.425-5.415-5.415-5.415h-106.94l-13.387-354.27c0.391-6e-3 0.787-0.033 1.177-0.033 19.269 0 34.888 7.584 51.424 15.614 7.299 3.544 14.844 7.208 22.654 10.105 1.19 0.629 2.377 1.26 3.563 1.891 18.536 9.861 37.704 20.058 73.972 20.644h0.044c0.095 0 0.188-5e-3 0.283-0.015 0.332-0.035 0.652-0.08 0.981-0.117l-77.821 190.13h-1.23c-1.577 0-3.075 0.688-4.104 1.883-1.028 1.195-1.484 2.779-1.25 4.339 5.433 36.052 44.737 63.238 91.426 63.238s85.993-27.187 91.426-63.238c0.233-1.56-0.223-3.144-1.252-4.339zm-502.63-1.883 73.658-177.23 72.541 177.23h-146.2zm411.86-177.23 73.656 177.23h-146.2l72.542-177.23z" fill="param(fill)" fill-opacity="param(fill-opacity)" stroke="param(outline)" stroke-opacity="param(outline-opacity)" stroke-width="param(outline-width)"/>
</svg>
