<?xml version="1.0" encoding="UTF-8"?>
<svg width="400pt" height="400pt" xmlns="http://www.w3.org/2000/svg" xmlns:xlink="http://www.w3.org/1999/xlink">
	<defs>
		<linearGradient id="a">
			<stop stop-color="#de9500" offset="0"/>
			<stop stop-color="#ffff0f" offset="1"/>
		</linearGradient>
		<linearGradient id="c" x1=".47015" x2=".052239" y1=".52344" y2=".32031" spreadMethod="reflect" xlink:href="#a"/>
		<radialGradient id="b" cx=".49524" cy=".55392" r=".83926" xlink:href="#a"/>
	</defs>
	<g fill-rule="evenodd">
		<path d="m160.68 249.04c-53.224-49.33-210.42-112.23-118.82-187.45 243.84-177.59 535.95 203.49 430.74 339.14-195.57 225.68-214.13-83.861-311.91-151.69zm48.857-21.548c34.657-27.131 89.119 11.099 60.65 46.863-40.846 33.298-89.119-11.099-60.65-46.863z" fill="url(#b)" stroke="#000" stroke-linejoin="round" stroke-width="10"/>
		<path transform="matrix(-1 0 0 1 503.58 0)" d="m445 77.5c-35-27.5-90 11.25-61.25 47.5 41.25 33.75 90-11.25 61.25-47.5z" fill="#f00" stroke="#000" stroke-linejoin="round" stroke-width="10"/>
		<path transform="matrix(-1 0 0 1 643.58 -23.75)" d="m445 77.5c-35-27.5-90 11.25-61.25 47.5 41.25 33.75 90-11.25 61.25-47.5z" fill="#ff0" stroke="#000" stroke-linejoin="round" stroke-width="10"/>
		<path transform="matrix(-1 0 0 1 766.08 52.5)" d="m445 77.5c-35-27.5-90 11.25-61.25 47.5 41.25 33.75 90-11.25 61.25-47.5z" fill="#00d400" stroke="#000" stroke-linejoin="round" stroke-width="10"/>
		<path transform="matrix(-1 0 0 1 837.33 171.25)" d="m445 77.5c-35-27.5-90 11.25-61.25 47.5 41.25 33.75 90-11.25 61.25-47.5z" fill="#00f" stroke="#000" stroke-linejoin="round" stroke-width="10"/>
		<path transform="matrix(-1 0 0 1 792.33 321.25)" d="m445 77.5c-35-27.5-90 11.25-61.25 47.5 41.25 33.75 90-11.25 61.25-47.5z" fill="#ed00f2" stroke="#000" stroke-linejoin="round" stroke-width="10"/>
		<path transform="translate(-.94732 -3.8147e-5)" d="m82.182 478.21s23.918-1.896 50.443-45.472c13.263-9.473 20.842-9.474 31.262-21.788 13.263-23.683 1.895-34.104-8.526-37.893-13.263 0-7.579-4.737-33.157 1.894-25.577 19.895-23.683 21.789-24.63 46.42 2.8418 31.261-6.8669 50.207-15.393 56.839z" stroke="#000" stroke-width="1pt"/>
		<path d="m359.02 132.16c-18.587-18.587-63.197 18.587-28.81 43.68 29.74-2.7881-19.517-38.104 28.81-43.68z" fill="#fff" fill-opacity=".25"/>
		<path d="m159.98 292.26c16.104-73.891 231.15-283.25 231.15-283.25v3e-5s0.948-0.9473 0.948-0.94734c-0.948 0-81.47 235.88-175.26 312.62-14.21-16.104-17.052-10.42-27.473-19.894-7.578-2.842-30.314-7.578-29.367-8.525z" fill="#8a6f1a" stroke="#000" stroke-linejoin="round" stroke-width="10"/>
		<g fill="url(#c)" stroke="#000" stroke-linejoin="round" stroke-width="10">
			<path d="m126.94 360.74c30.315-58.734 31.262-62.524 31.262-62.524s8.526-2.841 22.736-3.789c13.262 4.737 17.051 5.684 26.524 12.315 5.684 11.368 12.316 17.999 12.316 17.999l-47.366 61.576s-17.999-25.577-45.472-25.577z"/>
			<path d="m121.26 371.16c0.948 0 19.894 1.895 26.525 3.79 6.632 1.894 20.841 14.209 21.789 16.104 0.947 1.894 1.894 0 4.736 1.894 2.842 1.895 6.632-4.736 6.632-7.578-3.789-8.526-7.7375-17.328-21.948-20.17-14.21-4.737-36.393-10.539-39.234-4.8554-1.895 3.79-5.1312 7.0262-4.1842 7.9732 0.947 0.948 6.632 4.737 5.684 2.842z"/>
			<path d="m161.04 299.17s8.8019-0.27688 19.223 2.5651c8.526 1.894 17.723 4.4591 26.249 12.985 4.737 6.632 8.525 10.028 15.156 10.028 6.632 0 6.632-0.948 6.632-6.632-1.895-5.684-6.631-11.368-14.21-18.946-7.579-5.684-19.894-10.421-31.261-14.21-11.369-0.947-23.684-3.79-30.315 3.789-0.948 4.737 0.948 8.526 0.948 8.526l7.578 1.895z"/>
		</g>
		<path d="m172.41 278.33c-4.737-20.841 169.64-218.87 200.9-245.39 31.261-26.525-182.92 208.52-182.92 245.46-1.895 1.895-18.928 0.87547-17.981-0.07253z" fill="#fff" fill-opacity=".34815"/>
		<path d="m87.589 469.96s16.617-8.8019 13.775-30.591c-2.842-21.788-2.8424-27.472 2.841-41.682 8.526-12.315 17.053-19.893 19.894-17.999 7.579 6.631-4.736 8.526-10.42 23.683s-1.895 24.63-5.685 41.682c-4.736 17.999-20.405 25.855-20.405 24.907z" fill="#fff"/>
		<path d="m95.725 78.067c-18.587-18.587-63.197 18.587-28.81 43.68 29.74-2.7881-19.517-38.104 28.81-43.68z" fill="#fff" fill-opacity=".25"/>
		<path d="m430.58 250.19c-18.587-18.587-63.197 18.587-28.81 43.68 29.74-2.7881-19.517-38.104 28.81-43.68z" fill="#fff" fill-opacity=".25"/>
		<path d="m383.18 400.74c-18.587-18.587-63.197 18.587-28.81 43.68 29.74-2.7881-19.517-38.104 28.81-43.68z" fill="#fff" fill-opacity=".25"/>
		<path d="m237.27 54.091c-18.587-18.587-63.197 18.587-28.81 43.68 29.74-2.7881-19.517-38.104 28.81-43.68z" fill="#fff" fill-opacity=".25"/>
	</g>
</svg>
