<?xml version="1.0" encoding="UTF-8"?>
<svg width="550pt" height="550pt" xmlns="http://www.w3.org/2000/svg" xmlns:xlink="http://www.w3.org/1999/xlink">
	<defs>
		<radialGradient id="c" cx=".19643" cy=".25781" r=".6609" fx=".21429" fy=".24219">
			<stop stop-color="#ff5f5f" offset="0"/>
			<stop stop-color="#890000" offset="1"/>
		</radialGradient>
		<linearGradient id="d" x1=".64754" x2=".65574" y1=".64844" y2=".30469">
			<stop stop-color="#a00000" offset="0"/>
			<stop stop-color="#510000" offset="1"/>
		</linearGradient>
		<radialGradient id="b" cx=".27529" cy=".29355" r=".64224" fx=".27044" fy=".27903">
			<stop stop-color="#ffe59e" offset="0"/>
			<stop stop-color="#db8e00" offset="1"/>
		</radialGradient>
		<radialGradient id="a" cx=".19643" cy=".25781" r=".6609" fx=".21429" fy=".24219">
			<stop stop-color="#67ff69" offset="0"/>
			<stop stop-color="#1a7600" offset="1"/>
		</radialGradient>
		<linearGradient id="f" x1=".46667" x2=".23333" y1="1.0312" y2=".17969">
			<stop stop-color="#67e869" offset="0"/>
			<stop stop-color="#1a4c00" offset="1"/>
		</linearGradient>
		<linearGradient id="e" x1=".49194" x2=".69355" y1=".875" y2=".34375">
			<stop stop-color="#f5db94" offset="0"/>
			<stop stop-color="#be7900" offset="1"/>
		</linearGradient>
	</defs>
	<g transform="translate(-34.885 -27.617)">
		<path d="m270.41 320.47c-15.696 33.098 13.939 62.905 35.917 84.011 21.657 20.685 22.634 51.051 17.183 78.446-4.072 34.22-1.1881 73.442 26.197 97.991 22.511 20.784 46.011 54.201 26.958 84.776-2.2028 3.7212-4.9353 7.1374-8.1437 10.042" fill="none" stroke="#000" stroke-linecap="round" stroke-linejoin="round" stroke-width="2.6644"/>
		<path transform="matrix(.71051 0 0 .71051 163.39 -43.445)" d="m118.74 505.51c5.9205 4.545 8.145 12.207 8.8991 19.327 0.59266 3.1543 0.11828 6.3348 0.17203 9.5027 0.0171 2.332 1.3276 5.519 4.188 4.9111 2.015-0.53308 3.7329-1.8787 5.4266-3.0704 4.3103-3.4304 7.4337-8.7296 12.998-10.306 4.6146-0.89638 9.6988-0.94788 13.539-4.0325 2.6172-1.8653 1.9545-6.0387-1.1541-6.9616-3.2059-1.4283-6.8713-1.9138-9.6016-4.3005-7.0175-4.781-11.389-12.431-14.362-20.202-1.6152-2.8469-5.8912-2.0618-7.5077 0.38923-3.7842 4.4167-4.9891 10.985-10.407 13.954-0.68805 0.36425-1.4264 0.6359-2.1901 0.78993z" fill="url(#f)" fill-rule="evenodd"/>
		<path transform="matrix(.59855 -.4165 .41466 .5959 -137.11 141.61)" d="m470.74 321.41a155.64 181.74 0 1 0-311.29 0 155.64 181.74 0 1 0 311.29 0z" fill="url(#a)" fill-rule="evenodd"/>
		<path transform="matrix(.71051 0 0 .71051 163.39 -43.445)" d="m302.34 532c-3.8067 44.121-27.524 91.415-4.5375 133.95 30.052 45.868 97.204 51.313 120.33 103.76 19.356 33.496 16.232 72.751 12.643 109.64-2.5154 28.907 2.1729 60.275 23.718 81.492 12.741 17.144 24.174 37.402 22.268 59.544" fill="none" stroke="#000" stroke-linecap="round" stroke-linejoin="round" stroke-width="3.75"/>
		<path transform="matrix(.71051 0 0 .71051 163.39 -43.445)" d="m292.89 498.93c2.2637 7.1123-0.28649 14.672-3.7346 20.947-1.3152 2.9276-3.5212 5.2673-5.2865 7.8983-1.318 1.924-2.0626 5.2885 0.63256 6.4232 1.9585 0.71339 4.1371 0.59001 6.208 0.57932 5.4974-0.35376 11.088-2.9195 16.556-1.0357 4.2998 1.9 8.5024 4.7617 13.417 4.4233 3.2137-0.03616 5.0534-3.8404 3.029-6.3735-1.8157-3.0036-4.547-5.4956-5.4249-9.0142-3.0294-7.9326-2.248-16.708-0.24935-24.786 0.30031-3.2594-3.658-5.0573-6.3848-3.9687-5.6288 1.4639-10.37 6.1673-16.513 5.5089-0.77282-0.09401-1.5341-0.29278-2.2489-0.60255z" fill="url(#d)" fill-rule="evenodd"/>
		<path transform="matrix(.7292 0 0 .72598 155.02 -51.693)" d="m470.74 321.41a155.64 181.74 0 1 0-311.29 0 155.64 181.74 0 1 0 311.29 0z" fill="url(#c)" fill-rule="evenodd"/>
	</g>
	<path transform="matrix(.71051 0 0 .71051 128.5 -71.062)" d="m501.47 536.36c-24.942 36.689-40.016 84.74-19.107 126.8 13.115 41.231 18.131 90.849-10.524 127.02-25.034 36.082-27.413 81.503-15.474 122.65 10.691 42.805-9.6771 83.286-32.716 117.95l-3.5782 5.6051" fill="none" stroke="#000" stroke-linecap="round" stroke-linejoin="round" stroke-width="3.75"/>
	<path transform="matrix(.71051 0 0 .71051 128.5 -71.062)" d="m500.45 509.42c0.03096 7.4638-4.665 13.913-9.8335 18.869-2.1312 2.3997-4.9364 3.9718-7.4083 5.9538-1.8334 1.4412-3.551 4.4286-1.3191 6.3181 1.6551 1.2669 3.7708 1.8013 5.7499 2.411 5.3512 1.308 11.453 0.53329 16.106 3.9674 3.5339 3.1 6.6873 7.0884 11.478 8.2365 3.0772 0.92745 5.9713-2.1517 4.7979-5.1746-0.83337-3.4093-2.6936-6.6047-2.478-10.225-0.51603-8.4756 2.8563-16.615 7.1811-23.724 1.2622-3.02-1.9765-5.9204-4.9041-5.6979-5.809-0.28809-11.74 2.7806-17.405 0.31363-0.70925-0.32103-1.3761-0.73855-1.9654-1.2481z" fill="url(#e)" fill-rule="evenodd"/>
	<path transform="matrix(.69576 .21827 -.21731 .69269 386.12 -120.02)" d="m470.74 321.41a155.64 181.74 0 1 0-311.29 0 155.64 181.74 0 1 0 311.29 0z" fill="url(#b)" fill-rule="evenodd"/>
	<g transform="matrix(1.8674 0 0 1.8674 70.604 342)">
		<g transform="matrix(-.21986 -.04958 -.051139 .22677 241.3 -20.179)">
			<path d="m374.44 235.15c-28.094 122.13-59.796 271.37-87.89 393.5-104.65-72.46-177.63-13.565-167.08 69.367 6.7707 53.218 100.11 110.2 189.18 23.315 16.556-80.979 46.367-214.48 68.944-319.25l164.99 117.08c-16.838 75.898-33.383 151.3-51.511 230.11-104.65-72.46-177.7-13.581-167.15 69.351 6.7707 53.218 100.13 110.12 189.2 23.242l101.09-438.1c-0.67183-0.17126-1.344-0.33661-2.0158-0.50786l0.20729-0.25911c-14.481-11.416-223.54-164.17-237.96-167.85zm19.702 90.422 165.12 119.31c-2.5111 11.129-4.9459 22.141-7.4106 33.165l-165.21-117.81c2.1323-10.115 5.7065-25.872 7.5038-34.663z"/>
		</g>
		<g transform="matrix(.20131 -.028876 .030543 .21293 -55.202 -50.905)">
			<path d="m362.6 675.57c-116.1-66.427-187.24 1.8029-168.72 87.681 11.889 55.109 114.73 106.33 200.15 7.3331 12.434-106.95 28.731-214.42 41.164-321.37 131.29 115.75 89.364 185.79 62.219 266.43 55.806-22.998 143.22-124.53 47.719-267.74-45.191-63.441-40.951-18.646-84.725-145.19-15.432-2.5488-30.864-5.0976-46.296-7.6464-18.399 130.41-33.114 250.1-51.513 380.51z"/>
		</g>
	</g>
</svg>
