<?xml version="1.0" encoding="UTF-8"?>
<svg width="580px" height="580px" enable-background="new 0 0 580 580" version="1.1" viewBox="0 0 580 580" xmlns="http://www.w3.org/2000/svg">
	<g transform="matrix(48.15 0 0 48.15 -536.27 -33.307)" display="none" fill="none" stroke="#757575" stroke-width=".1">
		<rect x="1" y="1" width="10" height="10" display="inline"/>
		<rect x="2" y="2" width="8" height="8" display="inline"/>
	</g>
	<path d="m523.94 334.23h-459.83c-8.931 0-16.125 7.195-16.125 16.125v55.918c0 8.932 7.195 16.126 16.125 16.126h14.79c-0.56 1.585-0.879 3.282-0.879 5.059 0 8.405 6.814 15.22 15.219 15.22h55.804c8.405 0 15.219-6.814 15.219-15.22 0-1.776-0.32-3.474-0.879-5.059h261.52c-0.559 1.585-0.879 3.282-0.879 5.059 0 8.405 6.813 15.22 15.219 15.22h55.805c8.405 0 15.219-6.814 15.219-15.22 0-1.776-0.32-3.474-0.879-5.059h14.549c8.931 0 16.126-7.194 16.126-16.126v-55.918c-1e-3 -8.93-7.196-16.125-16.127-16.125zm-460.74 52.237v-13.772c0-6.385 5.15-11.535 11.535-11.535h67.007c6.385 0 11.497 5.15 11.497 11.535v13.772c0 6.385-5.112 11.534-11.497 11.534h-67.008c-6.384 0-11.534-5.149-11.534-11.534zm211.46 0c0 6.385-5.112 11.534-11.497 11.534h-67.007c-6.385 0-11.535-5.149-11.535-11.534v-13.772c0-6.385 5.15-11.535 11.535-11.535h67.007c6.385 0 11.497 5.15 11.497 11.535v13.772zm121.42 0c0 6.385-5.111 11.534-11.496 11.534h-67.007c-6.385 0-11.535-5.149-11.535-11.534v-13.772c0-6.385 5.15-11.535 11.535-11.535h67.007c6.385 0 11.496 5.15 11.496 11.535v13.772zm121.42 0c0 6.385-5.111 11.534-11.496 11.534h-67.008c-6.385 0-11.534-5.149-11.534-11.534v-13.772c0-6.385 5.149-11.535 11.534-11.535h67.008c6.385 0 11.496 5.15 11.496 11.535v13.772z" fill="param(fill)" fill-opacity="param(fill-opacity)" stroke="param(outline)" stroke-opacity="param(outline-opacity)" stroke-width="param(outline-width)"/>
	<path d="m523.94 150.62h-459.83c-8.931 0-16.125 7.195-16.125 16.125v87.881c0 8.931 7.195 16.125 16.125 16.125h14.797c-0.564 1.591-0.887 3.296-0.887 5.081 0 8.406 6.814 15.22 15.219 15.22h55.804c8.405 0 15.219-6.814 15.219-15.22 0-1.784-0.323-3.489-0.887-5.081h261.54c-0.564 1.591-0.888 3.296-0.888 5.081 0 8.406 6.813 15.22 15.219 15.22h55.805c8.405 0 15.219-6.814 15.219-15.22 0-1.784-0.323-3.489-0.888-5.081h14.558c8.931 0 16.126-7.195 16.126-16.125v-87.881c0-8.93-7.195-16.125-16.126-16.125zm-454.97 48.723v-13.773c0-6.385 5.112-11.535 11.497-11.535h67.007c6.385 0 11.535 5.15 11.535 11.535v13.773c0 6.385-5.15 11.535-11.535 11.535h-67.007c-6.385 0-11.497-5.15-11.497-11.535zm397.87 61.126c-25.216 0-45.684-20.429-45.684-45.645s20.468-45.645 45.684-45.645 45.645 20.429 45.645 45.645c-1e-3 25.216-20.429 45.645-45.645 45.645z" fill="param(fill)" fill-opacity="param(fill-opacity)" stroke="param(outline)" stroke-opacity="param(outline-opacity)" stroke-width="param(outline-width)"/>
</svg>
