<?xml version="1.0" encoding="UTF-8"?>
<svg width="580px" height="580px" enable-background="new 0 0 580 580" version="1.1" viewBox="0 0 580 580" xmlns="http://www.w3.org/2000/svg">
	<polygon points="417.96 109.62 341.51 59.524 324.2 59.524 254.91 59.524 249.23 59.524 172.78 109.62 233.67 222.65 295.37 215.24 357.06 222.65" fill="param(fill)" fill-opacity="param(fill-opacity)" opacity=".33" stroke="param(outline)" stroke-opacity="param(outline-opacity)" stroke-width="param(outline-width)"/>
	<path d="m362.15 218.06 58.812-109.2-76.728-50.284-0.159-1.335h-96.307l-0.049 0.534-77.949 51.084 58.746 109.08-1.078 7.786 4.95-0.597 62.978-7.592 62.978 7.592 4.628 0.558-0.822-7.626zm-25.622-86.791 8.165 75.905-48.359-5.83h-1e-3l-0.968-0.117-0.968 0.117h-1e-3l-48.037 5.791 10.507-75.866h79.662zm-141.17-9.044 45.378 7.471-8.46 61.08-36.918-68.551zm157.24 7.042 42.773-7.042-36.284 67.371-6.489-60.329zm35.901-22.32-37.747 6.214-4.01-33.58 41.757 27.366zm-58.798-33.513 4.973 41.642h-75.988l3.849-41.642h67.166zm-87.132 40.154-40.339-6.641 43.587-28.565-3.248 35.206z" fill="param(fill)" fill-opacity="param(fill-opacity)" opacity=".66" stroke="param(outline)" stroke-opacity="param(outline-opacity)" stroke-width="param(outline-width)"/>
	<g transform="matrix(48.15 0 0 48.15 -536.27 -33.307)" display="none" fill="none" stroke="#757575" stroke-width=".1">
		<rect x="1" y="1" width="10" height="10" display="inline"/>
		<rect x="2" y="2" width="8" height="8" display="inline"/>
	</g>
	<path d="m295.11 509.8c-90.733 0-164.55-73.816-164.55-164.55s73.817-164.55 164.55-164.55 164.55 73.817 164.55 164.55c0 90.733-73.817 164.55-164.55 164.55zm0-268.72c-57.436 0-104.16 46.728-104.16 104.16 0 57.436 46.728 104.16 104.16 104.16 57.437 0 104.16-46.728 104.16-104.16 0-57.437-46.727-104.16-104.16-104.16z" fill="param(fill)" fill-opacity="param(fill-opacity)" stroke="param(outline)" stroke-opacity="param(outline-opacity)" stroke-width="param(outline-width)"/>
</svg>
