<?xml version="1.0" encoding="UTF-8"?>
<svg width="580px" height="580px" enable-background="new 0 0 580 580" version="1.1" viewBox="0 0 580 580" xmlns="http://www.w3.org/2000/svg">
	<g transform="matrix(48.15 0 0 48.15 -536.27 -33.307)" display="none" fill="none" stroke="#757575" stroke-width=".1">
		<rect x="1" y="1" width="10" height="10" display="inline"/>
		<rect x="2" y="2" width="8" height="8" display="inline"/>
	</g>
	<path d="m195.03 348.63c-0.995 1.127-1.659 2.587-1.659 4.18 0 2.123 1.194 3.98 2.853 5.041l90.028 42.99c3.914 1.925 5.573 4.445 5.573 8.095 0 4.843-4.047 8.823-8.824 8.823l-99.647-0.133c-1.858 0-3.384 1.526-3.384 3.384 0 0.929 0.266 1.725 0.929 2.322 101.04 81.27 233.13 105.35 359.45 103.5v-273.07c-235.58-2.123-345.32 94.871-345.32 94.871zm134.08 24.547c-11.743 0-21.363-9.554-21.363-21.297 0-11.742 9.62-21.296 21.363-21.296 11.742 0 21.229 9.554 21.229 21.296 1e-3 11.743-9.42 21.297-21.229 21.297z" fill="param(fill)" fill-opacity="param(fill-opacity)" stroke="param(outline)" stroke-opacity="param(outline-opacity)" stroke-width="param(outline-width)"/>
	<path d="m541.14 48.822c-20.301-4.246-33.57-5.771-48.895-5.573-78.085 0.863-154.45 34.167-240.1 104.42-3.184-0.862-10.217-2.786-10.217-2.786-13.6 0-24.679 11.013-24.679 24.613 0 0 0.995 4.578 1.525 7.43-2.653 2.455-69.195 64.95-69.195 64.95l-58.847 55.463c-5.506 5.042-12.671 7.563-20.168 7.23-7.431-0.331-14.264-3.582-19.24-9.088-4.843-5.374-7.165-12.075-7.165-18.775 0-7.563 3.052-15.126 9.023-20.633 0 0 4.445-2.455 7.828-4.379 0.73 5.042 2.787 20.434 2.787 20.434l48.032-61.168-52.942 18.046c-13.932 4.776-19.704 11.809-19.903 12.141-19.372 17.581-20.898 48.364-2.985 68.201 18.045 19.902 48.829 21.296 68.731 3.316l0.531-0.662 55.794-53.142s68.931-65.148 71.12-67.338c3.317 0.862 9.819 2.521 9.819 2.521 13.534 0 24.547-11.08 24.547-24.68 0 0-0.663-3.583-1.127-6.17 82.862-68.134 155.31-100.51 227.89-101.31 14.928-0.133 26.869 1.791 46.44 5.971l4.047 0.863v-19.372l-2.654-0.531z" fill="param(fill)" fill-opacity="param(fill-opacity)" stroke="param(outline)" stroke-opacity="param(outline-opacity)" stroke-width="param(outline-width)"/>
</svg>
