<?xml version="1.0" encoding="UTF-8"?>
<svg width="580px" height="580px" enable-background="new 0 0 580 580" version="1.1" viewBox="0 0 580 580" xmlns="http://www.w3.org/2000/svg">
	<g transform="matrix(48.15 0 0 48.15 -536.27 -33.307)" display="none" fill="none" stroke="#757575" stroke-width=".1">
		<rect x="1" y="1" width="10" height="10" display="inline"/>
		<rect x="2" y="2" width="8" height="8" display="inline"/>
	</g>
	<path d="m488 226.38h-146.34c-0.792 0-1.539 0.368-2.022 0.996-0.063 0.083-0.123 0.168-0.192 0.272-1.401 1.8-2.874 3.45-4.501 5.044-0.039 0.038-0.077 0.078-0.114 0.118-1.61 1.796-3.357 3.478-5.192 4.999-1.815 1.506-3.746 2.889-5.737 4.109-1.904 1.167-3.937 2.221-6.216 3.223-0.844 0.371-1.738 0.679-2.686 1.005-0.338 0.117-0.677 0.233-1.014 0.353-1.017 0.361-1.696 1.324-1.696 2.403v254.5h-42.021v-256.13c0-1.032-0.622-1.961-1.574-2.356-2.14-0.886-4.171-1.849-6.037-2.861-2.206-1.197-4.176-2.412-6.024-3.715-1.913-1.35-3.778-2.847-5.543-4.45-1.792-1.628-3.383-3.27-4.864-5.019-0.192-0.227-0.363-0.475-0.537-0.721-0.192-0.271-0.384-0.541-0.587-0.798-0.484-0.614-1.222-0.973-2.004-0.973h-155.59c-10.778 0-19.547 8.769-19.547 19.548v242.94c0 10.779 8.769 19.548 19.547 19.548h153.18v0.089h101.9v-0.089h145.41c10.778 0 19.548-8.769 19.548-19.548v-242.94c1e-3 -10.779-8.769-19.548-19.547-19.548zm14.448 167.45h-185.06v-48.707h185.06v48.707zm-429.38-48.707h192.11v48.707h-192.11v-48.707z" fill="param(fill)" fill-opacity="param(fill-opacity)" stroke="param(outline)" stroke-opacity="param(outline-opacity)" stroke-width="param(outline-width)"/>
	<path d="m292.34 224.42c21.587 0 39.148-17.562 39.148-39.149 0-21.586-17.562-39.148-39.148-39.148s-39.148 17.562-39.148 39.148c-1e-3 21.587 17.561 39.149 39.148 39.149z" fill="param(fill)" fill-opacity="param(fill-opacity)" stroke="param(outline)" stroke-opacity="param(outline-opacity)" stroke-width="param(outline-width)"/>
	<path d="m376.68 162.22c3.785 0 7.887-0.166 12.19-0.494l0.192-0.014 0.162-0.105c34.725-22.464 87.28-45.131 126.42-45.131 3.621 0 7.081 0.207 10.282 0.614l0.418 0.053 0.266-0.326c3.163-3.881 4.473-8.168 3.892-12.74-0.784-6.178-5.03-11.808-8.833-14.601-2.636-2.356-7.407-3.581-14.183-3.64l-0.548-2e-3c-18.909 0-50.53 8.254-82.522 21.541-34.876 14.484-63.143 32.008-77.55 48.078l-0.645 0.719 0.851 0.456c6.927 3.711 16.89 5.592 29.612 5.592z" fill="param(fill)" fill-opacity="param(fill-opacity)" stroke="param(outline)" stroke-opacity="param(outline-opacity)" stroke-width="param(outline-width)"/>
	<path d="m528.24 93.269c-3.05-3.746-4.131-4.314 0 0z" fill="param(fill)" fill-opacity="param(fill-opacity)" stroke="param(outline)" stroke-opacity="param(outline-opacity)" stroke-width="param(outline-width)"/>
	<path d="m528.24 93.269c1.295 1.59 2.938 3.747 4.691 6.35-0.991-1.998-2.437-4.008-4.383-6.028-0.109-0.114-0.204-0.214-0.308-0.322z" fill="param(fill)" fill-opacity="param(fill-opacity)" stroke="param(outline)" stroke-opacity="param(outline-opacity)" stroke-width="param(outline-width)"/>
	<path d="m532.93 99.619c20.549 41.427-156.09 77.024-184.66 59.881 9.614 15.123 9.124 30.246 1.815 45.368-3.17 2.264 145.71-3.459 186.46-50.194 16.228-18.613 5.037-42.207-3.613-55.055z" fill="param(fill)" fill-opacity="param(fill-opacity)" stroke="param(outline)" stroke-opacity="param(outline-opacity)" stroke-width="param(outline-width)"/>
	<path d="m80.013 84.198c-6.775 0.059-11.546 1.283-14.125 3.594-3.859 2.839-8.105 8.468-8.89 14.646-0.581 4.573 0.729 8.859 3.892 12.741l0.266 0.326 0.417-0.053c3.202-0.408 6.661-0.614 10.282-0.614 39.137 0 91.692 22.667 126.42 45.131l0.162 0.105 0.192 0.014c4.304 0.328 8.406 0.494 12.19 0.494 12.722 0 22.685-1.882 29.611-5.592l0.851-0.456-0.645-0.719c-14.408-16.07-42.673-33.594-77.55-48.078-31.991-13.288-63.612-21.542-82.522-21.542l-0.547 3e-3z" fill="param(fill)" fill-opacity="param(fill-opacity)" stroke="param(outline)" stroke-opacity="param(outline-opacity)" stroke-width="param(outline-width)"/>
	<path d="m58.948 91.957c-1.946 2.019-3.391 4.03-4.382 6.027 1.752-2.602 3.395-4.758 4.689-6.348-0.103 0.108-0.197 0.207-0.307 0.321z" fill="param(fill)" fill-opacity="param(fill-opacity)" stroke="param(outline)" stroke-opacity="param(outline-opacity)" stroke-width="param(outline-width)"/>
	<path d="m237.41 203.23c-7.309-15.123-7.799-30.246 1.814-45.368-28.572 17.143-205.21-18.455-184.66-59.882-8.65 12.848-19.843 36.443-3.614 55.056 40.749 46.735 189.63 52.459 186.46 50.194z" fill="param(fill)" fill-opacity="param(fill-opacity)" stroke="param(outline)" stroke-opacity="param(outline-opacity)" stroke-width="param(outline-width)"/>
	<path d="m59.255 91.636c4.133-4.315 3.051-3.747 0 0z" fill="param(fill)" fill-opacity="param(fill-opacity)" stroke="param(outline)" stroke-opacity="param(outline-opacity)" stroke-width="param(outline-width)"/>
</svg>
