<?xml version="1.0" encoding="UTF-8"?>
<svg width="580px" height="580px" enable-background="new 0 0 580 580" version="1.1" viewBox="0 0 580 580" xmlns="http://www.w3.org/2000/svg">
	<g transform="matrix(48.15 0 0 48.15 -536.27 -33.307)" display="none" fill="none" stroke="#757575" stroke-width=".1">
		<rect x="1" y="1" width="10" height="10" display="inline"/>
		<rect x="2" y="2" width="8" height="8" display="inline"/>
	</g>
	<path d="m200.53 120.56c-20.777 0.256-41.598 5.173-60.832 14.935-0.216 0.1-0.418 0.216-0.633 0.316-0.284 0.146-0.58 0.254-0.863 0.403v0.029c-81.294 38.604-104.57 140.66-66.789 215.88 52.473 109.81 186.72 147.36 294.32 112.69 98.66-27.239 180.91-124.36 160.48-234.06-0.127-0.682-0.211-1.36-0.346-2.043h-0.058c-11.499-76.23-89.718-121.98-161.75-104.05-25.893 6.447-48.955 17.161-69.551 30.848-26.283-23.313-60.015-35.352-93.981-34.934zm199.39 19.366c2.564-0.18 4.979 1.457 5.697 4.029l5.697 20.373c0.038 0.12 0.086 0.252 0.115 0.374 0.721 2.968-1.118 5.956-4.086 6.676s-5.955-1.118-6.676-4.086l-5.697-20.373c-0.82-2.94 0.887-5.971 3.827-6.791 0.368-0.103 0.757-0.176 1.123-0.202zm-160.11 12.863c3.051-0.127 5.628 2.244 5.755 5.295s-2.243 5.628-5.294 5.755l-21.093 1.611c-3.043 0.23-5.697-2.05-5.928-5.094-0.23-3.043 2.05-5.697 5.093-5.928l21.093-1.611c0.124-0.013 0.249-0.023 0.374-0.028zm-102.47 10.33c0.367 7e-3 0.721 0.06 1.094 0.144l20.661 4.633c0.123 0.023 0.225 0.055 0.345 0.086 2.955 0.773 4.745 3.808 3.971 6.762-0.773 2.955-3.808 4.716-6.762 3.942l-20.632-4.662c-2.977-0.673-4.845-3.613-4.172-6.59 0.587-2.603 2.925-4.367 5.495-4.315zm195.33 6.101c1.775 0.011 3.517 0.887 4.575 2.475 1.694 2.541 1.016 5.96-1.525 7.654l-17.208 12.345c-2.479 1.779-5.904 1.214-7.683-1.266-1.778-2.48-1.214-5.933 1.266-7.712l17.18-12.345c0.099-0.076 0.184-0.132 0.288-0.201 0.952-0.636 2.042-0.957 3.107-0.95zm152.11 12.747c3.052-0.127 5.628 2.244 5.756 5.295 0.127 3.051-2.244 5.628-5.295 5.755l-21.093 1.612c-3.044 0.23-5.697-2.05-5.928-5.094-0.23-3.043 2.05-5.697 5.093-5.928l21.093-1.611c0.124-0.014 0.249-0.023 0.374-0.029zm-282.84 6.13c14.606 0.06 29.289 4.319 41.293 12.374-33.371 37.135-61.888 89.807-80.458 131.33-5.154 10.996-3.984 23.904 3.079 33.783s18.92 15.191 30.992 13.869c12.072-1.32 22.491-9.057 27.25-20.229 17.288-38.66 43.117-84.518 70.213-114.3 24.936 26.536 52.676 69.717 64.285 103.56 3.762 11.525 13.437 20.118 25.323 22.503s24.141-1.81 32.056-10.992c7.916-9.184 10.27-21.918 6.158-33.322-14.367-41.887-45.688-91.709-75.019-123.88 10.499-5.564 21.51-10.043 33.179-12.949 4.314-1.074 8.711-1.646 13.121-1.755 30.876-0.766 62.136 21.095 66.214 51.566l0.144 1.036 0.201 1.036c13.624 68.934-45.366 139.93-113.46 158.73l-0.69 0.201-0.69 0.202c-77.601 25.006-178.29-4.885-213.37-78.299l-0.144-0.289-0.144-0.316c-21.503-42.808-6.642-105.65 36.344-125.46l0.748-0.345 0.748-0.403c9.957-5.207 21.274-7.702 32.633-7.655zm-98.873 37.063c1.703 0.073 3.354 0.946 4.374 2.475 1.694 2.541 1.016 5.989-1.525 7.683l-17.179 12.345c-2.48 1.778-5.934 1.185-7.712-1.295-1.779-2.48-1.214-5.934 1.266-7.712l17.179-12.316c0.099-0.076 0.212-0.161 0.316-0.23 0.794-0.529 1.673-0.84 2.561-0.921 0.245-0.022 0.477-0.04 0.72-0.029zm254.06 17.294c2.357 0.023 4.523 1.565 5.237 3.942 0.879 2.925-0.787 6.027-3.712 6.906l-20.028 6.762c-2.892 0.977-6.044-0.562-7.021-3.453s0.59-6.016 3.481-6.993l20.028-6.791c0.116-0.044 0.226-0.079 0.345-0.115 0.55-0.164 1.126-0.263 1.67-0.258zm-101.84 3.252c3.051-0.127 5.628 2.244 5.755 5.295s-2.243 5.628-5.295 5.755l-21.092 1.612c-3.043 0.23-5.698-2.05-5.928-5.094-0.23-3.043 2.05-5.697 5.093-5.928l21.092-1.611c0.125-0.014 0.25-0.024 0.375-0.029zm232.91 2.187c1.063-0.024 2.145 0.273 3.107 0.892l17.813 11.424c0.107 0.064 0.214 0.13 0.316 0.202 2.512 1.737 3.147 5.171 1.41 7.683-1.737 2.511-5.2 3.147-7.712 1.41l-17.783-11.424c-2.568-1.65-3.319-5.087-1.67-7.654 1.033-1.606 2.746-2.493 4.519-2.533zm-116 56.861c0.367 7e-3 0.721 0.06 1.093 0.144l20.633 4.661c0.123 0.023 0.253 0.026 0.374 0.059 2.954 0.773 4.716 3.808 3.942 6.762-0.773 2.955-3.779 4.716-6.733 3.942l-20.633-4.633c-2.977-0.673-4.845-3.642-4.172-6.618 0.588-2.606 2.926-4.37 5.496-4.317zm-175.82 4.863c1.064-0.025 2.145 0.244 3.108 0.863l17.812 11.424c0.107 0.063 0.214 0.13 0.316 0.201 2.512 1.737 3.119 5.2 1.381 7.712-1.737 2.511-5.171 3.147-7.683 1.409l-17.812-11.452c-2.567-1.65-3.291-5.058-1.64-7.626 1.031-1.603 2.744-2.491 4.518-2.531zm-92.831 1.266c3.051-0.127 5.628 2.243 5.755 5.295 0.127 3.051-2.244 5.628-5.295 5.755l-21.093 1.611c-3.043 0.23-5.697-2.05-5.928-5.093-0.23-3.044 2.05-5.697 5.093-5.928l21.093-1.611c0.126-0.014 0.25-0.023 0.375-0.029zm382.98 13.697c1.774 0.011 3.516 0.887 4.575 2.475 1.694 2.541 0.987 5.96-1.554 7.654l-17.18 12.345c-2.48 1.778-5.934 1.214-7.712-1.267-1.778-2.479-1.214-5.933 1.267-7.711l17.208-12.346c0.099-0.076 0.184-0.131 0.287-0.201 0.954-0.634 2.044-0.955 3.109-0.949zm-360.82 37.121c2.355 0.068 4.484 1.668 5.151 4.057l5.698 20.373c0.038 0.119 0.085 0.225 0.115 0.346 0.72 2.968-1.119 5.955-4.086 6.676s-5.956-1.09-6.676-4.057l-5.698-20.373c-0.82-2.94 0.916-6 3.856-6.82 0.552-0.155 1.097-0.218 1.64-0.202zm305.72 12.604c3.049-0.135 5.62 2.246 5.755 5.295l0.949 21.121c0.01 0.125 0.027 0.249 0.029 0.374 0.031 3.054-2.442 5.552-5.496 5.583s-5.552-2.414-5.583-5.468l-0.949-21.122c-0.135-3.049 2.245-5.648 5.295-5.783zm-250.64 42.07c0.367 8e-3 0.75 0.06 1.122 0.144l20.632 4.661c0.123 0.023 0.253 0.056 0.374 0.087 2.954 0.773 4.716 3.779 3.942 6.733s-3.808 4.716-6.763 3.942l-20.632-4.633c-2.977-0.673-4.845-3.642-4.173-6.618 0.59-2.605 2.927-4.369 5.498-4.316zm192.97 9.439c3.051-0.127 5.628 2.243 5.755 5.295 0.127 3.051-2.243 5.628-5.295 5.755l-21.092 1.611c-3.044 0.23-5.698-2.05-5.929-5.094-0.23-3.043 2.05-5.697 5.094-5.928l21.093-1.611c0.124-0.014 0.249-0.024 0.374-0.028zm-111.08 5.351c1.064-0.023 2.145 0.245 3.108 0.863l17.812 11.425c0.108 0.063 0.214 0.13 0.317 0.201 2.511 1.737 3.119 5.2 1.381 7.712-1.737 2.512-5.171 3.147-7.683 1.41l-17.812-11.453c-2.567-1.65-3.291-5.058-1.64-7.625 1.031-1.605 2.744-2.492 4.517-2.533z" fill="param(fill)" fill-opacity="param(fill-opacity)" stroke="param(outline)" stroke-opacity="param(outline-opacity)" stroke-width="param(outline-width)"/>
	<path d="m200.7 120.73c-20.777 0.256-41.598 5.173-60.832 14.935-0.216 0.1-0.417 0.216-0.633 0.316-0.284 0.146-0.58 0.255-0.863 0.403v0.029c-81.294 38.604-104.57 140.66-66.789 215.88 52.474 109.81 186.72 147.36 294.32 112.69 98.66-27.238 180.91-124.36 160.48-234.06-0.127-0.682-0.21-1.36-0.346-2.043h-0.058c-11.499-76.23-89.718-121.98-161.75-104.05-25.893 6.447-48.955 17.161-69.551 30.848-26.284-23.314-60.016-35.353-93.981-34.935zm192.88 67.536c30.876-0.765 62.136 21.095 66.214 51.566l0.144 1.036 0.201 1.036c13.624 68.934-45.365 139.93-113.46 158.73l-0.69 0.202-0.69 0.201c-77.601 25.007-178.29-4.884-213.37-78.299l-0.144-0.288-0.144-0.316c-21.503-42.809-6.642-105.65 36.344-125.46l0.748-0.346 0.749-0.403c22.755-11.898 52.583-9.6 73.925 4.719-33.371 37.135-57.887 81.807-76.458 123.33-5.154 10.996-3.972 23.918 3.091 33.796s18.909 15.176 30.98 13.854c12.072-1.32 22.491-9.055 27.25-20.227 17.289-38.661 39.117-76.518 66.214-106.3 24.935 26.536 44.675 57.717 56.285 91.564 3.761 11.525 13.44 20.13 25.327 22.515s24.136-1.82 32.052-11.004c7.915-9.182 10.269-21.918 6.157-33.323-14.367-41.886-37.688-79.708-67.019-111.88 10.499-5.565 21.51-10.043 33.179-12.949 4.314-1.073 8.711-1.644 13.121-1.754z" enable-background="new    " fill="param(fill)" fill-opacity="param(fill-opacity)" opacity=".33"/>
</svg>
