<?xml version="1.0" encoding="UTF-8"?>
<svg width="580px" height="580px" enable-background="new 0 0 580 580" version="1.1" viewBox="0 0 580 580" xmlns="http://www.w3.org/2000/svg">
	<g transform="matrix(48.15 0 0 48.15 -536.27 -33.307)" display="none" fill="none" stroke="#757575" stroke-width=".1">
		<rect x="1" y="1" width="10" height="10" display="inline"/>
		<rect x="2" y="2" width="8" height="8" display="inline"/>
	</g>
	<path d="m244.9 142.71c-5.551-3.063-12.103-6.376-18.884-9.163v-103.6c0-4.225-3.425-7.649-7.649-7.649h-37.893c-4.225 0-7.649 3.425-7.649 7.649v103.23c-17.422 6.57-35.835 17.419-44.24 27.374-6.854 8.117-8.216 15.891-7.848 21.666v333.12c0 7.179 3.334 13.95 9.025 18.327 18.134 13.947 55.303 15.453 70.441 15.453 16.654 0 47.799-1.753 69.28-13.491 7.418-4.055 12.033-11.835 12.033-20.289v-334.19c0-2.989-0.579-5.949-1.706-8.717-1.644-4.034-5.49-13.482-34.91-29.719z" fill="param(fill)" fill-opacity="param(fill-opacity)" stroke="param(outline)" stroke-opacity="param(outline-opacity)" stroke-width="param(outline-width)"/>
	<path d="m413.4 503.7v-86.789c15.773-3.765 30.224-16.017 41.466-35.442 13.289-22.961 20.607-53.407 20.607-85.73 0-1.683-0.021-3.354-0.061-5.021-0.044-1.819-1.29-3.387-3.052-3.84-21.372-5.492-44.704-8.277-69.35-8.277-24.875 0-50.238 3.022-69.587 8.292-1.735 0.473-2.953 2.029-2.995 3.827-0.039 1.666-0.061 3.337-0.061 5.019 0 32.323 7.318 62.77 20.607 85.73 10.516 18.17 23.838 30.061 38.424 34.604v87.57c-30.498 1.96-53.641 11.522-53.618 23.026v0.034c0.026 12.914 29.228 23.376 65.224 23.366 35.996-9e-3 65.156-10.485 65.13-23.4v-0.033c-0.022-11.381-22.709-20.853-52.734-22.936z" fill="param(fill)" fill-opacity="param(fill-opacity)" stroke="param(outline)" stroke-opacity="param(outline-opacity)" stroke-width="param(outline-width)"/>
</svg>
