<?xml version="1.0" encoding="UTF-8"?>
<svg width="580px" height="580px" enable-background="new 0 0 580 580" version="1.1" viewBox="0 0 580 580" xmlns="http://www.w3.org/2000/svg">
	<g transform="matrix(48.15 0 0 48.15 -536.27 -33.307)" display="none" fill="none" stroke="#757575" stroke-width=".1">
		<rect x="1" y="1" width="10" height="10" display="inline"/>
		<rect x="2" y="2" width="8" height="8" display="inline"/>
	</g>
	<path d="m539.98 275.13c-2.792-4.653-6.718-24.146-8.678-35.375 0.176-0.526 0.061-0.969-0.056-1.233l-0.243-0.488-0.378-2.185-1.6 1.736-1.414 0.354 0.154 0.905c-7.217 5.899-70.186 47.167-81.607 47.167-0.089 0-0.164-4e-3 -0.226-9e-3 -0.729-30.889-15.47-66.48-15.619-66.837l-0.108-0.214c-0.327-0.545-8.167-13.421-22.021-20.019-11.178-5.323-201.76-13.38-209.93-13.723-0.472 0-11.662 0.085-21.046 7.459-9.326 7.328-14.54 22.732-14.777 23.449l-9.567 33.166-9.752 9.752c-0.127-4.704-0.762-13.161-3.288-24.104-3.93-17.03-31.521-46.65-32.693-47.902l-0.927-0.99-1.157 0.708c-0.117 0.071-11.92 7.303-34.298 22.648-22.807 15.64-29.43 35.539-29.701 36.378l-0.459 1.425 5.72 2.542c-2.737 6.985-13.796 35.879-14.379 48.123-0.674 14.157 13.472 27.83 14.074 28.405l0.918 0.876 1.089-0.653c0.417-0.25 41.879-25.092 51.231-27.584 8.77-2.34 23.609-14.398 27.493-17.642l18.216 11.165c0.16 6.791 1.305 38.522 8.864 46.081 7.816 7.815 17.385 8.215 18.515 8.234l207.85 21.947 0.108 8e-3s1.034 0.042 2.733 0.042c5.688 0 16.264-0.442 23.173-3.404 8.509-3.646 25.525-38.546 30.195-48.405 0.145 0.414 0.307 0.911 0.485 1.507 1.849 6.164 12.332 10.37 16.06 11.689-0.01 6.585 0.78 36.836 15.659 50.794 4.315 4.048 12.275 8.372 21.673 8.372 2.851-1e-3 5.646-0.408 8.312-1.212 7.555-2.28 13.957-8.605 21.245-17.4 2.934-3.541 5.508-6.532 7.778-9.171 12.367-14.372 16.101-18.709 21.63-45.801 1.909-9.357-5.134-33.73-9.246-40.581z" fill="param(fill)" fill-opacity="param(fill-opacity)" stroke="param(outline)" stroke-opacity="param(outline-opacity)" stroke-width="param(outline-width)"/>
</svg>
