<?xml version="1.0" encoding="UTF-8"?>
<svg width="580px" height="580px" enable-background="new 0 0 580 580" version="1.1" viewBox="0 0 580 580" xmlns="http://www.w3.org/2000/svg">
	<path d="m312.38 199.07c-1.793 1.206-3.659 2.287-5.607 3.199-15.809 7.053-36.242 3.473-51.85 10.093-15.902 6.547-26.49 22.882-41.229 29.256-13.962 5.842-30.525 1.798-44.33 7.388l36.183 75.201 135.63-65.273-28.794-59.864z" enable-background="new    " fill="param(fill)" fill-opacity="param(fill-opacity)" opacity=".3317" stroke="param(outline)" stroke-opacity="param(outline-opacity)" stroke-width="param(outline-width)"/>
	<rect transform="matrix(-.9011 .4336 -.4336 -.9011 751.04 567.54)" x="235.54" y="297.27" width="150.51" height="144.3" enable-background="new    " fill="param(fill)" fill-opacity="param(fill-opacity)" opacity=".3317" stroke="param(outline)" stroke-opacity="param(outline-opacity)" stroke-width="param(outline-width)"/>
	<path d="m416.08 414.65-135.63 65.241 30.212 62.8c12.749-3.27 27.175-0.647 39.58-5.838 14.739-6.374 25.359-22.71 41.262-29.256 15.608-6.621 36.041-3.041 51.85-10.094 3.444-1.611 6.583-3.771 9.599-6.2l-36.876-76.653z" enable-background="new    " fill="param(fill)" fill-opacity="param(fill-opacity)" opacity=".3317" stroke="param(outline)" stroke-opacity="param(outline-opacity)" stroke-width="param(outline-width)"/>
	<path d="m340.25 174.66c-2.757 1.979-5.358 4.195-7.883 6.531l9.137 18.999-14.579 7.025-6.86-14.282c-2.475 2.232-4.996 4.326-7.685 6.135l28.794 59.864-135.63 65.273-36.183-75.201c-0.626 0.253-1.233 0.53-1.847 0.825-6.093 2.977-11.612 7.969-16.987 13.292l11.775-5.673 11.346 23.517-14.579 7.025-10.852-22.561c-1.934 1.945-3.863 3.921-5.805 5.805l140.28 291.54c2.917-2.932 5.85-5.898 8.839-8.642l-3.562 1.715-11.346-23.517 14.578-7.025 10.192 21.208c0.881-0.526 1.799-1.009 2.704-1.451 2.123-1.02 4.315-1.765 6.563-2.342l-30.212-62.833 135.63-65.241 36.875 76.653c9.419-7.59 17.432-17.975 28.068-24.111l-140.77-292.53zm15.7 55.61 11.313 23.517-14.546 6.992-11.313-23.517 14.546-6.992zm-8.608 41.525 62.569 130.02-135.63 65.24-62.569-130.02 135.63-65.24zm34.401 12.039 11.313 23.518-14.579 6.992-11.313-23.518 14.579-6.992zm-193.64 27.178 11.313 23.518-14.545 7.025-11.346-23.517 14.578-7.026zm219.4 26.386 11.313 23.518-14.546 7.025-11.313-23.55 14.546-6.993zm-193.64 27.212 11.346 23.517-14.579 6.992-11.313-23.517 14.546-6.992zm219.44 26.354 11.313 23.517-14.578 7.025-11.313-23.517 14.578-7.025zm-193.64 27.211 11.313 23.518-14.545 6.992-11.346-23.518 14.578-6.992zm219.4 26.353 11.313 23.55-14.546 6.993-11.313-23.518 14.546-7.025zm-193.61 27.211 11.313 23.518-14.579 7.025-11.313-23.55 14.579-6.993z" fill="param(fill)" fill-opacity="param(fill-opacity)" stroke="param(outline)" stroke-opacity="param(outline-opacity)" stroke-width="param(outline-width)"/>
	<path d="m450.36 93.164c-1.843-1.57-3.583-3.053-4.503-4.455-0.244-0.372-0.537-0.709-0.871-1.004-1.593-1.406-3.203-3.196-4.908-5.091-4.932-5.482-11.069-12.305-20.239-12.305-1.219 0-2.465 0.124-3.712 0.369-3.89 0.301-8.053 0.441-13.065 0.441-4.085 0-8.283-0.095-12.343-0.188-4.124-0.094-8.388-0.191-12.605-0.191-3.021 0-5.737 0.049-8.303 0.15h-0.892c-9.264 0-18.693 0.055-27.813 0.108-9.124 0.053-18.558 0.108-27.827 0.108-22.206 0-39.277-0.33-55.011-1.066-3.2-3.006-5.974-6.594-8.891-10.368-5.231-6.768-10.639-13.763-19.117-18.067-14.107-9.333-31.116-14.259-47.729-13.763l-0.35-1e-3c-23.413 0-46.058 11.442-62.129 31.393-16.1 19.985-22.481 44.598-17.518 67.549 3.186 18.481 13.118 35.831 27.976 48.862 15.117 13.26 33.727 20.562 52.401 20.562 2.306 0 4.635-0.113 6.926-0.335 27.083-1.704 52.583-17.381 66.825-41.016 2.239-1.494 5.04-2.167 8.936-2.167 2.277 0 4.662 0.215 7.186 0.443 2.633 0.238 5.356 0.483 8.084 0.483 4.4 0 10.903-0.562 16.554-5.42 0.117-0.1 0.229-0.206 0.336-0.316 2.121-2.195 4.142-4.558 6.095-6.843 5.101-5.966 9.939-11.625 16.263-14.285 3.201 1.394 5.75 4.225 8.645 7.439 2.706 3.005 5.504 6.112 9.213 8.371 1.633 0.995 3.688 0.971 5.298-0.061 3.272-2.096 5.831-4.986 8.306-7.781 3.698-4.177 6.284-6.914 9.704-7.461 2.713 1.896 5.125 4.418 7.658 7.069 2.882 3.015 5.862 6.132 9.557 8.595 1.653 1.101 3.799 1.12 5.468 0.051 3.383-2.165 6.053-5.17 8.636-8.077 3.956-4.453 6.764-7.339 10.335-7.894 2.275 1.563 4.325 3.763 6.477 6.072 3.396 3.643 6.906 7.409 11.991 9.594 1.796 0.772 3.873 0.426 5.322-0.881 9.676-8.727 21.717-19.587 31.237-31.825 0.688-0.885 1.06-1.975 1.054-3.095-0.035-6.358-4.815-10.43-8.657-13.703zm-299.07-3.484c10.214-0.261 17.13 7.901 19.912 14.868 2.803 7.022 3.277 16.92-3.801 23.643-0.089 0.084-0.175 0.172-0.257 0.263-3.995 4.396-10.144 6.917-16.87 6.917-8.847 0-19.06-4.521-21.936-14.619-0.028-0.099-0.06-0.198-0.094-0.295-2.383-6.751-1.018-14.967 3.563-21.441 4.251-6.009 10.429-9.456 16.948-9.456 0.632 0 1.275 0.033 1.913 0.096 0.206 0.02 0.412 0.029 0.622 0.024z" fill="param(fill)" fill-opacity="param(fill-opacity)" stroke="param(outline)" stroke-opacity="param(outline-opacity)" stroke-width="param(outline-width)"/>
</svg>
