<?xml version="1.0" encoding="UTF-8"?>
<svg width="580px" height="580px" enable-background="new 0 0 580 580" version="1.1" viewBox="0 0 580 580" xmlns="http://www.w3.org/2000/svg">
	<path d="m39.059 156.86h507.77" enable-background="new    " fill="param(fill)" fill-opacity="param(fill-opacity)" opacity=".3" stroke="param(outline)" stroke-opacity="param(outline-opacity)" stroke-width="param(outline-width)"/>
	<path d="m39.059 216.86h507.77" enable-background="new    " fill="param(fill)" fill-opacity="param(fill-opacity)" opacity=".3" stroke="param(outline)" stroke-opacity="param(outline-opacity)" stroke-width="param(outline-width)"/>
	<path d="m39.059 276.86h507.77" enable-background="new    " fill="param(fill)" fill-opacity="param(fill-opacity)" opacity=".3" stroke="param(outline)" stroke-opacity="param(outline-opacity)" stroke-width="param(outline-width)"/>
	<path d="m39.059 336.86h507.77" enable-background="new    " fill="param(fill)" fill-opacity="param(fill-opacity)" opacity=".3" stroke="param(outline)" stroke-opacity="param(outline-opacity)" stroke-width="param(outline-width)"/>
	<path d="m39.059 396.86h507.77" enable-background="new    " fill="param(fill)" fill-opacity="param(fill-opacity)" opacity=".3" stroke="param(outline)" stroke-opacity="param(outline-opacity)" stroke-width="param(outline-width)"/>
	<path d="m39.059 456.86h507.77" enable-background="new    " fill="param(fill)" fill-opacity="param(fill-opacity)" opacity=".3" stroke="param(outline)" stroke-opacity="param(outline-opacity)" stroke-width="param(outline-width)"/>
	<path d="m39.059 516.86h507.77" enable-background="new    " fill="param(fill)" fill-opacity="param(fill-opacity)" opacity=".3" stroke="param(outline)" stroke-opacity="param(outline-opacity)" stroke-width="param(outline-width)"/>
	<g transform="matrix(48.15 0 0 48.15 -536.27 -33.307)" display="none" fill="none" stroke="#757575" stroke-width=".1">
		<rect x="1" y="1" width="10" height="10" display="inline"/>
		<rect x="2" y="2" width="8" height="8" display="inline"/>
	</g>
	<path d="m455.2 342.15v-276.21c0.056-5.984-2.341-11.834-6.579-16.06-4.163-4.152-9.928-6.534-15.814-6.534l-0.341 2e-3c-5.88 0.092-11.603 2.563-15.703 6.779-0.054 0.055-0.099 0.117-0.151 0.172l-203.46 80.649c-5.016 0.631-9.766 2.961-13.303 6.601-4.082 4.198-6.388 9.959-6.334 15.814v218.94c-11.144-6.429-23.821-9.844-37.105-9.844-41.156 0-74.639 33.465-74.639 74.6 0 41.156 33.483 74.64 74.639 74.64 19.015 0 37.475-6.18 51.978-17.401 16.246-12.568 26.372-30.368 29.289-51.479 0.265-1.501 0.347-3.155 0.438-5.004 0.14-2.854 0.203-5.854 0.172-8.25v-265.55l172.14-68.235v189.1c-11.144-6.428-23.82-9.843-37.104-9.843-41.156 0-74.64 33.466-74.64 74.601 0 41.156 33.483 74.639 74.64 74.639 19.015 0 37.474-6.18 51.978-17.401 16.246-12.568 26.372-30.368 29.288-51.479 0.266-1.501 0.347-3.155 0.438-5.004 0.137-2.855 0.199-5.856 0.169-8.252z" fill="param(fill)" fill-opacity="param(fill-opacity)" stroke="param(outline)" stroke-miterlimit="10" stroke-opacity="param(outline-opacity)" stroke-width="param(outline-width)"/>
</svg>
