<?xml version="1.0" encoding="UTF-8"?>
<svg width="580px" height="580px" enable-background="new 0 0 580 580" version="1.1" viewBox="0 0 580 580" xmlns="http://www.w3.org/2000/svg">
	<g transform="matrix(48.15 0 0 48.15 -1210.2 -51.871)" display="none" fill="none" stroke="#757575" stroke-width=".1">
		<rect x="1" y="1" width="10" height="10" display="inline"/>
		<rect x="2" y="2" width="8" height="8" display="inline"/>
	</g>
	<g transform="matrix(48.15 0 0 48.15 -1870.5 102.97)" display="none" fill="none" stroke="#757575" stroke-width=".1">
		<rect x="1" y="1" width="10" height="10" display="inline"/>
		<rect x="2" y="2" width="8" height="8" display="inline"/>
	</g>
	<path d="m527.66 171.13c-33.138-16.665-64.521-25.825-97.748-35.522-29.75-8.683-60.514-17.662-92.881-32.563l-0.308-0.142-0.33 0.074c-5.711 1.288-11.042 2.306-16.154 3.076l-51.866-0.489c-3.109-0.522-6.255-1.132-9.449-1.832l-0.365-0.08-0.328 0.179c-28.748 15.687-57.458 22.856-87.855 30.447-32.521 8.121-66.148 16.518-102.74 36.107l-0.663 0.355 0.157 0.736c5.294 24.738 14.224 57.024 36.476 87.361l0.467 0.637 0.728-0.307c1.883-0.794 3.762-1.597 5.64-2.399 18.603-7.949 37.809-16.177 61.802-15.698l0.756 225.28 0.861 0.118c41.708 5.736 86.99 11.045 135.49 11.044 38.793-1e-3 75.728-3.368 112.91-10.294l0.812-0.151 1.512-226.71c23.041 0.72 44.594 6.614 65.848 18.005l0.719 0.385 0.522-0.626c18.775-22.534 31.063-51.452 36.523-85.95l0.114-0.721-0.653-0.329z" fill="param(fill)" fill-opacity="param(fill-opacity)" stroke="param(outline)" stroke-opacity="param(outline-opacity)" stroke-width="param(outline-width)"/>
</svg>
