<?xml version="1.0" encoding="UTF-8"?>
<svg width="580px" height="580px" enable-background="new 0 0 580 580" version="1.1" viewBox="0 0 580 580" xmlns="http://www.w3.org/2000/svg">
	<g transform="matrix(48.15 0 0 48.15 -536.27 -33.307)" display="none" fill="none" stroke="#757575" stroke-width=".1">
		<rect x="1" y="1" width="10" height="10" display="inline"/>
		<rect x="2" y="2" width="8" height="8" display="inline"/>
	</g>
	<path d="m443.13 67.153c-0.076-10.965-9.608-19.554-21.7-19.554l-0.179 1e-3c-10.191 0-18.79 6.488-20.891 15.586-14.36-0.915-21.136-3.602-28.298-6.441-8.834-3.503-17.969-7.125-41.421-8.282l-77.79-0.72c-48.224 0.538-87.208 28.48-115.87 83.049-0.269 0.512-0.158 1.14 0.27 1.527 0.428 0.389 1.063 0.438 1.546 0.123l2.563-1.678c0.188-0.123 0.34-0.293 0.44-0.494 9.638-19.316 45.785-36.26 77.355-36.26 20.795 0 35.284 7.488 40.815 21.088 1.526 7.885 9.78 15.345 18.753 17.111l0.232 136.16c-8.047 0.854-16.265 9.484-16.429 17.656l-4.264 224.29c-0.129 6.844 1.612 12.169 5.175 15.83 5.975 6.138 15.568 6.214 21.3 6.259h0.012l41.061-0.062c6.554-0.03 15.794-2.78 21.66-8.855 4.101-4.246 6.084-9.527 5.896-15.693l-6.164-221.82c-0.216-8.035-8.456-16.616-16.454-17.507l-0.179-136.6c12.057-0.934 20.348-6.056 26.027-16.053 4.234-7.45 10.999-10.773 21.935-10.773 4.717 0 9.758 0.598 14.633 1.176 2.118 0.251 4.297 0.51 6.422 0.715l-0.037 5.658c0.075 10.813 9.862 19.609 21.854 19.609 12.018-0.019 21.782-8.835 21.767-19.652l-0.039-45.389z" fill="param(fill)" fill-opacity="param(fill-opacity)" stroke="param(outline)" stroke-opacity="param(outline-opacity)" stroke-width="param(outline-width)"/>
</svg>
