<?xml version="1.0" encoding="UTF-8"?>
<svg width="580px" height="580px" enable-background="new 0 0 580 580" version="1.1" viewBox="0 0 580 580" xmlns="http://www.w3.org/2000/svg">
	<path d="m352.57 255.32-27.781-71.658c-5.229-13.642-16.553-25.296-37.9-25.296h-145.74c-21.347 0-32.671 11.654-37.899 25.296l-27.752 71.658c-11.001 1.411-30.503 14.324-30.503 38.788v91.125h27.012v29.143c0 35.854 50.74 35.431 50.74 0v-29.143h182.58v29.143c0 35.431 50.739 35.854 50.74 0v-29.143h27.012v-91.125c1e-3 -24.464-19.501-37.377-30.502-38.788zm-254.38 75c-12.944 0-23.432-10.829-23.432-24.172 0-13.342 10.488-24.142 23.432-24.142 12.945 0 23.433 10.8 23.433 24.142 0 13.343-10.487 24.172-23.433 24.172zm115.86-75.74h-109.82l20.917-56.391c2.614-7.921 6.531-13.643 15.681-13.728h146.39c9.149 0.085 13.067 5.807 15.68 13.728l20.918 56.391h-109.76zm115.83 75.74c-12.944 0-23.462-10.829-23.462-24.172 0-13.342 10.518-24.142 23.462-24.142s23.432 10.8 23.432 24.142c0 13.343-10.488 24.172-23.432 24.172z" fill="param(fill)" fill-opacity="param(fill-opacity)" stroke="param(outline)" stroke-opacity="param(outline-opacity)" stroke-width="param(outline-width)"/>
	<path d="m533.17 403.17-39.789-28.137 12.248-247.77c0.184-8.421-2.358-15.569-7.35-20.67-4.819-4.925-11.872-7.75-19.35-7.75-7.699 0-14.963 2.916-19.927 7.999-4.684 4.797-7.067 11.223-6.893 18.566l2.448 249.69-27.444 16.649-14.957 8.95c-0.332 0.198-0.532 0.544-0.561 0.917-0.03 0.148-0.041 0.3-0.011 0.454l1.873 9.492 10.616 55.243 0.988 6.339c0.049 0.314 0.228 0.574 0.469 0.752 0.208 0.32 0.561 0.532 0.961 0.539l15.532 0.229 9.405 0.162h0.021c0.639 0 1.162-0.512 1.174-1.153l0.881-49.912 21.066-11.234 20.646 11.988-0.902 49.931c-5e-3 0.312 0.113 0.612 0.329 0.836 0.216 0.225 0.513 0.354 0.823 0.359l22.89 0.413h0.021c0.283 0 0.546-0.104 0.752-0.275 0.48-0.077 0.88-0.432 0.972-0.926l7.669-41.065 5.871-29.437c0.092-0.454-0.093-0.919-0.471-1.187zm-61.801-271.49c-1.984-2.057-3.048-4.765-2.996-7.625 0.104-5.794 4.902-10.509 10.695-10.509l0.195 2e-3c5.783 0.122 10.427 4.849 10.5 10.596-1.63 5.032-7.904 10.078-13.243 10.078l-0.146-1e-3c-0.523-9e-3 -1.046-0.069-1.567-0.15-1.277-0.555-2.444-1.36-3.438-2.391z" fill="param(fill)" fill-opacity="param(fill-opacity)" stroke="param(outline)" stroke-opacity="param(outline-opacity)" stroke-width="param(outline-width)"/>
</svg>
