<?xml version="1.0" encoding="UTF-8"?>
<svg width="580px" height="580px" enable-background="new 0 0 580 580" version="1.1" viewBox="0 0 580 580" xmlns="http://www.w3.org/2000/svg">
	<g transform="matrix(48.15 0 0 48.15 -536.27 -33.307)" display="none" fill="none" stroke="#757575" stroke-width=".1">
		<rect x="1" y="1" width="10" height="10" display="inline"/>
		<rect x="2" y="2" width="8" height="8" display="inline"/>
	</g>
	<path d="m204.73 139.38h172.62c0.927 0 1.78-0.503 2.23-1.313 0.449-0.811 0.423-1.801-0.067-2.587l-23.313-37.328c-0.466-0.746-1.283-1.199-2.163-1.199h-123.74c-0.841 0-1.628 0.415-2.104 1.108l-25.574 37.328c-0.535 0.781-0.594 1.793-0.152 2.63s1.31 1.361 2.256 1.361zm110.63-32.869v24.146h-46.77v-24.146h46.77z" fill="param(fill)" fill-opacity="param(fill-opacity)" stroke="param(outline)" stroke-opacity="param(outline-opacity)" stroke-width="param(outline-width)"/>
	<path d="m428.7 139.13h68.214c0.842 0 1.629-0.415 2.104-1.109s0.577-1.579 0.272-2.363l-8.263-21.295c-0.38-0.981-1.324-1.627-2.377-1.627h-50.9c-1.022 0-1.947 0.611-2.347 1.553l-9.05 21.295c-0.335 0.788-0.252 1.691 0.22 2.404 0.473 0.713 1.272 1.142 2.127 1.142z" fill="param(fill)" fill-opacity="param(fill-opacity)" stroke="param(outline)" stroke-opacity="param(outline-opacity)" stroke-width="param(outline-width)"/>
	<path d="m101.11 138.98h45.886c0.777 0 1.512-0.354 1.996-0.963 0.483-0.608 0.664-1.404 0.488-2.162l-3.197-13.82c-0.268-1.156-1.297-1.975-2.484-1.975h-38.263c-1.109 0-2.09 0.716-2.429 1.772l-4.426 13.82c-0.248 0.776-0.111 1.623 0.369 2.281 0.481 0.659 1.246 1.047 2.06 1.047z" fill="param(fill)" fill-opacity="param(fill-opacity)" stroke="param(outline)" stroke-opacity="param(outline-opacity)" stroke-width="param(outline-width)"/>
	<path d="m504.81 148.84h-426.56c-24.651 0-44.5 19.849-44.5 44.5v237.81c0 24.651 19.849 44.5 44.5 44.5h426.56c24.651 0 44.5-19.849 44.5-44.5v-237.81c0-24.652-19.849-44.5-44.5-44.5zm-166.31 279.25c-65.251 0-118.16-52.904-118.16-118.16 0-65.251 52.905-118.12 118.16-118.12s118.16 52.874 118.16 118.12c0 65.252-52.905 118.16-118.16 118.16z" fill="param(fill)" fill-opacity="param(fill-opacity)" stroke="param(outline)" stroke-opacity="param(outline-opacity)" stroke-width="param(outline-width)"/>
	<path d="m338.48 239.34c-38.981 0.012-70.572 31.623-70.559 70.604v0.045c0.012 38.98 31.623 70.572 70.604 70.559 38.981-0.012 70.572-31.623 70.56-70.604v-0.045c-0.013-38.981-31.624-70.572-70.605-70.559z" fill="param(fill)" fill-opacity="param(fill-opacity)" stroke="param(outline)" stroke-opacity="param(outline-opacity)" stroke-width="param(outline-width)"/>
</svg>
