<?xml version="1.0" encoding="UTF-8"?>
<svg width="580px" height="580px" enable-background="new 0 0 580 580" version="1.1" viewBox="0 0 580 580" xmlns="http://www.w3.org/2000/svg">
	<path d="m520.12 221.84c-2.672-3.376-6.74-5.345-11.046-5.345h-191.04l47.858-128.61c0.925-2.485 0.824-5.237-0.279-7.648s-3.12-4.286-5.605-5.211l-15.67-5.831c-5.173-1.925-10.933 0.708-12.859 5.885l-52.623 141.42h-198.65c-4.302 0-8.367 1.965-11.04 5.336-2.672 3.371-3.657 7.778-2.675 11.966l49.668 211.82c1.494 6.371 7.176 10.871 13.714 10.871h0.063l329.53-1.458c6.509-0.029 12.151-4.515 13.647-10.85l49.674-210.37c0.991-4.189 9e-3 -8.602-2.663-11.978zm-191.27 22.829v54.946h-72.302v-54.946h72.302zm0 73.728v60.303h-72.302v-60.303h72.302zm-91.085-18.782h-68.301v-54.946h68.301v54.946zm0 18.782v60.303h-68.301v-60.303h68.301zm0 79.084v30.363l-68.301 0.302v-30.665h68.301zm18.782 0h72.302v29.96l-72.302 0.32v-30.28zm91.084 0h70.303v29.565l-70.303 0.312v-29.877zm0-18.782v-60.303h70.303v60.303h-70.303zm0-79.084v-54.946h70.303v54.946h-70.303zm-196.95-54.946v54.946h-32.253c-2.715 0-5.154 1.159-6.869 3.002l-13.587-57.948h52.709zm-35.566 73.115c1.032 0.39 2.145 0.612 3.313 0.612h32.253v60.303h-14.437c-2.417 0-4.614 0.921-6.278 2.421l-14.851-63.336zm18.604 79.343c0.805 0.225 1.649 0.354 2.525 0.354h14.437v30.748l-9.659 0.043-7.303-31.145zm303 29.836v-29.482h18.475l-6.949 29.432-11.526 0.05zm22.907-48.251c-0.082-3e-3 -0.161-0.013-0.243-0.013h-22.664v-60.303h37.148l-14.241 60.316zm18.66-79.029c-0.356-0.041-0.718-0.067-1.086-0.067h-40.481v-54.946h54.558l-12.991 55.013z" fill="param(fill)" fill-opacity="param(fill-opacity)" stroke="param(outline)" stroke-opacity="param(outline-opacity)" stroke-width="param(outline-width)"/>
</svg>
