<?xml version="1.0" encoding="UTF-8"?>
<svg width="580px" height="580px" enable-background="new 0 0 580 580" version="1.1" viewBox="0 0 580 580" xmlns="http://www.w3.org/2000/svg">
	<g transform="matrix(48.15 0 0 48.15 -536.27 -33.307)" display="none" fill="none" stroke="#757575" stroke-width=".1">
		<rect x="1" y="1" width="10" height="10" display="inline"/>
		<rect x="2" y="2" width="8" height="8" display="inline"/>
	</g>
	<path d="m172.66 187.09 123.52 36.979 0.829-2.35 4e-3 2.469v-2.481l1.053-2.982-116.6-47.618 6.118-11.1 123.11 36.853 0.829-2.35 4e-3 2.469v-2.481l1.053-2.982-116.2-47.455 6.016-10.916 119.69 35.831 0.829-2.35 4e-3 2.469v-2.481l1.053-2.982-112.96-46.128 5.074-9.207 118.88 36.802c2.185 0.675 4.508-0.493 5.271-2.645 0.762-2.153-0.312-4.524-2.433-5.372-10.83-4.328-106.38-42.287-126.03-42.287-0.747 0-1.408 0.046-2.018 0.142-3.055 0.477-8.168 1.274-46.394 65.63-26.628 44.831-61.478 107.73-88.783 160.25-48.793 93.841-46.337 100.69-45.289 103.62 1.274 3.558 4.26 11.889 69.87 33.708 31.562 10.496 62.831 19.155 63.143 19.241 0.378 0.104 0.759 0.154 1.135 0.154 0.063 0 0.126-1e-3 0.188-4e-3 2.271-0.089 4.085-1.959 4.085-4.252 0-1.869-1.205-3.456-2.88-4.028l-120.18-49.9 5.422-9.838 127.72 38.233 0.829-2.35 4e-3 2.469v-2.481l1.053-2.981-120.59-49.246 6.52-11.829 127.84 38.269 0.829-2.35 4e-3 2.469v-2.481l1.053-2.981-120.7-49.293 7.369-13.37 127.63 38.209 0.829-2.35 4e-3 2.469v-2.481l1.053-2.981-120.51-49.215 6.739-12.229 127.78 38.253 0.829-2.35 4e-3 2.469v-2.481l1.053-2.981-120.65-49.271 6.488-11.773 126.84 37.971 0.829-2.35 4e-3 2.469v-2.481l1.053-2.981-119.75-48.904 5.399-9.796 126.68 37.924 0.829-2.35 4e-3 2.469v-2.481l1.053-2.981-119.6-48.844 6.432-11.669 127.68 38.222 0.829-2.35 4e-3 2.469v-2.481l1.053-2.982-120.55-49.23 5.569-10.104 128.32 38.415 0.829-2.35 4e-3 2.469v-2.481l1.053-2.982-121.16-49.48 6.019-10.923z" fill="param(fill)" fill-opacity="param(fill-opacity)" stroke="param(outline)" stroke-opacity="param(outline-opacity)" stroke-width="param(outline-width)"/>
	<path d="m523.67 400.3c-9.109-6.432-19.119-9.692-29.751-9.692-13.38 0-24.538 5.158-30.583 8.669l-25.803-94.35c1.729-7.034 3.434-14.063 5.103-21.053 9.842-41.209 11.105-48.818 11.94-53.854 0.736-4.431 1.141-6.872 7.105-29.833 4.422-17.022 11.622-58.357 16.796-91.771 2.911-18.797 5.323-35.997 6.792-48.432 2.694-22.796 1.704-24.208 0.657-25.703-0.728-1.039-1.854-1.701-3.091-1.818-0.237-0.022-0.464-0.033-0.678-0.033-1.858 0-3.425 0.809-4.298 2.219-0.202 0.326-0.356 0.68-0.458 1.05l-56.748 207.51-57.116-208.85c-0.102-0.37-0.256-0.724-0.458-1.05-0.873-1.411-2.439-2.219-4.297-2.219-0.216 0-0.443 0.01-0.679 0.033-1.236 0.117-2.362 0.779-3.091 1.818-1.047 1.495-2.037 2.906 0.657 25.703 1.469 12.435 3.881 29.635 6.792 48.431 5.174 33.414 12.374 74.749 16.796 91.771 5.965 22.961 6.369 25.402 7.105 29.833 0.835 5.035 2.099 12.645 11.94 53.854 1.781 7.458 3.602 14.961 5.451 22.468l-26.151 95.622c-6.045-3.511-17.204-8.669-30.584-8.669-10.632 0-20.642 3.261-29.75 9.692-25.397 17.931-31.711 47.355-18.261 85.093 7.24 20.315 24.637 33.442 44.317 33.441 11.543 0 22.156-4.583 29.885-12.904 10.591-11.402 29.092-68.827 47.44-136.77 18.229 67.355 36.557 124.1 47.077 135.42 7.729 8.322 18.342 12.905 29.885 12.905 19.682 0 37.077-13.127 44.317-33.442 13.454-37.74 7.139-67.163-18.258-85.093zm-25.36 7.455 0.058 3.998c15.128 0.038 32.045 18.614 32.039 43.492-0.027 25.147-17.274 44.652-32.136 44.652-14.442-0.035-32.739-22.875-32.711-48.494 0.028-24.491 17.021-39.65 32.75-39.65v-3.998zm-155.68 1.345v3.998c15.729 0 32.721 15.159 32.748 39.649 0.029 25.619-18.268 48.46-32.754 48.495-14.817-2e-3 -32.064-19.507-32.092-44.727-6e-3 -24.805 16.91-43.381 32.039-43.418l0.059-3.997z" fill="param(fill)" fill-opacity="param(fill-opacity)" stroke="param(outline)" stroke-opacity="param(outline-opacity)" stroke-width="param(outline-width)"/>
</svg>
