<?xml version="1.0" encoding="UTF-8"?>
<svg width="580px" height="580px" enable-background="new 0 0 580 580" version="1.1" viewBox="0 0 580 580" xmlns="http://www.w3.org/2000/svg">
	<path d="m423.87 83.206-168.75-38.599c-0.363-0.083-0.733-0.187-1.096-0.25-11.24-1.982-22.112 5.15-24.687 16.406l-51.474 225.04 9.657 2.209-0.341 3.696-10.136-2.318-43.87 191.8c-2.658 11.619 4.569 23.133 16.189 25.791l168.75 38.598c11.619 2.657 23.1-4.577 25.757-16.196l43.87-191.8-48.874-11.179-3.155-4.496 52.85 12.089 51.474-225.04c2.656-11.62-4.546-23.093-16.165-25.75z" fill="param(fill)" fill-opacity="param(fill-opacity)" opacity=".33" stroke="param(outline)" stroke-opacity="param(outline-opacity)" stroke-width="param(outline-width)"/>
	<g transform="matrix(48.15 0 0 48.15 -536.27 -33.307)" display="none" fill="none" stroke="#757575" stroke-width=".1">
		<rect x="1" y="1" width="10" height="10" display="inline"/>
		<rect x="2" y="2" width="8" height="8" display="inline"/>
	</g>
	<path d="m425.32 83.596 10.11-44.203c0.879-3.84-1.522-7.666-5.362-8.543l-24.415-5.585c-3.841-0.878-7.666 1.523-8.544 5.363l-10.098 44.147-131.89-30.168c-0.363-0.083-0.733-0.187-1.096-0.25-11.24-1.982-22.112 5.15-24.687 16.406l-96.164 420.43c-2.658 11.619 4.569 23.133 16.189 25.791l168.75 38.598c11.619 2.657 23.1-4.577 25.757-16.196l96.164-420.43c2.545-11.128-3.955-22.115-14.713-25.361zm-241.22 264.94 5.105-22.318c1.458-6.379 7.775-10.314 14.153-8.855l23.613 5.401c6.378 1.458 10.355 7.749 8.896 14.127l-5.105 22.318c-1.458 6.378-7.774 10.313-14.152 8.854l-23.614-5.4c-6.378-1.459-10.355-7.749-8.896-14.127zm23.394 112.4-5.105 22.317c-1.459 6.379-7.775 10.314-14.153 8.855l-23.614-5.401c-6.378-1.458-10.354-7.749-8.896-14.127l5.105-22.318c1.459-6.378 7.775-10.313 14.153-8.854l23.613 5.4c6.379 1.459 10.356 7.749 8.897 14.128zm-5.075-30.833-23.614-5.401c-6.378-1.459-10.347-7.782-8.888-14.16l5.097-22.285c1.459-6.378 7.782-10.348 14.161-8.889l23.613 5.401c6.378 1.459 10.347 7.782 8.889 14.16l-5.098 22.285c-1.458 6.378-7.782 10.348-14.16 8.889zm67.015 45-5.105 22.318c-1.458 6.378-7.742 10.321-14.12 8.862l-23.613-5.4c-6.378-1.459-10.355-7.749-8.896-14.128l5.105-22.317c1.458-6.379 7.774-10.314 14.152-8.855l23.614 5.401c6.378 1.458 10.322 7.741 8.863 14.119zm-5.042-30.826-23.613-5.401c-6.378-1.458-10.347-7.782-8.889-14.16l5.098-22.285c1.458-6.378 7.782-10.347 14.16-8.888l23.613 5.4c6.378 1.459 10.314 7.775 8.855 14.153l-5.097 22.285c-1.459 6.379-7.749 10.355-14.127 8.896zm-18.32-81.567 5.105-22.318c1.459-6.378 7.775-10.313 14.153-8.855l23.614 5.401c6.377 1.459 10.322 7.742 8.863 14.119l-5.104 22.318c-1.459 6.379-7.742 10.322-14.12 8.863l-23.613-5.401c-6.379-1.459-10.356-7.749-8.898-14.127zm85.334 126.57-5.104 22.318c-1.459 6.378-7.741 10.322-14.12 8.863l-23.646-5.409c-6.378-1.459-10.321-7.741-8.863-14.119l5.105-22.318c1.459-6.378 7.741-10.322 14.119-8.863l23.647 5.409c6.378 1.459 10.321 7.742 8.862 14.119zm14.183-62.005-5.097 22.285c-1.459 6.378-7.749 10.354-14.128 8.896l-23.646-5.408c-6.378-1.459-10.314-7.775-8.855-14.153l5.098-22.285c1.459-6.377 7.749-10.354 14.127-8.896l23.647 5.409c6.377 1.458 10.313 7.774 8.854 14.152zm14.19-62.039-5.104 22.318c-1.459 6.377-7.742 10.321-14.12 8.862l-23.646-5.409c-6.378-1.458-10.321-7.741-8.863-14.119l5.105-22.318c1.459-6.378 7.741-10.321 14.119-8.862l23.647 5.408c6.378 1.458 10.321 7.741 8.862 14.12zm55.027-237.83-41.066 179.54c-2.274 9.943-12.134 16.133-22.077 13.858l-134.84-30.842c-9.944-2.274-16.099-12.126-13.825-22.07l41.066-179.54c2.274-9.943 12.101-16.14 22.044-13.866l134.84 30.842c9.944 2.276 16.132 12.135 13.858 22.078z" fill="param(fill)" fill-opacity="param(fill-opacity)" stroke="param(outline)" stroke-opacity="param(outline-opacity)" stroke-width="param(outline-width)"/>
</svg>
