<svg xmlns="http://www.w3.org/2000/svg" id="wfsclient_layer" viewBox="-467 269 24 24">
       <g> <path style="fill:#DCE8F3;" d="M-444,281.2c0.1,4.4-4.7,10.8-10.8,10.8c-6.1,0-11.5-6.5-11.2-10.9c0.4-6.1,4.8-11.1,10.9-11.1
		C-449,270.1-444.1,275-444,281.2z"/> <path style="fill:#B7CBE9;" d="M-452.4,289.5c0.6-1,1.5-2.3,2-4.1h3.1C-448.2,287.3-450.1,288.9-452.4,289.5z M-463,285.5h3.1
		c0.6,1.8,1.4,3.1,2,4.1C-460,288.9-461.9,287.3-463,285.5z M-463.8,278h3.5c-0.2,1-0.3,2.1-0.3,3s0.1,2,0.3,3h-3.5
		c-0.3-1-0.4-2.1-0.4-3S-464.1,279-463.8,278z M-457.7,272.3c-0.6,1-1.5,2.3-2.1,4.1h-3.2C-461.9,274.5-459.9,272.9-457.7,272.3z
		 M-447,276.4h-3.1c-0.6-1.8-1.4-3.1-2.1-4.1C-450.2,272.9-448.2,274.5-447,276.4z M-455,271.8c0,0,1.7,1.8,2.8,4.5h-5.7
		C-456.8,273.6-455,271.8-455,271.8z M-458.5,284c-0.2-1-0.3-2.1-0.3-3s0.1-2,0.3-3h6.7c0.2,1,0.3,2.1,0.3,3s-0.1,2-0.3,3H-458.5z
		 M-455,290L-455,290c-0.3-0.3-1.8-1.8-2.8-4.5h5.6C-453.2,288.2-454.8,289.7-455,290L-455,290z M-446.3,284h-3.5
		c0.2-1,0.3-2.1,0.3-3s-0.1-2-0.3-3h3.5c0.3,1,0.4,2.1,0.4,3S-446,283-446.3,284z M-444,281c0-6-5-11-11-11l0,0l0,0c-6,0-11,5-11,11
		c0,5.8,4.7,10.7,10.6,11c0.1,0,0.7,0,0.9,0C-448.7,291.7-444,286.9-444,281z"/> </g>
    </svg>