<svg xmlns="http://www.w3.org/2000/svg" id="wfsclient_connection" viewBox="-467 269 24 24">
       <path style="fill:none;stroke:#B1B2B2;stroke-width:2;stroke-miterlimit:10;" d="M-461,283v4.3c0,1.1,1.4,1.7,2.5,1.7h4.5"/> <g> <path style="fill:#DCE8F3;" d="M-443,284c0,4.4-3.5,7.9-8,7.9s-8-4.1-8-7.8c0.1-4.4,3.5-8.1,8-8.1C-446.6,276.1-443,279.6-443,284z
		"/> <path style="fill:#B7CBE9;" d="M-449.1,290.2c0.5-0.7,1.1-1.7,1.5-3h2.3C-446.1,288.5-447.4,289.7-449.1,290.2z M-456.8,287.2h2.3
		c0.4,1.3,1,2.3,1.5,3C-454.6,289.7-456,288.5-456.8,287.2z M-457.4,281.8h2.5c-0.1,0.7-0.2,1.3-0.2,2c0,0.7,0.1,1.3,0.2,2h-2.5
		c-0.2-0.7-0.3-1.3-0.3-2C-457.7,283.1-457.6,282.5-457.4,281.8z M-453,277.5c-0.5,0.7-1.1,1.7-1.5,3h-2.3
		C-456,279.1-454.6,277.9-453,277.5z M-445.2,280.5h-2.3c-0.4-1.3-1-2.3-1.5-3C-447.5,277.9-446.1,279.1-445.2,280.5z M-451,277.1
		c0,0,1.3,1.3,2,3.3h-4.1C-452.3,278.5-451,277.1-451,277.1z M-453.5,285.8c-0.1-0.7-0.2-1.3-0.2-2c0-0.7,0.1-1.3,0.2-2h4.9
		c0.1,0.7,0.2,1.3,0.2,2c0,0.7-0.1,1.3-0.2,2H-453.5z M-451,290.5L-451,290.5c-0.2-0.2-1.3-1.3-2-3.3h4
		C-449.7,289.2-450.8,290.3-451,290.5L-451,290.5z M-444.7,285.8h-2.5c0.1-0.7,0.2-1.3,0.2-2c0-0.7-0.1-1.3-0.2-2h2.5
		c0.2,0.7,0.3,1.3,0.3,2C-444.4,284.5-444.5,285.2-444.7,285.8z M-443,283.9c0-4.4-3.6-8.1-8-8.1l0,0l0,0c-4.4,0-8,3.7-8,8.1
		c0,4.3,3.4,7.9,7.7,8.1c0.1,0,0.5,0,0.7,0C-446.4,291.8-443,288.3-443,283.9z"/> </g> <g> <path style="fill:#B1B2B2;" d="M-462,276.4c0,0.3-0.6,0.7-1,0.7l0,0c-0.4,0-1-0.3-1-0.7v-4.8c0-0.3,0.6-0.7,1-0.7l0,0
		c0.4,0,1,0.3,1,0.7V276.4z"/> <path style="fill:#B1B2B2;" d="M-457,276.4c0,0.3-0.6,0.7-1,0.7l0,0c-0.4,0-1-0.3-1-0.7v-4.8c0-0.3,0.6-0.7,1-0.7l0,0
		c0.4,0,1,0.3,1,0.7V276.4z"/> <path style="fill:#FFCA28;" d="M-466,276v3.8c0,2.8,2.7,5.2,5.5,5.2l0,0c2.8,0,5.5-2.3,5.5-5.2v-3.5c0-0.4-0.8-1.3-1.2-1.3h-9
		C-465.4,275-466,275.6-466,276z"/> <rect x="-466" y="276" style="opacity:0.18;enable-background:new    ;" width="11" height="2"/> <path style="fill:#FFCA28;" d="M-455.3,277h-10.8c-0.6,0-0.9-0.5-0.9-1l0,0c0-0.5,0.3-1,0.9-1h10.9c0.5,0,0.9,0.5,0.9,1l0,0
		C-454.3,276.4-454.7,277-455.3,277z"/> </g>
    </svg>