<?xml version="1.0" encoding="UTF-8"?>
<svg width="580px" height="580.46px" enable-background="new 0 0 579.997 580.457" version="1.1" viewBox="0 0 580 580.46" xmlns="http://www.w3.org/2000/svg">
	<path d="m381.61 219.51c-7.474 2e-3 -14.866 0.523-22.143 1.527 1.091-7.585 1.657-15.297 1.653-23.098v-0.111c-0.039-88.146-71.771-159.86-159.98-159.86-88.174 0.041-159.88 71.807-159.84 159.97v0.111c0.039 88.127 71.742 159.82 159.84 159.82h0.13c7.467 0 14.851-0.526 22.12-1.53-1.09 7.591-1.648 15.311-1.645 23.116v0.111c0.039 88.146 71.756 159.86 159.87 159.86h0.071c42.728-0.02 82.885-16.67 113.07-46.885 30.188-30.213 46.802-70.377 46.783-113.09v-0.105c3e-3 -88.138-71.715-159.84-159.94-159.84zm-179.54-94.076c0-7.987 6.476-14.463 14.463-14.463s14.463 6.476 14.463 14.463v0.865c0 16.449 13.383 29.832 29.832 29.832 16.439 0 29.813-13.383 29.813-29.832 0-7.987 6.476-14.463 14.463-14.463s14.463 6.476 14.463 14.463c0 32.398-26.351 58.758-58.739 58.758-32.398 0-58.758-26.359-58.758-58.758v-0.865zm-119.2 0.865v-0.865c0-7.987 6.476-14.463 14.463-14.463s14.463 6.476 14.463 14.463v0.865c0 16.449 13.383 29.832 29.832 29.832 16.439 0 29.813-13.383 29.813-29.832 0-7.987 6.476-14.463 14.463-14.463s14.463 6.476 14.463 14.463c0 32.398-26.351 58.758-58.739 58.758-32.398 0-58.758-26.36-58.758-58.758zm119.45 116.3c-34.1 0-62.908 19.511-62.908 42.605 0 0.153-2e-3 0.306 3e-3 0.458 0.373 7.418-5.339 13.722-12.756 14.095-0.229 0.012-0.458 0.018-0.686 0.018-7.117 0-13.06-5.596-13.421-12.784-0.029-0.593-0.035-1.189-0.035-1.786 0-19.361 9.891-37.285 27.851-50.472 16.712-12.271 38.714-19.028 61.952-19.028 23.23 0 45.227 6.758 61.938 19.028 7.624 5.6 13.792 12.054 18.367 19.108-4.895 3.876-9.6 8.053-14.08 12.536-2.116 2.117-4.158 4.288-6.14 6.501-8.018-17.308-32.29-30.279-60.085-30.279zm310.31 136.87c0.017 34.989-13.593 67.888-38.318 92.635-24.729 24.75-57.624 38.389-92.626 38.403l-0.059 14.463v-14.462c-72.171 0-130.91-58.743-130.94-130.94v-0.111c-0.016-34.987 13.595-67.885 38.325-92.631 24.73-24.748 57.622-38.382 92.678-38.39 72.202 0 130.94 58.731 130.94 130.92v0.112z" fill="param(fill)" fill-opacity="param(fill-opacity)" stroke="param(outline)" stroke-opacity="param(outline-opacity)" stroke-width="param(outline-width)"/>
	<path d="m322.05 321.42c16.459 0 29.85 13.383 29.85 29.832 0 7.987 6.476 14.463 14.463 14.463s14.463-6.476 14.463-14.463c0-32.398-26.367-58.758-58.775-58.758-32.39 0-58.74 26.359-58.74 58.758v0.883c0 7.987 6.476 14.463 14.463 14.463s14.463-6.476 14.463-14.463v-0.883c-2e-3 -16.449 13.372-29.832 29.813-29.832z" fill="param(fill)" fill-opacity="param(fill-opacity)" stroke="param(outline)" stroke-opacity="param(outline-opacity)" stroke-width="param(outline-width)"/>
	<path d="m382.48 351.25c0 0.386 0.015 0.773 0.039 1.213 0.176 7.835 6.582 14.133 14.459 14.133 7.987 0 14.463-6.476 14.463-14.463 0-0.39-0.014-0.761-0.034-1.151 0.145-16.326 13.479-29.563 29.849-29.563 16.459 0 29.85 13.383 29.85 29.832 0 7.987 6.476 14.463 14.463 14.463s14.463-6.476 14.463-14.463c0-32.398-26.367-58.758-58.775-58.758s-58.777 26.359-58.777 58.757z" fill="param(fill)" fill-opacity="param(fill-opacity)" stroke="param(outline)" stroke-opacity="param(outline-opacity)" stroke-width="param(outline-width)"/>
	<path d="m459.08 398.36c-7.427 0-13.447 6.021-13.447 13.447 0 23.085-28.801 42.588-62.891 42.588s-62.89-19.503-62.89-42.588v-1.096c0-7.427-6.021-13.447-13.447-13.447s-13.447 6.021-13.447 13.447v1.096c0 19.366 9.891 37.29 27.851 50.471 16.705 12.26 38.7 19.012 61.934 19.012s45.229-6.752 61.935-19.012c17.96-13.181 27.851-31.104 27.851-50.471-2e-3 -7.426-6.022-13.447-13.449-13.447z" fill="param(fill)" fill-opacity="param(fill-opacity)" stroke="param(outline)" stroke-opacity="param(outline-opacity)" stroke-width="param(outline-width)"/>
</svg>
