<?xml version="1.0" encoding="UTF-8"?>
<svg width="580px" height="580px" enable-background="new 0 0 580 580" version="1.1" viewBox="0 0 580 580" xmlns="http://www.w3.org/2000/svg">
	<polygon points="344.85 317.76 426.08 304.49 562.05 282.28 425.9 263.33 343.36 251.84 370.66 220.72 439.73 141.95 358.55 203.56 325.2 228.88 313.38 154.03 291.88 17.951 272.22 153.99 260.2 237.15 222.64 207.63 140.28 142.88 206.16 220.63 234.19 253.72 154.39 264.89 17.952 283.99 153.63 306.04 233.75 319.06 215.63 339.72 146.56 418.49 227.74 356.88 259.83 332.52 272.35 425.51 290.73 562.05 313.5 426.49 328.18 339.05 349.79 356.03 432.14 420.78 366.26 343.03" fill="param(fill) #000" fill-opacity="param(fill-opacity)" stroke="param(outline) #FFF" stroke-opacity="param(outline-opacity)" stroke-width="param(outline-width) 0"/>
</svg>
