<svg xmlns="http://www.w3.org/2000/svg" width="24" height="24">
  <path d="M21.999877 4.3502965a2.3500999 2.3501047 0 0 0-1.450889-2.171377 2.3501612 2.350166 0 0 0-2.561229.509417l-1.22898 1.2290444.892841.8928425a.50531221.50531325 0 0 1-.714604.7146049l-.892841-.8928426-2.317086 2.3171522.89278.8928426a.50518971.50519075 0 0 1 0 .7146045.50531221.50531325 0 0 1-.714604 0l-.892779-.8927811-2.317147 2.3170911.892841.892781a.50531221.50531325 0 0 1-.714604.714605l-.8928405-.892843-2.3170862 2.317091.8927795.892843a.50531221.50531325 0 0 1 0 .714605.50531221.50531325 0 0 1-.7146034 0l-.8928407-.892843-2.3170862 2.317152.8927795.892781a.50531221.50531325 0 0 1-.7146034.714605l-.8927795-.892781-1.2290417 1.229044A2.3502837 2.3502885 0 0 0 4.3501486 22l15.2995064-.000061a2.3505899 2.3505947 0 0 0 1.661956-.688329A2.3505899 2.3505947 0 0 0 22 19.649712ZM17.29931 17.299484l-7.275148.000123 7.275209-7.275286z"/>
</svg>
