<?xml version="1.0" encoding="UTF-8"?>
<svg width="580px" height="580px" enable-background="new 0 0 580 580" version="1.1" viewBox="0 0 580 580" xmlns="http://www.w3.org/2000/svg">
	<g transform="matrix(48.15 0 0 48.15 -536.27 -33.307)" display="none" fill="none" stroke="#757575" stroke-width=".1">
		<rect x="1" y="1" width="10" height="10" display="inline"/>
		<rect x="2" y="2" width="8" height="8" display="inline"/>
	</g>
	<path d="m564.38 145.71c-0.496-2.211-2.417-3.813-4.682-3.902l-286.61-11.314c-0.843-0.029-1.685 0.148-2.441 0.528l-248.33 124.72c-2.06 1.035-3.145 3.343-2.629 5.589 0.517 2.246 2.501 3.848 4.806 3.879l309.49 4.15h0.067c0.805 0 1.598-0.194 2.312-0.566l225.46-117.55c2.009-1.048 3.063-3.316 2.567-5.527z" fill="param(fill)" fill-opacity="param(fill-opacity)" stroke="param(outline)" stroke-opacity="param(outline-opacity)" stroke-width="param(outline-width)"/>
	<path d="m469.39 220.38c-1.538-1.785-4.111-2.254-6.18-1.129l-123.32 67.133-185.65-5.293c-2.207-0.068-4.174 1.315-4.879 3.395l-26.833 79.282c-0.577 1.705-0.193 3.588 1.006 4.932 0.959 1.075 2.322 1.671 3.73 1.671 0.351 0 0.705-0.037 1.055-0.112 1.166-0.252 2.401-0.826 6.128-2.604 14.139-6.744 57.806-27.583 114.48-26.623 34.573 0.582 110.85 26.867 111.61 27.133 1.933 0.67 4.075 0.096 5.414-1.448 0.351-0.404 35.372-40.612 61.807-57.035 26.116-16.224 87.577-23.163 88.194-23.231 1.845-0.204 3.425-1.412 4.104-3.139s0.348-3.688-0.863-5.094l-49.808-57.838z" fill="param(fill)" fill-opacity="param(fill-opacity)" stroke="param(outline)" stroke-opacity="param(outline-opacity)" stroke-width="param(outline-width)"/>
	<path d="m97.547 405.49c1.229-12.576 2.897-27.579 5.172-45.205 2.165-16.78 5.905-33.92 10.156-47.656s10.178-24.521 11.688-26c3.537-3.463 6.616-5.202 8.625-6.094 0.448-0.199 0.781-0.324 1.063-0.438l-30.031 0.438c-4.19 6.984-7.209 15.754-10.438 26.188-4.652 15.033-8.59 33.048-10.906 51-2.208 17.115-3.858 31.895-5.092 44.438-14.289 2.261-25.402 14.169-26.454 28.82-0.115 0.359-0.202 0.732-0.233 1.125l-4.286 53.223c-0.011 0.137-0.017 0.273-0.017 0.408 1e-3 2.579 1.984 4.767 4.599 4.977 0.137 0.012 0.272 0.017 0.407 0.017 2.249 0 4.199-1.508 4.802-3.629l-0.188 2.335c-0.011 0.137-0.017 0.273-0.017 0.408 1e-3 2.579 1.984 4.767 4.599 4.977 0.137 0.012 0.272 0.017 0.407 0.017 1.094 0 2.106-0.372 2.939-0.983 0.398 1.826 1.797 3.357 3.739 3.81 0.381 0.089 0.763 0.132 1.139 0.132 2.271 0 4.327-1.559 4.865-3.866l1.297-5.565c0.063 0.014 0.125 0.031 0.188 0.045l-1.224 5.251c-0.089 0.382-0.131 0.764-0.131 1.141 0 2.271 1.559 4.326 3.866 4.863 0.381 0.089 0.763 0.132 1.139 0.132 1.88 0 3.599-1.078 4.445-2.755 0.222 1.918 1.538 3.617 3.502 4.214 0.484 0.147 0.974 0.217 1.455 0.217 2.144 0 4.127-1.39 4.782-3.548l8.287-27.288c7.82-13.112 12.511-29.813 12.511-37.382-1e-3 -12.005-6.753-22.456-16.655-27.767zm-11.36 81.419c0.044-0.022 0.087-0.046 0.131-0.068l-0.497 1.637 0.366-1.569z" fill="param(fill)" fill-opacity="param(fill-opacity)" stroke="param(outline)" stroke-opacity="param(outline-opacity)" stroke-width="param(outline-width)"/>
</svg>
