<?xml version="1.0" encoding="UTF-8"?>
<svg width="580px" height="580px" enable-background="new 0 0 580 580" version="1.1" viewBox="0 0 580 580" xmlns="http://www.w3.org/2000/svg">
	<path d="m184.59 135.51c-1.139-8.429-8.145-13.298-13.774-17.21-1.151-0.8-2.239-1.556-3.226-2.302-0.31-0.234-0.649-0.426-1.009-0.57-1.324-0.529-3.057-1.068-4.987-0.844-0.183 0.021-0.365 0.054-0.543 0.098-1.843 0.455-4.118 0.493-6.29 0.493l-2.165-5e-3c-4.931 0-12.383 0-17.266 6.201-0.402 0.511-0.685 1.106-0.827 1.741-1.047 4.68 0.229 9.706 3.5 13.791 3.293 4.112 8.138 6.567 12.958 6.567 1.198 0 2.388-0.148 3.548-0.441 1.688 0.082 3.474 0.271 5.353 0.47 2.725 0.29 5.543 0.588 8.393 0.588 3.903 0 9.681-0.479 14.77-4.621 1.175-0.956 1.768-2.454 1.565-3.956zm-16.335-0.122c-2.389 0-4.975-0.274-7.475-0.54-2.186-0.232-4.447-0.472-6.647-0.54-0.045-1e-3 -0.09-2e-3 -0.135-2e-3 -0.44 0-0.877 0.067-1.298 0.198-2.684 0.837-5.806-0.417-7.907-3.04-1.338-1.671-2.027-3.648-1.934-5.46 1.951-1.783 4.933-2.134 9.736-2.134l2.165 5e-3c2.538 0 5.225-0.051 7.85-0.625 0.058 0.014 0.138 0.037 0.251 0.075 0.975 0.719 1.997 1.429 2.99 2.12 3.781 2.627 7.666 5.327 9.337 8.722-1.856 0.835-4.093 1.221-6.933 1.221z" fill="param(fill)" fill-opacity="param(fill-opacity)" stroke="param(outline)" stroke-opacity="param(outline-opacity)" stroke-width="param(outline-width)"/>
	<path d="m221.82 306.3c-1.151-0.8-2.239-1.556-3.226-2.302-0.31-0.234-0.649-0.426-1.009-0.569-1.324-0.529-3.058-1.067-4.987-0.845-0.183 0.021-0.365 0.054-0.543 0.098-1.844 0.455-4.12 0.493-6.293 0.493l-2.159-5e-3c-4.932 0-12.386 0-17.269 6.2-0.402 0.512-0.685 1.106-0.827 1.741-1.047 4.68 0.229 9.706 3.5 13.791 3.294 4.112 8.138 6.567 12.958 6.567 1.198 0 2.388-0.148 3.548-0.44 1.687 0.081 3.473 0.271 5.352 0.47 2.726 0.289 5.544 0.589 8.394 0.589h1e-3c3.903 0 9.68-0.479 14.769-4.621 1.175-0.956 1.768-2.455 1.565-3.956-1.138-8.43-8.145-13.298-13.774-17.211zm-2.56 17.088h-1e-3c-2.389 0-4.975-0.274-7.475-0.54-2.186-0.231-4.446-0.472-6.646-0.54-0.045-2e-3 -0.09-2e-3 -0.136-2e-3 -0.44 0-0.877 0.066-1.298 0.198-2.682 0.833-5.806-0.416-7.907-3.04-1.338-1.672-2.027-3.647-1.934-5.46 1.951-1.783 4.934-2.134 9.739-2.134l2.159 5e-3c2.539 0 5.227-0.051 7.853-0.625 0.058 0.014 0.138 0.037 0.251 0.074 0.975 0.72 1.997 1.43 2.99 2.12 3.781 2.627 7.666 5.327 9.337 8.723-1.856 0.835-4.092 1.221-6.932 1.221z" fill="param(fill)" fill-opacity="param(fill-opacity)" stroke="param(outline)" stroke-opacity="param(outline-opacity)" stroke-width="param(outline-width)"/>
	<path d="m336.6 236.57c1.537-1.128 2.16-3.126 1.537-4.929-2.985-8.63-11.634-13.393-17.356-16.545-0.461-0.253-0.961-0.42-1.477-0.495-0.261-0.061-0.656-0.132-1.133-0.132-0.728 0-1.429 0.164-2.063 0.473-1.303 0.226-2.719 0.259-3.857 0.259-0.75 0-1.506-0.016-2.262-0.031-0.814-0.017-1.629-0.033-2.438-0.033-4.646 0-9.951 0.574-14.085 4.833-0.641 0.66-1.056 1.507-1.185 2.418-0.589 4.152 0.668 8.261 3.541 11.57 3.032 3.493 7.517 5.578 11.996 5.578 1.252 0 2.487-0.159 3.684-0.475 1.554 0.078 3.216 0.268 4.964 0.466 2.536 0.289 5.159 0.587 7.813 0.587 5.039 3e-3 9.07-1.157 12.321-3.544zm-25.51-6.23c-0.042-1e-3 -0.084-2e-3 -0.126-2e-3 -0.461 0-0.92 0.073-1.358 0.218-2.392 0.785-5.397-0.208-7.212-2.299-0.527-0.607-1.3-1.718-1.502-3.178 1.648-1.015 3.782-1.241 6.66-1.241 0.75 0 1.506 0.015 2.262 0.031 0.814 0.016 1.629 0.032 2.438 0.032 1.587 0 3.608-0.055 5.663-0.444 4.053 2.279 7.771 4.649 10.095 7.609-1.078 0.238-2.306 0.351-3.729 0.351-2.159 0-4.533-0.27-6.829-0.531-2.093-0.239-4.255-0.485-6.362-0.546z" fill="param(fill)" fill-opacity="param(fill-opacity)" stroke="param(outline)" stroke-opacity="param(outline-opacity)" stroke-width="param(outline-width)"/>
	<path d="m187.79 224.45c0.987-0.052 1.919-0.101 2.819-0.101 1.502 0 2.602 0.138 3.563 0.447 0.088 0.028 0.178 0.054 0.268 0.077 1.153 0.291 2.058 0.427 2.846 0.427 2.872 0 4.4-1.861 4.836-3.455 1.051-3.843-2.949-6.358-4.502-7.281-3.182-2.213-6.57-2.501-9.18-2.501-1.039 0-2.055 0.051-3.038 0.101-1.861 0.094-3.595 0.139-4.807-0.054-0.07-0.011-0.141-0.021-0.211-0.029-0.353-0.039-0.688-0.056-1.005-0.056-3.675 0-5.782 2.28-6.24 4.54-0.426 2.106 0.394 5.123 4.099 6.687 2.757 1.173 5.494 1.309 7.312 1.309 1.111 0 2.193-0.057 3.24-0.111z" fill="param(fill)" fill-opacity="param(fill-opacity)" stroke="param(outline)" stroke-opacity="param(outline-opacity)" stroke-width="param(outline-width)"/>
	<path d="m380.15 348.52c0.875-12.831-10.685-19.888-19.124-25.04l-1.427-0.873c-0.334-0.206-0.693-0.365-1.07-0.475-1.76-0.51-3.442-0.704-5.086-0.563-0.118 0.011-0.236 0.025-0.354 0.045-2.098 0.356-4.565 0.421-7.178 0.49-7.871 0.206-17.668 0.464-22.721 9.676-0.155 0.282-0.279 0.582-0.368 0.893-1.624 5.663-0.333 11.861 3.542 17.004 4.188 5.559 10.522 8.877 16.944 8.877 1.348 0 2.686-0.149 3.989-0.444 1.07 0.093 2.18 0.208 3.316 0.326 3.113 0.323 6.332 0.658 9.629 0.658h0.022c3.306 0 13.259-0.02 19.107-8.376 0.456-0.648 0.725-1.407 0.779-2.198zm-19.907 1.874c-2.846 0-5.837-0.311-8.73-0.611-1.462-0.152-2.883-0.299-4.236-0.403-0.111-9e-3 -0.224-0.013-0.335-0.013-0.389 0-0.777 0.052-1.153 0.155-4.26 1.17-9.378-0.969-12.476-5.08-2.102-2.789-2.907-6.006-2.248-8.9 2.548-4.11 7.444-4.539 15.075-4.74 2.726-0.071 5.541-0.146 8.184-0.572 0.393-0.016 0.808 0.026 1.274 0.129l0.895 0.548c8.253 5.038 14.648 9.455 14.987 15.788-2.301 2.549-5.832 3.699-11.237 3.699z" fill="param(fill)" fill-opacity="param(fill-opacity)" stroke="param(outline)" stroke-opacity="param(outline-opacity)" stroke-width="param(outline-width)"/>
	<path d="m284.4 287.16c-1.86 0.094-3.594 0.14-4.807-0.054-0.07-0.011-0.141-0.021-0.211-0.029-0.353-0.039-0.688-0.056-1.006-0.056-3.674 0-5.781 2.28-6.239 4.54-0.427 2.105 0.393 5.122 4.098 6.688 2.757 1.173 5.494 1.309 7.312 1.309 1.11 0 2.193-0.057 3.24-0.111 0.987-0.051 1.919-0.1 2.819-0.1 1.502 0 2.602 0.138 3.563 0.447 0.089 0.028 0.179 0.054 0.269 0.076 1.153 0.291 2.059 0.427 2.846 0.427 2.873 0 4.401-1.862 4.837-3.456 1.051-3.843-2.949-6.357-4.503-7.28-3.182-2.213-6.57-2.5-9.179-2.5-1.04-2e-3 -2.056 0.049-3.039 0.099z" fill="param(fill)" fill-opacity="param(fill-opacity)" stroke="param(outline)" stroke-opacity="param(outline-opacity)" stroke-width="param(outline-width)"/>
	<path d="m103.59 269.59c1.412 0 2.862-0.152 4.232-0.442 1.126 0.057 2.484 0.249 3.912 0.449 2.068 0.292 4.207 0.593 6.298 0.593h1e-3c2.624 0 4.73-0.496 6.44-1.515 1.1-0.655 1.854-1.762 2.064-3.024 0.209-1.263-0.148-2.554-0.977-3.529-3.137-3.69-8.134-8.262-14.128-9.086-0.531-0.073-1.069-0.047-1.591 0.076-1.151 0.273-3.076 0.202-5.163 0.062-1.154-0.077-2.347-0.156-3.563-0.156-2.598 0-6.41 0.333-9.493 3.21-1.102 1.028-1.593 2.554-1.298 4.032 1.149 5.754 6.232 9.33 13.266 9.33z" fill="param(fill)" fill-opacity="param(fill-opacity)" stroke="param(outline)" stroke-opacity="param(outline-opacity)" stroke-width="param(outline-width)"/>
	<path d="m126.44 399.03c-0.53-0.074-1.07-0.047-1.59 0.075-1.152 0.272-3.077 0.202-5.163 0.063-1.154-0.077-2.347-0.156-3.563-0.156-2.599 0-6.41 0.332-9.494 3.21-1.102 1.028-1.593 2.554-1.298 4.032 1.148 5.755 6.232 9.33 13.267 9.33 1.412 0 2.862-0.151 4.231-0.441 1.126 0.058 2.485 0.249 3.913 0.45 2.068 0.291 4.206 0.592 6.297 0.592 2.624 0 4.73-0.495 6.44-1.515 1.1-0.655 1.854-1.762 2.064-3.024 0.209-1.264-0.148-2.554-0.977-3.529-3.136-3.691-8.133-8.263-14.127-9.087z" fill="param(fill)" fill-opacity="param(fill-opacity)" stroke="param(outline)" stroke-opacity="param(outline-opacity)" stroke-width="param(outline-width)"/>
	<path d="m89.818 509.3c-1.151-0.8-2.239-1.556-3.226-2.302-0.31-0.234-0.649-0.426-1.009-0.569-1.325-0.529-3.058-1.067-4.987-0.845-0.183 0.021-0.365 0.054-0.543 0.098-1.844 0.455-4.12 0.493-6.293 0.493l-2.159-5e-3c-4.932 0-12.386 0-17.269 6.2-0.402 0.512-0.685 1.106-0.827 1.741-1.047 4.68 0.229 9.706 3.5 13.791 3.294 4.112 8.138 6.567 12.958 6.567 1.198 0 2.388-0.148 3.548-0.44 1.687 0.081 3.473 0.271 5.352 0.47 2.726 0.289 5.544 0.589 8.394 0.589h1e-3c3.903 0 9.68-0.479 14.769-4.621 1.175-0.956 1.768-2.455 1.565-3.956-1.138-8.43-8.145-13.298-13.774-17.211zm-2.56 17.088h-1e-3c-2.389 0-4.975-0.274-7.475-0.54-2.186-0.231-4.446-0.472-6.646-0.54-0.045-2e-3 -0.09-2e-3 -0.136-2e-3 -0.44 0-0.877 0.066-1.298 0.198-2.681 0.835-5.805-0.416-7.907-3.04-1.338-1.672-2.027-3.647-1.934-5.46 1.951-1.783 4.934-2.134 9.739-2.134l2.159 5e-3c2.539 0 5.227-0.051 7.853-0.625 0.058 0.014 0.138 0.037 0.251 0.074 0.975 0.72 1.997 1.43 2.99 2.12 3.781 2.627 7.666 5.327 9.337 8.723-1.856 0.835-4.092 1.221-6.932 1.221z" fill="param(fill)" fill-opacity="param(fill-opacity)" stroke="param(outline)" stroke-opacity="param(outline-opacity)" stroke-width="param(outline-width)"/>
	<path d="m202.62 490.56c-3.182-2.213-6.57-2.5-9.18-2.5-1.039 0-2.055 0.051-3.038 0.101-1.86 0.095-3.594 0.14-4.807-0.055-0.07-0.011-0.141-0.021-0.211-0.028-0.353-0.038-0.688-0.056-1.006-0.056-3.675 0-5.781 2.279-6.239 4.539-0.427 2.106 0.393 5.122 4.098 6.688 2.757 1.173 5.494 1.309 7.312 1.309 1.11 0 2.193-0.057 3.24-0.111 0.987-0.051 1.919-0.1 2.819-0.1 1.502 0 2.602 0.138 3.563 0.447 0.088 0.028 0.178 0.054 0.268 0.076 1.154 0.291 2.058 0.427 2.846 0.427 2.873 0 4.401-1.861 4.836-3.456 1.051-3.843-2.949-6.358-4.501-7.281z" fill="param(fill)" fill-opacity="param(fill-opacity)" stroke="param(outline)" stroke-opacity="param(outline-opacity)" stroke-width="param(outline-width)"/>
	<path d="m61.287 339.39c-0.589 4.152 0.668 8.262 3.542 11.571 3.032 3.492 7.517 5.577 11.996 5.577 1.251 0 2.487-0.159 3.684-0.475 1.554 0.078 3.217 0.268 4.965 0.467 2.536 0.288 5.159 0.587 7.813 0.587 5.039 0 9.068-1.16 12.32-3.547 1.537-1.129 2.16-3.126 1.537-4.929-2.984-8.631-11.634-13.394-17.357-16.545-0.46-0.254-0.961-0.421-1.477-0.495-0.26-0.06-0.655-0.131-1.131-0.131-0.727 0-1.428 0.164-2.063 0.472-1.302 0.227-2.72 0.259-3.858 0.259-0.75 0-1.506-0.016-2.262-0.03-0.814-0.017-1.629-0.032-2.438-0.032-4.646 0-9.951 0.574-14.084 4.833-0.643 0.66-1.058 1.507-1.187 2.418zm15.27 1.448c0.75 0 1.506 0.016 2.262 0.031 0.814 0.017 1.629 0.032 2.438 0.032 1.587 0 3.608-0.055 5.663-0.444 4.054 2.279 7.772 4.648 10.095 7.609-1.078 0.237-2.306 0.351-3.729 0.351-2.16 0-4.533-0.271-6.829-0.531-2.091-0.238-4.254-0.484-6.362-0.546-0.042-1e-3 -0.084-1e-3 -0.126-1e-3 -0.461 0-0.92 0.073-1.359 0.217-2.392 0.786-5.397-0.208-7.211-2.299-0.527-0.607-1.3-1.718-1.501-3.177 1.647-1.015 3.781-1.242 6.659-1.242z" fill="param(fill)" fill-opacity="param(fill-opacity)" stroke="param(outline)" stroke-opacity="param(outline-opacity)" stroke-width="param(outline-width)"/>
	<path d="m489.59 298.51c-1.139-8.429-8.145-13.298-13.773-17.21-1.151-0.8-2.239-1.556-3.227-2.302-0.31-0.234-0.649-0.426-1.01-0.57-1.324-0.529-3.063-1.068-4.986-0.844-0.184 0.021-0.364 0.054-0.544 0.098-1.843 0.455-4.117 0.493-6.289 0.493l-2.165-5e-3c-4.932 0-12.384 0-17.266 6.201-0.402 0.511-0.685 1.106-0.827 1.741-1.047 4.679 0.229 9.707 3.5 13.791 3.294 4.112 8.139 6.567 12.958 6.567 1.198 0 2.389-0.148 3.549-0.44 1.687 0.081 3.473 0.271 5.352 0.47 2.726 0.289 5.544 0.589 8.394 0.589h1e-3c3.903 0 9.681-0.479 14.77-4.621 1.173-0.958 1.766-2.457 1.563-3.958zm-16.334-0.123c-2.391 0-4.976-0.274-7.477-0.54-2.186-0.231-4.446-0.472-6.646-0.54-0.045-2e-3 -0.091-2e-3 -0.136-2e-3 -0.439 0-0.878 0.066-1.298 0.197-2.682 0.836-5.805-0.416-7.906-3.039-1.339-1.672-2.027-3.647-1.935-5.46 1.951-1.783 4.933-2.134 9.736-2.134l2.165 5e-3c2.537 0 5.225-0.051 7.85-0.624 0.058 0.014 0.139 0.037 0.251 0.074 0.975 0.719 1.997 1.43 2.99 2.12 3.78 2.627 7.665 5.327 9.337 8.723-1.855 0.834-4.091 1.22-6.931 1.22z" fill="param(fill)" fill-opacity="param(fill-opacity)" stroke="param(outline)" stroke-opacity="param(outline-opacity)" stroke-width="param(outline-width)"/>
	<path d="m53.272 185.1c3.314 0 13.254-0.027 19.097-8.376 0.454-0.648 0.722-1.408 0.776-2.198 0.875-12.832-10.684-19.888-19.124-25.041l-1.427-0.874c-0.333-0.206-0.693-0.365-1.069-0.474-1.759-0.51-3.444-0.704-5.084-0.563-0.119 0.01-0.238 0.025-0.355 0.045-2.098 0.355-4.564 0.42-7.177 0.489-7.872 0.207-17.669 0.464-22.722 9.677-0.155 0.283-0.278 0.582-0.367 0.892-1.625 5.664-0.334 11.861 3.541 17.004 4.188 5.558 10.522 8.876 16.945 8.876 1.348 0 2.686-0.149 3.989-0.444 1.07 0.093 2.18 0.208 3.316 0.326 3.114 0.324 6.333 0.658 9.629 0.658 0.01 3e-3 0.021 3e-3 0.032 3e-3zm-13-9.715c-0.112-9e-3 -0.223-0.013-0.335-0.013-0.389 0-0.777 0.052-1.153 0.156-4.265 1.172-9.379-0.97-12.476-5.08-2.102-2.79-2.908-6.005-2.248-8.9 2.548-4.111 7.445-4.54 15.076-4.74 2.725-0.072 5.54-0.146 8.182-0.572 0.393-0.018 0.808 0.027 1.275 0.129l0.895 0.547c8.252 5.038 14.648 9.456 14.987 15.789-2.3 2.55-5.832 3.7-11.235 3.7-2.846 0-5.837-0.311-8.731-0.612-1.462-0.153-2.883-0.3-4.237-0.404z" fill="param(fill)" fill-opacity="param(fill-opacity)" stroke="param(outline)" stroke-opacity="param(outline-opacity)" stroke-width="param(outline-width)"/>
	<path d="m528.02 502.48-1.427-0.873c-0.334-0.206-0.693-0.365-1.07-0.475-1.761-0.511-3.443-0.705-5.086-0.563-0.118 0.011-0.236 0.025-0.354 0.045-2.097 0.355-4.563 0.421-7.176 0.489-7.872 0.206-17.669 0.464-22.723 9.677-0.155 0.282-0.279 0.582-0.368 0.893-1.624 5.663-0.333 11.861 3.542 17.004 4.188 5.559 10.522 8.877 16.944 8.877 1.348 0 2.686-0.149 3.989-0.444 1.07 0.093 2.181 0.208 3.317 0.326 3.126 0.325 6.346 0.702 9.669 0.658 3.321 0 13.251-0.033 19.09-8.376 0.453-0.648 0.722-1.408 0.775-2.198 0.878-12.831-10.682-19.887-19.122-25.04zm-0.779 26.914h-2e-3c-2.846 0-5.837-0.311-8.73-0.611-1.462-0.151-2.884-0.299-4.237-0.403-0.111-9e-3 -0.224-0.013-0.335-0.013-0.389 0-0.777 0.052-1.153 0.155-4.259 1.172-9.378-0.97-12.476-5.08-2.102-2.79-2.908-6.006-2.248-8.9 2.548-4.111 7.445-4.54 15.077-4.74 2.725-0.072 5.539-0.146 8.182-0.572 0.392-0.014 0.809 0.027 1.274 0.129l0.895 0.548c8.253 5.038 14.648 9.455 14.987 15.788-2.301 2.55-5.831 3.699-11.234 3.699z" fill="param(fill)" fill-opacity="param(fill-opacity)" stroke="param(outline)" stroke-opacity="param(outline-opacity)" stroke-width="param(outline-width)"/>
	<path d="m505.44 455.06c-1.039 0-2.056 0.051-3.038 0.101-1.858 0.095-3.593 0.141-4.808-0.055-0.07-0.011-0.141-0.021-0.211-0.028-0.353-0.038-0.688-0.056-1.006-0.056-3.675 0-5.781 2.279-6.239 4.539-0.427 2.106 0.394 5.122 4.099 6.688 2.757 1.173 5.493 1.309 7.312 1.309 1.11 0 2.193-0.057 3.24-0.111 0.986-0.051 1.919-0.1 2.818-0.1 1.503 0 2.603 0.138 3.563 0.447 0.089 0.028 0.179 0.054 0.269 0.076 1.153 0.291 2.059 0.427 2.846 0.427 2.873 0 4.401-1.862 4.837-3.456 1.051-3.843-2.949-6.357-4.503-7.28-3.182-2.213-6.57-2.501-9.179-2.501z" fill="param(fill)" fill-opacity="param(fill-opacity)" stroke="param(outline)" stroke-opacity="param(outline-opacity)" stroke-width="param(outline-width)"/>
	<path d="m398.44 510.03c-0.533-0.074-1.07-0.049-1.592 0.076-1.152 0.271-3.076 0.202-5.164 0.062-1.153-0.077-2.346-0.156-3.563-0.156-2.598 0-6.408 0.333-9.492 3.21-1.102 1.028-1.593 2.554-1.298 4.032 1.148 5.756 6.232 9.331 13.267 9.331 1.412 0 2.861-0.152 4.231-0.442 1.126 0.058 2.484 0.249 3.91 0.45 2.068 0.291 4.207 0.592 6.3 0.593 2.624 0 4.731-0.496 6.441-1.516 1.1-0.655 1.854-1.762 2.063-3.024 0.21-1.264-0.147-2.554-0.977-3.529-3.136-3.691-8.133-8.263-14.126-9.087z" fill="param(fill)" fill-opacity="param(fill-opacity)" stroke="param(outline)" stroke-opacity="param(outline-opacity)" stroke-width="param(outline-width)"/>
	<path d="m410.79 414.1c-0.461-0.254-0.962-0.421-1.479-0.495-0.261-0.06-0.655-0.131-1.131-0.131-0.727 0-1.428 0.164-2.063 0.472-1.302 0.227-2.719 0.259-3.857 0.259-0.75 0-1.506-0.016-2.262-0.03-0.814-0.017-1.629-0.032-2.438-0.032-4.646 0-9.951 0.574-14.085 4.833-0.641 0.66-1.056 1.507-1.185 2.418-0.59 4.152 0.668 8.262 3.541 11.571 3.032 3.492 7.517 5.577 11.996 5.577 1.252 0 2.487-0.159 3.684-0.475 1.553 0.078 3.215 0.268 4.962 0.466 2.537 0.289 5.16 0.588 7.814 0.588 5.039 0 9.069-1.16 12.321-3.547 1.537-1.128 2.16-3.126 1.537-4.929-2.984-8.63-11.632-13.394-17.355-16.545zm3.498 16.32c-2.16 0-4.535-0.271-6.831-0.531-2.09-0.238-4.251-0.484-6.357-0.546-0.043-1e-3 -0.085-1e-3 -0.127-1e-3 -0.461 0-0.92 0.073-1.358 0.217-2.392 0.785-5.397-0.208-7.212-2.298-0.527-0.607-1.301-1.718-1.502-3.178 1.648-1.015 3.782-1.242 6.66-1.242 0.75 0 1.506 0.016 2.262 0.031 0.814 0.017 1.629 0.032 2.438 0.032 1.587 0 3.608-0.055 5.663-0.444 4.053 2.279 7.771 4.648 10.095 7.608-1.079 0.239-2.307 0.352-3.731 0.352z" fill="param(fill)" fill-opacity="param(fill-opacity)" stroke="param(outline)" stroke-opacity="param(outline-opacity)" stroke-width="param(outline-width)"/>
	<path d="m292.82 450.3c-1.151-0.8-2.239-1.556-3.226-2.302-0.31-0.234-0.649-0.426-1.009-0.569-1.325-0.529-3.058-1.067-4.987-0.845-0.183 0.021-0.365 0.054-0.543 0.098-1.844 0.455-4.12 0.493-6.293 0.493l-2.159-5e-3c-4.932 0-12.386 0-17.269 6.2-0.402 0.512-0.685 1.106-0.827 1.741-1.047 4.68 0.229 9.706 3.5 13.791 3.294 4.112 8.138 6.567 12.958 6.567 1.198 0 2.388-0.148 3.548-0.44 1.687 0.081 3.473 0.271 5.352 0.47 2.726 0.289 5.544 0.589 8.394 0.589h1e-3c3.903 0 9.68-0.479 14.769-4.621 1.175-0.956 1.768-2.455 1.564-3.956-1.138-8.43-8.144-13.298-13.773-17.211zm-2.56 17.088h-1e-3c-2.389 0-4.975-0.274-7.475-0.54-2.186-0.231-4.446-0.472-6.646-0.54-0.045-2e-3 -0.09-2e-3 -0.136-2e-3 -0.44 0-0.877 0.066-1.298 0.198-2.682 0.834-5.805-0.416-7.907-3.04-1.338-1.672-2.027-3.647-1.934-5.46 1.951-1.783 4.934-2.134 9.739-2.134l2.159 5e-3c2.539 0 5.227-0.051 7.853-0.625 0.058 0.014 0.138 0.037 0.251 0.074 0.975 0.72 1.997 1.43 2.99 2.12 3.781 2.627 7.666 5.327 9.337 8.723-1.856 0.835-4.092 1.221-6.932 1.221z" fill="param(fill)" fill-opacity="param(fill-opacity)" stroke="param(outline)" stroke-opacity="param(outline-opacity)" stroke-width="param(outline-width)"/>
	<path d="m472.33 136.37c-0.402 0.511-0.685 1.106-0.827 1.741-1.047 4.68 0.229 9.707 3.5 13.791 3.294 4.112 8.138 6.567 12.958 6.567 1.198 0 2.389-0.148 3.549-0.441 1.688 0.082 3.474 0.271 5.353 0.47 2.726 0.29 5.543 0.588 8.393 0.588h1e-3c3.902 0 9.68-0.479 14.77-4.621 1.175-0.957 1.768-2.455 1.564-3.957-1.139-8.429-8.145-13.298-13.773-17.21-1.151-0.8-2.239-1.556-3.227-2.302-0.31-0.234-0.649-0.426-1.01-0.57-1.11-0.444-2.462-0.897-4.059-0.897-0.308 0-0.617 0.017-0.928 0.053-0.184 0.021-0.364 0.054-0.544 0.098-1.843 0.455-4.117 0.493-6.289 0.493l-2.165-5e-3c-4.932 0-12.384 0-17.266 6.202zm17.266 2.499 2.165 5e-3c2.537 0 5.225-0.051 7.85-0.624 0.058 0.014 0.139 0.037 0.251 0.074 0.975 0.719 1.997 1.43 2.99 2.12 3.78 2.627 7.665 5.327 9.336 8.722-1.855 0.835-4.092 1.221-6.933 1.221-2.389 0-4.975-0.274-7.475-0.54-2.186-0.232-4.446-0.472-6.646-0.54-0.046-1e-3 -0.091-2e-3 -0.136-2e-3 -0.439 0-0.878 0.067-1.298 0.198-2.683 0.837-5.806-0.417-7.906-3.04-1.339-1.671-2.027-3.648-1.935-5.46 1.952-1.783 4.933-2.134 9.737-2.134z" fill="param(fill)" fill-opacity="param(fill-opacity)" stroke="param(outline)" stroke-opacity="param(outline-opacity)" stroke-width="param(outline-width)"/>
	<path d="m454.23 96.252c2.757 1.173 5.493 1.309 7.312 1.309 1.11 0 2.193-0.056 3.24-0.111 0.986-0.052 1.919-0.101 2.818-0.101 1.503 0 2.603 0.138 3.563 0.447 0.089 0.028 0.179 0.054 0.269 0.077 1.153 0.291 2.058 0.427 2.846 0.427h1e-3c2.872 0 4.4-1.861 4.836-3.456 1.051-3.842-2.949-6.357-4.502-7.28-3.183-2.213-6.57-2.501-9.18-2.501-1.039 0-2.056 0.051-3.038 0.101-1.858 0.094-3.593 0.139-4.808-0.054-0.07-0.011-0.141-0.021-0.211-0.029-0.353-0.039-0.688-0.056-1.006-0.056-3.675 0-5.781 2.28-6.239 4.54-0.425 2.107 0.395 5.123 4.099 6.687z" fill="param(fill)" fill-opacity="param(fill-opacity)" stroke="param(outline)" stroke-opacity="param(outline-opacity)" stroke-width="param(outline-width)"/>
	<path d="m380.6 186.59c1.411 0 2.861-0.152 4.231-0.442 1.127 0.057 2.485 0.249 3.912 0.449 2.068 0.292 4.206 0.593 6.298 0.593h2e-3c2.623 0 4.729-0.496 6.439-1.515 1.1-0.655 1.854-1.762 2.063-3.024 0.21-1.263-0.147-2.554-0.977-3.529-3.137-3.69-8.134-8.262-14.128-9.086-0.532-0.073-1.07-0.047-1.591 0.076-1.15 0.272-3.074 0.202-5.164 0.062-1.153-0.077-2.347-0.156-3.563-0.156-2.599 0-6.409 0.333-9.493 3.21-1.102 1.028-1.593 2.554-1.298 4.032 1.151 5.754 6.234 9.33 13.269 9.33z" fill="param(fill)" fill-opacity="param(fill-opacity)" stroke="param(outline)" stroke-opacity="param(outline-opacity)" stroke-width="param(outline-width)"/>
	<path d="m267.37 46.721c0.454-0.648 0.722-1.408 0.776-2.198 0.875-12.832-10.684-19.888-19.124-25.041l-1.427-0.874c-0.333-0.206-0.693-0.365-1.069-0.474-1.758-0.51-3.444-0.703-5.084-0.563-0.119 0.01-0.238 0.025-0.355 0.045-2.098 0.355-4.564 0.42-7.177 0.489-7.872 0.207-17.669 0.464-22.722 9.677-0.155 0.283-0.278 0.582-0.367 0.892-1.625 5.664-0.334 11.861 3.541 17.004 4.188 5.558 10.522 8.876 16.945 8.876 1.348 0 2.686-0.149 3.989-0.444 1.07 0.093 2.18 0.208 3.316 0.326 3.114 0.324 6.333 0.658 9.629 0.658h0.033c3.314 3e-3 13.254-0.025 19.096-8.373zm-19.129-0.324c-2.846 0-5.837-0.311-8.731-0.612-1.462-0.152-2.883-0.299-4.237-0.403-0.112-9e-3 -0.223-0.013-0.335-0.013-0.389 0-0.777 0.052-1.153 0.156-4.264 1.173-9.379-0.97-12.476-5.08-2.102-2.79-2.908-6.005-2.248-8.9 2.548-4.111 7.445-4.54 15.076-4.74 2.725-0.072 5.54-0.146 8.182-0.572 0.393-0.015 0.808 0.027 1.275 0.129l0.895 0.547c8.252 5.038 14.648 9.456 14.987 15.789-2.3 2.549-5.831 3.699-11.235 3.699z" fill="param(fill)" fill-opacity="param(fill-opacity)" stroke="param(outline)" stroke-opacity="param(outline-opacity)" stroke-width="param(outline-width)"/>
	<path d="m264.14 73.566c-0.427 2.106 0.394 5.122 4.098 6.687 2.757 1.173 5.494 1.309 7.312 1.309 1.11 0 2.193-0.056 3.24-0.111 0.987-0.052 1.919-0.101 2.819-0.101 1.502 0 2.602 0.138 3.563 0.447 0.088 0.028 0.178 0.054 0.268 0.077 1.154 0.291 2.058 0.427 2.846 0.427 2.872 0 4.401-1.861 4.836-3.455 1.051-3.842-2.95-6.358-4.502-7.281-3.182-2.213-6.57-2.501-9.18-2.501-1.039 0-2.055 0.051-3.038 0.101-1.861 0.094-3.595 0.139-4.807-0.054-0.07-0.011-0.141-0.021-0.211-0.029-0.353-0.039-0.688-0.056-1.005-0.056-3.674 0-5.781 2.28-6.239 4.54z" fill="param(fill)" fill-opacity="param(fill-opacity)" stroke="param(outline)" stroke-opacity="param(outline-opacity)" stroke-width="param(outline-width)"/>
	<path d="m156.59 62.589c1.412 0 2.862-0.152 4.232-0.442 1.126 0.057 2.484 0.249 3.912 0.449 2.068 0.292 4.207 0.593 6.298 0.593h1e-3c2.624 0 4.73-0.496 6.44-1.515 1.1-0.655 1.854-1.762 2.064-3.024 0.209-1.263-0.148-2.554-0.977-3.529-3.137-3.69-8.134-8.262-14.128-9.086-0.53-0.073-1.069-0.047-1.591 0.076-1.151 0.273-3.076 0.202-5.163 0.062-1.154-0.077-2.347-0.156-3.563-0.156-2.598 0-6.41 0.333-9.493 3.21-1.102 1.028-1.593 2.554-1.298 4.032 1.149 5.754 6.232 9.33 13.266 9.33z" fill="param(fill)" fill-opacity="param(fill-opacity)" stroke="param(outline)" stroke-opacity="param(outline-opacity)" stroke-width="param(outline-width)"/>
	<path d="m568.56 176.12c-3.137-3.69-8.134-8.262-14.128-9.086-0.532-0.072-1.071-0.047-1.591 0.076-1.151 0.272-3.074 0.202-5.164 0.062-1.153-0.077-2.347-0.156-3.563-0.156-2.599 0-6.409 0.333-9.493 3.21-1.102 1.028-1.593 2.554-1.298 4.032 1.148 5.755 6.231 9.331 13.267 9.331 1.411 0 2.861-0.152 4.231-0.442 1.127 0.057 2.485 0.249 3.912 0.449 2.068 0.292 4.206 0.593 6.298 0.593h2e-3c2.623 0 4.729-0.496 6.439-1.515 1.1-0.655 1.854-1.762 2.063-3.024 0.212-1.264-0.145-2.554-0.975-3.53z" fill="param(fill)" fill-opacity="param(fill-opacity)" stroke="param(outline)" stroke-opacity="param(outline-opacity)" stroke-width="param(outline-width)"/>
</svg>
