<?xml version="1.0" encoding="UTF-8"?>
<svg width="580px" height="580px" enable-background="new 0 0 580 580" version="1.1" viewBox="0 0 580 580" xmlns="http://www.w3.org/2000/svg">
	<g transform="matrix(48.15 0 0 48.15 -1210.2 -51.871)" display="none" fill="none" stroke="#757575" stroke-width=".1">
		<rect x="1" y="1" width="10" height="10" display="inline"/>
		<rect x="2" y="2" width="8" height="8" display="inline"/>
	</g>
	<path d="m528.82 271.45c-12.723-9.675-15.556-13.715-10.992-15.466 38.138-14.635 17.703-90.979-26.33-98.418-14.452-2.442-16.467-4.235-18.789-16.616-5.746-30.626-35.303-44.726-62.119-42.818-1.222-0.088-2.476-0.235-3.706-0.256-25.785-0.436-52.927 13.833-58.412 43.074-2.322 12.381-4.263 16.362-18.917 16.616-45.142 0.783-64.34 67.142-26.202 98.418 3.779 3.099 1.603 5.791-11.12 15.466-64.746 49.239 4.97 147.49 71.193 100.34 9.696-6.904 11.233-6.979 13.421-1.278 4.618 12.034 2.565 69.817-3.195 88.96l-5.752 19.044h34.639c3.429 0 5.145 0.013 7.925 0 2.814 0.013 4.567 0 8.052 0h34.639l-5.624-19.044c-5.762-19.143-7.941-76.926-3.323-88.96 2.188-5.701 3.725-5.626 13.421 1.278 66.222 47.155 135.94-51.096 71.191-100.34z" fill="param(fill)" fill-opacity="param(fill-opacity)" stroke="param(outline)" stroke-opacity="param(outline-opacity)" stroke-width="param(outline-width)"/>
	<path d="m227.36 333.26h19.247c7e-3 0 0.014-1e-3 0.02 0 1.176 0 2.129-0.953 2.129-2.129 0-0.471-0.153-0.906-0.412-1.258l-29.274-53.169h16.092c0.727 0 1.404-0.371 1.795-0.984s0.442-1.383 0.136-2.042l-89.025-191.76c-0.374-0.805-1.192-1.278-2.064-1.229-0.867-0.059-1.692 0.424-2.065 1.229l-88.893 191.76c-0.306 0.659-0.254 1.429 0.137 2.042s1.068 0.983 1.794 0.983h15.959l-29.401 53.399c-0.363 0.66-0.351 1.462 0.032 2.11s1.08 1.046 1.833 1.046h19.38l-35.042 57.983c-0.427 0.707-0.407 1.596 0.051 2.282 0.458 0.688 1.273 1.046 2.087 0.925l89.909-13.474v95.737c0 1.176 0.954 2.129 2.129 2.129h21.957c0.045 0 0.089-1e-3 0.133-4e-3 0.044 3e-3 0.088 4e-3 0.133 4e-3h21.957c1.176 0 2.129-0.953 2.129-2.129v-95.737l90.042 13.474c0.105 0.016 0.21 0.023 0.315 0.023 6e-3 0 0.013-1e-3 0.02 0 1.176 0 2.129-0.953 2.129-2.129 0-0.5-0.173-0.96-0.461-1.323l-34.908-57.76z" fill="param(fill)" fill-opacity="param(fill-opacity)" stroke="param(outline)" stroke-opacity="param(outline-opacity)" stroke-width="param(outline-width)"/>
	<g transform="matrix(48.15 0 0 48.15 -1870.5 102.97)" display="none" fill="none" stroke="#757575" stroke-width=".1">
		<rect x="1" y="1" width="10" height="10" display="inline"/>
		<rect x="2" y="2" width="8" height="8" display="inline"/>
	</g>
</svg>
