<?xml version="1.0" encoding="UTF-8"?>
<svg width="580px" height="580px" enable-background="new 0 0 580 580" version="1.1" viewBox="0 0 580 580" xmlns="http://www.w3.org/2000/svg">
	<path d="m187.17 261.61c21.84 0 8.73-177.25-5.248-184.46-3.501-1.809-0.85 24.526-0.144 39.682 1 21.392-0.398 30.078-0.036 77.882h-4e-3c-3.654 48.312-2.145 66.901 5.432 66.901z" fill="param(fill)" fill-opacity="param(fill-opacity)" stroke="param(outline)" stroke-opacity="param(outline-opacity)" stroke-width="param(outline-width)"/>
	<path d="m224.13 261.61c4.893 0 8.896-11.749 8.896-26.109 0-34.36 8.127-55.663 18.251-84.109 10.426-29.296 34.5-50.041 11.691-31.165-33.486 27.712-64.712 141.38-38.838 141.38z" fill="param(fill)" fill-opacity="param(fill-opacity)" stroke="param(outline)" stroke-opacity="param(outline-opacity)" stroke-width="param(outline-width)"/>
	<path d="m259.72 261.61c4.893 0 8.896-7.241 8.896-16.092s1.814-23.315 7.557-39.258c7.325-20.333 22.543-25.466 6.409-19.275-6.997 2.685-18.971 16.775-24.206 31.792-11.824 33.916-9.983 42.833 1.344 42.833z" fill="param(fill)" fill-opacity="param(fill-opacity)" stroke="param(outline)" stroke-opacity="param(outline-opacity)" stroke-width="param(outline-width)"/>
	<path d="m319.23 319.6c-13.374-2.927-27.271-2.385-40.899-2.238-11.73 0.484-23.698 0.393-35.195 2.765-2.886 1.669-1.191 6.252 2.003 6.177 17.499 4.029 35.749 2.758 53.612 2.746 7.661-0.348 15.659-0.504 22.854-3.2 2.856-1.903 0.912-6.467-2.375-6.25z" fill="param(fill)" fill-opacity="param(fill-opacity)" stroke="param(outline)" stroke-opacity="param(outline-opacity)" stroke-width="param(outline-width)"/>
	<path d="m136.71 235.5c0 14.36 4.003 26.109 8.896 26.109 25.874 0-5.352-113.67-38.838-141.38-22.809-18.876 1.265 1.869 11.691 31.165 10.124 28.447 18.251 49.75 18.251 84.11z" fill="param(fill)" fill-opacity="param(fill-opacity)" stroke="param(outline)" stroke-opacity="param(outline-opacity)" stroke-width="param(outline-width)"/>
	<path d="m87.156 186.98c-16.134-6.191-0.916-1.058 6.409 19.275 5.743 15.943 7.557 30.408 7.557 39.258 0 8.851 4.003 16.092 8.896 16.092 11.327 0 13.167-8.917 1.344-42.833-5.235-15.016-17.209-29.106-24.206-31.792z" fill="param(fill)" fill-opacity="param(fill-opacity)" stroke="param(outline)" stroke-opacity="param(outline-opacity)" stroke-width="param(outline-width)"/>
	<path d="m308.81 289.17c-1.97-3.876-7.568-2.583-11.096-3.348-24.599-1.905-49.297-1.883-73.953-1.83-28.769 0.422-57.648 0.512-86.314 2.608-2.705 0.436-4.052 4.449-1.09 5.587 14.327 3.218 29.292 2.534 43.936 3.294 40.229 0.853 80.557 1.252 120.71-1.601 2.837-0.567 8.413-0.63 7.805-4.71z" fill="param(fill)" fill-opacity="param(fill-opacity)" stroke="param(outline)" stroke-opacity="param(outline-opacity)" stroke-width="param(outline-width)"/>
</svg>
