<?xml version="1.0" encoding="UTF-8"?>
<svg width="580px" height="580px" enable-background="new 0 0 580 580" version="1.1" viewBox="0 0 580 580" xmlns="http://www.w3.org/2000/svg">
	<g transform="matrix(48.15 0 0 48.15 -1210.2 -51.871)" display="none" fill="none" stroke="#757575" stroke-width=".1">
		<rect x="1" y="1" width="10" height="10" display="inline"/>
		<rect x="2" y="2" width="8" height="8" display="inline"/>
	</g>
	<path d="m412.2 390.94-43.753-64.439 27.66 6.701c0.166 0.04 0.334 0.06 0.501 0.06h0.02c1.177 0 2.13-0.953 2.13-2.129 0-0.501-0.174-0.962-0.463-1.326l-36.178-59.671 22.456 6.487c0.803 0.234 1.665-0.026 2.207-0.66 0.543-0.633 0.666-1.525 0.315-2.282l-89.026-191.76c-0.374-0.806-1.2-1.281-2.064-1.229-0.854-0.053-1.69 0.423-2.064 1.229l-88.894 191.76c-0.348 0.751-0.229 1.635 0.304 2.268 0.533 0.632 1.385 0.899 2.184 0.683l24.256-6.564-38.185 59.92c-0.467 0.732-0.442 1.675 0.063 2.382 0.505 0.706 1.389 1.035 2.232 0.832l27.799-6.707-43.9 64.655c-0.475 0.7-0.491 1.614-0.041 2.33 0.451 0.716 1.28 1.095 2.118 0.972l89.909-13.474v95.737c0 1.176 0.954 2.129 2.129 2.129h21.958c0.045 0 0.089-1e-3 0.133-4e-3 0.044 3e-3 0.088 4e-3 0.133 4e-3h21.957c1.176 0 2.129-0.953 2.129-2.129v-95.737l90.042 13.474c0.105 0.016 0.211 0.023 0.315 0.023h0.02c1.177 0 2.13-0.953 2.13-2.129-2e-3 -0.538-0.202-1.03-0.532-1.405z" fill="param(fill)" fill-opacity="param(fill-opacity)" stroke="param(outline)" stroke-opacity="param(outline-opacity)" stroke-width="param(outline-width)"/>
	<g transform="matrix(48.15 0 0 48.15 -1870.5 102.97)" display="none" fill="none" stroke="#757575" stroke-width=".1">
		<rect x="1" y="1" width="10" height="10" display="inline"/>
		<rect x="2" y="2" width="8" height="8" display="inline"/>
	</g>
</svg>
