<?xml version="1.0" encoding="UTF-8"?>
<svg width="580px" height="580px" enable-background="new 0 0 580 580" version="1.1" viewBox="0 0 580 580" xmlns="http://www.w3.org/2000/svg">
	<path d="m468.64 448.75h-376.8c-3.313 0-6 2.687-6 6s2.687 6 6 6h376.8c3.313 0 6-2.687 6-6s-2.686-6-5.999-6z" fill="param(fill)" fill-opacity="param(fill-opacity)" stroke="param(outline)" stroke-opacity="param(outline-opacity)" stroke-width="param(outline-width)"/>
	<path d="m211.59 329.86c0.01 0 0.021 1e-3 0.031 1e-3 4.286 0 7.769-3.467 7.786-7.756l0.33-83.398c0.017-4.3-3.456-7.8-7.756-7.817h-0.031c-4.286 0-7.769 3.466-7.786 7.756l-0.33 83.397c-0.017 4.301 3.456 7.801 7.756 7.817z" fill="param(fill)" fill-opacity="param(fill-opacity)" stroke="param(outline)" stroke-opacity="param(outline-opacity)" stroke-width="param(outline-width)"/>
	<path d="m231.23 329.19c1.099 0.536 2.263 0.79 3.408 0.79 2.884 0 5.655-1.608 7.004-4.374l26.371-54.06c1.885-3.865 0.28-8.527-3.584-10.413-3.866-1.885-8.527-0.28-10.413 3.584l-26.371 54.06c-1.885 3.866-0.28 8.528 3.585 10.413z" fill="param(fill)" fill-opacity="param(fill-opacity)" stroke="param(outline)" stroke-opacity="param(outline-opacity)" stroke-width="param(outline-width)"/>
	<path d="m256.28 327.64c1.516 1.485 3.483 2.226 5.45 2.226 2.019 0 4.037-0.781 5.562-2.337l32.305-32.963c3.01-3.071 2.96-8.001-0.111-11.011-3.072-3.012-8.004-2.96-11.011 0.111l-32.304 32.963c-3.012 3.07-2.963 8 0.109 11.011z" fill="param(fill)" fill-opacity="param(fill-opacity)" stroke="param(outline)" stroke-opacity="param(outline-opacity)" stroke-width="param(outline-width)"/>
	<path d="m182.18 325.1c1.224 3.033 4.142 4.875 7.223 4.875 0.97 0 1.957-0.183 2.911-0.568 3.988-1.609 5.917-6.146 4.307-10.135l-22.745-56.367c-1.609-3.989-6.148-5.916-10.134-4.307-3.988 1.609-5.917 6.146-4.307 10.134l22.745 56.368z" fill="param(fill)" fill-opacity="param(fill-opacity)" stroke="param(outline)" stroke-opacity="param(outline-opacity)" stroke-width="param(outline-width)"/>
	<path d="m156.81 327.58c1.521 1.521 3.513 2.281 5.506 2.281s3.985-0.761 5.506-2.281c3.041-3.041 3.041-7.971 0-11.012l-31.975-31.974c-3.041-3.041-7.971-3.041-11.012 0s-3.041 7.971 0 11.012l31.975 31.974z" fill="param(fill)" fill-opacity="param(fill-opacity)" stroke="param(outline)" stroke-opacity="param(outline-opacity)" stroke-width="param(outline-width)"/>
	<path d="m411.59 233.86h0.032c4.286 0 7.769-3.466 7.785-7.756l0.33-83.398c0.018-4.3-3.455-7.8-7.755-7.817h-0.032c-4.286 0-7.769 3.466-7.785 7.756l-0.33 83.398c-0.018 4.3 3.455 7.8 7.755 7.817z" fill="param(fill)" fill-opacity="param(fill-opacity)" stroke="param(outline)" stroke-opacity="param(outline-opacity)" stroke-width="param(outline-width)"/>
	<path d="m431.23 233.19c1.1 0.536 2.263 0.79 3.408 0.79 2.884 0 5.655-1.609 7.004-4.375l26.37-54.06c1.886-3.865 0.281-8.526-3.584-10.412-3.868-1.886-8.527-0.28-10.412 3.585l-26.37 54.06c-1.885 3.865-0.281 8.527 3.584 10.412z" fill="param(fill)" fill-opacity="param(fill-opacity)" stroke="param(outline)" stroke-opacity="param(outline-opacity)" stroke-width="param(outline-width)"/>
	<path d="m456.28 231.64c1.516 1.485 3.483 2.226 5.449 2.226 2.02 0 4.037-0.781 5.563-2.336l32.305-32.963c3.01-3.071 2.96-8.001-0.111-11.011-3.072-3.012-8.002-2.959-11.012 0.111l-32.305 32.963c-3.01 3.07-2.96 8 0.111 11.01z" fill="param(fill)" fill-opacity="param(fill-opacity)" stroke="param(outline)" stroke-opacity="param(outline-opacity)" stroke-width="param(outline-width)"/>
	<path d="m382.18 229.1c1.224 3.034 4.142 4.875 7.224 4.875 0.97 0 1.956-0.183 2.911-0.568 3.987-1.609 5.916-6.146 4.307-10.134l-22.745-56.368c-1.609-3.988-6.145-5.917-10.135-4.307-3.987 1.609-5.916 6.146-4.307 10.134l22.745 56.368z" fill="param(fill)" fill-opacity="param(fill-opacity)" stroke="param(outline)" stroke-opacity="param(outline-opacity)" stroke-width="param(outline-width)"/>
	<path d="m356.81 231.58c1.521 1.521 3.513 2.281 5.506 2.281s3.985-0.76 5.506-2.281c3.041-3.041 3.041-7.971 0-11.012l-31.975-31.975c-3.041-3.041-7.971-3.041-11.012 0s-3.041 7.971 0 11.012l31.975 31.975z" fill="param(fill)" fill-opacity="param(fill-opacity)" stroke="param(outline)" stroke-opacity="param(outline-opacity)" stroke-width="param(outline-width)"/>
	<path d="m516.07 388.75h-169.65c-3.313 0-6 2.687-6 6s2.687 6 6 6h169.65c3.313 0 6-2.687 6-6s-2.686-6-6-6z" fill="param(fill)" fill-opacity="param(fill-opacity)" stroke="param(outline)" stroke-opacity="param(outline-opacity)" stroke-width="param(outline-width)"/>
</svg>
