<?xml version="1.0" encoding="UTF-8"?>
<svg width="580px" height="580px" enable-background="new 0 0 580 580" version="1.1" viewBox="0 0 580 580" xmlns="http://www.w3.org/2000/svg">
	<path d="m185.98 194.89h-0.031c-4.286 0-7.769 3.466-7.786 7.756l-0.33 83.398c-0.017 4.3 3.456 7.801 7.756 7.817h0.031c4.286 0 7.769-3.466 7.786-7.756l0.33-83.398c0.017-4.3-3.455-7.8-7.756-7.817z" fill="param(fill)" fill-opacity="param(fill-opacity)" stroke="param(outline)" stroke-opacity="param(outline-opacity)" stroke-width="param(outline-width)"/>
	<path d="m205.23 293.19c1.099 0.536 2.263 0.79 3.408 0.79 2.884 0 5.655-1.608 7.004-4.375l26.371-54.06c1.885-3.865 0.28-8.527-3.584-10.413-3.866-1.886-8.527-0.28-10.413 3.584l-26.371 54.06c-1.885 3.867-0.28 8.529 3.585 10.414z" fill="param(fill)" fill-opacity="param(fill-opacity)" stroke="param(outline)" stroke-opacity="param(outline-opacity)" stroke-width="param(outline-width)"/>
	<path d="m262.47 247.66-32.304 32.963c-3.01 3.071-2.96 8.001 0.111 11.011 1.516 1.485 3.483 2.226 5.45 2.226 2.019 0 4.037-0.78 5.562-2.337l32.304-32.963c3.01-3.071 2.96-8.001-0.111-11.012-3.072-3.009-8.003-2.959-11.012 0.112z" fill="param(fill)" fill-opacity="param(fill-opacity)" stroke="param(outline)" stroke-opacity="param(outline-opacity)" stroke-width="param(outline-width)"/>
	<path d="m147.88 226.91c-1.609-3.989-6.147-5.917-10.134-4.307-3.988 1.609-5.917 6.146-4.307 10.134l22.745 56.368c1.224 3.033 4.142 4.875 7.223 4.875 0.97 0 1.957-0.183 2.911-0.567 3.988-1.609 5.917-6.147 4.307-10.135l-22.745-56.368z" fill="param(fill)" fill-opacity="param(fill-opacity)" stroke="param(outline)" stroke-opacity="param(outline-opacity)" stroke-width="param(outline-width)"/>
	<path d="m109.85 248.6c-3.041-3.041-7.971-3.041-11.012 0s-3.041 7.971 0 11.012l31.975 31.975c1.521 1.521 3.513 2.28 5.506 2.28s3.985-0.76 5.506-2.28c3.041-3.041 3.041-7.972 0-11.012l-31.975-31.975z" fill="param(fill)" fill-opacity="param(fill-opacity)" stroke="param(outline)" stroke-opacity="param(outline-opacity)" stroke-width="param(outline-width)"/>
	<path d="m385.99 98.892h-0.032c-4.286 0-7.769 3.466-7.785 7.756l-0.33 83.398c-0.018 4.3 3.455 7.8 7.755 7.817h0.032c4.286 0 7.769-3.466 7.785-7.756l0.33-83.398c0.018-4.3-3.455-7.8-7.755-7.817z" fill="param(fill)" fill-opacity="param(fill-opacity)" stroke="param(outline)" stroke-opacity="param(outline-opacity)" stroke-width="param(outline-width)"/>
	<path d="m438.43 129.13c-3.867-1.887-8.527-0.279-10.412 3.585l-26.37 54.06c-1.886 3.865-0.281 8.526 3.584 10.412 1.1 0.536 2.263 0.79 3.408 0.79 2.884 0 5.655-1.609 7.004-4.375l26.37-54.06c1.885-3.864 0.281-8.526-3.584-10.412z" fill="param(fill)" fill-opacity="param(fill-opacity)" stroke="param(outline)" stroke-opacity="param(outline-opacity)" stroke-width="param(outline-width)"/>
	<path d="m473.48 151.55c-3.072-3.011-8.002-2.959-11.012 0.111l-32.305 32.963c-3.01 3.071-2.96 8.001 0.111 11.011 1.516 1.485 3.483 2.226 5.449 2.226 2.02 0 4.037-0.781 5.563-2.336l32.305-32.963c3.01-3.072 2.961-8.002-0.111-11.012z" fill="param(fill)" fill-opacity="param(fill-opacity)" stroke="param(outline)" stroke-opacity="param(outline-opacity)" stroke-width="param(outline-width)"/>
	<path d="m356.18 193.1c1.224 3.034 4.142 4.875 7.224 4.875 0.97 0 1.956-0.183 2.911-0.568 3.987-1.609 5.916-6.146 4.307-10.134l-22.745-56.368c-1.609-3.988-6.145-5.917-10.135-4.307-3.987 1.609-5.916 6.146-4.307 10.134l22.745 56.368z" fill="param(fill)" fill-opacity="param(fill-opacity)" stroke="param(outline)" stroke-opacity="param(outline-opacity)" stroke-width="param(outline-width)"/>
	<path d="m336.32 197.86c1.993 0 3.985-0.76 5.506-2.281 3.041-3.041 3.041-7.971 0-11.012l-31.975-31.975c-3.041-3.041-7.971-3.041-11.012 0s-3.041 7.971 0 11.012l31.975 31.975c1.521 1.521 3.513 2.281 5.506 2.281z" fill="param(fill)" fill-opacity="param(fill-opacity)" stroke="param(outline)" stroke-opacity="param(outline-opacity)" stroke-width="param(outline-width)"/>
	<path d="m289.98 344.89c-0.01 0-0.021-1e-3 -0.031-1e-3 -4.286 0-7.769 3.467-7.786 7.756l-0.33 83.398c-0.017 4.301 3.456 7.801 7.756 7.817 0.01 0 0.021 1e-3 0.031 1e-3 4.287 0 7.769-3.467 7.786-7.756l0.33-83.398c0.017-4.301-3.455-7.801-7.756-7.817z" fill="param(fill)" fill-opacity="param(fill-opacity)" stroke="param(outline)" stroke-opacity="param(outline-opacity)" stroke-width="param(outline-width)"/>
	<path d="m342.43 375.13c-3.868-1.886-8.528-0.28-10.412 3.584l-26.37 54.06c-1.886 3.865-0.281 8.527 3.584 10.412 1.1 0.536 2.263 0.79 3.408 0.79 2.884 0 5.655-1.608 7.004-4.374l26.37-54.06c1.885-3.865 0.281-8.527-3.584-10.412z" fill="param(fill)" fill-opacity="param(fill-opacity)" stroke="param(outline)" stroke-opacity="param(outline-opacity)" stroke-width="param(outline-width)"/>
	<path d="m366.47 397.66-32.305 32.964c-3.01 3.071-2.96 8.002 0.111 11.012 1.516 1.485 3.483 2.226 5.449 2.226 2.02 0 4.037-0.781 5.563-2.337l32.305-32.964c3.01-3.071 2.96-8.002-0.111-11.012-3.073-3.011-8.003-2.959-11.012 0.111z" fill="param(fill)" fill-opacity="param(fill-opacity)" stroke="param(outline)" stroke-opacity="param(outline-opacity)" stroke-width="param(outline-width)"/>
	<path d="m251.88 376.91c-1.609-3.988-6.147-5.918-10.134-4.307-3.988 1.609-5.917 6.146-4.307 10.135l22.745 56.367c1.224 3.033 4.142 4.875 7.223 4.875 0.97 0 1.957-0.183 2.911-0.568 3.988-1.609 5.917-6.146 4.307-10.135l-22.745-56.367z" fill="param(fill)" fill-opacity="param(fill-opacity)" stroke="param(outline)" stroke-opacity="param(outline-opacity)" stroke-width="param(outline-width)"/>
	<path d="m213.85 398.6c-3.041-3.041-7.972-3.042-11.012 0-3.041 3.041-3.041 7.971 0 11.012l31.975 31.976c1.521 1.521 3.513 2.281 5.506 2.281s3.986-0.761 5.506-2.281c3.041-3.041 3.041-7.971 0-11.012l-31.975-31.976z" fill="param(fill)" fill-opacity="param(fill-opacity)" stroke="param(outline)" stroke-opacity="param(outline-opacity)" stroke-width="param(outline-width)"/>
</svg>
