<?xml version="1.0" encoding="UTF-8"?>
<svg width="580px" height="580px" enable-background="new 0 0 580 580" version="1.1" viewBox="0 0 580 580" xmlns="http://www.w3.org/2000/svg">
	<g fill="param(fill)" fill-opacity="param(fill-opacity)" opacity=".5" stroke="param(outline)" stroke-opacity="param(outline-opacity)" stroke-width="param(outline-width)">
		<path d="m172.06 131.27c9.719 0 19.332-0.57 28.799-1.712 32.468-3.916 63.303-14.61 91.741-31.779 9.934 5.615 39.271 20.814 79.619 29.44 18.855 4.031 37.541 6.051 55.842 6.051 9.719 0 19.332-0.57 28.799-1.712 34.175-4.122 66.545-15.738 96.21-34.526l-5.35-8.448c-64.201 40.66-129.55 38.175-173.07 28.929-47.458-10.083-80.089-30.162-80.411-30.362l-1.072 1.719-1.447-2.286c-64.202 40.661-129.55 38.174-173.07 28.929-47.46-10.084-80.09-30.163-80.412-30.363l-5.292 8.485c1.373 0.856 34.188 21.09 83.271 31.583 18.856 4.031 37.542 6.052 55.842 6.052z"/>
		<path d="m374.65 157.51c-47.458-10.083-80.089-30.162-80.411-30.362l-1.072 1.719-1.447-2.286c-64.202 40.661-129.55 38.173-173.07 28.929-47.458-10.083-80.089-30.162-80.411-30.362l-5.292 8.485c1.373 0.856 34.188 21.09 83.271 31.583 18.855 4.031 37.541 6.051 55.841 6.051 9.719 0 19.332-0.57 28.799-1.712 32.468-3.916 63.303-14.61 91.741-31.779 9.934 5.615 39.271 20.814 79.619 29.44 18.855 4.031 37.541 6.051 55.842 6.051 9.719 0 19.332-0.57 28.799-1.712 34.175-4.122 66.545-15.738 96.21-34.526l-5.35-8.448c-64.201 40.66-129.55 38.174-173.07 28.929z"/>
		<path d="m374.65 197.51c-47.458-10.083-80.089-30.162-80.411-30.362l-1.072 1.719-1.447-2.286c-64.202 40.661-129.55 38.173-173.07 28.929-47.458-10.083-80.089-30.162-80.411-30.362l-5.292 8.485c1.373 0.856 34.188 21.09 83.271 31.583 18.855 4.031 37.541 6.051 55.841 6.051 9.719 0 19.332-0.57 28.799-1.712 32.468-3.916 63.303-14.61 91.741-31.779 9.934 5.615 39.271 20.814 79.619 29.44 18.855 4.031 37.541 6.051 55.842 6.051 9.719 0 19.332-0.57 28.799-1.712 34.175-4.122 66.545-15.738 96.21-34.526l-5.35-8.448c-64.201 40.66-129.55 38.174-173.07 28.929z"/>
	</g>
	<path d="m420.61 502.34c-53.384-71.258-82.473-173.46-97.476-246.64-14.682-71.618-19.542-131.49-20.685-154.15v-8.03c0-2.085-0.648-4.016-1.749-5.612-1.722-2.816-4.802-4.712-8.335-4.751-5.476-0.042-10.017 4.396-10.017 9.903v8.949c-1.143 22.661-6.003 82.53-20.685 154.15-15.003 73.186-44.092 175.38-97.476 246.64-3.28 4.378-2.39 10.586 1.988 13.865 1.781 1.334 3.865 1.979 5.931 1.979 3.013 0 5.989-1.37 7.935-3.967 13.182-17.596 25.519-37.721 36.934-60.15 1.102-0.326 2.148-0.899 3.047-1.732l72.42-67.038 72.421 67.038c0.946 0.877 2.054 1.467 3.218 1.782 11.343 22.225 23.592 42.179 36.674 59.641 1.945 2.598 4.921 3.967 7.935 3.967 2.065 0 4.15-0.645 5.931-1.979 4.379-3.279 5.27-9.487 1.989-13.865zm-148.02-204.34 10.807 10.004-17.601 16.293c2.356-8.606 4.621-17.374 6.794-26.297zm20.029 18.541 26.252 24.301c-0.747 0.335-1.456 0.788-2.09 1.376l-24.334 22.525-24.333-22.525c-0.569-0.526-1.197-0.948-1.859-1.271l26.364-24.406zm26.412 7.374-17.189-15.911 10.546-9.762c2.127 8.708 4.343 17.268 6.643 25.673zm-26.594-128.57c2.913 19.779 6.613 41.493 11.296 64.335 1.702 8.303 3.485 16.486 5.338 24.56l-16.451 15.228-16.722-15.479c1.794-7.844 3.524-15.788 5.176-23.848 4.719-23.021 8.44-44.894 11.363-64.796zm-59.199 224.21c3.759-8.863 7.396-18.007 10.899-27.439 4.63-12.469 9.039-25.439 13.216-38.869 0.095 0.098 0.184 0.198 0.284 0.291l23.459 21.716-47.858 44.301zm70.56-44.302 23.46-21.716c0.114-0.105 0.217-0.22 0.323-0.331 4.139 13.281 8.504 26.11 13.087 38.449 3.587 9.656 7.315 19.007 11.17 28.067l-48.04-44.469z" fill="param(fill)" fill-opacity="param(fill-opacity)" stroke="param(outline)" stroke-opacity="param(outline-opacity)" stroke-width="param(outline-width)"/>
</svg>
