<?xml version="1.0" encoding="UTF-8"?>
<svg width="580px" height="580px" enable-background="new 0 0 580 580" version="1.1" viewBox="0 0 580 580" xmlns="http://www.w3.org/2000/svg">
	<path d="m134.64 99.167h306.31c11.094 0 20.087 8.994 20.087 20.088v112.56c0 11.094-8.993 20.088-20.087 20.088h-306.31c-11.094 0-20.088-8.994-20.088-20.088v-112.56c0-11.094 8.994-20.088 20.088-20.088z" enable-background="new    " fill="param(fill)" fill-opacity="param(fill-opacity)" opacity=".25"/>
	<path d="m465.79 50.074c-6.903 0-12.5 5.597-12.5 12.5v18.653c-14.698 5.56-31.304 6.816-46.137 0.898-18.026-5.888-37.567-14.063-56.399-7.006-18.064 5.243-37.83 13.609-56.538 6.1-12.047-3.717-23.725-10.379-36.688-10.031-23.396 1.433-43.654 20.159-67.781 15.375-18.406-3.499-35.774-17.696-55.156-11.344-4.18 1.004-8.258 2.337-12.302 3.775v-16.42c0-6.903-5.597-12.5-12.5-12.5-6.904 0-12.5 5.597-12.5 12.5v197.25c0 6.903 5.596 12.5 12.5 12.5h45.524l-19.514 268.24c-0.601 8.262 5.61 15.447 13.872 16.049 0.371 0.026 0.738 0.04 1.104 0.04 7.789 0 14.371-6.021 14.945-13.913l1.411-19.395 120.14-62.638 123.85 64.577c0.479 0.249 0.973 0.431 1.472 0.569l1.229 16.887c0.573 7.892 7.155 13.912 14.944 13.912 0.365 0 0.733-0.014 1.104-0.04 8.263-0.602 14.474-7.787 13.873-16.049l-19.516-268.24h41.563c6.903 0 12.5-5.597 12.5-12.5v-197.25c1e-3 -6.903-5.596-12.5-12.499-12.5zm-281.81 241.72 85.858 39.9-91.867 42.694 6.009-82.594zm103.65 48.171 105.09 48.839-105.45 54.982-105.11-54.804 105.47-49.017zm114.09 36.481-96.296-44.752 89.998-41.825 6.298 86.577zm-7.576-104.12 0.113 1.549-106.63 49.554-102.49-47.63 0.253-3.473h208.76zm-225.74 233.44 7.501-103.11 95.132 49.601-102.63 53.511zm135.08-53.512 99.957-52.116 7.882 108.34-107.84-56.227zm-181.2-204.92v-138.08c14.357-4.792 30.059-7.174 44.052-0.302 14.213 5.725 29.892 13.107 45.25 6.938 19.469-6.251 40.229-18.895 61.344-11.656 16.817 5.052 34.481 15.365 52.368 8.85 19.549-5.565 40.534-14.264 60.944-7.1 18.851 5.225 38.758 15.874 58.375 8.406 2.242-1.294 6.16-1.526 8.668-2.769v135.72h-331z" fill="param(fill)" fill-opacity="param(fill-opacity)" stroke="param(outline)" stroke-opacity="param(outline-opacity)" stroke-width="param(outline-width)"/>
</svg>
