<?xml version="1.0" encoding="UTF-8"?>
<svg width="580px" height="580px" enable-background="new 0 0 580 580" version="1.1" viewBox="0 0 580 580" xmlns="http://www.w3.org/2000/svg">
	<g transform="matrix(48.15 0 0 48.15 -1210.2 -51.871)" display="none" fill="none" stroke="#757575" stroke-width=".1">
		<rect x="1" y="1" width="10" height="10" display="inline"/>
		<rect x="2" y="2" width="8" height="8" display="inline"/>
	</g>
	<g transform="matrix(48.15 0 0 48.15 -1870.5 102.97)" display="none" fill="none" stroke="#757575" stroke-width=".1">
		<rect x="1" y="1" width="10" height="10" display="inline"/>
		<rect x="2" y="2" width="8" height="8" display="inline"/>
	</g>
	<g transform="matrix(48.15 0 0 48.15 -1210.2 -182.07)" display="none" fill="none" stroke="#757575" stroke-width=".1">
		<rect x="1" y="1" width="10" height="10" display="inline"/>
		<rect x="2" y="2" width="8" height="8" display="inline"/>
	</g>
	<path d="m493.94 42.936c-1.612-0.996-3.741-1.093-5.438-0.249 0 0-42.59 20.844-77.188 20.844-16.987 0-34.774-6.531-52.344-13.406s-34.842-14.156-51.844-14.156-37.763 7.174-58.813 14.063-42.297 13.5-57.625 13.5c-15.307 0-34.853-6.66-50.219-13.5-10.274-4.573-18.678-9.133-23.124-11.655-0.297-2.712-2.813-5.062-5.563-5.064h-16.405c-2.928 2e-3 -5.591 2.666-5.594 5.594v518.66c2e-3 2.929 2.666 5.592 5.594 5.594h16.406c2.928-2e-3 5.591-2.665 5.594-5.594v-223.4c0.198 0.175 0.393 0.351 0.594 0.524 5.896 5.101 13.582 9.763 22.031 13.875 16.899 8.225 36.447 14.219 50.688 14.219 18.381 0 40.006-7.161 61.094-14.063s41.701-13.5 55.344-13.5c13.644 0 30.078 6.491 47.75 13.406s36.651 14.156 56.438 14.156c38.951 0 82.188-22.031 82.188-22.031 1.846-0.923 3.091-2.937 3.094-5v-288.06c-6e-3 -1.896-1.046-3.756-2.658-4.752z" fill="param(fill)" fill-opacity="param(fill-opacity)" stroke="param(outline)" stroke-opacity="param(outline-opacity)" stroke-width="param(outline-width)"/>
</svg>
