<?xml version="1.0" encoding="UTF-8"?>
<svg width="580px" height="580px" enable-background="new 0 0 580 580" version="1.1" viewBox="0 0 580 580" xmlns="http://www.w3.org/2000/svg">
	<g transform="matrix(48.15 0 0 48.15 -536.27 -33.307)" display="none" fill="none" stroke="#757575" stroke-width=".1">
		<rect x="1" y="1" width="10" height="10" display="inline"/>
		<rect x="2" y="2" width="8" height="8" display="inline"/>
	</g>
	<path d="m498.52 207.02-34.72-33.092c-1.446-1.379-3.295-2.261-5.277-2.518l-138.87-18.002v-3.292l98.878-26.703c2.294-0.62 4.251-2.12 5.444-4.175l20.986-36.122c2.34-4.026 1.228-9.171-2.565-11.873l-21.726-15.47c-2.173-1.546-4.915-2.051-7.495-1.382l-93.522 24.283v-34.651c0-5.163-4.186-9.349-9.349-9.349h-45.572c-2.481 0-4.86 0.986-6.614 2.741-1.753 1.755-2.737 4.135-2.735 6.616l0.04 41.955-95.201-24.718c-2.583-0.67-5.324-0.164-7.495 1.382l-21.725 15.471c-3.793 2.701-4.905 7.846-2.566 11.873l20.986 36.122c1.194 2.055 3.151 3.555 5.445 4.175l100.62 27.175 6e-3 6.101-147.8 39.412c-1.882 0.502-3.562 1.576-4.807 3.074l-34.719 41.771c-1.778 2.14-2.518 4.958-2.019 7.695 0.5 2.737 2.186 5.113 4.605 6.487l33.905 19.259c1.43 0.813 3.031 1.227 4.643 1.227 0.964 0 1.933-0.148 2.869-0.449l143.39-45.972 0.292 307.06c5e-3 5.159 4.189 9.34 9.349 9.34h45.097c5.163 0 9.349-4.186 9.349-9.349v-318.42l136.7 26.297c0.59 0.113 1.185 0.169 1.775 0.169 2.163 0 4.28-0.747 5.978-2.146l33.906-27.938c2.075-1.71 3.319-4.228 3.416-6.915 0.098-2.688-0.96-5.289-2.908-7.144z" fill="param(fill)" fill-opacity="param(fill-opacity)" stroke="param(outline)" stroke-opacity="param(outline-opacity)" stroke-width="param(outline-width)"/>
	<path d="m152.86-175.07c1.811 0 3.606-0.545 5.137-1.606 2.475-1.716 3.93-4.554 3.878-7.565l-0.986-56.982c-0.074-4.234-3.083-7.847-7.235-8.682l-111.59-22.465c-3.13-0.629-6.361 0.443-8.493 2.821l-13.045 14.555c-2.655 2.962-3.055 7.313-0.984 10.709l12.306 20.187c1.022 1.676 2.563 2.973 4.389 3.694l113.32 44.705c1.069 0.422 2.191 0.629 3.308 0.629z" fill="param(fill)" fill-opacity="param(fill-opacity)" stroke="param(outline)" stroke-opacity="param(outline-opacity)" stroke-width="param(outline-width)"/>
</svg>
