<?xml version="1.0" encoding="UTF-8"?>
<svg width="580px" height="580px" enable-background="new 0 0 580 580" version="1.1" viewBox="0 0 580 580" xmlns="http://www.w3.org/2000/svg">
	<path d="m459.48 282.72c0 94.344-76.48 170.83-170.82 170.83s-170.82-76.482-170.82-170.83 76.481-170.82 170.82-170.82 170.82 76.481 170.82 170.82z" enable-background="new    " fill="param(fill)" fill-opacity="param(fill-opacity)" opacity=".1"/>
	<path d="m469.72 328.67h22.226c22.092 0 40-17.908 40-40 0-22.091-17.908-40-40-40h-22.226c-1.849 0-3.663 0.136-5.445 0.379-4.16-21.746-12.269-42.104-23.554-60.3 2.43-1.545 4.733-3.368 6.854-5.488l60.563-60.563c15.621-15.621 15.621-40.947 0-56.568s-40.947-15.621-56.568 0l-60.563 60.563c-1.901 1.902-3.567 3.949-5.007 6.104-16.856-10.982-35.668-19.2-55.792-24.008 0.402-2.276 0.624-4.614 0.624-7.005v-22.226c0-22.091-17.908-40-40-40-22.091 0-40 17.909-40 40v22.225c0 2.06 0.156 4.083 0.457 6.058-22.008 4.698-42.527 13.456-60.737 25.452-1.511-2.336-3.282-4.553-5.329-6.6l-60.563-60.563c-15.621-15.621-40.947-15.621-56.568 0s-15.621 40.947 0 56.568l60.563 60.563c2.345 2.345 4.912 4.331 7.628 5.972-11.087 18.003-19.068 38.11-23.205 59.571-1.035-0.08-2.077-0.134-3.132-0.134h-22.226c-22.091 0-40 17.909-40 40 0 22.092 17.909 40 40 40h22.226c1.961 0 3.888-0.147 5.773-0.421 4.854 18.419 12.575 35.685 22.663 51.287-3.5 1.834-6.786 4.221-9.728 7.162l-60.564 60.564c-15.621 15.621-15.621 40.947 0 56.568 7.811 7.811 18.047 11.716 28.284 11.716s20.474-3.905 28.284-11.716l60.563-60.563c2.981-2.981 5.39-6.318 7.233-9.872 17.727 11.357 37.584 19.664 58.822 24.198-0.291 1.946-0.445 3.938-0.445 5.965v22.225c0 22.092 17.909 40 40 40 22.092 0 40-17.908 40-40v-22.225c0-2.359-0.216-4.666-0.607-6.913 19.342-4.623 37.472-12.395 53.818-22.746 1.808 3.365 4.124 6.528 6.964 9.368l60.563 60.563c7.811 7.811 18.047 11.716 28.284 11.716s20.474-3.905 28.284-11.716c15.621-15.621 15.621-40.947 0-56.568l-60.562-60.564c-2.719-2.719-5.735-4.953-8.939-6.725 10.298-15.827 18.163-33.373 23.055-52.11 2.593 0.529 5.279 0.807 8.029 0.807zm-47.074 46.461c-11.324-0.947-22.974 2.902-31.639 11.567-8.542 8.542-12.401 19.985-11.602 31.157-16.494 11.112-35.124 19.28-55.132 23.763-7.149-10.875-19.453-18.061-33.441-18.061-14.333 0-26.899 7.544-33.962 18.873-21.886-4.349-42.205-13.095-59.996-25.279 0.591-10.947-3.29-22.091-11.652-30.453-8.403-8.403-19.614-12.278-30.613-11.641-10.823-15.663-18.978-33.301-23.795-52.261 11.474-7.031 19.131-19.684 19.131-34.127 0-15.393-8.7-28.746-21.445-35.434 3.903-21.255 11.945-41.08 23.26-58.604 1.719 0.223 3.448 0.344 5.178 0.344 10.237 0 20.474-3.905 28.284-11.716 9.438-9.438 13.164-22.417 11.197-34.659 17.915-12.358 38.412-21.224 60.506-25.605 7.073 11.28 19.61 18.786 33.906 18.786 13.952 0 26.229-7.147 33.387-17.976 20.238 4.526 39.067 12.825 55.704 24.126-2.214 12.437 1.475 25.718 11.084 35.328 7.811 7.811 18.047 11.716 28.284 11.716 2.062 0 4.122-0.166 6.163-0.483 11.576 17.887 19.741 38.176 23.569 59.941-11.571 7.01-19.304 19.719-19.304 34.235 0 13.571 6.765 25.556 17.099 32.787-4.775 19.499-13.069 37.628-24.171 53.676z" fill="param(fill)" fill-opacity="param(fill-opacity)" stroke="param(outline)" stroke-miterlimit="10" stroke-opacity="param(outline-opacity)" stroke-width="param(outline-width)"/>
</svg>
