<?xml version="1.0" encoding="UTF-8"?>
<svg width="580px" height="580px" enable-background="new 0 0 580 580" version="1.1" viewBox="0 0 580 580" xmlns="http://www.w3.org/2000/svg">
	<path d="m267.44 358.48c-4.205-4.073-8.409-8.147-12.62-12.215-1.929-1.862-4.524-2.888-7.207-2.804-2.682 0.069-5.223 1.213-7.052 3.174l-4.821 5.162c-2.637 2.822-5.274 5.644-7.892 8.456l-123.25 131.84c-1.826 1.953-2.793 4.556-2.687 7.228 0.106 2.671 1.278 5.188 3.254 6.99l23.782 21.687c1.847 1.685 4.251 2.611 6.738 2.611 0.174 0 0.348-5e-3 0.522-0.014 2.67-0.14 5.172-1.342 6.95-3.339l119.95-134.83c2.189-2.45 4.372-4.907 6.554-7.364 1.764-1.986 3.528-3.973 5.296-5.955 3.569-4.004 3.345-10.11-0.509-13.841l-7.012-6.792z" fill="param(fill)" fill-opacity="param(fill-opacity)" stroke="param(outline)" stroke-opacity="param(outline-opacity)" stroke-width="param(outline-width)"/>
	<path d="m549.05 272.75c-2.955-4.617-13.226-27.54-20.782-44.408-20.068-44.797-24.617-53.919-28.609-57.404-7.051-6.18-15.026-13.266-23.405-20.794l10.259-9.991c2.021-1.967 3.116-4.696 3.018-7.514-0.099-2.818-1.383-5.464-3.536-7.285l-13.781-11.656c-3.944-3.337-9.78-3.119-13.465 0.5l-10.593 10.402c-18.909-17.467-42.191-39.573-57.808-56.463-3.68-3.978-9.859-4.304-13.934-0.731l-51.594 45.219c-2.089 1.831-3.322 4.447-3.404 7.222-0.083 2.776 0.992 5.461 2.967 7.413l62.876 62.115c-26.175 28.349-51.9 55.905-71.808 77.19-1.813 1.938-2.781 4.519-2.69 7.172s1.232 5.161 3.174 6.972c5.981 5.579 11.953 11.157 17.93 16.743 1.856 1.734 4.299 2.694 6.828 2.694 0.153 0 0.308-4e-3 0.462-0.011 2.692-0.125 5.221-1.331 7.012-3.346 28.816-32.416 51.493-57.775 72.791-81.399 8.38 5.463 24.955 20.992 27.983 25.28 0.924 1.383 2.179 2.515 3.651 3.291l84.594 44.594c1.626 0.857 3.384 1.226 5.11 1.145 5.325-0.224 9.572-4.612 9.572-9.991-1e-3 -2.706-1.074-5.16-2.818-6.959z" fill="param(fill)" fill-opacity="param(fill-opacity)" stroke="param(outline)" stroke-opacity="param(outline-opacity)" stroke-width="param(outline-width)"/>
	<path d="m368.23 360.83c-22.144-21.29-44.724-42.871-66.56-63.741-35.823-34.238-72.864-69.641-108.98-104.71-1.308-1.308-2.732-2.445-4.111-3.546-0.256-0.205-0.55-0.439-0.857-0.688l75.559-54.561c2.183-1.577 3.638-3.967 4.036-6.631 0.397-2.664-0.296-5.375-1.924-7.521l-39.515-52.089c-3.25-4.283-9.306-5.231-13.708-2.144-5.124 3.593-10.26 7.156-15.392 10.717-29.903 20.749-60.824 42.203-87.775 68.608-0.042 0.041-0.083 0.082-0.124 0.123-19.511 19.792-34.759 43.14-49.504 65.719-7.352 11.257-14.954 22.897-22.896 33.771-1.565 2.143-2.214 4.819-1.805 7.441 0.41 2.622 1.844 4.973 3.987 6.536l52.823 38.529c2.176 1.586 4.897 2.227 7.556 1.781 2.655-0.447 5.018-1.947 6.553-4.16l53.13-76.572c0.255 0.303 0.495 0.591 0.704 0.844 1.126 1.357 2.29 2.759 3.622 4.042 35.734 35.435 71.819 71.794 106.72 106.96 21.287 21.449 43.299 43.629 64.998 65.364l127.25 127.99c1.878 1.888 4.43 2.949 7.092 2.949h0.032c2.674-9e-3 5.232-1.088 7.105-2.996l22.545-22.974c1.872-1.908 2.902-4.486 2.861-7.159-0.042-2.674-1.152-5.219-3.083-7.067l-130.34-124.81z" fill="param(fill)" fill-opacity="param(fill-opacity)" stroke="param(outline)" stroke-opacity="param(outline-opacity)" stroke-width="param(outline-width)"/>
</svg>
