<?xml version="1.0" encoding="UTF-8"?>
<svg width="580px" height="580px" enable-background="new 0 0 580 580" version="1.1" viewBox="0 0 580 580" xmlns="http://www.w3.org/2000/svg">
	<path d="m34.703 408.14c2.367-5.481 32.405-47.876 66.75-94.211 49.255-66.448 74.614-89.479 120.05-109.02 71.126-30.597 142.33-32.355 168.26-4.154 61.336 66.705 124.63 142.88 142.86 171.93 25.686 40.934 12.602 60.074-14.51 21.227-10.688-15.314-40.647-51.885-66.578-81.269-111.09-125.89-111.43-126.02-214.62-82.056-50.718 21.607-70.43 39.487-113.3 102.77-28.543 42.137-61.192 78.444-72.554 80.684-11.361 2.24-18.72-0.413-16.353-5.893z" fill="param(fill)" fill-opacity="param(fill-opacity)" stroke="param(outline)" stroke-opacity="param(outline-opacity)" stroke-width="param(outline-width)"/>
	<path d="m34.703 408.14c2.367-5.481 32.405-47.876 66.75-94.211 49.255-66.448 74.614-89.479 120.05-109.02 71.126-30.597 142.33-32.355 168.26-4.154 61.336 66.705 124.63 142.88 142.86 171.93 34.402 55.715-22.69 62.232-174.09 65.958-80.614 2.313-85.242 0.874-168.92 1.714-39.074-1.123-156.36-19.741-154.91-32.209z" enable-background="new    " fill="param(fill)" fill-opacity="param(fill-opacity)" opacity=".1"/>
	<path d="m150.98 415.18c0-32.367 90.191-134.77 118.7-134.77 45.606 0 92.848 28.288 127.26 76.202 20.306 28.275 36.92 54.521 36.92 58.322 0 3.803-63.646 6.913-141.44 6.913-77.791 0-141.44-3-141.44-6.667z" fill="param(fill)" fill-opacity="param(fill-opacity)" stroke="param(outline)" stroke-opacity="param(outline-opacity)" stroke-width="param(outline-width)"/>
</svg>
