<?xml version="1.0" encoding="UTF-8"?>
<svg width="580px" height="580px" enable-background="new 0 0 580 580" version="1.1" viewBox="0 0 580 580" xmlns="http://www.w3.org/2000/svg">
	<path d="m465.78 444.08c-4.064-3.806-8.268-7.741-12.31-11.688-31.939-30.567-63.913-61.205-95.905-91.861-56.944-54.566-115.78-110.95-173.76-166.27 0.477-0.367 0.933-0.795 1.337-1.301 9.131-6.766 18.578-13.479 27.72-19.975 15.532-11.036 31.592-22.448 46.694-34.533 0.766-0.613 1.335-1.438 1.636-2.372 2.84-8.824-2.811-15.082-6.937-19.651-1.718-1.902-3.34-3.698-4.256-5.41-0.153-0.287-0.334-0.558-0.541-0.81-3.698-4.516-7.244-9.444-10.672-14.21-6.554-9.112-13.332-18.534-21.94-26.303-0.574-0.518-1.26-0.896-2.004-1.104-1.19-0.332-2.457-0.424-3.673-0.269-0.599 0.078-1.178 0.262-1.71 0.546-9.261 4.933-17.764 11.095-25.987 17.054-5.075 3.678-10.324 7.481-15.621 10.892-0.052 0.033-0.103 0.067-0.153 0.103-33.064 23.048-74.474 55.097-101.48 98.741-4.259 6.494-8.677 13.083-12.949 19.456-8.063 12.026-16.399 24.461-24.115 36.91-0.56 0.903-0.817 1.962-0.735 3.021 0.686 8.812 7.36 12.827 12.724 16.054 2.351 1.414 4.572 2.75 6.044 4.286 0.249 0.26 0.526 0.492 0.825 0.693 4.658 3.123 9.324 6.714 13.836 10.188 8.57 6.598 17.433 13.421 27.462 18.122 1.025 0.481 2.184 0.599 3.285 0.335 7.981-1.908 11.865-8.543 14.985-13.874 1.51-2.58 2.936-5.017 4.621-6.761 0.176-0.182 0.338-0.378 0.485-0.585 5.622-7.945 11.224-16.104 16.641-23.996 7.795-11.355 15.825-23.053 24.066-34.324 0.563 0.671 1.123 1.381 1.692 2.104 1.946 2.471 4.14 5.256 7.238 7.422 61.144 61.033 123.04 123.34 182.9 183.61 36.192 36.438 73.616 74.114 110.48 111.12 0.34 0.341 0.728 0.632 1.151 0.862 2.044 1.113 4.169 1.678 6.315 1.678h1e-3c7.011 0 11.936-5.848 15.53-10.118 0.602-0.714 1.177-1.398 1.729-2.013 0.057-0.063 0.112-0.128 0.166-0.194 1.319-1.626 3.145-3.226 5.078-4.92 4.599-4.03 10.322-9.047 10.885-16.875 0.092-1.282-0.313-2.55-1.131-3.54-8.959-10.864-19.479-20.712-29.652-30.237z" fill="param(fill)" fill-opacity="param(fill-opacity)" opacity=".3"/>
	<path d="m261.85 343.05c-1.778-1.439-3.457-2.799-4.543-4.1-0.054-0.064-0.109-0.128-0.167-0.189-0.477-0.516-0.961-1.079-1.461-1.659-3.007-3.487-7.125-8.264-13.433-8.264-1.054 0-2.124 0.141-3.179 0.42-0.505 0.133-0.986 0.345-1.426 0.627-6.124 3.932-10.701 9.249-15.127 14.391-2.838 3.297-5.519 6.411-8.526 9.104-0.114 0.103-0.223 0.209-0.327 0.321-14.699 15.813-29.723 31.841-44.251 47.34-23.607 25.185-48.018 51.226-71.72 77.079-0.513 0.56-0.893 1.229-1.108 1.958-2.866 9.667 4.522 15.488 9.41 19.34 1.565 1.233 3.044 2.398 4.035 3.483 0.205 0.226 0.431 0.431 0.674 0.615 1.372 1.039 2.809 2.547 4.329 4.144 3.909 4.103 8.773 9.21 15.949 9.21 0.658 0 1.329-0.045 1.994-0.134 1.098-0.146 2.116-0.652 2.895-1.439 14.849-15.011 28.939-31.108 42.567-46.676 8.958-10.232 18.22-20.813 27.571-30.938 0.029-0.031 0.057-0.063 0.085-0.094 7.871-8.968 15.99-18.025 23.842-26.784 13.53-15.094 27.521-30.701 40.768-46.43 0.529-0.627 0.895-1.375 1.066-2.178 2.02-9.482-4.879-15.068-9.917-19.147z" fill="param(fill)" fill-opacity="param(fill-opacity)" opacity=".3"/>
	<path d="m543.52 256.57c-7.448-14.142-14.017-29.117-20.371-43.606-7.876-17.958-16.021-36.527-26.003-53.947-0.232-0.407-0.521-0.778-0.857-1.104-5.858-5.678-12.068-11.149-18.073-16.441-2.054-1.81-4.149-3.656-6.229-5.51 0.278-0.241 0.561-0.483 0.845-0.728 5.072-4.359 10.821-9.3 11.727-17.293 0.152-1.344-0.246-2.692-1.104-3.738-6.432-7.825-13.706-15.352-23.305-17.431-0.99-0.213-2.021-0.123-2.959 0.262-5.621 2.31-9.524 6.557-12.968 10.304-0.577 0.628-1.144 1.244-1.706 1.839-20.849-19.38-40.119-38.081-58.8-57.057-0.376-0.381-0.81-0.7-1.286-0.943-2.176-1.114-4.43-1.543-6.591-1.255-0.669 0.088-1.313 0.312-1.892 0.655-7.044 4.174-12.977 9.693-18.715 15.03-3.786 3.521-7.361 6.846-11.229 9.813-0.106 0.082-0.21 0.168-0.31 0.258-2.427 2.194-4.923 4.309-7.565 6.548-6.894 5.84-14.021 11.879-19.629 19.258-0.64 0.84-0.995 1.861-1.019 2.917-0.179 8.244 5.582 13.108 10.212 17.017 2.082 1.758 4.049 3.419 5.281 5.146 0.166 0.232 0.352 0.45 0.555 0.65l48.682 48.114c-10.012 10.888-20.242 21.814-30.169 32.417-13.7 14.633-27.867 29.764-41.535 44.872-0.477 0.527-0.836 1.15-1.053 1.826-3.025 9.426 4.099 15.276 8.813 19.147 1.176 0.965 2.292 1.882 3.14 2.729 3.54 5 9.873 9.921 16.359 9.921 3.738 0 7.067-1.586 9.643-4.603 22.73-26.883 47.074-53.647 70.221-78.873 6.263 3.787 11.53 9.064 17.061 14.604 5.893 5.903 11.985 12.007 19.604 16.481 0.087 0.051 0.176 0.1 0.266 0.146 10.261 5.218 20.628 10.765 30.654 16.13 16.372 8.761 33.302 17.82 50.39 25.784 0.542 0.253 1.125 0.406 1.721 0.453 0.302 0.023 0.598 0.035 0.887 0.035 4.386 0 8.102-2.652 9.698-6.921 1.675-4.486 0.684-9.633-2.391-12.906z" fill="param(fill)" fill-opacity="param(fill-opacity)" opacity=".3"/>
	<path d="m465.78 444.08c-4.064-3.806-8.268-7.741-12.31-11.688-31.939-30.567-63.913-61.205-95.905-91.861-56.944-54.566-115.78-110.95-173.76-166.27 0.477-0.367 0.933-0.795 1.337-1.301 9.131-6.766 18.578-13.479 27.72-19.975 15.532-11.036 31.592-22.448 46.694-34.533 0.766-0.613 1.335-1.438 1.636-2.372 2.84-8.824-2.811-15.082-6.937-19.651-1.718-1.902-3.34-3.698-4.256-5.41-0.153-0.287-0.334-0.558-0.541-0.81-3.698-4.516-7.244-9.444-10.672-14.21-6.554-9.112-13.332-18.534-21.94-26.303-0.574-0.518-1.26-0.896-2.004-1.104-1.19-0.332-2.457-0.424-3.673-0.269-0.599 0.078-1.178 0.262-1.71 0.546-9.261 4.933-17.764 11.095-25.987 17.054-5.075 3.678-10.324 7.481-15.621 10.892-0.052 0.033-0.103 0.067-0.153 0.103-33.064 23.048-74.474 55.097-101.48 98.741-4.259 6.494-8.677 13.083-12.949 19.456-8.063 12.026-16.399 24.461-24.115 36.91-0.56 0.903-0.817 1.962-0.735 3.021 0.686 8.812 7.36 12.827 12.724 16.054 2.351 1.414 4.572 2.75 6.044 4.286 0.249 0.26 0.526 0.492 0.825 0.693 4.658 3.123 9.324 6.714 13.836 10.188 8.57 6.598 17.433 13.421 27.462 18.122 1.025 0.481 2.184 0.599 3.285 0.335 7.981-1.908 11.865-8.543 14.985-13.874 1.51-2.58 2.936-5.017 4.621-6.761 0.176-0.182 0.338-0.378 0.485-0.585 5.622-7.945 11.224-16.104 16.641-23.996 7.795-11.355 15.825-23.053 24.066-34.324 0.563 0.671 1.123 1.381 1.692 2.104 1.946 2.471 4.14 5.256 7.238 7.422 61.144 61.033 123.04 123.34 182.9 183.61 36.192 36.438 73.616 74.114 110.48 111.12 0.34 0.341 0.728 0.632 1.151 0.862 2.044 1.113 4.169 1.678 6.315 1.678h1e-3c7.011 0 11.936-5.848 15.53-10.118 0.602-0.714 1.177-1.398 1.729-2.013 0.057-0.063 0.112-0.128 0.166-0.194 1.319-1.626 3.145-3.226 5.078-4.92 4.599-4.03 10.322-9.047 10.885-16.875 0.092-1.282-0.313-2.55-1.131-3.54-8.959-10.864-19.479-20.712-29.652-30.237z" fill="none" stroke="param(outline)" stroke-opacity="param(outline-opacity)" stroke-width="param(outline-width)"/>
	<path d="m261.85 343.05c-1.778-1.439-3.457-2.799-4.543-4.1-0.054-0.064-0.109-0.128-0.167-0.189-0.477-0.516-0.961-1.079-1.461-1.659-3.007-3.487-7.125-8.264-13.433-8.264-1.054 0-2.124 0.141-3.179 0.42-0.505 0.133-0.986 0.345-1.426 0.627-6.124 3.932-10.701 9.249-15.127 14.391-2.838 3.297-5.519 6.411-8.526 9.104-0.114 0.103-0.223 0.209-0.327 0.321-14.699 15.813-29.723 31.841-44.251 47.34-23.607 25.185-48.018 51.226-71.72 77.079-0.513 0.56-0.893 1.229-1.108 1.958-2.866 9.667 4.522 15.488 9.41 19.34 1.565 1.233 3.044 2.398 4.035 3.483 0.205 0.226 0.431 0.431 0.674 0.615 1.372 1.039 2.809 2.547 4.329 4.144 3.909 4.103 8.773 9.21 15.949 9.21 0.658 0 1.329-0.045 1.994-0.134 1.098-0.146 2.116-0.652 2.895-1.439 14.849-15.011 28.939-31.108 42.567-46.676 8.958-10.232 18.22-20.813 27.571-30.938 0.029-0.031 0.057-0.063 0.085-0.094 7.871-8.968 15.99-18.025 23.842-26.784 13.53-15.094 27.521-30.701 40.768-46.43 0.529-0.627 0.895-1.375 1.066-2.178 2.02-9.482-4.879-15.068-9.917-19.147z" fill="none" stroke="param(outline)" stroke-opacity="param(outline-opacity)" stroke-width="param(outline-width)"/>
	<path d="m543.52 256.57c-7.448-14.142-14.017-29.117-20.371-43.606-7.876-17.958-16.021-36.527-26.003-53.947-0.232-0.407-0.521-0.778-0.857-1.104-5.858-5.678-12.068-11.149-18.073-16.441-2.054-1.81-4.149-3.656-6.229-5.51 0.278-0.241 0.561-0.483 0.845-0.728 5.072-4.359 10.821-9.3 11.727-17.293 0.152-1.344-0.246-2.692-1.104-3.738-6.432-7.825-13.706-15.352-23.305-17.431-0.99-0.213-2.021-0.123-2.959 0.262-5.621 2.31-9.524 6.557-12.968 10.304-0.577 0.628-1.144 1.244-1.706 1.839-20.849-19.38-40.119-38.081-58.8-57.057-0.376-0.381-0.81-0.7-1.286-0.943-2.176-1.114-4.43-1.543-6.591-1.255-0.669 0.088-1.313 0.312-1.892 0.655-7.044 4.174-12.977 9.693-18.715 15.03-3.786 3.521-7.361 6.846-11.229 9.813-0.106 0.082-0.21 0.168-0.31 0.258-2.427 2.194-4.923 4.309-7.565 6.548-6.894 5.84-14.021 11.879-19.629 19.258-0.64 0.84-0.995 1.861-1.019 2.917-0.179 8.244 5.582 13.108 10.212 17.017 2.082 1.758 4.049 3.419 5.281 5.146 0.166 0.232 0.352 0.45 0.555 0.65l48.682 48.114c-10.012 10.888-20.242 21.814-30.169 32.417-13.7 14.633-27.867 29.764-41.535 44.872-0.477 0.527-0.836 1.15-1.053 1.826-3.025 9.426 4.099 15.276 8.813 19.147 1.176 0.965 2.292 1.882 3.14 2.729 3.54 5 9.873 9.921 16.359 9.921 3.738 0 7.067-1.586 9.643-4.603 22.73-26.883 47.074-53.647 70.221-78.873 6.263 3.787 11.53 9.064 17.061 14.604 5.893 5.903 11.985 12.007 19.604 16.481 0.087 0.051 0.176 0.1 0.266 0.146 10.261 5.218 20.628 10.765 30.654 16.13 16.372 8.761 33.302 17.82 50.39 25.784 0.542 0.253 1.125 0.406 1.721 0.453 0.302 0.023 0.598 0.035 0.887 0.035 4.386 0 8.102-2.652 9.698-6.921 1.675-4.486 0.684-9.633-2.391-12.906z" fill="none" stroke="param(outline)" stroke-opacity="param(outline-opacity)" stroke-width="param(outline-width)"/>
</svg>
