<?xml version="1.0" encoding="UTF-8"?>
<svg width="580px" height="580px" enable-background="new 0 0 580 580" version="1.1" viewBox="0 0 580 580" xmlns="http://www.w3.org/2000/svg">
	<path d="m198.88 98.094c14.875-0.59 28.168 10.389 43.156 10.625 15.214 0.121 30.649-9.92 46.938-9.625 16.062 0.234 32.411 11.182 48.813 11.125 16.118-0.355 31.391-12.007 48.188-12.125 12.408-0.042 25.742 6.125 38.5 9.5v-31.375c-12.758-3.35-26.092-9.438-38.5-9.438-16.797 0.119-32.069 11.77-48.188 12.125-16.401 0.058-32.751-10.858-48.813-11.094-16.289-0.413-31.724 9.683-46.938 9.563-14.987-0.293-28.282-11.065-43.156-10.594-15.271 0.594-32.007 12.416-46.938 13.125-0.271 4e-3 -0.542 3e-3 -0.813 0v31.281c0.271 3e-3 0.541 0.036 0.813 0.031 14.931-0.588 31.667-12.71 46.938-13.124z" fill="param(fill)" fill-opacity="param(fill-opacity)" stroke="param(outline)" stroke-opacity="param(outline-opacity)" stroke-width="param(outline-width)"/>
	<path d="m198.88 156.47c14.875-0.473 28.168 10.299 43.156 10.594 15.214 0.118 30.649-9.977 46.938-9.563 16.062 0.237 32.411 11.154 48.813 11.094 16.118-0.353 31.391-12.01 48.188-12.125 12.408 0 25.742 6.088 38.5 9.438v-31.281c-12.759-3.35-26.092-9.438-38.5-9.438-16.797 0.119-32.069 11.741-48.188 12.094-16.401 0.06-32.751-10.856-48.813-11.094-16.289-0.414-31.724 9.681-46.938 9.563-14.519-0.286-27.433-10.393-41.75-10.594-0.462-6e-3 -0.941 0.017-1.406 0.031-15.271 0.59-32.007 12.382-46.938 13.094-0.271 4e-3 -0.542 3e-3 -0.813 0v31.313c0.271 3e-3 0.541 4e-3 0.813 0 14.931-0.713 31.667-12.536 46.938-13.126z" fill="param(fill)" fill-opacity="param(fill-opacity)" stroke="param(outline)" stroke-opacity="param(outline-opacity)" stroke-width="param(outline-width)"/>
	<path d="m441.13 60.696v181h-306.68v-181h-20v191c0 5.523 4.477 10 10 10h112.86c-2.421 18.413-10.862 58.731-25.295 104.9-14.953 47.833-40.154 114.19-75.296 158.66-3.391 4.292-2.661 10.521 1.631 13.912 1.818 1.437 3.983 2.134 6.134 2.134 2.925 0 5.823-1.291 7.778-3.765 7.087-8.97 13.774-18.746 20.068-29.032 0.649-0.254 1.281-0.578 1.865-1.02l111.96-84.686 110.83 83.833c6.622 10.971 13.683 21.394 21.197 30.904 1.955 2.474 4.853 3.765 7.778 3.765 2.149 0 4.315-0.697 6.134-2.134 4.292-3.392 5.022-9.62 1.631-13.912-35.142-44.477-60.343-110.83-75.296-158.66-14.434-46.17-22.874-86.488-25.296-104.9h118c5.522 0 10-4.477 10-10v-191h-20zm-106.39 296.04-38.951-36.056 23.985-22.202c3.652 16.756 8.66 36.742 14.966 58.258zm-6.293 14.615-42.297 31.994-43.839-33.161 42.438-39.283 43.698 40.45zm-92.403-15.806c6.052-20.753 10.893-40.047 14.462-56.342l23.202 21.478-37.664 34.864zm-45.746 120.3c15.406-30.963 27.694-63.638 36.88-91.657l3.559-3.295 42.545 32.182-82.984 62.77zm108.72-62.771 41.002-31.015 3.65 3.379c8.916 27.057 20.696 58.325 35.354 88.154l-80.006-60.518zm17.26-131.8-31.529 29.186-30.727-28.442c1.531-8.136 2.607-15.006 3.221-20.315h55.952c0.596 5.144 1.627 11.763 3.083 19.571z" fill="param(fill)" fill-opacity="param(fill-opacity)" stroke="param(outline)" stroke-opacity="param(outline-opacity)" stroke-width="param(outline-width)"/>
</svg>
