<svg width="24" height="24" fill="none" version="1.1" viewBox="0 0 24 24" xmlns="http://www.w3.org/2000/svg">
   <path d="m12 12h-12c0.0083619-3.2803-0.01678-6.5615 0.012671-9.8412 0.11615-1.3947 1.526-2.3382 2.8625-2.1588h9.1248v12z" fill="#3498db"/>
   <path d="m24 12h-12v-12c3.2803 0.0083619 6.5615-0.01678 9.8412 0.012671 1.3947 0.11615 2.3382 1.526 2.1588 2.8625v9.1248z" fill="#dce8f3"/>
   <path d="m12 24v-12h-12c0.0083619 3.2803-0.01678 6.5615 0.012671 9.8412 0.11615 1.3947 1.526 2.3382 2.8625 2.1588h9.1248z" fill="#dce8f3"/>
   <path d="m24 21.6v-9.6h-12v12c3.2803-0.0084 6.5615 0.01678 9.8412-0.01267 1.183-0.11183 2.1731-1.1954 2.1588-2.3873z" fill="#3498db"/>
   <path d="m12 6h6v6h-6v-6z" fill="#3498db"/>
   <path d="m12 18h-6v-6h6v6z" fill="#3498db"/>
   <path d="m18 0c1.334 0.026053 2.675-0.056834 4.0038 0.050791 1.346 0.23506 2.1574 1.6254 1.9962 2.9244v3.0248h-6v-6z" fill="#3498db"/>
   <path d="m6 24c-1.334-0.026053-2.675 0.056834-4.0038-0.050792-1.346-0.23506-2.1574-1.6254-1.9962-2.9244v-3.0248h6v6z" fill="#3498db"/>
   <path d="m24 12h-24" stroke="#dce8f3"/>
   <path d="m12 24v-24" stroke="#dce8f3"/>
</svg>
