<?xml version="1.0" encoding="UTF-8"?>
<svg width="580px" height="580px" enable-background="new 0 0 580 580" version="1.1" viewBox="0 0 580 580" xmlns="http://www.w3.org/2000/svg">
	<path d="m174.74 55.713c-32.014 0-93.85 81.132-93.85 155.25 0 59.646 27.223 110.18 64.865 127.64l-7.792 176.55h73.553l-7.791-176.55c37.643-17.466 64.864-67.996 64.864-127.64 0-74.115-61.834-155.25-93.849-155.25z" fill="param(fill)" fill-opacity="param(fill-opacity)" stroke="param(outline)" stroke-opacity="param(outline-opacity)" stroke-width="param(outline-width)"/>
	<path d="m481.62 269.03-9.781-202.81c0-3.875-3.142-7.017-7.018-7.017h-4.607c-3.873 0-7.016 3.141-7.016 7.017l3.26 202.81h-20.259l-5.132-204.79c0-3.875-3.143-7.017-7.019-7.017h-5.995c-3.874 0-7.016 3.142-7.016 7.017l2.775 204.79h-25.138l2.775-204.79c0-3.875-3.143-7.017-7.018-7.017h-5.995c-3.875 0-7.017 3.142-7.017 7.017l-5.132 204.79h-19.835l3.26-202.79c0-3.875-3.142-7.017-7.017-7.017h-4.606c-3.875 0-7.018 3.142-7.018 7.017l-10.171 202.79c0 59.646 13.715 82.108 51.355 99.574l-7.791 146.55h73.554l-7.787-146.55c37.642-17.466 51.389-39.928 51.389-99.574z" fill="param(fill)" fill-opacity="param(fill-opacity)" stroke="param(outline)" stroke-opacity="param(outline-opacity)" stroke-width="param(outline-width)"/>
</svg>
