<?xml version="1.0" encoding="UTF-8"?>
<svg width="580px" height="580px" enable-background="new 0 0 580 580" version="1.1" viewBox="0 0 580 580" xmlns="http://www.w3.org/2000/svg">
	<path d="m129.31 119.26 310.09 2.511-50.216 371.6-212.16 2.511-47.705-376.62z" enable-background="new    " fill="param(fill)" fill-opacity="param(fill-opacity)" opacity=".5"/>
	<path d="m467.98 77.93c0.286-0.248 0.444-0.498 0.444-0.75 0-5.937-81.066-10.75-181.07-10.75-100 0-181.07 4.813-181.07 10.75 0 0.252 0.158 0.502 0.446 0.75h-0.446l56.512 430.93h0.255c-0.5 0.27-0.765 0.544-0.765 0.82 0 4.103 55.996 7.426 125.07 7.426 69.075 0 125.07-3.323 125.07-7.426 0-0.276-0.266-0.552-0.765-0.82l56.57-430.93h-0.251zm-92.602 399.42c-2.895 2.679-174.6 1.424-177.5-1.256l-53.682-340.25c95.078 65.905 157.61-8.951 282.16-2.511l-50.982 344.02z" fill="param(fill)" fill-opacity="param(fill-opacity)" stroke="param(outline)" stroke-miterlimit="10" stroke-opacity="param(outline-opacity)" stroke-width="param(outline-width)"/>
</svg>
