<?xml version="1.0" encoding="UTF-8"?>
<svg width="580px" height="580px" enable-background="new 0 0 580 580" version="1.1" viewBox="0 0 580 580" xmlns="http://www.w3.org/2000/svg">
	<path d="m290.38 61.094c-51.811 8e-3 -105.41 13.894-149.97 37.5-44.207 23.438-79.648 56.464-95.063 95.5-8.024 7.344-13.897 15.25-17.125 23.719-4.322 10.579-6.523 23.496-6.531 36.875 0 12.438 1.931 25.274 6 37.031-1.308 7.955-1.875 15.971-1.875 23.781 0 12.943 1.577 25.345 4.094 36.031 2.532 10.709 5.928 19.688 9.875 25.969l0.281 0.469c1.079 1.882 2.254 3.734 3.531 5.563 1.01 14.672 3.361 30.705 8.563 41.406l1.031 2.156h0.031c12.553 25.021 42.724 45.837 83.688 60.938 42.233 15.498 96.175 24.75 155 24.75s112.8-9.252 155.03-24.75c40.964-15.101 71.104-35.916 83.656-60.938h0.031l1.063-2.156c3.098-6.326 5.085-14.435 6.5-23.094 1.347-8.3 2.101-17.051 2.406-24.969 3.778-6.25 7.028-14.971 9.469-25.313 2.509-10.694 4.094-23.088 4.094-36.031 0-7.795-0.582-15.794-1.875-23.719 4.085-11.78 6.023-24.656 6.031-37.125-8e-3 -13.486-2.242-26.492-6.625-37.125-2.868-7.405-7.804-14.342-14.375-20.875-13.907-40.589-49.282-74.278-94.063-97.969-45.132-23.851-99.97-37.616-152.87-37.624z" enable-background="new    " fill="param(fill)" fill-opacity="param(fill-opacity)" opacity=".5"/>
	<path d="m290.38 61.094c-51.811 8e-3 -105.41 13.894-149.97 37.5-44.207 23.438-79.648 56.464-95.063 95.5-8.024 7.344-13.897 15.25-17.125 23.719-4.322 10.579-6.523 23.496-6.531 36.875 0 12.438 1.931 25.274 6 37.031-1.308 7.955-1.875 15.971-1.875 23.781 0 12.943 1.577 25.345 4.094 36.031 2.532 10.709 5.928 19.688 9.875 25.969l0.281 0.469c1.079 1.882 2.254 3.734 3.531 5.563 1.01 14.672 3.361 30.705 8.563 41.406l1.031 2.156h0.031c12.553 25.021 42.724 45.837 83.688 60.938 42.233 15.498 96.175 24.75 155 24.75s112.8-9.252 155.03-24.75c40.964-15.101 71.104-35.916 83.656-60.938h0.031l1.063-2.156c3.098-6.326 5.085-14.435 6.5-23.094 1.347-8.3 2.101-17.051 2.406-24.969 3.779-6.25 7.028-14.971 9.469-25.313 2.509-10.694 4.094-23.088 4.094-36.031 0-7.795-0.582-15.794-1.875-23.719 4.085-11.78 6.023-24.656 6.031-37.125-8e-3 -13.486-2.242-26.492-6.625-37.125-2.868-7.405-7.804-14.342-14.375-20.875-13.907-40.589-49.282-74.278-94.063-97.969-45.132-23.851-99.97-37.616-152.87-37.624zm0 7.656c58.909-0.015 120.68 17.623 167.41 47.219 23.354 14.779 42.964 32.525 56.656 52.438 13.692 19.927 21.5 41.964 21.5 65.594-8e-3 9.019-2.505 17.041-7.125 24.438-4.245 6.823-10.397 13.066-18.031 18.75-0.826-0.543-1.56-0.706-2.156-0.844-0.712-0.138-1.307-0.156-1.781-0.156-0.581 0-0.955 0.047-1.063 0.063h-0.156l-0.125 0.031c-7.198 1.308-12.4 3.427-17.281 5.5-4.903 2.081-9.483 4.087-16.063 5.625-5.584 1.323-12.635 2.502-18.969 5.531-3.159 1.522-6.185 3.562-8.594 6.438-1.82 2.157-3.276 4.775-4.156 7.813-17.931 4.644-36.971 8.221-55.75 10.875-36.45 5.164-71.924 6.938-96.594 6.938-36.542 0.016-96.173-6.702-147.22-20.969-0.673-1.217-1.473-2.34-2.406-3.281-4.001-4.069-9.43-5.931-14.563-7.438-5.141-1.461-10.21-2.496-13.125-3.75-4.023-1.667-9.396-5.289-15.125-8.563-5.768-3.243-11.971-6.321-18.656-6.375-1.637 0-3.293 0.221-4.938 0.688-0.313-0.207-0.655-0.418-0.969-0.625-8.346-5.661-14.97-11.746-19.438-18.156-4.475-6.426-6.805-13.083-6.813-20.25 8e-3 -23.224 7.792-45.201 21.5-65.281 20.539-30.101 54.435-55.759 94.281-73.781 39.842-18.049 85.607-28.48 129.75-28.472zm-213.38 213.5c4.108-0.054 9.482 2.27 14.875 5.375 5.431 3.067 10.821 6.781 15.969 8.969 2.769 1.155 5.897 1.916 9.125 2.75 4.827 1.225 9.822 2.59 13.188 4.594 1.683 0.994 2.947 2.104 3.75 3.313 0.704 1.07 1.174 2.229 1.281 3.844h-0.031c-4.551 0.046-10.199-1.834-15.875-2.5-5.653-0.619-11.691-0.938-17.719-0.938-2.395 0-4.792 0.049-7.156 0.156-6.969 0.299-13.523 2.264-19.75 5.094-3.32 1.529-5.973 3.697-8.375 5.281-1.247 0.842-2.357 1.485-3.375 1.906-0.428-1.209-0.883-2.279-1.281-3.281-0.765-1.904-1.349-3.52-1.594-5.531-0.024-0.222-0.032-0.436-0.032-0.688-0.015-1.323 0.451-3.221 1.094-5.156 0.627-1.958 1.408-3.902 1.875-5.938 1.102-4.873 2.028-6.813 3.344-8.688 1.262-1.805 3.329-3.812 6.281-7.438l0.75-0.469c1.147-0.443 2.333-0.655 3.656-0.655zm428.31 1.875c-0.069 1.652-0.198 3.87-0.313 6.219-0.199 3.771-0.398 7.927-0.406 11.094 0 0.681 0.04 1.324 0.063 1.906 0.092 2.264 0.509 5.073 0.906 8.156 0.405 3.06 0.781 6.307 0.781 8.938 0.038 2.287-0.396 4.108-0.656 4.438-0.513 0.864-1.059 1.329-1.969 1.75-0.896 0.398-2.183 0.633-3.781 0.625-3.603 0.023-8.502-1.278-13-2.969-4.521-1.684-8.64-3.682-11.156-4.844-5.867-2.708-11.913-6.32-19.219-7.781-1.606-0.321-3.107-0.414-4.469-0.406-1.958 8e-3 -3.633 0.189-4.75 0.25v-0.031c0.489-3.145 1.571-5.359 3.094-7.188 2.279-2.73 5.801-4.64 10.031-6.063 4.215-1.423 9.009-2.311 13.438-3.344 7.274-1.698 12.462-3.988 17.281-6.031 4.428-1.882 8.548-3.556 14.125-4.719zm-466.22 22.844c0.979 1.553 2.023 3.063 3.125 4.5 29.803 43.74 129.44 75.844 247.78 75.844 118.31 0 217.92-32.096 247.75-75.813h0.031c1.094-1.445 2.114-2.947 3.094-4.5-16.714 47.955-92.47 86.359-190.47 97.719 0.161-0.497 0.268-1.02 0.344-1.563l0.281-2.094-1.625-1.344c-4.299-3.496-9.752-4.219-15-4.25-6.356 8e-3 -12.794 1.216-17.063 1.813-9.011 1.293-18.777 3.352-27.781 3.344-1.614 0-3.229-0.073-4.781-0.219-10.38-0.926-20.632-3.807-31.969-5.375-2.096-0.291-4.186-0.531-6.313-0.531-3.427-8e-3 -7.027 0.649-10.5 2.531-1.331 0.727-2.938 1.756-4.438 3.156-0.742 0.703-1.474 1.482-2.094 2.469-0.344 0.559-0.653 1.227-0.875 1.969-97.546-11.521-172.88-49.854-189.5-97.656zm493.56 75.25c-0.298 4.728-0.756 9.625-1.406 14.406-1.171 8.629-3.006 16.892-5.469 22.813h-0.063l-1 2.25c-10.189 22.85-39.206 44.079-80.438 59.156-41.178 15.131-94.353 24.281-152.38 24.281s-111.19-9.15-152.38-24.281c-41.231-15.069-70.248-36.307-80.438-59.156l-1-2.25h-0.063c-2.463-5.921-4.306-14.184-5.469-22.813-0.405-2.983-0.74-6.002-1-9 35.994 42.563 129.17 72.875 238.44 72.875 113.86 0 210.21-32.904 242.66-78.281zm-286.16 19.937c1.583 0 3.354 0.17 5.281 0.438 10.664 1.453 20.999 4.39 32.313 5.438 1.813 0.16 3.617 0.219 5.438 0.219 10.098-0.016 20.216-2.158 28.875-3.375 4.514-0.65 10.583-1.758 15.969-1.75 2.922-0.023 5.55 0.32 7.531 1.031-0.206 0.199-0.428 0.41-0.688 0.625-2.073 1.721-5.864 3.514-9.781 5.281-3.924 1.82-8.004 3.592-11.125 6.406-3.901 3.618-7.542 8.363-11.344 12.594-3.771 4.238-7.678 7.843-11.25 9.281-1.469 0.604-2.931 0.867-4.438 0.875-3.81 0.03-8.198-1.858-12.344-4.75-4.154-2.868-8.015-6.629-10.906-9.75-3.764-4.055-8.468-8.49-13.938-12.094-5.469-3.588-11.74-6.354-18.594-6.781l-0.75-0.063c0.191-0.191 0.419-0.402 0.656-0.594 0.734-0.582 1.607-1.108 2.219-1.438 2.219-1.177 4.298-1.577 6.876-1.593z" fill="param(fill)" fill-opacity="param(fill-opacity)" stroke="param(outline)" stroke-opacity="param(outline-opacity)" stroke-width="param(outline-width)"/>
</svg>
