<?xml version="1.0" encoding="UTF-8"?>
<svg width="580px" height="580px" enable-background="new 0 0 580 580" version="1.1" viewBox="0 0 580 580" xmlns="http://www.w3.org/2000/svg">
	<path d="m188.19 276.64 194.89 1.578-31.561 249.55-133.34 1.578-29.982-252.7z" enable-background="new    " fill="param(fill)" fill-opacity="param(fill-opacity)" opacity=".5" stroke="param(outline)" stroke-opacity="param(outline-opacity)" stroke-width="param(outline-width)"/>
	<g transform="matrix(48.15 0 0 48.15 -536.27 -33.307)" display="none" fill="none" stroke="#757575" stroke-width=".1">
		<rect x="1" y="1" width="10" height="10" display="inline"/>
		<rect x="2" y="2" width="8" height="8" display="inline"/>
	</g>
	<path d="m543.1 117.82-85.766-0.484c-3.319-16.777-10.823-29.686-20.894-36.087v-14.215c5.792 1.9 10.293 2.997 13.575 2.997 10.118 0 18.35-8.231 18.35-18.35s-8.231-18.35-18.35-18.35c-0.096 0-0.191 2e-3 -0.287 5e-3 -4.132 0.158-10.433 2.146-19.747 5.479-2.425-1.684-5.365-2.677-8.541-2.677-3.123 0-6.021 0.956-8.423 2.589-9.181-3.281-15.404-5.234-19.5-5.391-0.096-3e-3 -0.191-5e-3 -0.287-5e-3 -10.118 0-18.35 8.231-18.35 18.35s8.231 18.35 18.35 18.35c3.212 0 7.596-1.053 13.21-2.879v14.089c-9.981 6.345-17.446 19.095-20.81 35.69l-34.454-0.195c-0.645-9e-3 -1.284-0.014-1.92-0.014-34.252 0-54.436 13.587-65.39 25.115-24.854 26.153-23.257 61.617-22.994 65.575l49.89-3.326c-0.012-0.168-0.505-17.438 9.349-27.806 6.228-6.554 16.479-9.76 30.415-9.548l37.46 0.212c6.156 18.976 18.384 31.053 33.454 31.053h0.039c14.948-0.022 27.09-11.929 33.281-30.676l88.056 0.498 0.284-49.999z" fill="param(fill)" fill-opacity="param(fill-opacity)" stroke="param(outline)" stroke-opacity="param(outline-opacity)" stroke-width="param(outline-width)"/>
	<path d="m401.2 264.66h-0.157c0.18-0.156 0.279-0.313 0.279-0.471 0-3.731-50.95-6.756-113.8-6.756s-113.8 3.025-113.8 6.756c0 0.158 0.099 0.315 0.28 0.471h-0.28l35.518 270.84h0.16c-0.314 0.169-0.481 0.342-0.481 0.516 0 2.578 35.193 4.667 78.606 4.667s78.605-2.089 78.605-4.667c0-0.174-0.167-0.347-0.48-0.516l35.552-270.84zm-58.357 251.04c-1.819 1.684-109.74 0.895-111.56-0.789l-33.739-233.85c57.585 0.192 99.055 3.054 177.34-1.578l-32.041 236.21z" fill="param(fill)" fill-opacity="param(fill-opacity)" stroke="param(outline)" stroke-opacity="param(outline-opacity)" stroke-width="param(outline-width)"/>
</svg>
