<?xml version="1.0" encoding="UTF-8"?>
<svg width="580px" height="580px" enable-background="new 0 0 580 580" version="1.1" viewBox="0 0 580 580" xmlns="http://www.w3.org/2000/svg">
	<path d="m509.46 158.58c-11.798-12.039-26.258-18.403-41.817-18.403-15.321 0-31.313 4.62-45.704 10.677-1.149-16.095-2.424-26.081-2.544-27-0.604-4.64-4.558-8.109-9.232-8.109h-0.039l-162.29 0.669-162.36-0.669h-0.039c-4.675 0-8.629 3.469-9.233 8.11-0.277 2.13-6.749 52.881-3.494 115.62 4.421 85.248 24.077 148.3 58.42 187.4 26.255 29.893 60.775 45.049 102.6 45.049l0.384-1e-3c4.602 0.247 9.259 0.331 13.687 0.263 1.012 0.016 2.035 0.024 3.07 0.024 3.496 0 7.066-0.097 10.616-0.287l0.385 1e-3c41.838 0 76.367-15.161 102.63-45.061 5.28-6.013 10.211-12.597 14.795-19.735 25.595-2.137 48.771-7.71 69.093-16.667 22.597-9.959 41.745-24.062 56.915-41.915 32.663-38.44 35.997-80.543 36.241-92.532 0.643-31.55-9.028-73.915-32.078-97.438zm-13.538 96.509c-0.118 5.822-1.899 36.266-25.394 63.917-16.351 19.243-39.116 32.16-67.954 38.636 11.14-32.77 17.948-72.242 20.326-118.17 0.705-13.625 0.951-26.683 0.903-38.801 13.839-7.604 30.693-14.866 43.839-14.866 2.147 0 5.138 0.535 9.228 4.709 11.188 11.416 19.556 39.781 19.052 64.575z" fill="param(fill)" fill-opacity="param(fill-opacity)" stroke="param(outline)" stroke-opacity="param(outline-opacity)" stroke-width="param(outline-width)"/>
</svg>
