<?xml version="1.0" encoding="UTF-8"?>
<svg width="580px" height="580px" enable-background="new 0 0 580 580" version="1.1" viewBox="0 0 580 580" xmlns="http://www.w3.org/2000/svg">
	<g transform="matrix(48.15 0 0 48.15 -1210.2 -51.871)" display="none" fill="none" stroke="#757575" stroke-width=".1">
		<rect x="1" y="1" width="10" height="10" display="inline"/>
		<rect x="2" y="2" width="8" height="8" display="inline"/>
	</g>
	<path d="m269.94 305.95c3.069 2.776 7.104 4.185 11.991 4.185 5.216 0 11.134-2.046 17.59-6.08l0.836-0.522-0.781-0.602c-6.047-4.651-13.907-11.544-23.361-20.486l-0.407-0.384-0.458 0.321c-4.047 2.842-6.67 5.226-8.019 7.287-1.357 2.073-2.046 4.305-2.046 6.633 0 3.607 1.566 6.853 4.655 9.648z" fill="param(fill)" fill-opacity="param(fill-opacity)" stroke="param(outline)" stroke-opacity="param(outline-opacity)" stroke-width="param(outline-width)"/>
	<path d="m285.8 258.77 0.466-0.254c3.76-2.046 6.711-4.312 8.772-6.732 2.114-2.483 3.187-4.892 3.187-7.159 0-2.395-0.928-4.446-2.757-6.098-1.81-1.633-4.306-2.462-7.42-2.462-3.07 0-5.616 0.913-7.566 2.713-1.966 1.815-2.963 3.995-2.963 6.48 0 3.115 2.59 7.408 7.918 13.123l0.363 0.389z" fill="param(fill)" fill-opacity="param(fill-opacity)" stroke="param(outline)" stroke-opacity="param(outline-opacity)" stroke-width="param(outline-width)"/>
	<path d="m182.43 261.42c2.091-1.838 3.151-4.507 3.151-7.932 0-3.193-1.062-5.733-3.154-7.548-2.093-1.816-5.563-2.699-10.609-2.699h-14.748v20.917h14.537c5.188-1e-3 8.729-0.897 10.823-2.738z" fill="param(fill)" fill-opacity="param(fill-opacity)" stroke="param(outline)" stroke-opacity="param(outline-opacity)" stroke-width="param(outline-width)"/>
	<path d="m425.98 285.34c-2.375-1.976-6.348-2.936-12.145-2.936h-16.856v22.252h16.927c5.707 0 9.648-1.009 12.05-3.085 2.396-2.071 3.611-4.884 3.611-8.357 0-3.246-1.206-5.895-3.587-7.874z" fill="param(fill)" fill-opacity="param(fill-opacity)" stroke="param(outline)" stroke-opacity="param(outline-opacity)" stroke-width="param(outline-width)"/>
	<path d="m422.34 261.42c2.091-1.838 3.15-4.507 3.15-7.932 0-3.193-1.061-5.733-3.153-7.548-2.094-1.816-5.564-2.699-10.609-2.699h-14.747v20.917h14.536c5.189-1e-3 8.729-0.897 10.823-2.738z" fill="param(fill)" fill-opacity="param(fill-opacity)" stroke="param(outline)" stroke-opacity="param(outline-opacity)" stroke-width="param(outline-width)"/>
	<path d="m289.49 28.744-259.97 229.68h52.756v294.6h156.26v-173.86h105.43l1e-3 173.86h152.72v-294.6h52.756l-259.97-229.68zm-45.332 253.45c3.843-5.101 10.251-9.485 19.045-13.031l0.867-0.35-0.595-0.721c-3.69-4.474-6.257-8.403-7.631-11.677-1.364-3.251-2.056-6.604-2.056-9.965 0-7.068 2.733-12.972 8.125-17.548 5.425-4.604 13.816-6.939 24.94-6.939 11.36 0 19.801 2.218 25.087 6.593 5.247 4.342 7.908 9.606 7.908 15.644 0 3.389-0.814 6.69-2.421 9.812-1.615 3.141-3.583 5.721-5.849 7.669-2.312 1.987-6.522 4.998-12.517 8.947l-0.701 0.462 0.594 0.594c5.011 5.011 10.306 9.736 15.738 14.044l0.661 0.524 0.377-0.754c1.373-2.745 2.573-5.673 3.573-8.713l21.042 4.698c-1.088 3.758-2.145 6.827-3.145 9.131-1.063 2.448-2.588 5.381-4.534 8.717l-0.32 0.55 11.3 7.754c1.159 0.745 2.626 1.628 4.368 2.628l-14.492 16.676c-2.638-1.426-5.401-3.078-8.222-4.915-3.02-1.965-5.761-3.674-8.147-5.078l-0.368-0.217-0.356 0.235c-4.891 3.229-9.846 5.613-14.726 7.087-6.795 2.034-14.63 3.065-23.288 3.065-13.502 0-23.667-2.831-30.212-8.414-6.512-5.557-9.814-12.384-9.814-20.292 1e-3 -5.679 1.942-11.135 5.769-16.216zm-34.251-18.264c-2.44 2.801-6.079 5.053-10.817 6.693l-2.212 0.766 2.276 0.547c7.221 1.737 12.596 4.744 15.975 8.939 3.375 4.191 5.087 9.546 5.087 15.918 0 5.196-1.223 9.93-3.634 14.069-2.412 4.141-5.758 7.464-9.947 9.877-2.581 1.494-6.564 2.601-11.839 3.289-7.109 0.929-11.881 1.4-14.185 1.4h-54.3v-101.71h58.94c9.713 0 17.257 2.423 22.422 7.201 5.149 4.764 7.761 10.745 7.761 17.778 1e-3 5.895-1.859 11.019-5.527 15.23zm239.91 0c-2.439 2.801-6.079 5.053-10.816 6.693l-2.212 0.766 2.275 0.547c7.221 1.737 12.596 4.744 15.975 8.939 3.375 4.191 5.087 9.546 5.087 15.918 0 5.196-1.223 9.93-3.634 14.069-2.412 4.142-5.758 7.464-9.946 9.877-2.581 1.494-6.564 2.601-11.84 3.289-7.108 0.929-11.881 1.4-14.185 1.4h-54.3v-101.71h58.94c9.713 0 17.257 2.423 22.422 7.201 5.149 4.764 7.761 10.746 7.761 17.778 0 5.895-1.86 11.019-5.527 15.23z" fill="param(fill)" fill-opacity="param(fill-opacity)" stroke="param(outline)" stroke-opacity="param(outline-opacity)" stroke-width="param(outline-width)"/>
	<path d="m186.08 285.34c-2.375-1.976-6.348-2.936-12.145-2.936h-16.857v22.252h16.927c5.707 0 9.648-1.009 12.049-3.085 2.397-2.071 3.612-4.884 3.612-8.357 1e-3 -3.246-1.206-5.895-3.586-7.874z" fill="param(fill)" fill-opacity="param(fill-opacity)" stroke="param(outline)" stroke-opacity="param(outline-opacity)" stroke-width="param(outline-width)"/>
</svg>
