<?xml version="1.0" encoding="UTF-8"?>
<svg width="580px" height="580px" enable-background="new 0 0 580 580" version="1.1" viewBox="0 0 580 580" xmlns="http://www.w3.org/2000/svg">
	<g transform="matrix(48.15 0 0 48.15 -536.27 -33.307)" display="none" fill="none" stroke="#757575" stroke-width=".1">
		<rect x="1" y="1" width="10" height="10" display="inline"/>
		<rect x="2" y="2" width="8" height="8" display="inline"/>
	</g>
	<path d="m537.34 251.46c-0.12-2e-3 -0.239-3e-3 -0.358-3e-3 -9.729 0-17.713 7.792-17.904 17.563l-1.285 65.525-454.12-3.027 1.778-138.69c0.127-9.893-7.791-18.016-17.684-18.143-0.078-1e-3 -0.156-1e-3 -0.234-1e-3 -9.786 0-17.782 7.87-17.908 17.685l-3.199 249.52c-0.127 9.893 7.791 18.016 17.684 18.143 0.078 1e-3 0.156 1e-3 0.234 1e-3 9.786 0 17.782-7.87 17.908-17.685l0.962-75.003 453.87 3.026-1.212 61.799c-0.194 9.893 7.668 18.068 17.56 18.263 0.12 2e-3 0.239 4e-3 0.358 4e-3 9.729 0 17.713-7.792 17.904-17.563l3.199-163.15c0.194-9.893-7.669-18.069-17.56-18.263z" fill="param(fill)" fill-opacity="param(fill-opacity)" stroke="param(outline)" stroke-opacity="param(outline-opacity)" stroke-width="param(outline-width)"/>
	<path d="m255.48 323.57h207.94c23.707 0 42.994-19.287 42.994-42.995 0-23.707-19.287-42.994-42.994-42.994h-207.94c-23.708 0-42.995 19.287-42.995 42.994 0 23.708 19.287 42.995 42.995 42.995z" fill="param(fill)" fill-opacity="param(fill-opacity)" stroke="param(outline)" stroke-opacity="param(outline-opacity)" stroke-width="param(outline-width)"/>
	<path d="m161.91 230.54h0.015c9.604-3e-3 18.637-3.324 25.437-9.349 6.839-6.06 10.604-14.127 10.6-22.74-8e-3 -17.667-16.18-32.039-36.065-32.039-9.603 3e-3 -18.637 3.324-25.437 9.349-6.839 6.06-10.604 14.127-10.6 22.74 7e-3 17.666 16.18 32.039 36.05 32.039zm0-1.151z" fill="param(fill)" fill-opacity="param(fill-opacity)" stroke="param(outline)" stroke-opacity="param(outline-opacity)" stroke-width="param(outline-width)"/>
	<path d="m94.731 319.28h89.572c12.083 0 21.914-9.83 21.914-21.913s-9.831-21.914-21.914-21.914h-89.572c-12.083 0-21.913 9.831-21.913 21.914s9.83 21.913 21.913 21.913z" fill="param(fill)" fill-opacity="param(fill-opacity)" stroke="param(outline)" stroke-opacity="param(outline-opacity)" stroke-width="param(outline-width)"/>
</svg>
