<?xml version="1.0" encoding="UTF-8"?>
<svg width="580px" height="580px" enable-background="new 0 0 580 580" version="1.1" viewBox="0 0 580 580" xmlns="http://www.w3.org/2000/svg">
	<g transform="matrix(48.15 0 0 48.15 -536.27 -33.307)" display="none" fill="none" stroke="#757575" stroke-width=".1">
		<rect x="1" y="1" width="10" height="10" display="inline"/>
		<rect x="2" y="2" width="8" height="8" display="inline"/>
	</g>
	<path d="m350.94 530.23c-8.088-26.261-33.604-43.229-65.006-43.229-31.431 0-56.947 16.97-65.006 43.234-0.465 1.517-0.184 3.163 0.759 4.438s2.435 2.028 4.021 2.028h120.46c1.587 0 3.08-0.753 4.022-2.03 0.942-1.276 1.222-2.924 0.755-4.441z" fill="param(fill)" fill-opacity="param(fill-opacity)" stroke="param(outline)" stroke-miterlimit="10" stroke-opacity="param(outline-opacity)" stroke-width="param(outline-width)"/>
	<path d="m55.84 162.45c2.457 0 4.914-0.938 6.789-2.812l78.853-78.853c3.749-3.749 3.749-9.828 0-13.577-3.75-3.75-9.828-3.75-13.577 0l-78.853 78.853c-3.749 3.749-3.749 9.828 0 13.577 1.874 1.875 4.331 2.812 6.788 2.812z" fill="param(fill)" fill-opacity="param(fill-opacity)" stroke="param(outline)" stroke-opacity="param(outline-opacity)" stroke-width="param(outline-width)"/>
	<path d="m162.57 132.46c2.457 0 4.914-0.938 6.789-2.812l78.853-78.853c3.749-3.749 3.749-9.828 0-13.577-3.75-3.75-9.828-3.749-13.577 0l-78.853 78.854c-3.749 3.749-3.749 9.828 0 13.577 1.875 1.874 4.331 2.811 6.788 2.811z" fill="param(fill)" fill-opacity="param(fill-opacity)" stroke="param(outline)" stroke-opacity="param(outline-opacity)" stroke-width="param(outline-width)"/>
	<path d="m121.42 177.31c-3.749-3.749-9.828-3.749-13.577 0l-61.881 61.881c-3.749 3.749-3.749 9.828 0 13.577 1.875 1.875 4.332 2.812 6.789 2.812s4.914-0.938 6.789-2.812l61.881-61.881c3.748-3.749 3.748-9.828-1e-3 -13.577z" fill="param(fill)" fill-opacity="param(fill-opacity)" stroke="param(outline)" stroke-opacity="param(outline-opacity)" stroke-width="param(outline-width)"/>
	<path d="m190.22 190.68c1.875 1.875 4.332 2.812 6.789 2.812s4.914-0.938 6.789-2.812l78.853-78.853c3.749-3.749 3.749-9.828 0-13.577-3.75-3.75-9.828-3.75-13.577 0l-78.853 78.853c-3.75 3.749-3.75 9.828-1e-3 13.577z" fill="param(fill)" fill-opacity="param(fill-opacity)" stroke="param(outline)" stroke-opacity="param(outline-opacity)" stroke-width="param(outline-width)"/>
	<path d="m371.12 173.59c1.874 1.875 4.331 2.812 6.788 2.812s4.914-0.938 6.788-2.812l78.854-78.853c3.75-3.749 3.75-9.828 0-13.577-3.748-3.75-9.828-3.749-13.576 0l-78.854 78.853c-3.75 3.749-3.75 9.827 0 13.577z" fill="param(fill)" fill-opacity="param(fill-opacity)" stroke="param(outline)" stroke-opacity="param(outline-opacity)" stroke-width="param(outline-width)"/>
	<path d="m487.86 146.45c2.396 0 4.798-0.893 6.66-2.688l58.347-56.225c3.816-3.679 3.93-9.757 0.251-13.575-3.682-3.818-9.756-3.93-13.575-0.251l-58.346 56.225c-3.817 3.679-3.931 9.757-0.251 13.575 1.885 1.955 4.398 2.939 6.914 2.939z" fill="param(fill)" fill-opacity="param(fill-opacity)" stroke="param(outline)" stroke-opacity="param(outline-opacity)" stroke-width="param(outline-width)"/>
	<path d="m555.2 151.09c-3.703-3.792-9.781-3.867-13.576-0.161l-60.468 59.053c-3.793 3.705-3.865 9.783-0.16 13.576 1.881 1.926 4.373 2.893 6.869 2.893 2.418 0 4.84-0.909 6.707-2.732l60.468-59.053c3.793-3.704 3.865-9.783 0.16-13.576z" fill="param(fill)" fill-opacity="param(fill-opacity)" stroke="param(outline)" stroke-opacity="param(outline-opacity)" stroke-width="param(outline-width)"/>
	<path d="m440.24 178.44-27.231 25.11c-3.897 3.594-4.145 9.668-0.55 13.566 1.894 2.052 4.473 3.092 7.06 3.092 2.327 0 4.661-0.841 6.507-2.543l27.23-25.11c3.898-3.594 4.146-9.668 0.55-13.566-3.595-3.898-9.67-4.143-13.566-0.549z" fill="param(fill)" fill-opacity="param(fill-opacity)" stroke="param(outline)" stroke-opacity="param(outline-opacity)" stroke-width="param(outline-width)"/>
	<path d="m314.71 166.91c2.398 0 4.799-0.893 6.662-2.688l39.253-37.838c3.817-3.68 3.929-9.758 0.249-13.575-3.682-3.818-9.757-3.928-13.575-0.25l-39.253 37.838c-3.816 3.68-3.929 9.758-0.249 13.575 1.885 1.954 4.397 2.938 6.913 2.938z" fill="param(fill)" fill-opacity="param(fill-opacity)" stroke="param(outline)" stroke-opacity="param(outline-opacity)" stroke-width="param(outline-width)"/>
	<path d="m324.23 90.496c2.506 0 5.009-0.975 6.891-2.915l46.324-47.739c3.691-3.805 3.602-9.883-0.204-13.575-3.807-3.693-9.885-3.6-13.575 0.204l-46.324 47.739c-3.691 3.805-3.602 9.883 0.204 13.575 1.865 1.81 4.276 2.711 6.684 2.711z" fill="param(fill)" fill-opacity="param(fill-opacity)" stroke="param(outline)" stroke-opacity="param(outline-opacity)" stroke-width="param(outline-width)"/>
	<path d="m509.26 307.09-209.4-111.68c-3.154-1.683-6.942-1.683-10.099 0l-209.4 111.68c-2.999 1.6-5.062 4.523-5.563 7.887-0.501 3.361 0.62 6.76 3.022 9.164l13.951 13.963c3.043 3.047 7.615 3.978 11.61 2.364l41.128-16.62v203.27c0 6.249 5.066 11.314 11.316 11.314h26.897c6.25 0 11.316-5.065 11.316-11.314v-216.9l100.69-11.916 99.311 11.951v216.86c0 6.249 5.064 11.314 11.314 11.314h26.897c6.249 0 11.314-5.065 11.314-11.314v-203.52l42.617 17.189c1.301 0.524 2.662 0.778 4.012 0.778 2.825 0 5.601-1.117 7.657-3.211l14.021-14.277c2.37-2.413 3.463-5.803 2.95-9.146-0.509-3.341-2.568-6.247-5.552-7.838z" fill="param(fill)" fill-opacity="param(fill-opacity)" stroke="param(outline)" stroke-opacity="param(outline-opacity)" stroke-width="param(outline-width)"/>
</svg>
