<?xml version="1.0" encoding="UTF-8"?>
<svg width="580px" height="580px" enable-background="new 0 0 580 580" version="1.1" viewBox="0 0 580 580" xmlns="http://www.w3.org/2000/svg">
	<path d="m504.91 519.52 0.713-6e-3 -10.927-19.284-190.17-360.68 35.603-67.259-23.227-12.295-27.214 51.412-28.368-53.804-23.246 12.257 36.007 68.292c-15.495 32.074-121.49 230.26-192.83 362.82l-10.441 19.403 94.237-0.156 23.41 0.181 0.115-0.22 202.6-0.336 0.291 0.556 91.769-0.708 21.747-0.036-0.07-0.131zm-214.95-233.66c21.655 72.987 67.317 167.25 87.688 207.72l-175.52 0.29c20.298-40.308 66.127-134.85 87.835-208.01z" fill="param(fill)" fill-opacity="param(fill-opacity)" stroke="param(outline)" stroke-opacity="param(outline-opacity)" stroke-width="param(outline-width)"/>
</svg>
