<svg xmlns="http://www.w3.org/2000/svg" id="vector_layer" viewBox="0 0 24 24">
       <g> <rect x="3.5" y="3.5" style="fill:none;stroke:#70A6D7;" width="17" height="17"/> <path style="fill:#00B066;" d="M7,3.5C7,5.4,5.4,7,3.5,7S0,5.4,0,3.5S1.6,0,3.5,0S7,1.6,7,3.5L7,3.5z"/> <path style="fill:#70A6D7;" d="M24,3.5C24,5.4,22.4,7,20.5,7S17,5.4,17,3.5c0-2,1.6-3.5,3.5-3.5S24,1.6,24,3.5L24,3.5z"/> <path style="fill:#70A6D7;" d="M24,20.5c0,1.9-1.6,3.5-3.5,3.5c-2,0-3.5-1.6-3.5-3.5c0-2,1.6-3.5,3.5-3.5S24,18.6,24,20.5L24,20.5z
		"/> <path style="fill:#70A6D7;" d="M7,20.5C7,22.4,5.4,24,3.5,24c-2,0-3.5-1.6-3.5-3.5c0-2,1.6-3.5,3.5-3.5S7,18.6,7,20.5L7,20.5z"/> </g>
    </svg>