<svg width="24" height="24" viewBox="0 0 24 24" fill="none" xmlns="http://www.w3.org/2000/svg">
<g clip-path="url(#clip0_3024_132)">
<path d="M20.5 3.5H3.5V20.5H20.5V3.5Z" stroke="#70A6D7"/>
<path d="M7 3.5C7 5.4 5.4 7 3.5 7C1.6 7 0 5.4 0 3.5C0 1.6 1.6 0 3.5 0C5.4 0 7 1.6 7 3.5Z" fill="#00B066"/>
<path d="M24 3.5C24 5.4 22.4 7 20.5 7C18.6 7 17 5.4 17 3.5C17 1.5 18.6 0 20.5 0C22.4 0 24 1.6 24 3.5Z" fill="#70A6D7"/>
<path d="M24 20.5C24 22.4 22.4 24 20.5 24C18.5 24 17 22.4 17 20.5C17 18.5 18.6 17 20.5 17C22.4 17 24 18.6 24 20.5Z" fill="#70A6D7"/>
<path d="M7 20.5C7 22.4 5.4 24 3.5 24C1.5 24 0 22.4 0 20.5C0 18.5 1.6 17 3.5 17C5.4 17 7 18.6 7 20.5Z" fill="#70A6D7"/>
</g>
<defs>
<clipPath id="clip0_3024_132">
<rect width="24" height="24" fill="white"/>
</clipPath>
</defs>
</svg>
