<svg width="24" height="24" viewBox="0 0 24 24" fill="none" xmlns="http://www.w3.org/2000/svg">
<g clip-path="url(#clip0_3048_145)">
<mask id="mask0_3048_145" style="mask-type:luminance" maskUnits="userSpaceOnUse" x="0" y="0" width="24" height="24">
<path d="M24 0H0V24H24V0Z" fill="white"/>
</mask>
<g mask="url(#mask0_3048_145)">
<path d="M0 3.5C0 5.4 1.6 7 3.5 7C5.4 7 7 5.4 7 3.5C7 1.6 5.4 0 3.5 0C1.6 0 0 1.6 0 3.5Z" fill="#00B066"/>
<path d="M5 20.5C5 22.4 6.6 24 8.5 24C10.5 24 12 22.4 12 20.5C12 18.5 10.4 17 8.5 17C6.6 17 5 18.6 5 20.5Z" fill="#70A6D7"/>
<path d="M17 8.5C17 10.4 18.6 12 20.5 12C22.5 12 24 10.4 24 8.5C24 6.5 22.4 5 20.5 5C18.6 5 17 6.6 17 8.5Z" fill="#70A6D7"/>
</g>
</g>
<defs>
<clipPath id="clip0_3048_145">
<rect width="24" height="24" fill="white"/>
</clipPath>
</defs>
</svg>
