<svg width="24" height="24" viewBox="0 0 24 24" fill="none" xmlns="http://www.w3.org/2000/svg">
<g clip-path="url(#clip0_3040_133)">
<mask id="mask0_3040_133" style="mask-type:luminance" maskUnits="userSpaceOnUse" x="0" y="0" width="24" height="24">
<path d="M24 0H0V24H24V0Z" fill="white"/>
</mask>
<g mask="url(#mask0_3040_133)">
<path d="M3.5 3.5L19 19" stroke="#70A6D7"/>
<path d="M7 3.5C7 5.4 5.4 7 3.5 7C1.6 7 0 5.4 0 3.5C0 1.6 1.6 0 3.5 0C5.4 0 7 1.6 7 3.5Z" fill="#00B066"/>
<path d="M24 20.5C24 22.4 22.4 24 20.5 24C18.5 24 17 22.4 17 20.5C17 18.5 18.6 17 20.5 17C22.4 17 24 18.6 24 20.5Z" fill="#70A6D7"/>
</g>
</g>
<defs>
<clipPath id="clip0_3040_133">
<rect width="24" height="24" fill="white"/>
</clipPath>
</defs>
</svg>
