<svg xmlns="http://www.w3.org/2000/svg" id="wfsserver_service" viewBox="0 0 16 16">
      <g>
        <path style="fill:#70A6D7" d="M15,13.098V9.902c0.571-0.215,1-0.773,1-1.402C16,7.696,15.304,7,14.5,7c-0.636,0-1.2,0.406-1.409,1H8v5.092
          c-0.571,0.203-1,0.737-1,1.409C7,15.304,7.643,16,8.5,16c0.629,0,1.187-0.429,1.402-1h3.189c0.203,0.571,0.737,1,1.408,1
          c0.804,0,1.5-0.696,1.5-1.5C16,13.871,15.571,13.313,15,13.098z M13.092,9C13.24,9.419,13.569,9.757,14,9.909v3.183
          c-0.419,0.149-0.757,0.478-0.909,0.909H9.902C9.747,13.587,9.413,13.253,9,13.098V9H13.092z"/>
        <g>
          <circle style="fill:#00B77E" cx="8.5" cy="8.5" r="1.5"/>
          <path style="fill:#00B77E" d="M6,8.5C6,7.121,7.121,6,8.5,6c0.512,0,1.001,0.167,1.41,0.454H12L5.95,0L0,6.454h3.025v7.059H7v-3.018
            C6.383,10.032,6,9.297,6,8.5z"/>
        </g>
      </g>
    </svg>