<?xml version="1.0" encoding="UTF-8"?>
<svg width="580px" height="580px" enable-background="new -235.433 -235.433 579.997 579.997" version="1.1" viewBox="-235.43 -235.43 580 580" xmlns="http://www.w3.org/2000/svg">
	<path d="m-52.948 77.361c18.521 0 33.535 17.592 33.535 39.287 0 21.7-15.014 39.291-33.535 39.291s-33.535-17.591-33.535-39.291c0-21.695 15.014-39.287 33.535-39.287z" fill="param(fill) #000" fill-opacity="param(fill-opacity)" opacity=".25"/>
	<path d="m174.74 83.567c18.521 0 33.533 17.587 33.533 39.287 0 21.699-15.012 39.286-33.533 39.286-18.525 0-33.537-17.587-33.537-39.286 0-21.7 15.011-39.287 33.537-39.287z" fill="param(fill) #000" fill-opacity="param(fill-opacity)" opacity=".25"/>
	<path d="m276.77 79.953c-3.227-21.376-12.249-52.848-36.905-81.389-42.07-48.698-114.34-73.394-214.78-73.403-24.51-1.094-38.472 21.657-51.959 43.616-12.026 19.582-23.386 38.077-40.927 38.081-0.286 0.05-0.567-4e-3 -0.857-0.015-37.074-1.237-64.551 8.693-81.562 29.435-27.262 33.241-17.96 81.801-17.551 83.853l0.356 1.788h64.375c2.277 30.08 23.829 53.665 50.093 53.665s47.817-23.584 50.094-53.665h127.31c-5e-3 0.313-0.021 0.621-0.021 0.935 0 32.547 22.521 58.932 50.304 58.932 27.784 0 50.305-26.385 50.305-58.932 0-0.313-0.016-0.622-0.021-0.935h52.563l0.279-1.9c0.1-0.679 2.402-16.895-1.096-40.066zm-329.72 75.986c-18.521 0-33.535-17.591-33.535-39.291 0-21.695 15.014-39.287 33.535-39.287s33.535 17.592 33.535 39.287c0 21.7-15.014 39.291-33.535 39.291zm161.41-155.52c-7.389-0.266-15.765-0.568-25.123-0.812l-0.068-2e-3 -0.069 2e-3c-78.42 2.828-104.87 3.722-113.74 4.005 3.324-4.622 6.391-8.9 9.231-12.862 34.786-48.521 34.786-48.521 53.216-48.73l0.22-2e-3c3.76-0.046 7.461-0.07 10.999-0.07 77.666 0 88.172 11.252 97.44 21.179 0.867 0.929 1.762 1.887 2.695 2.827 8.406 15.485 14.134 26.771 11.595 31.039-2.148 3.612-11.792 4.099-20.943 4.099-6.798-1e-3 -15.028-0.297-25.448-0.673zm66.283 161.72c-18.525 0-33.537-17.587-33.537-39.286 0-21.7 15.012-39.287 33.537-39.287 18.521 0 33.533 17.587 33.533 39.287 0 21.699-15.012 39.286-33.533 39.286z" fill="param(fill) #000" fill-opacity="param(fill-opacity)" stroke="param(outline) #FFF" stroke-opacity="param(outline-opacity)" stroke-width="param(outline-width) 0"/>
</svg>
