<?xml version="1.0" encoding="UTF-8"?>
<svg width="580px" height="580px" enable-background="new 0 0 579.997 579.997" sodipodi:docbase="/usr/share/qgis/svg/Garmin_Symbols" sodipodi:docname="city_building.svg" sodipodi:version="0.32" version="1.1" viewBox="0 0 580 580" xmlns="http://www.w3.org/2000/svg" xmlns:sodipodi="http://inkscape.sourceforge.net/DTD/sodipodi-0.dtd">
	<path d="m517.82 486.52v-393.04h-455.63v393.04m193.74 0v-102.41h63.414v102.41m-131.81-41.28h-63.411v-64.173h63.411v64.173zm0-114h-63.411v-64.174h63.411v64.174zm0-114h-63.411v-64.174h63.411v64.174zm130.13 114h-63.411v-64.174h63.411v64.174zm0-114h-63.411v-64.174h63.411v64.174zm130.02 228h-63.41v-64.173h63.41v64.173zm0.106-114h-63.416v-64.174h63.416v64.174zm0-114h-63.416v-64.174h63.416v64.174z" fill="param(fill) #000" fill-opacity="param(fill-opacity)" stroke="param(outline) #FFF" stroke-opacity="param(outline-opacity)" stroke-width="param(outline-width) 0"/>
</svg>
