<?xml version="1.0" encoding="UTF-8"?>
<svg width="580px" height="580px" enable-background="new 0 0 579.997 579.997" sodipodi:docbase="/usr/share/qgis/svg/Garmin_Symbols" sodipodi:docname="conveneince.svg" sodipodi:version="0.32" version="1.1" viewBox="0 0 580 580" xmlns="http://www.w3.org/2000/svg" xmlns:sodipodi="http://inkscape.sourceforge.net/DTD/sodipodi-0.dtd">
	<sodipodi:namedview bordercolor="#666666" borderopacity="1.0" pagecolor="#ffffff"></sodipodi:namedview>
	<path d="m477.82 444.78c-0.019-0.675-0.039-1.276-0.04-1.801-0.146-51.954-48.144-81.382-73.157-93.192l-1.641-149.42-70.884-59.687v-98.52h-229.99v495.69h229.99v-1.234c0.382 1e-3 0.772 8e-3 1.152 8e-3 60.248 0 100.88-11.489 124.09-35.058 21.464-21.794 20.747-47.213 20.477-56.782zm-183.6-112.28-73.668 73.669-75.506-75.509 73.666-73.663 75.508 75.503zm-149.17-134.77v-107.38h144.09v107.38h-144.09zm281.17 273.18c-8.251 8.378-31.402 22.154-94.128 22.023v-295.17l27.433 23.1 1.577 143.73 0.114 15.452 14.651 4.97c0.582 0.2 58.128 21.106 58.232 58.067 2e-3 0.843 0.026 1.819 0.058 2.913 0.195 6.912 0.463 16.378-7.937 24.907z" fill="param(fill) #000" fill-opacity="param(fill-opacity)" stroke="param(outline) #FFF" stroke-opacity="param(outline-opacity)" stroke-width="param(outline-width) 0"/>
</svg>
