<?xml version="1.0" encoding="UTF-8"?>
<svg width="580px" height="580px" enable-background="new -235.433 -235.433 579.997 579.997" version="1.1" viewBox="-235.43 -235.43 580 580" xmlns="http://www.w3.org/2000/svg">
	<path d="m242.74 74.804c-8.929-31.852-70.883-49.511-104.2-59.008-8.628-2.46-15.443-4.402-18.604-5.807-3.264-1.451-8.953-2.817-16.074-4.077v-71.658c22.621 2.583 94.586 20.534 95.367 20.729l2.141 0.535 28.355-68.061-2.782-0.785c-0.688-0.194-69.212-19.432-114.65-24.701-2.714-0.635-5.545-1.183-8.434-1.668v-40.601h-98.404v40.978c-54.789 5.083-104.1 23.996-132.81 51.111-7.655 5.472-13.519 17.862-16.102 34.044-2.97 18.609-0.864 37.178 5.121 45.157l0.088 0.11c36.791 43.8 50.697 51.338 143.71 75.546v111.31c-24.457-4.524-113.79-25.35-114.76-25.577l-1.854-0.433-35.181 61.099 0.883 1.323c0.906 1.357 2.791 4.184 29.1 12.247 13.851 4.245 28.999 8.246 35.768 9.94 8.552 2.136 48.006 6.096 86.049 8.967v43.902h98.403v-42.829c31.264-4.13 67.268-13.617 91.935-27.879 67.293-34.549 68.388-96.954 46.943-143.92zm-138.88 9.989c5.471 1.365 10.814 2.355 16.021 3.317 20.964 3.87 37.547 6.93 43.932 31.769-3.332 34.655-26.771 46.965-59.953 58.9v-93.986zm-98.403-87.574c-24.134-1.735-47.976-13.644-49.433-32.575-1.125-16.869 15.505-28.788 49.433-35.451v68.026z" fill="param(fill) #000" fill-opacity="param(fill-opacity)" stroke="param(outline) #FFF" stroke-opacity="param(outline-opacity)" stroke-width="param(outline-width) 0"/>
</svg>
