<?xml version="1.0" encoding="UTF-8"?>
<svg width="580px" height="580px" enable-background="new 0 0 579.997 579.997" sodipodi:docbase="/usr/share/qgis/svg/Garmin_Symbols" sodipodi:docname="gas.svg" sodipodi:version="0.32" version="1.1" viewBox="0 0 580 580" xmlns="http://www.w3.org/2000/svg" xmlns:sodipodi="http://inkscape.sourceforge.net/DTD/sodipodi-0.dtd">
	<sodipodi:namedview bordercolor="#666666" borderopacity="1.0" pagecolor="#ffffff"></sodipodi:namedview>
	<path d="m474.74 442.24c-0.019-0.663-0.038-1.254-0.039-1.77-0.145-51.109-47.358-80.054-71.962-91.67l-1.613-146.98-69.726-58.711v-96.91h-226.23v487.58h226.23v-1.215c0.376 1e-3 0.762 8e-3 1.136 8e-3 59.265 0 99.231-11.302 122.06-34.484 21.112-21.437 20.406-46.441 20.141-55.854zm-185.59-348.63v105.63h-141.74v-105.63h141.74zm134.84 374.34c-8.114 8.24-30.886 21.834-92.59 21.665v-290.34l26.983 22.721 1.72 156.6 14.412 4.888c0.571 0.194 57.122 20.399 57.225 57.102 3e-3 0.829 0.026 1.789 0.057 2.864 0.192 6.797 0.454 16.108-7.807 24.498z" fill="param(fill) #000" fill-opacity="param(fill-opacity)" stroke="param(outline) #FFF" stroke-opacity="param(outline-opacity)" stroke-width="param(outline-width) 0"/>
</svg>
