<?xml version="1.0" encoding="UTF-8"?>
<svg width="580px" height="580px" enable-background="new 0 0 579.997 579.997" sodipodi:docbase="/usr/share/qgis/svg/Garmin_Symbols" sodipodi:docname="golf.svg" sodipodi:version="0.32" version="1.1" viewBox="0 0 580 580" xmlns="http://www.w3.org/2000/svg" xmlns:sodipodi="http://inkscape.sourceforge.net/DTD/sodipodi-0.dtd">
	<sodipodi:namedview bordercolor="#666666" borderopacity="1.0" pagecolor="#ffffff"></sodipodi:namedview>
	<path d="m452.46 354.12c-41.711-17.62-96.268-27.667-154.38-28.521v-287.28h-20.46v287.35c-56.504 1.275-109.4 11.259-150.09 28.444-47.759 20.174-74.061 48.591-74.061 80.018 0 31.426 26.302 59.844 74.061 80.018 43.641 18.435 101.34 28.588 162.46 28.588s118.82-10.153 162.46-28.588c47.759-20.174 74.062-48.592 74.062-80.018-1e-3 -31.428-26.304-59.845-74.063-80.018zm-162.46 158.53c-121.65 0-206.43-41.377-206.43-78.512 0-35.861 79.068-75.675 194.05-78.363v89.535h20.461v-89.615c117.31 1.783 198.35 42.138 198.35 78.443-1e-3 37.135-84.779 78.512-206.43 78.512z" fill="param(fill) #000" fill-opacity="param(fill-opacity)" stroke="param(outline) #FFF" stroke-opacity="param(outline-opacity)" stroke-width="param(outline-width) 0"/>
	<polygon points="299.49 37.254 299.49 171.34 468.44 104.3" fill="param(fill) #000" fill-opacity="param(fill-opacity)" stroke="param(outline) #FFF" stroke-opacity="param(outline-opacity)" stroke-width="param(outline-width) 0"/>
</svg>
