<?xml version="1.0" encoding="UTF-8"?>
<svg width="580px" height="580px" enable-background="new 0 0 579.997 579.997" sodipodi:docbase="/usr/share/qgis/svg/Garmin_Symbols" sodipodi:docname="parachute.svg" sodipodi:version="0.32" version="1.1" viewBox="0 0 580 580" xmlns="http://www.w3.org/2000/svg" xmlns:sodipodi="http://inkscape.sourceforge.net/DTD/sodipodi-0.dtd">
	<path d="m486.97 249.02c0.256 0.463-394.52 0.303-393.94 0 0-106.55 88.186-192.93 196.97-192.93 108.78 0 196.97 86.379 196.97 192.93z" fill="param(fill) #000" fill-opacity="param(fill-opacity)" opacity=".25" sodipodi:nodetypes="ccsc"/>
	<path d="m502.66 259.91-3.586-3.336c0.065-0.104 0.135-0.196 0.198-0.305l1.98-3.358v-3.897c0-114.26-94.766-207.21-211.25-207.21-116.48 0-211.25 92.954-211.25 207.21v1.736l0.415 1.685c0.262 1.062 0.778 2.588 1.738 4.162l-3.562 3.313 146.4 157.35v121.31h136.7v-125.81l142.22-152.85zm-284.32 3.637 37.389 144.14h-2.63l0.97-0.902-133.38-143.35c12.123 0.027 27.656 0.053 45.471 0.074 15.804 0.018 33.504 0.034 52.18 0.046zm67.692 144.14-37.385-144.12c23.515 0.012 47.758 0.018 71.124 0.018 4.977 0 9.872 0 14.69-1e-3l-37.381 144.1h-11.048zm150.15-144.17c8.62-0.013 16.385-0.027 23.104-0.045l-131.02 140.82 36.504-140.72c27.871-0.01 52.104-0.03 71.415-0.059zm-146.17-193.15c95.873 0 174.73 72.583 182.12 164.51-24.382 0.095-78.661 0.15-152.36 0.15-90.996 0-178.36-0.083-211.88-0.189 7.416-91.903 86.266-164.47 182.12-164.47zm41.107 438.88h-78.031v-72.227h78.031v72.227z" fill="param(fill) #000" fill-opacity="param(fill-opacity)" stroke="param(outline) #FFF" stroke-opacity="param(outline-opacity)" stroke-width="param(outline-width) 0"/>
</svg>
