<?xml version="1.0" encoding="UTF-8"?>
<svg width="580px" height="580px" enable-background="new 0 0 579.997 579.997" sodipodi:docbase="/usr/share/qgis/svg/custom" sodipodi:docname="plane.svg" sodipodi:version="0.32" version="1.1" viewBox="0 0 580 580" xmlns="http://www.w3.org/2000/svg" xmlns:sodipodi="http://inkscape.sourceforge.net/DTD/sodipodi-0.dtd">
	<sodipodi:namedview bordercolor="#666666" borderopacity="1.0" pagecolor="#ffffff"></sodipodi:namedview>
	<path d="m548 366.05-92.479-58.519v-14.999c0-14.438-10.072-26.144-22.484-26.144-8.735 0-16.299 5.79-20.024 14.243l-100.53-63.612v-147.5c0-14.439-10.062-26.148-22.484-26.148-12.418 0-22.485 11.709-22.485 26.148v147.5l-101.74 64.379c-3.597-8.869-11.354-15.01-20.349-15.01-12.418 0-22.484 11.705-22.484 26.144v15.97l-90.944 57.548c-6.506 4.117-9.509 12.037-7.365 19.433s8.915 12.484 16.615 12.484h226.27v67.148l-90.849 57.49c-2.858 1.808-4.178 5.287-3.236 8.535 0.941 3.249 3.917 5.484 7.299 5.484h218.55c3.381 0 6.357-2.235 7.299-5.484 0.941-3.248-0.378-6.728-3.236-8.535l-90.853-57.49v-67.148h226.27c7.699 0 14.472-5.089 16.615-12.484s-0.862-15.316-7.368-19.434z" fill="param(fill) #000" fill-opacity="param(fill-opacity)" stroke="param(outline) #FFF" stroke-opacity="param(outline-opacity)" stroke-width="param(outline-width) 0"/>
</svg>
