<?xml version="1.0" encoding="UTF-8"?>
<svg width="580px" height="580px" enable-background="new 0 0 579.997 579.997" sodipodi:docbase="/usr/share/qgis/svg/Garmin_Symbols" sodipodi:docname="swimming_area.svg" sodipodi:version="0.32" version="1.1" viewBox="0 0 580 580" xmlns="http://www.w3.org/2000/svg" xmlns:sodipodi="http://inkscape.sourceforge.net/DTD/sodipodi-0.dtd">
	<sodipodi:namedview bordercolor="#666666" borderopacity="1.0" pagecolor="#ffffff"></sodipodi:namedview>
	<path d="m24.821 395.41h530.35s-22.014-71.586-48.723-70.197c-28.096 1.458-30.599 43.988-52.263 43.988-23.088 0-26.943-43.988-54.96-43.988s-26.764 44.317-50.605 43.988c-23.786-0.33-32.161-45.297-56.617-43.988-25.837 1.383-26.471 44.313-48.949 43.988-22.541-0.33-33.883-43.918-58.271-43.988-24.355-0.075-23.027 45.371-47.294 43.988-24.318-1.389-32.404-43.988-59.929-43.988-28.908-1e-3 -52.743 75.08-52.743 70.197z" fill="param(fill) #000" fill-opacity="param(fill-opacity)" opacity=".25" sodipodi:nodetypes="cczzzzzzzzzc"/>
	<path d="m179.19 286.29c37.86-11.531 51.489-19.769 68.149-24.71 16.657 3.293 30.289 11.531 30.289 11.531s-8.347 15.882-70.875 64.575c11.796 12.931 21.699 31.3 36.304 31.514 22.479 0.324 23.112-42.605 48.949-43.988 18.545-0.992 27.844 24.619 41.627 37.205 9.062-9.833 8.958-10.936 24.255-26.707 6.563 3.845 5.554 10.986 12.115 14.832 0.067 0.229 0.131 0.434 0.197 0.651 5.621-9.957 11.017-21.035 21.392-24.714-1.975-3.905-4.12-7.977-6.441-12.185-16.655-21.415-7.571-19.77-25.744-34.595 16.66-3.845 33.32 2.195 48.462-19.769 12.62-31.85 8.58-42.285-10.603-64.249-20.19-15.376-28.271-14.277-60.572-1.647-24.232 31.3-13.635 32.948-16.661 52.718 0 0-6.063 0-18.179-4.942-12.112-4.941-16.654-14.827-43.915-14.827-27.26 0-37.86 11.531-80.265 26.358-42.402 14.825-51.489 36.242-51.489 36.242l16.658 13.18s19.689-4.939 36.347-16.473z" fill="param(fill) #000" fill-opacity="param(fill-opacity)" stroke="param(outline) #FFF" stroke-opacity="param(outline-opacity)" stroke-width="param(outline-width) 0"/>
	<path d="m24.821 395.41h530.35s-22.014-71.586-48.723-70.197c-28.096 1.458-30.599 43.988-52.263 43.988-23.088 0-26.943-43.988-54.96-43.988s-26.764 44.317-50.605 43.988c-23.786-0.33-32.161-45.297-56.617-43.988-25.837 1.383-26.471 44.313-48.949 43.988-22.541-0.33-33.883-43.918-58.271-43.988-24.355-0.075-23.027 45.371-47.294 43.988-24.318-1.389-32.404-43.988-59.929-43.988-28.908-1e-3 -52.743 75.08-52.743 70.197z" fill="none" stroke="param(outline) #FFF" stroke-opacity="param(outline-opacity)" stroke-width="param(outline-width) 0" sodipodi:nodetypes="cczzzzzzzzzc"/>
</svg>
