<?xml version="1.0" encoding="UTF-8"?>
<svg width="580px" height="580px" enable-background="new 0 0 579.997 579.997" sodipodi:docbase="/usr/share/qgis/svg/Garmin_Symbols" sodipodi:docname="trailhead.svg" sodipodi:version="0.32" version="1.1" viewBox="0 0 580 580" xmlns="http://www.w3.org/2000/svg" xmlns:sodipodi="http://inkscape.sourceforge.net/DTD/sodipodi-0.dtd">
	<sodipodi:namedview bordercolor="#666666" borderopacity="1.0" pagecolor="#ffffff"></sodipodi:namedview>
	<path d="m402.9 318.25 62.95-20.439-64.764-199.45-70.397 22.857 7.519 23.154c-5.28-4.731-11.488-10.002-19.134-17.161l-8.139 2.335c10.291-9.652 16.694-23.146 16.694-38.09 0-29.34-24.645-53.123-55.041-53.123-30.397 0-55.039 23.783-55.039 53.123 0 25.845 19.124 47.369 44.457 52.132l-11.376 3.265c-24.238 33.205-39.924 77.633-64.163 95.404-19.012 12.158-27.364 8.887-52.08 11.225l-0.111-44.896h-19.82l-0.309 330.42 19.498 0.465 0.631-241.1c38.498-0.934 52.191-3.271 76.431-7.012 23.29-7.484 36.598-21.98 55.609-35.076l9.816 67.461s-94.783 214.51-83.961 215.94c25.754 3.42 58.128 1.375 58.128 1.375s67.089-172.41 89.607-172.09c21.149 0.316 58.031 170.62 58.031 170.62h56.104l-47.825-206.81c-1.166-5.108-2.269-9.941-3.316-14.526z" fill="param(fill) #000" fill-opacity="param(fill-opacity)" stroke="param(outline) #FFF" stroke-opacity="param(outline-opacity)" stroke-width="param(outline-width) 0"/>
</svg>
