<?xml version="1.0" encoding="UTF-8"?>
<svg width="580px" height="580px" enable-background="new 0 0 580 580" version="1.1" viewBox="0 0 580 580" xmlns="http://www.w3.org/2000/svg">
	<g transform="matrix(48.15 0 0 48.15 -1210.2 -51.871)" display="none" fill="none" stroke="#757575" stroke-width=".1">
		<rect x="1" y="1" width="10" height="10" display="inline"/>
		<rect x="2" y="2" width="8" height="8" display="inline"/>
	</g>
	<g transform="matrix(48.15 0 0 48.15 -1870.5 102.97)" display="none" fill="none" stroke="#757575" stroke-width=".1">
		<rect x="1" y="1" width="10" height="10" display="inline"/>
		<rect x="2" y="2" width="8" height="8" display="inline"/>
	</g>
	<path d="m541.27 450.64c-5.745-7.553-11.605-15.097-17.531-22.633 9.477-7.745 22.747-22.81 21.31-45.727-2.205-35.153-24.691-64.751-51.192-67.383-2.122-0.21-4.27-0.317-6.382-0.317-20.921 0-36.715 10.423-44.752 17.173-30.282-33.726-62.229-67.077-95.704-99.843-5.354-5.24-10.802-10.357-16.328-15.374 55.868-47.499 119.49-94.491 194.64-140.93 0.209-0.129 0.293-0.391 0.198-0.618s-0.341-0.351-0.578-0.293c-87.944 21.297-166.21 57.917-233.56 109.15-67.349-51.235-145.62-87.854-233.56-109.15-0.24-0.058-0.484 0.066-0.579 0.293s-0.01 0.489 0.199 0.618c75.152 46.437 138.77 93.429 194.64 140.93-5.527 5.016-10.976 10.134-16.329 15.374-33.475 32.765-65.421 66.115-95.704 99.844-8.038-6.751-23.832-17.174-44.753-17.174-2.112 0-4.26 0.107-6.381 0.317-26.501 2.632-48.988 32.229-51.193 67.383-1.438 22.918 11.834 37.982 21.311 45.727-5.933 7.545-11.799 15.096-17.55 22.657-0.135 0.2-13.29 20.229 0.027 36.626 4.108 5.058 9.226 7.623 15.213 7.623h2e-3c9.054 0 17.255-5.989 17.974-7.554 0.037-0.079 0.058-0.153 0.069-0.222 23.323-28.691 46.899-57.241 71.475-85.641 3.218 3.111 7.349 4.987 11.85 4.987h0.024c10.237-0.015 18.555-9.705 18.542-21.652-5e-3 -5.027-1.512-9.647-4.01-13.316 36.273-40.446 75.127-80.576 118.74-120.36 43.609 39.787 82.465 79.918 118.74 120.36-2.499 3.679-4.007 8.313-4.012 13.366-0.013 11.896 8.305 21.586 18.541 21.601h0.024 1e-3c4.499 0 8.629-1.875 11.847-4.989 24.576 28.399 48.153 56.95 71.477 85.643 0.011 0.068 0.032 0.143 0.069 0.222 0.719 1.563 8.92 7.554 17.976 7.554 5.986 0 11.104-2.564 15.212-7.623 13.315-16.399 0.161-36.428 9e-3 -36.652zm-31.068-39.654c-12.067-14.976-24.479-29.909-37.231-44.783 6.287-4.821 14.962-10.07 22.945-10.07 5.225 0 9.576 2.27 12.934 6.746 9.548 12.729 5.593 34.056 1.352 48.107zm-400.4-44.782c-12.752 14.874-25.165 29.808-37.232 44.785-4.241-14.051-8.197-35.377 1.353-48.11 3.357-4.477 7.709-6.746 12.934-6.746 7.98 0 16.656 5.25 22.945 10.071zm48.292 39.779zm266.58 0z" fill="param(fill)" fill-opacity="param(fill-opacity)" stroke="param(outline)" stroke-opacity="param(outline-opacity)" stroke-width="param(outline-width)"/>
</svg>
