<?xml version="1.0" encoding="UTF-8"?>
<svg width="580px" height="580px" enable-background="new 0 0 580 580" version="1.1" viewBox="0 0 580 580" xmlns="http://www.w3.org/2000/svg">
	<path d="m356.03 137.62c0.211 0.52 0.508 0.917 0.844 1.219s0.745 0.469 1.25 0.469c0.336 0 0.616-0.043 0.813-0.094s0.321-0.091 0.406-0.125v-10.813c-0.169-0.134-0.39-0.231-0.656-0.281s-0.494-0.063-0.719-0.063c-0.953 0-1.618 0.494-1.969 1.5s-0.531 2.381-0.531 4.125c0 0.804 0.041 1.563 0.125 2.25s0.226 1.293 0.437 1.813z" fill="param(fill)" fill-opacity="param(fill-opacity)" stroke="param(outline)" stroke-opacity="param(outline-opacity)" stroke-width="param(outline-width)"/>
	<path d="m458.69 431.06v-372c0-15.328-13.047-28.375-28.375-28.375h-270.88c-15.328 0-28.344 13.047-28.344 28.375v372c0.058 1.444 327.65 0.785 327.59 0zm-184.34-84.407h-8.375v-24.031c0-0.436 0.018-1.041 0.031-1.813s0.037-1.374 0.094-1.844c0.364-2.716 1.318-4.793 2.875-6.219 1.556-1.426 3.723-2.156 6.5-2.156 0.562 0 1.182 0.041 1.813 0.125s1.224 0.207 1.813 0.375c1.01 0.302 1.896 0.771 2.625 1.375s1.094 1.485 1.094 2.625c0 0.502-0.194 1.176-0.531 2.031s-0.749 1.72-1.281 2.625c-0.449-0.302-1.018-0.588-1.719-0.906s-1.502-0.5-2.344-0.5c-0.729 0-1.339 0.235-1.844 0.688s-0.75 1.152-0.75 2.125v1.219h6.219v7.5h-6.219v16.781zm-36.906-49.531c-1.739 0-3.095-0.15-4.063-0.469s-1.752-0.664-2.313-1c-0.729-0.436-1.22-0.887-1.5-1.406s-0.438-1.086-0.438-1.656c0-0.872 0.181-1.725 0.531-2.563s0.771-1.665 1.219-2.469c0.336 0.368 0.722 0.712 1.156 1.031s0.901 0.607 1.406 0.875 1.03 0.505 1.563 0.656 1.026 0.219 1.531 0.219c0.729 0 1.254-0.152 1.563-0.438s0.469-0.626 0.469-1.063c0-0.503-0.225-0.917-0.688-1.219s-1.045-0.578-1.719-0.813-1.406-0.511-2.219-0.813-1.545-0.699-2.219-1.219-1.256-1.208-1.719-2.063-0.688-1.969-0.688-3.344c0-1.34 0.242-2.525 0.719-3.531s1.107-1.815 1.906-2.469 1.712-1.15 2.75-1.469 2.131-0.469 3.281-0.469c2.3 0 4.32 0.412 6.031 1.25 0.757 0.369 1.384 0.824 1.875 1.344s0.719 1.108 0.719 1.813c0 0.603-0.146 1.318-0.469 2.156s-0.742 1.666-1.219 2.438c-0.842-0.771-1.731-1.42-2.656-1.906s-1.859-0.719-2.813-0.719c-1.206 0-1.813 0.412-1.813 1.25 0 0.536 0.239 0.965 0.688 1.25s1.014 0.518 1.688 0.719 1.402 0.436 2.188 0.688 1.514 0.622 2.188 1.125 1.239 1.191 1.688 2.063 0.656 1.998 0.656 3.406c0 2.684-0.791 4.845-2.375 6.438-1.583 1.595-3.876 2.377-6.904 2.377zm1.625 19.156v30.188c-1.149 0.436-2.196 0.656-3.094 0.656-1.29 0-2.285-0.193-3-0.563s-1.243-0.865-1.594-1.469-0.555-1.274-0.625-2.063-0.094-1.628-0.094-2.5v-29.156c0.336-0.033 0.667-0.09 1.031-0.156 0.308-0.067 0.652-0.123 1.031-0.156s0.76-0.063 1.125-0.063c0.674 0 1.307 0.068 1.938 0.219s1.211 0.427 1.688 0.813 0.862 0.938 1.156 1.625 0.438 1.553 0.438 2.625zm21.843-86.281c0.448 0.285 1.014 0.549 1.688 0.75s1.402 0.404 2.188 0.656 1.514 0.653 2.188 1.156 1.239 1.191 1.688 2.063 0.656 1.998 0.656 3.406c0 2.683-0.791 4.813-2.375 6.406-1.585 1.593-3.877 2.406-6.906 2.406-1.739 0-3.095-0.181-4.063-0.5s-1.752-0.633-2.313-0.969c-0.729-0.436-1.22-0.918-1.5-1.438s-0.438-1.055-0.438-1.625c0-0.872 0.181-1.725 0.531-2.563s0.771-1.665 1.219-2.469c0.336 0.368 0.722 0.712 1.156 1.031s0.901 0.607 1.406 0.875 1.03 0.474 1.563 0.625 1.026 0.219 1.531 0.219c0.729 0 1.254-0.121 1.563-0.406s0.469-0.658 0.469-1.094c0-0.503-0.225-0.917-0.688-1.219s-1.045-0.547-1.719-0.781-1.406-0.511-2.219-0.813-1.545-0.699-2.219-1.219-1.256-1.208-1.719-2.063-0.688-1.969-0.688-3.344c0-1.34 0.242-2.525 0.719-3.531s1.107-1.846 1.906-2.5 1.712-1.119 2.75-1.438 2.131-0.5 3.281-0.5c2.3 0 4.32 0.412 6.031 1.25 0.757 0.369 1.384 0.824 1.875 1.344s0.719 1.14 0.719 1.844c0 0.603-0.146 1.318-0.469 2.156s-0.742 1.635-1.219 2.406c-0.842-0.771-1.731-1.389-2.656-1.875s-1.859-0.719-2.813-0.719c-1.206 0-1.813 0.412-1.813 1.25 3e-3 0.54 0.242 0.938 0.69 1.223zm-11.75 65.719v-23.438c0.336-0.034 0.698-0.09 1.063-0.156 0.308-0.067 0.652-0.123 1.031-0.156s0.76-0.031 1.125-0.031c0.674 0 1.307 0.068 1.938 0.219s1.211 0.427 1.688 0.813 0.862 0.906 1.156 1.594 0.438 1.584 0.438 2.656v17.78c0 0.738-0.038 1.66-0.094 2.75s-0.179 2.065-0.375 2.938c-0.309 1.342-0.792 2.47-1.438 3.375s-1.357 1.634-2.156 2.188-1.625 0.953-2.438 1.188-1.505 0.344-2.094 0.344c-1.206 0-2.095-0.26-2.656-0.813s-0.929-1.364-1.125-2.438c-0.084-0.436-0.146-0.92-0.188-1.406s-0.1-1.131-0.156-1.969c0.898-0.101 1.626-0.292 2.188-0.594s1.004-0.718 1.313-1.188 0.513-1.005 0.625-1.625 0.155-1.293 0.155-2.031zm-0.156-31.125c0-1.442 0.389-2.582 1.188-3.438s1.787-1.313 2.938-1.313c1.149 0 2.138 0.457 2.938 1.313s1.188 1.996 1.188 3.438-0.388 2.568-1.188 3.406-1.788 1.25-2.938 1.25-2.139-0.412-2.938-1.25-1.188-1.964-1.188-3.406zm3.25-48.063c-0.337 0.855-0.749 1.72-1.281 2.625-0.449-0.302-1.018-0.588-1.719-0.906s-1.502-0.5-2.344-0.5c-0.729 0-1.339 0.235-1.844 0.688s-0.75 1.183-0.75 2.156v1.188h6.219v7.5h-6.219v16.813h-8.375v-24.063c0-0.436 0.018-1.042 0.031-1.813s0.037-1.374 0.094-1.844c0.364-2.716 1.318-4.793 2.875-6.219 1.556-1.425 3.723-2.125 6.5-2.125 0.562 0 1.182 0.041 1.813 0.125s1.224 0.207 1.813 0.375c1.01 0.302 1.896 0.74 2.625 1.344s1.094 1.485 1.094 2.625c-1e-3 0.502-0.195 1.176-0.532 2.031zm-13.219-73c-1.149 0.436-2.196 0.656-3.094 0.656-1.29 0-2.285-0.193-3-0.563s-1.243-0.834-1.594-1.438-0.555-1.306-0.625-2.094-0.125-1.628-0.125-2.5v-29.156c0.336-0.034 0.698-0.09 1.063-0.156 0.308-0.067 0.652-0.123 1.031-0.156s0.76-0.063 1.125-0.063c0.674 0 1.307 0.099 1.938 0.25s1.211 0.396 1.688 0.781 0.862 0.938 1.156 1.625 0.438 1.553 0.438 2.625v30.189zm3.375 185.22c0.435-1.677 1.021-3.023 1.75-4.063s1.578-1.78 2.531-2.25 1.931-0.719 2.969-0.719c0.673 0 1.28 0.082 1.813 0.25s0.996 0.376 1.375 0.594 0.699 0.438 0.938 0.656 0.385 0.369 0.469 0.469v-12.313c0.337-0.033 0.699-0.09 1.063-0.156 0.309-0.067 0.635-0.123 1-0.156s0.729-0.063 1.094-0.063c0.673 0 1.337 0.068 1.969 0.219s1.18 0.427 1.656 0.813 0.862 0.938 1.156 1.625 0.438 1.553 0.438 2.625v30.375h-6.313c-0.421 0-0.789-0.109-1.125-0.344s-0.5-0.729-0.5-1.5c-0.393 0.603-1.02 1.139-1.875 1.625s-1.929 0.719-3.219 0.719c-0.954 0-1.887-0.162-2.813-0.531s-1.788-1.016-2.531-1.938-1.318-2.188-1.781-3.781-0.719-3.585-0.719-6c-1e-3 -2.414 0.221-4.479 0.655-6.156zm19-38.187c-0.743-1.761-1.125-4.057-1.125-6.906 0-2.113 0.303-3.958 0.906-5.5s1.408-2.807 2.375-3.813c0.968-1.006 2.064-1.749 3.313-2.219s2.488-0.688 3.75-0.688c1.711 0 3.169 0.303 4.375 0.906s2.194 1.4 2.938 2.406 1.289 2.19 1.625 3.531 0.5 2.743 0.5 4.219v0.656c0 0.285-0.017 0.604-0.031 0.906s-0.018 0.576-0.031 0.844-0.034 0.46-0.063 0.594h-11.25c0.141 1.274 0.542 2.361 1.188 3.25s1.695 1.344 3.125 1.344c1.122 0 2.056-0.223 2.813-0.625s1.524-0.922 2.281-1.594c0.365 0.671 0.729 1.44 1.094 2.313 0.365 0.872 0.531 1.643 0.531 2.313 0 0.57-0.123 1.122-0.375 1.625s-0.699 0.968-1.344 1.438c-0.617 0.436-1.448 0.823-2.5 1.125s-2.367 0.438-3.938 0.438c-1.149 0-2.369-0.164-3.688-0.5-1.318-0.336-2.566-0.996-3.688-1.969s-2.037-2.334-2.781-4.094zm10.375-50.625v-29.156c0.336-0.034 0.667-0.09 1.031-0.156 0.308-0.067 0.652-0.123 1.031-0.156s0.76-0.063 1.125-0.063c0.674 0 1.307 0.099 1.938 0.25s1.211 0.396 1.688 0.781 0.862 0.938 1.156 1.625 0.438 1.553 0.438 2.625v30.188c-1.149 0.436-2.196 0.656-3.094 0.656-1.29 0-2.285-0.193-3-0.563-0.715-0.369-1.243-0.834-1.594-1.438s-0.555-1.306-0.625-2.094-0.094-1.627-0.094-2.499zm-7.125 121.78c0.799-0.855 1.787-1.281 2.938-1.281 1.149 0 2.107 0.426 2.906 1.281s1.219 2.027 1.219 3.469-0.419 2.568-1.219 3.406-1.757 1.25-2.906 1.25c-1.15 0-2.139-0.412-2.938-1.25s-1.188-1.965-1.188-3.406 0.389-2.614 1.188-3.469zm54.469-133.22c-0.141-0.285-0.324-0.505-0.563-0.656s-0.521-0.263-0.844-0.313c-0.322-0.05-0.667-0.063-1.031-0.063-0.98 0-1.952 0.15-2.906 0.469s-2.01 0.829-3.188 1.5c-0.533-0.771-0.921-1.543-1.188-2.281s-0.405-1.288-0.405-1.656c0-0.503 0.126-0.985 0.406-1.438s0.85-0.903 1.719-1.406c0.758-0.47 1.804-0.857 3.094-1.125s2.591-0.406 3.938-0.406c3.281 0 5.646 0.77 7.063 2.313s2.125 3.991 2.125 7.344v9.813c0 0.838 0.044 1.761 0.156 2.75s0.272 1.856 0.469 2.594c-0.393 0.134-0.755 0.229-1.063 0.313-0.309 0.084-0.611 0.168-0.906 0.219s-0.584 0.077-0.906 0.094-0.701 0.031-1.094 0.031c-2.271 0-3.573-0.77-3.938-2.313-0.477 0.57-1.168 1.062-2.094 1.531s-2.098 0.719-3.5 0.719c-0.869 0-1.7-0.138-2.5-0.406s-1.508-0.694-2.125-1.281-1.104-1.357-1.469-2.313c-0.364-0.956-0.563-2.125-0.563-3.5 0-1.944 0.426-3.5 1.281-4.656s1.905-2.021 3.125-2.625 2.478-0.989 3.781-1.156c1.304-0.167 2.418-0.25 3.344-0.25v-0.719c1e-3 -0.472-0.077-0.842-0.218-1.127zm17.188-91.812c-0.463-0.302-1.015-0.578-1.688-0.813s-1.437-0.511-2.25-0.813-1.546-0.699-2.219-1.219-1.225-1.208-1.688-2.063-0.719-1.969-0.719-3.344c0-1.34 0.242-2.525 0.719-3.531s1.107-1.815 1.906-2.469 1.743-1.15 2.781-1.469 2.131-0.469 3.281-0.469c2.3 0 4.289 0.412 6 1.25 0.757 0.369 1.384 0.824 1.875 1.344s0.75 1.108 0.75 1.813c0 0.603-0.178 1.318-0.5 2.156s-0.711 1.666-1.188 2.438c-0.842-0.771-1.731-1.42-2.656-1.906s-1.859-0.719-2.813-0.719c-1.206 0-1.813 0.412-1.813 1.25 0 0.536 0.208 0.965 0.656 1.25s1.015 0.518 1.688 0.719 1.402 0.436 2.188 0.688 1.515 0.622 2.188 1.125 1.238 1.191 1.688 2.063c0.449 0.872 0.688 1.998 0.688 3.406 0 2.683-0.79 4.845-2.375 6.438s-3.908 2.375-6.938 2.375c-1.739 0-3.095-0.15-4.063-0.469s-1.721-0.665-2.281-1c-0.729-0.436-1.251-0.918-1.531-1.438s-0.406-1.055-0.406-1.625c0-0.872 0.181-1.725 0.531-2.563s0.739-1.665 1.188-2.469c0.336 0.368 0.722 0.712 1.156 1.031s0.901 0.607 1.406 0.875 1.029 0.474 1.563 0.625 1.058 0.25 1.563 0.25c0.729 0 1.254-0.152 1.563-0.438s0.469-0.658 0.469-1.094c-1e-3 -0.501-0.257-0.884-0.719-1.185zm24.593 143.62c0.448 0.285 1.015 0.518 1.688 0.719s1.402 0.436 2.188 0.688 1.515 0.622 2.188 1.125 1.238 1.191 1.688 2.063c0.449 0.872 0.656 1.998 0.656 3.406 0 2.684-0.79 4.845-2.375 6.438s-3.877 2.375-6.906 2.375c-1.739 0-3.095-0.15-4.063-0.469s-1.752-0.664-2.313-1c-0.729-0.436-1.22-0.887-1.5-1.406s-0.438-1.086-0.438-1.656c0-0.872 0.181-1.725 0.531-2.563s0.771-1.665 1.219-2.469c0.336 0.368 0.722 0.712 1.156 1.031s0.901 0.607 1.406 0.875 0.998 0.505 1.531 0.656 1.058 0.219 1.563 0.219c0.729 0 1.254-0.152 1.563-0.438s0.469-0.626 0.469-1.063c0-0.503-0.225-0.917-0.688-1.219s-1.046-0.578-1.719-0.813-1.405-0.511-2.219-0.813-1.577-0.699-2.25-1.219-1.225-1.208-1.688-2.063-0.688-1.969-0.688-3.344c0-1.34 0.242-2.525 0.719-3.531s1.107-1.815 1.906-2.469 1.712-1.15 2.75-1.469 2.131-0.469 3.281-0.469c2.3 0 4.32 0.412 6.031 1.25 0.757 0.369 1.353 0.824 1.844 1.344s0.75 1.108 0.75 1.813c0 0.603-0.146 1.318-0.469 2.156s-0.742 1.666-1.219 2.438c-0.842-0.771-1.731-1.42-2.656-1.906s-1.859-0.719-2.813-0.719c-1.206 0-1.813 0.412-1.813 1.25 3e-3 0.538 0.242 0.966 0.69 1.252zm-2.156-63.782c-0.337 0.855-0.78 1.72-1.313 2.625-0.448-0.302-1.018-0.588-1.719-0.906s-1.471-0.5-2.313-0.5c-0.729 0-1.339 0.235-1.844 0.688s-0.75 1.183-0.75 2.156v1.188h6.219v7.5h-6.219v16.813h-8.375v-24.063c0-0.436-0.014-1.042 0-1.813s0.068-1.374 0.125-1.844c0.364-2.716 1.318-4.793 2.875-6.219s3.724-2.125 6.5-2.125c0.562 0 1.15 0.041 1.781 0.125s1.255 0.207 1.844 0.375c1.01 0.302 1.864 0.74 2.594 1.344s1.094 1.485 1.094 2.625c1e-3 0.502-0.162 1.176-0.499 2.031zm-38.094 112.56c-0.141-0.285-0.324-0.506-0.563-0.656s-0.521-0.263-0.844-0.313c-0.322-0.051-0.667-0.063-1.031-0.063-0.98 0-1.952 0.15-2.906 0.469s-2.01 0.828-3.188 1.5c-0.533-0.771-0.952-1.543-1.219-2.281s-0.406-1.288-0.406-1.656c0-0.504 0.157-0.985 0.438-1.438s0.85-0.934 1.719-1.438c0.758-0.47 1.772-0.826 3.063-1.094s2.622-0.406 3.969-0.406c3.281 0 5.614 0.77 7.031 2.313s2.125 3.99 2.125 7.344v9.813c0 0.838 0.075 1.761 0.188 2.75s0.272 1.855 0.469 2.594c-0.393 0.134-0.755 0.229-1.063 0.313-0.309 0.084-0.611 0.137-0.906 0.188-0.295 0.05-0.615 0.108-0.938 0.125s-0.67 0-1.063 0c-2.271 0-3.573-0.77-3.938-2.313-0.477 0.57-1.199 1.093-2.125 1.563s-2.098 0.719-3.5 0.719c-0.869 0-1.7-0.139-2.5-0.406s-1.508-0.694-2.125-1.281-1.104-1.357-1.469-2.313-0.531-2.125-0.531-3.5c0-1.944 0.426-3.5 1.281-4.656s1.874-2.021 3.094-2.625 2.509-0.989 3.813-1.156c1.304-0.168 2.418-0.25 3.344-0.25v-0.719c0-0.472-0.078-0.842-0.219-1.127zm3.532-32.719v-24.031c0-0.436 0.018-1.042 0.031-1.813s0.037-1.405 0.094-1.875c0.364-2.716 1.318-4.793 2.875-6.219s3.724-2.125 6.5-2.125c0.562 0 1.15 0.041 1.781 0.125s1.255 0.207 1.844 0.375c1.01 0.302 1.864 0.771 2.594 1.375 0.529 0.438 0.854 0.998 1 1.719 0.11-1.12 0.49-2.037 1.156-2.75 0.799-0.855 1.787-1.313 2.938-1.313 1.149 0 2.106 0.457 2.906 1.313s1.188 1.996 1.188 3.438-0.388 2.568-1.188 3.406-1.757 1.25-2.906 1.25c-1.15 0-2.139-0.412-2.938-1.25-0.642-0.673-0.999-1.532-1.125-2.594-0.077 0.403-0.222 0.858-0.438 1.406-0.337 0.855-0.749 1.751-1.281 2.656-0.448-0.302-1.049-0.619-1.75-0.938s-1.471-0.469-2.313-0.469c-0.729 0-1.339 0.235-1.844 0.688s-0.75 1.152-0.75 2.125v1.219h6.219v7.469h-6.219v16.813h-8.374zm6.5-50.937v-23.438c0.337-0.034 0.667-0.09 1.031-0.156 0.309-0.067 0.652-0.123 1.031-0.156s0.761-0.063 1.125-0.063c0.674 0 1.338 0.099 1.969 0.25s1.18 0.396 1.656 0.781 0.862 0.938 1.156 1.625 0.438 1.553 0.438 2.625v17.813c0 0.738-0.038 1.66-0.094 2.75s-0.179 2.065-0.375 2.938c-0.309 1.341-0.793 2.47-1.438 3.375s-1.356 1.634-2.156 2.188-1.593 0.953-2.406 1.188-1.536 0.344-2.125 0.344c-1.206 0-2.063-0.291-2.625-0.844-0.561-0.553-0.96-1.364-1.156-2.438-0.085-0.436-0.146-0.889-0.188-1.375s-0.1-1.162-0.156-2c0.897-0.1 1.627-0.292 2.188-0.594 0.562-0.302 1.004-0.687 1.313-1.156s0.513-1.005 0.625-1.625 0.187-1.295 0.187-2.032zm-0.188-31.157c0-1.442 0.42-2.582 1.219-3.438s1.756-1.281 2.906-1.281c1.149 0 2.138 0.426 2.938 1.281s1.188 1.996 1.188 3.438-0.388 2.6-1.188 3.438-1.788 1.25-2.938 1.25-2.107-0.412-2.906-1.25-1.219-1.996-1.219-3.438zm8.438 86.282c0.562-0.302 0.973-0.718 1.281-1.188s0.544-1.005 0.656-1.625 0.156-1.293 0.156-2.031v-23.438c0.336-0.034 0.698-0.09 1.063-0.156 0.308-0.067 0.652-0.123 1.031-0.156s0.729-0.031 1.094-0.031c0.674 0 1.338 0.068 1.969 0.219s1.18 0.427 1.656 0.813 0.862 0.906 1.156 1.594 0.438 1.584 0.438 2.656v17.78c0 0.738-6e-3 1.66-0.063 2.75-0.056 1.09-0.21 2.065-0.406 2.938-0.309 1.342-0.762 2.47-1.406 3.375s-1.388 1.634-2.188 2.188-1.593 0.953-2.406 1.188-1.505 0.344-2.094 0.344c-1.206 0-2.095-0.26-2.656-0.813s-0.96-1.364-1.156-2.438c-0.085-0.436-0.146-0.92-0.188-1.406s-0.068-1.131-0.125-1.969c0.897-0.101 1.626-0.293 2.188-0.594zm-30.813-28.594c0.393-0.033 0.839-0.031 1.344-0.031 2.524 0 4.102 0.824 4.719 2.5 0.14-0.302 0.361-0.617 0.656-0.969s0.639-0.698 1.031-1 0.839-0.549 1.344-0.75 1.033-0.281 1.594-0.281c0.421 0 0.844 0.024 1.25 0.125s0.758 0.282 1.094 0.5 0.633 0.506 0.844 0.875 0.313 0.808 0.313 1.344-0.075 1.145-0.188 1.781-0.255 1.267-0.438 1.938-0.369 1.332-0.594 1.969-0.463 1.215-0.688 1.719c-0.589-0.57-1.141-0.996-1.688-1.281s-1.168-0.438-1.813-0.438c-0.729 0-1.264 0.22-1.656 0.656s-0.594 1.015-0.594 1.719v14.031h-8.469v-24.031c0.253-0.067 0.539-0.152 0.875-0.219 0.309-0.068 0.671-0.124 1.064-0.157zm-1.25 52.344c0.491 0.52 0.719 1.14 0.719 1.844 0 0.603-0.146 1.318-0.469 2.156s-0.711 1.635-1.188 2.406c-0.842-0.771-1.731-1.389-2.656-1.875s-1.859-0.75-2.813-0.75c-1.206 0-1.813 0.443-1.813 1.281 0 0.536 0.208 0.934 0.656 1.219s1.015 0.518 1.688 0.719 1.402 0.436 2.188 0.688 1.515 0.622 2.188 1.125 1.238 1.19 1.688 2.063c0.449 0.871 0.656 2.029 0.656 3.438 0 2.683-0.79 4.813-2.375 6.406s-3.877 2.375-6.906 2.375c-1.739 0-3.095-0.15-4.063-0.469s-1.721-0.633-2.281-0.969c-0.729-0.436-1.251-0.918-1.531-1.438s-0.406-1.055-0.406-1.625c0-0.872 0.181-1.725 0.531-2.563s0.739-1.664 1.188-2.469c0.336 0.368 0.722 0.713 1.156 1.031s0.901 0.607 1.406 0.875 1.029 0.475 1.563 0.625 1.058 0.219 1.563 0.219c0.729 0 1.223-0.121 1.531-0.406s0.469-0.658 0.469-1.094c0-0.504-0.225-0.917-0.688-1.219s-1.046-0.547-1.719-0.781c-0.674-0.234-1.406-0.511-2.219-0.813s-1.545-0.73-2.219-1.25-1.256-1.207-1.719-2.062-0.688-1.969-0.688-3.344c0-1.34 0.242-2.494 0.719-3.5s1.107-1.846 1.906-2.5 1.713-1.15 2.75-1.469 2.131-0.469 3.281-0.469c2.3 0 4.32 0.412 6.031 1.25 0.758 0.37 1.385 0.825 1.876 1.345zm-4.031-35.344c-0.393 1.593-1.02 2.98-1.875 4.188s-1.952 2.154-3.313 2.875-3.037 1.094-5 1.094c-1.936 0-3.561-0.357-4.906-1.063s-2.457-1.654-3.313-2.844-1.482-2.565-1.875-4.125-0.594-3.194-0.594-4.938 0.239-3.41 0.688-4.969 1.12-2.892 2.031-4.031 2.061-2.048 3.406-2.719 2.927-1 4.75-1c1.936 0 3.561 0.329 4.906 1 1.347 0.671 2.439 1.579 3.281 2.719s1.465 2.475 1.844 4 0.563 3.134 0.563 4.844-0.201 3.376-0.593 4.969zm-12.875 83.687v7.5h-6.219v16.813h-8.375v-24.063c0-0.436 0.018-1.01 0.031-1.781s0.037-1.405 0.094-1.875c0.364-2.716 1.318-4.793 2.875-6.219 1.556-1.426 3.723-2.125 6.5-2.125 0.562 0 1.182 0.041 1.813 0.125s1.224 0.207 1.813 0.375c1.01 0.302 1.896 0.74 2.625 1.344s1.094 1.485 1.094 2.625c0 0.502-0.163 1.176-0.5 2.031s-0.78 1.751-1.313 2.656c-0.449-0.302-1.018-0.619-1.719-0.938s-1.471-0.469-2.313-0.469c-0.729 0-1.371 0.204-1.875 0.656s-0.75 1.184-0.75 2.156v1.188h6.219zm20.5 24.469c-0.309 0.084-0.58 0.168-0.875 0.219s-0.615 0.077-0.938 0.094-0.67 0.031-1.063 0.031c-2.271 0-3.604-0.77-3.969-2.313-0.477 0.57-1.168 1.093-2.094 1.563s-2.098 0.688-3.5 0.688c-0.869 0-1.701-0.139-2.5-0.406s-1.508-0.694-2.125-1.281-1.104-1.357-1.469-2.313-0.563-2.125-0.563-3.5c0-1.944 0.426-3.469 1.281-4.625s1.904-2.053 3.125-2.656 2.478-0.989 3.781-1.156c1.304-0.168 2.418-0.25 3.344-0.25v-0.72c0-0.47-0.078-0.84-0.219-1.125s-0.324-0.506-0.563-0.656-0.521-0.231-0.844-0.281c-0.322-0.051-0.667-0.094-1.031-0.094-0.98 0-1.952 0.182-2.906 0.5s-2.01 0.797-3.188 1.469c-0.533-0.771-0.922-1.512-1.188-2.25s-0.406-1.319-0.406-1.688c0-0.504 0.126-0.954 0.406-1.406s0.881-0.934 1.75-1.438c0.758-0.47 1.772-0.857 3.063-1.125s2.591-0.406 3.938-0.406c3.281 0 5.646 0.801 7.063 2.344s2.125 3.959 2.125 7.313v9.813c0 0.838 0.044 1.761 0.156 2.75s0.272 1.855 0.469 2.594c-0.39 0.133-0.753 0.227-1.06 0.311zm17.937-1.812c-1.585 1.593-3.908 2.406-6.938 2.406-1.739 0-3.095-0.15-4.063-0.469s-1.721-0.664-2.281-1c-0.729-0.436-1.22-0.918-1.5-1.438s-0.438-1.055-0.438-1.625c0-0.872 0.181-1.725 0.531-2.563s0.739-1.664 1.188-2.469c0.336 0.368 0.722 0.713 1.156 1.031s0.933 0.607 1.438 0.875 0.998 0.475 1.531 0.625 1.058 0.25 1.563 0.25c0.729 0 1.254-0.152 1.563-0.438s0.469-0.658 0.469-1.094c0-0.504-0.225-0.886-0.688-1.188s-1.046-0.578-1.719-0.813-1.405-0.511-2.219-0.813-1.577-0.699-2.25-1.219-1.225-1.207-1.688-2.063-0.688-1.969-0.688-3.344c0-1.34 0.211-2.525 0.688-3.531s1.139-1.846 1.938-2.5 1.712-1.119 2.75-1.438 2.131-0.5 3.281-0.5c2.3 0 4.289 0.443 6 1.281 0.757 0.369 1.384 0.793 1.875 1.313s0.75 1.14 0.75 1.844c0 0.603-0.178 1.318-0.5 2.156s-0.711 1.666-1.188 2.438c-0.842-0.771-1.731-1.42-2.656-1.906s-1.859-0.719-2.813-0.719c-1.206 0-1.813 0.412-1.813 1.25 0 0.536 0.239 0.965 0.688 1.25s1.015 0.518 1.688 0.719 1.402 0.436 2.188 0.688 1.515 0.622 2.188 1.125 1.207 1.191 1.656 2.063 0.688 1.998 0.688 3.406c0 2.687-0.79 4.817-2.375 6.41zm3.782-72.688c0.253-0.067 0.57-0.121 0.906-0.188 0.308-0.067 0.639-0.123 1.031-0.156s0.839-0.063 1.344-0.063c2.553 0 4.13 0.797 4.719 2.406 0.477-0.771 1.145-1.444 2-2.031s2.007-0.875 3.438-0.875c0.869 0 1.745 0.208 2.656 0.594s1.757 1.016 2.5 1.938 1.35 2.16 1.813 3.719 0.688 3.499 0.688 5.813c0 2.717-0.242 4.944-0.719 6.688s-1.121 3.133-1.906 4.156c-0.785 1.022-1.657 1.739-2.625 2.125s-1.925 0.563-2.906 0.563c-0.757 0-1.422-0.098-1.969-0.281s-0.996-0.404-1.375-0.656-0.696-0.47-0.906-0.688-0.315-0.369-0.344-0.469v12.406h-8.344v-35.001zm19 74.875c-1.318 0-2.367-0.273-3.125-0.844s-1.408-1.314-1.969-2.219l-2.688-4.469c-0.477-0.771-0.845-1.485-1.125-2.156s-0.516-1.443-0.656-2.281v11.438h-8.406v-35.313c0.336-0.033 0.698-0.09 1.063-0.156 0.308-0.067 0.652-0.123 1.031-0.156s0.761-0.031 1.125-0.031c0.674 0 1.307 0.068 1.938 0.219s1.18 0.427 1.656 0.813 0.862 0.906 1.156 1.594 0.438 1.584 0.438 2.656v16.188c0.141-0.736 0.379-1.467 0.688-2.188s0.711-1.451 1.188-2.156l2.25-3.469c0.532-0.805 1.136-1.476 1.781-2.063s1.535-0.906 2.656-0.906c0.646 0 1.258 0.126 1.875 0.344s1.18 0.451 1.656 0.719c0.532 0.302 1.023 0.631 1.5 1l-5.75 9.656 6.813 12.438c-1.853 0.903-3.554 1.342-5.095 1.342zm15.593-0.75c-1.149 0.436-2.165 0.656-3.063 0.656-1.29 0-2.285-0.162-3-0.531s-1.274-0.865-1.625-1.469-0.555-1.306-0.625-2.094-0.094-1.628-0.094-2.5v-29.156c0.337-0.033 0.667-0.09 1.031-0.156 0.309-0.067 0.652-0.123 1.031-0.156s0.761-0.031 1.125-0.031c0.674 0 1.338 0.068 1.969 0.219s1.18 0.427 1.656 0.813 0.862 0.906 1.156 1.594 0.438 1.584 0.438 2.656v30.155zm8.5-53.812c-1.809 2.984-4.657 4.469-8.5 4.469-3.87 0-6.694-1.429-8.531-4.313s-2.781-7.204-2.781-12.938c0-2.648 0.239-5.027 0.688-7.156s1.137-3.945 2.063-5.438 2.118-2.633 3.563-3.438 3.165-1.219 5.156-1.219c1.963 0 3.629 0.385 5.031 1.156s2.54 1.914 3.438 3.406 1.562 3.309 1.969 5.438 0.625 4.534 0.625 7.25c-2e-3 5.534-0.912 9.798-2.721 12.783zm4.844-46.563h-8.375v-24.031c0-0.436 0.018-1.042 0.031-1.813s0.037-1.405 0.094-1.875c0.364-2.716 1.35-4.793 2.906-6.219s3.724-2.125 6.5-2.125c0.562 0 1.15 0.041 1.781 0.125s1.224 0.207 1.813 0.375c1.01 0.302 1.896 0.771 2.625 1.375s1.094 1.454 1.094 2.594c0 0.502-0.163 1.176-0.5 2.031s-0.78 1.751-1.313 2.656c-0.448-0.302-1.018-0.619-1.719-0.938s-1.471-0.469-2.313-0.469c-0.729 0-1.339 0.235-1.844 0.688s-0.781 1.152-0.781 2.125v1.219h6.25v7.469h-6.25v16.813zm21.063 40.594c-0.827 2.447-1.918 4.427-3.25 5.969s-2.849 2.686-4.531 3.406-3.352 1.063-5.063 1.063c-0.98 0-1.772-0.082-2.375-0.25s-1.104-0.414-1.469-0.75-0.624-0.732-0.75-1.219-0.188-1.08-0.188-1.75c0-0.504 0.056-1.094 0.125-1.781s0.131-1.277 0.188-1.781c0.561 0.135 1.011 0.217 1.375 0.25s0.805 0.063 1.281 0.063c0.646 0 1.278-0.1 1.938-0.25s1.286-0.381 1.875-0.75 1.151-0.88 1.656-1.5 0.913-1.404 1.25-2.344c-0.617 0.47-1.326 0.816-2.125 1s-1.511 0.25-2.156 0.25c-1.347 0-2.521-0.303-3.531-0.906s-1.858-1.386-2.531-2.375-1.194-2.131-1.531-3.438-0.5-2.685-0.5-4.094c0-2.18 0.279-4.047 0.813-5.656s1.266-2.958 2.219-4.031 2.082-1.887 3.344-2.406 2.607-0.781 4.094-0.781c1.823 0 3.455 0.358 4.844 1.063s2.544 1.724 3.469 3.031 1.6 2.904 2.063 4.781c0.463 1.878 0.719 3.965 0.719 6.313-3e-3 3.451-0.426 6.425-1.253 8.873zm3.468-192.84c0 0.738-0.038 1.66-0.094 2.75s-0.179 2.065-0.375 2.938c-0.309 1.341-0.762 2.47-1.406 3.375s-1.388 1.634-2.188 2.188-1.593 0.953-2.406 1.188-1.505 0.344-2.094 0.344c-1.206 0-2.095-0.291-2.656-0.844s-0.96-1.364-1.156-2.438c-0.085-0.436-0.146-0.889-0.188-1.375s-0.068-1.131-0.125-1.969c0.897-0.1 1.627-0.323 2.188-0.625 0.562-0.302 0.973-0.687 1.281-1.156s0.544-1.005 0.656-1.625 0.156-1.293 0.156-2.031v-23.438c0.337-0.034 0.698-0.09 1.063-0.156 0.309-0.067 0.652-0.123 1.031-0.156s0.729-0.031 1.094-0.031c0.674 0 1.338 0.068 1.969 0.219s1.18 0.427 1.656 0.813 0.862 0.906 1.156 1.594 0.438 1.584 0.438 2.656v17.779zm-8.562-30.406c0-1.442 0.389-2.613 1.188-3.469s1.756-1.281 2.906-1.281c1.149 0 2.138 0.426 2.938 1.281s1.188 2.027 1.188 3.469-0.388 2.568-1.188 3.406-1.788 1.25-2.938 1.25-2.107-0.412-2.906-1.25-1.188-1.964-1.188-3.406zm17.125 232.38c-0.701 0.889-1.675 1.313-2.938 1.313-1.234 0-2.223-0.424-2.938-1.313s-1.063-2.031-1.063-3.406c0-1.374 0.398-2.488 1.156-3.344s1.694-1.281 2.844-1.281c1.178 0 2.132 0.426 2.875 1.281s1.125 1.97 1.125 3.344c1e-3 1.375-0.36 2.517-1.061 3.406zm-11.969-272.88c0.729-1.039 1.578-1.78 2.531-2.25s1.962-0.719 3-0.719c0.673 0 1.279 0.082 1.813 0.25s0.965 0.376 1.344 0.594 0.699 0.438 0.938 0.656 0.385 0.369 0.469 0.469v-12.313c0.337-0.034 0.698-0.09 1.063-0.156 0.309-0.067 0.636-0.123 1-0.156s0.729-0.063 1.094-0.063c0.673 0 1.338 0.068 1.969 0.219s1.18 0.427 1.656 0.813 0.862 0.938 1.156 1.625 0.438 1.553 0.438 2.625v30.375h-6.313c-0.421 0-0.789-0.109-1.125-0.344s-0.5-0.729-0.5-1.5c-0.393 0.603-1.02 1.139-1.875 1.625s-1.929 0.719-3.219 0.719c-0.953 0-1.887-0.162-2.813-0.531s-1.757-1.016-2.5-1.938-1.35-2.188-1.813-3.781-0.688-3.585-0.688-6c0-2.414 0.19-4.479 0.625-6.156s1.021-3.024 1.75-4.063zm-18.594-3.875c0.014-0.771 0.068-1.374 0.125-1.844 0.364-2.716 1.318-4.793 2.875-6.219s3.724-2.156 6.5-2.156c0.562 0 1.15 0.041 1.781 0.125s1.255 0.207 1.844 0.375c1.01 0.302 1.864 0.771 2.594 1.375s1.094 1.485 1.094 2.625c0 0.502-0.163 1.176-0.5 2.031s-0.78 1.72-1.313 2.625c-0.448-0.302-1.018-0.588-1.719-0.906s-1.472-0.5-2.313-0.5c-0.729 0-1.339 0.235-1.844 0.688s-0.75 1.152-0.75 2.125v1.219h6.219v7.5h-6.219v16.781h-8.375v-24.032c1e-3 -0.436-0.012-1.041 1e-3 -1.812zm1 54.156c0.532-0.804 1.104-1.476 1.75-2.063s1.535-0.906 2.656-0.906c0.646 0 1.258 0.126 1.875 0.344s1.18 0.451 1.656 0.719c0.532 0.302 1.023 0.631 1.5 1l-5.75 9.656 6.813 12.438c-1.852 0.904-3.552 1.344-5.094 1.344-1.318 0-2.336-0.274-3.094-0.844s-1.439-1.314-2-2.219l-2.688-4.469c-0.477-0.771-0.845-1.485-1.125-2.156s-0.484-1.443-0.625-2.281v11.437h-8.438v-35.313c0.336-0.034 0.698-0.09 1.063-0.156 0.308-0.067 0.652-0.123 1.031-0.156s0.761-0.031 1.125-0.031c0.674 0 1.307 0.068 1.938 0.219s1.18 0.427 1.656 0.813 0.862 0.906 1.156 1.594 0.469 1.584 0.469 2.656v16.188c0.141-0.737 0.348-1.467 0.656-2.188s0.711-1.451 1.188-2.156l2.282-3.47zm-26.156-63.594c0.336-0.034 0.698-0.09 1.063-0.156 0.308-0.067 0.652-0.123 1.031-0.156s0.729-0.063 1.094-0.063c0.674 0 1.338 0.068 1.969 0.219s1.18 0.427 1.656 0.813 0.862 0.938 1.156 1.625 0.438 1.553 0.438 2.625v16.187c0.141-0.737 0.379-1.467 0.688-2.188s0.711-1.42 1.188-2.125l2.25-3.469c0.532-0.804 1.136-1.507 1.781-2.094s1.535-0.875 2.656-0.875c0.646 0 1.258 0.126 1.875 0.344s1.18 0.451 1.656 0.719c0.532 0.302 1.023 0.631 1.5 1l-5.75 9.656 6.813 12.438c-1.852 0.904-3.552 1.344-5.094 1.344-1.318 0-2.367-0.274-3.125-0.844s-1.408-1.314-1.969-2.219l-2.688-4.469c-0.477-0.771-0.845-1.517-1.125-2.188s-0.516-1.412-0.656-2.25v11.406h-8.407v-35.28zm-0.875 60.907c0.533 0.168 0.965 0.345 1.344 0.563s0.699 0.438 0.938 0.656 0.385 0.368 0.469 0.469v-12.313c0.337-0.034 0.698-0.09 1.063-0.156 0.309-0.067 0.636-0.123 1-0.156s0.729-0.031 1.094-0.031c0.673 0 1.338 0.068 1.969 0.219s1.18 0.427 1.656 0.813 0.861 0.906 1.156 1.594c0.294 0.688 0.438 1.584 0.438 2.656v30.373h-6.313c-0.421 0-0.789-0.14-1.125-0.375s-0.5-0.729-0.5-1.5c-0.393 0.603-1.02 1.138-1.875 1.625-0.855 0.486-1.929 0.75-3.219 0.75-0.953 0-1.887-0.194-2.813-0.563s-1.757-1.016-2.5-1.938-1.35-2.188-1.813-3.781-0.688-3.585-0.688-6c0-2.414 0.19-4.448 0.625-6.125s1.021-3.055 1.75-4.094 1.578-1.78 2.531-2.25 1.962-0.719 3-0.719c0.673 1e-3 1.28 0.115 1.813 0.283zm-27.625-51.5c0.014-0.771 0.068-1.405 0.125-1.875 0.364-2.716 1.318-4.793 2.875-6.219s3.724-2.125 6.5-2.125c0.562 0 1.15 0.041 1.781 0.125s1.255 0.207 1.844 0.375c1.01 0.302 1.864 0.771 2.594 1.375 0.547 0.453 0.895 1.027 1.031 1.781v-2.844c0.336-0.034 0.698-0.09 1.063-0.156 0.308-0.067 0.652-0.123 1.031-0.156s0.761-0.063 1.125-0.063c0.674 0 1.307 0.068 1.938 0.219s1.18 0.427 1.656 0.813 0.862 0.938 1.156 1.625 0.438 1.553 0.438 2.625v30.187c-1.149 0.436-2.165 0.656-3.063 0.656-1.29 0-2.285-0.193-3-0.563-0.715-0.369-1.243-0.865-1.594-1.469s-0.555-1.274-0.625-2.063-0.125-1.628-0.125-2.5v-24.936c-0.074 0.415-0.211 0.895-0.438 1.469-0.337 0.855-0.78 1.751-1.313 2.656-0.448-0.302-1.018-0.619-1.719-0.938s-1.471-0.469-2.313-0.469c-0.729 0-1.339 0.235-1.844 0.688s-0.75 1.152-0.75 2.125v1.219h6.219v7.469h-6.219v16.813h-8.373v-24.032c0-0.436-0.014-1.042 0-1.812zm0.063 44.281c0 0.502-0.163 1.176-0.5 2.031s-0.749 1.75-1.281 2.656c-0.448-0.302-1.049-0.619-1.75-0.938s-1.471-0.469-2.313-0.469c-0.729 0-1.339 0.204-1.844 0.656s-0.75 1.183-0.75 2.156v1.188h6.219v7.5h-6.219v16.813h-8.375v-24.063c0-0.436 0.018-1.042 0.031-1.813s0.037-1.374 0.094-1.844c0.364-2.716 1.318-4.793 2.875-6.219s3.724-2.125 6.5-2.125c0.562 0 1.15 0.041 1.781 0.125s1.255 0.207 1.844 0.375c1.01 0.302 1.864 0.74 2.594 1.344s1.094 1.487 1.094 2.627zm-23.094-36.656c0.435-1.677 1.021-3.055 1.75-4.094s1.578-1.78 2.531-2.25 1.962-0.719 3-0.719c0.673 0 1.279 0.113 1.813 0.281s0.965 0.345 1.344 0.563 0.699 0.438 0.938 0.656 0.385 0.369 0.469 0.469v-12.313c0.337-0.034 0.698-0.09 1.063-0.156 0.309-0.067 0.636-0.123 1-0.156s0.729-0.031 1.094-0.031c0.673 0 1.338 0.068 1.969 0.219s1.18 0.427 1.656 0.813 0.861 0.906 1.156 1.594c0.294 0.688 0.438 1.584 0.438 2.656v30.375h-6.313c-0.421 0-0.789-0.14-1.125-0.375s-0.5-0.729-0.5-1.5c-0.393 0.603-1.02 1.17-1.875 1.656s-1.929 0.719-3.219 0.719c-0.953 0-1.887-0.193-2.813-0.563s-1.757-1.016-2.5-1.938-1.35-2.188-1.813-3.781-0.688-3.585-0.688-6 0.19-4.449 0.625-6.125zm0.875 43.093c0.617 0.218 1.148 0.482 1.625 0.75 0.532 0.302 1.055 0.63 1.531 1l-5.781 9.656 6.813 12.406c-1.852 0.904-3.521 1.375-5.063 1.375-1.318 0-2.367-0.305-3.125-0.875s-1.408-1.283-1.969-2.188l-2.719-4.5c-0.477-0.771-0.844-1.485-1.125-2.156s-0.484-1.412-0.625-2.25v11.406h-8.406v-35.313c0.336-0.034 0.667-0.09 1.031-0.156 0.308-0.067 0.652-0.091 1.031-0.125s0.76-0.063 1.125-0.063c0.674 0 1.338 0.068 1.969 0.219s1.18 0.427 1.656 0.813 0.861 0.906 1.156 1.594 0.438 1.584 0.438 2.656v16.188c0.141-0.737 0.348-1.467 0.656-2.188s0.711-1.42 1.188-2.125l2.281-3.469c0.532-0.804 1.104-1.507 1.75-2.094s1.535-0.875 2.656-0.875c0.646 2e-3 1.29 0.096 1.907 0.314zm-11.25-34.5c-0.463-0.302-1.045-0.547-1.719-0.781s-1.406-0.511-2.219-0.813-1.545-0.73-2.219-1.25c-0.673-0.52-1.256-1.208-1.719-2.063s-0.688-1.969-0.688-3.344c0-1.34 0.242-2.494 0.719-3.5s1.107-1.846 1.906-2.5 1.713-1.15 2.75-1.469 2.131-0.469 3.281-0.469c2.3 0 4.32 0.412 6.031 1.25 0.757 0.369 1.384 0.824 1.875 1.344s0.719 1.14 0.719 1.844c0 0.603-0.146 1.318-0.469 2.156s-0.742 1.635-1.219 2.406c-0.842-0.771-1.7-1.389-2.625-1.875s-1.891-0.719-2.844-0.719c-1.206 0-1.813 0.412-1.813 1.25 0 0.536 0.239 0.934 0.688 1.219s1.014 0.518 1.688 0.719c0.673 0.201 1.402 0.436 2.188 0.688s1.515 0.622 2.188 1.125 1.238 1.191 1.688 2.063c0.449 0.872 0.656 2.029 0.656 3.438 0 2.683-0.79 4.813-2.375 6.406s-3.877 2.406-6.906 2.406c-1.739 0-3.095-0.181-4.063-0.5s-1.752-0.633-2.313-0.969c-0.729-0.436-1.22-0.918-1.5-1.438s-0.406-1.055-0.406-1.625c0-0.872 0.149-1.725 0.5-2.563s0.771-1.665 1.219-2.469c0.336 0.368 0.722 0.712 1.156 1.031s0.901 0.607 1.406 0.875 1.029 0.474 1.563 0.625 1.026 0.219 1.531 0.219c0.729 0 1.254-0.121 1.563-0.406s0.469-0.658 0.469-1.094c0-0.501-0.224-0.915-0.687-1.217zm-6.938 125.12c0.631 0.151 1.211 0.396 1.688 0.781s0.861 0.938 1.156 1.625 0.438 1.553 0.438 2.625v16.219c0.141-0.737 0.348-1.467 0.656-2.188s0.711-1.451 1.188-2.156l2.281-3.469c0.532-0.804 1.104-1.507 1.75-2.094s1.535-0.875 2.656-0.875c0.646 0 1.289 0.126 1.906 0.344s1.148 0.451 1.625 0.719c0.532 0.302 1.055 0.631 1.531 1l-5.781 9.656 6.813 12.438c-1.852 0.904-3.552 1.344-5.094 1.344-1.318 0-2.336-0.274-3.094-0.844s-1.439-1.314-2-2.219l-2.688-4.469c-0.477-0.771-0.844-1.485-1.125-2.156s-0.484-1.443-0.625-2.281v11.438h-8.437v-35.313c0.336-0.034 0.698-0.09 1.063-0.156 0.308-0.067 0.652-0.123 1.031-0.156s0.76-0.063 1.125-0.063c0.674 0 1.306 0.099 1.937 0.25zm-2.968-69.25c0.112 0.989 0.273 1.856 0.469 2.594-0.393 0.134-0.754 0.229-1.063 0.313s-0.611 0.168-0.906 0.219-0.615 0.077-0.938 0.094c-0.322 0.017-0.67 0.031-1.063 0.031-2.271 0-3.604-0.77-3.969-2.313-0.477 0.57-1.168 1.093-2.094 1.563s-2.098 0.688-3.5 0.688c-0.87 0-1.701-0.139-2.5-0.406-0.799-0.269-1.508-0.695-2.125-1.281-0.617-0.587-1.104-1.357-1.469-2.313s-0.531-2.125-0.531-3.5c0-1.944 0.426-3.5 1.281-4.656 0.855-1.157 1.874-2.021 3.094-2.625s2.509-0.989 3.813-1.156 2.417-0.25 3.344-0.25v-0.719c0-0.47-0.079-0.84-0.219-1.125-0.141-0.285-0.324-0.505-0.563-0.656-0.238-0.151-0.521-0.231-0.844-0.281s-0.667-0.094-1.031-0.094c-0.981 0-1.952 0.15-2.906 0.469s-2.01 0.829-3.188 1.5c-0.533-0.771-0.953-1.543-1.219-2.281s-0.406-1.288-0.406-1.656c0-0.503 0.157-0.985 0.438-1.438s0.849-0.903 1.719-1.406c0.757-0.47 1.772-0.857 3.063-1.125s2.623-0.406 3.969-0.406c3.281 0 5.615 0.77 7.031 2.313s2.125 3.991 2.125 7.344v9.813c0 0.834 0.075 1.757 0.188 2.746zm-0.407-48.875c0 0.738-0.038 1.66-0.094 2.75s-0.179 2.066-0.375 2.938c-0.309 1.341-0.792 2.47-1.438 3.375s-1.357 1.634-2.156 2.188-1.625 0.922-2.438 1.156-1.505 0.375-2.094 0.375c-1.206 0-2.095-0.291-2.656-0.844s-0.929-1.364-1.125-2.438c-0.084-0.436-0.146-0.889-0.188-1.375s-0.1-1.162-0.156-2c0.898-0.1 1.626-0.292 2.188-0.594s1.004-0.687 1.313-1.156 0.513-1.005 0.625-1.625 0.156-1.325 0.156-2.063v-23.437c0.336-0.034 0.698-0.059 1.063-0.125 0.308-0.067 0.652-0.123 1.031-0.156s0.76-0.063 1.125-0.063c0.674 0 1.307 0.068 1.938 0.219s1.18 0.427 1.656 0.813 0.862 0.938 1.156 1.625 0.469 1.553 0.469 2.625v17.812zm-25.093-24.593c0.014-0.771 0.068-1.405 0.125-1.875 0.365-2.716 1.318-4.762 2.875-6.188s3.724-2.156 6.5-2.156c0.562 0 1.15 0.041 1.781 0.125s1.255 0.207 1.844 0.375c1.01 0.302 1.864 0.771 2.594 1.375 0.422 0.35 0.697 0.79 0.875 1.313 0.165-0.899 0.528-1.645 1.094-2.25 0.799-0.855 1.787-1.281 2.938-1.281 1.149 0 2.107 0.426 2.906 1.281s1.219 1.996 1.219 3.438-0.419 2.6-1.219 3.438-1.757 1.25-2.906 1.25c-1.15 0-2.139-0.412-2.938-1.25-0.557-0.584-0.894-1.34-1.063-2.219-0.08 0.294-0.176 0.59-0.313 0.938-0.337 0.855-0.78 1.72-1.313 2.625-0.449-0.302-1.018-0.619-1.719-0.938s-1.471-0.469-2.313-0.469c-0.729 0-1.339 0.235-1.844 0.688s-0.781 1.152-0.781 2.125v1.217h6.25v7.5h-6.25v16.781h-8.344v-24.031c2e-3 -0.436-0.012-1.042 2e-3 -1.812zm-9.844 42.781c0.294 0.688 0.438 1.553 0.438 2.625v16.188c0.141-0.737 0.379-1.436 0.688-2.156s0.711-1.451 1.188-2.156l2.25-3.469c0.532-0.804 1.136-1.507 1.781-2.094s1.535-0.875 2.656-0.875c0.646 0 1.258 0.126 1.875 0.344s1.18 0.451 1.656 0.719c0.532 0.302 1.023 0.631 1.5 1l-5.75 9.656 6.813 12.438c-1.852 0.904-3.551 1.344-5.094 1.344-1.318 0-2.368-0.274-3.125-0.844s-1.408-1.314-1.969-2.219l-2.688-4.469c-0.477-0.771-0.844-1.517-1.125-2.188s-0.516-1.412-0.656-2.25v11.406h-8.406v-35.281c0.336-0.034 0.698-0.09 1.063-0.156 0.308-0.067 0.652-0.123 1.031-0.156s0.729-0.063 1.094-0.063c0.674 0 1.338 0.099 1.969 0.25s1.18 0.396 1.656 0.781 0.86 0.937 1.155 1.625zm-9.969-52.438c0.336-0.034 0.698-0.09 1.063-0.156 0.308-0.067 0.652-0.123 1.031-0.156s0.729-0.031 1.094-0.031c0.674 0 1.338 0.068 1.969 0.219s1.18 0.427 1.656 0.813 0.862 0.906 1.156 1.594 0.438 1.584 0.438 2.656v30.156c-1.149 0.436-2.165 0.656-3.063 0.656-1.29 0-2.285-0.193-3-0.563-0.715-0.369-1.243-0.834-1.594-1.438s-0.555-1.306-0.625-2.094-0.125-1.628-0.125-2.5v-29.156zm-16.969 11.313c0-0.436 0.018-1.01 0.031-1.781s0.037-1.405 0.094-1.875c0.365-2.716 1.318-4.793 2.875-6.219 1.556-1.425 3.724-2.125 6.5-2.125 0.562 0 1.182 0.041 1.813 0.125s1.224 0.207 1.813 0.375c1.01 0.302 1.896 0.74 2.625 1.344s1.094 1.485 1.094 2.625c0 0.502-0.163 1.176-0.5 2.031s-0.78 1.751-1.313 2.656c-0.449-0.302-1.018-0.619-1.719-0.938s-1.471-0.469-2.313-0.469c-0.729 0-1.371 0.204-1.875 0.656s-0.75 1.183-0.75 2.156v1.188h6.219v7.5h-6.219v16.813h-8.375v-24.062zm-3.468 241.84c0.799-0.855 1.756-1.281 2.906-1.281 1.149 0 2.138 0.426 2.938 1.281s1.188 1.996 1.188 3.438-0.388 2.6-1.188 3.438-1.788 1.25-2.938 1.25-2.107-0.412-2.906-1.25-1.219-1.996-1.219-3.438 0.42-2.583 1.219-3.438zm-2.907-15.282c-0.855 0.486-1.929 0.719-3.219 0.719-0.954 0-1.918-0.193-2.844-0.563s-1.757-1.016-2.5-1.938-1.35-2.157-1.813-3.75-0.688-3.616-0.688-6.031c0-2.414 0.222-4.448 0.656-6.125s1.021-3.023 1.75-4.063 1.578-1.812 2.531-2.281 1.931-0.688 2.969-0.688c0.673 0 1.28 0.082 1.813 0.25s0.996 0.345 1.375 0.563 0.699 0.438 0.938 0.656 0.385 0.369 0.469 0.469v-12.313c0.337-0.034 0.699-0.09 1.063-0.156 0.309-0.067 0.635-0.123 1-0.156s0.729-0.031 1.094-0.031c0.673 0 1.337 0.068 1.969 0.219s1.18 0.427 1.656 0.813 0.862 0.906 1.156 1.594 0.438 1.584 0.438 2.656v30.375h-6.313c-0.421 0-0.789-0.109-1.125-0.344s-0.5-0.761-0.5-1.531c-0.393 0.603-1.019 1.17-1.875 1.656zm4.594-187.84c0.673 0 1.306 0.068 1.938 0.219s1.18 0.427 1.656 0.813 0.862 0.938 1.156 1.625 0.469 1.553 0.469 2.625v30.375h-6.313c-0.421 0-0.82-0.109-1.156-0.344s-0.5-0.729-0.5-1.5c-0.393 0.603-1.02 1.139-1.875 1.625s-1.929 0.719-3.219 0.719c-0.954 0-1.887-0.162-2.813-0.531s-1.757-1.016-2.5-1.938-1.35-2.188-1.813-3.781-0.688-3.585-0.688-6c0-2.414 0.222-4.479 0.656-6.156s1.021-3.023 1.75-4.063 1.546-1.78 2.5-2.25 1.962-0.719 3-0.719c0.673 0 1.28 0.082 1.813 0.25s0.996 0.376 1.375 0.594 0.668 0.407 0.906 0.625 0.416 0.4 0.5 0.5v-12.344c0.337-0.034 0.667-0.059 1.031-0.125 0.309-0.067 0.667-0.123 1.031-0.156s0.731-0.063 1.096-0.063zm-9.219-49.719c0.799-0.855 1.756-1.281 2.906-1.281 1.149 0 2.138 0.426 2.938 1.281s1.188 1.996 1.188 3.438-0.388 2.568-1.188 3.406-1.788 1.281-2.938 1.281-2.107-0.443-2.906-1.281-1.219-1.964-1.219-3.406 0.42-2.583 1.219-3.438zm-1.843 38.25c0.309-0.47 0.513-1.036 0.625-1.656s0.188-1.293 0.188-2.031v-23.438c0.336-0.034 0.667-0.09 1.031-0.156 0.308-0.067 0.652-0.123 1.031-0.156s0.76-0.031 1.125-0.031c0.674 0 1.338 0.068 1.969 0.219s1.18 0.427 1.656 0.813 0.862 0.906 1.156 1.594 0.438 1.584 0.438 2.656v17.813c0 0.738-0.038 1.629-0.094 2.719s-0.179 2.066-0.375 2.938c-0.309 1.341-0.792 2.47-1.438 3.375s-1.357 1.634-2.156 2.188-1.593 0.953-2.406 1.188-1.536 0.344-2.125 0.344c-1.206 0-2.064-0.259-2.625-0.813s-0.96-1.364-1.156-2.438c-0.084-0.436-0.146-0.889-0.188-1.375s-0.1-1.162-0.156-2c0.898-0.1 1.626-0.292 2.188-0.594s1.003-0.69 1.312-1.159zm-25.094-37.906c0.336-0.034 0.698-0.09 1.063-0.156 0.308-0.067 0.652-0.091 1.031-0.125s0.76-0.063 1.125-0.063c0.674 0 1.307 0.068 1.938 0.219s1.18 0.427 1.656 0.813 0.893 0.906 1.188 1.594 0.438 1.584 0.438 2.656v16.188c0.141-0.737 0.348-1.467 0.656-2.188s0.711-1.42 1.188-2.125l2.281-3.469c0.532-0.804 1.104-1.507 1.75-2.094s1.535-0.875 2.656-0.875c0.646 0 1.289 0.095 1.906 0.313s1.148 0.451 1.625 0.719c0.532 0.302 1.023 0.662 1.5 1.031l-5.75 9.656 6.813 12.406c-1.852 0.904-3.551 1.375-5.094 1.375-1.318 0-2.336-0.305-3.094-0.875s-1.439-1.283-2-2.188l-2.688-4.5c-0.477-0.771-0.844-1.485-1.125-2.156s-0.484-1.412-0.625-2.25v11.406h-8.438v-35.312zm18.156 61.187v7.469h-6.219v16.813h-8.375v-24.031c0-0.436 0.018-1.042 0.031-1.813s0.037-1.405 0.094-1.875c0.364-2.716 1.318-4.793 2.875-6.219 1.556-1.425 3.724-2.125 6.5-2.125 0.562 0 1.15 0.041 1.781 0.125s1.255 0.207 1.844 0.375c1.01 0.302 1.864 0.771 2.594 1.375 0.729 0.604 1.094 1.454 1.094 2.594 0 0.502-0.163 1.176-0.5 2.031s-0.78 1.75-1.313 2.656c-0.449-0.302-1.018-0.619-1.719-0.938s-1.471-0.469-2.313-0.469c-0.729 0-1.339 0.235-1.844 0.688s-0.75 1.152-0.75 2.125v1.219h6.22zm-29.937-26.969c-0.351-0.604-0.555-1.306-0.625-2.094s-0.094-1.628-0.094-2.5v-29.156c0.336-0.034 0.667-0.09 1.031-0.156 0.308-0.067 0.652-0.123 1.031-0.156s0.76-0.063 1.125-0.063c0.674 0 1.307 0.099 1.938 0.25s1.211 0.396 1.688 0.781 0.862 0.938 1.156 1.625 0.438 1.553 0.438 2.625v30.188c-1.149 0.436-2.196 0.656-3.094 0.656-1.29 0-2.285-0.193-3-0.563-0.716-0.368-1.244-0.833-1.594-1.437zm19.531 223.97c-0.337 0.855-0.749 1.72-1.281 2.625-0.449-0.302-1.049-0.588-1.75-0.906s-1.471-0.5-2.313-0.5c-0.729 0-1.339 0.235-1.844 0.688s-0.75 1.152-0.75 2.125v1.219h6.219v7.5h-6.219v16.781h-8.375v-24.031c0-0.436 0.018-1.041 0.031-1.813s0.037-1.374 0.094-1.844c0.364-2.716 1.318-4.793 2.875-6.219 1.556-1.426 3.724-2.156 6.5-2.156 0.562 0 1.15 0.041 1.781 0.125s1.255 0.207 1.844 0.375c1.01 0.302 1.864 0.771 2.594 1.375 0.729 0.604 1.094 1.485 1.094 2.625 0 0.502-0.163 1.176-0.5 2.031zm15.375 29.25c-0.757-0.57-1.408-1.314-1.969-2.219l-2.688-4.469c-0.477-0.771-0.875-1.517-1.156-2.188s-0.484-1.412-0.625-2.25v11.406h-8.406v-35.281c0.336-0.033 0.698-0.09 1.063-0.156 0.308-0.067 0.652-0.123 1.031-0.156s0.729-0.063 1.094-0.063c0.674 0 1.338 0.068 1.969 0.219s1.18 0.427 1.656 0.813 0.862 0.938 1.156 1.625 0.438 1.553 0.438 2.625v16.188c0.141-0.736 0.379-1.467 0.688-2.188s0.68-1.42 1.156-2.125l2.281-3.469c0.532-0.805 1.136-1.507 1.781-2.094s1.504-0.875 2.625-0.875c0.646 0 1.289 0.126 1.906 0.344s1.18 0.451 1.656 0.719c0.532 0.302 1.023 0.631 1.5 1l-5.75 9.656 6.813 12.438c-1.852 0.904-3.551 1.344-5.094 1.344-1.318 0-2.368-0.274-3.125-0.844zm14.656 10.188c-0.799 0.554-1.625 0.922-2.438 1.156s-1.505 0.375-2.094 0.375c-1.206 0-2.095-0.291-2.656-0.844s-0.929-1.364-1.125-2.438c-0.084-0.436-0.146-0.889-0.188-1.375s-0.1-1.162-0.156-2c0.898-0.101 1.626-0.292 2.188-0.594s1.004-0.687 1.313-1.156 0.513-1.005 0.625-1.625 0.188-1.324 0.188-2.063v-23.438c0.336-0.033 0.667-0.059 1.031-0.125 0.308-0.067 0.652-0.123 1.031-0.156s0.76-0.063 1.125-0.063c0.674 0 1.307 0.068 1.938 0.219s1.211 0.428 1.688 0.813 0.862 0.938 1.156 1.625 0.438 1.553 0.438 2.625v17.813c0 0.738-0.038 1.66-0.094 2.75s-0.179 2.065-0.375 2.938c-0.309 1.342-0.792 2.47-1.438 3.375-0.646 0.904-1.358 1.634-2.157 2.188zm16.438 16.093v7.5h-6.219v16.813h-8.375v-24.063c0-0.436 0.018-1.01 0.031-1.781s0.037-1.405 0.094-1.875c0.364-2.716 1.318-4.793 2.875-6.219 1.556-1.426 3.724-2.125 6.5-2.125 0.562 0 1.182 0.041 1.813 0.125s1.224 0.207 1.813 0.375c1.01 0.302 1.896 0.74 2.625 1.344s1.094 1.485 1.094 2.625c0 0.502-0.194 1.176-0.531 2.031s-0.749 1.751-1.281 2.656c-0.449-0.302-1.049-0.619-1.75-0.938s-1.471-0.469-2.313-0.469c-0.729 0-1.339 0.204-1.844 0.656s-0.75 1.184-0.75 2.156v1.188h6.218zm16.843 24.594c-1.052 0.302-2.367 0.469-3.938 0.469-1.149 0-2.4-0.164-3.719-0.5-1.318-0.336-2.535-0.996-3.656-1.969s-2.038-2.333-2.781-4.094-1.125-4.057-1.125-6.906c0-2.113 0.303-3.958 0.906-5.5s1.376-2.807 2.344-3.813 2.096-1.749 3.344-2.219c1.249-0.47 2.488-0.719 3.75-0.719 1.711 0 3.169 0.303 4.375 0.906s2.194 1.432 2.938 2.438 1.257 2.159 1.594 3.5 0.531 2.774 0.531 4.25v0.656s-0.017 0.573-0.031 0.875-0.018 0.607-0.031 0.875-0.034 0.46-0.063 0.594h-11.25c0.141 1.273 0.542 2.361 1.188 3.25s1.664 1.344 3.094 1.344c1.122 0 2.087-0.223 2.844-0.625s1.493-0.922 2.25-1.594c0.365 0.672 0.729 1.44 1.094 2.313 0.365 0.872 0.563 1.643 0.563 2.313 0 0.57-0.123 1.091-0.375 1.594s-0.699 0.999-1.344 1.469c-0.619 0.435-1.45 0.791-2.502 1.093zm2.969 6.469c-0.042-0.486-0.1-1.131-0.156-1.969 0.898-0.101 1.626-0.323 2.188-0.625s1.004-0.687 1.313-1.156 0.513-1.005 0.625-1.625 0.156-1.293 0.156-2.031v-23.438c0.336-0.033 0.698-0.09 1.063-0.156 0.308-0.067 0.652-0.123 1.031-0.156s0.76-0.031 1.125-0.031c0.674 0 1.307 0.068 1.938 0.219s1.18 0.428 1.656 0.813 0.862 0.906 1.156 1.594 0.438 1.584 0.438 2.656v17.781c0 0.738-6e-3 1.66-0.063 2.75-0.056 1.09-0.179 2.065-0.375 2.938-0.309 1.342-0.792 2.47-1.438 3.375s-1.357 1.634-2.156 2.188-1.625 0.953-2.438 1.188-1.505 0.344-2.094 0.344c-1.206 0-2.095-0.26-2.656-0.813s-0.929-1.396-1.125-2.469c-0.085-0.438-0.146-0.891-0.188-1.377z" fill="param(fill)" fill-opacity="param(fill-opacity)" stroke="param(outline)" stroke-opacity="param(outline-opacity)" stroke-width="param(outline-width)"/>
	<path d="m272.12 278.5c-0.322-0.52-0.833-0.781-1.563-0.781-1.319 0-2 1.211-2 3.625h4.063c0-1.374-0.178-2.324-0.5-2.844z" fill="param(fill)" fill-opacity="param(fill-opacity)" stroke="param(outline)" stroke-opacity="param(outline-opacity)" stroke-width="param(outline-width)"/>
	<path d="m253.16 379.09c-0.322-0.52-0.865-0.781-1.594-0.781-1.319 0-1.969 1.211-1.969 3.625h4.031c1e-3 -1.375-0.145-2.325-0.468-2.844z" fill="param(fill)" fill-opacity="param(fill-opacity)" stroke="param(outline)" stroke-opacity="param(outline-opacity)" stroke-width="param(outline-width)"/>
	<path d="m316.72 235.69c-0.351 0.251-0.634 0.597-0.844 1s-0.313 0.895-0.313 1.531c0 0.771 0.181 1.394 0.531 1.813s0.82 0.625 1.438 0.625c0.505 0 0.951-0.138 1.344-0.406s0.594-0.682 0.594-1.219v-4.219c-0.532 0.067-1.022 0.179-1.5 0.313-0.478 0.133-0.9 0.311-1.25 0.562z" fill="param(fill)" fill-opacity="param(fill-opacity)" stroke="param(outline)" stroke-opacity="param(outline-opacity)" stroke-width="param(outline-width)"/>
	<path d="m250.91 338.78c0.21 0.52 0.476 0.948 0.813 1.25s0.776 0.438 1.281 0.438c0.336 0 0.585-0.012 0.781-0.063s0.353-0.092 0.438-0.125v-10.813c-0.168-0.135-0.39-0.231-0.656-0.281-0.267-0.051-0.526-0.063-0.75-0.063-0.119 0-0.234-0.016-0.344 0-0.769 0.109-1.287 0.62-1.594 1.5-0.351 1.006-0.531 2.381-0.531 4.125 0 0.805 0.041 1.563 0.125 2.25s0.227 1.263 0.437 1.782z" fill="param(fill)" fill-opacity="param(fill-opacity)" stroke="param(outline)" stroke-opacity="param(outline-opacity)" stroke-width="param(outline-width)"/>
	<path d="m368.84 322.69c-0.21-0.754-0.49-1.275-0.813-1.594s-0.711-0.469-1.188-0.469c-0.505 0-0.945 0.15-1.281 0.469s-0.602 0.84-0.813 1.594-0.354 1.745-0.438 2.969-0.125 2.723-0.125 4.5c0 3.521 0.201 6.013 0.594 7.438s1.081 2.125 2.063 2.125c0.477 0 0.865-0.15 1.188-0.469s0.603-0.871 0.813-1.625 0.37-1.745 0.469-2.969 0.125-2.723 0.125-4.5-0.026-3.276-0.125-4.5-0.259-2.216-0.469-2.969z" fill="param(fill)" fill-opacity="param(fill-opacity)" stroke="param(outline)" stroke-opacity="param(outline-opacity)" stroke-width="param(outline-width)"/>
	<path d="m274.88 133.75c-0.351 0.251-0.603 0.597-0.813 1s-0.344 0.926-0.344 1.563c0 0.771 0.181 1.362 0.531 1.781s0.852 0.625 1.469 0.625c0.505 0 0.951-0.138 1.344-0.406s0.594-0.682 0.594-1.219v-4.219c-0.532 0.067-1.054 0.179-1.531 0.313s-0.899 0.311-1.25 0.562z" fill="param(fill)" fill-opacity="param(fill-opacity)" stroke="param(outline)" stroke-opacity="param(outline-opacity)" stroke-width="param(outline-width)"/>
	<path d="m393.38 322.53c-0.196-0.57-0.441-1.04-0.75-1.375s-0.714-0.5-1.219-0.5c-0.561 0-1.027 0.414-1.406 1.219s-0.563 2.016-0.563 3.625c0 1.643 0.207 2.839 0.656 3.594 0.449 0.754 1.093 1.125 1.906 1.125 0.646 0 1.214-0.082 1.719-0.25 0.056-0.502 0.097-1.012 0.125-1.531s0.031-1.055 0.031-1.625c0-0.805-0.023-1.574-0.094-2.313s-0.209-1.398-0.405-1.969z" fill="param(fill)" fill-opacity="param(fill-opacity)" stroke="param(outline)" stroke-opacity="param(outline-opacity)" stroke-width="param(outline-width)"/>
	<path d="m408 87.313c0.211 0.52 0.508 0.948 0.844 1.25s0.745 0.437 1.25 0.437c0.336 0 0.616-0.012 0.813-0.063s0.321-0.091 0.406-0.125v-10.812c-0.169-0.134-0.39-0.231-0.656-0.281s-0.494-0.063-0.719-0.063c-0.119 0-0.234-0.016-0.344 0-0.769 0.11-1.318 0.62-1.625 1.5-0.351 1.006-0.531 2.381-0.531 4.125 0 0.804 0.041 1.531 0.125 2.219s0.226 1.293 0.437 1.813z" fill="param(fill)" fill-opacity="param(fill-opacity)" stroke="param(outline)" stroke-opacity="param(outline-opacity)" stroke-width="param(outline-width)"/>
	<path d="m318.22 336.28c-0.351 0.251-0.603 0.566-0.813 0.969s-0.344 0.926-0.344 1.563c0 0.771 0.181 1.362 0.531 1.781s0.852 0.656 1.469 0.656c0.505 0 0.951-0.139 1.344-0.406s0.594-0.682 0.594-1.219v-4.219c-0.532 0.067-1.054 0.179-1.531 0.313-0.478 0.135-0.9 0.311-1.25 0.562z" fill="param(fill)" fill-opacity="param(fill-opacity)" stroke="param(outline)" stroke-opacity="param(outline-opacity)" stroke-width="param(outline-width)"/>
	<path d="m342 339.62c0.953 0 1.618-0.536 1.969-1.625 0.351-1.09 0.5-2.506 0.5-4.25 0-1.51-0.184-2.707-0.563-3.563s-1.054-1.281-2.063-1.281c-0.337 0-0.616 0.043-0.813 0.094-0.196 0.05-0.321 0.091-0.406 0.125v10.156c0.169 0.134 0.358 0.23 0.625 0.281 0.268 0.05 0.526 0.063 0.751 0.063z" fill="param(fill)" fill-opacity="param(fill-opacity)" stroke="param(outline)" stroke-opacity="param(outline-opacity)" stroke-width="param(outline-width)"/>
	<path d="m314.47 86.969c0.211 0.52 0.508 0.917 0.844 1.219s0.745 0.469 1.25 0.469c0.336 0 0.616-0.043 0.813-0.094s0.321-0.091 0.406-0.125v-10.813c-0.169-0.134-0.39-0.231-0.656-0.281s-0.494-0.063-0.719-0.063c-0.953 0-1.618 0.494-1.969 1.5s-0.531 2.381-0.531 4.125c0 0.804 0.041 1.563 0.125 2.25s0.226 1.293 0.437 1.813z" fill="param(fill)" fill-opacity="param(fill-opacity)" stroke="param(outline)" stroke-opacity="param(outline-opacity)" stroke-width="param(outline-width)"/>
	<path d="m340.94 265.41c0.043-0.226 0.063-0.445 0.063-0.625 0-0.313-0.039-0.603-0.094-0.875-0.022 0.224-0.031 0.447-0.031 0.688-1e-3 0.284 0.03 0.552 0.062 0.812z" fill="param(fill)" fill-opacity="param(fill-opacity)" stroke="param(outline)" stroke-opacity="param(outline-opacity)" stroke-width="param(outline-width)"/>
	<path d="m345.81 63.563c0-0.285-0.017-0.561-0.063-0.813v1.375c0.036-0.203 0.063-0.397 0.063-0.562z" fill="param(fill)" fill-opacity="param(fill-opacity)" stroke="param(outline)" stroke-opacity="param(outline-opacity)" stroke-width="param(outline-width)"/>
	<path d="m217.03 278.81c-0.954 0-1.587 0.525-1.938 1.531s-0.531 2.35-0.531 4.094v0.031c0 0.804 0.041 1.531 0.125 2.219s0.227 1.292 0.438 1.813c0.21 0.52 0.476 0.948 0.813 1.25s0.776 0.438 1.281 0.438c0.336 0 0.585-0.012 0.781-0.063s0.353-0.091 0.438-0.125v-10.844c-0.168-0.134-0.39-0.2-0.656-0.25-0.267-0.051-0.527-0.094-0.751-0.094z" fill="param(fill)" fill-opacity="param(fill-opacity)" stroke="param(outline)" stroke-opacity="param(outline-opacity)" stroke-width="param(outline-width)"/>
	<path d="m217.03 126.44c-0.119 0-0.234-0.016-0.344 0-0.769 0.11-1.318 0.62-1.625 1.5-0.351 1.006-0.5 2.381-0.5 4.125 0 0.804 0.041 1.531 0.125 2.219s0.227 1.293 0.438 1.813 0.476 0.948 0.813 1.25 0.745 0.438 1.25 0.438c0.336 0 0.616-0.012 0.813-0.063s0.321-0.091 0.406-0.125v-10.813c-0.168-0.134-0.358-0.231-0.625-0.281s-0.527-0.063-0.751-0.063z" fill="param(fill)" fill-opacity="param(fill-opacity)" stroke="param(outline)" stroke-opacity="param(outline-opacity)" stroke-width="param(outline-width)"/>
	<path d="m300.28 386.56c-0.351 0.251-0.634 0.598-0.844 1s-0.313 0.926-0.313 1.563c0 0.771 0.181 1.362 0.531 1.781s0.82 0.625 1.438 0.625c0.505 0 0.951-0.139 1.344-0.406s0.594-0.682 0.594-1.219v-4.219c-0.532 0.067-1.022 0.179-1.5 0.313-0.477 0.134-0.899 0.311-1.25 0.562z" fill="param(fill)" fill-opacity="param(fill-opacity)" stroke="param(outline)" stroke-opacity="param(outline-opacity)" stroke-width="param(outline-width)"/>
	<path d="m292.75 278.88c-0.477 0-0.879 0.136-1.188 0.438s-0.554 0.716-0.75 1.219-0.336 1.082-0.406 1.719-0.094 1.268-0.094 1.938c0 0.738 0.023 1.454 0.094 2.125s0.21 1.262 0.406 1.781 0.455 0.949 0.75 1.25 0.68 0.438 1.156 0.438 0.848-0.15 1.156-0.469 0.551-0.73 0.719-1.25 0.305-1.142 0.375-1.813 0.094-1.356 0.094-2.094c0-1.475-0.164-2.728-0.5-3.75s-0.943-1.532-1.812-1.532z" fill="param(fill)" fill-opacity="param(fill-opacity)" stroke="param(outline)" stroke-opacity="param(outline-opacity)" stroke-width="param(outline-width)"/>
	<path d="m276.81 63.313c0.117-0.43 0.188-0.827 0.188-1.125 0-0.48-0.089-0.901-0.219-1.281-0.068 0.371-0.094 0.766-0.094 1.188 0 0.435 0.051 0.837 0.125 1.218z" fill="param(fill)" fill-opacity="param(fill-opacity)" stroke="param(outline)" stroke-opacity="param(outline-opacity)" stroke-width="param(outline-width)"/>
	<path d="m111.83 480.43h363.54 0.021c3.574 0 6.472-2.898 6.472-6.473 0-1.581-0.566-3.029-1.508-4.152l-17.995-24.917c-1.217-1.686-3.169-2.684-5.247-2.684h-327.24c-2.091 0-4.054 1.011-5.269 2.713l-18.038 25.28c-1.408 1.974-1.595 4.568-0.486 6.723 1.111 2.155 3.331 3.51 5.755 3.51z" fill="param(fill)" fill-opacity="param(fill-opacity)" stroke="param(outline)" stroke-opacity="param(outline-opacity)" stroke-width="param(outline-width)"/>
	<path d="m479.36 492.19h-371.54c-3.562 0-6.454 2.878-6.472 6.44l-0.22 43.539c-9e-3 1.722 0.669 3.376 1.884 4.598 1.215 1.221 2.866 1.907 4.588 1.907h371.76c3.574 0 6.473-2.898 6.473-6.473v-43.539c0-3.573-2.899-6.472-6.473-6.472z" fill="param(fill)" fill-opacity="param(fill-opacity)" stroke="param(outline)" stroke-opacity="param(outline-opacity)" stroke-width="param(outline-width)"/>
</svg>
