<?xml version="1.0" encoding="UTF-8"?>
<svg width="580px" height="580px" enable-background="new 0 0 580 580" version="1.1" viewBox="0 0 580 580" xmlns="http://www.w3.org/2000/svg">
	<path d="m184.78 542.02 55.55-326.72 52.305-31.318 51.165 32.154s46.844 331.2 41.397 328.54c-5.445-2.658-199.33 1.327-200.42-2.658z" enable-background="new    " fill="param(fill)" fill-opacity="param(fill-opacity)" opacity=".5" stroke="param(outline)" stroke-opacity="param(outline-opacity)" stroke-width="param(outline-width)"/>
	<path d="m514.2 412.58-178.93-153.2 178.93-153.2c2.657-2.275 4.22-5.574 4.297-9.072s-1.338-6.862-3.893-9.252l-60.713-56.815c-2.569-2.404-6.048-3.587-9.545-3.266-3.502 0.326-6.697 2.136-8.777 4.973l-143.29 195.36-143.29-195.36c-2.08-2.836-5.275-4.646-8.777-4.973-3.503-0.33-6.977 0.862-9.545 3.266l-60.713 56.815c-2.554 2.39-3.97 5.755-3.893 9.252s1.64 6.796 4.297 9.072l178.93 153.2-178.93 153.2c-2.658 2.274-4.22 5.574-4.297 9.071s1.338 6.862 3.893 9.253l60.713 56.814c2.289 2.142 5.297 3.318 8.404 3.318 0.379 0 0.76-0.018 1.141-0.053 3.502-0.326 6.697-2.136 8.777-4.973l143.29-195.36 143.29 195.36c2.08 2.837 5.275 4.646 8.777 4.973 0.381 0.035 0.762 0.053 1.142 0.053 3.106 0 6.114-1.177 8.403-3.318l60.713-56.814c2.555-2.391 3.97-5.756 3.893-9.253s-1.64-6.796-4.298-9.071zm-229.71-153.2 7.795-7.542 7.795 7.542-7.795 7.542-7.795-7.542z" fill="param(fill)" fill-opacity="param(fill-opacity)" stroke="param(outline)" stroke-opacity="param(outline-opacity)" stroke-width="param(outline-width)"/>
</svg>
