<?xml version="1.0" encoding="UTF-8"?>
<svg width="580px" height="580px" enable-background="new 0 0 580 580" version="1.1" viewBox="0 0 580 580" xmlns="http://www.w3.org/2000/svg">
	<path d="m97.635 126.29 200.32 416.31 187.96-90.439-200.32-416.31-187.96 90.439zm32.865-5.786 128.5-61.832 59.275 123.19-128.5 61.832-59.275-123.19zm-19.896 15.824 13.799-6.64 10.723 22.285-13.799 6.64-10.723-22.285zm159.04-76.524 13.799-6.64 10.724 22.285-13.8 6.64-10.723-22.285zm-134.62 127.28 13.8-6.64 10.723 22.285-13.799 6.64-10.724-22.285zm159.04-76.524 13.8-6.64 10.723 22.285-13.799 6.64-10.724-22.285zm-134.61 127.28 13.799-6.64 10.723 22.285-13.8 6.64-10.722-22.285zm159.04-76.524 13.799-6.64 10.724 22.285-13.8 6.64-10.723-22.285zm-122.86 94.538 128.5-61.832 59.275 123.19-128.5 61.832-59.275-123.19zm-11.754 32.743 13.799-6.64 10.723 22.285-13.799 6.64-10.723-22.285zm159.04-76.524 13.8-6.64 10.723 22.285-13.799 6.64-10.724-22.285zm-134.61 127.28 13.799-6.639 10.723 22.285-13.799 6.64-10.723-22.286zm159.04-76.523 13.8-6.64 10.723 22.285-13.8 6.64-10.723-22.285zm-134.62 127.28 13.8-6.641 10.723 22.285-13.799 6.641-10.724-22.285zm159.04-76.524 13.799-6.64 10.724 22.285-13.8 6.64-10.723-22.285zm-131 77.618 128.5-61.832 59.275 123.19-128.5 61.832-59.274-123.19zm-3.614 49.662 13.8-6.64 10.723 22.285-13.799 6.64-10.724-22.285zm159.04-76.523 13.8-6.641 10.723 22.285-13.799 6.641-10.724-22.285zm-134.61 127.28 13.8-6.641 10.723 22.286-13.8 6.64-10.723-22.285zm159.04-76.524 13.799-6.64 10.724 22.285-13.8 6.641-10.723-22.286z" fill="param(fill)" fill-opacity="param(fill-opacity)" stroke="param(outline)" stroke-opacity="param(outline-opacity)" stroke-width="param(outline-width)"/>
	<rect transform="matrix(-.9011 .4336 -.4336 -.9011 492.12 190.1)" x="153.08" y="82.816" width="142.6" height="136.71" enable-background="new    " fill="param(fill)" fill-opacity="param(fill-opacity)" opacity=".3317" stroke="param(outline)" stroke-opacity="param(outline-opacity)" stroke-width="param(outline-width)"/>
	<rect transform="matrix(-.9011 .4336 -.4336 -.9011 674.62 419.18)" x="218.2" y="218.17" width="142.6" height="136.71" enable-background="new    " fill="param(fill)" fill-opacity="param(fill-opacity)" opacity=".3317" stroke="param(outline)" stroke-opacity="param(outline-opacity)" stroke-width="param(outline-width)"/>
	<rect transform="matrix(-.9011 .4336 -.4336 -.9011 857.12 648.26)" x="283.33" y="353.52" width="142.6" height="136.71" enable-background="new    " fill="param(fill)" fill-opacity="param(fill-opacity)" opacity=".3317" stroke="param(outline)" stroke-opacity="param(outline-opacity)" stroke-width="param(outline-width)"/>
</svg>
