<?xml version="1.0" encoding="UTF-8"?>
<svg width="580px" height="580px" enable-background="new 0 0 580 580" version="1.1" viewBox="0 0 580 580" xmlns="http://www.w3.org/2000/svg">
	<path d="m534.35 530.68-72.888-315.53c-0.521-2.25-2.513-3.851-4.821-3.874l-49.068-0.499h-0.051c-2.183 0-4.116 1.417-4.771 3.503l-22.107 70.463-40.657-1.528-22.081-69.636c-0.66-2.08-2.59-3.489-4.766-3.489h-0.063l-18.084 0.228v-68.247c52.191 19.688 98.972-7.523 148.88-7.665v-87.875c-54.729-9.595-109.46 28.515-164.19 1.344-0.063 29-0.125 58-0.188 87 0.167 0.092 0.333 0.177 0.499 0.269v75.363l-16.142 0.203c-2.157 0.027-4.053 1.435-4.704 3.491l-21.988 69.498h-41.897l-23.195-70.178c-0.677-2.048-2.591-3.431-4.748-3.431h-47.422c-2.324 0-4.341 1.601-4.869 3.864l-73.556 315.35c-0.346 1.482 2e-3 3.042 0.947 4.236s2.381 1.894 3.904 1.899l483.24 1.804h0.019c8e-3 2e-3 0.013 0 0.02 0 2.762 0 5-2.238 5-5-1e-3 -0.547-0.088-1.072-0.25-1.565z" fill="param(fill)" fill-opacity="param(fill-opacity)" stroke="param(outline)" stroke-opacity="param(outline-opacity)" stroke-width="param(outline-width)"/>
</svg>
