<?xml version="1.0" encoding="UTF-8"?>
<svg width="580px" height="580px" enable-background="new 0 0 580 580" version="1.1" viewBox="0 0 580 580" xmlns="http://www.w3.org/2000/svg">
	<path d="m545.98 245.34h-37.628c-2.762 0-5 2.239-5 5v106.74h-48.152v-172.44h49.731c2.762 0 5-2.239 5-5v-33.066c0-2.761-2.238-5-5-5h-100.34c-2.762 0-5 2.239-5 5v91.92h-73.894c-3.475-20.469-15.55-43.603-39.735-47.299-4.146-1.028-8.484-1.549-12.9-1.549-21.335 0-45.684 12.902-50.94 37.562-0.083 0.388-0.119 0.785-0.108 1.181 0.125 4.507-0.671 7.675-2.365 9.417-2.245 2.308-6.785 2.923-14.231 1.877-0.23-0.033-0.463-0.049-0.696-0.049h-41.421v-87.359c0-2.761-2.239-5-5-5h-51.311c-2.761 0-5 2.239-5 5v85.078h-22.365c-1.097 0-2.164 0.361-3.036 1.027-17.97 13.73-26.313 32.06-27.052 59.43-5e-3 0.178 0 0.355 0.014 0.532 1.43 17.918 8.496 36.353 17.979 48.474h-14.13c-2.761 0-5 2.238-5 5v41.048c0 2.762 2.239 5 5 5h31.508c-9.738 9.179-15.856 22.44-15.858 37.191-2e-3 27.708 21.577 50.172 48.199 50.175 26.621 3e-3 48.205-22.457 48.207-50.165v-0.01c-1e-3 -14.751-6.12-28.013-15.858-37.191h74.404c-9.06 9.12-14.702 21.896-14.704 36.051-2e-3 27.709 21.577 50.174 48.199 50.176 26.621 2e-3 48.204-22.457 48.207-50.166v-0.01c-2e-3 -14.154-5.644-26.931-14.703-36.051h66.45c-8.415 9.031-13.604 21.336-13.605 34.91-2e-3 27.709 21.576 50.174 48.199 50.176 26.621 2e-3 48.204-22.457 48.207-50.166v-0.01c-1e-3 -13.573-5.19-25.879-13.605-34.91h33.377v30.348c0 2.762 2.238 5 5 5h11.615c-4.273 5.911-6.808 13.26-6.809 21.227-1e-3 19.522 15.202 35.35 33.959 35.352 18.756 2e-3 33.962-15.822 33.964-35.344v-8e-3c-1e-3 -7.967-2.535-15.315-6.809-21.227h15.036c2.762 0 5-2.238 5-5v-177.88c0-2.761-2.238-5-5-5z" fill="param(fill)" fill-opacity="param(fill-opacity)" stroke="param(outline)" stroke-opacity="param(outline-opacity)" stroke-width="param(outline-width)"/>
</svg>
