<?xml version="1.0" encoding="UTF-8"?>
<svg width="580px" height="580px" enable-background="new 0 0 580 580" version="1.1" viewBox="0 0 580 580" xmlns="http://www.w3.org/2000/svg">
	<path d="m329.4 25.42c-3.771 2.707-7.331 5.738-10.783 8.934l12.498 25.989-19.943 9.611-9.385-19.537c-3.385 3.054-6.835 5.918-10.513 8.393l39.39 81.892-185.53 89.292-49.496-102.87c-0.856 0.347-1.686 0.724-2.526 1.128-8.334 4.073-15.884 10.901-23.237 18.183l16.108-7.761 15.521 32.17-19.943 9.61-14.844-30.862c-2.646 2.661-5.285 5.363-7.941 7.941l191.89 398.81c3.99-4.011 8.002-8.068 12.092-11.821l-4.873 2.347-15.521-32.171 19.943-9.61 13.942 29.013c1.205-0.721 2.461-1.38 3.7-1.985 2.904-1.396 5.903-2.414 8.979-3.204l-41.33-85.952 185.53-89.247 50.443 104.86c12.885-10.383 23.847-24.589 38.396-32.982l-192.57-400.17zm21.477 76.072 15.477 32.17-19.897 9.565-15.477-32.17 19.897-9.565zm-11.776 56.805 85.592 177.86-185.53 89.247-85.592-177.86 185.53-89.246zm47.06 16.469 15.476 32.17-19.942 9.565-15.477-32.17 19.943-9.565zm-264.9 37.178 15.476 32.17-19.897 9.611-15.521-32.17 19.942-9.611zm300.14 36.096 15.476 32.17-19.897 9.611-15.476-32.215 19.897-9.566zm-264.9 37.224 15.521 32.17-19.943 9.565-15.476-32.17 19.898-9.565zm300.18 36.05 15.477 32.17-19.943 9.61-15.476-32.17 19.942-9.61zm-264.9 37.224 15.476 32.17-19.897 9.565-15.521-32.17 19.942-9.565zm300.14 36.05 15.477 32.216-19.897 9.565-15.477-32.17 19.897-9.611zm-264.85 37.224 15.476 32.171-19.943 9.61-15.476-32.216 19.943-9.565z" fill="param(fill)" fill-opacity="param(fill-opacity)" stroke="param(outline)" stroke-opacity="param(outline-opacity)" stroke-width="param(outline-width)"/>
	<path d="m291.28 58.809c-2.452 1.65-5.005 3.129-7.67 4.376-21.626 9.647-49.577 4.75-70.928 13.807-21.754 8.955-36.237 31.301-56.399 40.021-19.1 7.991-41.757 2.46-60.641 10.107l49.497 102.87 185.53-89.293-39.39-81.891z" enable-background="new    " fill="param(fill)" fill-opacity="param(fill-opacity)" opacity=".3317" stroke="param(outline)" stroke-opacity="param(outline-opacity)" stroke-width="param(outline-width)"/>
	<rect transform="matrix(-.9011 .4336 -.4336 -.9011 676.19 429.46)" x="186.17" y="193.14" width="205.9" height="197.39" enable-background="new    " fill="param(fill)" fill-opacity="param(fill-opacity)" opacity=".3317" stroke="param(outline)" stroke-opacity="param(outline-opacity)" stroke-width="param(outline-width)"/>
	<path d="m433.13 353.71-185.53 89.247 41.33 85.907c17.439-4.473 37.173-0.886 54.144-7.986 20.162-8.72 34.69-31.065 56.444-40.021 21.351-9.057 49.302-4.159 70.928-13.807 4.711-2.205 9.005-5.159 13.13-8.482l-50.444-104.86z" enable-background="new    " fill="param(fill)" fill-opacity="param(fill-opacity)" opacity=".3317" stroke="param(outline)" stroke-opacity="param(outline-opacity)" stroke-width="param(outline-width)"/>
</svg>
