<?xml version="1.0" encoding="UTF-8"?>
<svg width="580px" height="580px" enable-background="new 0 0 580 580" version="1.1" viewBox="0 0 580 580" xmlns="http://www.w3.org/2000/svg">
	<path d="m504.44 490.32c-7.013-1.535-13.404-9.099-25.055-8.566-11.934 0.413-28.789 11.103-45.074 11.103-4.015-0.086-8.15-0.816-12.353-1.869v-45.805l-8.671-8.671h-32.757v-37.566l-10-10h-56.225l0.195-0.879 0.031-0.094 0.094-0.5-0.281-4.063-2.625-3.125-3.485-0.913-0.102-0.732 3.462 0.989 3.844-1.344 2.344-3.344 0.094-0.313 0.031-0.125v-0.063l1.313-4.813h0.031l1.406-5.063h0.031l1.531-5.188 0.031-0.094 1.625-5.219 0.031-0.063 1.5-4.656 0.031-4.063-2.344-3.344-3.844-1.344-3.938 1.125-0.147 0.187 1.241-6.093-0.375-4.344-2.781-3.375-4.156-1.281-4.188 1.25-2.781 3.406-0.406 1.313-1.375 6.625v0.063l-0.197 1.008-0.709-2.633-3.594-3.5-4.875-1.219-4.844 1.406-3.438 3.688-1.125 4.5v9.071l-0.625-3.321v-0.063l-1.781-8.938v-0.063l-1.375-6.625-2.094-3.844-3.875-2-4.344 0.469-3.344 2.844-1.188 4.188 0.156 1.375 1.344 6.594 0.031 0.063 1.719 8.781 0.088 0.456-0.521-1.702-0.031-0.063-1.531-4.719-2.406-3.313-3.844-1.313-3.906 1.156-2.5 3.25-0.188 4.063 0.094 0.281 1.531 4.656v0.063h0.031l1.594 5.219 0.031 0.094 1.531 5.094 0.031 0.094 1.406 4.969 0.031 0.094 1.313 4.813 0.031 0.063 0.031 0.125 2.188 3.469 3.781 1.531 3.969-0.938 2.688-3.094 0.406-4.031-0.063-0.313-0.063-0.188-0.031-0.094-0.437-1.616 3.125 1.741 4.375-0.375 2.625-2.119v3.355l-1.219-0.705-4.375 0.281-3.469 2.656-1.375 4.156 0.094 1.375 0.059 0.364-1.872-0.802-4 0.844-2.75 3-0.5 4.063 0.063 0.281 0.125 0.5 0.031 0.094 0.195 0.879h-56.221l-10 10v37.566h-28.154l-8.671 8.671v47.043c-3.797 1.165-7.535 1.997-11.165 2.17-15.043 0.234-28.675-10.988-41.964-11.105-13.403-0.234-28.448 8.209-37.497 10.1-9.049 1.834-14.761 1.772-16.91 0.474v31.303c2.149 1.298 7.861 1.359 16.91-0.474 9.049-1.892 24.093-10.335 37.497-10.101 13.291 0.118 26.921 11.341 41.964 11.105 14.931-0.711 31.671-12.522 46.942-13.112 14.875-0.474 28.165 10.277 43.153 10.572 15.214 0.117 30.654-9.982 46.942-9.568 16.062 0.236 32.406 11.163 48.808 11.103 16.117-0.353 31.388-11.991 48.186-12.106 16.854 0 35.403 11.222 51.92 11.574 16.285 0 33.142-10.689 45.074-11.103 11.65-0.414 18.042 7.026 25.055 8.623 6.899 1.478 12.159 1.714 16.231 0.475v-31.303c-4.071 1.122-9.331 0.946-16.231-0.531zm-200.88-119.07 1.462-0.483-0.056 0.202v0.094l-0.063 0.188 0.059 1.082-0.184-0.207-4.031-1.008v-0.638l2.813 0.77zm-12.219 17.469 0.485-0.141-0.048 0.363h-4.046l-0.16-1.165 3.769 0.943z" fill="param(fill)" fill-opacity="param(fill-opacity)" stroke="param(outline)" stroke-opacity="param(outline-opacity)" stroke-width="param(outline-width)"/>
	<polygon points="212.22 156.91 209.66 160.44 209.5 164.81 209.97 166.12 210.53 167.28 210.56 167.38 212.72 172.06 212.78 172.16 214.91 176.94 214.94 177.03 217.03 181.88 217.06 181.97 219.12 186.91 219.16 186.97 221.19 191.97 221.22 192.03 221.69 193.19 224.41 196.59 228.56 197.91 232.75 196.69 235.56 193.34 236 189 235.62 187.66 235.16 186.47 235.12 186.41 233.03 181.25 233 181.19 230.88 176.09 230.84 176 228.69 171 228.62 170.91 226.44 165.97 226.41 165.88 224.16 161 224.09 160.91 223.5 159.66 220.56 156.44 216.31 155.41" fill="param(fill)" fill-opacity="param(fill-opacity)" stroke="param(outline)" stroke-opacity="param(outline-opacity)" stroke-width="param(outline-width)"/>
	<polygon points="244.66 240.53 241.62 243.66 240.81 247.97 241.12 249.31 241.44 250.41 241.47 250.5 244.62 261.22 244.66 261.28 247.66 271.97 247.69 272.06 249.25 277.91 251.59 281.59 255.56 283.38 259.88 282.66 263.03 279.62 263.97 275.34 263.75 274 262.16 268.06 262.12 268 259.06 257.16 259.03 257.06 255.84 246.16 255.81 246.06 255.44 244.88 253 241.28 248.94 239.62" fill="param(fill)" fill-opacity="param(fill-opacity)" stroke="param(outline)" stroke-opacity="param(outline-opacity)" stroke-width="param(outline-width)"/>
	<polygon points="230.03 198.06 227.16 201.38 226.62 205.72 227 207.06 227.16 207.5 227.19 207.59 230.97 218.09 231 218.19 234.59 228.78 236.66 235.09 239.16 238.69 243.22 240.28 247.5 239.31 250.5 236.12 251.22 231.81 250.94 230.47 248.88 224.16 248.84 224.06 245.16 213.25 245.12 213.12 241.28 202.44 241.25 202.34 241.06 201.81 238.41 198.34 234.25 196.94" fill="param(fill)" fill-opacity="param(fill-opacity)" stroke="param(outline)" stroke-opacity="param(outline-opacity)" stroke-width="param(outline-width)"/>
	<polygon points="257 283.72 253.81 286.72 252.81 290.97 253.03 292.34 253.25 293.19 253.28 293.25 255.81 303.56 255.84 303.62 258.22 313.78 258.25 313.78 259.94 321.31 262.09 325.09 266.03 327.03 270.34 326.47 273.62 323.59 274.75 319.34 274.56 318 272.84 310.38 272.84 310.31 270.41 300.09 270.41 300.03 267.81 289.59 267.81 289.53 267.56 288.59 265.28 284.84 261.31 283.03" fill="param(fill)" fill-opacity="param(fill-opacity)" stroke="param(outline)" stroke-opacity="param(outline-opacity)" stroke-width="param(outline-width)"/>
	<polygon points="113.28 204.38 117.59 203.62 120.75 200.59 121.31 199.34 122.22 196.62 122.25 196.56 123.97 191.62 124 191.53 125.78 186.56 125.81 186.5 127.69 181.53 127.72 181.44 129.66 176.47 129.69 176.38 131.62 171.66 132.03 167.31 129.94 163.47 126.03 161.44 121.69 161.94 118.38 164.78 117.72 166 115.78 170.81 115.72 170.91 113.72 176.06 113.69 176.16 111.75 181.31 111.72 181.38 109.88 186.5 109.84 186.59 108.06 191.69 108.03 191.75 107.09 194.53 106.97 198.91 109.28 202.59" fill="param(fill)" fill-opacity="param(fill-opacity)" stroke="param(outline)" stroke-opacity="param(outline-opacity)" stroke-width="param(outline-width)"/>
	<polygon points="97 246.09 101.09 247.56 105.34 246.53 108.28 243.28 108.75 241.97 110.16 236.53 110.16 236.47 112.22 228.91 112.25 228.81 114.66 220.41 114.69 220.31 116.78 213.38 116.78 209.03 114.34 205.41 110.28 203.75 106 204.62 102.97 207.75 102.44 209.03 100.31 216.06 100.28 216.16 97.813 224.75 97.781 224.84 95.688 232.59 95.656 232.69 94.219 238.19 94.406 242.56" fill="param(fill)" fill-opacity="param(fill-opacity)" stroke="param(outline)" stroke-opacity="param(outline-opacity)" stroke-width="param(outline-width)"/>
	<polygon points="187.03 123.31 188 127.56 188.78 128.69 189.53 129.56 189.69 129.75 189.78 129.88 190.75 131.12 190.81 131.19 190.94 131.38 191.44 132.16 191.59 132.34 191.66 132.47 191.75 132.59 194.12 136.44 194.22 136.56 196.56 140.5 196.66 140.62 198.97 144.72 199.03 144.81 201.34 149.03 201.41 149.12 203.44 152.97 206.53 156.06 210.81 156.91 214.84 155.25 217.25 151.59 217.22 147.22 216.69 145.94 214.62 142 214.56 141.91 212.12 137.47 212.06 137.38 209.59 133.06 209.53 132.94 207 128.75 206.94 128.62 204.41 124.53 204.31 124.41 204.03 123.97 203.88 123.75 203.03 122.53 202.84 122.28 201.47 120.47 201.22 120.19 200.25 119 196.56 116.66 192.19 116.72 188.62 119.22" fill="param(fill)" fill-opacity="param(fill-opacity)" stroke="param(outline)" stroke-opacity="param(outline-opacity)" stroke-width="param(outline-width)"/>
	<polygon points="150.75 123.72 154.84 125.31 159.09 124.34 160.22 123.56 160.53 123.31 161.53 122.5 161.66 122.41 161.78 122.31 162.5 121.81 162.69 121.69 162.78 121.62 163.44 121.19 163.59 121.09 163.75 121 164.69 120.5 165.25 120.22 166.09 119.81 166.31 119.72 166.47 119.66 166.91 119.5 167.31 119.34 167.72 119.22 167.88 119.19 168.12 119.09 168.5 119 168.78 118.94 168.91 118.91 169.25 118.84 170 118.72 170.06 118.72 170.41 118.66 170.72 118.62 170.88 118.62 171.44 118.59 171.62 118.59 171.84 118.59 172.5 118.62 172.53 118.62 173.22 118.69 173.53 118.72 173.78 118.75 173.91 118.78 174.53 118.91 174.59 118.91 175.84 119.22 177.16 119.66 178.66 120.34 178.81 120.41 179.62 120.84 183.94 121.69 187.94 119.97 190.34 116.31 190.28 111.94 187.78 108.34 186.62 107.59 185.31 106.91 184.81 106.66 182.91 105.81 182.34 105.59 180.38 104.91 179.75 104.72 177.69 104.22 177.16 104.12 176.09 103.94 175.72 103.88 174.66 103.75 174.28 103.72 173.19 103.62 172.78 103.62 171.69 103.59 171.28 103.59 170.16 103.66 169.75 103.66 168.62 103.78 168.22 103.81 167.06 104 166.66 104.06 165.47 104.31 165.06 104.41 163.91 104.72 163.5 104.81 162.31 105.22 161.94 105.34 160.72 105.81 160.34 105.97 159.12 106.5 158.78 106.66 157.56 107.28 157.22 107.47 156 108.19 155.69 108.38 154.44 109.16 154.12 109.38 152.88 110.25 152.59 110.47 151.34 111.44 151.09 111.66 150.56 112.09 148.19 115.75 148.25 120.12" fill="param(fill)" fill-opacity="param(fill-opacity)" stroke="param(outline)" stroke-opacity="param(outline-opacity)" stroke-width="param(outline-width)"/>
	<polygon points="129 162.41 133.38 162.16 136.84 159.5 137.53 158.31 138.22 156.84 138.28 156.69 140.53 152.19 140.59 152.03 142.88 147.66 142.97 147.5 145.31 143.31 145.41 143.12 147.75 139.16 147.88 138.97 150.28 135.19 150.34 135.09 150.41 135 151.5 133.41 151.53 133.41 151.53 133.38 151.62 133.25 151.59 133.22 152.94 129.25 151.81 125.03 148.53 122.16 144.19 121.59 140.28 123.56 139.38 124.59 139.34 124.62 139.25 124.78 137.91 126.75 137.78 126.94 135.12 131.09 135 131.31 132.41 135.66 132.31 135.84 129.78 140.38 129.69 140.53 127.25 145.22 127.16 145.38 124.78 150.19 124.72 150.31 123.97 151.94 123.34 156.25 125.25 160.19" fill="param(fill)" fill-opacity="param(fill-opacity)" stroke="param(outline)" stroke-opacity="param(outline-opacity)" stroke-width="param(outline-width)"/>
	<polygon points="394.22 121.41 398.59 121.38 399.88 120.84 400.72 120.41 402.38 119.66 403.66 119.22 404.91 118.91 404.97 118.91 405.59 118.78 405.72 118.75 405.97 118.72 406.28 118.69 406.97 118.62 407.03 118.62 407.66 118.59 407.88 118.59 408.06 118.59 408.62 118.62 408.78 118.62 409.09 118.66 409.38 118.69 409.53 118.72 410.25 118.84 410.62 118.91 410.88 118.97 411 119 411.75 119.22 411.78 119.22 412.59 119.5 413.06 119.66 413.38 119.81 413.41 119.81 413.91 120.03 414.28 120.22 414.81 120.5 415.75 121 415.91 121.09 416.06 121.19 416.72 121.62 416.88 121.72 417 121.81 417.72 122.31 418.75 123.09 418.97 123.31 419 123.31 419.28 123.56 423.28 125.28 427.59 124.47 430.72 121.41 431.59 117.12 429.94 113.06 428.97 112.09 428.44 111.66 428.19 111.44 426.91 110.47 426.62 110.25 425.38 109.38 425.09 109.16 423.84 108.38 423.53 108.19 422.28 107.47 421.94 107.28 420.72 106.66 420.38 106.5 419.16 105.97 418.78 105.81 417.59 105.34 417.19 105.22 416 104.81 415.62 104.72 414.44 104.41 414.03 104.31 412.88 104.06 412.47 104 411.31 103.81 410.91 103.78 409.75 103.66 409.34 103.66 408.22 103.59 407.81 103.59 406.72 103.62 406.31 103.62 405.22 103.72 404.84 103.75 403.78 103.88 403.41 103.94 402.34 104.12 401.81 104.22 399.78 104.72 399.12 104.91 397.16 105.59 396.59 105.81 394.69 106.66 394.19 106.91 392.88 107.59 389.78 110.66 388.91 114.97 390.59 119" fill="param(fill)" fill-opacity="param(fill-opacity)" stroke="param(outline)" stroke-opacity="param(outline-opacity)" stroke-width="param(outline-width)"/>
	<polygon points="334.91 240.25 339.19 239.44 342.31 236.38 342.84 235.09 344.88 228.91 344.91 228.78 348.5 218.19 348.53 218.09 352.31 207.59 352.34 207.5 352.5 207.06 352.78 202.69 350.56 198.91 346.62 197 342.31 197.62 339.06 200.56 338.47 201.81 338.25 202.34 338.22 202.44 334.38 213.12 334.34 213.25 330.66 224.06 330.62 224.16 328.59 230.47 328.5 234.84 330.88 238.53" fill="param(fill)" fill-opacity="param(fill-opacity)" stroke="param(outline)" stroke-opacity="param(outline-opacity)" stroke-width="param(outline-width)"/>
	<polygon points="318.47 281.91 322.56 283.44 326.81 282.41 329.78 279.19 330.25 277.91 331.81 272.06 331.84 271.97 334.84 261.28 334.88 261.22 338.03 250.5 338.06 250.41 338.41 249.31 338.41 244.94 336 241.31 331.94 239.62 327.66 240.5 324.59 243.62 324.06 244.88 323.69 246.06 323.69 246.16 320.47 257.06 320.44 257.16 317.38 268 317.34 268.06 315.75 274 315.91 278.38" fill="param(fill)" fill-opacity="param(fill-opacity)" stroke="param(outline)" stroke-opacity="param(outline-opacity)" stroke-width="param(outline-width)"/>
	<polygon points="307.94 325.78 312.12 327.12 316.31 325.94 319.12 322.62 319.56 321.31 321.25 313.78 321.28 313.78 323.69 303.62 323.69 303.56 326.22 293.25 326.25 293.19 326.47 292.34 326.28 287.97 323.69 284.44 319.56 282.97 315.34 284.03 312.41 287.28 311.94 288.59 311.72 289.53 311.69 289.59 309.09 300.03 309.09 300.09 306.69 310.31 306.66 310.38 304.94 318 305.25 322.34" fill="param(fill)" fill-opacity="param(fill-opacity)" stroke="param(outline)" stroke-opacity="param(outline-opacity)" stroke-width="param(outline-width)"/>
	<polygon points="349.56 197.81 353.91 197.28 357.22 194.41 357.84 193.19 358.28 192.03 358.31 191.97 360.34 186.97 360.38 186.91 362.44 181.97 362.47 181.88 364.56 177.03 364.59 176.94 366.75 172.16 366.78 172.06 368.94 167.38 368.97 167.28 369.53 166.12 370.19 161.78 368.31 157.84 364.56 155.59 360.19 155.84 356.69 158.47 356 159.66 355.41 160.91 355.34 161 353.12 165.88 353.06 165.97 350.88 170.91 350.84 171 348.66 176 348.62 176.09 346.5 181.19 346.47 181.25 344.38 186.41 344.34 186.47 343.88 187.66 343.53 192.03 345.66 195.84" fill="param(fill)" fill-opacity="param(fill-opacity)" stroke="param(outline)" stroke-opacity="param(outline-opacity)" stroke-width="param(outline-width)"/>
	<polygon points="426.66 127.88 427.28 132.22 427.91 133.25 427.88 133.25 428 133.41 429.09 135 429.16 135.09 429.22 135.19 431.62 138.97 431.75 139.16 434.09 143.12 434.22 143.31 436.53 147.5 436.62 147.66 438.91 152.03 438.97 152.19 441.22 156.69 441.28 156.84 441.97 158.31 444.91 161.53 449.12 162.59 453.25 161.12 455.84 157.59 456 153.22 455.53 151.94 454.78 150.31 454.72 150.19 452.34 145.38 452.28 145.22 449.81 140.53 449.72 140.38 447.22 135.84 447.09 135.66 444.5 131.31 444.38 131.09 441.75 126.94 441.62 126.75 440.28 124.78 440.16 124.62 440.12 124.59 436.66 121.97 432.28 121.72 428.53 123.94" fill="param(fill)" fill-opacity="param(fill-opacity)" stroke="param(outline)" stroke-opacity="param(outline-opacity)" stroke-width="param(outline-width)"/>
	<polygon points="450.66 162.59 447.91 165.97 447.5 170.34 447.88 171.66 449.81 176.38 449.84 176.47 451.78 181.44 451.81 181.53 453.69 186.5 453.72 186.56 455.5 191.53 455.53 191.62 457.25 196.56 457.28 196.62 458.19 199.34 460.75 202.88 464.84 204.41 469.09 203.41 472.06 200.19 472.72 195.88 472.41 194.53 471.47 191.75 471.44 191.69 469.69 186.59 469.66 186.5 467.78 181.38 467.75 181.31 465.81 176.16 465.78 176.06 463.78 170.91 463.75 170.81 461.78 166 459.03 162.59 454.84 161.31" fill="param(fill)" fill-opacity="param(fill-opacity)" stroke="param(outline)" stroke-opacity="param(outline-opacity)" stroke-width="param(outline-width)"/>
	<polygon points="466.31 204.62 463.25 207.75 462.44 212.03 462.72 213.38 464.81 220.31 464.84 220.41 467.25 228.81 467.28 228.91 469.34 236.47 469.38 236.53 470.78 241.97 473.06 245.69 477.03 247.53 481.34 246.81 484.53 243.81 485.5 239.56 485.28 238.19 483.84 232.69 483.84 232.59 481.72 224.84 481.69 224.75 479.22 216.16 479.19 216.06 477.06 209.03 474.62 205.41 470.59 203.75" fill="param(fill)" fill-opacity="param(fill-opacity)" stroke="param(outline)" stroke-opacity="param(outline-opacity)" stroke-width="param(outline-width)"/>
	<polygon points="367.34 156.66 371.72 156.59 375.31 154.12 376.06 152.97 378.09 149.12 378.16 149.03 380.47 144.81 380.53 144.72 382.88 140.62 382.94 140.5 385.31 136.56 385.38 136.44 387.75 132.59 387.84 132.47 387.91 132.34 388.06 132.16 388.59 131.38 388.75 131.19 388.78 131.12 389.72 129.88 389.84 129.72 389.97 129.56 390.72 128.69 392.44 124.69 391.62 120.38 388.56 117.28 384.28 116.38 380.25 118.03 379.25 119 378.28 120.19 378.03 120.47 376.66 122.28 376.47 122.53 375.62 123.75 375.47 123.97 375.19 124.41 375.12 124.53 372.56 128.62 372.5 128.75 370 132.94 369.91 133.06 367.44 137.38 367.38 137.47 364.97 141.91 364.91 142 362.81 145.94 361.97 150.22 363.69 154.25" fill="param(fill)" fill-opacity="param(fill-opacity)" stroke="param(outline)" stroke-opacity="param(outline-opacity)" stroke-width="param(outline-width)"/>
	<polygon points="345.22 301.09 345.34 300.81 345.84 299.84 345.94 299.69 348.56 294.78 348.66 294.62 351.34 289.91 351.47 289.72 354.25 285.19 357.22 280.62 357.34 280.47 358.59 278.66 359.81 274.75 358.5 270.88 355.22 268.47 351.16 268.41 347.78 270.75 347.59 271 346.25 272.97 346.12 273.12 343.03 277.81 342.94 278 339.94 282.91 339.84 283.06 336.94 288.12 336.84 288.28 334.06 293.5 333.97 293.66 333.41 294.78 332.75 298.78 334.56 302.44 338.16 304.38 342.22 303.88" fill="param(fill)" fill-opacity="param(fill-opacity)" stroke="param(outline)" stroke-opacity="param(outline-opacity)" stroke-width="param(outline-width)"/>
	<polygon points="334.5 303.22 330.47 303.91 327.59 306.81 327.47 307.09 326.06 310.19 326 310.31 323.59 315.88 323.56 316 321.25 321.59 321.22 321.72 319.03 327.34 319 327.44 317.19 332.31 317 336.38 319.19 339.81 322.97 341.31 326.94 340.34 329.59 337.28 329.72 336.97 331.5 332.19 331.53 332.09 333.66 326.69 333.69 326.56 335.88 321.19 335.91 321.19 338.25 315.72 338.31 315.59 339.66 312.62 340.12 308.56 338.16 305" fill="param(fill)" fill-opacity="param(fill-opacity)" stroke="param(outline)" stroke-opacity="param(outline-opacity)" stroke-width="param(outline-width)"/>
	<polygon points="390.28 276.25 391.25 277.53 391.38 277.72 392.81 279.72 392.91 279.88 394.31 281.97 394.41 282.12 395.78 284.34 395.84 284.47 397.19 286.75 397.28 286.88 398.59 289.22 398.66 289.31 399.94 291.72 400 291.81 401.25 294.25 401.31 294.34 402.5 296.78 402.56 296.91 403.12 298.09 405.88 301.09 409.88 301.94 413.59 300.31 415.69 296.81 415.38 292.75 415.25 292.47 414.62 291.12 414.56 291 413.25 288.34 413.22 288.22 411.84 285.59 411.78 285.47 410.38 282.88 410.31 282.75 408.88 280.16 408.78 280.03 407.28 277.5 407.22 277.38 405.66 274.88 405.56 274.75 403.97 272.34 403.88 272.19 402.22 269.84 402.09 269.66 401 268.22 397.69 265.84 393.59 265.84 390.28 268.22 388.97 272.09 390.12 276" fill="param(fill)" fill-opacity="param(fill-opacity)" stroke="param(outline)" stroke-opacity="param(outline-opacity)" stroke-width="param(outline-width)"/>
	<polygon points="416.88 334.69 419.12 338.09 422.97 339.53 426.91 338.5 429.5 335.34 429.81 331.28 429.75 331 429.25 329.31 429.22 329.19 427.69 324.19 427.66 324.09 426.5 320.62 426.47 320.53 425.09 316.53 425.06 316.44 423.47 312 423.41 311.88 421.59 307.12 421.53 306.97 420.75 305.03 418.12 301.91 414.19 300.88 410.38 302.31 408.09 305.69 408.22 309.78 408.34 310.06 409.09 311.91 409.12 312.03 410.88 316.56 410.91 316.69 412.44 320.91 412.47 321 413.78 324.78 413.81 324.84 413.81 324.88 414.88 328.16 414.91 328.25 416.41 333.03 416.38 333.03" fill="param(fill)" fill-opacity="param(fill-opacity)" stroke="param(outline)" stroke-opacity="param(outline-opacity)" stroke-width="param(outline-width)"/>
	<polygon points="365.69 269.94 365.94 269.75 366.88 269 367.94 268.25 368.66 267.78 368.94 267.62 369.41 267.38 370.19 266.97 370.41 266.88 370.53 266.81 370.97 266.62 371.03 266.59 371.78 266.34 372.97 266.03 373.06 266 373.91 265.84 373.94 265.84 374.56 265.78 375.09 265.75 375.28 265.75 376.38 265.81 376.91 265.88 377 265.91 378.16 266.16 378.91 266.38 379 266.41 380.25 266.94 381.47 267.59 381.66 267.69 382.69 268.38 386.62 269.41 390.44 268 392.72 264.62 392.62 260.53 390.16 257.28 389.91 257.09 388.41 256.16 387.94 255.88 386.31 255 385.81 254.75 384.19 254.06 383.62 253.84 382.06 253.34 381.5 253.19 379.94 252.81 379.34 252.72 377.84 252.5 377.25 252.44 375.78 252.38 375.22 252.38 373.78 252.41 373.25 252.44 371.88 252.62 371.34 252.69 370 252.97 369.53 253.06 368.25 253.41 367.81 253.56 366.59 253.97 366.19 254.12 365 254.62 364.66 254.78 363.53 255.31 363.22 255.5 362.16 256.06 361.88 256.25 360.88 256.84 360.53 257.09 358.72 258.38 358.34 258.66 357.41 259.44 355.22 262.88 355.41 266.94 357.94 270.12 361.84 271.28" fill="param(fill)" fill-opacity="param(fill-opacity)" stroke="param(outline)" stroke-opacity="param(outline-opacity)" stroke-width="param(outline-width)"/>
	<polygon points="247.12 336.97 249.66 340.19 253.56 341.34 257.44 340 259.78 336.69 259.78 332.59 259.69 332.31 257.88 327.44 257.84 327.34 255.66 321.72 255.59 321.59 253.31 316 253.25 315.88 250.88 310.31 250.81 310.19 249.41 307.09 246.66 304.06 242.69 303.19 238.94 304.78 236.81 308.25 237.09 312.31 237.22 312.62 238.56 315.59 238.62 315.72 240.91 321.06 240.97 321.19 243.16 326.56 243.22 326.69 245.34 332.09 245.31 332.09" fill="param(fill)" fill-opacity="param(fill-opacity)" stroke="param(outline)" stroke-opacity="param(outline-opacity)" stroke-width="param(outline-width)"/>
	<polygon points="193.91 268.53 194.19 268.38 195.22 267.69 195.41 267.59 196.34 267.06 196.53 267 197.78 266.44 197.94 266.38 198.66 266.16 199.78 265.91 199.94 265.88 200.5 265.81 201.56 265.75 201.75 265.75 202.28 265.78 202.94 265.84 203.03 265.84 203.81 266 203.91 266.03 205.09 266.34 205.5 266.47 205.69 266.56 205.91 266.62 206.34 266.81 206.5 266.88 206.69 266.97 207.47 267.38 207.94 267.62 208.22 267.78 208.94 268.25 210 269 210.09 269.09 210.91 269.75 214.72 271.28 218.66 270.31 221.34 267.22 221.72 263.16 219.69 259.62 219.44 259.44 218.53 258.66 218.12 258.38 216.34 257.09 215.97 256.84 214.97 256.25 214.69 256.06 213.62 255.5 213.31 255.31 212.19 254.78 211.84 254.62 210.66 254.12 210.28 253.97 209.03 253.56 208.62 253.41 207.31 253.06 206.84 252.97 205.5 252.69 205 252.62 203.62 252.44 203.06 252.41 201.66 252.38 201.06 252.38 199.59 252.44 199.03 252.5 197.5 252.72 196.91 252.81 195.38 253.19 194.81 253.34 193.22 253.84 192.69 254.06 191.06 254.75 190.56 255 188.91 255.88 188.44 256.16 186.97 257.09 184.34 260.25 184.06 264.31 186.19 267.78 189.94 269.41" fill="param(fill)" fill-opacity="param(fill-opacity)" stroke="param(outline)" stroke-opacity="param(outline-opacity)" stroke-width="param(outline-width)"/>
	<polygon points="173.62 298.38 173.75 298.09 174.31 296.91 174.38 296.78 175.56 294.34 175.62 294.25 176.88 291.81 176.94 291.72 178.22 289.31 178.28 289.22 179.59 286.88 179.66 286.75 181 284.47 181.09 284.34 182.47 282.12 182.56 281.97 183.97 279.88 184.06 279.72 185.47 277.72 185.59 277.53 186.56 276.25 187.91 272.41 186.75 268.47 183.56 265.97 179.47 265.75 176.06 267.97 175.84 268.22 174.75 269.66 174.62 269.84 173 272.19 172.91 272.34 171.31 274.75 171.22 274.88 169.66 277.38 169.56 277.5 168.06 280.03 168 280.16 166.53 282.75 166.47 282.88 165.06 285.47 165.03 285.59 163.66 288.22 163.59 288.34 162.31 291 162.22 291.12 161.62 292.47 161.09 296.5 163.03 300.09 166.69 301.91 170.72 301.25" fill="param(fill)" fill-opacity="param(fill-opacity)" stroke="param(outline)" stroke-opacity="param(outline-opacity)" stroke-width="param(outline-width)"/>
	<polygon points="166 316.56 167.72 312.03 167.78 311.91 168.53 310.06 168.84 306 166.72 302.5 163 300.88 159 301.75 156.25 304.75 156.12 305.03 155.31 306.97 155.28 307.12 153.44 311.88 153.41 312 151.81 316.44 151.75 316.53 150.38 320.53 150.34 320.62 149.22 324.09 149.19 324.19 147.66 329.19 147.59 329.31 147.12 331 147.25 335.06 149.72 338.31 153.59 339.53 157.47 338.28 159.91 335 160 334.69 160.44 333.12 160.47 333.03 161.94 328.25 161.97 328.16 163.06 324.88 163.09 324.78 164.44 320.91 164.41 320.91 165.94 316.69" fill="param(fill)" fill-opacity="param(fill-opacity)" stroke="param(outline)" stroke-opacity="param(outline-opacity)" stroke-width="param(outline-width)"/>
	<polygon points="218.25 278.66 219.53 280.47 219.62 280.62 222.5 285 222.62 285.19 225.41 289.72 225.5 289.91 228.22 294.62 228.31 294.78 230.94 299.69 231.03 299.84 231.5 300.81 234.38 303.72 238.38 304.44 242.06 302.66 244.03 299.09 243.59 295.06 243.47 294.78 242.88 293.66 242.81 293.5 240 288.28 239.94 288.12 237.03 283.06 236.94 282.91 233.94 278 233.81 277.81 230.72 273.12 230.62 272.97 229.25 271 226.03 268.53 221.94 268.38 218.53 270.62 217.06 274.44 218.09 278.38" fill="param(fill)" fill-opacity="param(fill-opacity)" stroke="param(outline)" stroke-opacity="param(outline-opacity)" stroke-width="param(outline-width)"/>
	<polygon points="286.47 101.81 291.34 103.03 296.19 101.59 299.62 97.938 300.75 93.438 300.75 55.094 299.44 50.219 295.84 46.719 290.97 45.5 286.12 46.906 282.69 50.594 281.56 55.094 281.56 93.438 282.88 98.281" fill="param(fill)" fill-opacity="param(fill-opacity)" stroke="param(outline)" stroke-opacity="param(outline-opacity)" stroke-width="param(outline-width)"/>
	<polygon points="286.47 159.34 291.34 160.53 296.19 159.12 299.62 155.47 300.75 150.97 300.75 112.62 299.44 107.75 295.84 104.25 290.97 103.03 286.12 104.44 282.69 108.09 281.56 112.62 281.56 150.97 282.88 155.81" fill="param(fill)" fill-opacity="param(fill-opacity)" stroke="param(outline)" stroke-opacity="param(outline-opacity)" stroke-width="param(outline-width)"/>
	<polygon points="286.47 216.84 291.34 218.06 296.19 216.66 299.62 213 300.75 208.5 300.75 170.12 299.44 165.28 295.84 161.78 290.97 160.56 286.12 161.97 282.69 165.62 281.56 170.12 281.56 208.5 282.88 213.34" fill="param(fill)" fill-opacity="param(fill-opacity)" stroke="param(outline)" stroke-opacity="param(outline-opacity)" stroke-width="param(outline-width)"/>
	<polygon points="286.47 331.91 291.34 333.12 296.19 331.69 299.62 328.03 300.75 323.53 300.75 285.19 299.44 280.34 295.84 276.81 290.97 275.59 286.12 277.03 282.69 280.69 281.56 285.19 281.56 323.53 282.88 328.38" fill="param(fill)" fill-opacity="param(fill-opacity)" stroke="param(outline)" stroke-opacity="param(outline-opacity)" stroke-width="param(outline-width)"/>
	<polygon points="286.47 274.38 291.34 275.59 296.19 274.19 299.62 270.5 300.75 266 300.75 227.66 299.44 222.81 295.84 219.28 290.97 218.06 286.12 219.5 282.69 223.16 281.56 227.66 281.56 266 282.88 270.88" fill="param(fill)" fill-opacity="param(fill-opacity)" stroke="param(outline)" stroke-opacity="param(outline-opacity)" stroke-width="param(outline-width)"/>
</svg>
