<?xml version="1.0" encoding="UTF-8"?>
<svg width="580px" height="580px" enable-background="new 0 0 580 580" version="1.1" viewBox="0 0 580 580" xmlns="http://www.w3.org/2000/svg">
	<path d="m506.9 175.15c0.243-3.048-1.087-6.01-3.528-7.853l-182.85-137.96c-2.741-2.069-6.423-2.384-9.479-0.813l-227.6 117.1c-2.723 1.4-4.54 4.097-4.815 7.146-0.276 3.049 1.027 6.028 3.453 7.895l183.3 141.03c1.596 1.229 3.52 1.855 5.455 1.855 1.43 0 2.866-0.343 4.181-1.038l227.14-120.18c2.703-1.43 4.488-4.142 4.733-7.191zm-240.13-33.401c0.063-0.053 0.125-0.106 0.187-0.161 7.214-6.385 17.864-10.125 29.218-10.261 0.11-1e-3 0.22-4e-3 0.33-0.01 0.699-0.034 1.403-0.051 2.108-0.051 13.434 0 30.1 6.593 34.948 21.068 0.035 0.104 0.071 0.206 0.11 0.308 1.784 4.743 1.46 9.72-0.963 14.793-3.386 7.086-10.603 13.331-18.386 15.908-0.069 0.023-0.138 0.047-0.206 0.071-5.909 2.118-12.422 3.237-18.832 3.237-14.553 0-26.546-5.616-32.903-15.408-0.1-0.153-0.204-0.303-0.313-0.45-6.863-9.274-3.11-22.505 4.702-29.044z" fill="param(fill)" fill-opacity="param(fill-opacity)" stroke="param(outline)" stroke-opacity="param(outline-opacity)" stroke-width="param(outline-width)"/>
	<path d="m259.38 312.4-178.02-136.98c-2.752-2.118-6.481-2.45-9.566-0.854-3.084 1.597-4.965 4.835-4.824 8.305l0.071 1.739c1.472 33.644 2.355 67.913 3.209 101.05 0.909 35.246 1.848 71.692 3.499 107.56 0.111 2.422 1.201 4.694 3.02 6.298 29.011 25.573 58.934 51.012 87.872 75.612 28.099 23.888 57.154 48.588 85.304 73.354 1.666 1.465 3.775 2.229 5.909 2.229 1.259 0 2.527-0.266 3.718-0.811 3.208-1.467 5.253-4.683 5.223-8.21l-1.921-222.29c-0.023-2.75-1.31-5.335-3.489-7.011zm-112.24-4.371c-2.24 3.618-6.284 8.07-12.884 8.893-0.256 8e-3 -0.511 0.012-0.764 0.012-16.16 0-28.89-16.497-31.861-32.446-0.09-0.483-0.22-0.958-0.388-1.421-2.481-6.816-1.165-15.826 3.275-22.418 2.01-2.985 6.443-8.011 13.648-8.37 15.676 0.376 27.618 16.277 31.335 31.869 0.083 0.351 0.188 0.696 0.313 1.034 2.611 7.039 1.56 16.007-2.674 22.847zm38.319 100.72c0.042-0.02 0.083-0.04 0.124-0.061 1.436-0.712 3.319-1.15 5.6-1.303 16.133 0.191 27.551 16.691 31.351 32.02 0.079 0.318 0.175 0.632 0.289 0.939 2.501 6.79 1.608 15.482-2.276 22.144-2.125 3.646-6.018 8.206-12.526 9.359-0.751 0.075-1.507 0.114-2.25 0.114-14.415 0-26.184-14.362-30.359-28.549-0.082-0.278-0.178-0.554-0.287-0.823-4.727-11.704-1.702-28.096 10.334-33.84z" fill="param(fill)" fill-opacity="param(fill-opacity)" stroke="param(outline)" stroke-opacity="param(outline-opacity)" stroke-width="param(outline-width)"/>
	<path d="m516.2 194.26c-2.696-1.645-6.056-1.748-8.845-0.271l-226.3 119.79c-2.953 1.563-4.788 4.642-4.759 7.982l1.922 220.68c0.028 3.188 1.75 6.119 4.521 7.695 1.372 0.78 2.896 1.17 4.422 1.17 1.556 0 3.112-0.406 4.504-1.217l221.76-129.26c2.715-1.582 4.399-4.474 4.438-7.615l2.62-211.21c0.04-3.156-1.587-6.099-4.281-7.744zm-23.362 62.745c3.703 4.096 5.604 9.603 5.087 14.73-0.02 0.193-0.033 0.388-0.04 0.582-0.59 16.59-13.507 33.093-30.756 39.343-1.517 0.417-3.14 0.628-4.83 0.628-9.064 0-18.9-6.169-19.094-15.353-5e-3 -0.23-0.019-0.461-0.041-0.689-1.003-10.155 2.621-20.977 9.94-29.691 7.368-8.772 17.474-14.269 27.753-15.101 4.445-0.103 8.661 1.877 11.981 5.551zm-103.56 102.14c7.402-8.781 17.547-14.271 27.856-15.083 4.277-0.108 8.389 1.792 11.653 5.314 3.651 3.938 5.604 9.277 5.225 14.281-0.015 0.194-0.022 0.389-0.024 0.584-0.174 16.624-12.767 33.356-29.978 39.874-1.678 0.509-3.489 0.767-5.388 0.767-9.174 0-19.107-6.223-19.274-15.485-4e-3 -0.234-0.018-0.469-0.04-0.702-0.979-10.103 2.655-20.874 9.97-29.55zm-65.042 89.567c7.518-8.803 17.716-14.193 28.018-14.82 4.132 0.066 8.126 1.957 11.27 5.342 3.673 3.955 5.642 9.351 5.266 14.434-0.013 0.174-0.021 0.348-0.023 0.522-0.257 16.766-13.075 33.48-30.516 39.84-1.592 0.452-3.296 0.682-5.071 0.682-8.966 0-18.8-5.85-19.056-15.299-6e-3 -0.229-0.021-0.459-0.045-0.688-1.071-10.26 2.631-21.2 10.157-30.013z" fill="param(fill)" fill-opacity="param(fill-opacity)" stroke="param(outline)" stroke-opacity="param(outline-opacity)" stroke-width="param(outline-width)"/>
</svg>
