<?xml version="1.0" encoding="UTF-8"?>
<svg width="580px" height="580px" enable-background="new 0 0 580 580" version="1.1" viewBox="0 0 580 580" xmlns="http://www.w3.org/2000/svg">
	<g transform="matrix(48.15 0 0 48.15 -536.27 -33.307)" display="none" fill="none" stroke="#757575" stroke-width=".1">
		<rect x="1" y="1" width="10" height="10" display="inline"/>
		<rect x="2" y="2" width="8" height="8" display="inline"/>
	</g>
	<path d="m509.03 123.13c-0.946-5.637-3.631-11.628-8.448-18.857-3.708-5.565-4.458-6.319-11.463-11.515-9.617-7.135-20.901-12.933-28.081-14.428-5.929-1.234-10.047-1.738-14.215-1.738-3.728 0-7.598 0.386-13.358 1.333-4.034 0.663-14.452 3.719-16.542 5.56-0.036 0.032-0.099 0.073-0.155 0.104-0.756 0.109-2.295 0.783-8.642 5.198-1.312 0.912-2.491 1.715-3.487 2.38 0.211-3.96 0.971-9.751 1.566-10.936 0.211-0.186 1.186-0.663 5.673-1.079 4.494-0.417 7.074-1.892 8.903-5.09 0.417-0.73 3.464-5.413 7.17-10.966 10.649-15.958 10.649-15.958 9.51-18.13-1.222-2.325-3.354-2.666-14.477-4.09-5.122-0.656-9.958-1.286-10.782-1.405-5.731-0.824-19.097-1.245-47.67-1.503-14.76-0.133-41.232-0.213-70.816-0.213-6.433 0-62.936 9e-3 -65.859 0.313-0.964 0.101-8.472 0.326-17.704 0.488-25.407 0.445-54.322 2.099-60.665 3.469-1.301 0.281-3.266 0.706-4.033 2.586-0.854 2.096 0.467 4.095 2.467 7.119 1.253 1.896 3.273 5.585 4.412 8.057 6.07 13.18 7.506 15.016 7.977 15.619 2.258 2.889 7.945 4.491 12.581 4.798 1.285 0.085 2.329 0.262 2.897 0.396 0.477 1.016 1.419 4.249 1.778 10.982 0.014 0.254 0.027 0.505 0.04 0.75-4.635-3.558-11.875-8.771-13.449-9.546-6.24-3.075-16.126-5.458-25.8-6.219-0.923-0.072-1.965-0.109-3.096-0.109-8.104 0-19.869 1.831-26.226 4.081-7.064 2.501-10.046 4.3-11.305 5.556-3.13 0.767-10.101 6.605-13.554 10.316-5.126 5.51-10.209 13.411-11.332 17.614-0.424 1.588-1.334 4.681-2.03 6.895-1.992 6.344-1.976 25.467 0.031 36.539 1.232 6.799 2.728 14.313 3.404 17.104 0.104 0.442 0.515 3.126 0.949 6.492 0.413 3.204 1.149 7.379 1.642 9.309 0.296 1.157 0.448 2.021 0.504 2.462-0.171 0.991 0.032 2.894 0.939 7.656 3.17 16.638 3.513 30.689 2.363 33.439-2.442 5.839-3.56 18.474-2.442 27.591 0.379 3.093 0.982 8.229 1.339 11.413 0.826 7.37 3.875 21.039 6.04 27.085 0.852 2.381 2.27 6.36 3.152 8.844 1.703 4.799 6.113 15.573 7.292 17.328 0.211 0.319 1.058 1.925 1.903 3.716 0.843 1.782 2.238 4.569 3.11 6.212 0.857 1.615 2.846 5.376 4.42 8.357 1.627 3.083 3.457 6.383 4.164 7.513 0.558 0.89 0.882 1.507 0.945 1.652-9e-3 -0.021-0.06-0.145-0.101-0.341 0.211 0.867 1.272 2.871 6.62 11.282 0.424 0.666 0.706 1.183 0.829 1.429 0.264 0.91 1.412 2.762 6.403 9.976 6.225 8.997 6.929 9.566 7.232 9.812 0.03 0.024 0.058 0.049 0.083 0.072 0.302 0.729 1.1 1.951 3.224 4.662l4.25 5.424c0.786 1.003 2.432 3.056 3.659 4.561 1.201 1.473 2.884 3.58 3.752 4.696 2.345 3.021 3.644 4.605 5.558 6.785 0.639 0.727 1.068 1.258 1.269 1.52 0.402 0.771 1.438 2.065 4.105 5.214 1.751 2.067 4.203 4.889 5.347 6.036 1.033 1.036 2.515 2.545 3.293 3.355 7.623 7.932 17.852 17.127 28.801 25.89 6.192 4.956 11.407 9.554 14.102 12.427-0.652 0.209-1.396 0.429-2.136 0.619-1.908 0.49-4.502 1.433-5.904 2.143-0.907 0.46-1.659 0.766-1.97 0.87-0.676 0.081-1.933 0.58-6.949 3.847-3.166 2.061-5.675 3.436-6.166 3.619-3.196 1.033-10.421 5.142-13.805 7.849-7.58 6.061-12.259 15.334-11.125 22.051 0.939 5.569 4.711 12.432 8.969 16.316 4.445 4.058 17.157 12.773 21.494 13.531 0.225 0.09 0.723 0.317 1.313 0.635 1.246 0.672 3.933 1.81 12.84 3.931 2.228 0.53 4.062 1.122 4.42 1.289 1.557 0.746 9.807 2.356 24.523 4.788 3.826 0.632 7.886 1.336 8.865 1.536 0.474 0.098 1.733 0.356 32.877 0.356 26.359 0 66.252-0.225 69.433-0.631 14.781-1.893 33.148-6.164 45.706-10.63 16.641-5.917 28.553-15.662 31.089-25.433 3.107-11.979-4.774-25.064-18.74-31.113-1.796-0.779-4.653-2.319-6.24-3.363-7.36-4.846-13.025-7.809-18.942-9.909-0.782-0.278-1.495-0.536-2.13-0.77 0.273-0.254 0.565-0.523 0.874-0.806 2.158-1.975 5.227-4.887 6.839-6.493 1.57-1.563 3.616-3.227 4.47-3.741 1.527-0.919 4.452-3.474 6.428-5.41 2.114-2.07 5.297-5.167 7.071-6.881 7.726-7.459 30.398-31.639 33.233-35.441 1.854-2.486 8.436-11.109 10.06-13.18 3.715-4.735 17.839-25.352 21.286-31.07 6.264-10.393 7.075-11.777 7.181-12.827 0.197-0.441 0.691-1.427 1.423-2.691 4.413-7.629 7.334-13.261 9.472-18.261 0.606-1.42 1.679-3.731 2.341-5.045 3.987-7.911 10.646-28.53 12.078-37.393 0.406-2.516 0.933-4.852 1.132-5.418 1.591-4.546 2.236-12.006 2.227-25.75-0.011-14.811-0.067-15.32-3.024-27.246-1.908-7.696-1.452-27.23 0.841-36.039 0.343-1.316 0.935-4.259 1.32-6.56 1.124-6.694 1.892-10.566 2.491-12.556 0.384-1.28 0.789-3.284 0.922-4.562 0.108-1.042 0.51-3.523 0.878-5.417 3.548-18.32 4.61-32.86 3.069-42.046zm-30.385 11.023c-4e-3 8.431-0.222 11.593-1.015 14.707-0.605 2.37-1.463 5.957-1.912 7.996-0.436 1.974-1.348 5.674-2.033 8.25-0.698 2.621-1.706 6.607-2.246 8.886-1.435 6.056-3.776 11.84-4.8 13.28-0.184-0.165-0.351-0.32-0.456-0.417-2.123-1.959-16.924-11.716-21.583-14.353-3.598-2.036-15.264-10.482-18.912-13.692-9.297-8.178-13.73-19.205-11.035-27.438 5.318-16.238 21.571-30.64 35.491-31.449 0.549-0.032 1.101-0.047 1.652-0.047 5.516 0 11.152 1.594 14.36 4.062 3.753 2.887 8.978 10.307 10.961 15.568 1.475 3.909 1.532 4.061 1.528 14.647zm-312.24 14.695c-10.308 11.321-15.168 15.176-30.588 24.265-2.871 1.691-5.917 3.49-6.766 3.995-0.837 0.497-3.362 1.942-5.516 3.156-2.281 1.287-5.429 3.235-7.018 4.341-1.606 1.119-3.181 1.995-3.539 2.131-0.247 0.092-0.436 0.157-0.578 0.202-0.715-1.236-2.161-4.784-2.533-6.913-0.408-2.336-1.681-7.716-2.838-11.992-0.315-1.165-0.972-4.275-1.435-6.791-0.482-2.626-1.306-6.722-1.836-9.132-3.42-15.537-3.142-31.688 0.693-40.191 2.128-4.718 8.872-10.021 14.726-11.582 3.06-0.815 4.078-1.006 7.055-1.006 1.136 0 2.515 0.031 4.299 0.079 7.098 0.189 7.177 0.219 11.315 1.769 8.106 3.036 13.282 6.363 17.863 11.484 3.38 3.779 7.635 10.295 8.24 11.851 0.077 1.047 0.5 2.237 1.102 3.059 0.715 0.976 2.041 6.302 2.05 11.322 8e-3 4.786 8e-3 4.786-4.696 9.953zm-68.722-62.702c-0.363 0.372-0.575 0.696-0.698 0.975 0.197-0.504 0.516-0.837 0.698-0.975z" fill="param(fill)" fill-opacity="param(fill-opacity)" stroke="param(outline)" stroke-opacity="param(outline-opacity)" stroke-width="param(outline-width)"/>
</svg>
