<svg xmlns="http://www.w3.org/2000/svg" id="webmap" viewBox="-467 269 24 24">
       <g> <polygon style="fill:var(--icon-color-primary);fill-opacity:0.28;" points="-459,292.8 -467,290.3 -467,269.2 -459,271.7 	"/> <polygon style="fill:var(--icon-color-primary);fill-opacity:0.47;" points="-459,292.8 -451,290.3 -451,269.2 -459,271.7 	"/> <polygon style="fill:var(--icon-color-primary);fill-opacity:0.28;" points="-443,292.8 -451,290.3 -451,269.2 -443,271.7 	"/> <path style="fill:var(--icon-color-primary);fill-opacity:0.65;" d="M-459,281.3l-8,1.2v4.8l8-1V281.3z"/> <polygon style="fill:var(--icon-color-primary);fill-opacity:0.85;" points="-451,269.2 -455.8,270.7 -451.8,278.6 -459,281.3 -459,286.3 -451,283.3 	"/> <polygon style="fill:var(--icon-color-primary);fill-opacity:0.65;" points="-446.7,278.1 -451,269.2 -451,269.2 -451,283.3 -443,282.3 -443,277.7 	"/> <g> <path style="fill:var(--icon-color-accent);fill-opacity:0.9;" d="M-462,269.2c-1.9,0-3.5,1.5-3.5,3.5c0,3.1,2.8,4,3.4,8.4c0,0.3,0.3,0.3,0.3,0
			c0.6-4.4,3.4-5.4,3.4-8.4C-458.6,270.8-460.2,269.2-462,269.2z"/> <path style="fill:#FFFFFF;" d="M-460.6,272.8c0,0.9-0.7,1.5-1.5,1.5s-1.4-0.7-1.4-1.5c0-0.9,0.7-1.4,1.4-1.4
			C-461.3,271.3-460.6,272-460.6,272.8z"/> </g> </g>
    </svg>
