<svg xmlns="http://www.w3.org/2000/svg" style="width:0; height:0; visibility:hidden;">
    <symbol id="default" viewBox="0 0 24 24">
       <g> <path style="fill:#E1EAEF;" d="M3,0l0.1,24H21l0-18l-6-6H3z"/> <path style="fill:#81B0DC;" d="M15,6V0l6,6H15z"/> </g>
    </symbol>
    <symbol id="mapserver_style" viewBox="-467 269 24 24">
       <g> <path style="fill:#AEC8E0;" d="M-445.2,271C-445.2,271-445.6,270.6-445.2,271C-445.3,270.9-445.3,270.9-445.2,271
		C-445.3,270.9-445.3,270.9-445.2,271C-445.3,270.9-445.3,270.9-445.2,271c-0.4-0.4-0.9-0.1-0.9-0.1s-7.5,5.5-7.4,5.5l-2,1.6h5.7
		c2.3-3,4.6-6.3,4.6-6.3S-444.9,271.3-445.2,271z"/> <path style="fill:#AEC8E0;" d="M-457.8,285.7c0.1,0-0.2-0.1-0.2-0.1v-5.1c-1,1.3-1.6,1.9-2,3.2L-457.8,285.7z"/> <g> <g> <polygon style="fill:#88D5EA;" points="-447.9,281.1 -443.4,281.9 -443.4,277.7 -447.9,276.9 			"/> <g> <polygon style="fill:#6EB8EA;" points="-452.9,282 -448.5,281.1 -448.5,276.9 -452.9,277.9 				"/> </g> <polygon style="fill:#88D5EA;" points="-458,281.2 -453.4,282 -453.4,277.9 -458,277 			"/> <polygon style="fill:#88D5EA;" points="-447.9,285.8 -443.4,286.6 -443.4,282.4 -447.9,281.6 			"/> <g> <polygon style="fill:#6EB8EA;" points="-452.9,286.8 -448.5,285.8 -448.5,281.6 -452.9,282.6 				"/> </g> <polygon style="fill:#88D5EA;" points="-458,285.9 -453.4,286.8 -453.4,282.6 -458,281.8 			"/> <polygon style="fill:#88D5EA;" points="-447.9,290.5 -443.4,291.4 -443.4,287.2 -447.9,286.4 			"/> <g> <polygon style="fill:#6EB8EA;" points="-452.9,291.5 -448.5,290.5 -448.5,286.4 -452.9,287.3 				"/> </g> <polygon style="fill:#88D5EA;" points="-458,290.7 -453.4,291.5 -453.4,287.3 -458,286.5 			"/> </g> </g> </g> <path style="fill:#00B066;" d="M-460.6,284c-5.6,0.5-3.2,5.4-6.4,7c4.2,0,8.5-0.8,8.7-4.7C-458.4,286.1-460.6,284-460.6,284z"/>
    </symbol>
    <symbol id="postgis_connection" viewBox="-467 269 24 24">
       <g> <path style="fill:none;stroke:#B1B2B2;stroke-width:2;stroke-miterlimit:10;" d="M-461,283v4.3c0,1.1,1.4,1.7,2.5,1.7h4.5"/> <g> <g> <path style="fill:#72a6d8;" d="M-444.1,284.3c0,0-0.9,0.3-0.9,1.3c0,0.4,0,0,0,2c0,1.4-2,1.5-2-0.1v-5c0-2.7-2.3-6-7-4.8
				c0.4,0.3,1,0.5,1,0.9v6c0,0.8-1.5,1.3-2.6,1.3c-1.7,0-3-1.1-3.7-2.8c-0.2,3.3,2.6,6.8,5.2,7.5c0.5-0.8,1.8-2.6,1.8-2.6h2.2
				c0.9,4,7.2,4.1,7.2-0.6V286c0-0.4,0.1-0.5,0.1-0.5L-444.1,284.3z"/> <path style="fill:#0070C5;" d="M-455.5,286c1.3,0,2.5-0.5,2.5-1.5c0,0,0,0,0-0.1v-6c0-0.3-0.5-0.6-0.9-0.9c-0.1,0,0,0-0.1,0.1
				c-0.7,0-2.1,1.2-2.7,1.3c-1.1,0.2-2,1.2-2.4,2.5c-0.3,1-0.4,2.1,0.5,3C-457.8,285.6-456.6,286-455.5,286z"/> </g> <circle style="fill:#FFFFFF;" cx="-448.9" cy="281.5" r="0.6"/> <path style="fill:#72a6d8;" d="M-454.8,276.1c1.1,0,1.8,0.5,2.8,1.4v6.5c-0.9,0.9-1.7,1.4-2.8,1.4c-2.2,0-4-2.1-4-4.6
			C-458.7,278.2-457,276.1-454.8,276.1z"/> </g> <path style="fill:#B1B2B2;" d="M-462,276.4c0,0.3-0.6,0.7-1,0.7l0,0c-0.4,0-1-0.3-1-0.7v-4.8c0-0.3,0.6-0.7,1-0.7l0,0
		c0.4,0,1,0.3,1,0.7V276.4z"/> <path style="fill:#B1B2B2;" d="M-457,276.4c0,0.3-0.6,0.7-1,0.7l0,0c-0.4,0-1-0.3-1-0.7v-4.8c0-0.3,0.6-0.7,1-0.7l0,0
		c0.4,0,1,0.3,1,0.7V276.4z"/> <path style="fill:#FFCA28;" d="M-466,276v3.8c0,2.8,2.7,5.2,5.5,5.2l0,0c2.8,0,5.5-2.3,5.5-5.2v-3.5c0-0.4-0.8-1.3-1.2-1.3h-9
		C-465.4,275-466,275.6-466,276z"/> <rect x="-466" y="276" style="opacity:0.18;enable-background:new    ;" width="11" height="2"/> <path style="fill:#FFCA28;" d="M-455.3,277h-10.8c-0.6,0-0.9-0.5-0.9-1l0,0c0-0.5,0.3-1,0.9-1h10.9c0.5,0,0.9,0.5,0.9,1l0,0
		C-454.3,276.4-454.7,277-455.3,277z"/> </g>
    </symbol>
    <symbol id="postgis_layer" viewBox="-467 269 24 24">
       <g> <g> <path style="fill:#72a6d8;" d="M-454.9,272.8c-5.4-1.6-8.1,2.3-8.1,5.3l0.4,5.6c0,1.7-2.4,1.7-2.4,0.1c0-2.3,0-1.7,0-2.3
			c0-1-0.8-1.5-0.8-1.5l-1.3,1.4c0,0,0.1,0,0.1,0.5v1.6c0,5.5,7.3,5.5,8.3,0.5h1.2l1.3,7h4.3l0.3-2h1.4l0.3,2h4.3
			c0.1,0,1.6-5.3,1.9-6.5C-441.8,277.8-444.2,273-454.9,272.8z"/> <path style="fill:#0070C5;" d="M-453,272.1c-1.3,0-2.5,0.5-3.3,1.5v6.8c0.9,0.9,2,1.5,3.3,1.5c2.6,0,4.7-2.2,4.7-4.9
			C-448.1,274.3-450.3,272.1-453,272.1z"/> <circle style="fill:#FFFFFF;" cx="-460" cy="277.8" r="0.9"/> <path style="fill:#72a6d8;" d="M-453.7,270.8c-1.2,0-2.5,0.6-3.4,1.6v7.4c0.9,1,2.2,1.6,3.4,1.6c2.5,0,4.6-2.4,4.6-5.3
			S-451.1,270.8-453.7,270.8z"/> </g> <path style="fill:#0070C5;" d="M-456.2,291c0-0.6,0.4-1.1,1.1-1.1c0.6,0,1.1,0.4,1.1,1.1"/> <path style="fill:#0070C5;" d="M-454.1,291c0-0.6,0.4-1.1,1.1-1.1c0.6,0,1.1,0.4,1.1,1.1"/> <path style="fill:#0070C5;" d="M-449.9,291c0-0.6,0.4-1.1,1.1-1.1c0.6,0,1.1,0.4,1.1,1.1"/> <path style="fill:#0070C5;" d="M-447.8,291c0-0.6,0.4-1.1,1.1-1.1c0.7,0,1.1,0.4,1.1,1.1"/> </g>
    </symbol>
    <symbol id="qgis_vector_style" viewBox="-467 269 24 24">
       <g> <g> <path style="fill:#AEC8E0;" d="M-457.8,285.7c0.1,0,1-0.6,1-0.6l-1.2-4.6c-1,1.3-1.6,1.9-2,3.2L-457.8,285.7z"/> <path style="fill:#AEC8E0;" d="M-446.9,273.5c0.1,0.1,0.2,0.1,0.3,0.2c0.9-1.2,1.4-2,1.4-2s0.3-0.4,0-0.7
			c-0.4-0.4-0.9-0.1-0.9-0.1s-1.1,0.8-2.5,1.8h0.1C-447.9,272.9-447.4,273.2-446.9,273.5z"/> </g> <path style="fill:#00B066;" d="M-460.6,284c-5.6,0.5-3.2,5.4-6.4,7c4.2,0,8.5-0.8,8.7-4.7C-458.4,286.1-460.6,284-460.6,284z"/> </g> <g> <g> <path style="fill:#3498DB;" d="M-446.2,288.3c-0.5,0-0.5-0.5-0.5-0.5v-0.9c2.2-1.5,3.7-4.1,3.7-7.1c0-4.7-3.6-8.4-8-8.4
			s-8,3.8-8,8.4c0,4.6,3.6,8.4,8,8.4c0.5,0,0.9-0.1,1.4-0.1v0.2c0,1.7,1.3,2.3,2.9,2.3c1.7,0,3.8-0.8,3.7-3.7
			C-444.1,288.4-445.6,288.3-446.2,288.3z M-451,272.1c1.7,0,3.1,3.5,3.1,7.7c0,1-0.1,1.9-0.2,2.7c-2.3-1.4-5.2-0.7-5.9-0.2
			c-0.1-0.8-0.2-1.6-0.2-2.5C-454.1,275.6-452.7,272.1-451,272.1z M-451,287.6c-1.3,0-2.4-2-2.9-4.8c1.7-0.8,3-0.5,3.7-0.2
			c0.6,0.3,0.6,0.8,0.6,0.8s0,1.8,0,3.4C-450.1,287.3-450.5,287.6-451,287.6z"/> </g> </g>
    </symbol>
    <symbol id="formbuilder_form" viewBox="0 0 24 24">
        <polygon style="fill:#E1EAEF" points="3,0 3,24 15,24 21,18 21,0 "/>
        <polygon style="fill:#81B0DC" points="15,18 15,24 21,18 "/>
        <path style="fill:#81B0DC" d="M9.667,3H6.333C6.149,3,6,3.149,6,3.333v3.333C6,6.851,6.149,7,6.333,7h3.333C9.851,7,10,6.851,10,6.667V3.333
            C10,3.149,9.851,3,9.667,3z M7.556,6.242L6.431,5.118l0.471-0.471L7.556,5.3l1.542-1.542l0.471,0.471L7.556,6.242z"/>
        <rect x="12" y="4.5" style="fill:#81B0DC" width="6" height="1"/>
        <path style="fill:#81B0DC" d="M9.667,10H6.333C6.149,10,6,10.149,6,10.333v3.333C6,13.851,6.149,14,6.333,14h3.333
            C9.851,14,10,13.851,10,13.667v-3.334C10,10.149,9.851,10,9.667,10z M7.556,13.242l-1.125-1.124l0.471-0.471L7.556,12.3l1.542-1.542
            l0.471,0.471L7.556,13.242z"/>
        <rect x="12" y="11.5" style="fill:#81B0DC" width="6" height="1"/>
    </symbol>
    <symbol id="raster_layer" viewBox="-467 269 24 24">
       <path id="path3384" style="fill:#81B0DC;" d="M-455,281h-12v-9.6c0-1.3,1.1-2.4,2.4-2.4h9.6V281L-455,281z"/> <path id="path3390" style="fill:#DCE8F3;" d="M-443,281h-12v-12h9.6c1.3,0,2.4,1.1,2.4,2.4V281z"/> <path id="path3390-9" style="fill:#DCE8F3;" d="M-455,293v-12h-12v9.6c0,1.3,1.1,2.4,2.4,2.4H-455z"/> <path id="path3384-2" style="fill:#81B0DC;" d="M-443,290.6V281h-12v12h9.6C-444.1,293-443,291.9-443,290.6z"/>
    </symbol>
    <symbol id="raster_style" viewBox="0 0 24 24">
       <path style="fill:#AEC8E0;" d="M21.8,2C21.8,2,21.4,1.6,21.8,2C21.7,1.9,21.7,1.9,21.8,2C21.7,1.9,21.7,1.9,21.8,2
	C21.7,1.9,21.7,1.9,21.8,2c-0.4-0.4-0.9-0.1-0.9-0.1s-7.5,5.5-7.4,5.5l-2,1.6h5.7c2.3-3,4.6-6.3,4.6-6.3S22.1,2.3,21.8,2z"/> <path style="fill:#AEC8E0;" d="M9.2,16.7c0.1,0,1.2-0.6,1.2-0.6L9,11.5c-1,1.3-1.6,1.9-2,3.2L9.2,16.7z"/> <path style="fill:#00B066;" d="M6.4,15c-5.6,0.5-3.2,5.4-6.4,7c4.2,0,8.5-0.8,8.7-4.7C8.6,17.1,6.4,15,6.4,15z"/> <g id="layer1" transform="translate(-105.56848,-413.10538)"> <path id="path3390" style="fill:#DCE8F3;" d="M129.6,425.1h-8v-8h5.9c1.1,0,2.1,0.6,2.1,1.7V425.1z"/> <path id="path3384" style="fill:#3498DB;" d="M121.6,425.1h-8v-6.3c0-1.1,0.9-1.7,2.1-1.7h5.9V425.1L121.6,425.1z"/> <path id="path3390-9" style="fill:#DCE8F3;" d="M121.6,433.1v-8h-8v5.7c0,1.1,0.9,2.3,2.1,2.3H121.6z"/> <path id="path3384-2" style="fill:#3498DB;" d="M129.6,430.8v-5.7h-8v8h5.9C128.7,433.1,129.6,432,129.6,430.8z"/> </g>
    </symbol>
    <symbol id="resource_group" viewBox="0 0 24 24">
        <path style="fill:#3498DB" d="M23,4H8.821C8.494,4,8.189,3.841,8.001,3.573L7.199,2.427C7.011,2.159,6.706,2,6.379,2H1C0.448,2,0,2.448,0,3v3
	h24V5C24,4.448,23.552,4,23,4z"/>
        <path style="fill:#68ACE0" d="M0,7v14c0,0.552,0.448,1,1,1h22c0.552,0,1-0.448,1-1V7H0z"/>
    </symbol>
    <symbol id="vector_layer" viewBox="0 0 24 24">
       <g> <rect x="3.5" y="3.5" style="fill:none;stroke:#70A6D7;" width="17" height="17"/> <path style="fill:#00B066;" d="M7,3.5C7,5.4,5.4,7,3.5,7S0,5.4,0,3.5S1.6,0,3.5,0S7,1.6,7,3.5L7,3.5z"/> <path style="fill:#70A6D7;" d="M24,3.5C24,5.4,22.4,7,20.5,7S17,5.4,17,3.5c0-2,1.6-3.5,3.5-3.5S24,1.6,24,3.5L24,3.5z"/> <path style="fill:#70A6D7;" d="M24,20.5c0,1.9-1.6,3.5-3.5,3.5c-2,0-3.5-1.6-3.5-3.5c0-2,1.6-3.5,3.5-3.5S24,18.6,24,20.5L24,20.5z
		"/> <path style="fill:#70A6D7;" d="M7,20.5C7,22.4,5.4,24,3.5,24c-2,0-3.5-1.6-3.5-3.5c0-2,1.6-3.5,3.5-3.5S7,18.6,7,20.5L7,20.5z"/> </g>
    </symbol>
    <symbol id="webmap" viewBox="-467 269 24 24">
       <g> <polygon style="fill:#D8E9F4;" points="-459,292.8 -467,290.3 -467,269.2 -459,271.7 	"/> <polygon style="fill:#AEC8E0;" points="-459,292.8 -451,290.3 -451,269.2 -459,271.7 	"/> <polygon style="fill:#D8E9F4;" points="-443,292.8 -451,290.3 -451,269.2 -443,271.7 	"/> <path style="fill:#55B9E5;" d="M-459,281.3l-8,1.2v4.8l8-1V281.3z"/> <polygon style="fill:#4497C6;" points="-451,269.2 -455.8,270.7 -451.8,278.6 -459,281.3 -459,286.3 -451,283.3 	"/> <polygon style="fill:#55B9E5;" points="-446.7,278.1 -451,269.2 -451,269.2 -451,283.3 -443,282.3 -443,277.7 	"/> <g> <path style="fill:#00B066;" d="M-462,269.2c-1.9,0-3.5,1.5-3.5,3.5c0,3.1,2.8,4,3.4,8.4c0,0.3,0.3,0.3,0.3,0
			c0.6-4.4,3.4-5.4,3.4-8.4C-458.6,270.8-460.2,269.2-462,269.2z"/> <path style="fill:#FFFFFF;" d="M-460.6,272.8c0,0.9-0.7,1.5-1.5,1.5s-1.4-0.7-1.4-1.5c0-0.9,0.7-1.4,1.4-1.4
			C-461.3,271.3-460.6,272-460.6,272.8z"/> </g> </g>
    </symbol>
    <symbol id="wfsclient_connection" viewBox="-467 269 24 24">
       <path style="fill:none;stroke:#B1B2B2;stroke-width:2;stroke-miterlimit:10;" d="M-461,283v4.3c0,1.1,1.4,1.7,2.5,1.7h4.5"/> <g> <path style="fill:#DCE8F3;" d="M-443,284c0,4.4-3.5,7.9-8,7.9s-8-4.1-8-7.8c0.1-4.4,3.5-8.1,8-8.1C-446.6,276.1-443,279.6-443,284z
		"/> <path style="fill:#B7CBE9;" d="M-449.1,290.2c0.5-0.7,1.1-1.7,1.5-3h2.3C-446.1,288.5-447.4,289.7-449.1,290.2z M-456.8,287.2h2.3
		c0.4,1.3,1,2.3,1.5,3C-454.6,289.7-456,288.5-456.8,287.2z M-457.4,281.8h2.5c-0.1,0.7-0.2,1.3-0.2,2c0,0.7,0.1,1.3,0.2,2h-2.5
		c-0.2-0.7-0.3-1.3-0.3-2C-457.7,283.1-457.6,282.5-457.4,281.8z M-453,277.5c-0.5,0.7-1.1,1.7-1.5,3h-2.3
		C-456,279.1-454.6,277.9-453,277.5z M-445.2,280.5h-2.3c-0.4-1.3-1-2.3-1.5-3C-447.5,277.9-446.1,279.1-445.2,280.5z M-451,277.1
		c0,0,1.3,1.3,2,3.3h-4.1C-452.3,278.5-451,277.1-451,277.1z M-453.5,285.8c-0.1-0.7-0.2-1.3-0.2-2c0-0.7,0.1-1.3,0.2-2h4.9
		c0.1,0.7,0.2,1.3,0.2,2c0,0.7-0.1,1.3-0.2,2H-453.5z M-451,290.5L-451,290.5c-0.2-0.2-1.3-1.3-2-3.3h4
		C-449.7,289.2-450.8,290.3-451,290.5L-451,290.5z M-444.7,285.8h-2.5c0.1-0.7,0.2-1.3,0.2-2c0-0.7-0.1-1.3-0.2-2h2.5
		c0.2,0.7,0.3,1.3,0.3,2C-444.4,284.5-444.5,285.2-444.7,285.8z M-443,283.9c0-4.4-3.6-8.1-8-8.1l0,0l0,0c-4.4,0-8,3.7-8,8.1
		c0,4.3,3.4,7.9,7.7,8.1c0.1,0,0.5,0,0.7,0C-446.4,291.8-443,288.3-443,283.9z"/> </g> <g> <path style="fill:#B1B2B2;" d="M-462,276.4c0,0.3-0.6,0.7-1,0.7l0,0c-0.4,0-1-0.3-1-0.7v-4.8c0-0.3,0.6-0.7,1-0.7l0,0
		c0.4,0,1,0.3,1,0.7V276.4z"/> <path style="fill:#B1B2B2;" d="M-457,276.4c0,0.3-0.6,0.7-1,0.7l0,0c-0.4,0-1-0.3-1-0.7v-4.8c0-0.3,0.6-0.7,1-0.7l0,0
		c0.4,0,1,0.3,1,0.7V276.4z"/> <path style="fill:#FFCA28;" d="M-466,276v3.8c0,2.8,2.7,5.2,5.5,5.2l0,0c2.8,0,5.5-2.3,5.5-5.2v-3.5c0-0.4-0.8-1.3-1.2-1.3h-9
		C-465.4,275-466,275.6-466,276z"/> <rect x="-466" y="276" style="opacity:0.18;enable-background:new    ;" width="11" height="2"/> <path style="fill:#FFCA28;" d="M-455.3,277h-10.8c-0.6,0-0.9-0.5-0.9-1l0,0c0-0.5,0.3-1,0.9-1h10.9c0.5,0,0.9,0.5,0.9,1l0,0
		C-454.3,276.4-454.7,277-455.3,277z"/> </g>
    </symbol>
    <symbol id="wfsclient_layer" viewBox="-467 269 24 24">
       <g> <path style="fill:#DCE8F3;" d="M-444,281.2c0.1,4.4-4.7,10.8-10.8,10.8c-6.1,0-11.5-6.5-11.2-10.9c0.4-6.1,4.8-11.1,10.9-11.1
		C-449,270.1-444.1,275-444,281.2z"/> <path style="fill:#B7CBE9;" d="M-452.4,289.5c0.6-1,1.5-2.3,2-4.1h3.1C-448.2,287.3-450.1,288.9-452.4,289.5z M-463,285.5h3.1
		c0.6,1.8,1.4,3.1,2,4.1C-460,288.9-461.9,287.3-463,285.5z M-463.8,278h3.5c-0.2,1-0.3,2.1-0.3,3s0.1,2,0.3,3h-3.5
		c-0.3-1-0.4-2.1-0.4-3S-464.1,279-463.8,278z M-457.7,272.3c-0.6,1-1.5,2.3-2.1,4.1h-3.2C-461.9,274.5-459.9,272.9-457.7,272.3z
		 M-447,276.4h-3.1c-0.6-1.8-1.4-3.1-2.1-4.1C-450.2,272.9-448.2,274.5-447,276.4z M-455,271.8c0,0,1.7,1.8,2.8,4.5h-5.7
		C-456.8,273.6-455,271.8-455,271.8z M-458.5,284c-0.2-1-0.3-2.1-0.3-3s0.1-2,0.3-3h6.7c0.2,1,0.3,2.1,0.3,3s-0.1,2-0.3,3H-458.5z
		 M-455,290L-455,290c-0.3-0.3-1.8-1.8-2.8-4.5h5.6C-453.2,288.2-454.8,289.7-455,290L-455,290z M-446.3,284h-3.5
		c0.2-1,0.3-2.1,0.3-3s-0.1-2-0.3-3h3.5c0.3,1,0.4,2.1,0.4,3S-446,283-446.3,284z M-444,281c0-6-5-11-11-11l0,0l0,0c-6,0-11,5-11,11
		c0,5.8,4.7,10.7,10.6,11c0.1,0,0.7,0,0.9,0C-448.7,291.7-444,286.9-444,281z"/> </g>
    </symbol>
    <symbol id="wfsserver_service" viewBox="-467 269 24 24">
       <g> <path style="fill:#DCE8F3;" d="M-444,282.2c0.1,4.4-4.7,10.8-10.8,10.8c-6.1,0-11.5-6.5-11.2-10.9c0.4-6.1,4.8-11.1,10.9-11.1
		C-449,271.1-444.1,276-444,282.2z"/> <path style="fill:#B7CBE9;" d="M-452.4,290.5c0.6-1,1.5-2.3,2-4.1h3.1C-448.2,288.3-450.1,289.9-452.4,290.5z M-463,286.4h3.1
		c0.6,1.8,1.4,3.1,2,4.1C-460,289.9-461.9,288.3-463,286.4z M-463.8,279h3.5c-0.2,1-0.3,2.1-0.3,3s0.1,2,0.3,3h-3.5
		c-0.3-1-0.4-2.1-0.4-3S-464.1,280-463.8,279z M-457.7,273.3c-0.6,1-1.5,2.3-2.1,4.1h-3.2C-461.9,275.5-459.9,273.9-457.7,273.3z
		 M-447,277.4h-3.1c-0.6-1.8-1.4-3.1-2.1-4.1C-450.2,273.9-448.2,275.5-447,277.4z M-455,272.8c0,0,1.7,1.8,2.8,4.5h-5.7
		C-456.8,274.6-455,272.8-455,272.8z M-458.5,285c-0.2-1-0.3-2.1-0.3-3s0.1-2,0.3-3h6.7c0.2,1,0.3,2.1,0.3,3s-0.1,2-0.3,3H-458.5z
		 M-455,291L-455,291c-0.3-0.3-1.8-1.8-2.8-4.5h5.6C-453.2,289.2-454.8,290.7-455,291L-455,291z M-446.3,285h-3.5
		c0.2-1,0.3-2.1,0.3-3s-0.1-2-0.3-3h3.5c0.3,1,0.4,2.1,0.4,3S-446,284-446.3,285z M-444,282c0-6-5-11-11-11l0,0l0,0c-6,0-11,5-11,11
		c0,5.8,4.7,10.7,10.6,11c0.1,0,0.7,0,0.9,0C-448.7,292.7-444,287.9-444,282z"/> </g> <polygon style="fill:#0DA06B;" points="-455.1,275 -460.6,269.1 -466.1,275 -463,275 -463,282.1 -458,282.1 -458,275 "/>
    </symbol>
    <symbol id="wmsclient_connection" viewBox="-467 269 24 24">
       <path style="fill:none;stroke:#B1B2B2;stroke-width:2;stroke-miterlimit:10;" d="M-461,283v4.3c0,1.1,1.4,1.7,2.5,1.7h4.5"/> <path style="fill:#DCE8F3;" d="M-459.1,284c0-4.4,3.6-8,8-8s8,3.6,8,8s-3.6,8-8,8S-459.1,288.4-459.1,284"/> <path style="fill:#B1B2B2;" d="M-462,276.4c0,0.3-0.6,0.7-1,0.7l0,0c-0.4,0-1-0.3-1-0.7v-4.8c0-0.3,0.6-0.7,1-0.7l0,0
	c0.4,0,1,0.3,1,0.7"/> <path style="fill:#B1B2B2;" d="M-457,276.4c0,0.3-0.6,0.7-1,0.7l0,0c-0.4,0-1-0.3-1-0.7v-4.8c0-0.3,0.6-0.7,1-0.7l0,0
	c0.4,0,1,0.3,1,0.7V276.4z"/> <path style="fill:#FFCA28;" d="M-466,276v3.8c0,2.8,2.7,5.2,5.5,5.2l0,0c2.8,0,5.5-2.3,5.5-5.2v-3.5c0-0.4-0.8-1.3-1.2-1.3h-9
	C-465.4,275-466,275.6-466,276z"/> <rect x="-466" y="276" style="opacity:0.18;enable-background:new    ;" width="11" height="2"/> <path style="fill:#FFCA28;" d="M-455.3,277h-10.8c-0.6,0-0.9-0.5-0.9-1l0,0c0-0.5,0.3-1,0.9-1h10.9c0.5,0,0.9,0.5,0.9,1l0,0
	C-454.3,276.4-454.7,277-455.3,277z"/> <g> <path style="opacity:0.75;fill:#81B0DC;enable-background:new    ;" d="M-454,288.4c-0.3-0.3-0.5-0.2-1-0.4
		c-0.4-0.2-0.4-0.5-0.4-0.9c-0.1-0.4-0.2-0.3-0.4-0.4c-0.2-0.2-0.2-0.3-0.2-0.4c-0.1-0.2-0.2-0.2-0.6-0.3s-0.4,0-0.9-0.4
		c-0.4-0.2-0.4-0.1-1.5-0.6c0.2,2.3,1.5,4.5,3.5,5.6c0.4-0.6,1.6-1.4,1.7-1.5C-453.5,289.1-453.8,288.6-454,288.4"/> <path style="opacity:0.75;fill:#81B0DC;enable-background:new    ;" d="M-446.3,287.4c-0.3-0.2-0.5-0.4-1-0.7
		c-0.5-0.3-0.2-0.9,0.1-1.6c0.2-0.7-1.2-1.2-1.8-1.3c-0.6-0.2-1.2-0.4-2-0.5c-0.6-0.1-0.8,0.1-1.1,0.4c-0.4,0.5-1.2,0.4-1.3,1
		c-0.2,0.4-0.4,1.1,0.8,1.6c1.2,0.5,1.6,0.4,1.8,1.3c0.2,1-0.7,2.6,0.1,3.4c0.8,0.9,2.8-0.9,3.1-1.2c0.4-0.4,1-1.2,1.3-1.6
		C-445.8,287.6-446,287.5-446.3,287.4z"/> <path style="opacity:0.75;fill:#81B0DC;enable-background:new    ;" d="M-445.3,278.5c-0.4,0.2-1,0.6-1.6,0.7
		c-0.7,0.2-1.5,0.2-1.4,0.7c0.1,0.4-0.2,0.9,0.2,1.1c0.2,0.1,0.4-0.1,0.6-0.2c0.2-0.2,0.4,0.5-0.4,0.5c-1.8,0.2,0.4,0.4-1.2,0.1
		c-0.5-0.2-0.4,0.2-0.5,0.5c-0.1,0.4-0.4-0.2-0.4-0.4c-0.1-0.4-0.1-0.4-0.4-0.6c-0.6-0.2-1.8,0.2-1,0.8c0.8,0.7,0.9,1,1.2,1
		c0.4,0.1,0.4-0.2,1-0.1c0.5,0.1,1,0.7,1.3,0.8c0.4,0.2,1.2,0.4,1.5,0.7c0.3,0.4,0.5,1.5,0.7,2c0.2,0.5,1.2,1.3,1.6,0.7
		c0.4-0.7,0.3-1.1,0.8-1.1C-442.5,282.4-444.2,279.6-445.3,278.5"/> <path style="opacity:0.75;fill:#81B0DC;enable-background:new    ;" d="M-454.1,276.6c0,0,0.5,1.5,0.6,1.6c0.3,0.3,0.8,0.6,0.9,0.6
		c0,0.1,0.3-0.3,0.2-0.7s0.3-0.5,0.4-0.7c0.2-0.2,1.1-0.3,1.3-0.4c0.3-0.2,0.5-0.3-0.3-1C-451.9,276-452.8,276.1-454.1,276.6"/> </g>
    </symbol>
    <symbol id="wmsclient_layer" viewBox="-467 269 24 24">
       <g> <circle style="fill:#DCE8F3;" cx="-455" cy="281" r="11"/> <path style="fill:#81B0DC;" d="M-459.2,287.1c-0.4-0.4-0.7-0.3-1.4-0.5c-0.6-0.2-0.5-0.7-0.6-1.2c-0.1-0.5-0.3-0.4-0.5-0.5
		c-0.2-0.2-0.2-0.4-0.2-0.5c-0.1-0.2-0.2-0.3-0.8-0.4c-0.6-0.1-0.5,0-1.2-0.5c-0.5-0.3-1.7-0.9-2-1.4c0.1,2.9,2.2,6.4,4.9,8.1
		c0.6-0.8,2-1.7,2.2-1.9C-458.5,288.1-458.9,287.4-459.2,287.1"/> <path style="fill:#81B0DC;" d="M-448.6,285.5c-0.4-0.2-0.7-0.5-1.4-0.9c-0.5-0.4-0.2-1.2,0.1-2.2c0.3-0.9-1.6-1.6-2.3-1.8
		c-0.8-0.3-1.6-0.6-2.6-0.7c-0.8-0.1-1.1,0.1-1.5,0.5c-0.5,0.7-1.6,0.6-1.8,1.3c-0.2,0.6-0.5,1.5,1.1,2.2c1.6,0.7,2.1,0.6,2.4,1.8
		c0.3,1.3-1,3.5,0.1,4.7c1.1,1.2,3.7-1.2,4.1-1.7c0.5-0.5,1.4-1.7,1.8-2.2C-448,285.9-448.2,285.7-448.6,285.5"/> <path style="fill:#81B0DC;" d="M-447.2,273.2c-0.5,0.3-1.3,0.8-2.1,1c-1,0.2-2,0.3-1.9,0.9c0.1,0.5-0.3,1.2,0.3,1.5
		c0.2,0.1,0.6-0.1,0.8-0.3c0.1-0.3,0.4,0.7-0.6,0.7c-0.8,0.1-1.3,0.2-1.7,0.1c-0.8-0.2-0.7,0.2-0.8,0.8c-0.1,0.5-0.5-0.3-0.6-0.6
		c-0.1-0.5-0.1-0.6-0.6-0.8c-0.8-0.3-2.5,0.2-1.3,1.1c1.1,0.9,1.2,1.3,1.6,1.4c0.5,0.1,0.6-0.2,1.4-0.1c0.7,0.1,1.4,0.9,1.8,1.1
		c0.5,0.2,1.7,0.5,2.1,0.9c0.4,0.5,0.7,2,1,2.7c0.3,0.7,1.6,1.8,2.2,0.9c0.5-1,0.7-1.6,1.4-1.6
		C-443.4,278.5-445.5,274.9-447.2,273.2"/> </g> <path style="fill:#81B0DC;" d="M-458.6,273c0.5,0.5,1.3,0.9,1.4,1c0,0.1,0.4-0.4,0.2-1.1c-0.2-0.6,0.2-0.7,0.5-0.9s1.5-0.3,1.8-0.5
	c0.4-0.2,0.9-0.5-0.2-1.5c-1.4,0-2.8,0.3-4.1,0.7c0.1,0.3,0.2,0.5-0.1,1C-459.4,272.4-459.2,272.7-458.6,273"/> <path style="fill:#81B0DC;" d="M-464,280.8c0.4-0.5,0.3-0.9,0.7-1.3c0.5-0.4,1.3-0.6,1.6-1c0.5-0.3,0.7-0.4,0.5-0.6
	c-0.2-0.3-0.3-0.4-0.2-0.4c0.1-0.1,0.4-0.3,0.4-0.3c0.1,0.1,0.3,0.5,0.5,0.7c0.3,0.2,0.5,0.2,0.4-1c-0.1-1.1-1.2-1.3-1.8-1.8
	c-0.3-0.3-1.3-1-1.6-1.1c-1.4,1.6-2.2,3.5-2.5,5.7c0.1,0.1,0.8,0.7,0.9,0.8C-464.6,280.9-464.4,281.3-464,280.8"/>
    </symbol>
    <symbol id="wmsserver_service" viewBox="-467 269 24 24">
       <g> <circle style="fill:#DCE8F3;" cx="-455" cy="282" r="11"/> <path style="fill:#81B0DC;" d="M-459.2,288.1c-0.4-0.4-0.7-0.3-1.4-0.5c-0.6-0.2-0.5-0.7-0.6-1.2c-0.1-0.5-0.3-0.4-0.5-0.5
		c-0.2-0.2-0.2-0.4-0.2-0.5c-0.1-0.2-0.2-0.3-0.8-0.4c-0.6-0.1-0.5,0-1.2-0.5c-0.5-0.3-1.7-0.9-2-1.4c0.1,2.9,2.2,6.4,4.9,8.1
		c0.6-0.8,2-1.7,2.2-1.9C-458.5,289.1-458.9,288.4-459.2,288.1"/> <path style="fill:#81B0DC;" d="M-448.6,286.5c-0.4-0.2-0.7-0.5-1.4-0.9c-0.5-0.4-0.2-1.2,0.1-2.2c0.3-0.9-1.6-1.6-2.3-1.8
		c-0.8-0.3-1.6-0.6-2.6-0.7c-0.8-0.1-1.1,0.1-1.5,0.5c-0.5,0.7-1.6,0.6-1.8,1.3c-0.2,0.6-0.5,1.5,1.1,2.2c1.6,0.7,2.1,0.6,2.4,1.8
		c0.3,1.3-1,3.5,0.1,4.7c1.1,1.2,3.7-1.2,4.1-1.7c0.5-0.5,1.4-1.7,1.8-2.2C-448,286.9-448.2,286.7-448.6,286.5"/> <path style="fill:#81B0DC;" d="M-447.2,274.2c-0.5,0.3-1.3,0.8-2.1,1c-1,0.2-2,0.3-1.9,0.9c0.1,0.5-0.3,1.2,0.3,1.5
		c0.2,0.1,0.6-0.1,0.8-0.3c0.1-0.3,0.4,0.7-0.6,0.7c-0.8,0.1-1.3,0.2-1.7,0.1c-0.8-0.2-0.7,0.2-0.8,0.8c-0.1,0.5-0.5-0.3-0.6-0.6
		c-0.1-0.5-0.1-0.6-0.6-0.8c-0.8-0.3-2.5,0.2-1.3,1.1c1.1,0.9,1.2,1.3,1.6,1.4c0.5,0.1,0.6-0.2,1.4-0.1c0.7,0.1,1.4,0.9,1.8,1.1
		c0.5,0.2,1.7,0.5,2.1,0.9c0.4,0.5,0.7,2,1,2.7c0.3,0.7,1.6,1.8,2.2,0.9c0.5-1,0.7-1.6,1.4-1.6
		C-443.4,279.5-445.5,275.9-447.2,274.2"/> <polygon style="fill:#0DA06B;" points="-455.1,275 -460.6,269.1 -466.1,275 -463,275 -463,282.1 -458,282.1 -458,275 	"/> </g>
    </symbol>
	<symbol id="basemap_layer" viewBox="0 0 24 24">
	<g><path class="st0" d="M3.6,22h5.7c0.9,0,1.6-0.7,1.6-1.6v-5.7c0-0.4-0.2-0.8-0.5-1.1l-8,8C2.8,21.8,3.2,22,3.6,22z" style="fill:#04c172"/> <path class="st0" d="M20.4,13.1h-5.7c-0.9,0-1.6,0.7-1.6,1.6v5.7c0,0.9,0.7,1.6,1.6,1.6h5.7c0.9,0,1.6-0.7,1.6-1.6v-5.7C22,13.8,21.3,13.1,20.4,13.1z" style="fill:#04c172"/> <path class="st1" d="M3.6,10.9h5.7c0.9,0,1.6-0.7,1.6-1.6V3.6c0-0.9-0.7-1.6-1.6-1.6H3.6C2.7,2,2,2.7,2,3.6v5.7C2,10.2,2.7,10.9,3.6,10.9z" style="fill:#74DE8E"/> <path class="st1" d="M3.6,13.1c-0.9,0-1.6,0.7-1.6,1.6v5.7c0,0.4,0.2,0.8,0.5,1.1l8-8c-0.3-0.3-0.7-0.5-1.1-0.5H3.6z" style="fill:#74DE8E"/> <path class="st0" d="M13.6,10.4c0.3,0.3,0.7,0.5,1.1,0.5h5.7c0.9,0,1.6-0.7,1.6-1.6V3.6c0-0.4-0.2-0.8-0.5-1.1L13.6,10.4z" style="fill:#04c172"/> <path class="st1" d="M20.4,2h-5.7c-0.9,0-1.6,0.7-1.6,1.6v5.7c0,0.4,0.2,0.8,0.5,1.1l8-8C21.2,2.2,20.8,2,20.4,2z" style="fill:#74DE8E"/></g>
    </symbol>
    <symbol id="gplus" viewBox="0 0 4335 4335">
        <path fill="#E1584B" d="M734 17l2873 0c386,0 701,316 701,701l0 2873c0,386 -316,701 -701,701l-2873 0c-386,0 -701,-316 -701,-701l0 -2873c0,-386 316,-701 701,-701z"/>
        <path fill="#FFFEFE" d="M1783 2448c72,-6 140,-18 184,13 102,72 286,191 303,320 18,140 -69,225 -141,271 -261,165 -842,42 -839,-260 2,-254 248,-324 494,-344zm-117 -1267c371,-69 642,693 219,791 -408,95 -640,-713 -219,-791zm106 874c-22,79 -59,121 16,242 13,21 38,45 44,62 -286,12 -694,78 -796,369 -41,116 -12,226 47,308 225,309 1126,314 1352,-155 195,-405 -311,-607 -382,-705 -118,-162 196,-241 286,-446 84,-191 -11,-452 -160,-543 37,-4 82,-2 120,-1 85,1 70,-11 173,-75 20,-12 56,-38 73,-46 -52,-11 -652,-5 -734,1 -108,8 -213,28 -305,65 -107,42 -159,82 -221,149 -180,193 -227,811 487,777z"/>
        <path fill="#FFFEFE" d="M2862 2045l-356 0 -1 112 353 0 4 326 114 0 1 -325 344 0 0 -112 -344 0c-3,-57 -8,-281 3,-328l-119 -1 0 329z"/>
    </symbol>
    <symbol id="fb" viewBox="0 0 4335 4335">
        <path fill="#3A5BA2" d="M732 18l2867 0c385,0 700,315 700,700l0 2867c0,385 -315,700 -700,700l-2867 0c-385,0 -700,-315 -700,-700l0 -2867c0,-385 315,-700 700,-700z"/><path fill="#FEFEFE" d="M2793 1775l0 502 -376 0 0 1129 -502 0 0 -1129 -376 0 0 -502 345 0 0 -439c0,0 31,-439 470,-439 439,0 439,0 439,0l0 502 -220 0c0,0 -157,-31 -157,188 0,220 0,188 0,188l376 0z"/>
    </symbol>
    <symbol id="vk" viewBox="0 0 4335 4335">
        <path fill="#356396" d="M736 18l2884 0c387,0 704,317 704,704l0 2884c0,387 -317,704 -704,704l-2884 0c-387,0 -704,-317 -704,-704l0 -2884c0,-387 317,-704 704,-704z"/><path fill="#FEFEFE" fill-rule="nonzero" d="M2960 2542c0,97 -18,182 -55,256 -37,73 -86,134 -148,182 -74,57 -155,99 -242,123 -88,25 -200,37 -336,37l-783 0 0 -1954 691 0c144,0 253,5 326,17 74,11 144,34 209,69 70,38 122,88 157,151 35,63 52,136 52,218 0,95 -24,180 -72,254 -47,74 -114,129 -198,164l0 11c121,26 217,77 289,155 73,78 109,184 109,317zm-629 -804c0,-31 -8,-64 -24,-97 -16,-33 -41,-57 -76,-72 -32,-14 -70,-22 -115,-23 -44,-1 -110,-2 -198,-2l-34 0 0 414 62 0c84,0 142,-1 176,-3 34,-2 68,-11 104,-28 39,-18 66,-43 81,-76 15,-32 22,-70 22,-113zm124 796c0,-61 -12,-107 -37,-142 -25,-34 -61,-60 -110,-77 -30,-12 -71,-18 -123,-19 -52,-1 -122,-2 -210,-2l-90 0 0 489 26 0c128,0 216,-1 265,-3 49,-2 99,-13 150,-35 44,-19 77,-47 98,-85 21,-37 31,-79 31,-126z"/>
    </symbol>
    <symbol id="twitter" viewBox="0 0 4335 4335">
        <path fill="#1EBEF0" d="M735 18l2878 0c386,0 703,316 703,703l0 2878c0,386 -316,703 -703,703l-2878 0c-386,0 -703,-316 -703,-703l0 -2878c0,-386 316,-703 703,-703z"/><path fill="#FEFEFE" d="M3354 1422c0,0 -29,117 -146,204 -117,87 -146,117 -146,117 0,0 146,554 -408,1049 -553,495 -1340,320 -1398,291 -58,-29 -262,-146 -262,-146 0,0 320,-58 466,-117 146,-58 204,-117 204,-117 0,0 -233,-29 -320,-87 -87,-58 -146,-233 -146,-233l233 0c0,0 -175,-87 -262,-204 -87,-117 -87,-291 -87,-291l146 29c0,0 -175,-175 -146,-408 29,-233 58,-262 58,-262 0,0 204,408 583,466 379,58 408,58 408,58 -123,-817 911,-607 845,-408 0,0 233,-117 262,-175 29,-58 -58,262 -58,262l175 -29z"/>
    </symbol>
    <symbol id="lookup_table" viewBox="0 0 24 24">
        <polygon fill="#81B0DC" points="2,0 4,2 6,0 8,2 10,0 12,2 14,0 16,2 18,0 20,2 22,0 22,24 20,22 18,24 16,22 14,24 12,22 10,24 8,22
		6,24 4,22 2,24 	"/>
        <line stroke="#E6F4FC" stroke-miterlimit="10" x1="13" y1="5.5" x2="19" y2="5.5"/>
        <line stroke="#E6F4FC" stroke-miterlimit="10" x1="5" y1="5.5" x2="11" y2="5.5"/>
        <line stroke="#E6F4FC" stroke-miterlimit="10" x1="13" y1="8.5" x2="19" y2="8.5"/>
        <line stroke="#E6F4FC" stroke-miterlimit="10" x1="5" y1="8.5" x2="11" y2="8.5"/>
        <line stroke="#E6F4FC" stroke-miterlimit="10" x1="13" y1="17.5" x2="17" y2="17.5"/>
        <line stroke="#E6F4FC" stroke-miterlimit="10" x1="5" y1="17.5" x2="11" y2="17.5"/>
        <line stroke="#E6F4FC" stroke-miterlimit="10" x1="13" y1="11.5" x2="19" y2="11.5"/>
        <line stroke="#E6F4FC" stroke-miterlimit="10" x1="5" y1="11.5" x2="11" y2="11.5"/>
        <line stroke="#E6F4FC" stroke-miterlimit="10" x1="13" y1="14.5" x2="19" y2="14.5"/>
        <line stroke="#E6F4FC" stroke-miterlimit="10" x1="5" y1="14.5" x2="11" y2="14.5"/>
    </symbol>
    <symbol id="trackers_group" viewBox="0 0 24 24">
        <path style="fill:#3498DB" d="M8.001,3.573L7.199,2.427C7.011,2.159,6.706,2,6.379,2H1C0.448,2,0,2.448,0,3v3h24V5c0-0.552-0.448-1-1-1H8.821
	C8.494,4,8.189,3.841,8.001,3.573z"/>
        <rect x="15.136" y="9" style="fill:#AEC8E0" width="1.364" height="15"/>
        <rect x="17.864" y="9" style="fill:#AEC8E0" width="1.364" height="15"/>
        <rect x="20.591" y="9" style="fill:#AEC8E0" width="1.364" height="15"/>
        <path style="fill:#3498DB" d="M23,21.955h-8.909c-0.552,0-1-0.448-1-1v-8.909c0-0.552,0.448-1,1-1H23c0.552,0,1,0.448,1,1v8.909
	C24,21.507,23.552,21.955,23,21.955z"/>
        <path style="fill:#FFFFFF" d="M18.545,13.091c-1.488,0-2.699,1.187-2.699,2.646c0,0.577,0.186,1.125,0.536,1.583l1.823,2.42
	c0.08,0.107,0.207,0.17,0.34,0.17s0.26-0.063,0.34-0.17l1.821-2.417c0.352-0.46,0.538-1.009,0.538-1.585
	C21.244,14.278,20.034,13.091,18.545,13.091z M18.545,16.909c-0.646,0-1.172-0.526-1.172-1.172c0-0.646,0.526-1.172,1.172-1.172
	c0.646,0,1.172,0.526,1.172,1.172C19.717,16.383,19.192,16.909,18.545,16.909z"/>
        <path style="fill:#68ACE0" d="M12.091,20.955v-8.909c0-1.103,0.897-2,2-2h0.045V9c0-0.552,0.448-1,1-1H16.5h1.364h1.364h1.364h1.364
	c0.552,0,1,0.448,1,1v1.045H23c0.366,0,0.705,0.106,1,0.278V7H0v14c0,0.552,0.448,1,1,1h11.394
	C12.205,21.695,12.091,21.339,12.091,20.955z"/>
    </symbol>
    <symbol id="tracker" viewBox="0 0 24 24">
        <rect x="6.833" style="fill:#AEC8E0" width="2" height="24"/>
        <rect x="10.833" style="fill:#AEC8E0" width="2" height="24"/>
        <rect x="14.833" style="fill:#AEC8E0" width="2" height="24"/>
        <path style="fill:#3498DB" d="M18.833,20h-14c-0.552,0-1-0.448-1-1V5c0-0.552,0.448-1,1-1h14c0.552,0,1,0.448,1,1v14
	C19.833,19.552,19.386,20,18.833,20z"/>
        <path style="fill:#FFFFFF" d="M11.833,7c-2.183,0-3.958,1.741-3.958,3.881c0,0.846,0.273,1.649,0.786,2.321l2.673,3.549
	C11.452,16.908,11.637,17,11.833,17s0.381-0.092,0.499-0.249l2.67-3.545c0.516-0.675,0.789-1.479,0.789-2.325
	C15.792,8.741,14.016,7,11.833,7z M11.833,12.6c-0.948,0-1.719-0.771-1.719-1.719s0.771-1.719,1.719-1.719s1.719,0.771,1.719,1.719
	S12.781,12.6,11.833,12.6z"/>
    </symbol>
    <symbol id="qgis_raster_style" viewBox="0 0 24 24">
        <path style="fill:#3498DB" d="M24,22.224v-5.327h-7.103V24h5.327C23.201,24,24,23.201,24,22.224z"/>
        <path style="fill:#00B066" d="M6.659,16.277C0.799,16.81,3.285,22.226,0,23.824c4.262,0.799,8.79-1.154,8.967-5.238
	C8.879,18.408,6.659,16.277,6.659,16.277z"/>
        <g>
            <path style="fill:#AEC8E0" d="M22.551,2.693c-0.444-0.355-0.888-0.089-0.888-0.089s-3.565,2.674-7.135,5.312
		c-0.228,2.069-1.307,3.889-2.493,5.159c0.22-0.126,0.465-0.316,0.716-0.603l1.675-1.912l0.077,2.541
		c0.014,0.466-0.05,0.896-0.156,1.302c0.847-0.928,1.713-1.991,2.61-3.187c2.664-3.64,5.682-7.636,5.682-7.636
		S22.907,3.137,22.551,2.693z"/>
            <path style="fill:#AEC8E0" d="M10.239,17.248c-0.662,0-1.247-0.102-1.745-0.291L9.5,17.964c0.571-0.169,1.143-0.446,1.717-0.807
		C10.902,17.215,10.575,17.248,10.239,17.248z"/>
        </g>
        <path style="fill:#3498DB" d="M14.079,9.794c-0.475,1.286-1.233,2.413-2.044,3.281c0.22-0.126,0.465-0.316,0.716-0.603l1.675-1.912
	l0.077,2.541c0.035,1.179-0.318,2.187-1.024,2.913c-0.366,0.378-0.833,0.673-1.361,0.882h4.779V9.794H14.079z"/>
        <path style="fill:#3498DB" d="M10.906,14.245c-0.297-0.074-0.297-0.445-0.297-0.445v-0.742c1.484-1.261,2.968-3.487,2.968-5.935
	c0-2.597-1.41-4.897-3.413-6.158C9.571,0.594,8.903,0.297,8.235,0.148C7.79,0.074,7.271,0,6.751,0C3.116,0,0.074,3.116,0,6.974
	c0,0.074,0,0.074,0,0.148c0,1.41,0.371,2.745,1.039,3.858c1.187,2.003,3.19,3.264,5.564,3.264c0.371,0,1.039-0.074,1.039-0.074
	v0.148c0,1.41,1.187,1.929,2.597,1.929s3.339-0.668,3.264-3.116C12.464,14.319,11.351,14.393,10.906,14.245z M7.568,10.09
	c0,0-0.074,1.484-0.074,2.893c0,0.371-0.594,0.594-0.964,0.594c-1.113,0-1.781-1.558-2.226-3.932c1.484-0.742,2.3-0.519,2.819-0.297
	S7.568,10.09,7.568,10.09z M9.2,9.422C7.271,8.235,4.822,8.903,4.229,9.274c0-0.223-0.074-0.445-0.074-0.594
	C4.081,8.161,4.081,7.642,4.081,7.122c0-1.632,0.223-3.19,0.594-4.303c0.445-1.335,1.187-2.226,2.003-2.226
	c0.223,0,0.445,0.074,0.668,0.223c0.594,0.371,1.039,1.113,1.41,2.077C9.126,4.006,9.348,5.49,9.348,7.122
	C9.348,7.939,9.274,8.68,9.2,9.422z"/>
        <path style="fill:#DCE8F3" d="M24,16.897h-7.103V9.794h5.327c0.977,0,1.776,0.799,1.776,1.776V16.897z"/>
        <path style="fill:#DCE8F3" d="M12.118,16.897c-0.568,0.225-1.206,0.351-1.879,0.351c-0.154,0-0.298-0.013-0.444-0.024v5
	c0,0.977,0.799,1.776,1.776,1.776h5.327v-7.103H12.118z"/>
    </symbol>
    <symbol id="collector_project" viewBox="0 0 24 24">
        <path style="fill:#3498DB"
              d="M14,24H2c-0.6,0-1-0.4-1-1V1c0-0.6,0.4-1,1-1h12c0.6,0,1,0.4,1,1v22C15,23.6,14.6,24,14,24z"/>
        <rect x="5" y="1" style="fill:#FFFFFF" width="6" height="1"/>
        <rect x="3" y="3" style="fill:#FFFFFF" width="10" height="17"/>
        <circle style="fill:#FFFFFF" cx="8" cy="22" r="1"/>
        <path style="fill:#DCE8F3"
              d="M22,24H12c-0.6,0-1-0.4-1-1V13c0-0.6,0.4-1,1-1h10c0.6,0,1,0.4,1,1v10C23,23.6,22.6,24,22,24z"/>
        <path style="fill:#00B066"
              d="M17,17.6c-1,0-2.8,1.2-2.8,3.1c0,2,2.1,0.5,2.8,0.5s2.8,1.4,2.8-0.5C19.8,18.8,18,17.6,17,17.6z"/>
        <path style="fill:#00B066" d="M18.668,14.261c-0.486-0.102-1,0.385-1.147,1.088c-0.147,0.703,0.128,1.355,0.614,1.457
	c0.487,0.102,1-0.385,1.147-1.088C19.43,15.016,19.155,14.363,18.668,14.261z"/>
        <path style="fill:#00B066" d="M20.594,16.538c-0.399-0.19-0.934,0.1-1.196,0.648s-0.151,1.147,0.248,1.337
	c0.399,0.19,0.934-0.1,1.196-0.648S20.993,16.728,20.594,16.538z"/>
        <path style="fill:#00B066" d="M16.487,15.422c-0.147-0.703-0.661-1.19-1.147-1.088c-0.486,0.102-0.761,0.754-0.614,1.457
	c0.147,0.703,0.661,1.19,1.147,1.088C16.359,16.777,16.634,16.125,16.487,15.422z"/>
        <path style="fill:#00B066" d="M14.62,17.14c-0.262-0.548-0.797-0.838-1.196-0.648c-0.399,0.19-0.51,0.789-0.248,1.337
	s0.797,0.838,1.196,0.648C14.771,18.287,14.882,17.688,14.62,17.14z"/>
    </symbol>
</svg>