<?xml version="1.0" encoding="UTF-8"?>
<svg width="580px" height="580px" enable-background="new 0 0 580 580" version="1.1" viewBox="0 0 580 580" xmlns="http://www.w3.org/2000/svg">
	<path d="m337.23 304.36v77.477c9.786-2.029 18.019-6.173 24.689-12.445 7.772-7.309 11.659-16.528 11.659-27.66 0-9.776-2.943-17.641-8.83-23.594-5.245-5.304-14.426-9.896-27.518-13.778z" fill="param(fill)" fill-opacity="param(fill-opacity)" opacity=".5"/>
	<path d="m401.65 116.07-158.96 1.519c-1.603 9.296-122.34 358.62-122.34 358.62l403.84-3.412-122.54-356.72zm-64.424 288.05v28.213c0 8.284-6.716 15-15 15s-15-6.716-15-15v-28.369c-20.077-2.749-35.751-8.892-46.991-18.452-12.459-10.6-19.49-25.434-21.09-44.504l30.864-4.646c2.4 14.326 7.259 25.36 14.575 33.104 5.931 6.278 13.479 10.361 22.642 12.249v-83.585c-19.88-4.348-35.041-11.005-45.447-19.992-11.545-9.97-17.318-22.796-17.318-38.478 0-15.584 5.716-28.966 17.147-40.146 10.314-10.088 25.532-16.32 45.619-18.725v-13.5c0-8.284 6.716-15 15-15s15 6.716 15 15v13.363c17.085 2.072 30.752 7.119 40.979 15.159 11.202 8.809 18.232 21.15 21.091 37.025l-32.064 3.92c-1.829-9.873-5.659-17.689-11.488-23.449-4.806-4.747-10.993-8.074-18.517-10.026v75.425c22.229 3.952 39.044 10.87 50.409 20.775 11.773 10.261 17.661 23.715 17.661 40.364 0 17.036-6.459 31.798-19.376 44.285-11.965 11.567-28.202 18.223-48.696 19.99z" fill="param(fill)" fill-opacity="param(fill-opacity)" opacity=".5"/>
	<path d="m275.33 237.63c0 9.971 3.429 17.835 10.288 23.595 5.53 4.645 12.737 8.422 21.613 11.335v-69.366c-9.246 2.224-16.565 6.031-21.957 11.423-6.629 6.631-9.944 14.302-9.944 23.013z" fill="param(fill)" fill-opacity="param(fill-opacity)" opacity=".5"/>
	<polygon points="236.75 136.36 197.5 136.36 58.5 522.5 510.5 517.5 498.5 473.01 120.36 476.21" fill="param(fill)" fill-opacity="param(fill-opacity)" opacity=".5"/>
	<path d="m337.23 304.36v77.477c9.786-2.029 18.019-6.173 24.689-12.445 7.772-7.309 11.659-16.528 11.659-27.66 0-9.776-2.943-17.641-8.83-23.594-5.245-5.304-14.426-9.896-27.518-13.778z" fill="none" stroke="param(outline)" stroke-miterlimit="10" stroke-opacity="param(outline-opacity)" stroke-width="param(outline-width)"/>
	<path d="m401.65 116.07-158.96 1.519c-1.603 9.296-122.34 358.62-122.34 358.62l403.84-3.412-122.54-356.72zm-64.424 288.05v28.213c0 8.284-6.716 15-15 15s-15-6.716-15-15v-28.369c-20.077-2.749-35.751-8.892-46.991-18.452-12.459-10.6-19.49-25.434-21.09-44.504l30.864-4.646c2.4 14.326 7.259 25.36 14.575 33.104 5.931 6.278 13.479 10.361 22.642 12.249v-83.585c-19.88-4.348-35.041-11.005-45.447-19.992-11.545-9.97-17.318-22.796-17.318-38.478 0-15.584 5.716-28.966 17.147-40.146 10.314-10.088 25.532-16.32 45.619-18.725v-13.5c0-8.284 6.716-15 15-15s15 6.716 15 15v13.363c17.085 2.072 30.752 7.119 40.979 15.159 11.202 8.809 18.232 21.15 21.091 37.025l-32.064 3.92c-1.829-9.873-5.659-17.689-11.488-23.449-4.806-4.747-10.993-8.074-18.517-10.026v75.425c22.229 3.952 39.044 10.87 50.409 20.775 11.773 10.261 17.661 23.715 17.661 40.364 0 17.036-6.459 31.798-19.376 44.285-11.965 11.567-28.202 18.223-48.696 19.99z" fill="none" stroke="param(outline)" stroke-miterlimit="10" stroke-opacity="param(outline-opacity)" stroke-width="param(outline-width)"/>
	<path d="m275.33 237.63c0 9.971 3.429 17.835 10.288 23.595 5.53 4.645 12.737 8.422 21.613 11.335v-69.366c-9.246 2.224-16.565 6.031-21.957 11.423-6.629 6.631-9.944 14.302-9.944 23.013z" fill="none" stroke="param(outline)" stroke-miterlimit="10" stroke-opacity="param(outline-opacity)" stroke-width="param(outline-width)"/>
	<polygon points="236.75 136.36 197.5 136.36 58.5 522.5 510.5 517.5 498.5 473.01 120.36 476.21" fill="none" stroke="param(outline)" stroke-miterlimit="10" stroke-opacity="param(outline-opacity)" stroke-width="param(outline-width)"/>
	<path d="m500.62 69.491h-400.64c-9.898 0-17.922 8.024-17.922 17.922v62.924c0 9.898 8.024 17.922 17.922 17.922h86.039l11.482-31.898h39.247l-7.45 21.753 1.751-0.021h-1.571c3.331-8.832 13.217-40.506 13.217-40.506l158.96-1.519 15.793 45.974c3.342 3.869 8.249 6.217 13.557 6.217h69.613c9.898 0 17.923-8.024 17.923-17.922v-62.924c0-9.898-8.024-17.922-17.923-17.922z" fill="param(fill)" fill-opacity="param(fill-opacity)" opacity=".75" stroke="param(outline)" stroke-opacity="param(outline-opacity)" stroke-width="param(outline-width)"/>
</svg>
