<?xml version="1.0" encoding="UTF-8"?>
<svg width="580px" height="580px" enable-background="new 0 0 580 580" version="1.1" viewBox="0 0 580 580" xmlns="http://www.w3.org/2000/svg">
	<g fill="param(fill)" fill-opacity="param(fill-opacity)" opacity=".5" stroke="param(outline)" stroke-opacity="param(outline-opacity)" stroke-width="param(outline-width)">
		<path d="m311.75 71.66v-1.16h-42.5v1.16h-179.51v157.81h403.81v-157.81h-181.8zm20.706 111.41c-2.273 4.266-5.18 7.828-8.719 10.688s-7.297 4.93-11.281 6.219-8.859 2.047-14.625 2.281v13.281h-10.25v-13.281c-6.891-0.609-12.492-1.727-16.781-3.344s-7.977-3.859-11.094-6.719-5.531-5.945-7.219-9.25-2.969-7.281-3.813-11.969l28.406-3.313c0.844 4.641 2.008 8 3.438 10.063s3.781 3.875 7.063 5.469v-24.813c-9.469-2.625-16.195-4.891-20.156-6.813-3.961-1.921-7.406-5.008-10.313-9.25-2.906-4.242-4.344-9.406-4.344-15.5 0-8.343 2.914-15.335 8.75-20.938 5.836-5.601 14.531-8.703 26.063-9.313v-13.564h10.25v13.566c10.5 0.657 18.539 3.157 24.094 7.469 5.555 4.313 9.156 10.219 10.844 17.719l-26.156 4.125c-1.313-3.328-2.477-5.617-3.531-6.906-1.055-1.289-2.813-2.593-5.25-3.906v20.313c14.25 3.797 23.781 7.813 28.563 12.031 6.328 5.672 9.469 12.875 9.469 21.594-2e-3 5.108-1.135 9.795-3.408 14.061z"/>
		<path d="m297.83 161.41v22.5c3.984-0.891 6.898-2.367 8.75-4.406s2.781-4.313 2.781-6.844c0-2.203-0.773-4.242-2.344-6.094s-4.64-3.563-9.187-5.156z"/>
		<path d="m281.3 118.38c-1.172 1.454-1.75 3.157-1.75 5.125 0 2.063 0.617 3.852 1.813 5.375 1.195 1.524 3.266 2.813 6.219 3.844v-18c-3.001 0.985-5.11 2.204-6.282 3.656z"/>
	</g>
	<g transform="matrix(48.15 0 0 48.15 -536.27 -33.307)" display="none" fill="none" stroke="#757575" stroke-width=".1">
		<rect x="1" y="1" width="10" height="10" display="inline"/>
		<rect x="2" y="2" width="8" height="8" display="inline"/>
	</g>
	<g fill="param(fill)" fill-opacity="param(fill-opacity)" stroke="param(outline)" stroke-opacity="param(outline-opacity)" stroke-width="param(outline-width)">
		<path d="m488 236.48h8.782c2.762 0 5-2.239 5-5v-164.25c0-2.761-2.238-5-5-5h-411.62c-2.761 0-5 2.239-5 5v164.25c0 2.761 2.239 5 5 5h298.87c-16.815 14.574-27.467 36.076-27.467 60.057 0 43.861 35.608 79.469 79.469 79.469s79.469-35.607 79.469-79.469c0-23.992-10.67-45.489-27.503-60.057zm-397.84-10v-154.25h401.62v154.25h-18.291c-11.164-5.98-23.914-9.38-37.457-9.38-0.686 0-1.382-0.017-2.063 0-12.787 0.324-24.814 3.694-35.416 9.38h-308.39zm378.72 116.34c-7.313 5.016-16.142 7.5-26.5 7.5-16.734 0-29.109-3.797-37.125-11.438s-12.906-16.172-14.688-25.594h-12.719l3.375-12.813h7.719c-0.094-0.703-0.125-1.938-0.125-3.719 0-1.875 0.031-3.25 0.125-4.094h-9.344l3.313-12.781h7.656c6.094-24.093 22.813-36.156 50.188-36.156 8.952 0 18.03 2.407 27.219 7.188l-6.313 25.531c-6.376-5.859-13.032-8.813-19.969-8.813-9.094 0-15.25 4.094-18.438 12.25h25.313l-3.031 12.781h-24.75c-0.094 0.938-0.125 2.313-0.125 4.094v3.719h26.156l-3.031 12.813h-21.313c2.766 8.766 8.766 13.125 18 13.125 10.124 0 19.593-3.281 28.406-9.844v26.251z"/>
		<path d="m158.37 281.15c-0.686 0-1.382-0.018-2.063 0-42.915 1.088-77.406 36.262-77.406 79.438 0 43.859 35.608 79.468 79.469 79.468 43.86 0 79.469-35.608 79.469-79.468 0-43.861-35.609-79.438-79.469-79.438zm29.375 125.91c-3.516 0.891-7.313 1.313-11.344 1.313-4.407 0-9.422-0.766-15.094-2.313-7.454-2.063-12.094-3.266-13.875-3.594-1.782-0.328-3.688-0.469-5.75-0.469-6.047 0-12.719 2.109-20.032 6.375l-9.094-19.969c9.844-7.078 14.781-14.141 14.781-21.219 0-0.375-0.063-1.422-0.156-3.156h-14.625v-16.813h10.5c-1.781-6.188-2.797-9.766-3.031-10.75-0.281-1.5-0.438-3.359-0.438-5.563 0-5.859 1.57-11.117 4.688-15.781s7.227-8.047 12.313-10.156c5.085-2.109 11.937-3.188 20.563-3.188 8.062 0 14.445 0.914 19.156 2.719 4.71 1.805 8.679 4.805 11.938 9 3.257 4.195 5.5 9.266 6.719 15.219l-26.844 4.219c-1.36-5.016-2.93-8.328-4.688-9.969s-3.75-2.469-6-2.469c-2.719 0-4.938 0.875-6.625 2.656-1.688 1.781-2.532 4.313-2.531 7.594 0 1.734 0.171 3.414 0.5 5.031 0.328 1.617 1.453 5.438 3.375 11.438h21.313v16.813h-18.844c-0.235 3.984-0.969 7.563-2.188 10.75-0.985 2.438-2.61 4.969-4.906 7.594 2.625-0.609 4.875-0.906 6.75-0.906 2.39 0 5.5 0.469 9.344 1.406 5.25 1.219 9.453 1.813 12.594 1.813 2.578 0 4.789-0.211 6.688-0.656 1.898-0.445 4.406-1.375 7.5-2.781l9.563 20.938c-4.642 2.342-8.705 3.983-12.22 4.874z"/>
		<path d="m320.69 380.44c-0.686 0-1.381-0.018-2.063 0-42.914 1.088-77.406 36.263-77.406 79.438 0 43.86 35.608 79.469 79.469 79.469s79.469-35.608 79.469-79.469-35.609-79.438-79.469-79.438zm43.906 78.437v15.531h-29.625v8.5h29.625v15.75h-29.625v18.844h-29.25v-18.844h-30.094v-15.75h30.094v-8.5h-30.094v-15.531h21.531l-25.25-44.438h32.125l16.125 35 15.875-35h32.219l-24.563 44.438h20.907z"/>
	</g>
</svg>
