<?xml version="1.0" encoding="UTF-8"?>
<svg width="580px" height="580px" enable-background="new 0 0 580 580" version="1.1" viewBox="0 0 580 580" xmlns="http://www.w3.org/2000/svg">
	<g transform="matrix(48.15 0 0 48.15 -536.27 -33.307)" display="none" fill="none" stroke="#757575" stroke-width=".1">
		<rect x="1" y="1" width="10" height="10" display="inline"/>
		<rect x="2" y="2" width="8" height="8" display="inline"/>
	</g>
	<path d="m310.51 331.18v105.21c12.192-3.161 24.725-8.354 32.715-15.865 10.904-10.253 16.435-23.382 16.436-39.022-1e-3 -13.7-4.16-24.853-12.361-33.146-5.599-5.661-17.699-11.317-36.79-17.176z" fill="param(fill)" fill-opacity="param(fill-opacity)" stroke="param(outline)" stroke-opacity="param(outline-opacity)" stroke-width="param(outline-width)"/>
	<path d="m545.06 217.95-252.06-191.91c-3.58-2.725-8.537-2.725-12.116 0l-252.06 191.91c-3.414 2.6-4.79 7.087-3.418 11.153 1.372 4.065 5.185 6.803 9.476 6.803h40.412v307.86c0 5.522 4.477 10 10 10h403.3c5.522 0 10-4.478 10-10v-307.86h40.412c4.291 0 8.104-2.738 9.476-6.803 1.371-4.066-4e-3 -8.554-3.418-11.153zm-164.52 226.52c-15.444 14.93-40.462 25.108-70.035 28.781v20.368c0 12.748-10.334 23.082-23.083 23.082-12.748 0-23.083-10.334-23.083-23.082v-19.837c-29.376-4.064-52.603-13.194-69.102-27.23-18.415-15.665-28.948-37.856-31.306-65.96-0.076-0.901 0.561-1.707 1.456-1.842l44.938-6.765c0.927-0.135 1.794 0.49 1.949 1.414 3.421 20.419 10.411 36.334 20.775 47.306 8.173 8.65 18.671 14.392 31.291 17.151v-118.18c-29.105-6.386-51.582-16.272-66.864-29.47-17.126-14.79-25.811-34.076-25.811-57.322 0-23.064 8.574-43.143 25.482-59.681 15.179-14.845 37.769-24.135 67.193-27.71v-14.184c0-12.748 10.334-23.083 23.083-23.083s23.083 10.334 23.083 23.083v14.968c24.945 3.773 45.847 11.331 58.669 21.413 16.574 13.033 27.117 31.522 31.335 54.954 0.084 0.465-0.027 0.943-0.308 1.323-0.28 0.38-0.705 0.628-1.174 0.686l-46.685 5.708c-0.9 0.103-1.731-0.5-1.896-1.392-2.585-13.957-8.051-25.138-16.246-33.233-5.76-5.69-15.268-9.573-23.695-12.087v105.83c32.655 6.504 58.154 16.739 72.467 29.21 17.453 15.211 26.303 35.42 26.303 60.065-2e-3 25.172-9.669 47.28-28.736 65.713z" fill="param(fill)" fill-opacity="param(fill-opacity)" stroke="param(outline)" stroke-opacity="param(outline-opacity)" stroke-width="param(outline-width)"/>
	<path d="m220.04 229.93c0 13.918 4.834 25.034 14.367 33.038 7.643 6.418 17.686 11.734 29.937 15.864v-97.154c-12.73 3.195-22.907 8.539-30.326 15.958-9.276 9.277-13.978 20.142-13.978 32.294z" fill="param(fill)" fill-opacity="param(fill-opacity)" stroke="param(outline)" stroke-opacity="param(outline-opacity)" stroke-width="param(outline-width)"/>
</svg>
