<?xml version="1.0" encoding="UTF-8"?>
<svg version="1.1" viewBox="0 0 19.469 19.469" xmlns="http://www.w3.org/2000/svg">
	<g>
		<path d="m3.6938 3.6938 2.2812 4 1.3438-0.375 0.34375-1.3125-3.9688-2.3125z" fill="param(fill)" fill-opacity=".5" stroke-linecap="square" stroke-width=".19956"/>
		<path d="m15.775 3.6938-4 2.2812 0.375 1.3438 1.3438 0.375 2.2812-4z" fill="param(fill)" fill-opacity=".5" stroke-linecap="square" stroke-width=".19956"/>
		<path d="m6.0062 11.806-2.3125 3.9688 3.9688-2.3125-0.34375-1.3125-1.3125-0.34375z" fill="param(fill)" fill-opacity=".5" stroke-linecap="square" stroke-width=".19956"/>
		<path d="m13.462 11.806-1.3125 0.34375-0.375 1.3438 4 2.2812-2.3125-3.9688z" fill="param(fill)" fill-opacity=".5" stroke-linecap="square" stroke-width=".19956"/>
		<path d="m9.7375 0.11875c-5.3109 0-9.6188 4.3079-9.6188 9.6188 0 5.3109 4.3079 9.6187 9.6188 9.6187 5.3109 0 9.6188-4.3079 9.6188-9.6187 0-5.3109-4.3079-9.6188-9.6188-9.6188zm0 19c-5.1825 0-9.3812-4.1987-9.3812-9.3812 0-5.1825 4.1987-9.3813 9.3812-9.3813 5.1825 0 9.3812 4.1987 9.3812 9.3813 0 5.1825-4.1987 9.3812-9.3812 9.3812" fill="param(fill)" fill-opacity="param(fill-opacity)" stroke="param(fill)" stroke-opacity="param(fill-opacity)" stroke-width=".2375" style="block-progression:tb;text-indent:0;text-transform:none"/>
		<path transform="matrix(.90762 0 0 .90807 -17.498 -14.436)" d="m40 26.62-7.8787 2.1213-2.1213 7.8787-2.1213-7.8787-7.8787-2.1213 7.8787-2.1213 2.1213-7.8787 2.1213 7.8787z" fill="param(fill) #000" fill-opacity="param(fill-opacity)" stroke="param(fill) #000" stroke-opacity="param(fill-opacity)"/>
	</g>
</svg>
