<?xml version="1.0" encoding="UTF-8"?>
<svg version="1.1" viewBox="0 0 22.03 21.745" xmlns="http://www.w3.org/2000/svg">
	<g transform="translate(1.6385 1.1018)">
		<path d="m5.1875 8.6758-4 1.0625 4 1.0625c-0.080816-0.34504-0.125-0.69276-0.125-1.0625 0-0.35905 0.048664-0.72662 0.125-1.0625z" fill="param(fill)" fill-opacity="param(fill-opacity)" stroke="param(fill)" stroke-linecap="square" stroke-width=".19956"/>
		<path d="m9.75 1.1875-1.0625 3.875c0.34304-0.077713 0.69601-0.125 1.0625-0.125 0.35687 0 0.6965 0.051204 1.0312 0.125l-1.0312-3.875z" fill="param(fill)" fill-opacity="param(fill-opacity)" stroke="param(fill)" stroke-linecap="square" stroke-width=".19956"/>
		<path d="m8.7109 14.406 1.0312 3.875 1-3.8438c-0.32242 0.06819-0.65732 0.125-1 0.125-0.35605 0-0.69722-0.08278-1.0312-0.15625z" fill="param(fill)" fill-opacity="param(fill-opacity)" stroke="param(fill)" stroke-linecap="square" stroke-width=".19956"/>
		<path d="m14.406 8.707c0.07347 0.33404 0.15625 0.6752 0.15625 1.0312 0 0.35687-0.08245 0.6965-0.15625 1.0313l3.875-1.0313-3.875-1.0312z" fill="param(fill)" fill-opacity="param(fill-opacity)" stroke="param(fill)" stroke-linecap="square" stroke-width=".19956"/>
		<path d="m9.7375 5.6289c-2.2685 0-4.1086 1.8401-4.1086 4.1086 0 2.2685 1.8401 4.1086 4.1086 4.1086 2.2685 0 4.1086-1.8401 4.1086-4.1086 0-2.2685-1.8401-4.1086-4.1086-4.1086z" color="#000000" fill="none" stroke="param(fill)" stroke-opacity="param(fill-opacity)" stroke-width=".42715" style="block-progression:tb;text-indent:0;text-transform:none"/>
		<text x="8.9161758" y="0.32985753" fill="#000000" font-family="OPEN SANS" font-size="40px" letter-spacing="0px" word-spacing="0px" style="line-height:125%" xml:space="preserve"><tspan x="8.9161758" y="0.32985753" font-family="arial black" font-size="2px">N</tspan></text>
		<text x="9.0205507" y="20.61916" fill="#000000" font-family="OPEN SANS" font-size="40px" letter-spacing="0px" word-spacing="0px" style="line-height:125%" xml:space="preserve"><tspan x="9.0205507" y="20.61916" font-family="arial black" font-size="2px">S</tspan></text>
		<text x="19.039063" y="10.454102" fill="#000000" font-family="OPEN SANS" font-size="40px" letter-spacing="0px" word-spacing="0px" style="line-height:125%" xml:space="preserve"><tspan x="19.039063" y="10.454102" font-family="arial black" font-size="2px">E</tspan></text>
		<text x="-1.6375005" y="10.454102" fill="#000000" font-family="OPEN SANS" font-size="40px" letter-spacing="0px" word-spacing="0px" style="line-height:125%" xml:space="preserve"><tspan x="-1.6375005" y="10.454102" font-family="arial black" font-size="2px">W</tspan></text>
	</g>
</svg>
