<?xml version="1.0" encoding="UTF-8"?>
<svg width="40" height="40" fill="#0000ff" version="1.1" viewBox="0 0 53.648 53.648" xmlns="http://www.w3.org/2000/svg">
	<g transform="translate(0 6.1481)" fill="#000">
		<path d="m30.97 27.577c1.0022 0 1.8016-0.81073 1.8016-1.8073s-0.8051-1.8072-1.8016-1.8072c-0.99652 0-1.8129 0.81073-1.8129 1.8072s0.81636 1.8073 1.8129 1.8073zm17.926 13.039c-10.72 0.15764-21.929-1.8861-30.504-8.7829-0.0563-0.05067-0.07882-0.11823-0.07882-0.19705 0-0.15764 0.12949-0.28713 0.28713-0.28713l8.4564 0.01127c0.40537 0 0.7488-0.3378 0.7488-0.7488 0-0.30965-0.14076-0.5236-0.47293-0.68687l-7.64-3.6483c-0.14075-0.09008-0.24209-0.24772-0.24209-0.42788 0-0.13512 0.0563-0.25898 0.14075-0.3547 0 0 9.3121-8.2312 29.305-8.051v23.173z"/>
		<path d="m44.814-0.42112c-6.6266 0.073186-13.107 2.8995-20.375 8.8617-0.27024-0.073197-0.86703-0.23646-0.86703-0.23646-1.1542 0-2.0944 0.93459-2.0944 2.0888 0 0 0.08445 0.38848 0.12949 0.63057-0.22521 0.20831-5.8722 5.5118-5.8722 5.5118l-4.9939 4.7067c-0.46729 0.42788-1.0753 0.64183-1.7115 0.61368-0.63057-0.028144-1.2105-0.30402-1.6327-0.77132-0.411-0.45604-0.60805-1.0247-0.60805-1.5933 0-0.64183 0.25898-1.2837 0.76569-1.751 0 0 0.37722-0.20831 0.66435-0.37159 0.061929 0.42789 0.23646 1.7341 0.23646 1.7341l4.0762-5.1909-4.4928 1.5314c-1.1823 0.40536-1.6721 1.0022-1.689 1.0303-1.644 1.492-1.7735 4.1043-0.25335 5.7877 1.5314 1.689 4.1437 1.8073 5.8328 0.2815l0.04505-0.0563 4.7349-4.5097s5.8496-5.5287 6.0354-5.7145c0.2815 0.07318 0.83325 0.21394 0.83325 0.21394 1.1485 0 2.0831-0.94023 2.0831-2.0944 0 0-0.0563-0.30402-0.09571-0.5236 7.032-5.7821 13.18-8.5296 19.339-8.5971 1.2668-0.011285 2.2802 0.15201 3.9411 0.50671l0.34344 0.073186v-1.644l-0.22521-0.045049c-1.7228-0.36032-2.8488-0.48981-4.1494-0.47292z"/>
	</g>
</svg>
