<?xml version="1.0" encoding="UTF-8"?>
<svg width="37.28" height="37.28" fill="blue" version="1.1" viewBox="0 0 50 50" xmlns="http://www.w3.org/2000/svg">
	<g transform="translate(0,2.5)">
		<g transform="matrix(.30041 0 0 .30041 87.998 -68.716)">
			<path d="m-174.99 339.51-26.233-30.368c-0.30107-0.47888-3.5465-5.7298-3.5465-9.7062 0-4.1295 3.4377-11.825 3.5043-11.973 0.0581-0.0507 0.11883-0.0967 0.17545-0.1501l22.1-21.116c2.3505-2.2299 2.4484-5.943 0.21851-8.2934l-0.44851-0.4724c-2.2299-2.3505-5.943-2.4487-8.2934-0.21879l-20.749 19.826c-0.40133-0.10321-0.81062-0.15835-1.2249-0.15835h-8.312l-16.232-22.358c-1.8731-2.6436-5.5346-3.2687-8.1781-1.396l-0.53136 0.37656c-2.6439 1.8728-3.2687 5.5343-1.396 8.1781l16.958 23.357v27.792l-13.351 37.308c-1.0916 3.0502 0.49657 6.4083 3.5468 7.4999l0.61335 0.21939c3.0505 1.0916 6.4083-0.49687 7.4999-3.5468l12.989-36.299h5.9544l25.565 29.594c2.1178 2.4516 5.8226 2.722 8.2742 0.6042l0.49304-0.4258c2.4513-2.1169 2.7217-5.8224 0.6042-8.2737z" fill="#000"/>
			<circle transform="matrix(.29488 0 0 .29488 -295.3 219.22)" cx="290.27" cy="286.27" r="245.24" d="m 535.505,286.271 c 0,135.44121 -109.79679,245.238 -245.238,245.238 -135.44121,0 -245.238008,-109.79679 -245.238008,-245.238 0,-135.44122 109.796798,-245.23801 245.238008,-245.23801 135.44121,0 245.238,109.79679 245.238,245.23801 z" fill="none" stroke="#000" stroke-width="15.14"/>
			<circle transform="matrix(.29488 0 0 .29488 -295.3 219.22)" cx="285.43" cy="143.93" r="35" d="m 320.427,143.92999 c 0,19.32997 -15.67003,35 -35,35 -19.32996,0 -35,-15.67003 -35,-35 0,-19.32996 15.67004,-35 35,-35 19.32997,0 35,15.67004 35,35 z" fill="#000"/>
		</g>
	</g>
</svg>
