<?xml version="1.0" encoding="UTF-8"?>
<svg width="37.28" height="37.28" fill="blue" version="1.1" viewBox="0 0 50 50" xmlns="http://www.w3.org/2000/svg">
	<g transform="translate(0,2.5)">
		<path d="m25.081 9.3447c-0.64857 3e-5 -1.216-0.24317-1.7024-0.72961-0.48643-0.48638-0.72964-1.072-0.72961-1.7569-2.6e-5 -0.64851 0.24318-1.2157 0.72961-1.7016 0.48639-0.48583 1.0539-0.72876 1.7024-0.72879 0.6848 3.5e-5 1.2701 0.24296 1.756 0.72879 0.48583 0.4859 0.72877 1.0531 0.72879 1.7016-2.5e-5 0.68486-0.24296 1.2705-0.72879 1.7569-0.48589 0.48644-1.0712 0.72964-1.756 0.72961zm18.479 13.237c-0.14405-0.86508-0.68432-1.2976-1.6208-1.2976-0.43314 1.5e-5 -0.82942 0.18029-1.1888 0.54082l-5.9985 5.6193c-0.43203 0.35946-0.64803 0.79146-0.64799 1.296-3.5e-5 0.86511 0.39624 1.4235 1.1888 1.6752l1.5136 0.48641c-0.75631 2.0534-1.963 3.8094-3.62 5.2681-1.6571 1.4587-3.5662 2.404-5.7273 2.836v-26.636c2.4128-1.0453 3.6192-2.8827 3.6192-5.5121-3.1e-5 -1.6202-0.58538-3.0157-1.756-4.1864-1.1707-1.1706-2.5843-1.756-4.2408-1.756-1.6214 4e-5 -3.0171 0.58538-4.1872 1.756-1.1702 1.1707-1.7552 2.5662-1.7552 4.1864-2e-5 2.6294 1.2245 4.4668 3.6736 5.5121v26.69c-2.1974-0.432-4.1606-1.3776-5.8897-2.8368-1.7291-1.4592-2.9718-3.2331-3.728-5.3217l1.5136-0.48641c0.79143-0.25172 1.1871-0.81012 1.1872-1.6752-2.1e-5 -0.46826-0.19788-0.90026-0.59358-1.296l-6.0513-5.6193c-0.36056-0.36053-0.75683-0.54081-1.1888-0.54082-0.93656 1.5e-5 -1.4768 0.43256-1.6208 1.2976l-1.296 8.1585c-0.03629 0.17918-0.05442 0.30504-0.05441 0.37758-5e-6 1.1531 0.59413 1.7296 1.7824 1.7296 0.18026 0 0.3424-0.01814 0.48641-0.05441l1.4048-0.48641c1.1531 3.4582 3.2152 6.2857 6.1865 8.4825 2.9712 2.1968 6.3299 3.2952 10.076 3.2952 3.7099-5e-6 7.0779-1.1163 10.104-3.3488 2.9173-2.1611 4.9525-4.9707 6.1057-8.4289l1.4048 0.48641c0.14395 0.03629 0.30609 0.05442 0.48641 0.05441 1.1882 0 1.7824-0.57655 1.7824-1.7296-5e-5 -0.07255-0.01819-0.19841-0.05441-0.37758l-1.296-8.1585z" fill="#00f"/>
	</g>
</svg>
