<?xml version="1.0" encoding="UTF-8"?>
<!DOCTYPE svg  PUBLIC '-//W3C//DTD SVG 20010904//EN'  'http://www.w3.org/TR/2001/REC-SVG-20010904/DTD/svg10.dtd'>
<svg width="84pt" height="84pt" version="1.0" viewBox="0 0 84 84" xmlns="http://www.w3.org/2000/svg">
	<g transform="translate(0 84) scale(.1 -.1)">
		<path d="m695 801c-3-6-18-11-33-11-35-1-70-30-126-107-25-35-52-63-60-63-7 0-26-10-41-22-27-21-29-21-75-5-26 9-72 17-102 17-45 0-59-4-78-25-13-14-31-25-41-25s-26-11-37-25c-24-31-60-172-69-270-6-73-5-75 16-75 20 0 22-4 16-30-4-16-4-39 0-50 6-18 13-21 53-18 52 3 67 25 37 58-14 16-14 18 0 23 9 4 15 19 15 40 0 29 6 39 40 61 36 24 40 25 40 8 0-11 15-39 34-64 19-24 36-58 38-74 2-21 9-30 25-32 68-10 85 61 31 129l-31 39 21 23c12 13 22 29 22 35 0 8 21 12 63 12h63l13-60c8-34 11-80 8-105-10-67 7-95 56-95 39 0 39 0 33 33-17 81-17 105-2 135 9 17 16 42 16 57 0 22 4 25 39 25 39 0 65-25 41-40-6-4-10-22-8-41 2-29 7-35 30-37 37-4 68 14 68 41 0 12-6 42-14 67s-18 59-23 75c-7 25-14 30-45 33-42 4-48 16-48 111v65l28-27c28-27 84-37 96-18 11 17-24 145-51 189-29 47-47 60-58 43zm-548-438c-3-10-5-4-5 12 0 17 2 24 5 18 2-7 2-21 0-30z"/>
	</g>
</svg>
