<?xml version="1.0" encoding="UTF-8"?>
<!DOCTYPE svg  PUBLIC '-//W3C//DTD SVG 20010904//EN'  'http://www.w3.org/TR/2001/REC-SVG-20010904/DTD/svg10.dtd'>
<svg width="84pt" height="84pt" version="1.0" viewBox="0 0 84 84" xmlns="http://www.w3.org/2000/svg">
	<g transform="translate(0 84) scale(.1 -.1)">
		<path d="m640 635c-30-22-44-25-122-25-70 0-97-4-129-21-34-17-46-18-71-10-17 6-79 11-138 11h-106l-32-33c-31-32-32-35-32-127 0-98 8-127 31-118 11 4 14-9 14-61v-66l82-2c45-2 84 1 87 6s-1 22-9 37c-8 16-15 40-15 53 0 23 0 23 82 16 46-4 84-8 86-10 1-1-3-14-9-28-10-22-9-31 5-52 15-23 22-25 92-25h76l-14 118 49 61c46 59 82 77 98 51 9-15 51-12 65 5 11 13 11 27 0 73-6 31-19 65-27 74-13 15-13 20 3 48 16 27 17 32 4 40-23 15-33 12-70-15z"/>
		<path d="m614 322c4-38 10-82 15-98 7-29 8-29 94-32s87-3 97 24c6 15 13 60 17 100l6 74h-118-118l7-68z"/>
	</g>
</svg>
