<?xml version="1.0" encoding="UTF-8"?>
<!DOCTYPE svg  PUBLIC '-//W3C//DTD SVG 20010904//EN'  'http://www.w3.org/TR/2001/REC-SVG-20010904/DTD/svg10.dtd'>
<svg width="84pt" height="84pt" version="1.0" viewBox="0 0 84 84" xmlns="http://www.w3.org/2000/svg">
	<g transform="translate(0 84) scale(.1 -.1)">
		<path d="m480 806c-6-8-26-16-43-18-24-2-33-8-35-25-4-30 43-131 79-169l30-31-17-42c-16-42-18-43-53-36-20 4-70 9-111 12-72 4-77 3-118-27-47-34-92-119-92-175 0-28-5-35-30-44-27-9-30-14-30-54 0-32 8-53 31-85l31-42h184 184v30c0 40 27 40 65 0 26-28 34-30 97-30 62 0 68 2 68 21 0 11-9 32-20 46-25 32-25 49 0 114 14 33 19 62 15 81-6 26-4 28 22 28 18 0 38 9 52 24 20 21 22 31 16 68-8 46-77 148-101 148-8 0-28 30-45 66-25 53-42 74-91 110-67 49-70 50-88 30z"/>
	</g>
</svg>
