<?xml version="1.0" encoding="UTF-8"?>
<!DOCTYPE svg  PUBLIC '-//W3C//DTD SVG 20010904//EN'  'http://www.w3.org/TR/2001/REC-SVG-20010904/DTD/svg10.dtd'>
<svg width="84pt" height="84pt" version="1.0" viewBox="0 0 84 84" xmlns="http://www.w3.org/2000/svg">
	<g transform="translate(0 84) scale(.1 -.1)">
		<path d="m190 750c-6-12-9-33-6-46 4-15 2-24-5-24-19 0-69-41-69-56 0-9 11-14 35-14 19 0 35-4 35-8s-18-26-40-47c-33-32-40-46-40-77 0-45 36-112 97-185 36-42 57-56 109-75 35-12 64-28 64-35 0-6-13-21-30-33-16-12-30-26-30-31s47-9 105-9h106l-7 50c-6 47-5 50 21 60 15 6 44 9 63 8 35-3 36-2 59 57 57 144 66 264 30 385-21 73-100 105-206 84-23-5-38-19-61-55-16-27-27-55-24-64 4-9 0-15-9-15s-21-2-29-5c-10-4-12 6-10 42 3 42 0 51-25 75-19 19-44 30-75 34-41 6-47 4-58-16zm94-195c-14-19-29-35-31-35-5 0 7 18 36 53 26 31 23 18-5-18z"/>
	</g>
</svg>
