<?xml version="1.0" encoding="UTF-8"?>
<!DOCTYPE svg  PUBLIC '-//W3C//DTD SVG 20010904//EN'  'http://www.w3.org/TR/2001/REC-SVG-20010904/DTD/svg10.dtd'>
<svg width="84pt" height="84pt" version="1.0" viewBox="0 0 84 84" xmlns="http://www.w3.org/2000/svg">
	<g transform="translate(0 84) scale(.1 -.1)">
		<path d="m291 774c-13-17-21-41-21-66 0-36-1-38-20-28-12 6-38 10-58 8-30-2-38-7-40-26-2-13 2-37 8-53 17-39 101-109 132-109h25l-36-69-35-69 26-61 27-61h-59c-55 0-59 2-91 39-19 21-42 51-52 66-14 19-26 25-45 23-27-3-27-4-30-86l-3-83 86-98 66-1c62 0 67 2 99 35 19 19 39 35 45 35 5 0 21-18 35-41 50-82 147-101 275-53 41 16 85 41 108 62 31 30 37 43 37 78 0 37-4 44-38 68-64 44-93 34-160-51-31-40-37-43-83-43-57 0-142 37-134 58 3 7 5 18 5 23s17 9 37 9c21 0 73 12 116 28 73 25 83 32 128 89 43 54 57 64 105 78l55 16-3 102c-3 101-3 102-29 105-19 2-45-12-96-52l-69-54-81-4c-89-3-88-5-35 53 17 19 23 36 20 60-3 31-6 34-40 37-29 3-43-2-63-22l-25-25v39c0 34-4 42-30 55-37 19-35 20-59-11zm199-352c0-5-17-16-37-26-41-19-39-13 4 15 34 21 33 21 33 11z"/>
	</g>
</svg>
