<?xml version="1.0" encoding="UTF-8"?>
<!DOCTYPE svg  PUBLIC '-//W3C//DTD SVG 20010904//EN'  'http://www.w3.org/TR/2001/REC-SVG-20010904/DTD/svg10.dtd'>
<svg width="84pt" height="84pt" version="1.0" viewBox="0 0 84 84" xmlns="http://www.w3.org/2000/svg">
	<g transform="translate(0 84) scale(.1 -.1)">
		<path d="m326 728c-27-65-29-96-8-125 16-23 20-51 24-158 3-72 9-139 13-150 5-13-9-4-36 22-25 24-52 43-60 43-27 0-61-45-57-76 2-25 7-29 30-27 21 1 35-8 63-42l36-44-266-6-3-43-3-42h345 346v39c0 26-5 41-16 45-9 3-61 6-117 6h-100l21 23c62 66 96 232 47 232-16 0-32-24-73-109-29-60-54-107-56-105-10 10 61 278 82 311 22 35 22 39 8 67-20 38-31 44-56 31-16-9-20-21-20-63 0-72-50-284-62-263-5 9-12 72-15 140-5 103-3 132 12 173 16 44 16 54 3 98-12 43-17 50-41 53-23 3-30-2-41-30z"/>
	</g>
</svg>
