<?xml version="1.0" encoding="UTF-8"?>
<!DOCTYPE svg  PUBLIC '-//W3C//DTD SVG 20010904//EN'  'http://www.w3.org/TR/2001/REC-SVG-20010904/DTD/svg10.dtd'>
<svg width="84pt" height="84pt" version="1.0" viewBox="0 0 84 84" xmlns="http://www.w3.org/2000/svg">
	<g transform="translate(0 84) scale(.1 -.1)">
		<path d="m557 830c-16-5-35-14-43-21-11-9-18-9-26-1-16 16-71 15-86 0-20-20-13-42 22-65 28-18 35-29 39-65 8-74 31-123 61-126 25-3 25-4 10-28-16-24-19-24-161-24-110 0-151-4-174-15-35-19-49-13-49 21 0 35-29 43-52 15-24-31-23-83 2-106 11-10 20-27 20-37 0-33 47-114 74-126 26-12 34-36 16-47-21-13-9-45 25-67 37-24 39-34 20-95-7-22-4-23 39-23 46 0 46 0 46 35 0 19 3 35 8 35 19-1 47-27 47-44 0-12 10-23 29-29 26-9 32-7 53 19 14 16 28 39 33 52 8 17 17 22 48 22 34 0 42 5 75 49 31 41 37 56 37 98 0 37-5 55-20 68-26 23-25 65 1 109 18 32 26 36 60 36s41 4 50 28c9 22 7 29-7 37-9 6-37 25-61 43-24 17-48 32-53 32-16 0-12 15 8 33 10 10 35 17 54 17 41 0 58 16 61 57 2 23-2 28-24 31-17 2-29 11-32 23-4 13-14 19-34 19-33 0-53-16-53-41 0-15-4-15-25-6l-24 12 34 18c26 13 35 24 35 42 0 21-5 25-27 24-16 0-41-5-56-9zm-10-172c-3-8-6-5-6 6-1 11 2 17 5 13 3-3 4-12 1-19zm-101-450c-4-24-11-47-15-51-10-10-91 42-91 58 0 22 25 35 68 35h45l-7-42zm117-16c-3-12-9-22-14-22s-3 11 3 25c13 30 20 28 11-3z"/>
	</g>
</svg>
