<?xml version="1.0" encoding="UTF-8"?>
<!DOCTYPE svg  PUBLIC '-//W3C//DTD SVG 20010904//EN'  'http://www.w3.org/TR/2001/REC-SVG-20010904/DTD/svg10.dtd'>
<svg width="84pt" height="84pt" version="1.0" viewBox="0 0 84 84" xmlns="http://www.w3.org/2000/svg">
	<g transform="translate(0 84) scale(.1 -.1)">
		<path d="m422 714c-12-8-22-23-22-33 0-27-24-43-62-39-26 2-36 10-49 38-9 19-22 35-28 34s-15-2-21-2c-5-1-18-19-29-39-19-36-53-75-119-135-23-21-31-38-34-75-3-26-11-70-18-96-11-36-12-50-3-55 7-5 9-13 3-21-5-8-4-25 2-40 5-14 15-53 22-86 12-55 15-60 41-63 42-5 48 9 26 59-12 24-20 60-20 79 1 20 3 27 6 16s22-43 43-70c20-28 40-59 43-68 7-20 71-26 82-8 4 6-16 36-44 67-57 63-64 99-36 167l16 37 28-21c23-15 45-20 99-20h71l-15-44c-9-27-14-70-12-112l3-69 68-3c67-3 80 4 52 28-11 9-15 34-15 100s4 91 15 100c8 7 15 19 15 26 0 18 63 44 105 44 59 0 129 101 110 160-5 15 1 24 27 40 18 11 41 20 51 20 26 0 22 46-5 64-14 9-54 16-102 18l-79 3-18-32c-10-17-19-50-21-73l-3-42-40 32c-22 17-44 44-49 58-8 27-44 72-56 72-3 0-16-7-28-16z"/>
	</g>
</svg>
