<?xml version="1.0" encoding="UTF-8"?>
<!DOCTYPE svg  PUBLIC '-//W3C//DTD SVG 20010904//EN'  'http://www.w3.org/TR/2001/REC-SVG-20010904/DTD/svg10.dtd'>
<svg width="84pt" height="84pt" version="1.0" viewBox="0 0 84 84" xmlns="http://www.w3.org/2000/svg">
	<g transform="translate(0 84) scale(.1 -.1)">
		<path d="m284 656c-46-8-73-20-106-48l-45-37-11 24c-14 31-24 31-73 3-50-28-54-67-9-106 22-20 30-35 30-60 0-35 36-107 70-137 14-12 18-25 14-42-10-37 38-83 87-83 44 0 55 11 37 39-9 15-9 25 0 46 10 22 17 26 35 19 12-4 63-9 113-11l92-4 11-45 12-45 52 3c41 2 51 6 48 18-3 8-5 33-5 55-1 36 3 42 36 60 36 19 38 19 85 2 30-11 49-14 51-7 2 5 10 10 18 10 20 0 19 103-1 120-8 7-15 19-15 27 0 7-7 25-16 38-12 18-14 37-9 79 4 31 4 56 1 56-4 0-29-10-57-21l-49-21-69 41c-69 41-70 41-168 40-54-1-126-7-159-13zm-174-100c0-11-19-15-25-6-3 5 1 10 9 10 9 0 16-2 16-4z"/>
	</g>
</svg>
