<?xml version="1.0" encoding="UTF-8"?>
<!DOCTYPE svg  PUBLIC '-//W3C//DTD SVG 20010904//EN'  'http://www.w3.org/TR/2001/REC-SVG-20010904/DTD/svg10.dtd'>
<svg width="84pt" height="84pt" version="1.0" viewBox="0 0 84 84" xmlns="http://www.w3.org/2000/svg">
	<g transform="translate(0 84) scale(.1 -.1)">
		<path d="m140 705c-10-11-16-13-26-4-22 18-44 3-44-30 0-21-9-37-36-58-32-26-36-33-29-61 6-31 9-32 55-32 48 0 49 0 119-82 66-77 71-86 71-129 0-29-6-51-15-59-8-7-15-19-15-26 0-11 19-14 79-14 87 0 90 3 91 80 0 63 9 80 41 80 17 0 52-11 79-25s56-25 65-25c21 0 19-33-5-63-34-43-28-47 85-47h105v65c0 63 1 65 25 65 22 0 25 4 25 39 0 34-4 42-27 53-28 14-28 14-25 104 3 76 1 92-14 105-14 11-56 14-198 15-100 1-220 5-268 9-78 6-87 9-90 28-4 27-30 33-48 12zm537-422c-3-10-5-4-5 12 0 17 2 24 5 18 2-7 2-21 0-30z"/>
	</g>
</svg>
