<?xml version="1.0" encoding="UTF-8"?>
<!DOCTYPE svg  PUBLIC '-//W3C//DTD SVG 20010904//EN'  'http://www.w3.org/TR/2001/REC-SVG-20010904/DTD/svg10.dtd'>
<svg width="84pt" height="84pt" version="1.0" viewBox="0 0 84 84" xmlns="http://www.w3.org/2000/svg">
	<g transform="translate(0 84) scale(.1 -.1)">
		<path d="m635 670c-3-5-16-10-29-10s-31-9-41-20c-21-24-43-25-69-5-23 17-97 20-113 4-8-8-17-7-31 2-17 11-30 11-69 1-26-7-53-19-59-27s-19-12-33-8c-31 8-101-60-101-98 0-15-7-32-15-39-23-19-19-82 9-123 13-19 27-44 31-56 3-12 11-21 16-21s9-11 9-24 8-38 17-55c14-25 25-31 51-31 32 0 32 1 30 41-3 39-2 41 37 55 43 15 105 18 179 8 45-7 46-7 46-44 0-45 24-70 68-70 29 0 32 3 32 29 0 17 5 33 10 36 6 3 10 14 10 24s11 27 24 40c12 12 29 41 37 64 7 23 19 46 26 50s13 16 13 26c0 26 9 31 36 19 20-9 28-8 42 5 14 15 15 21 3 50-8 17-13 47-12 66 1 35-33 86-50 75-5-3-9 2-9 10 0 18-6 22-52 30-21 4-39 2-43-4z"/>
	</g>
</svg>
