<?xml version="1.0" encoding="UTF-8"?>
<!DOCTYPE svg  PUBLIC '-//W3C//DTD SVG 20010904//EN'  'http://www.w3.org/TR/2001/REC-SVG-20010904/DTD/svg10.dtd'>
<svg width="84pt" height="84pt" version="1.0" viewBox="0 0 84 84" xmlns="http://www.w3.org/2000/svg">
	<g transform="translate(0 84) scale(.1 -.1)">
		<path d="m385 539c-33-17-70-42-83-55-37-39-77-32-126 21-64 69-104 55-72-25 23-58 20-97-9-132-29-34-31-50-10-68 12-10 23-5 64 24 56 41 86 46 94 15 5-20 11-21 52-16 43 6 46 5 40-13-5-15 0-23 18-31 20-9 33-7 69 9 24 10 80 22 124 26 94 8 195 39 220 67 17 18 17 23 4 47-20 36-127 88-200 96-45 5-63 13-85 36-16 17-31 30-34 30-3-1-33-15-66-31z"/>
	</g>
</svg>
