<?xml version="1.0" encoding="UTF-8"?>
<!DOCTYPE svg  PUBLIC '-//W3C//DTD SVG 20010904//EN'  'http://www.w3.org/TR/2001/REC-SVG-20010904/DTD/svg10.dtd'>
<svg width="84pt" height="84pt" version="1.0" viewBox="0 0 84 84" xmlns="http://www.w3.org/2000/svg">
	<g transform="translate(0 84) scale(.1 -.1)">
		<path d="m120 801c-5-11-10-26-10-34 0-19 40-53 73-61 41-10 43-31 8-73-44-53-44-117-1-158 17-16 30-34 30-40s-23-21-51-32c-45-20-50-25-47-50 3-27 6-28 62-31 49-3 62 0 82 19 22 21 26 21 66 8 38-12 39-14 17-19-19-5-25-13-27-43l-3-37h41c23 0 73-5 112-12 54-9 78-9 104 1 28 10 37 9 59-5 14-9 25-25 25-35 0-44-142-109-240-109-104 0-90-44 18-54 56-6 78-3 140 18 40 14 95 37 122 52l50 27v64c0 53-4 70-25 97-18 24-25 45-25 79 0 25-7 79-15 119-15 69-19 77-80 138l-64 64-206 2-3 53c-4 63-18 71-127 71-63 0-76-3-85-19z"/>
	</g>
</svg>
