<?xml version="1.0" encoding="UTF-8"?>
<!DOCTYPE svg  PUBLIC '-//W3C//DTD SVG 20010904//EN'  'http://www.w3.org/TR/2001/REC-SVG-20010904/DTD/svg10.dtd'>
<svg width="84pt" height="84pt" version="1.0" viewBox="0 0 84 84" xmlns="http://www.w3.org/2000/svg">
	<g transform="translate(0 84) scale(.1 -.1)">
		<path d="m348 781c-54-11-159-66-190-98-14-15-41-56-58-91-54-108-56-220-5-324 43-87 76-121 162-164 72-36 84-38 163-38 69 1 96 6 142 27 75 34 147 102 184 174 26 53 29 67 29 158s-3 105-29 158c-36 71-109 141-181 172-59 27-158 38-217 26zm152-108c71-23 143-89 164-150 20-60 20-150 0-199-19-48-88-121-130-139-91-38-221-21-282 38-19 18-47 55-63 82-68 117-14 292 109 351 77 36 128 41 202 17z"/>
		<path d="m400 552c-41-6-88-49-101-91-25-83 36-161 124-161 40 0 51 5 81 35 44 44 54 90 31 139-27 56-79 86-135 78z"/>
	</g>
</svg>
