<?xml version="1.0" encoding="UTF-8"?>
<!DOCTYPE svg  PUBLIC '-//W3C//DTD SVG 20010904//EN'  'http://www.w3.org/TR/2001/REC-SVG-20010904/DTD/svg10.dtd'>
<svg width="84pt" height="84pt" version="1.0" viewBox="0 0 84 84" xmlns="http://www.w3.org/2000/svg">
	<g transform="translate(0 84) scale(.1 -.1)">
		<path d="m26 621c-10-11-16-27-13-34 3-8 54-42 114-75 59-34 116-67 127-75 17-12 15-13-17-12-24 0-49 11-77 34-45 36-70 35-70-4 0-25-1-25-30-10-43 22-60 19-60-11 0-17 20-48 62-95 50-55 68-69 91-69 20 0 30 6 34 20 5 18 14 20 107 20 125-1 136-7 136-81 0-69 9-81 50-77 31 3 35 8 71 92 22 50 44 93 49 96 6 4 54 15 108 24 53 10 105 25 115 34 26 23 23 87-5 106-31 22-68 20-200-9l-114-24-210 80c-115 44-218 83-229 86-13 3-28-3-39-16z"/>
	</g>
</svg>
