<?xml version="1.0" encoding="UTF-8"?>
<!DOCTYPE svg  PUBLIC '-//W3C//DTD SVG 20010904//EN'  'http://www.w3.org/TR/2001/REC-SVG-20010904/DTD/svg10.dtd'>
<svg width="84pt" height="84pt" version="1.0" viewBox="0 0 84 84" xmlns="http://www.w3.org/2000/svg">
	<g transform="translate(0 84) scale(.1 -.1)">
		<path d="m600 676-105-105-85 24c-47 12-136 37-198 54s-120 31-130 31c-24 0-82-61-82-86 0-17 31-36 165-99l166-79-63-63c-62-62-63-63-118-63-46 0-61-4-78-23-36-39-28-53 44-79 37-12 68-27 70-33 31-90 48-125 58-125 7 0 24 13 39 28 22 23 27 37 27 79 0 49 3 54 61 115l60 63 28-60c16-33 49-104 74-157l46-98h39c28 0 45 7 61 24l23 24-55 210-54 210 103 103c94 93 104 107 104 140 0 43-25 69-66 69-24 0-49-20-134-104z"/>
	</g>
</svg>
