<?xml version="1.0" encoding="UTF-8"?>
<!DOCTYPE svg  PUBLIC '-//W3C//DTD SVG 20010904//EN'  'http://www.w3.org/TR/2001/REC-SVG-20010904/DTD/svg10.dtd'>
<svg width="84pt" height="84pt" version="1.0" viewBox="0 0 84 84" xmlns="http://www.w3.org/2000/svg">
	<g transform="translate(0 84) scale(.1 -.1)">
		<path d="m385 795c-24-23-25-29-25-157v-133l-163-95-162-95-3-54c-4-67 6-78 49-58 30 14 267 97 276 97 1 0 3-35 3-78 0-76-1-79-35-112-35-34-44-70-26-98 6-11 21-8 71 13l63 26 51-21c28-12 57-24 64-27 8-4 12 8 12 39 0 36-6 50-30 73-28 27-30 33-30 107 0 43 2 78 5 78 5 0 268-90 308-106 16-6 18-1 15 56l-3 63-160 97-160 96-3 134c-2 121-5 137-24 157-28 30-63 29-93-2z"/>
	</g>
</svg>
