<?xml version="1.0" encoding="UTF-8"?>
<!DOCTYPE svg  PUBLIC '-//W3C//DTD SVG 20010904//EN'  'http://www.w3.org/TR/2001/REC-SVG-20010904/DTD/svg10.dtd'>
<svg width="84pt" height="84pt" version="1.0" viewBox="0 0 84 84" xmlns="http://www.w3.org/2000/svg">
	<g transform="translate(0 84) scale(.1 -.1)">
		<path d="m0 515v-35h103 102l-55-35c-30-19-76-46-102-60-42-22-48-29-48-58 0-27 6-35 33-49 102-51 199-59 490-36l157 12 66 73c36 40 72 73 80 73 11 0 14 15 14 66v65l-52-3c-51-3-53-4-56-33-2-16-15-42-30-57-21-23-35-28-71-28h-46l4 51c2 36-1 54-10 60-8 5-105 9-216 9-124 0-204 4-208 10-3 6-40 10-81 10h-74v-35zm490-81c23-9 39-18 37-20-2-3-24 4-48 15-54 24-45 27 11 5z"/>
	</g>
</svg>
