<?xml version="1.0" encoding="UTF-8"?>
<!DOCTYPE svg  PUBLIC '-//W3C//DTD SVG 20010904//EN'  'http://www.w3.org/TR/2001/REC-SVG-20010904/DTD/svg10.dtd'>
<svg width="84pt" height="84pt" version="1.0" viewBox="0 0 84 84" xmlns="http://www.w3.org/2000/svg">
	<g transform="translate(0 84) scale(.1 -.1)">
		<path d="m545 794c-21-25-48-75-61-112-21-60-26-67-52-70-28-3-29-2-41 67-8 44-18 72-28 75-23 9-151 7-157-2-3-5-10-114-15-243-6-129-13-280-17-336l-6-102-46-3c-45-3-47-4-50-35l-3-33h325 326v30c0 36-10 39-134 43l-90 2-32 185c-44 250-44 252-50 262-4 5 6 8 21 6 24-3 30-10 41-56 8-29 21-67 30-84 18-34 109-128 125-128 5 0 15 12 21 26 10 21 9 31-5 52-36 57-65 129-72 177-6 48-6 49 10 28 23-32 72-31 86 1 25 53-35 93-77 51l-24-24v28c0 42 29 131 56 170l25 36-22 18c-31 25-43 22-84-29z"/>
	</g>
</svg>
