<?xml version="1.0" encoding="UTF-8"?>
<!DOCTYPE svg  PUBLIC '-//W3C//DTD SVG 20010904//EN'  'http://www.w3.org/TR/2001/REC-SVG-20010904/DTD/svg10.dtd'>
<svg width="84pt" height="84pt" version="1.0" viewBox="0 0 84 84" xmlns="http://www.w3.org/2000/svg">
	<g transform="translate(0 84) scale(.1 -.1)">
		<path d="m90 659c-38-15-60-49-60-96 0-34 5-46 31-67 35-29 92-35 124-12 18 12 28 11 80-9 59-22 60-23 60-60 0-36-2-38-53-58-45-17-59-19-86-9-52 19-91 15-125-14-57-47-35-144 36-163 61-17 117 21 128 89 8 46 5 44 137 93l63 24 129-48c115-44 138-49 208-49 44 0 77 4 74 9-3 4-72 32-153 61-82 29-151 56-155 59-4 4 58 31 138 61 193 72 202 79 98 80-72 0-93-5-210-49l-129-48-63 24c-111 41-132 52-132 65 0 85-72 144-140 117zm93-76c2-10-3-30-12-45-12-21-23-28-46-28-39 0-55 16-55 55 0 44 42 69 81 49 15-7 29-22 32-31zm-18-277c28-28 22-72-12-90-25-13-31-12-55 2-21 12-28 24-28 47 0 17 5 36 12 43 16 16 66 15 83-2z"/>
	</g>
</svg>
