<?xml version="1.0" encoding="UTF-8"?>
<!DOCTYPE svg  PUBLIC '-//W3C//DTD SVG 20010904//EN'  'http://www.w3.org/TR/2001/REC-SVG-20010904/DTD/svg10.dtd'>
<svg width="84pt" height="84pt" version="1.0" viewBox="0 0 84 84" xmlns="http://www.w3.org/2000/svg">
	<g transform="translate(0 84) scale(.1 -.1)">
		<path d="m694 796c-30-13-96-90-123-144-11-21-9-26 16-49 15-14 43-39 61-57 33-31 34-31 50-11 9 11 44 27 77 35 59 15 60 16 63 52 3 29-1 38-17 43-11 3-32 20-46 37-22 26-25 37-20 70 6 33 4 38-12 38-10-1-32-7-49-14z"/>
		<path d="m83 683c-23-35-22-106 2-133 14-16 16-27 9-57-4-21-7-65-6-98 1-34-5-80-14-105-16-43-15-49 6-120 13-41 22-87 21-102-1-25 2-28 32-28 43 0 47 5 35 43-24 77-26 96-12 108 11 9 16 6 24-16 5-14 10-33 10-40 0-8 7-33 16-55 14-36 20-40 50-40 46 0 53 22 20 61-21 25-26 41-26 85 0 30 6 67 14 82 7 15 16 43 20 64 11 62 66 66 128 9 25-23 60-44 84-50 46-12 58-33 44-81-5-16-5-60-2-97l7-68 56-3c66-3 84 16 49 53-17 18-20 35-20 108 0 60 5 100 16 125 10 20 20 61 24 91 6 54 6 54-34 91-23 21-55 49-73 64l-32 27-50-17c-39-12-80-15-191-12-136 3-143 4-162 27-12 16-17 32-13 45 17 54 17 66 1 66-8 0-24-12-33-27z"/>
	</g>
</svg>
