<?xml version="1.0" encoding="UTF-8"?>
<!DOCTYPE svg  PUBLIC '-//W3C//DTD SVG 20010904//EN'  'http://www.w3.org/TR/2001/REC-SVG-20010904/DTD/svg10.dtd'>
<svg width="84pt" height="84pt" version="1.0" viewBox="0 0 84 84" xmlns="http://www.w3.org/2000/svg">
	<g transform="translate(0 84) scale(.1 -.1)">
		<path d="m260 734c-155-20-260-107-260-215v-51l82 6c138 11 138 12 138 57 0 28-4 39-15 39-10 0-15 10-15 30 0 28 2 30 40 30h40v-56c0-55-1-58-100-191l-100-136v-73-74h355 355v74 73l-100 136c-99 133-100 136-100 191v56h40c38 0 40-2 40-30 0-20-5-30-15-30-11 0-15-11-15-39 0-45 0-45 133-56l77-7v57c0 69-22 111-77 147-75 49-126 60-303 63-91 2-181 1-200-1zm230-159v-55h-65-65v55 55h65 65v-55zm16-136c85-52 83-187-3-241-72-43-173-16-207 56-65 137 80 264 210 185z"/>
	</g>
</svg>
