<?xml version="1.0" encoding="UTF-8"?>
<!DOCTYPE svg  PUBLIC '-//W3C//DTD SVG 20010904//EN'  'http://www.w3.org/TR/2001/REC-SVG-20010904/DTD/svg10.dtd'>
<svg width="84pt" height="84pt" version="1.0" viewBox="0 0 84 84" xmlns="http://www.w3.org/2000/svg">
	<g transform="translate(0 84) scale(.1 -.1)">
		<path d="m370 780v-60h-105-105v-29c0-16-5-42-11-58-46-117-149-431-149-454 0-73 76-162 150-174 71-12 160 29 192 89 18 33 26 94 18 129-5 18-42 123-83 235l-75 202h223 223l-65-177c-35-98-71-195-80-216-20-46-19-126 1-165 50-96 181-129 264-65 94 71 95 133 8 384-35 101-69 197-75 212-6 16-11 42-11 58v29h-105-105v60 60h-55-55v-60zm-124-397 53-153h-114c-63 0-115 4-115 9s23 71 51 147c28 77 53 148 57 159 4 15 7 16 10 5 3-8 29-84 58-167zm479 18c30-85 55-157 55-162s-52-9-116-9c-107 0-116 1-109 18 4 9 30 83 58 164s53 146 54 144c1-1 27-71 58-155z"/>
	</g>
</svg>
