<?xml version="1.0" encoding="UTF-8"?>
<!DOCTYPE svg  PUBLIC '-//W3C//DTD SVG 20010904//EN'  'http://www.w3.org/TR/2001/REC-SVG-20010904/DTD/svg10.dtd'>
<svg width="84pt" height="84pt" version="1.0" viewBox="0 0 84 84" xmlns="http://www.w3.org/2000/svg">
	<g transform="translate(0 84) scale(.1 -.1)">
		<path d="m180 677c0-172 4-187 47-187h23l2-242 3-243h40 40l3 243 2 242h23c43 0 47 15 47 187 0 156-1 163-20 163s-20-7-20-120c0-73-4-120-10-120s-10 47-10 120v120h-25-25v-121c0-77-4-118-10-114s-10 55-10 121c0 107-1 114-20 114s-20-7-20-120c0-73-4-120-10-120s-10 47-10 120c0 113-1 120-20 120s-20-7-20-163z"/>
		<path d="m513 816-28-24-3-216c-3-232 1-256 43-256h25v-160-160h50 50v420 420h-54c-44 0-61-5-83-24z"/>
	</g>
</svg>
