<?xml version="1.0" encoding="UTF-8"?>
<!DOCTYPE svg  PUBLIC '-//W3C//DTD SVG 20010904//EN'  'http://www.w3.org/TR/2001/REC-SVG-20010904/DTD/svg10.dtd'>
<svg width="84pt" height="84pt" version="1.0" viewBox="0 0 84 84" xmlns="http://www.w3.org/2000/svg">
	<g transform="translate(0 84) scale(.1 -.1)">
		<path d="m85 750c-3-5 26-165 65-356 38-190 70-348 70-350s94-4 210-4 210 2 210 4 32 160 71 352c56 276 67 349 57 355-17 11-55 11-62 0-3-5-22-85-42-177-19-93-44-209-55-259-10-49-24-114-30-142l-10-53h-139-139l-11 58c-7 31-23 109-36 172-14 63-39 178-55 255-16 76-35 143-42 147-17 11-55 10-62-2z"/>
		<path d="m278 636c-46-57-33-100 21-73 24 12 32 12 52 1 31-17 64-17 97 0 23 12 31 12 52 0 41-22 78-17 111 15 32 33 39 78 13 88-11 4-23-3-36-20-25-34-53-34-74-2-9 15-26 25-39 25s-30-10-39-25c-10-16-26-25-41-25-18 0-28 8-35 25-14 37-49 33-82-9z"/>
	</g>
</svg>
