<?xml version="1.0" encoding="UTF-8"?>
<!DOCTYPE svg  PUBLIC '-//W3C//DTD SVG 20010904//EN'  'http://www.w3.org/TR/2001/REC-SVG-20010904/DTD/svg10.dtd'>
<svg width="84pt" height="84pt" version="1.0" viewBox="0 0 84 84" xmlns="http://www.w3.org/2000/svg">
	<g transform="translate(0 84) scale(.1 -.1)">
		<path d="m237 814c-4-4-7-164-7-355v-348l-82-3-83-3-3-47-3-48h360 361v45c0 42-2 46-30 51-28 6-29 8-15 27 21 30 19 84-5 114-18 24-20 41-20 207v182l-43 42c-23 23-48 42-54 42-7 0-13 20-15 48l-3 47-176 3c-96 1-178-1-182-4zm293-169v-75h-110-110v75 75h110 110v-75zm98-110c3-34 2-37-12-26-19 16-22 75-3 69 6-3 13-22 15-43zm37-305c14-32 16-43 6-53-17-16-34 15-35 64-1 45 5 43 29-11z"/>
	</g>
</svg>
