<?xml version="1.0" encoding="UTF-8"?>
<!DOCTYPE svg  PUBLIC '-//W3C//DTD SVG 20010904//EN'  'http://www.w3.org/TR/2001/REC-SVG-20010904/DTD/svg10.dtd'>
<svg width="84pt" height="84pt" version="1.0" viewBox="0 0 84 84" xmlns="http://www.w3.org/2000/svg">
	<g transform="translate(0 84) scale(.1 -.1)">
		<path d="m611 732c-41-53-82-115-92-138-30-66-58-164-47-164 22 0 122 109 149 162 28 56 74 210 67 228-2 5-36-34-77-88z"/>
		<path d="m400 596c0-13-16-57-36-96-35-67-36-75-32-146 5-70 3-78-23-114-27-37-49-57-49-45 0 3 7 22 15 42 18 43 20 132 3 168l-12 26-20-40c-12-22-32-59-46-83-20-35-25-56-25-119l1-76-58-42c-54-40-71-61-48-61 5 0 37 20 70 46 49 37 63 43 79 35 60-32 156 3 251 92l62 58-39-5c-21-3-60-8-87-11s-65-15-85-27l-36-22 23 29c50 68 47 66 89 59 66-10 133 33 219 140l47 59-34-7c-19-3-67-23-107-44-87-44-93-40-85 58 5 65-7 133-28 145-5 4-9-5-9-19z"/>
	</g>
</svg>
