<?xml version="1.0" encoding="UTF-8"?>
<!DOCTYPE svg  PUBLIC '-//W3C//DTD SVG 20010904//EN'  'http://www.w3.org/TR/2001/REC-SVG-20010904/DTD/svg10.dtd'>
<svg width="83pt" height="83pt" version="1.0" viewBox="0 0 83 83" xmlns="http://www.w3.org/2000/svg">
	<g transform="translate(0 83) scale(.1 -.1)">
		<path d="m280 734c-45-20-77-50-101-96-17-33-19-60-19-238v-200h-39c-61 0-89-41-58-83 11-16 42-17 372-15l360 3v45 45l-100 10-10 434-43 44c-25 25-60 49-81 56-57 16-238 14-281-5zm184-58c18-7 42-26 54-41 21-26 22-38 22-231v-204h-160-160v197 196l26 35c15 19 41 40 58 48 40 17 118 18 160 0z"/>
	</g>
</svg>
