<?xml version="1.0" encoding="UTF-8"?>
<!DOCTYPE svg  PUBLIC '-//W3C//DTD SVG 20010904//EN'  'http://www.w3.org/TR/2001/REC-SVG-20010904/DTD/svg10.dtd'>
<svg width="83pt" height="83pt" version="1.0" viewBox="0 0 83 83" xmlns="http://www.w3.org/2000/svg">
	<g transform="translate(0 83) scale(.1 -.1)">
		<path d="m389 763c-5-15-29-75-53-133l-42-105-130-3c-71-1-135-4-143-7-22-8 1-28 109-95l98-61-54-134c-30-74-54-139-54-145 0-20 28-7 160 74l134 84 51-33c27-17 89-57 137-88 48-32 90-57 93-57 14 0 0 49-45 159-28 67-48 125-46 130 3 4 55 39 116 76s109 72 107 79-51 12-149 14l-146 3-32 77c-18 42-43 102-55 132-27 64-41 73-56 33z"/>
	</g>
</svg>
