<?xml version="1.0" encoding="UTF-8"?>
<!DOCTYPE svg  PUBLIC '-//W3C//DTD SVG 20010904//EN'  'http://www.w3.org/TR/2001/REC-SVG-20010904/DTD/svg10.dtd'>
<svg width="83pt" height="83pt" version="1.0" viewBox="0 0 83 83" xmlns="http://www.w3.org/2000/svg">
	<g transform="translate(0 83) scale(.1 -.1)">
		<path d="m331 804c-34-28-66-117-77-210-6-48-3-59 30-119 20-36 36-70 36-75 0-6-35-63-78-128-43-64-82-123-86-130-7-11 87-132 103-132 3 0 28 39 55 88 27 48 59 104 71 124l21 37 65-124c35-69 67-125 71-125 7 0 118 108 118 115 0 2-39 66-87 141l-87 137 43 79c39 72 43 85 38 128-8 69-44 150-83 188-44 42-107 45-153 6zm136-99 22-16-25-57c-14-31-33-70-43-86l-19-29-41 74c-22 41-41 81-41 90 0 36 106 53 147 24z"/>
	</g>
</svg>
