<?xml version="1.0" encoding="UTF-8"?>
<!DOCTYPE svg  PUBLIC '-//W3C//DTD SVG 20010904//EN'  'http://www.w3.org/TR/2001/REC-SVG-20010904/DTD/svg10.dtd'>
<svg width="84pt" height="84pt" version="1.0" viewBox="0 0 84 84" xmlns="http://www.w3.org/2000/svg">
	<g transform="translate(0 84) scale(.1 -.1)">
		<path d="m112 713-47-98v-120c1-107 4-127 28-184 36-86 87-161 144-211 93-82 164-103 257-76 48 14 69 29 136 96 44 44 80 87 80 95s4 15 9 15 23 40 41 89c54 150 43 288-34 424l-37 67h-265-265l-47-97zm318-56c0-104 3-122 35-213 33-92 34-100 18-111-9-7-25-13-35-13-14 0-18-8-18-40 0-37 2-39 36-46 35-7 104-65 104-89 0-23-13-25-44-6-17 10-46 22-63 26-29 6-33 10-33 41 0 33-1 34-39 34-28 0-49 8-70 26-34 28-51 25-51-10 0-49 68-96 139-96 19 0 21-6 21-55 0-41-4-55-14-55-36 0-109 43-164 97-161 158-196 393-86 580l25 43h119 120v-113zm230-85c14-11 26-29 28-41 3-20 0-21-102-21-105 0-106 0-106 24 0 60 117 84 180 38z"/>
		<path d="m205 588c-83-45-42-128 63-128 101 0 151 76 80 120-36 22-110 26-143 8z"/>
	</g>
</svg>
