<?xml version="1.0" encoding="UTF-8"?>
<!DOCTYPE svg  PUBLIC '-//W3C//DTD SVG 20010904//EN'  'http://www.w3.org/TR/2001/REC-SVG-20010904/DTD/svg10.dtd'>
<svg width="84pt" height="84pt" version="1.0" viewBox="0 0 84 84" xmlns="http://www.w3.org/2000/svg">
	<g transform="translate(0 84) scale(.1 -.1)">
		<path d="m134 757c-85-41-127-144-91-227 14-35 85-126 142-184 29-30 30-34 35-148 5-112 6-119 33-145 27-28 29-28 156-28 152 0 167 7 177 86l7 49h48c37 0 49-4 49-15 0-10 11-15 35-15h35v85 85h-35c-19 0-35-4-35-10 0-5-22-10-50-10-36 0-50 4-50 14 0 7 40 51 89 97 96 92 129 143 129 204 0 124-129 219-235 173-82-35-123-94-123-175 0-94 78-173 169-173h36l-36-36-37-36-29 22c-28 20-39 21-157 18-120-3-128-4-145-27l-18-23-31 39-31 40h42c62 0 121 34 153 88 22 39 26 55 22 100-8 95-66 156-164 170-29 4-52 0-90-18zm140-54c82-39 79-175-5-219-97-50-208 40-179 145 13 47 19 55 55 74 39 21 86 21 129 0zm420 0c82-39 79-175-5-219-97-50-208 40-179 145 13 47 19 55 55 74 39 21 86 21 129 0z"/>
	</g>
</svg>
