<?xml version="1.0" encoding="UTF-8"?>
<!DOCTYPE svg  PUBLIC '-//W3C//DTD SVG 20010904//EN'  'http://www.w3.org/TR/2001/REC-SVG-20010904/DTD/svg10.dtd'>
<svg width="84pt" height="84pt" version="1.0" viewBox="0 0 84 84" xmlns="http://www.w3.org/2000/svg">
	<g transform="translate(0 84) scale(.1 -.1)">
		<path d="m104 756c-3-8-4-23-2-33 3-16 18-18 166-21l162-2v35 35h-160c-131 0-162-3-166-14z"/>
		<path d="m522 758c-9-9-12-61-12-190v-178h-45c-31 0-47-5-51-15-6-15 141-215 163-222 13-5 184 207 180 222-2 6-27 11-55 13l-52 3-2 187-3 187-55 3c-34 2-60-2-68-10z"/>
		<path d="m182 570c-45-60-82-114-82-120 0-5 22-10 50-10h50l2-187 3-188 68-3 67-3v191 190h55c30 0 55 3 55 7 0 10-171 233-180 233-4 0-44-49-88-110z"/>
		<path d="m427 124c-4-4-7-20-7-36v-28h166 165l-3 33-3 32-156 3c-85 1-158-1-162-4z"/>
	</g>
</svg>
