<?xml version="1.0" encoding="UTF-8"?>
<!DOCTYPE svg  PUBLIC '-//W3C//DTD SVG 20010904//EN'  'http://www.w3.org/TR/2001/REC-SVG-20010904/DTD/svg10.dtd'>
<svg width="84pt" height="84pt" version="1.0" viewBox="0 0 84 84" xmlns="http://www.w3.org/2000/svg">
	<g transform="translate(0 84) scale(.1 -.1)">
		<path d="m640 780c-14-5-94-28-177-51l-153-42v-224-225l-48 7c-93 12-164-37-166-116 0-29 6-45 29-69 24-25 36-30 78-30 26 0 58 5 70 11 33 17 67 51 61 60-3 5 0 9 5 9 8 0 11 76 11 233v233l123 38c67 21 130 40 140 42 16 5 17-7 17-161v-167l-39 7c-134 22-222-101-135-188 52-52 159-28 204 45 19 31 20 51 20 316 0 155-3 282-7 281-5 0-19-4-33-9z"/>
	</g>
</svg>
