<?xml version="1.0" encoding="UTF-8"?>
<!DOCTYPE svg  PUBLIC '-//W3C//DTD SVG 20010904//EN'  'http://www.w3.org/TR/2001/REC-SVG-20010904/DTD/svg10.dtd'>
<svg width="84pt" height="84pt" version="1.0" viewBox="0 0 84 84" xmlns="http://www.w3.org/2000/svg">
	<g transform="translate(0 84) scale(.1 -.1)">
		<path d="m112 509 3-234 25-3c85-9 189-53 229-96 14-14 28-26 33-26 4 0 8 108 8 239v239l-44 39c-50 44-96 61-191 70l-65 6 2-234z"/>
		<path d="m615 730c-63-13-91-27-134-66l-41-36v-239c0-132 4-239 8-239 5 0 19 12 33 26 38 41 149 87 229 96l25 3 3 233 2 232-42-1c-24-1-61-5-83-9z"/>
		<path d="m20 435v-275h68c89 0 191-23 239-53 78-49 83-50 83-25 0 16-16 35-55 63-71 51-124 72-207 81l-68 7v238 239h-30-30v-275z"/>
		<path d="m770 471v-238l-68-7c-110-11-262-96-262-147 0-10 2-19 4-19s30 16 62 35c76 46 109 55 227 62l97 6v273 274h-30-30v-239z"/>
	</g>
</svg>
