<?xml version="1.0" encoding="UTF-8"?>
<!DOCTYPE svg  PUBLIC '-//W3C//DTD SVG 20010904//EN'  'http://www.w3.org/TR/2001/REC-SVG-20010904/DTD/svg10.dtd'>
<svg width="84pt" height="84pt" version="1.0" viewBox="0 0 84 84" xmlns="http://www.w3.org/2000/svg">
	<g transform="translate(0 84) scale(.1 -.1)">
		<path d="m203 612c-112-65-203-122-203-128s19-20 43-32c23-13 119-65 212-116l170-94 101 54c56 30 120 64 143 77l41 23-38 17c-20 9-68 28-105 42l-68 25-18-22c-21-25-79-30-105-9-21 17-21 55 0 72 22 18 79 16 101-3 10-8 43-25 73-36s85-31 122-45l67-26 51 27c38 20 50 31 48 46-2 14-59 52-198 133-107 62-204 112-215 112-11-1-111-53-222-117z"/>
		<path d="m720 350c0-33 3-40 20-40s20 7 20 40-3 40-20 40-20-7-20-40z"/>
		<path d="m142 278 3-93h265 265l3 83c2 45 0 82-4 82-3 0-61-29-128-64l-121-64-87 48c-48 26-89 45-92 42s-6 0-6 6c0 9-40 28-48 23-1-1-10 5-18 14-29 29-35 16-32-77z"/>
		<path d="m707 294c-4-4-7-61-7-126v-118h40 41l-3 123-3 122-30 3c-17 2-34 0-38-4z"/>
	</g>
</svg>
