<?xml version="1.0" encoding="UTF-8"?>
<!DOCTYPE svg  PUBLIC '-//W3C//DTD SVG 20010904//EN'  'http://www.w3.org/TR/2001/REC-SVG-20010904/DTD/svg10.dtd'>
<svg width="84pt" height="84pt" version="1.0" viewBox="0 0 84 84" xmlns="http://www.w3.org/2000/svg">
	<g transform="translate(0 84) scale(.1 -.1)">
		<path d="m276 819c-34-9-63-34-82-71-20-39-17-70 11-111l24-36-34-51c-19-28-39-68-45-88-5-20-10-128-10-239v-203h185c174 0 186 1 197 20 9 13 24 20 44 20 34 0 64 32 64 70 0 11 29 59 64 106l64 87-92 186-52-62-29 26-30 25-60-80c-102-136-99-121-33-181 31-29 54-58 51-64-3-9-34-13-104-13h-99v208 207l44 18c136 56 65 265-78 226z"/>
	</g>
</svg>
