<?xml version="1.0" encoding="UTF-8"?>
<!DOCTYPE svg  PUBLIC '-//W3C//DTD SVG 20010904//EN'  'http://www.w3.org/TR/2001/REC-SVG-20010904/DTD/svg10.dtd'>
<svg width="84pt" height="84pt" version="1.0" viewBox="0 0 84 84" xmlns="http://www.w3.org/2000/svg">
	<g transform="translate(0 84) scale(.1 -.1)">
		<path d="m370 790c0-25-4-30-25-30-42 0-90-25-122-65-38-46-53-115-53-251 0-158-34-236-115-265-33-12-35-15-35-61v-48h169c160 0 169-1 174-20 12-48 101-50 122-2 10 22 13 22 182 22h173v45c0 42-2 46-37 60-93 39-113 85-123 285-4 85-13 169-19 185-25 62-94 115-151 115-27 0-30 3-30 30 0 30-1 30-55 30s-55 0-55-30z"/>
	</g>
</svg>
