<?xml version="1.0" encoding="UTF-8"?>
<!DOCTYPE svg  PUBLIC '-//W3C//DTD SVG 20010904//EN'  'http://www.w3.org/TR/2001/REC-SVG-20010904/DTD/svg10.dtd'>
<svg width="84pt" height="84pt" version="1.0" viewBox="0 0 84 84" xmlns="http://www.w3.org/2000/svg">
	<g transform="translate(0 84) scale(.1 -.1)">
		<path d="m358 822c-56-34-73-112-38-169 66-110 231-63 230 66-1 96-110 154-192 103z"/>
		<path d="m332 563c-20-4-180-175-205-220-14-23 0-59 29-71 23-11 29-9 58 20 17 18 46 51 63 73l32 40 1-47v-48h114 115l3 46 3 47 50-61c66-80 88-90 121-57 32 32 27 41-87 173-67 76-94 101-119 106-35 6-140 6-178-1z"/>
		<path d="m286 244c-39-39-66-83-66-109 0-43 99-135 145-135 42 0 50 12 31 47-42 77-41 73-23 105 22 38 21 50-4 82-23 30-60 34-83 10z"/>
		<path d="m480 225-22-35 21-33c22-36 24-26-23-114-19-34-13-43 30-43 29 0 46 10 95 57 33 31 59 65 59 76 0 23-63 112-86 121-33 13-53 5-74-29z"/>
	</g>
</svg>
