<?xml version="1.0" encoding="UTF-8"?>
<!DOCTYPE svg  PUBLIC '-//W3C//DTD SVG 20010904//EN'  'http://www.w3.org/TR/2001/REC-SVG-20010904/DTD/svg10.dtd'>
<svg width="84pt" height="84pt" version="1.0" viewBox="0 0 84 84" xmlns="http://www.w3.org/2000/svg">
	<g transform="translate(0 84) scale(.1 -.1)">
		<path d="m375 819c-194-22-330-156-358-354-9-59-8-84 6-139 23-93 42-130 103-195 134-145 354-170 529-59 152 96 217 312 148 493-36 94-130 191-218 224-73 28-144 38-210 30zm151-125c80-33 121-71 156-141 29-59 33-77 32-143-1-93-25-152-88-213-25-23-67-50-93-60-66-23-169-22-227 3-59 25-131 97-156 156-25 58-26 161-3 227 21 58 85 127 150 161 59 31 168 35 229 10z"/>
		<path d="m402 638c-6-6-12-25-12-40 0-27-1-28-55-28-39 0-55-4-55-13 0-7 25-52 55-101 30-48 55-89 55-92 0-2-22-4-49-4-54 0-77-17-66-50 5-17 15-20 61-20 47 0 54-3 54-19 0-37 12-51 41-51 26 0 29 3 29 35v35h61 60l-3 33c-3 31-5 32-56 37l-52 5 55 90c30 50 55 96 55 103 0 8-19 12-59 12h-60l-3 38c-2 28-8 38-23 40-11 1-26-3-33-10z"/>
	</g>
</svg>
