<?xml version="1.0" encoding="UTF-8"?>
<!DOCTYPE svg  PUBLIC '-//W3C//DTD SVG 20010904//EN'  'http://www.w3.org/TR/2001/REC-SVG-20010904/DTD/svg10.dtd'>
<svg width="84pt" height="84pt" version="1.0" viewBox="0 0 84 84" xmlns="http://www.w3.org/2000/svg">
	<g transform="translate(0 84) scale(.1 -.1)">
		<path d="m381 802c-10-20-22-59-26-85s-8-47-9-47c0 0-25 9-54 20-58 22-112 26-129 9s5-56 63-109l47-43-42-36c-50-43-81-89-74-107 7-19 79-18 133 1 23 8 46 15 50 15s10-19 14-42c10-59 42-128 60-128 24 0 47 43 59 113l11 64 53-18c29-11 71-19 93-19 36 0 40 2 40 26 0 18-16 42-54 79l-53 53 54 53c42 41 53 59 51 78-3 22-9 26-39 29-20 2-60-6-89-17-30-11-54-20-55-18-1 1-6 29-13 61-13 65-35 106-57 106-8 0-23-17-34-38zm58-128c1-32-13-45-36-37-16 6-16 27-1 95l12 53 12-40c7-22 13-54 13-71zm-152-31c44-14 53-21 51-37-5-35-35-30-80 13-49 46-46 48 29 24zm323 10c-1-5-22-25-48-45-40-32-49-36-61-24-21 22-7 42 41 59 49 18 68 20 68 10zm-275-163c0-19-9-26-54-42-30-10-56-16-58-14-7 7 90 87 101 83 6-2 11-14 11-27zm240-18c20-18 35-35 32-38-2-3-30 5-61 16-40 16-56 27-56 40 0 20 19 31 36 21 6-3 28-21 49-39zm-135-46c0-11-6-43-13-71l-14-50-13 69c-10 56-10 70 0 76 20 12 40 0 40-24z"/>
		<path d="m122 269c-24-12-62-44-83-71-33-42-39-57-39-97 0-47 25-88 48-80 5 2 31 33 58 68 75 99 71 99 161 3 77-81 79-82 127-82 49 0 51 1 126 80 42 44 83 80 92 80 17 0 76-55 130-120l38-45 19 23c11 12 24 22 30 22s11 16 11 36c0 31-10 45-72 109-87 87-131 106-200 85-42-12-110-71-154-133l-20-29-42 55c-81 105-154 135-230 96z"/>
	</g>
</svg>
