<?xml version="1.0" encoding="UTF-8"?>
<!DOCTYPE svg  PUBLIC '-//W3C//DTD SVG 20010904//EN'  'http://www.w3.org/TR/2001/REC-SVG-20010904/DTD/svg10.dtd'>
<svg width="84pt" height="84pt" version="1.0" viewBox="0 0 84 84" xmlns="http://www.w3.org/2000/svg">
	<g transform="translate(0 84) scale(.1 -.1)">
		<path d="m313 825c-157-44-259-148-299-306-42-165 37-357 181-439 78-44 133-60 216-60 259 0 445 223 399 480-6 36-20 84-30 108-22 48-110 146-155 170-102 55-220 73-312 47zm220-133c109-50 166-138 167-257 0-93-23-155-81-214-134-135-390-98-463 66-9 21-21 46-26 55-6 10-10 49-10 87 0 58 5 79 30 129 37 71 59 93 131 132 76 41 165 41 252 2z"/>
		<path d="m360 698c0-2-20-77-43-168-24-91-42-171-39-178 7-23 44-12 93 28l48 41-19-67c-12-41-28-72-41-82-21-14-21-41-3-104 9-30 49-21 83 17 35 41 36 43 17 64-12 14-10 31 15 131 37 148 37 160 1 160-19 0-39-11-62-35-19-19-37-35-41-35s4 42 17 93c31 121 31 137-1 137-14 0-25-1-25-2z"/>
	</g>
</svg>
