<?xml version="1.0" encoding="UTF-8"?>
<!DOCTYPE svg  PUBLIC '-//W3C//DTD SVG 20010904//EN'  'http://www.w3.org/TR/2001/REC-SVG-20010904/DTD/svg10.dtd'>
<svg width="84pt" height="84pt" version="1.0" viewBox="0 0 84 84" xmlns="http://www.w3.org/2000/svg">
	<g transform="translate(0 84) scale(.1 -.1)">
		<path d="m310 814c-65-16-155-69-196-115-65-72-105-182-105-284 0-199 125-358 315-400 245-55 464 89 507 334 34 192-90 402-268 457-75 22-179 26-253 8zm204-114c124-39 200-147 200-285 0-140-76-247-205-286-77-23-117-22-203 9-54 19-136 99-154 152l-11 30h275 274v35c0 28-5 36-22 40-13 3-135 4-273 3l-250-3-6-30c-5-28-6-27-13 15-4 26-3 61 2 80 8 26 10 29 11 12l1-22 273 2 272 3v35 35l-267 3c-148 1-268 6-268 11 0 12 54 83 86 112 26 24 87 51 139 62 43 10 75 6 139-13z"/>
	</g>
</svg>
