<?xml version="1.0" encoding="UTF-8"?>
<!DOCTYPE svg  PUBLIC '-//W3C//DTD SVG 20010904//EN'  'http://www.w3.org/TR/2001/REC-SVG-20010904/DTD/svg10.dtd'>
<svg width="84pt" height="84pt" version="1.0" viewBox="0 0 84 84" xmlns="http://www.w3.org/2000/svg">
	<g transform="translate(0 84) scale(.1 -.1)">
		<path d="m0 420v-420h420 420v420 420h-420-420v-420zm390 235c0-97-3-117-16-122-11-4-52 30-137 116l-122 121h138 137v-115zm213-6c-85-86-126-120-137-116-13 5-16 25-16 122v115h137 138l-122-121zm-304-197c-8-24-8-40 0-64 11-32 11-32-109-153l-120-120v305 305l120-120c120-121 120-121 109-153zm471-39v-298l-226 226 1 74v75l110 110c60 61 111 110 112 110 2 0 3-134 3-297zm-380-229v-114h-136-137l123 119c72 70 129 117 137 114 10-4 13-33 13-119zm214-1 117-113h-135-136v116c0 107 1 115 19 112 10-2 71-54 135-115z"/>
	</g>
</svg>
