<?xml version="1.0" encoding="UTF-8"?>
<svg width="78.003pt" height="78pt" version="1.0" viewBox="0 0 78.003 78" xmlns="http://www.w3.org/2000/svg">
	<g transform="translate(-6.0746 84) scale(.1 -.1)" fill="#00a900">
		<path d="m61 836c81-85 772-776 775-776 2 0 4 42 4 94v93l-292 297-291 296h-100c-55 0-98-2-96-4z"/>
		<path d="m341 835c2-2 114-115 249-250l245-246 3 92 3 91-152 159-151 159h-101c-55 0-98-2-96-5z"/>
		<path d="m725 730 110-110 3 81c3 78 1 84-24 111-26 26-32 28-113 28h-86l110-110z"/>
	</g>
</svg>
