<?xml version="1.0" encoding="UTF-8"?>
<!DOCTYPE svg  PUBLIC '-//W3C//DTD SVG 20010904//EN'  'http://www.w3.org/TR/2001/REC-SVG-20010904/DTD/svg10.dtd'>
<svg width="84pt" height="84pt" version="1.0" viewBox="0 0 84 84" xmlns="http://www.w3.org/2000/svg">
	<g transform="translate(0 84) scale(.1 -.1)">
		<path d="m290 813c-51-18-144-79-176-114-65-72-105-182-105-284 0-199 125-358 315-400 133-30 256-4 351 73 112 90 158 186 158 327 0 99-20 166-71 240-42 60-136 131-205 155-74 25-200 26-267 3zm224-113c124-39 200-147 200-285 0-89-27-157-85-215-111-111-298-114-409-8-101 97-128 233-70 348 48 95 98 137 200 166 63 18 89 17 164-6z"/>
		<path d="m307 603c-4-3-7-91-7-195v-188h120 120v189c0 163-2 190-16 195-21 8-209 8-217-1z"/>
	</g>
</svg>
