<?xml version="1.0" encoding="UTF-8"?>
<!DOCTYPE svg  PUBLIC '-//W3C//DTD SVG 20010904//EN'  'http://www.w3.org/TR/2001/REC-SVG-20010904/DTD/svg10.dtd'>
<svg width="84pt" height="84pt" version="1.0" viewBox="0 0 84 84" xmlns="http://www.w3.org/2000/svg">
	<g transform="translate(0 84) scale(.1 -.1)">
		<path d="m2 814c3-24 22-36 155-103 84-42 152-78 152-81s-68-39-152-81l-152-76-3-52c-2-28-1-51 1-51 3 0 83 41 179 90 96 50 178 90 181 90 4 0 7-124 7-275v-275h45 45v280 281l186-96c102-52 188-95 190-95s4 21 4 48v47l-155 80c-85 44-155 82-155 85s70 41 155 85c130 67 155 84 155 103 0 20-5 22-50 22-42 0-74-12-213-81l-163-82-156 82c-137 71-163 81-208 81-50 0-51-1-48-26z"/>
	</g>
</svg>
