<?xml version="1.0" encoding="UTF-8"?>
<!DOCTYPE svg  PUBLIC '-//W3C//DTD SVG 20010904//EN'  'http://www.w3.org/TR/2001/REC-SVG-20010904/DTD/svg10.dtd'>
<svg width="84pt" height="84pt" version="1.0" viewBox="0 0 84 84" xmlns="http://www.w3.org/2000/svg">
	<g transform="translate(0 84) scale(.1 -.1)">
		<path d="m451 728c-12-51-23-97-25-103-2-5-7-25-11-42-9-41-18-41-45-3-18 26-28 30-65 30-38 0-47-4-71-35-23-31-32-35-70-35h-44v-100-100h285 285v99 100l-37 3-38 3-23 95c-50 200-41 180-82 180h-37l-22-92z"/>
		<path d="m115 252c-53-37-115-120-115-154 0-16 2-28 4-28s18 22 36 49c17 28 49 66 71 85 32 29 47 36 81 36 39 0 46-5 118-80 42-44 83-80 91-80s48 36 89 80c73 77 77 80 120 80 56-1 123-46 176-120 40-55 54-62 54-26 0 29-108 144-159 169-43 21-94 22-129 1-15-9-55-46-90-83l-62-66-58 63c-100 110-151 126-227 74z"/>
		<path d="m137 195c-34-24-107-122-107-145 0-26 30-5 64 44 39 56 74 86 101 86 9 0 32-19 53-42 88-100 111-118 152-118 37 0 46 7 124 86l84 86 30-16c17-9 57-45 89-81s61-65 66-65c41 0-104 172-156 185-42 11-81-11-134-75-47-57-89-90-114-90-7 0-49 38-94 85-48 50-89 85-101 85-10 0-36-11-57-25z"/>
	</g>
</svg>
