<?xml version="1.0" encoding="UTF-8"?>
<!DOCTYPE svg  PUBLIC '-//W3C//DTD SVG 20010904//EN'  'http://www.w3.org/TR/2001/REC-SVG-20010904/DTD/svg10.dtd'>
<svg width="84pt" height="84pt" version="1.0" viewBox="0 0 84 84" xmlns="http://www.w3.org/2000/svg">
	<g transform="translate(0 84) scale(.1 -.1)">
		<path d="m503 712c-7-4-31-84-53-177-22-94-43-176-46-184-3-10-18-1-52 32-42 41-53 47-91 47s-49-6-99-54c-52-49-62-55-107-58l-50-3-3-152-3-153h411 411l-3 153-3 152-49 5-50 5-13 50c-8 28-15 57-18 65-2 8-19 74-37 145l-33 130-50 3c-27 1-56-1-62-6z"/>
	</g>
</svg>
