<?xml version="1.0" encoding="UTF-8"?>
<!DOCTYPE svg  PUBLIC '-//W3C//DTD SVG 20010904//EN'  'http://www.w3.org/TR/2001/REC-SVG-20010904/DTD/svg10.dtd'>
<svg width="84pt" height="84pt" version="1.0" viewBox="0 0 84 84" xmlns="http://www.w3.org/2000/svg">
	<g transform="translate(0 84) scale(.1 -.1)">
		<path d="m412 817c-14-17-42-123-42-159 0-15-3-29-8-31-4-3-39 6-77 19-79 27-145 32-145 10 0-25 67-100 132-148 19-15 21-19 8-27-68-42-143-124-137-151 4-22 86-15 158 14 66 27 63 29 75-59 3-27 13-65 20-84 8-18 14-35 14-37s-85-4-190-4h-190v-70-70h395 395v70 70h-181c-169 0-181 1-174 18 14 33 35 127 35 161 0 28 3 32 18 25 63-28 159-55 185-52 49 5 37 33-47 113l-73 70 49 38c54 42 111 114 101 130-8 13-97 3-153-18-25-9-52-19-60-21-12-4-18 11-27 70-18 114-50 161-81 123zm64-148c6-62 5-65-17-76-16-6-33-7-51-1-30 11-29 4-6 128 6 30 15 64 21 75 10 18 12 17 28-21 10-22 21-69 25-105zm-194-45c74-24 78-27 78-56 0-19-8-36-22-48-22-17-23-17-73 21-27 21-57 46-65 56-45 55-44 53-19 53 13 0 59-12 101-26zm418 19c0-12-50-64-100-104-42-34-47-35-68-21-15 10-22 24-22 47 0 31 3 34 53 50 28 10 55 20 59 24 11 10 78 13 78 4zm-298-78c0-5-5-11-11-13s-11 4-11 13 5 15 11 13 11-8 11-13zm88 0c0-8-4-15-9-15-13 0-22 16-14 24 11 11 23 6 23-9zm-25-27c37-17 36-72-2-92-24-12-31-12-55 0-37 19-40 75-5 92 29 14 32 14 62 0zm-108-55c-3-3-11-2-17 2-9 6-9 10 1 16 14 8 27-7 16-18zm168 18c3-5 1-12-5-16-5-3-10 1-10 9 0 18 6 21 15 7zm-170-82c0-32-3-35-60-55-33-12-78-24-99-28-36-7-38-6-27 8 8 9 10 16 6 16-10 0 33 40 92 85 42 32 48 34 67 21 14-9 21-24 21-47zm305-28c66-68 56-74-61-34-88 29-97 39-85 88 13 52 59 35 146-54zm-171 20c-3-6-10-7-18-2-7 5-10 14-6 21 9 14 29-2 24-19zm-84 9c3-5-1-10-9-10-9 0-16 5-16 10 0 6 4 10 9 10 6 0 13-4 16-10zm56-30c12-7 19-21 19-40 0-37-19-129-32-153-9-18-10-18-25 3-12 17-47 171-40 176 40 26 52 28 78 14z"/>
		<path d="m410 505c-11-13-11-18 2-31 20-20 50-7 46 20-4 26-30 32-48 11z"/>
	</g>
</svg>
