<?xml version="1.0" encoding="UTF-8"?>
<svg width="27.818pt" height="27.818pt" version="1.0" viewBox="0 0 27.818 27.818" xmlns="http://www.w3.org/2000/svg">
	<path d="m0 13.909v-13.909h27.818v27.818h-27.818zm10.145 3.9273 8.0132-8.0182h-8.6677v2.7595l-1.8-1.7776c-0.99-0.9777-1.8-1.935-1.8-2.1273s0.81-1.1496 1.8-2.1273l1.8-1.7776v2.7595h10.978l5.5347-5.5636h-24.04c0.23926 7.9498-0.33769 15.952 0.08432 23.891 0.04638 0 3.6902-3.6082 8.0975-8.0182zm15.624-12.927c-0.04661 0-3.1748 3.0927-6.9516 6.8727l-6.8669 6.8727h6.3383c0.06995-0.92727 0.1399-1.8545 0.20985-2.7818 1.2654 1.2889 2.5308 2.5778 3.7962 3.8667-1.2683 1.2838-2.5365 2.5676-3.8048 3.8513-0.0665-0.99086-0.133-1.9817-0.1995-2.9726h-8.3249l-5.2057 5.2364h21.094c-0.24005-6.9659 0.33902-13.992-0.08474-20.945z" fill="#0387fe" stroke-width=".32727"/>
</svg>
