<?xml version="1.0" encoding="UTF-8"?>
<!DOCTYPE svg  PUBLIC '-//W3C//DTD SVG 20010904//EN'  'http://www.w3.org/TR/2001/REC-SVG-20010904/DTD/svg10.dtd'>
<svg width="84pt" height="84pt" version="1.0" viewBox="0 0 84 84" xmlns="http://www.w3.org/2000/svg">
	<g transform="translate(0 84) scale(.1 -.1)">
		<path d="m393 818c-28-32-51-95-59-167-3-33-9-61-13-61-3 0-40 11-81 24-115 36-144 39-169 19-37-30-14-68 108-176 29-26 48-47 42-47-16 0-141-120-157-153-9-16-13-35-10-43 9-23 104-17 191 12 42 14 78 24 79 22 1-1 7-35 14-75 26-161 83-219 126-129 19 40 46 150 46 189 0 23 3 26 18 18 84-45 246-67 259-35 8 22-42 89-112 149l-61 51 74 68c76 72 106 114 96 139-13 35-81 29-207-16l-65-24-7 55c-9 76-31 145-56 176-25 32-30 32-56 4zm54-138c7-30 13-72 13-92 0-31-4-39-24-44-13-3-34-1-45 6-24 12-24 25 6 154 18 78 27 74 50-24zm-267-99c112-32 140-47 140-75 0-30-36-59-59-46-38 20-165 140-149 140 2 0 32-8 68-19zm523-12c-16-17-52-51-81-75-47-39-55-42-77-32-18 8-25 19-25 40 0 32 21 45 135 79 80 23 79 24 48-12zm-255-105c12-8 22-19 22-25 0-5-9 0-19 10-24 24-59 17-73-15-9-19-8-28 8-45 19-22 19-22-3-10-33 17-31 62 5 83 33 21 33 21 60 2zm22-68c0-8-7-16-15-20-12-4-13-2-2 14 14 24 17 25 17 6zm-152-60c-3-26-10-33-60-53-31-12-76-26-100-29l-43-7 45 48c66 69 109 95 138 82 18-8 22-17 20-41zm291 17c25-20 61-52 79-70 32-32 32-33 10-33-13 0-58 12-100 27-73 26-78 29-78 57 0 24 21 54 39 56 2 0 25-17 50-37zm-163-66c20-12 20-14 6-97-8-46-20-93-27-103-13-18-14-17-24 19-13 52-33 165-29 169 8 6 44 24 48 24 3 0 14-5 26-12z"/>
	</g>
</svg>
