<?xml version="1.0" encoding="UTF-8"?>
<!DOCTYPE svg  PUBLIC '-//W3C//DTD SVG 20010904//EN'  'http://www.w3.org/TR/2001/REC-SVG-20010904/DTD/svg10.dtd'>
<svg width="84pt" height="84pt" version="1.0" viewBox="0 0 84 84" xmlns="http://www.w3.org/2000/svg">
	<g transform="translate(0 84) scale(.1 -.1)">
		<path d="m320 815c-154-44-244-129-295-278-21-62-21-182 0-244 67-196 215-300 413-291 115 6 185 33 261 103 232 215 160 588-134 697-70 26-177 32-245 13zm194-115c84-26 155-93 182-172 26-74 24-179-3-240-82-183-327-232-471-94-50 48-88 121-98 188-10 74 24 173 83 238 48 53 65 63 143 86 63 18 89 17 164-6z"/>
		<path d="m382 613c-5-10-17-42-26-70l-18-53h-43c-24 0-48-6-54-14-8-9-11-47-9-107l3-94 73-3 72-3v84c0 61 5 97 18 126l19 41 21-48c17-36 22-68 22-125v-77h70 71l-3 108-3 107-98 10-23 65c-20 59-25 65-52 68-22 2-33-2-40-15z"/>
	</g>
</svg>
