<?xml version="1.0" encoding="UTF-8"?>
<!DOCTYPE svg  PUBLIC '-//W3C//DTD SVG 20010904//EN'  'http://www.w3.org/TR/2001/REC-SVG-20010904/DTD/svg10.dtd'>
<svg width="84pt" height="84pt" version="1.0" viewBox="0 0 84 84" xmlns="http://www.w3.org/2000/svg">
	<g transform="translate(0 84) scale(.1 -.1)">
		<path d="m48 569c-38-40-48-58-48-85v-35l35 27 35 26v-141-141h40 40l-2 198-3 197-25 2c-19 2-37-11-72-48z"/>
		<path d="m374 592c-9-16-34-40-55-53-34-21-39-28-39-61 0-31 3-36 18-31 9 3 29 17 45 31l27 26v-142-142h40 40v200 200h-29c-22 0-34-7-47-28z"/>
		<path d="m640 602c-22-11-42-31-54-55-10-21-17-40-15-41 2-2 21-6 42-10 33-6 37-5 37 13 0 29 36 46 66 32 18-8 24-19 24-41 0-24-15-47-70-106-64-69-110-137-110-164 0-6 47-10 130-10h130v40 40h-70c-38 0-70 4-70 9s22 28 49 50c88 74 113 168 58 218-51 47-89 53-147 25z"/>
	</g>
</svg>
