<?xml version="1.0" encoding="UTF-8"?>
<!DOCTYPE svg  PUBLIC '-//W3C//DTD SVG 20010904//EN'  'http://www.w3.org/TR/2001/REC-SVG-20010904/DTD/svg10.dtd'>
<svg width="84pt" height="84pt" version="1.0" viewBox="0 0 84 84" xmlns="http://www.w3.org/2000/svg">
	<g transform="translate(0 84) scale(.1 -.1)">
		<path d="m299 812c-41-27-62-57-83-124-4-12-16-18-36-18h-30v-80-80h30c27 0 30-3 30-30v-30h-60-60v-115-115h60 60v-55c0-54 0-55-30-55s-30-1-30-55v-55h270 270v55c0 52-1 55-25 55s-25 3-25 55v55h55 55v115 115h-55c-54 0-55 0-55 30 0 27 3 30 30 30h30v79 80l-31 3c-26 2-33 9-44 42-15 43-56 91-97 112-17 9-57 14-106 14-69 0-83-3-123-28zm170-12c53-15 134-104 114-124-10-10-311-7-318 4-8 13 40 87 67 101 52 28 89 33 137 19zm181-215v-35h-225-225v35 35h225 225v-35zm-60-275v-200h-165-165v200 200h165 165v-200zm-380 30v-60h-30-30v60 60h30 30v-60zm490 0v-60h-30-30v60 60h30 30v-60z"/>
		<path d="m381 438c-82-43-84-165-4-203 94-45 188 58 139 154-8 15-21 32-28 38-22 19-81 24-107 11zm91-65c38-34 9-93-45-93-57 0-86 52-50 92 20 22 70 23 95 1z"/>
	</g>
</svg>
