<?xml version="1.0" encoding="UTF-8"?>
<!DOCTYPE svg  PUBLIC '-//W3C//DTD SVG 20010904//EN'  'http://www.w3.org/TR/2001/REC-SVG-20010904/DTD/svg10.dtd'>
<svg width="84pt" height="84pt" version="1.0" viewBox="0 0 84 84" xmlns="http://www.w3.org/2000/svg">
	<g transform="translate(0 84) scale(.1 -.1)">
		<path d="m212 627-212-212 208-208c114-114 214-207 222-207 20 0 410 391 410 410 0 8-93 109-208 223l-207 207-213-213zm405-404-187-188-378 378 186 188 187 187 380-378-188-187z"/>
		<path d="m415 720c-4-12-27-42-51-66-49-47-54-71-24-119 19-31 18-69-2-63-5 2-17 17-26 33-43 78-43 78-58 64-27-28-27-71 1-113 25-37 30-73 10-69-6 0-16 18-23 40-7 21-22 47-32 58-20 19-20 19-20-37 0-95 24-148 107-238 43-46 83-80 94-80 17 0 19 8 19 60v60h-35c-19 0-35 3-35 6s12 20 27 38l26 31-22 3-22 4 25 33c19 24 22 34 12 37-10 2-6 14 14 46l27 43 26-40c32-47 32-51 11-51-13 0-11-6 10-26 31-32 33-44 5-44-19 0-18-3 12-37l33-38-84-6v-60c0-51 3-59 19-59 26 0 158 143 181 195 22 50 39 192 22 181-5-3-26-31-47-61-20-30-38-55-39-55-15 0-10 34 10 76 26 53 29 80 14 104-9 12-16 9-45-22-19-21-35-48-35-60-1-21-1-22-11-4-9 14-7 27 6 57 17 36 16 101 0 118-9 8-55-46-55-64 0-19-33-36-49-25-11 6-10 14 6 41 29 48 36 90 20 114-14 18-15 18-22-5z"/>
	</g>
</svg>
