<?xml version="1.0" encoding="UTF-8"?>
<!DOCTYPE svg  PUBLIC '-//W3C//DTD SVG 20010904//EN'  'http://www.w3.org/TR/2001/REC-SVG-20010904/DTD/svg10.dtd'>
<svg width="84pt" height="84pt" version="1.0" viewBox="0 0 84 84" xmlns="http://www.w3.org/2000/svg">
	<g transform="translate(0 84) scale(.1 -.1)">
		<path d="m120 710c-58-33-109-61-114-63-9-3 93-208 114-231 5-4 51 15 102 42l94 51 37-75 38-76-54-101c-30-56-67-123-81-149l-27-47 28-14 28-15 142 270 72-136c69-129 73-135 94-125 12 7 23 13 25 14 1 1-31 67-73 147-41 80-75 151-75 158s15 42 32 77c38 75 38 75 147 13 39-22 74-40 78-40 15 0 114 200 111 222-2 15-31 37-108 80-58 32-107 58-111 58-3 0-15-19-27-42-12-24-42-81-67-128-26-47-58-107-72-134l-25-50-52 96c-97 180-141 257-146 258-3 0-52-27-110-60zm125-81c19-33 35-63 35-67 0-8-113-72-127-72-11 0-80 126-73 133 4 4 121 65 127 67 1 0 18-27 38-61z"/>
	</g>
</svg>
