<?xml version="1.0" encoding="UTF-8"?>
<!DOCTYPE svg  PUBLIC '-//W3C//DTD SVG 20010904//EN'  'http://www.w3.org/TR/2001/REC-SVG-20010904/DTD/svg10.dtd'>
<svg width="84pt" height="84pt" version="1.0" viewBox="0 0 84 84" xmlns="http://www.w3.org/2000/svg">
	<g transform="translate(0 84) scale(.1 -.1)">
		<path d="m0 616c0-36 5-48 26-65 35-28 107-28 151-1 33 19 33 19 68-1 42-25 123-23 154 5 17 16 21 16 55-5 48-28 125-23 160 10 20 19 26 20 33 8 24-41 123-51 167-16 21 17 26 29 26 65 0 24-2 44-5 44s-19-10-35-21c-23-17-38-21-75-17-25 3-55 14-66 24-16 15-23 16-37 6-51-37-135-41-171-8-23 21-40 20-64-1-13-13-36-18-72-18s-59 5-72 18c-25 22-38 22-73-4-23-17-38-21-75-17-25 3-54 13-64 22-27 24-31 20-31-28z"/>
		<path d="m0 442c0-69 22-87 105-87 48 0 68 5 84 19 21 19 21 19 42 0 28-26 138-27 166-2 18 17 21 17 59-3 46-24 123-22 153 5 17 16 21 16 55-5 29-17 48-20 87-17 68 7 89 28 89 90v49l-26-20c-36-28-112-29-147-1-31 25-33 25-64 0-18-14-41-20-73-20s-55 6-73 20c-31 25-33 25-64 0-36-28-121-28-157 1l-26 20-26-20c-19-15-41-21-79-21s-60 6-79 21l-26 20v-49z"/>
		<path d="m0 261c0-32 5-53 16-62 25-20 127-24 163-6 28 14 34 14 62 0 39-19 140-14 166 9 17 15 20 15 42-3 32-26 129-27 162 0 23 18 24 18 50-1 22-17 38-20 87-16 78 5 92 18 92 79 0 27-3 49-6 49s-20-11-38-25c-42-32-73-32-121 1-39 26-41 26-90-5-41-27-76-25-120 5-39 26-41 26-90-5-41-27-76-25-119 4-46 31-50 31-90 0-18-14-44-25-58-25s-42 11-62 25-39 25-41 25c-3 0-5-22-5-49z"/>
	</g>
</svg>
