<?xml version="1.0" encoding="UTF-8"?>
<!DOCTYPE svg  PUBLIC '-//W3C//DTD SVG 20010904//EN'  'http://www.w3.org/TR/2001/REC-SVG-20010904/DTD/svg10.dtd'>
<svg width="84pt" height="84pt" version="1.0" viewBox="0 0 84 84" xmlns="http://www.w3.org/2000/svg">
	<g transform="translate(0 84) scale(.1 -.1)">
		<path d="m38 547c-37-22-38-23-38-84 0-35 2-63 5-63 2 0 21 11 41 25s42 25 48 25 28-11 48-25c47-32 77-32 124 0 20 14 42 25 48 25s28-11 48-25 47-25 60-25 40 11 60 25 42 25 48 25 28-11 50-25 50-25 62-25c13 0 40 11 60 25 46 31 49 31 98 0l40-25v65 65l-40 20c-49 25-61 25-102 0-42-25-68-25-115 0s-60 25-98 0c-39-26-74-25-130 2l-46 22-42-22c-52-27-83-28-122-2-38 25-61 25-107-3z"/>
		<path d="m33 407c-30-20-32-26-33-79 0-32 4-58 9-58 6 0 27 10 47 22l37 22 38-22c21-12 54-22 73-22s52 10 72 22l37 22 38-22c47-27 106-28 139-2 32 25 42 25 82 0 42-26 105-26 138 0 32 25 42 25 82 0 18-11 36-20 41-20 4 0 7 27 7 59 0 57-1 60-36 80-44 26-65 26-106 1-42-25-75-25-113 0s-66 25-107 0c-18-11-43-20-55-20-27 0-73 20-73 32 0 16-65 7-90-12-32-25-81-25-113 0s-73 24-114-3z"/>
	</g>
</svg>
