<?xml version="1.0" encoding="UTF-8"?>
<!DOCTYPE svg  PUBLIC '-//W3C//DTD SVG 20010904//EN'  'http://www.w3.org/TR/2001/REC-SVG-20010904/DTD/svg10.dtd'>
<svg width="84pt" height="84pt" version="1.0" viewBox="0 0 84 84" xmlns="http://www.w3.org/2000/svg">
	<g transform="translate(0 84) scale(.1 -.1)">
		<path d="m319 715c-71-80-96-102-104-92-170 193-184 204-209 165-14-24 0-47 97-152l77-85v-275-276h50 50v221 221l45-49 44-48 1-172v-173h50 50v166 167l90 96v-214-215h50 50v273l1 272 89 98c72 78 90 103 90 127 0 62-28 50-127-56l-93-99-98 103c-53 56-100 103-103 102-3 0-48-47-100-105zm179-82 70-77-70-78c-39-43-74-78-77-78-6 0-86 88-124 137-18 23-18 23 50 98 37 41 71 75 75 75 3 0 38-35 76-77z"/>
	</g>
</svg>
