<?xml version="1.0" encoding="UTF-8"?>
<!DOCTYPE svg  PUBLIC '-//W3C//DTD SVG 20010904//EN'  'http://www.w3.org/TR/2001/REC-SVG-20010904/DTD/svg10.dtd'>
<svg width="84pt" height="84pt" version="1.0" viewBox="0 0 84 84" xmlns="http://www.w3.org/2000/svg">
	<g transform="translate(0 84) scale(.1 -.1)">
		<path d="m14 805c-6-14 55-140 278-572 84-163 125-233 136-233 21 0 418 781 409 805-9 22-815 23-823 0zm724-67c-2-7-72-150-156-317l-154-304-159 309c-87 170-159 312-159 316 0 5 142 8 316 8 247 0 315-3 312-12z"/>
	</g>
</svg>
