<?xml version="1.0" encoding="UTF-8"?>
<!DOCTYPE svg  PUBLIC '-//W3C//DTD SVG 20010904//EN'  'http://www.w3.org/TR/2001/REC-SVG-20010904/DTD/svg10.dtd'>
<svg width="84pt" height="84pt" version="1.0" viewBox="0 0 84 84" xmlns="http://www.w3.org/2000/svg">
	<g transform="translate(0 84) scale(.1 -.1)">
		<path d="m197 794c-4-4-7-23-7-41 0-29-5-36-34-48-67-28-107-104-92-177 9-45 50-95 91-108l35-12v-154-154h25 25v155 155h60 61l-36 35c-28 29-35 43-35 75 0 53 17 87 57 111 24 15 41 19 63 14 18-4 30-2 30 3 0 12-144 62-177 62-19 0-22 6-25 42-3 41-22 60-41 42zm68-110c12-5 6-11-24-25-47-21-81-70-81-117 0-36 23-87 42-95 7-3 1-6-14-6-17-1-40 10-59 27-27 24-33 37-37 85-4 47-1 60 18 84 32 41 108 64 155 47z"/>
		<path d="m433 599c-56-35-61-113-11-166 18-19 32-23 81-23h60l-21 23c-44 47-21 129 40 142l31 7-54 19c-67 24-86 24-126-2z"/>
		<path d="m646 524c-31-32-33-62-6-92 17-18 32-22 82-22 48 0 59 3 50 12-17 17-15 63 4 78 13 12 9 16-33 32-62 23-65 23-97-8z"/>
		<path d="m800 512c0-4 9-13 20-20 16-10 20-10 20 2 0 8-7 17-16 20-20 8-24 8-24-2z"/>
		<path d="m818 423c-24-6-23-23 2-23 11 0 20 7 20 15s-1 14-2 14c-2-1-11-3-20-6z"/>
	</g>
</svg>
