<?xml version="1.0" encoding="UTF-8"?>
<!DOCTYPE svg  PUBLIC '-//W3C//DTD SVG 20010904//EN'  'http://www.w3.org/TR/2001/REC-SVG-20010904/DTD/svg10.dtd'>
<svg width="84pt" height="84pt" version="1.0" viewBox="0 0 84 84" xmlns="http://www.w3.org/2000/svg">
	<g transform="translate(0 84) scale(.1 -.1)">
		<path d="m177 743c-4-3-7-21-7-38 0-28-4-33-31-39-17-3-46-21-65-40l-34-34v-251c0-244-1-251-20-251-13 0-20-7-20-20 0-20 7-20 420-20s420 0 420 20c0 16-7 20-31 20h-31l62 52v128 128l-35 31c-20 17-56 36-80 42l-45 11v134 134h-248c-137 0-252-3-255-7zm473-146v-112l-52-19c-69-24-112-69-132-135-23-77 4-176 59-219l28-22h-117-116v249 249l-25 30c-13 16-38 35-55 42-18 8-30 20-30 31 0 18 11 19 220 19h220v-113z"/>
	</g>
</svg>
