<?xml version="1.0" encoding="UTF-8"?>
<!DOCTYPE svg  PUBLIC '-//W3C//DTD SVG 20010904//EN'  'http://www.w3.org/TR/2001/REC-SVG-20010904/DTD/svg10.dtd'>
<svg width="84pt" height="84pt" version="1.0" viewBox="0 0 84 84" xmlns="http://www.w3.org/2000/svg">
	<g transform="translate(0 84) scale(.1 -.1)">
		<path d="m363 755c-12-8-35-39-50-68-16-28-83-140-148-247s-123-209-128-227c-12-40 3-80 41-108 26-19 43-20 349-20h321l26 24c29 28 51 85 39 103-4 7-8 18-9 24-2 12-233 396-243 404-4 3-15 25-26 49-11 25-33 52-50 62-36 23-93 24-122 4zm90-117c18-14 231-364 242-398 4-14 1-28-11-41-16-18-33-19-259-19s-243 1-259 19c-12 13-15 27-11 41 7 22 214 370 236 396 14 17 40 18 62 2z"/>
	</g>
</svg>
