<?xml version="1.0" encoding="UTF-8"?>
<!DOCTYPE svg  PUBLIC '-//W3C//DTD SVG 20010904//EN'  'http://www.w3.org/TR/2001/REC-SVG-20010904/DTD/svg10.dtd'>
<svg width="84pt" height="84pt" version="1.0" viewBox="0 0 84 84" xmlns="http://www.w3.org/2000/svg">
	<g transform="translate(0 84) scale(.1 -.1)">
		<path d="m236 814c-27-14-78-56-115-93-92-94-116-157-115-301 0-92 4-114 28-173 41-97 129-185 224-222 65-25 77-27 193-23 110 3 130 7 174 30 62 32 154 128 189 196 24 48 26 60 26 197s-2 149-26 197c-37 73-129 162-199 193-53 23-69 25-194 25-126-1-140-3-185-26zm324-102c72-33 180-159 180-209 0-10-67-13-310-13-175 0-310 4-310 9 0 15 34 85 57 118 25 33 109 93 158 111 46 18 172 9 225-16zm173-379c-30-92-90-160-178-203-144-71-342 6-411 159-13 29-24 55-24 57s139 4 310 4c290 0 309-1 303-17z"/>
	</g>
</svg>
