<?xml version="1.0" encoding="UTF-8"?>
<!DOCTYPE svg  PUBLIC '-//W3C//DTD SVG 20010904//EN'  'http://www.w3.org/TR/2001/REC-SVG-20010904/DTD/svg10.dtd'>
<svg width="84pt" height="84pt" version="1.0" viewBox="0 0 84 84" xmlns="http://www.w3.org/2000/svg">
	<g transform="translate(0 84) scale(.1 -.1)">
		<path d="m415 768c-3-7-16-51-30-98-13-47-45-157-71-245-28-93-49-187-51-225-4-61-2-67 28-104 38-45 82-66 139-66 51 0 88 19 127 63 48 54 49 88 9 244-20 76-45 170-56 208-12 39-31 106-43 149-21 75-41 104-52 74zm46-300 25-103h-58c-48 0-58 3-55 15 3 8 15 54 28 103 13 48 26 87 29 87s17-46 31-102zm26-190c51-56 53-101 5-151-58-61-162-16-162 71 0 85 104 137 157 80z"/>
	</g>
</svg>
