<?xml version="1.0" encoding="UTF-8"?>
<!DOCTYPE svg  PUBLIC '-//W3C//DTD SVG 20010904//EN'  'http://www.w3.org/TR/2001/REC-SVG-20010904/DTD/svg10.dtd'>
<svg width="84pt" height="84pt" version="1.0" viewBox="0 0 84 84" xmlns="http://www.w3.org/2000/svg">
	<g transform="translate(0 84) scale(.1 -.1)">
		<path d="m222 734c-21-14-22-23-22-129v-113l-45-22c-48-23-79-59-91-104-3-15-17-34-30-43-29-19-31-43-5-50 12-3 23-17 26-34 4-15 17-44 30-64l24-35h-54c-54 0-55 0-55-30v-30h420 420v30c0 23-5 30-19 30-15 0-23 12-34 48-12 42-12 50 5 82 10 19 18 40 18 47s7 13 15 13c10 0 15 10 15 30 0 17-4 30-10 30-5 0-10 10-10 23 0 27-32 99-60 134-12 16-20 41-20 64 0 47-18 59-89 59-50 0-51 1-51 30 0 19-7 33-19 40-11 6-88 10-178 10-127 0-163-3-181-16zm318-54c0-5-24-10-54-10-66 0-86-16-86-69 0-25-7-44-19-55-11-10-25-31-31-47-14-32-17-33-54-19-26 9-26 11-26 110v100h135c83 0 135-4 135-10zm140-106c0-14 16-46 35-71 20-26 38-57 42-70 8-36-4-106-27-150-16-31-18-45-11-71l10-32-26 20c-34 27-37 26-88-16-47-38-47-38-109 10-37 29-40 29-67 14l-27-16 5 33c4 23-1 48-16 78-11 24-21 60-21 81 0 41 27 101 59 130 13 12 21 31 21 53v33h110 110v-26zm-385-164c27-18 28-20 9-20-12 0-27-7-34-15-17-20 3-45 36-45 15 0 24-6 24-16 0-9 7-29 17-44 15-27 15-29-8-58-49-62-132-66-186-9-44 47-51 64-42 110 5 30 18 52 48 79 47 44 88 50 136 18z"/>
	</g>
</svg>
