<?xml version="1.0" encoding="UTF-8"?>
<!DOCTYPE svg  PUBLIC '-//W3C//DTD SVG 20010904//EN'  'http://www.w3.org/TR/2001/REC-SVG-20010904/DTD/svg10.dtd'>
<svg width="84pt" height="84pt" version="1.0" viewBox="0 0 84 84" xmlns="http://www.w3.org/2000/svg">
	<g transform="translate(0 84) scale(.1 -.1)">
		<path d="m227 704c-4-4-7-26-7-49 0-27-6-48-16-56-26-22-65-108-71-159-6-48-7-49-42-52-51-4-49-31 3-38 36-5 40-8 51-48 7-23 18-48 24-55 7-9 7-25 1-48-5-19-14-53-20-76-10-41-11-42-58-45-34-2-47-7-47-18 0-13 46-15 355-15s355 2 355 15c0 10-12 16-37 18-35 3-37 5-57 65-25 72-26 91-7 106 8 6 19 31 25 56 10 39 14 44 43 47 41 4 45 32 7 36-22 3-28 10-34 40-8 47-50 141-75 167-11 12-20 38-22 65l-3 45-181 3c-99 1-183-1-187-4zm333-65c0-35 7-49 39-84 40-44 61-95 61-152v-33h-251-252l6 49c7 57 27 102 68 149 22 24 29 43 29 72v40h150 150v-41zm-210-555c0-2-32-4-71-4h-72l38 30 37 29 34-25c19-15 34-28 34-30zm250 0c0-2-30-4-67-4h-67l34 29 35 28 32-24c18-14 33-27 33-29z"/>
	</g>
</svg>
