<?xml version="1.0" encoding="UTF-8"?>
<!DOCTYPE svg  PUBLIC '-//W3C//DTD SVG 20010904//EN'  'http://www.w3.org/TR/2001/REC-SVG-20010904/DTD/svg10.dtd'>
<svg width="84pt" height="84pt" version="1.0" viewBox="0 0 84 84" xmlns="http://www.w3.org/2000/svg">
	<g transform="translate(0 84) scale(.1 -.1)">
		<path d="m390 741c0-25-5-30-45-41-99-28-177-106-205-205-12-43-14-45-51-45-38 0-39-1-39-35 0-33 2-35 34-35 19 0 37 6 39 13 4 8 6 7 6-4 3-48 35-121 73-164 114-129 312-132 434-8 39 40 74 110 74 147 0 19 4 21 40 18 40-4 40-4 40 32 0 35-1 36-40 36-32 0-40 4-40 19 0 29-29 92-62 134-33 41-98 83-153 98-30 9-35 14-35 39 0 28-3 30-35 30s-35-3-35-29zm127-86c81-34 134-97 154-182l7-33h-254c-293 0-278-7-221 101 29 57 39 67 96 96 72 38 154 44 218 18z"/>
	</g>
</svg>
