<?xml version="1.0" encoding="UTF-8"?>
<!DOCTYPE svg  PUBLIC '-//W3C//DTD SVG 20010904//EN'  'http://www.w3.org/TR/2001/REC-SVG-20010904/DTD/svg10.dtd'>
<svg width="84pt" height="84pt" version="1.0" viewBox="0 0 84 84" xmlns="http://www.w3.org/2000/svg">
	<g transform="translate(0 84) scale(.1 -.1)">
		<path d="m282 821c-104-39-164-85-218-168-54-84-66-136-62-260 3-101 6-114 37-177 40-78 114-151 193-190 49-24 61-26 193-26s144 2 193 26c78 39 153 112 191 187l33 64-4 144c-4 174-11 193-112 295-93 93-150 117-291 121-80 3-111-1-153-16zm258-72c86-26 196-140 221-228 19-65 17-166-5-231-14-41-35-71-85-121-86-87-149-112-266-107-137 6-238 74-300 202-30 63-35 83-35 144 0 247 229 413 470 341z"/>
		<path d="m287 542c-70-70-127-132-127-138 0-12 243-254 256-254s264 253 264 265c0 13-242 255-255 255-6 0-68-57-138-128z"/>
	</g>
</svg>
