<?xml version="1.0" encoding="UTF-8"?>
<!DOCTYPE svg  PUBLIC '-//W3C//DTD SVG 20010904//EN'  'http://www.w3.org/TR/2001/REC-SVG-20010904/DTD/svg10.dtd'>
<svg width="84pt" height="84pt" version="1.0" viewBox="0 0 84 84" xmlns="http://www.w3.org/2000/svg">
	<g transform="translate(0 84) scale(.1 -.1)">
		<path d="m313 825c-77-21-163-68-205-112-20-21-53-73-73-115-37-77-37-78-33-190 3-97 7-121 29-169 73-156 235-249 408-236 145 11 245 70 329 193 55 81 77 228 47 329-34 120-116 225-209 266-108 47-202 58-293 34zm67-84c0-37-1-39-39-45-46-7-124-58-163-106-15-20-34-59-40-88-13-51-13-52-50-52-34 0-38 3-38 25 0 13 10 50 22 82 40 109 181 221 281 222 25 1 27-2 27-38zm164 19c61-23 133-82 175-144 24-35 61-130 61-158 0-4-20-8-45-8-38 0-45 3-45 19 0 31-39 114-68 144-31 33-132 87-162 87-17 0-20 6-20 40 0 36 3 40 25 40 13 0 49-9 79-20zm-40-135c113-48 166-206 105-315-88-158-309-158-399 1-35 61-35 158 0 215 68 109 179 147 294 99zm-370-279c13-86 103-179 201-206 43-12 45-14 45-51 0-22-4-39-9-39-32 0-144 46-183 75-73 54-138 168-138 242 0 20 5 23 39 23 38 0 39-1 45-44zm641 7c-11-61-56-144-105-193s-132-94-192-105l-38-6v38c0 37 2 39 48 55 109 39 172 103 194 196l13 52h43 43l-6-37z"/>
	</g>
</svg>
