<?xml version="1.0" encoding="UTF-8"?>
<!DOCTYPE svg  PUBLIC '-//W3C//DTD SVG 20010904//EN'  'http://www.w3.org/TR/2001/REC-SVG-20010904/DTD/svg10.dtd'>
<svg width="84pt" height="84pt" version="1.0" viewBox="0 0 84 84" xmlns="http://www.w3.org/2000/svg">
	<g transform="translate(0 84) scale(.1 -.1)">
		<path d="m207 637c-162-158-208-207-207-227 0-37 374-410 411-410 20 0 70 43 227 196 137 133 202 204 202 218 0 24-388 426-411 426-8-1-108-92-222-203zm368-377-156-154-304 304 309 309 306-304-155-155z"/>
		<path d="m290 545c-72-71-130-133-130-139 0-9 108-117 218-220l43-40 130 130c71 71 128 134 127 139-2 6-60 66-131 134l-127 124-130-128z"/>
	</g>
</svg>
