<?xml version="1.0" encoding="UTF-8"?>
<!DOCTYPE svg  PUBLIC '-//W3C//DTD SVG 20010904//EN'  'http://www.w3.org/TR/2001/REC-SVG-20010904/DTD/svg10.dtd'>
<svg width="84pt" height="84pt" version="1.0" viewBox="0 0 84 84" xmlns="http://www.w3.org/2000/svg">
	<g transform="translate(0 84) scale(.1 -.1)">
		<path d="m195 815c-60-37-144-124-171-177-23-45-24-57-24-230v-183l36-55c45-70 78-104 133-141l44-29h217 217l39 26c55 37 91 72 125 123l29 44v219c0 251 2 244-87 329-103 100-101 99-324 99-188-1-195-1-234-25zm391-55c184-90 256-256 202-470-23-92-133-208-221-235-189-56-351-3-456 150-73 105-82 258-23 377 92 187 315 267 498 178z"/>
		<path d="m315 742c-76-33-103-51-147-101-58-64-77-105-86-184-19-152 57-291 196-359 58-29 76-33 142-32 99 1 180 36 248 108 76 80 97 133 97 241 0 75-4 98-25 140-31 65-113 146-175 175-68 31-194 37-250 12zm331-220c55-133 3-277-120-333-75-34-191-22-251 26-19 15-13 22 155 190 188 188 186 187 216 117z"/>
	</g>
</svg>
