<?xml version="1.0" encoding="UTF-8"?>
<!DOCTYPE svg  PUBLIC '-//W3C//DTD SVG 20010904//EN'  'http://www.w3.org/TR/2001/REC-SVG-20010904/DTD/svg10.dtd'>
<svg width="84pt" height="84pt" version="1.0" viewBox="0 0 84 84" xmlns="http://www.w3.org/2000/svg">
	<g transform="translate(0 84) scale(.1 -.1)">
		<path d="m350 769c-41-40-137-130-212-202-109-102-138-135-138-156 0-38 373-411 411-411 20 0 70 43 227 196 137 134 202 204 202 218s-66 88-203 224c-111 111-204 202-207 202s-39-32-80-71zm380-354-316-316-149 156-148 156 153 154 154 154 153-151 153-153z"/>
		<path d="m327 502c-42-42-77-84-77-92 0-9 37-52 83-98l82-82 180 180-85 85c-47 47-89 85-95 85s-45-35-88-78z"/>
	</g>
</svg>
