<?xml version="1.0" encoding="UTF-8"?>
<!DOCTYPE svg  PUBLIC '-//W3C//DTD SVG 20010904//EN'  'http://www.w3.org/TR/2001/REC-SVG-20010904/DTD/svg10.dtd'>
<svg width="84pt" height="83pt" version="1.0" viewBox="0 0 84 83" xmlns="http://www.w3.org/2000/svg">
	<g transform="translate(0 83) scale(.1 -.1)">
		<path d="m310 771c-48-16-105-49-131-78-63-69-94-163-57-171 12-2 20 7 27 35 16 59 54 105 117 143 53 32 65 35 134 35 64 0 82-4 122-27 59-35 115-101 129-150 10-39 15-43 42-32 13 5 14 11 3 42-29 80-87 146-166 187-39 20-177 30-220 16z"/>
		<path d="m314 686c-67-29-134-107-134-156 0-31 44-23 48 9 6 39 83 108 131 116 71 12 119-2 167-50 23-24 44-53 46-66 2-16 11-25 26-27 22-3 23-1 17 30-19 90-112 158-214 158-31-1-70-7-87-14z"/>
		<path d="m322 601c-18-12-40-37-49-57-15-31-15-36-3-44 22-14 30-12 30 6 0 28 56 74 91 74 42 0 95-34 103-66 5-18 12-24 22-20 9 3 20 6 25 6 13 0-25 71-50 94-33 30-126 33-169 7z"/>
		<path d="m379 537c-13-7-28-22-34-35-5-12-19-22-30-22s-52-33-97-77c-62-62-89-81-145-102l-68-26-3-68c-3-64-2-67 20-67 16 0 28-10 38-33 29-61 106-62 142-2l20 35h189 189l10-24c18-47 76-69 121-46 10 6 26 24 34 40 11 21 23 30 40 30h25v123 123l-96 94h-133c-120 0-133 2-138 18-2 10-17 26-32 35-22 13-31 14-52 4zm171-157v-40h44c44 0 44 0 42-32-2-31-5-33-44-36l-42-3v-45c0-44 0-44-35-44s-35 0-35 45v45h-40c-39 0-40 1-40 35s1 35 40 35h40v40c0 39 1 40 35 40s35-1 35-40z"/>
	</g>
</svg>
