<?xml version="1.0" encoding="UTF-8"?>
<!DOCTYPE svg  PUBLIC '-//W3C//DTD SVG 20010904//EN'  'http://www.w3.org/TR/2001/REC-SVG-20010904/DTD/svg10.dtd'>
<svg width="84pt" height="84pt" version="1.0" viewBox="0 0 84 84" xmlns="http://www.w3.org/2000/svg">
	<g transform="translate(0 84) scale(.1 -.1)">
		<path d="m370 635v-175h-170-170l-6-24c-3-14-3-34 1-45 6-20 13-21 176-21h169v-175-175h50 50v175 175h175 175v45 45h-175-175v175 175h-50-50v-175z"/>
		<path d="m246 770c-82-38-168-132-191-207-6-23-6-23 114-23h121v125c0 69-1 125-2 124-2 0-21-9-42-19z"/>
		<path d="m550 665v-125h125c69 0 125 2 125 5 0 23-59 113-101 154-41 41-122 91-145 91-2 0-4-56-4-125z"/>
		<path d="m50 275c0-21 56-108 91-144 36-35 123-91 144-91 3 0 5 54 5 120v120h-120c-66 0-120-2-120-5z"/>
		<path d="m550 160c0-66 3-120 6-120s30 12 60 26c60 29 135 107 165 173l18 41h-124-125v-120z"/>
	</g>
</svg>
