<?xml version="1.0" encoding="UTF-8"?>
<!DOCTYPE svg  PUBLIC '-//W3C//DTD SVG 20010904//EN'  'http://www.w3.org/TR/2001/REC-SVG-20010904/DTD/svg10.dtd'>
<svg width="84pt" height="84pt" version="1.0" viewBox="0 0 84 84" xmlns="http://www.w3.org/2000/svg">
	<g transform="translate(0 84) scale(.1 -.1)">
		<path d="m328 689-44-131-130-48-129-47v-48-48l124-43c68-24 127-47 131-51s26-63 50-131l43-123 102 6 46 124 47 123 123 47 124 47v49 49l-248 94-47 128-47 129-100 6-45-132zm164-141c12-37 21-45 56-58l42-14v-57-57l-40-16c-31-12-44-25-56-56l-16-40h-57-57l-14 42c-13 36-21 44-58 56l-43 14 3 56c3 55 3 55 46 71 23 8 42 18 42 22s7 23 15 43c15 35 17 36 69 36h54l14-42z"/>
	</g>
</svg>
