<?xml version="1.0" encoding="UTF-8"?>
<!DOCTYPE svg  PUBLIC '-//W3C//DTD SVG 20010904//EN'  'http://www.w3.org/TR/2001/REC-SVG-20010904/DTD/svg10.dtd'>
<svg width="84pt" height="84pt" version="1.0" viewBox="0 0 84 84" xmlns="http://www.w3.org/2000/svg">
	<g transform="translate(0 84) scale(.1 -.1)">
		<path d="m345 833c-135-31-249-124-308-251-68-150-39-325 76-449 96-104 178-136 330-131 92 3 109 6 169 36 88 43 166 127 202 216 37 95 37 227 0 322-31 75-104 161-171 201-87 51-215 75-298 56zm182-78c28-8 79-34 113-57 56-37 67-50 99-117 33-70 36-83 36-166 0-80-3-97-31-156-38-80-78-119-168-164-62-32-77-35-153-35-74 0-93 4-149 31-112 53-181 144-204 269-17 91 17 213 81 295 72 90 249 138 376 100z"/>
		<path d="m370 600v-140h-135-135v-45-45h135 135v-140-140h50 50v140 140h135 135v45 45h-135-135v140 140h-50-50v-140z"/>
	</g>
</svg>
