<?xml version="1.0" encoding="UTF-8"?>
<!DOCTYPE svg  PUBLIC '-//W3C//DTD SVG 20010904//EN'  'http://www.w3.org/TR/2001/REC-SVG-20010904/DTD/svg10.dtd'>
<svg width="84pt" height="84pt" version="1.0" viewBox="0 0 84 84" xmlns="http://www.w3.org/2000/svg">
	<g transform="translate(0 84) scale(.1 -.1)">
		<path d="m370 635v-175h-175-175v-45-45h175 175v-175-175h50 50v175 175h175 175v45 45h-175-175v175 175h-50-50v-175z"/>
		<path d="m159 681c-62-62-23-161 63-161 99 0 134 131 47 176-43 22-77 17-110-15z"/>
		<path d="m559 681c-61-61-23-161 61-161 71 0 112 58 90 126-22 65-102 84-151 35z"/>
		<path d="m156 284c-38-38-36-95 3-135 62-61 161-14 161 77 0 15-12 38-29 55-40 39-97 41-135 3z"/>
		<path d="m556 284c-38-38-36-95 3-135 33-33 67-37 111-14 33 17 54 70 44 109-16 65-109 88-158 40z"/>
	</g>
</svg>
