<?xml version="1.0" encoding="UTF-8"?>
<!DOCTYPE svg  PUBLIC '-//W3C//DTD SVG 20010904//EN'  'http://www.w3.org/TR/2001/REC-SVG-20010904/DTD/svg10.dtd'>
<svg width="84pt" height="84pt" version="1.0" viewBox="0 0 84 84" xmlns="http://www.w3.org/2000/svg">
	<g transform="translate(0 84) scale(.1 -.1)">
		<path d="m385 822c-16-10-68-39-115-64s-105-58-130-72l-45-26h328c180 0 327 2 327 4 0 6-315 176-326 176-5 0-22-8-39-18z"/>
		<path d="m185 637c-77-31-105-69-105-141 0-41 48-103 83-108 21-3 22-9 25-105l3-103h234 235v100 100l35 14c68 29 95 117 55 181-39 63-69 70-315 72-152 1-229-2-250-10zm517-74c54-62 13-133-77-133-67 0-83 81-17 88 23 2 35-2 44-17 7-12 21-21 30-21 29 0 21 36-14 65-26 22-39 26-67 21-40-6-81-46-81-78 0-35 31-88 56-94 23-6 24-11 24-80v-74h-175-175v75c0 61 3 75 15 75 9 0 27 12 40 26 50 54 19 139-56 150-28 5-41 1-66-20-41-35-50-66-18-66 15 0 26 8 30 20 10 31 72 28 87-5 17-38-12-65-69-65-75 0-114 63-73 120l21 30h263c238 0 264-2 278-17z"/>
		<path d="m70 85v-75h350 350v75 75h-350-350v-75z"/>
	</g>
</svg>
