<?xml version="1.0" encoding="UTF-8"?>
<!DOCTYPE svg  PUBLIC '-//W3C//DTD SVG 20010904//EN'  'http://www.w3.org/TR/2001/REC-SVG-20010904/DTD/svg10.dtd'>
<svg width="84pt" height="84pt" version="1.0" viewBox="0 0 84 84" xmlns="http://www.w3.org/2000/svg">
	<g transform="translate(0 84) scale(.1 -.1)">
		<path d="m360 765c-42-63-54-74-73-70-34 7-140 26-157 28-8 1-14-5-13-13 2-17 21-123 28-157 4-19-7-31-70-73-45-30-75-57-75-68 0-10 30-36 75-66 41-27 75-51 75-55-1-3-9-46-19-96-10-49-17-92-15-94 3-3 116 19 176 35 12 4 30-14 64-65 63-95 78-95 141-1 32 49 51 69 62 66 9-3 41-10 71-15 30-6 68-14 84-17 28-7 29-6 22 22-3 16-11 54-17 84-5 30-12 62-15 71-3 11 17 30 66 62 93 62 93 77 0 137-55 35-70 49-66 65 2 11 12 55 21 98 10 42 16 79 14 81s-44-5-94-15c-49-10-93-18-96-19-4 0-28 34-55 75-30 45-56 75-66 75-11 0-38-30-68-75zm108-126c23-36 38-49 50-45 9 3 39 8 65 12 47 6 48 6 42-17-3-13-9-42-13-64l-8-40 54-37 55-36-52-34-52-33 6-54c4-30 9-61 13-69 4-12 0-14-21-8-15 3-46 9-70 12-41 5-43 5-70-40-16-25-32-48-37-51-4-3-23 18-41 46l-32 51-49-6c-26-4-56-10-64-13-15-5-16 0-10 43 4 27 9 57 12 66 4 12-11 28-51 54l-56 37 56 36c43 28 54 40 51 56-3 11-8 40-12 64l-7 44 39-7c21-4 50-9 64-11 21-4 30 3 58 45 17 28 35 50 40 50 4 0 22-23 40-51z"/>
	</g>
</svg>
