<?xml version="1.0" encoding="UTF-8"?>
<!DOCTYPE svg  PUBLIC '-//W3C//DTD SVG 20010904//EN'  'http://www.w3.org/TR/2001/REC-SVG-20010904/DTD/svg10.dtd'>
<svg width="84pt" height="84pt" version="1.0" viewBox="0 0 84 84" xmlns="http://www.w3.org/2000/svg">
	<g transform="translate(0 84) scale(.1 -.1)">
		<path d="m72 757c-12-13-22-29-22-35s62-139 138-294c76-156 153-316 172-356l33-73 78 6 180 352c98 194 179 359 179 366s-10 23-23 35c-23 22-28 22-368 22h-346l-21-23zm445-292c-39-80-76-144-80-142-4 1-39 66-77 145l-69 142h149 150l-73-145z"/>
	</g>
</svg>
