<?xml version="1.0" encoding="UTF-8"?>
<!DOCTYPE svg  PUBLIC '-//W3C//DTD SVG 20010904//EN'  'http://www.w3.org/TR/2001/REC-SVG-20010904/DTD/svg10.dtd'>
<svg width="84pt" height="84pt" version="1.0" viewBox="0 0 84 84" xmlns="http://www.w3.org/2000/svg">
	<g transform="translate(0 84) scale(.1 -.1)">
		<path d="m45 767c-3-6-4-170-3-362l3-350 373-3 372-2v365 365h-370c-288 0-372-3-375-13zm230-362c38-72 80-151 92-177l22-48h-114-115l1 223v222l23-45c12-25 53-103 91-175zm415-15v-210h-110c-60 0-110 3-110 8 0 7 83 164 164 311 25 47 46 88 46 93 0 4 2 8 5 8s5-94 5-210z"/>
	</g>
</svg>
