<?xml version="1.0" encoding="UTF-8"?>
<!DOCTYPE svg  PUBLIC '-//W3C//DTD SVG 20010904//EN'  'http://www.w3.org/TR/2001/REC-SVG-20010904/DTD/svg10.dtd'>
<svg width="84pt" height="84pt" version="1.0" viewBox="0 0 84 84" xmlns="http://www.w3.org/2000/svg">
	<g transform="translate(0 84) scale(.1 -.1)">
		<path d="m0 732c0-45 3-51 65-112l65-64v-157-157l-65-57c-56-49-65-61-65-91 0-34 0-34 48-34 45 0 51 4 102 55l54 55h216 216l54-55c51-51 57-55 102-55 46 0 48 1 48 28 0 21-16 43-65 92l-65 64v156 156l65 64c64 63 66 67 63 110-5 71-31 67-127-19l-78-71h-213-213l-73 70c-58 56-78 70-103 70-30 0-31-1-31-48zm620-332v-150h-205-205v150 150h205 205v-150z"/>
	</g>
</svg>
