<?xml version="1.0" encoding="UTF-8"?>
<!DOCTYPE svg  PUBLIC '-//W3C//DTD SVG 20010904//EN'  'http://www.w3.org/TR/2001/REC-SVG-20010904/DTD/svg10.dtd'>
<svg width="84pt" height="84pt" version="1.0" viewBox="0 0 84 84" xmlns="http://www.w3.org/2000/svg">
	<g transform="translate(0 84) scale(.1 -.1)">
		<path d="m32 758c-9-9-12-97-12-344 0-183 3-339 6-348 5-14 50-16 395-16h389l-2 357-3 358-380 3c-288 2-384-1-393-10zm348-84c0-4-14-32-31-63-57-100-232-406-235-410-2-2-4 104-4 237v242h135c74 0 135-3 135-6zm350-231-1-238-30 50c-65 108-132 223-165 283-19 35-44 77-54 95-11 18-20 35-20 40 0 4 61 7 135 7h135v-237zm-134-179c29-49 56-98 60-107 6-16-13-17-235-17-133 0-241 3-241 6 0 4 31 59 68 123 38 64 92 158 122 209l53 94 60-109c33-59 84-149 113-199z"/>
	</g>
</svg>
