<?xml version="1.0" encoding="UTF-8"?>
<!DOCTYPE svg  PUBLIC '-//W3C//DTD SVG 20010904//EN'  'http://www.w3.org/TR/2001/REC-SVG-20010904/DTD/svg10.dtd'>
<svg width="84pt" height="84pt" version="1.0" viewBox="0 0 84 84" xmlns="http://www.w3.org/2000/svg">
	<g transform="translate(0 84) scale(.1 -.1)">
		<path d="m285 755c-22-21-25-33-25-95v-70h176 175l-2 80c-2 78-3 82-30 95-20 11-63 15-149 15-115 0-122-1-145-25zm273-77 3-48h-125-126v38c0 59 10 63 135 60l110-3 3-47z"/>
		<path d="m112 544c-22-15-22-19-22-249 0-221 1-235 19-245 12-6 134-10 325-10 264 0 307 2 320 16 14 13 16 49 16 240 0 211-1 225-20 244s-33 20-318 20c-253 0-301-2-320-16zm458-64c16-16 20-33 20-85 0-95-13-105-135-105-95 0-95 0-95-25s1-25 90-25c73 0 90-3 90-15s-17-15-90-15h-90v-40c0-36-2-40-25-40-22 0-25 4-25 40 0 29-4 40-15 40-8 0-15 7-15 15s7 15 15 15c9 0 15 9 15 25s-6 25-15 25c-8 0-15 9-15 20s7 20 15 20c12 0 15 14 15 69 0 94 11 101 142 101 85 0 101-3 118-20z"/>
		<path d="m372 448c-7-7-12-36-12-65v-53h71c93 0 109 9 109 63 0 24-5 48-12 55s-40 12-78 12-71-5-78-12z"/>
	</g>
</svg>
