<?xml version="1.0" encoding="UTF-8"?>
<!DOCTYPE svg  PUBLIC '-//W3C//DTD SVG 20010904//EN'  'http://www.w3.org/TR/2001/REC-SVG-20010904/DTD/svg10.dtd'>
<svg width="84pt" height="84pt" version="1.0" viewBox="0 0 84 84" xmlns="http://www.w3.org/2000/svg">
	<g transform="translate(0 84) scale(.1 -.1)">
		<path d="m577 734c-4-4-8-102-9-218s-4-175-5-131c-2 44-8 84-13 89s-41-22-90-69l-80-78v76c0 42-3 77-7 77s-43-35-85-77l-78-78v72c0 40-4 74-9 77s-48-36-95-88l-86-93v-142-141h395 395v366 365l-52-3-53-3-10-430-10 430-50 3c-28 2-54 0-58-4z"/>
	</g>
</svg>
