<?xml version="1.0" encoding="UTF-8"?>
<!DOCTYPE svg  PUBLIC '-//W3C//DTD SVG 20010904//EN'  'http://www.w3.org/TR/2001/REC-SVG-20010904/DTD/svg10.dtd'>
<svg width="84pt" height="84pt" version="1.0" viewBox="0 0 84 84" xmlns="http://www.w3.org/2000/svg">
	<g transform="translate(0 84) scale(.1 -.1)">
		<path d="m365 765c-42-22-65-52-65-86v-29h121 121l-7 28c-10 43-34 73-70 88-44 18-63 18-100-1z"/>
		<path d="m204 646c-41-18-74-62-74-97 0-26-3-28-47-31-45-3-48-5-46-29 1-14 32-88 70-165l68-139 65-5c50-4 60-7 42-13-67-25-40-137 33-137 83 0 103 114 25 143-8 3 34 6 93 6l108 1-27-23c-51-45-18-127 52-127 63 0 89 89 38 129l-27 21h46c37 0 50 5 61 23 30 45 137 297 131 307-3 5-26 10-51 10-40 0-44 2-44 25 0 16-15 42-39 68-36 38-44 42-87 41-41-1-52-6-81-37-22-25-33-47-33-67 0-30-1-30-53-30-54 0-54 0-65 38-23 76-95 116-158 88z"/>
	</g>
</svg>
