<?xml version="1.0" encoding="UTF-8"?>
<!DOCTYPE svg  PUBLIC '-//W3C//DTD SVG 20010904//EN'  'http://www.w3.org/TR/2001/REC-SVG-20010904/DTD/svg10.dtd'>
<svg width="84pt" height="84pt" version="1.0" viewBox="0 0 84 84" xmlns="http://www.w3.org/2000/svg">
	<g transform="translate(0 84) scale(.1 -.1)">
		<path d="m347 774c-4-4-7-16-7-26s-7-29-15-42c-14-21-13-26 8-56 12-19 31-37 42-40s21-14 23-25c7-44 59-58 92-25 17 17 21 18 26 6 3-8 24-18 47-21 33-6 43-4 54 11 13 18 15 18 24 2 11-21 59-24 77-6 29 29-4 106-49 115-16 3-29 11-29 19 0 16-39 44-62 44-9 0-24-7-32-16-9-8-16-11-16-5s-7 11-16 11c-8 0-12 5-9 10 3 6 3 19 0 30-8 25-56 27-75 5-8-9-16-12-19-6-8 13-55 24-64 15z"/>
		<path d="m58 730c-29-18-32-65-6-102 13-18 26-35 29-38s8-12 11-21c9-24 57-33 77-15 11 10 22 12 31 6 23-14 70 16 70 45 0 14 5 34 11 44 16 24 5 63-21 79-17 10-28 10-56 0-19-6-34-16-34-20s-9 1-20 12c-21 21-64 26-92 10z"/>
		<path d="m644 487c-2-7-3-114-2-237l3-225 63-3 62-3v241 240h-60c-40 0-62-4-66-13z"/>
		<path d="m54 297c-2-7-3-74-2-148l3-134 288-3 288-2-3 147-3 148-283 3c-226 2-284 0-288-11z"/>
	</g>
</svg>
