<?xml version="1.0" encoding="UTF-8"?>
<!DOCTYPE svg  PUBLIC '-//W3C//DTD SVG 20010904//EN'  'http://www.w3.org/TR/2001/REC-SVG-20010904/DTD/svg10.dtd'>
<svg width="84pt" height="84pt" version="1.0" viewBox="0 0 84 84" xmlns="http://www.w3.org/2000/svg">
	<g transform="translate(0 84) scale(.1 -.1)">
		<path d="m503 788c-18-13-33-29-33-35 0-21-29-15-52 12-27 31-66 32-102 4-24-19-31-20-72-10-48 12-74 4-74-24 0-7-6-17-13-23-15-13-14-77 3-97 19-22 67-28 100-12 16 9 30 11 30 6 0-4 11-16 25-25 29-19 68-13 93 16 22 27 44 25 80-5 34-29 50-31 78-10 20 15 56 20 67 9 3-4 0-16-8-28-11-14-15-49-15-118 0-54-2-98-5-98s-60 21-126 46c-78 29-125 42-131 36-5-5-8-27-6-48 3-33 8-41 38-56 19-9 32-17 29-18-8 0-250 88-277 102-31 16-44 0-40-48 3-33 8-41 38-56l35-16-35 1-35 2-3-120c-1-66 0-130 3-142l5-23h330 330v276c0 267-1 276-20 281-11 3-20 12-20 21 0 28-34 92-52 98-12 3-18 15-18 34s-7 33-20 40c-11 6-20 17-20 25s-8 15-17 15c-10 0-27 3-38 5-12 4-33-4-52-17zm-43-488c18-12 2-12-25 0-13 6-15 9-5 9 8 0 22-4 30-9zm-182-45c37-13 61-24 54-24-16-1-162 50-162 56 0 5 14 1 108-32zm282 8c30-11 31-12 6-8-16 4-43 13-60 20-23 11-25 13-6 8 14-3 41-12 60-20z"/>
	</g>
</svg>
