<?xml version="1.0" encoding="UTF-8"?>
<!DOCTYPE svg  PUBLIC '-//W3C//DTD SVG 20010904//EN'  'http://www.w3.org/TR/2001/REC-SVG-20010904/DTD/svg10.dtd'>
<svg width="84pt" height="84pt" version="1.0" viewBox="0 0 84 84" xmlns="http://www.w3.org/2000/svg">
	<g transform="translate(0 84) scale(.1 -.1)">
		<path d="m132 728c-22-22-12-43 47-102l60-59-46-41c-33-29-58-42-87-46-36-4-45-11-73-55-18-27-33-62-33-77v-28h76c88 0 104 10 104 68 0 38 3 42 66 81 36 22 73 41 82 41 10 0 39-22 65-48l47-48v-74c0-68-2-76-22-85-24-11-34-49-24-91 6-22 12-24 61-24 30 0 55 5 55 10 0 6 47 10 120 10s120-4 120-10c0-5 20-10 45-10h45v200 200h-76c-67 0-76-2-81-20-4-16-14-20-44-20-39 0-39 0-39 39 0 44-10 51-74 51-48 0-66-13-66-48 0-23 0-23-24 5-22 25-23 28-7 33 10 3 32 17 49 32 34 29 41 61 18 91s-58 21-106-28c-24-25-54-45-65-45-12 0-44 23-75 55-55 56-92 69-118 43zm398-213c0-8-4-15-10-15-5 0-10 7-10 15s5 15 10 15c6 0 10-7 10-15zm17-271c-3-3-12-4-19-1-8 3-5 6 6 6 11 1 17-2 13-5zm196-1c-7-2-19-2-25 0-7 3-2 5 12 5s19-2 13-5z"/>
	</g>
</svg>
