<?xml version="1.0" encoding="UTF-8"?>
<!DOCTYPE svg  PUBLIC '-//W3C//DTD SVG 20010904//EN'  'http://www.w3.org/TR/2001/REC-SVG-20010904/DTD/svg10.dtd'>
<svg width="84pt" height="84pt" version="1.0" viewBox="0 0 84 84" xmlns="http://www.w3.org/2000/svg">
	<g transform="translate(0 84) scale(.1 -.1)">
		<path d="m257 803c-4-3-7-18-7-33 0-20 15-40 60-79 33-29 60-57 60-62 0-6-21-38-47-71l-47-61 57-53c31-29 57-56 57-60s-16-27-36-51c-22-26-34-50-30-59 5-12 0-15-22-12-26 3-27 6-32 73l-5 70h-120-120v-125-125l68-3c64-3 67-4 67-28 0-57 58-104 129-104 31 0 49 7 76 31 19 17 35 37 35 45 0 11 18 14 79 14 54 0 81 4 84 13 3 7 6 4 6-6 2-34 30-74 65-91 43-20 69-20 112 0 46 22 67 65 62 124-4 42-3 47 14 42 16-4 18 3 18 71v76l-116 98c-64 54-164 139-223 189-148 126-220 184-230 184-4 0-11-3-14-7zm-127-483c0-38-2-40-30-40s-30 2-30 40 2 40 30 40 30-2 30-40zm375-30c26-27 35-30 89-30 61-1 61-1 35-17-29-18-58-61-61-90 0-10-4 2-7 27l-6 45-64 3c-46 2-68-1-80-12-16-14-20-13-47 15-23 25-24 29-7 18 21-13 26-11 65 29 24 23 45 42 48 42 4 0 19-13 35-30zm-194-110c29-16 26-67-5-81-34-16-66 3-66 41 0 41 33 60 71 40zm417-12c16-16 15-53-2-67-8-7-27-11-43-9-22 2-29 9-31 31-2 16-1 35 2 43 7 17 57 19 74 2z"/>
	</g>
</svg>
