<?xml version="1.0" encoding="UTF-8"?>
<!DOCTYPE svg  PUBLIC '-//W3C//DTD SVG 20010904//EN'  'http://www.w3.org/TR/2001/REC-SVG-20010904/DTD/svg10.dtd'>
<svg width="84pt" height="84pt" version="1.0" viewBox="0 0 84 84" xmlns="http://www.w3.org/2000/svg">
	<g transform="translate(0 84) scale(.1 -.1)">
		<path d="m417 754c-4-4-7-115-7-246v-238h-40-40v64c0 36-5 68-10 71-6 4-39-22-75-56l-65-62v56c0 40-4 57-13 57-7 0-43-30-80-68l-67-68v-127-127h405 405v130 130h-30-30v240 240l-24 6c-13 3-35 4-47 2l-24-3-3-242c-1-151-6-243-12-243s-10 89-10 239c0 261 2 251-59 251-50 0-51-7-51-257 0-199-2-233-15-233-12 0-15 36-17 243l-3 242-40 3c-23 2-44 0-48-4zm-237-544c0-5-25-10-55-10s-55 5-55 10c0 6 25 10 55 10s55-4 55-10zm140 0c0-5-20-10-45-10s-45 5-45 10c0 6 20 10 45 10s45-4 45-10zm160 0c0-5-25-10-55-10s-55 5-55 10c0 6 25 10 55 10s55-4 55-10zm140 0c0-5-20-10-45-10s-45 5-45 10c0 6 20 10 45 10s45-4 45-10zm160 0c0-5-22-10-50-10-27 0-50 5-50 10 0 6 23 10 50 10 28 0 50-4 50-10zm-600-70c0-5-25-10-55-10s-55 5-55 10c0 6 25 10 55 10s55-4 55-10zm140 0c0-5-20-10-45-10s-45 5-45 10c0 6 20 10 45 10s45-4 45-10zm160 0c0-5-25-10-55-10s-55 5-55 10c0 6 25 10 55 10s55-4 55-10zm140 0c0-5-20-10-45-10s-45 5-45 10c0 6 20 10 45 10s45-4 45-10zm160 0c0-5-22-10-50-10-27 0-50 5-50 10 0 6 23 10 50 10 28 0 50-4 50-10z"/>
	</g>
</svg>
