<?xml version="1.0" encoding="UTF-8"?>
<!DOCTYPE svg  PUBLIC '-//W3C//DTD SVG 20010904//EN'  'http://www.w3.org/TR/2001/REC-SVG-20010904/DTD/svg10.dtd'>
<svg width="84pt" height="84pt" version="1.0" viewBox="0 0 84 84" xmlns="http://www.w3.org/2000/svg">
	<g transform="translate(0 84) scale(.1 -.1)">
		<path d="m490 808c-25-4-56-16-69-26-23-17-26-17-64 2-78 39-177 14-228-57l-29-40v-283-283l-37-3-38-3-3-52-3-53h400 401v55 55h-40-40v265c0 258-1 265-20 265-16 0-20 7-20 30 0 31-45 91-84 112-35 19-79 25-126 16zm94-99c31-24 34-55 6-62-19-5-20-14-20-266v-261h-35-35l-2 263-3 262-22 3c-28 4-31 37-6 64 22 25 83 24 117-3zm-253 1c28-15 25-58-3-62l-23-3-3-262-2-263h-55-55v279 280l26 20c29 23 83 28 115 11z"/>
	</g>
</svg>
