<?xml version="1.0" encoding="UTF-8"?>
<!DOCTYPE svg  PUBLIC '-//W3C//DTD SVG 20010904//EN'  'http://www.w3.org/TR/2001/REC-SVG-20010904/DTD/svg10.dtd'>
<svg width="84pt" height="84pt" version="1.0" viewBox="0 0 84 84" xmlns="http://www.w3.org/2000/svg">
	<g transform="translate(0 84) scale(.1 -.1)">
		<path d="m515 715c-38-20-75-64-75-90 0-11-3-30-6-42-5-19-9-21-27-12-50 27-188-27-270-107-56-54-126-189-108-207 7-7 11-54 11-124v-113h120 120v85 85h80 79l3-88 3-87 198-3 197-2v277c0 260-1 280-20 311-22 36-74 72-106 72-12 0-27 7-35 16-35 43-110 56-164 29zm90-61c30-12-12-44-57-44-43 0-48 12-16 34 24 17 46 20 73 10zm140-84c18-20 17-20-51-20l-69 1 24 19c30 26 73 25 96 0zm-195-50c0-11-4-20-8-20-5 0-17 9-27 20-18 20-17 20 8 20 20 0 27-5 27-20zm-135-46c69-33 140-100 165-157 15-31 20-65 20-134v-93h-30-30v94c0 76-3 95-16 100-31 12-319 7-332-6-8-8-12-45-12-100v-88h-30-30v93c0 110 17 155 82 219 32 33 121 88 155 97 1 1 28-11 58-25zm355-189v-195h-45-45v84c0 59 4 86 13 89 17 5-6 69-44 121-16 22-29 53-29 68v28h75 75v-195z"/>
	</g>
</svg>
