<?xml version="1.0" encoding="UTF-8"?>
<!DOCTYPE svg  PUBLIC '-//W3C//DTD SVG 20010904//EN'  'http://www.w3.org/TR/2001/REC-SVG-20010904/DTD/svg10.dtd'>
<svg width="84pt" height="84pt" version="1.0" viewBox="0 0 84 84" xmlns="http://www.w3.org/2000/svg">
	<g transform="translate(0 84) scale(.1 -.1)">
		<path d="m687 674c-4-4-7-46-7-93v-86l-24 29-23 30-83-53c-45-28-83-51-85-49-1 2-12 22-25 46-13 23-30 42-39 42-8 0-44-19-79-42l-65-42-16 24c-9 13-24 33-33 44l-17 21-43-23c-24-12-63-37-88-56l-45-33 10-298 393-3 392-2-2 272-3 273-55 3c-31 2-59 0-63-4zm-461-344c4 0 40 20 81 45 42 26 76 45 77 43 29-49 59-88 69-88 6 0 43 20 80 45 38 25 71 45 73 45s19-24 39-52c26-40 35-63 35-95v-43h-285-285v78c0 74 1 78 28 93s27 15 55-28c15-24 30-43 33-43z"/>
	</g>
</svg>
