<?xml version="1.0" encoding="UTF-8"?>
<!DOCTYPE svg  PUBLIC '-//W3C//DTD SVG 20010904//EN'  'http://www.w3.org/TR/2001/REC-SVG-20010904/DTD/svg10.dtd'>
<svg width="84pt" height="84pt" version="1.0" viewBox="0 0 84 84" xmlns="http://www.w3.org/2000/svg">
	<g transform="translate(0 84) scale(.1 -.1)">
		<path d="m237 594c-4-4-7-42-7-85v-78l-82-3-83-3v-105-105h365 365v105 105l-164 6-6 164-191 3c-104 1-193-1-197-4zm353-94v-70h-160-160v70 70h160 160v-70zm-180-180v-70h-160-160v70 70h160 160v-70zm360 0v-70h-160-160v70 70h160 160v-70z"/>
	</g>
</svg>
