<?xml version="1.0" encoding="UTF-8"?>
<!DOCTYPE svg  PUBLIC '-//W3C//DTD SVG 20010904//EN'  'http://www.w3.org/TR/2001/REC-SVG-20010904/DTD/svg10.dtd'>
<svg width="83pt" height="83pt" version="1.0" viewBox="0 0 83 83" xmlns="http://www.w3.org/2000/svg">
	<g transform="translate(0 83) scale(.1 -.1)">
		<path d="m183 721c-22-16-59-47-82-68l-41-40v-222c0-134 4-230 10-242 10-18 24-19 268-19h257l73 60 72 60v238c0 172-3 241-12 250s-80 12-258 12h-247l-40-29zm365-333-3-193-207-3-208-2v195 195h210 210l-2-192z"/>
	</g>
</svg>
