<?xml version="1.0" encoding="UTF-8"?>
<!DOCTYPE svg  PUBLIC '-//W3C//DTD SVG 20010904//EN'  'http://www.w3.org/TR/2001/REC-SVG-20010904/DTD/svg10.dtd'>
<svg width="84pt" height="84pt" version="1.0" viewBox="0 0 84 84" xmlns="http://www.w3.org/2000/svg">
	<g transform="translate(0 84) scale(.1 -.1)">
		<path d="m331 723c-24-65-49-131-57-148-7-16-45-115-84-220-39-104-80-215-92-246-35-94-51-89 281-89 290 0 291 0 305 23 8 12 17 33 21 47s13 39 20 55c31 75 35 87 35 104 0 10-31 70-68 132-38 63-103 171-145 242-42 70-77 130-77 132 0 3-11 23-25 45-18 28-32 40-48 40-21 0-29-13-66-117zm176-313c101-293 109-318 101-325-3-3-107-4-231-3l-225 3 69 185c39 102 88 235 111 295 22 61 45 121 50 135l10 25 15-35c8-19 53-145 100-280z"/>
	</g>
</svg>
