<?xml version="1.0" encoding="UTF-8"?>
<!DOCTYPE svg  PUBLIC '-//W3C//DTD SVG 20010904//EN'  'http://www.w3.org/TR/2001/REC-SVG-20010904/DTD/svg10.dtd'>
<svg width="83pt" height="83pt" version="1.0" viewBox="0 0 83 83" xmlns="http://www.w3.org/2000/svg">
	<g transform="translate(0 83) scale(.1 -.1)">
		<path d="m333 818c-5-7-22-58-37-113-129-465-185-679-180-686 7-12 571-12 578 0 5 7-82 325-192 706l-29 100-65 3c-44 2-68-1-75-10zm132-85c9-32 31-110 49-173 19-63 50-173 70-245s45-160 55-197l20-68h-120-119v370c0 314 2 370 14 370 9 0 21-22 31-57z"/>
	</g>
</svg>
