<?xml version="1.0" encoding="UTF-8"?>
<!DOCTYPE svg  PUBLIC '-//W3C//DTD SVG 20010904//EN'  'http://www.w3.org/TR/2001/REC-SVG-20010904/DTD/svg10.dtd'>
<svg width="83pt" height="83pt" version="1.0" viewBox="0 0 83 83" xmlns="http://www.w3.org/2000/svg">
	<g transform="translate(0 83) scale(.1 -.1)">
		<path d="m502 818c-29-29 1-88 45-88 41 0 69 60 41 88-16 16-70 16-86 0z"/>
		<path d="m330 740c-26-26-26-81-2-103 25-23 85-22 105 1 59 65-42 163-103 102z"/>
		<path d="m630 645c-26-32 13-81 48-59 34 22 22 74-18 74-10 0-23-7-30-15z"/>
		<path d="m297 575c-45-24-66-56-67-101 0-36 5-47 35-73 43-37 93-41 136-10 38 27 56 86 38 124-28 57-95 85-142 60z"/>
		<path d="m684 506c-10-26 4-48 28-44 17 2 23 10 23 28s-6 26-23 28c-13 2-25-3-28-12z"/>
		<path d="m305 290c-118-25-164-164-83-256 30-33 32-34 110-34 43 0 88 4 98 10 35 19 60 74 60 134 0 52-3 60-38 97-41 44-91 61-147 49z"/>
	</g>
</svg>
