<?xml version="1.0" encoding="UTF-8"?>
<!DOCTYPE svg  PUBLIC '-//W3C//DTD SVG 20010904//EN'  'http://www.w3.org/TR/2001/REC-SVG-20010904/DTD/svg10.dtd'>
<svg width="83pt" height="83pt" version="1.0" viewBox="0 0 83 83" xmlns="http://www.w3.org/2000/svg">
	<g transform="translate(0 83) scale(.1 -.1)">
		<path d="m405 808c-10-30-105-390-105-399 0-6 48-8 118-7 97 3 117 6 115 18-1 8-24 100-50 204-45 173-65 221-78 184z"/>
		<path d="m591 337c-96-56-176-108-179-114-3-10 43-13 207-13h211v28c-1 38-45 195-56 199-5 2-87-43-183-100z"/>
		<path d="m5 341c-10-18 46-221 62-221 24 0 364 202 360 214-5 14-413 21-422 7z"/>
	</g>
</svg>
