<?xml version="1.0" encoding="UTF-8"?>
<!DOCTYPE svg  PUBLIC '-//W3C//DTD SVG 20010904//EN'  'http://www.w3.org/TR/2001/REC-SVG-20010904/DTD/svg10.dtd'>
<svg width="83pt" height="83pt" version="1.0" viewBox="0 0 83 83" xmlns="http://www.w3.org/2000/svg">
	<g transform="translate(0 83) scale(.1 -.1)">
		<path d="m185 731c-45-23-76-59-123-143-36-63-29-85 16-50 116 91 156 94 255 19 126-97 219-127 286-93 63 33 183 206 142 206-5 0-32-16-61-35-103-69-152-67-265 15-129 93-188 112-250 81z"/>
		<path d="m204 356c-34-15-86-75-127-148-43-75-32-89 32-39 60 48 120 74 154 67 16-3 53-26 81-50 71-60 154-105 209-112 66-9 122 26 187 118 71 100 67 122-13 71-119-78-146-75-303 32-111 75-158 88-220 61z"/>
	</g>
</svg>
