<?xml version="1.0" encoding="UTF-8"?>
<!DOCTYPE svg  PUBLIC '-//W3C//DTD SVG 20010904//EN'  'http://www.w3.org/TR/2001/REC-SVG-20010904/DTD/svg10.dtd'>
<svg width="84pt" height="84pt" version="1.0" viewBox="0 0 84 84" xmlns="http://www.w3.org/2000/svg">
	<g transform="translate(0 84) scale(.1 -.1)">
		<path d="m435 830c-3-5-15-10-26-10-10 0-19-5-19-11 0-8-13-10-38-6-66 8-134-33-114-69 13-24-6-64-30-64-12 0-24-12-34-35-8-19-19-35-24-35-16 0-12-67 5-84 14-13 13-16-5-26-11-6-24-9-29-6-15 10-41-42-41-81 0-46 13-68 34-60 10 4 16 1 16-7s-7-16-15-20c-21-8-19-29 5-44 12-7 20-23 20-38 0-27 28-70 45-69 6 1 24 5 40 9 17 5 38 8 48 7 11-2 21 5 24 18 4 17 13 21 45 21 31 0 46-7 70-30 27-28 30-36 25-76-2-25-9-50-15-56s-59-21-119-33l-108-23 274-1c151-1 272 1 270 3s-53 14-112 26c-124 26-132 34-121 122 7 51 9 53 70 72 16 5 23 2 27-14 3-13 10-18 21-14 10 4 16 1 16-10 0-15 33-19 88-10 22 4 30 32 15 48-5 4-8 13-8 19s-11 14-25 17-20 9-14 13c6 3 20 0 30-7 16-12 22-11 46 6 16 11 28 29 28 41s5 29 10 37c6 10 3 25-9 46-15 24-16 35-8 44 9 10 9 14-1 17-6 3-9 9-6 15 3 5 3 24 0 43-5 27-12 35-38 40-29 7-30 8-14 21 15 11 18 23 14 65-6 62-32 89-84 89-19 0-34 3-35 8-6 66-16 82-51 82-10 0-18 5-18 10 0 6-26 10-59 10s-63-4-66-10z"/>
	</g>
</svg>
