<?xml version="1.0" encoding="UTF-8"?>
<!DOCTYPE svg  PUBLIC '-//W3C//DTD SVG 20010904//EN'  'http://www.w3.org/TR/2001/REC-SVG-20010904/DTD/svg10.dtd'>
<svg width="83pt" height="83pt" version="1.0" viewBox="0 0 83 83" xmlns="http://www.w3.org/2000/svg">
	<g transform="translate(0 83) scale(.1 -.1)">
		<path d="m376 814c-3-9-6-38-6-65s-2-49-5-49-28 11-55 25c-58 29-76 31-84 9-9-23 3-34 78-74l66-35v-77c0-43-2-78-5-78s-37 17-75 38l-70 37v75c0 83-8 104-36 98-16-3-20-14-22-66-3-69-9-73-61-41-41 25-76 22-76-6 0-14 15-28 47-45 27-14 48-27 48-30s-21-16-48-30c-32-17-47-31-47-45 0-32 35-30 101 6l62 33 68-36c38-20 70-40 71-45 2-4-28-25-65-45l-68-37-68 40c-75 44-79 45-95 25-18-21-5-39 52-70l52-29-52-25c-58-29-71-48-48-71 14-14 20-13 64 12 27 15 52 27 56 27 3 0 5-26 4-57-2-45 1-59 15-67 29-18 46 17 46 95v68l150 78v-84-84l-60-37c-64-40-77-57-59-78 16-19 23-18 69 11 22 14 42 25 44 25 3 0 6-24 8-52 3-49 5-53 31-56 27-3 27-3 27 58v62l38-23c20-13 45-28 54-33 13-8 22-7 33 5 23 23 11 40-60 84l-65 39v84 84l73-39 72-39 3-65c3-95 8-109 37-109 24 0 25 2 25 65 0 36 2 65 5 65s28-12 56-26c55-28 79-26 79 6 0 14-15 29-50 48-27 15-50 29-50 32s23 19 50 35c38 22 50 35 48 50-5 32-34 29-97-9-32-20-64-36-71-36-16 0-130 63-130 72 0 4 29 22 65 41l65 34 68-35c70-37 102-38 102-5 0 11-19 29-51 47l-51 28 51 29c35 20 51 36 51 50 0 31-24 33-79 5-28-14-53-26-56-26s-5 29-5 65c0 62-1 65-24 65-30 0-36-16-36-100v-68l-64-36c-35-20-69-36-75-36-7 0-11 28-11 75v74l75 42c53 29 75 46 75 60 0 32-30 34-84 6-28-15-55-27-59-27s-7 29-7 65c0 62-1 65-24 65-13 0-27-7-30-16z"/>
	</g>
</svg>
