<?xml version="1.0" encoding="UTF-8"?>
<!DOCTYPE svg  PUBLIC '-//W3C//DTD SVG 20010904//EN'  'http://www.w3.org/TR/2001/REC-SVG-20010904/DTD/svg10.dtd'>
<svg width="83pt" height="83pt" version="1.0" viewBox="0 0 83 83" xmlns="http://www.w3.org/2000/svg">
	<g transform="translate(0 83) scale(.1 -.1)">
		<path d="m671 734-44-34h-178c-99 0-179 3-179 6s5 14 10 25c6 10 7 19 3 19-10 0-141-55-148-62-3-2 31-21 75-41 44-19 80-33 80-31 0 3-5 14-10 25-10 18-7 19 70 19h80v-137l-1-138-118-135-119-135 129-3c71-1 187-1 258 0l129 3-119 139-119 140v133 133h80c76 0 83-2 130-36 48-34 70-37 70-10 0 7-19 26-42 41l-42 28 35 28c19 16 37 29 41 29s5 7 2 15c-9 22-24 18-73-21z"/>
	</g>
</svg>
