<?xml version="1.0" encoding="UTF-8"?>
<!DOCTYPE svg  PUBLIC '-//W3C//DTD SVG 20010904//EN'  'http://www.w3.org/TR/2001/REC-SVG-20010904/DTD/svg10.dtd'>
<svg width="83pt" height="83pt" version="1.0" viewBox="0 0 83 83" xmlns="http://www.w3.org/2000/svg">
	<g transform="translate(0 83) scale(.1 -.1)">
		<path d="m357 823c-4-3-7-61-7-127v-121l-94 94-94 93-41-37c-22-21-41-43-41-49s38-49 85-96 85-88 85-92c0-5-56-8-125-8h-125v-60-60h132 133l-93-93c-50-51-92-97-92-104 0-6 19-27 41-48l41-37 94 93 93 93 3-130 3-129 63-3 62-3v133 133l188-188 43 41 44 41-92 93c-51 51-93 97-93 101s59 7 130 7h130v60 60h-125c-69 0-125 3-125 8 0 4 38 45 85 92s85 90 85 96-19 28-41 49l-41 37-94-93-94-94v128 127h-58c-32 0-62-3-65-7zm141-319c38-32 42-40 42-83 0-41-5-53-34-83-54-56-124-59-175-7-54 53-50 132 8 179 52 44 104 42 159-6z"/>
	</g>
</svg>
