<?xml version="1.0" encoding="UTF-8"?>
<!DOCTYPE svg  PUBLIC '-//W3C//DTD SVG 20010904//EN'  'http://www.w3.org/TR/2001/REC-SVG-20010904/DTD/svg10.dtd'>
<svg width="84pt" height="84pt" version="1.0" viewBox="0 0 84 84" xmlns="http://www.w3.org/2000/svg">
	<g transform="translate(0 84) scale(.1 -.1)">
		<path d="m644 779c-29-33-121-74-203-93-258-57-400-252-293-400 36-50 66-73 116-90l37-13-23-15c-26-16-120-51-185-68-35-9-43-15-43-33 0-29 18-47 45-47 26 0 113 41 190 88 108 67 285 264 285 317 0 8 4 15 9 15s17 23 26 51c22 65 28 59 11-9-21-78-78-175-163-274-47-56-73-94-69-104 8-22 85-54 131-54 54 0 137 40 168 82 15 19 39 61 53 94 24 51 28 74 31 174 2 97-1 131-22 214-14 55-30 103-36 107-6 3-10 9-9 13 3 13-19 66-28 66-5 0-17-9-28-21z"/>
	</g>
</svg>
