<?xml version="1.0" encoding="UTF-8"?>
<!DOCTYPE svg  PUBLIC '-//W3C//DTD SVG 20010904//EN'  'http://www.w3.org/TR/2001/REC-SVG-20010904/DTD/svg10.dtd'>
<svg width="84pt" height="84pt" version="1.0" viewBox="0 0 84 84" xmlns="http://www.w3.org/2000/svg">
	<g transform="translate(0 84) scale(.1 -.1)">
		<path d="m230 782c0-35-6-66-14-78-8-10-12-29-9-42 4-18 1-25-15-29-17-4-20-11-15-39 4-27 2-34-11-34-20 0-21-19 0-48 8-12 12-22 7-23-4-1-28-2-53-4-85-6-120-16-120-35 0-27 21-84 36-96 8-6 12-18 9-26-4-9 1-18 9-21 9-4 16-12 16-20 0-7 11-24 25-37 32-30 31-38-5-82-29-36-30-37-11-47 11-6 31-11 46-11 14 0 28-7 31-15 4-8 18-15 34-15 24 0 27-3 22-25-5-29 12-33 42-10 11 8 28 13 38 9 10-3 18-1 18 5s17 19 37 28c23 11 44 31 53 51 18 37 59 78 78 76 6-1 16-2 20-3 8-1 43-73 56-113 6-22 36-24 36-4 0 8-4 18-10 21-17 11-62 114-54 126 4 7 23 9 51 5 27-3 59 0 86 9 23 8 52 15 65 15 15 0 26 9 32 25 6 15 17 25 29 25 14 0 18 5 14 19-3 13 2 24 16 33 13 8 21 23 21 39 0 23-5 28-35 33-43 8-51 21-31 51s20 35 1 35c-18 0-16-7-20 97-2 45-8 90-13 99-9 15-13 14-46-11-21-16-46-29-55-30-10-1-33-13-51-28-40-34-48-34-61 1-33 83-28 77-43 56-12-15-16-16-30-5-9 7-16 20-16 28 0 10-6 12-20 8s-41 8-93 44c-40 28-79 51-85 51-8 0-12-20-12-58z"/>
	</g>
</svg>
