<?xml version="1.0" encoding="UTF-8"?>
<!DOCTYPE svg  PUBLIC '-//W3C//DTD SVG 20010904//EN'  'http://www.w3.org/TR/2001/REC-SVG-20010904/DTD/svg10.dtd'>
<svg width="84pt" height="84pt" version="1.0" viewBox="0 0 84 84" xmlns="http://www.w3.org/2000/svg">
	<g transform="translate(0 84) scale(.1 -.1)">
		<path d="m270 821c-105-41-193-122-238-219-25-53-27-67-27-187s2-134 27-188c36-77 114-157 192-196l63-33 144 4c169 4 189 10 286 101 43 41 73 79 93 122 28 59 30 70 30 184 0 149-18 205-92 287-103 112-178 144-332 144-72-1-114-6-146-19zm293-81c99-46 183-148 205-248l10-42h-354c-195 0-354 3-354 7s7 32 16 62c29 105 116 193 229 234 67 24 182 18 248-13z"/>
	</g>
</svg>
