<?xml version="1.0" encoding="UTF-8"?>
<!DOCTYPE svg  PUBLIC '-//W3C//DTD SVG 20010904//EN'  'http://www.w3.org/TR/2001/REC-SVG-20010904/DTD/svg10.dtd'>
<svg width="84pt" height="84pt" version="1.0" viewBox="0 0 84 84" xmlns="http://www.w3.org/2000/svg">
	<g transform="translate(0 84) scale(.1 -.1)">
		<path d="m274 820c-103-36-193-116-244-216-22-44-25-64-28-181-3-130-3-133 27-196 36-76 131-171 206-206 44-21 59-22 194-19 172 4 191 10 288 101 44 41 73 79 94 124 30 63 30 66 27 196-3 117-6 137-28 181-51 100-148 184-254 219-68 23-214 22-282-3zm294-84c68-35 122-85 161-151 31-51 35-67 39-144 4-81-6-148-27-180-7-12-30-1-113 54-56 38-127 87-156 108l-54 39-36-29c-21-16-68-53-107-83-38-29-87-68-108-87-20-18-41-33-46-33s-19 24-32 53c-34 75-32 203 5 276 49 95 135 168 233 197 69 20 181 10 241-20z"/>
	</g>
</svg>
