<?xml version="1.0" encoding="UTF-8"?>
<!DOCTYPE svg  PUBLIC '-//W3C//DTD SVG 20010904//EN'  'http://www.w3.org/TR/2001/REC-SVG-20010904/DTD/svg10.dtd'>
<svg width="84pt" height="84pt" version="1.0" viewBox="0 0 84 84" xmlns="http://www.w3.org/2000/svg">
	<g transform="translate(0 84) scale(.1 -.1)">
		<path d="m270 821c-105-41-193-122-238-219-25-53-27-67-27-187s2-134 27-188c36-77 114-157 192-196l63-33 144 4c169 4 189 10 286 101 43 41 73 79 93 122 28 60 30 70 30 189 0 111-3 132-24 180-43 97-151 196-250 229-69 24-235 22-296-2zm282-73c61-21 152-109 187-179 17-34 31-73 31-86v-23h-350c-192 0-350 1-350 3 0 24 39 121 62 154 44 66 134 127 213 147 34 8 168-2 207-16zm-172-528v-160l-27 6c-84 19-176 80-221 146-25 37-62 132-62 160 0 4 70 8 155 8h155v-160zm388 118c-28-126-151-248-275-271l-33-6v159 160h159 159l-10-42z"/>
	</g>
</svg>
