<?xml version="1.0" encoding="UTF-8"?>
<!DOCTYPE svg  PUBLIC '-//W3C//DTD SVG 20010904//EN'  'http://www.w3.org/TR/2001/REC-SVG-20010904/DTD/svg10.dtd'>
<svg width="84pt" height="84pt" version="1.0" viewBox="0 0 84 84" xmlns="http://www.w3.org/2000/svg">
	<g transform="translate(0 84) scale(.1 -.1)">
		<path d="m282 820c-119-42-189-103-244-210-32-64-33-67-33-195 0-125 1-133 31-196 44-92 93-142 179-185l72-36 144 4c136 3 147 5 199 31 79 41 136 101 176 185l36 72-4 133c-3 116-6 138-28 182-47 98-142 179-248 216-75 26-207 25-280-1zm224-324c30-30 34-40 34-84 0-43-5-55-30-81-68-68-171-44-200 46-15 45-5 87 32 123 25 25 37 30 80 30 44 0 54-4 84-34z"/>
		<path d="m362 467c-50-53-13-137 59-137 47 0 79 34 79 81 0 71-90 107-138 56z"/>
	</g>
</svg>
