<?xml version="1.0" encoding="UTF-8"?>
<!DOCTYPE svg  PUBLIC '-//W3C//DTD SVG 20010904//EN'  'http://www.w3.org/TR/2001/REC-SVG-20010904/DTD/svg10.dtd'>
<svg width="84pt" height="84pt" version="1.0" viewBox="0 0 84 84" xmlns="http://www.w3.org/2000/svg">
	<g transform="translate(0 84) scale(.1 -.1)">
		<path d="m260 821c-69-27-122-64-172-120-80-89-88-115-88-286 0-131 2-154 21-193 34-69 119-154 192-191l64-33 144 4c174 4 193 11 295 112 98 98 119 151 119 301 0 136-22 198-97 281-103 112-178 144-332 144-72-1-114-6-146-19zm-12-498-113-113-17 22c-51 67-64 214-27 315 34 92 135 180 234 202l30 7 6-320-113-113zm321 402c51-26 134-113 159-168 48-102 37-240-25-326-2-2-29 20-61 50s-86 78-120 107l-62 53v158 158l38-7c20-3 52-15 71-25zm-40-477 108-92-26-21c-75-60-199-81-300-50-31 9-68 25-82 36l-24 18 100 101c55 55 103 100 108 100s57-41 116-92z"/>
	</g>
</svg>
