<?xml version="1.0" encoding="UTF-8"?>
<!DOCTYPE svg  PUBLIC '-//W3C//DTD SVG 20010904//EN'  'http://www.w3.org/TR/2001/REC-SVG-20010904/DTD/svg10.dtd'>
<svg width="84pt" height="84pt" version="1.0" viewBox="0 0 84 84" xmlns="http://www.w3.org/2000/svg">
	<g transform="translate(0 84) scale(.1 -.1)">
		<path d="m410 758c-5-13-37-124-70-247s-67-233-75-244c-37-52 0-161 70-209 52-35 122-38 172-7 47 29 93 95 93 132 0 16-22 109-49 206s-63 223-79 280c-29 108-44 130-62 89zm81-474c24-22 42-78 34-106-23-75-106-101-163-53-37 31-46 66-31 112 21 66 110 92 160 47z"/>
	</g>
</svg>
