<?xml version="1.0" encoding="UTF-8"?>
<!DOCTYPE svg  PUBLIC '-//W3C//DTD SVG 20010904//EN'  'http://www.w3.org/TR/2001/REC-SVG-20010904/DTD/svg10.dtd'>
<svg width="84pt" height="84pt" version="1.0" viewBox="0 0 84 84" xmlns="http://www.w3.org/2000/svg">
	<g transform="translate(0 84) scale(.1 -.1)">
		<path d="m225 811c-80-40-127-81-178-154l-42-62v-175-175l42-62c52-75 98-114 181-154 62-30 66-30 195-27 117 3 137 6 181 28 99 50 179 143 220 253 14 37 17 70 14 155-3 95-7 114-33 167-36 73-132 171-200 205-45 22-64 25-185 28-132 2-136 2-195-27zm265-56c6-3 10-35 10-71v-64h-90-91l3 67c3 66 4 68 33 75 32 7 119 3 135-7zm190-116c10-17 7-19-30-19h-40v41 40l30-21c17-12 35-30 40-41zm-470 16c0-34-1-35-42-35h-42l34 35c19 19 38 35 42 35s8-16 8-35zm0-230v-95h-64c-36 0-67 4-70 9-14 22-17 99-7 139l12 42h64 65v-95zm290 0v-95h-90-90v95 95h90 90v-95zm254 64c8-40 8-107 0-136-6-21-12-23-75-23h-69v95 95h69 69l6-31zm-544-304c0-19-4-35-8-35s-23 16-42 35l-34 35h42c41 0 42-1 42-35zm288-32-3-68h-85-85l-3 68-3 67h91 91l-3-67zm182 48c-5-11-23-29-40-41l-30-21v40 41h40c37 0 40-2 30-19z"/>
	</g>
</svg>
