<?xml version="1.0" encoding="UTF-8"?>
<!DOCTYPE svg  PUBLIC '-//W3C//DTD SVG 20010904//EN'  'http://www.w3.org/TR/2001/REC-SVG-20010904/DTD/svg10.dtd'>
<svg width="84pt" height="84pt" version="1.0" viewBox="0 0 84 84" xmlns="http://www.w3.org/2000/svg">
	<g transform="translate(0 84) scale(.1 -.1)">
		<path d="m278 826c-102-37-190-116-242-216-36-68-36-68-36-196 0-122 2-132 28-180 58-107 114-164 209-213 37-19 59-21 186-21h143l60 35c75 45 146 121 185 198 31 60 31 61 27 196-4 128-6 139-33 186-40 69-130 157-196 191-49 25-66 28-174 31-85 2-131-1-157-11zm296-91c60-28 118-86 161-160 24-41 30-63 33-134 4-81-6-148-27-180-7-12-30-1-113 54-56 38-127 87-156 108l-54 39-36-29c-21-16-68-53-107-83-38-29-87-68-108-87-20-18-41-33-46-33-9 0-33 53-51 113-16 53-3 161 27 220 69 138 197 212 351 202 50-3 90-13 126-30zm-53-431c47-33 104-73 128-88l43-28-28-29c-16-17-58-44-94-62-58-29-74-32-155-32-78 0-98 4-146 27-30 15-66 39-78 52l-24 25 34 28c18 15 74 62 124 104 49 42 95 74 100 71 6-3 48-34 96-68z"/>
	</g>
</svg>
