<?xml version="1.0" encoding="UTF-8"?>
<!DOCTYPE svg  PUBLIC '-//W3C//DTD SVG 20010904//EN'  'http://www.w3.org/TR/2001/REC-SVG-20010904/DTD/svg10.dtd'>
<svg width="84pt" height="84pt" version="1.0" viewBox="0 0 84 84" xmlns="http://www.w3.org/2000/svg">
	<g transform="translate(0 84) scale(.1 -.1)">
		<path d="m281 820c-115-41-193-110-246-217-26-51-30-71-33-170-3-88 0-123 14-165 37-111 106-192 208-243 47-23 60-25 199-25 135 0 154 2 196 22 60 30 160 130 191 193 23 46 25 60 25 195s-2 148-25 194c-51 100-148 184-254 219-69 24-205 22-275-3zm207-60c105-25 216-108 256-193 88-188-8-419-202-489-26-9-79-17-119-17-104-1-173 26-243 98-77 78-104 136-108 236-6 137 54 253 165 316 94 54 167 68 251 49z"/>
		<path d="m390 496c-98-31-74-176 29-176 81 0 122 98 64 152-37 34-52 38-93 24z"/>
	</g>
</svg>
