<?xml version="1.0" encoding="UTF-8"?>
<!DOCTYPE svg  PUBLIC '-//W3C//DTD SVG 20010904//EN'  'http://www.w3.org/TR/2001/REC-SVG-20010904/DTD/svg10.dtd'>
<svg width="84pt" height="84pt" version="1.0" viewBox="0 0 84 84" xmlns="http://www.w3.org/2000/svg">
	<g transform="translate(0 84) scale(.1 -.1)">
		<path d="m230 822c-108-56-154-98-199-186-31-57-31-60-31-211s0-154 31-211c37-72 68-106 134-148 86-55 125-66 238-66 152 0 232 32 322 131 90 98 119 179 113 317-5 126-35 190-127 283-98 97-117 104-296 106-128 3-155 0-185-15zm334-89 49-25-74-74c-40-41-75-74-76-74-2 0-3 47-3 105v105l28-6c15-4 49-18 76-31zm-214-78c0-58-2-105-6-105-3 0-40 30-83 67l-79 68 23 21c27 25 91 53 123 53 21 1 22-2 22-104zm367-77c11-24 24-55 27-70l6-28h-107-107l74 75c40 40 76 72 80 70 3-2 15-23 27-47zm-510-50 52-48h-95c-89 0-94 1-94 21 0 12 10 41 22 65 25 50 15 53 115-38zm-7-233c-80-81-77-81-111-7-35 80-33 82 83 82h102l-74-75zm543 43c-7-37-33-88-45-88-7 0-53 36-147 116-2 2 41 4 97 4h102l-7-32zm-171-117c65-54 66-55 44-72-32-24-87-51-123-60l-33-7v115 114l23-18c13-10 53-43 89-72zm-224-84-3-54-45 13c-25 8-56 23-70 34l-25 19 140 142 3-50c2-28 2-75 0-104z"/>
	</g>
</svg>
