<?xml version="1.0" encoding="UTF-8"?>
<!DOCTYPE svg  PUBLIC '-//W3C//DTD SVG 20010904//EN'  'http://www.w3.org/TR/2001/REC-SVG-20010904/DTD/svg10.dtd'>
<svg width="84pt" height="84pt" version="1.0" viewBox="0 0 84 84" xmlns="http://www.w3.org/2000/svg">
	<g transform="translate(0 84) scale(.1 -.1)">
		<path d="m270 821c-105-41-193-122-238-219-25-53-27-67-27-187s2-134 27-188c36-77 114-157 192-196l63-33 144 4c169 4 189 10 286 101 43 41 73 79 93 122 28 60 30 70 30 189 0 111-3 132-24 180-43 97-151 196-250 229-69 24-235 22-296-2zm110-211v-160h-155c-85 0-155 4-155 8 0 28 37 123 62 159 51 75 151 138 241 152 4 0 7-71 7-159zm188 127c93-43 178-147 200-245l10-42h-159-159v160 160l33-7c17-3 51-15 75-26zm-188-517v-160l-27 6c-84 18-174 78-221 147-25 36-62 131-62 159 0 4 70 8 155 8h155v-160zm388 118c-24-107-136-235-227-258-25-7-54-14-63-17-17-4-18 8-18 156v161h159 159l-10-42z"/>
	</g>
</svg>
