<?xml version="1.0" encoding="UTF-8"?>
<!DOCTYPE svg  PUBLIC '-//W3C//DTD SVG 20010904//EN'  'http://www.w3.org/TR/2001/REC-SVG-20010904/DTD/svg10.dtd'>
<svg width="84pt" height="84pt" version="1.0" viewBox="0 0 84 84" xmlns="http://www.w3.org/2000/svg">
	<g transform="translate(0 84) scale(.1 -.1)">
		<path d="m270 821c-105-41-193-122-238-219-25-53-27-67-27-187s2-134 27-188c36-77 114-157 192-196l63-33 144 4c169 4 189 10 286 101 43 41 73 79 93 122 28 60 30 70 30 189 0 111-3 132-24 180-43 97-151 196-250 229-69 24-235 22-296-2zm304-86c75-38 159-129 183-199 22-67 22-177 0-242-24-70-108-161-183-199-49-24-74-30-144-33-82-3-88-1-160 35-128 65-200 177-200 311 0 146 69 258 200 325 72 36 78 38 160 35 70-3 95-9 144-33z"/>
		<path d="m375 709c-71-10-119-33-166-80-58-58-82-118-83-204-1-102 18-158 75-216 67-69 124-93 219-93 94 0 152 24 218 92 113 117 110 304-8 422-65 65-153 93-255 79zm134-98c47-25 109-92 117-128 3-16 8-34 10-42 10-31-10-105-40-149-109-161-368-99-384 92-2 30-1 71 2 91 8 43 64 108 115 135 48 26 131 26 180 1z"/>
	</g>
</svg>
