<?xml version="1.0" encoding="UTF-8"?>
<!DOCTYPE svg  PUBLIC '-//W3C//DTD SVG 20010904//EN'  'http://www.w3.org/TR/2001/REC-SVG-20010904/DTD/svg10.dtd'>
<svg width="84pt" height="84pt" version="1.0" viewBox="0 0 84 84" xmlns="http://www.w3.org/2000/svg">
	<g transform="translate(0 84) scale(.1 -.1)">
		<path d="m40 415v-375h380 380v375 375h-380-380v-375zm230 240v-95h-90-90v95 95h90 90v-95zm260 0v-96l-107 3-108 3-3 93-3 92h111 110v-95zm230 0v-95h-90-90v95 95h90 90v-95zm-490-240v-105h-90-90v105 105h90 90v-105zm260 0v-105h-110-110v105 105h110 110v-105zm230 0v-105h-90-90v105 105h90 90v-105zm-490-240v-95h-90-90v95 95h90 90v-95zm260 0v-95h-110-110v95 95h110 110v-95zm230 0v-95h-90-90v95 95h90 90v-95z"/>
	</g>
</svg>
