<?xml version="1.0" encoding="UTF-8"?>
<!DOCTYPE svg  PUBLIC '-//W3C//DTD SVG 20010904//EN'  'http://www.w3.org/TR/2001/REC-SVG-20010904/DTD/svg10.dtd'>
<svg width="84pt" height="84pt" version="1.0" viewBox="0 0 84 84" xmlns="http://www.w3.org/2000/svg">
	<g transform="translate(0 84) scale(.1 -.1)">
		<path d="m417 773c-4-3-7-17-7-29 0-18-14-32-61-59-33-19-65-35-72-35-6 0 7-18 28-40l39-40h86 87l32 40c17 22 28 40 23 40s-37 18-70 40c-49 31-62 45-62 65 0 24-10 32-23 18zm101-160c-19-20-31-23-94-23s-73 3-87 23c-14 21-13 23 36 54l52 32 57-32 57-31-21-23z"/>
		<path d="m30 483c-28-46-30-53-30-165 0-117 0-118 23-118 17 0 27 9 38 32 24 56 35 58 370 58h306l27-26c14-15 26-35 26-45 0-14 7-19 25-19h25v119c0 113-2 122-28 165l-27 45-362 1h-363l-30-47zm85-33v-45l-42-3c-51-4-55 11-22 65 15 24 27 33 43 31 18-3 21-10 21-48zm183 3-3-48h-65-65l-3 33c-6 57 1 62 73 62h66l-3-47zm207-3v-45h-80-80l-6 96 166-6v-45zm183 21c2-12 1-34-2-47-6-24-10-25-69-22l-62 3-6 96 68-3c63-3 68-5 71-27zm112-6c28-45 21-65-23-65-41 0-57 15-57 55 0 38 6 45 36 45 15 0 30-12 44-35z"/>
		<path d="m302 263c9-10 18-27 20-38 3-18 12-20 101-23 90-3 97-1 97 16 0 11 7 25 15 32s15 16 15 21-59 9-132 9c-124 0-130-1-116-17z"/>
		<path d="m100 240c-25-25-25-42-2-63 25-23 58-21 75 3l14 20 18-20c10-11 30-20 45-20 50 0 62 76 14 94-25 9-33 7-54-14l-20-20-20 20c-11 11-27 20-35 20s-24-9-35-20z"/>
		<path d="m572 244c-24-17-29-53-10-72 15-15 61-15 76 0 17 17 15 54-4 72-19 20-34 20-62 0z"/>
		<path d="m680 240c-34-34-17-80 30-80 38 0 64 34 48 64-21 41-48 46-78 16z"/>
	</g>
</svg>
