<?xml version="1.0" encoding="UTF-8"?>
<!DOCTYPE svg  PUBLIC '-//W3C//DTD SVG 20010904//EN'  'http://www.w3.org/TR/2001/REC-SVG-20010904/DTD/svg10.dtd'>
<svg width="84pt" height="84pt" version="1.0" viewBox="0 0 84 84" xmlns="http://www.w3.org/2000/svg">
	<g transform="translate(0 84) scale(.1 -.1)">
		<path d="m249 817c-36-24-65-74-99-171-17-51-20-85-20-229v-169l31-39c26-34 36-39 70-39h40l-16-29c-8-16-20-35-28-43-13-13-57-86-57-94 0-2 122-4 270-4 149 0 270 2 270 5s-22 39-50 80-50 77-50 80 17 5 39 5c33 0 42 5 65 38 26 37 26 41 26 208 0 175-8 225-48 314-22 47-50 79-89 99-13 7-80 11-171 11-138 0-152-2-183-23zm81-162v-115h-65c-75 0-77 3-45 88 30 80 75 141 103 142 4 0 7-52 7-115zm130 0v-115h-25-25v115 115h25 25v-115zm122 96c28-22 76-123 85-176l6-35h-67-66v115c0 63 4 115 9 115 4 0 19-9 33-19zm-39-478c-57-2-149-2-205 0-57 1-11 3 102 3s159-2 103-3zm-33-113c0-6-32-10-76-10-47 0-73 4-69 10 3 6 37 10 76 10s69-4 69-10zm-7-87c-34-2-93-2-130 0s-10 3 62 3 102-1 68-3z"/>
	</g>
</svg>
