<?xml version="1.0" encoding="UTF-8"?>
<!DOCTYPE svg  PUBLIC '-//W3C//DTD SVG 20010904//EN'  'http://www.w3.org/TR/2001/REC-SVG-20010904/DTD/svg10.dtd'>
<svg width="84pt" height="84pt" version="1.0" viewBox="0 0 84 84" xmlns="http://www.w3.org/2000/svg">
	<g transform="translate(0 84) scale(.1 -.1)">
		<path d="m290 800c-74-13-148-46-206-91-30-23-56-45-59-49-2-3 18-2 44 4 101 20 189-45 199-145 4-46 7-50 26-44 50 15 101 16 120 2s16-19-60-123c-44-60-99-137-122-171-50-74-87-113-107-113-30 0-54 37-48 73 7 45-19 58-44 21-36-55 24-144 98-144 42 0 73 33 215 230 69 96 131 175 136 175 18 0 48-68 48-107 0-36 1-37 26-28 66 25 163-2 198-55 10-15 20-52 23-82l6-56 26 49c24 45 25 59 26 184v135l-37 75c-20 42-55 94-79 117-25 25-39 47-35 55 3 7 15 27 25 45 16 26 17 34 7 42-18 15-39 6-65-30-21-29-22-29-53-13-77 40-221 60-308 44z"/>
	</g>
</svg>
