<?xml version="1.0" encoding="UTF-8"?>
<!DOCTYPE svg  PUBLIC '-//W3C//DTD SVG 20010904//EN'  'http://www.w3.org/TR/2001/REC-SVG-20010904/DTD/svg10.dtd'>
<svg width="82pt" height="82pt" version="1.0" viewBox="0 0 82 82" xmlns="http://www.w3.org/2000/svg">
	<g transform="translate(0 82) scale(.1 -.1)">
		<path d="m423 727c-66-64-111-98-138-107-22-7-61-24-87-39l-48-26v-242-243h25c22 0 25-4 25-35 0-33 2-35 34-35s35 3 38 33l3 32 143 3 142 3v-36c0-33 2-35 34-35s35 3 38 33c2 24 8 33 26 35l22 3v244 243l-42 25c-24 14-62 31-85 37-24 7-43 15-43 18 0 2 41 43 90 90 50 46 88 87 86 90-3 2-49-36-102-87l-96-91h-67l-66 1 94 89c52 50 90 90 84 90s-55-42-110-93zm117-152c0-12-20-15-120-15s-120 3-120 15c0 13 20 15 120 15s120-2 120-15zm90-155v-100h-210-210v100 100h210 210v-100zm-372-225c4-20-15-36-35-28-17 6-17 40 0 46 19 8 32 2 35-18zm353-19c-16-19-41-10-41 14s21 31 39 14c11-10 12-16 2-28z"/>
	</g>
</svg>
