<?xml version="1.0" encoding="UTF-8"?>
<!DOCTYPE svg  PUBLIC '-//W3C//DTD SVG 20010904//EN'  'http://www.w3.org/TR/2001/REC-SVG-20010904/DTD/svg10.dtd'>
<svg width="84pt" height="84pt" version="1.0" viewBox="0 0 84 84" xmlns="http://www.w3.org/2000/svg">
	<g transform="translate(0 84) scale(.1 -.1)">
		<path d="m337 833c-4-3-7-16-7-29 0-19-7-23-47-29-52-7-70-17-96-55-15-21-17-54-17-259v-234l78-74-59-69c-32-38-58-72-59-76 0-5 26-8 58-8 57 0 59 1 92 45l34 45h116 116l34-45c33-44 35-45 92-45 32 0 58 3 58 8-1 4-27 38-59 76l-59 69 78 74v231c0 153-4 240-12 256-16 36-47 54-107 62-48 6-51 8-51 35s-3 29-40 29c-38 0-40-2-40-30 0-16-4-30-10-30-5 0-10 14-10 30 0 28-2 30-38 30-21 0-42-3-45-7zm143-128c0-11-12-15-50-15s-50 4-50 15 12 15 50 15 50-4 50-15zm94-88c13-10 17-24 14-67l-3-55-153-3-152-3-11 28c-13 35-3 89 19 102 26 16 264 14 286-2zm-266-355c3-18-1-22-22-22-19 0-26 5-26 18 0 39 43 43 48 4zm290 0c3-18-1-22-22-22-19 0-26 5-26 18 0 39 43 43 48 4z"/>
	</g>
</svg>
