<?xml version="1.0" encoding="UTF-8"?>
<!DOCTYPE svg  PUBLIC '-//W3C//DTD SVG 20010904//EN'  'http://www.w3.org/TR/2001/REC-SVG-20010904/DTD/svg10.dtd'>
<svg width="84pt" height="84pt" version="1.0" viewBox="0 0 84 84" xmlns="http://www.w3.org/2000/svg">
	<g transform="translate(0 84) scale(.1 -.1)">
		<path d="m495 822c-47-39-48-48-11-70 19-11 40-33 48-49 11-23 19-28 46-25 18 1 48-4 68-13 34-14 35-14 45 13 15 37-4 111-37 140-32 28-128 31-159 4zm139-34c28-40 16-105-17-92-12 4-15 13-11 30 4 13 1 31-6 39-13 16-7 45 9 45 5 0 17-10 25-22z"/>
		<path d="m316 719c-59-46-72-121-32-179 17-26 48-47 117-80 52-25 96-48 99-51 16-17 74-31 107-24 57 10 73 23 94 70 24 55 17 99-24 142-53 57-145 53-189-8-12-16-28-29-35-29-23 0-14 38 18 69 37 37 33 61-15 91-44 26-105 26-140-1zm340-170c20-39 12-79-17-79-17 0-20 4-15 23 3 14-1 33-10 45-8 12-12 27-9 32 12 19 35 10 51-21z"/>
		<path d="m250 500c0-8-9-76-20-150-20-133-50-340-50-347 0-2 12-3 28-3 20 0 44 17 92 63 36 35 70 69 75 76 6 6 53 51 105 101 52 49 92 90 90 92-3 2-43 22-90 43-112 51-200 102-216 123-11 14-13 14-14 2zm220-169c0-15-11-19-75-24-78-7-108-2-102 17 3 9 43 16 155 24 15 1 22-3 22-17zm-75-86c0-18-7-20-60-20-47 0-60 3-60 15 0 16 48 29 95 26 18-1 25-7 25-21zm-70-74c7-13-33-34-51-27-8 3-14 12-14 21 0 17 55 22 65 6z"/>
	</g>
</svg>
