<?xml version="1.0" encoding="UTF-8"?>
<svg width="17.51pt" height="17.475pt" version="1.0" viewBox="0 0 17.51 17.475" xmlns="http://www.w3.org/2000/svg">
	<path d="m7.2503 17.41c-2.2553-0.38804-4.3368-1.8018-5.8668-3.9846-1.8792-2.6811-1.8396-6.8269 0.0913-9.5521 1.2224-1.7253 2.7627-2.9344 4.4777-3.515 0.98817-0.33451 1.1763-0.35808 2.8578-0.35808 1.677 0 1.8715 0.0242 2.8459 0.35406 1.2383 0.4192 2.2013 1.0736 3.406 2.3145 0.98693 1.0166 1.4439 1.7337 2.0282 3.1828 0.41543 1.0302 0.41992 1.0608 0.41992 2.8548s-4e-3 1.8245-0.41992 2.8548c-0.58429 1.449-1.0413 2.1661-2.0282 3.1828-1.8647 1.9208-3.397 2.6357-5.8319 2.7211-0.759 0.0266-1.65 0.0019-1.98-0.05488zm3.87-3.1451c0.4785-0.21009 0.87-0.41347 0.87-0.45196 0-0.03849-0.72926-0.79773-1.6206-1.6872l-1.6206-1.6172-1.6446 1.6446-1.6446 1.6446 0.89513 0.4165c0.8665 0.40318 0.94311 0.41676 2.3951 0.42462 1.4323 0.0078 1.5392-0.0091 2.37-0.37386zm3.2136-3.2786c0.30711-0.76028 0.33925-0.97666 0.33863-2.28-6e-4 -1.2236-0.0417-1.5392-0.27367-2.1-0.15015-0.363-0.32404-0.79173-0.38643-0.95273-0.10897-0.28122-0.17928-0.22702-1.7878 1.3784l-1.6744 1.6712 1.6462 1.6494c0.90542 0.90716 1.6804 1.6099 1.7222 1.5616 0.0418-0.04829 0.22861-0.4658 0.41524-0.9278zm-8.9719-0.69164 1.5884-1.5916-1.6159-1.6125c-0.88872-0.88689-1.6415-1.5869-1.6729-1.5555-0.0314 0.03135-0.22222 0.42526-0.42417 0.87536-0.34519 0.76936-0.36717 0.90657-0.36717 2.2917 0 1.3914 0.021 1.5209 0.37787 2.3288 0.20782 0.47053 0.41107 0.8555 0.45166 0.8555 0.0406 0 0.78857-0.71624 1.6622-1.5916zm5.0642-5.0642c0.88687-0.88871 1.5881-1.6389 1.5583-1.667-0.0298-0.02815-0.42614-0.21902-0.88077-0.42417-0.78082-0.35234-0.90837-0.37299-2.3034-0.37299-1.435 0-1.5031 0.01201-2.4076 0.42418l-0.93081 0.42418 1.6125 1.6158c0.88687 0.8887 1.641 1.6158 1.6758 1.6158 0.0348 0 0.78896-0.72712 1.6758-1.6158z" stroke-width=".12"/>
</svg>
