<?xml version="1.0" encoding="UTF-8"?>
<!DOCTYPE svg  PUBLIC '-//W3C//DTD SVG 20010904//EN'  'http://www.w3.org/TR/2001/REC-SVG-20010904/DTD/svg10.dtd'>
<svg width="84pt" height="84pt" version="1.0" viewBox="0 0 84 84" xmlns="http://www.w3.org/2000/svg">
	<g transform="translate(0 84) scale(.1 -.1)">
		<path d="m15 591c-11-23-15-64-15-176v-145h33c28 0 38-7 58-37 20-32 31-39 62-41 45-4 84 18 97 54l10 24h185c106 0 185-4 185-9s12-23 26-40c45-54 123-37 147 32 4 9 13 17 22 17 13 0 15 19 15 128-1 110-4 133-23 172l-22 45-382 3-382 2-16-29zm235-96v-45h-60-60v45 45h60 60v-45zm190 0v-45h-60-60v45 45h60 60v-45zm190 0v-45h-60-60v45 45h60 60v-45zm140 5c11-21 20-42 20-45s-20-5-45-5h-45v45c0 41 2 45 25 45 19 0 29-10 45-40zm-700-10c0-22-4-40-10-40-11 0-13 39-4 64 10 26 14 19 14-24z"/>
	</g>
</svg>
