<?xml version="1.0" encoding="UTF-8"?>
<!DOCTYPE svg  PUBLIC '-//W3C//DTD SVG 20010904//EN'  'http://www.w3.org/TR/2001/REC-SVG-20010904/DTD/svg10.dtd'>
<svg width="84pt" height="84pt" version="1.0" viewBox="0 0 84 84" xmlns="http://www.w3.org/2000/svg">
	<g transform="translate(0 84) scale(.1 -.1)">
		<path d="m100 410v-331l63 3 62 3 5 250c3 138 7 243 8 234s26-110 56-225c29-115 56-222 60-237 6-27 8-28 68-25l62 3 65 257 66 258 3-260 2-260h60 60v330 330h-99-98l-48-182c-66-252-65-248-73-248-6 0-28 77-114 398l-9 32h-99-100v-330z"/>
	</g>
</svg>
