<?xml version="1.0" encoding="UTF-8"?>
<!DOCTYPE svg  PUBLIC '-//W3C//DTD SVG 20010904//EN'  'http://www.w3.org/TR/2001/REC-SVG-20010904/DTD/svg10.dtd'>
<svg width="84pt" height="84pt" version="1.0" viewBox="0 0 84 84" xmlns="http://www.w3.org/2000/svg">
	<g transform="translate(0 84) scale(.1 -.1)">
		<path d="m299 766c-74-26-126-61-161-109-48-66-69-116-75-181-6-64-7-66-34-66h-29v-205-205h420 420v205 205h-29c-28 0-28 1-33 64-4 51-14 77-47 134-49 84-99 126-189 158-86 30-158 30-243 0zm227-85c105-48 167-141 168-253 0-37-2-69-4-70-11-8-150 4-150 13 0 5 9 9 20 9 19 0 20 7 20 105 0 121-9 144-71 176-43 21-127 26-162 8-12-6-39-27-59-47l-38-36v-99c0-90 2-99 20-104 40-11 18-21-49-25l-70-3-5 29c-22 111 44 234 156 290 65 33 161 35 224 7zm-136-141c0-28-3-30-35-30s-35 2-35 30 3 30 35 30 35-2 35-30zm130 0c0-28-3-30-35-30s-35 2-35 30 3 30 35 30 35-2 35-30zm-40-170c0-6-27-10-60-10s-60 4-60 10 27 10 60 10 60-4 60-10z"/>
	</g>
</svg>
