<?xml version="1.0" encoding="UTF-8"?>
<!DOCTYPE svg  PUBLIC '-//W3C//DTD SVG 20010904//EN'  'http://www.w3.org/TR/2001/REC-SVG-20010904/DTD/svg10.dtd'>
<svg width="84pt" height="84pt" version="1.0" viewBox="0 0 84 84" xmlns="http://www.w3.org/2000/svg">
	<g transform="translate(0 84) scale(.1 -.1)">
		<path d="m360 818c-21-22-23-49-7-88 4-10-9-26-40-50-26-19-88-69-138-111-49-41-103-82-120-90-21-10-30-21-30-38 0-46 61-55 72-11 5 17 14 20 68 20 47 0 64 4 69 15 4 12-5 15-49 15h-55l27 24c69 62 171 146 176 146 3 0-12-42-33-92-21-51-67-164-103-251l-66-158 27 3c24 3 31 14 69 106 23 57 50 122 60 145 11 23 42 97 69 165 32 79 54 122 62 120 12-3 42-71 194-446 36-88 44-102 65-102 13 0 23 2 23 4 0 5-86 223-154 391-24 60-43 112-41 114s49-36 105-83l101-86h-55c-45 0-54-3-50-15 5-11 22-15 70-15 58 0 64-2 64-20 0-12 9-24 23-29 54-21 83 48 30 71-16 7-66 44-113 83s-111 91-142 115c-56 44-68 63-48 75 13 8 2 55-18 78-22 26-86 23-112-5zm87-34c8-21-19-46-40-38-17 6-23 35-10 47 12 13 44 7 50-9z"/>
		<path d="m110 415c-5-14-17-28-25-31-25-10-17-51 16-89 17-19 35-35 39-35 7 0 15 16 61 133l19 47h-50c-45 0-52-3-60-25z"/>
		<path d="m620 433c0-4 16-49 37-100 30-76 39-91 52-83 25 13 49 43 65 81l15 36-35 16c-22 11-34 24-34 37 0 17-7 20-50 20-27 0-50-3-50-7z"/>
		<path d="m320 404c0-21 101-31 169-18 18 4 30 11 28 17-5 15-197 15-197 1z"/>
		<path d="m276 296c-18-39-31-74-29-78 5-10 346-10 341 0-1 4-16 39-31 78l-29 70-59-10c-40-7-76-6-110 0l-50 11-33-71z"/>
		<path d="m20 75v-35h400 400v35 35h-400-400v-35z"/>
	</g>
</svg>
