<?xml version="1.0" encoding="UTF-8"?>
<!DOCTYPE svg  PUBLIC '-//W3C//DTD SVG 20010904//EN'  'http://www.w3.org/TR/2001/REC-SVG-20010904/DTD/svg10.dtd'>
<svg width="84pt" height="84pt" version="1.0" viewBox="0 0 84 84" xmlns="http://www.w3.org/2000/svg">
	<g transform="translate(0 84) scale(.1 -.1)">
		<path d="m81 478c-23-57-41-110-41-120 0-21 77-78 107-78 16 0 23-6 23-20 0-18 7-20 65-20s65 2 65 20c0 19 7 20 130 20s130-1 130-20c0-18 7-20 65-20s65 2 65 20c0 15 7 20 25 20 39 0 104 50 105 81 0 23-31 107-70 192l-13 27h-308-307l-41-102zm179 22v-50h-75c-45 0-75 4-75 10s9 29 20 50c20 39 21 40 75 40h55v-50zm160 0v-50h-65-65v50 50h65 65v-50zm158 3-3-48-62-3-63-3v51 50h66 65l-3-47zm162-5 18-48h-79-79v50 51l122-6 18-47z"/>
		<path d="m30 155v-55h395 395v55 55h-44c-35 0-45-4-49-20-5-18-14-20-101-20-89 0-96 1-96 20s-7 20-105 20-105-1-105-20-7-20-96-20c-87 0-96 2-101 20-4 16-14 20-49 20h-44v-55z"/>
	</g>
</svg>
