<?xml version="1.0" encoding="UTF-8"?>
<!DOCTYPE svg  PUBLIC '-//W3C//DTD SVG 20010904//EN'  'http://www.w3.org/TR/2001/REC-SVG-20010904/DTD/svg10.dtd'>
<svg width="84pt" height="84pt" version="1.0" viewBox="0 0 84 84" xmlns="http://www.w3.org/2000/svg">
	<g transform="translate(0 84) scale(.1 -.1)">
		<path d="m108 796c-71-63-100-196-105-488l-4-218h25c19 0 25-6 28-27l3-28 93-3 92-3v31 30h185 185v-30-30h90 90v30c0 25 4 30 25 30h25v203c0 156-4 228-19 309-21 118-37 154-81 192l-32 26h-286c-287-1-287-1-314-24zm502-61v-25h-185-185v25 25h185 185v-25zm-230-190v-105h-151-151l5 28c3 15 11 62 17 105l13 77h133 134v-105zm369 28c7-43 15-90 18-105l6-28h-157-156v105 105h138 138l13-77zm-569-288c0-10-11-15-35-15s-35 5-35 15 11 15 35 15 35-5 35-15zm560 0c0-11-11-15-40-15s-40 4-40 15 11 15 40 15 40-4 40-15z"/>
	</g>
</svg>
