<?xml version="1.0" encoding="UTF-8"?>
<!DOCTYPE svg  PUBLIC '-//W3C//DTD SVG 20010904//EN'  'http://www.w3.org/TR/2001/REC-SVG-20010904/DTD/svg10.dtd'>
<svg width="84pt" height="84pt" version="1.0" viewBox="0 0 84 84" xmlns="http://www.w3.org/2000/svg">
	<g transform="translate(0 84) scale(.1 -.1)">
		<path d="m535 779c-110-32-263-77-340-100s-142-43-144-45c-3-2 0-9 6-15 7-7 59 3 174 36 90 25 175 50 188 56 57 24 65-45 16-142l-25-49h-80c-73 0-80-2-80-20 0-19 7-20 170-20s170 1 170 20c0 18-7 20-74 20h-75l26 56c20 44 24 67 21 105l-5 49 71 21c164 48 220 67 224 78 7 20-40 10-243-50z"/>
		<path d="m222 463c-7-3-28-35-47-71-19-37-43-80-54-97-12-16-21-38-21-48 0-19 97-198 114-209 14-10 388-10 402 0 9 6 56 86 105 179 16 32 16 33-29 120-73 142-54 133-271 132-102 0-192-3-199-6zm88-133v-100h-83c-46 0-86 3-90 6-3 4 0 16 7 28 8 11 32 54 55 94 39 67 44 72 76 72h35v-100zm170 5v-95h-60-60v95 95h60 60v-95zm156 33c20-35 46-78 56-95l20-33h-91-91v95 95h34c32 0 38-5 72-62z"/>
	</g>
</svg>
