<?xml version="1.0" encoding="UTF-8"?>
<!DOCTYPE svg  PUBLIC '-//W3C//DTD SVG 20010904//EN'  'http://www.w3.org/TR/2001/REC-SVG-20010904/DTD/svg10.dtd'>
<svg width="84pt" height="84pt" version="1.0" viewBox="0 0 84 84" xmlns="http://www.w3.org/2000/svg">
	<g transform="translate(0 84) scale(.1 -.1)">
		<path d="m361 808c-39-40-11-106 56-134 43-19 60-10 68 35 11 64-15 106-72 117-24 5-35 1-52-18z"/>
		<path d="m279 605-86-65-23-86c-22-80-22-86-6-102 31-31 58 5 80 109 3 16 21 37 45 52l39 26-5-82-6-82 86-75 85-75 33-112 32-113h49c59 0 58-14 2 167-32 105-37 114-87 158l-52 48v125 126l-40 23c-22 12-44 23-50 23-5-1-49-30-96-65z"/>
		<path d="m490 453c0-44 4-51 40-80 48-41 77-43 86-7 7 27 9 25-88 105l-38 31v-49z"/>
		<path d="m339 278c-7-13-43-72-81-131-80-124-82-147-17-147 27 0 39 4 39 14 0 8 4 16 9 18s38 50 74 107l65 104-35 29c-20 15-37 28-39 28s-9-10-15-22z"/>
	</g>
</svg>
