<?xml version="1.0" encoding="UTF-8"?>
<!DOCTYPE svg  PUBLIC '-//W3C//DTD SVG 20010904//EN'  'http://www.w3.org/TR/2001/REC-SVG-20010904/DTD/svg10.dtd'>
<svg width="84pt" height="84pt" version="1.0" viewBox="0 0 84 84" xmlns="http://www.w3.org/2000/svg">
	<g transform="translate(0 84) scale(.1 -.1)">
		<path d="m246 670c-77-49-148-98-159-108-18-18-19-29-12-137l8-117 31-19c17-11 67-38 112-61l81-42 119 75c65 42 138 86 161 99 23 12 44 31 46 42 7 25 1 234-7 247-12 18-193 111-217 111-13 0-87-41-163-90zm268 9c53-28 96-52 96-53 0-10-144-96-149-89-17 19-102 155-99 157 9 7 53 36 54 36s45-23 98-51zm-109-179c-6-10-96-63-99-58-13 16-97 161-94 163 2 1 25 17 52 34l49 31 49-81c26-44 46-84 43-89zm-187-12 50-82-71-43c-40-24-75-43-79-43-5 0-8 50-8 111 0 95 3 114 18 125 9 7 22 14 28 14s34-37 62-82z"/>
		<path d="m750 380c-123-76-351-216-408-250-76-45-93-63-74-82 8-8 72 27 224 122 117 73 232 145 256 159 23 14 41 32 40 40-4 18-19 22-38 11z"/>
	</g>
</svg>
