<?xml version="1.0" encoding="UTF-8"?>
<!DOCTYPE svg  PUBLIC '-//W3C//DTD SVG 20010904//EN'  'http://www.w3.org/TR/2001/REC-SVG-20010904/DTD/svg10.dtd'>
<svg width="84pt" height="84pt" version="1.0" viewBox="0 0 84 84" xmlns="http://www.w3.org/2000/svg">
	<g transform="translate(0 84) scale(.1 -.1)">
		<path d="m317 733c-16-43-44-118-62-168-147-394-173-464-180-484-6-21-5-22 76-19l83 3 54 160h147 148l31-82 31-83h82 83l-11 28c-37 95-142 371-149 392-5 14-35 93-68 175l-60 150-88 3-89 3-28-78zm168-237c25-70 45-129 45-132 0-2-43-4-95-4s-95 3-95 8 58 176 85 251c3 8 7 12 10 9 2-2 25-62 50-132z"/>
	</g>
</svg>
