<?xml version="1.0" encoding="UTF-8"?>
<!DOCTYPE svg  PUBLIC '-//W3C//DTD SVG 20010904//EN'  'http://www.w3.org/TR/2001/REC-SVG-20010904/DTD/svg10.dtd'>
<svg width="84pt" height="84pt" version="1.0" viewBox="0 0 84 84" xmlns="http://www.w3.org/2000/svg">
	<g transform="translate(0 84) scale(.1 -.1)">
		<path d="m49 775c-34-18-39-46-39-211 0-138 9-184 35-184 11 0 15-11 15-39 0-22 5-41 12-43 17-6-13-68-32-68-9 0-21-5-28-12-16-16-15-93 2-107 9-8 127-10 417-9l404 3v130 130h-195-195l-3-24c-7-47 6-71 38-71 23 0 30-4 30-20 0-18-7-20-58-20-55 0-58 1-71 32-11 24-11 33-3 36 7 2 12 20 12 39 0 26 7 40 25 55 25 19 25 20 25 188v170l-27 17c-37 25-323 31-364 8zm273-500 5-25h-98c-99 0-99 0-99 25s0 25 94 25c92 0 94 0 98-25z"/>
	</g>
</svg>
