<?xml version="1.0" encoding="UTF-8"?>
<!DOCTYPE svg  PUBLIC '-//W3C//DTD SVG 20010904//EN'  'http://www.w3.org/TR/2001/REC-SVG-20010904/DTD/svg10.dtd'>
<svg width="84pt" height="84pt" version="1.0" viewBox="0 0 84 84" xmlns="http://www.w3.org/2000/svg">
	<g transform="translate(0 84) scale(.1 -.1)">
		<path d="m181 805c-111-60-101-16-101-437v-368h340 340l-2 377-3 377-166 86h-172-172l-64-35zm519-430v-295h-45c-35 0-45 4-45 16 0 9-9 18-20 21-20 5-29 33-10 33 6 0 10 17 10 38 0 26 7 45 20 57 18 17 20 31 20 186v168l-26 20c-25 19-40 21-188 21-167-1-182-4-203-45-5-11-9-89-8-174 1-146 2-154 23-171 14-12 22-29 22-49 0-17 5-40 12-51 10-15 9-24-2-44-11-22-20-26-62-26h-48v295 295h275 275v-295zm-180-250v-26l-97 3c-93 3-98 4-101 26s-1 22 97 22h101v-25z"/>
	</g>
</svg>
