<?xml version="1.0" encoding="UTF-8"?>
<!DOCTYPE svg  PUBLIC '-//W3C//DTD SVG 20010904//EN'  'http://www.w3.org/TR/2001/REC-SVG-20010904/DTD/svg10.dtd'>
<svg width="84pt" height="84pt" version="1.0" viewBox="0 0 84 84" xmlns="http://www.w3.org/2000/svg">
	<g transform="translate(0 84) scale(.1 -.1)">
		<path d="m29 764c-11-13-14-56-14-191 0-155 2-176 17-187 11-8 18-26 18-44 0-17 7-37 15-46 8-8 15-17 15-20 0-8-33-39-56-52-24-14-31-95-10-113 9-8 127-10 417-9l404 3v130 130l-42 3-43 3v165 164h35c33 0 35 2 35 35v36l-203 1c-111 1-286 3-388 5-165 3-187 2-200-13zm651-229v-164l-117-3-118-3-3-47-3-48h35c29 0 36-4 36-20 0-18-7-20-60-20-47 0-60 3-60 15 0 8-4 15-10 15-5 0-10 7-10 15s5 15 10 15c6 0 10 18 10 41 0 32 6 46 25 61 25 19 25 22 25 164v144h120 120v-165zm-320 80v-45h-140-140v45 45h140 140v-45zm-263-272c-3-10-5-2-5 17s2 27 5 18c2-10 2-26 0-35zm226-73c5-19 0-20-94-20-92 0-99 1-99 20s7 20 94 20c85 0 94-2 99-20z"/>
	</g>
</svg>
