<?xml version="1.0" encoding="UTF-8"?>
<!DOCTYPE svg  PUBLIC '-//W3C//DTD SVG 20010904//EN'  'http://www.w3.org/TR/2001/REC-SVG-20010904/DTD/svg10.dtd'>
<svg width="86pt" height="83pt" version="1.0" viewBox="0 0 86 83" xmlns="http://www.w3.org/2000/svg">
	<g transform="translate(0 83) scale(.1 -.1)">
		<path d="m461 804c-12-15-21-35-21-45 0-12-9-19-27-21-24-3-28-8-31-41-1-21-16-118-33-215s-33-193-35-212-11-68-19-109c-8-40-15-84-15-97 0-21-4-24-41-24-28 0-39-4-37-12 4-10 55-14 201-16 168-2 197 0 197 12 0 10-13 16-42 18l-42 3-23 130c-13 72-37 209-53 305-17 96-33 185-37 198-9 36 29 28 47-10 31-66 109-94 175-62 68 32 94 109 59 177-21 41-31 47-74 45-22 0-27-2-13-5 55-11 91-100 63-154-14-25-62-49-101-49-41 0-99 56-99 97 0 43 34 91 72 102l33 9-42 1c-34 1-45-4-62-25z"/>
	</g>
</svg>
