<?xml version="1.0" encoding="UTF-8"?>
<!DOCTYPE svg  PUBLIC '-//W3C//DTD SVG 20010904//EN'  'http://www.w3.org/TR/2001/REC-SVG-20010904/DTD/svg10.dtd'>
<svg width="84pt" height="84pt" version="1.0" viewBox="0 0 84 84" xmlns="http://www.w3.org/2000/svg">
	<g transform="translate(0 84) scale(.1 -.1)">
		<path d="m402 828c-16-16-15-65 0-70 9-3 8-10-5-22-22-23-50-76-40-77 5 0-3-4-15-10-13-5-26-17-28-27-3-9-18-25-34-34-27-15-90-100-90-120 0-18 54-6 83 18 25 21 38 25 68 20 44-7 102 27 107 62 2 12 9 22 16 22 24 0 50 40 50 77 0 26-7 42-27 58-22 20-24 25-12 35 20 17 19 44-3 63-22 20-53 22-70 5z"/>
		<path d="m174 441c-2-2-4-19-4-38 0-18-4-33-8-33-5 0-14-24-21-52-10-44-10-60 1-93 20-57 14-75-28-75-34 0-34 0-34-45v-45h46c37 0 50-5 66-25 38-49 125-24 141 40 4 16 5 15 6-6 1-37 31-59 78-59 44 0 59 12 73 57 6 21 8 23 9 8 1-11 8-31 17-43 32-46 134-15 134 41 0 12 9 17 30 17 29 0 30 2 30 45v45h-271c-177 0-268 3-264 10 4 6 77 10 186 10h179v80 80h-140-140v43 42h-41c-22 0-42-2-45-4zm108-328c34-31 16-73-32-73-15 0-34 8-44 18-15 18-15 20 8 45 29 31 42 33 68 10zm162 4c12-9 17-23 14-42-3-28-6-30-43-30s-40 2-43 30c-4 29 17 55 43 55 6 0 19-6 29-13zm157 3c22-13 25-52 5-69-8-7-27-11-43-9-22 2-29 9-31 29-3 26 19 59 39 59 6 0 19-5 30-10z"/>
		<path d="m230 79c0-14 5-19 17-17 26 5 29 38 4 38-15 0-21-6-21-21z"/>
		<path d="m390 80c0-16 5-21 23-18 12 2 22 10 22 18s-10 16-22 18c-18 3-23-2-23-18z"/>
		<path d="m550 105c-20-25-8-50 25-50 21 0 31 5 33 18 4 21-14 47-33 47-7 0-18-7-25-15z"/>
		<path d="m562 438c-15-15-16-45-2-53 6-3 10-46 10-96v-89h64c36 0 68-4 71-10 17-28 25-1 25 84 0 53 4 98 10 101 16 10 12 62-6 69-29 11-160 6-172-6zm98-98c0-23-4-30-20-30s-20 7-20 30 4 30 20 30 20-7 20-30z"/>
	</g>
</svg>
