<?xml version="1.0" encoding="UTF-8"?>
<!DOCTYPE svg  PUBLIC '-//W3C//DTD SVG 20010904//EN'  'http://www.w3.org/TR/2001/REC-SVG-20010904/DTD/svg10.dtd'>
<svg width="84pt" height="84pt" version="1.0" viewBox="0 0 84 84" xmlns="http://www.w3.org/2000/svg">
	<g transform="translate(0 84) scale(.1 -.1)">
		<path d="m453 818c-27-31-35-56-24-77 7-13 5-21-10-32-11-7-46-55-79-104-54-82-61-99-69-165-11-81-20-112-83-267-57-142-45-173 68-173 50 0 55 10 19 46-14 14-25 34-25 45 0 21 25 73 47 97 7 7 21 33 32 57 11 25 24 45 30 45 14 0 49-52 64-96 13-38 12-41-30-109-24-38-43-73-43-77 0-5 9-8 20-8 14 0 30 15 48 45 15 24 30 45 34 45s10-20 14-45l6-45h76c41 0 73 2 71 5-3 2-20 15-39 27-31 21-36 31-46 93l-12 70 56 97c32 54 62 98 69 98 22 0 25 21 6 42-10 12-42 36-70 55-77 49-87 68-74 139 9 45 18 64 41 84 36 31 39 66 9 104-27 34-77 36-106 4zm42-347c17-10 45-32 64-48l34-29-94-146-34 53c-35 54-44 109-29 167 8 27 20 28 59 3z"/>
		<path d="m304 702c-112-191-111-190-89-206 11-8 24-12 30-9 8 3 142 216 153 244 2 4-10 15-26 23l-29 15-39-67z"/>
	</g>
</svg>
