<?xml version="1.0" encoding="UTF-8"?>
<!DOCTYPE svg  PUBLIC '-//W3C//DTD SVG 20010904//EN'  'http://www.w3.org/TR/2001/REC-SVG-20010904/DTD/svg10.dtd'>
<svg width="84pt" height="84pt" version="1.0" viewBox="0 0 84 84" xmlns="http://www.w3.org/2000/svg">
	<g transform="translate(0 84) scale(.1 -.1)">
		<path d="m310 821c-121-39-199-97-249-185-62-110-77-227-42-348 34-119 103-197 223-253 73-33 82-35 183-35s110 2 183 35c82 38 126 74 174 143 47 67 60 129 56 257-3 103-5 116-37 178-38 76-96 134-168 170-114 58-222 71-323 38zm263-105c149-71 226-255 173-412-23-70-97-155-166-190-71-38-191-45-272-18-75 25-178 127-203 204-39 115-16 236 64 334 29 37 42 46 115 84 77 40 201 39 289-2z"/>
		<path d="m230 415v-245h45 45v110 110h100 100v-110-110h50 50v245 245h-50-50v-95-95h-100-100v95 95h-45-45v-245z"/>
	</g>
</svg>
