<?xml version="1.0" encoding="UTF-8"?>
<!DOCTYPE svg  PUBLIC '-//W3C//DTD SVG 20010904//EN'  'http://www.w3.org/TR/2001/REC-SVG-20010904/DTD/svg10.dtd'>
<svg width="84pt" height="84pt" version="1.0" viewBox="0 0 84 84" xmlns="http://www.w3.org/2000/svg">
	<g transform="translate(0 84) scale(.1 -.1)">
		<path d="m430 801c25-47 4-96-66-151-53-42-74-83-74-145 0-91 33-152 109-203 23-16 25-15 67 31 62 68 85 124 87 204 2 78-8 145-28 183-17 32-65 86-65 74 0-5-5-1-11 9-14 24-33 22-19-2z"/>
		<path d="m578 545c-5-92-33-172-73-205-9-7-25-25-35-40l-20-28 73 14c106 20 159 68 162 146 2 50-5 67-55 128-21 25-40 52-42 60-3 8-7-25-10-75z"/>
		<path d="m260 561c0-4-18-35-40-67-44-65-50-105-24-155 19-38 68-59 136-59h53l-37 25c-53 36-82 103-83 192 0 40-1 73-2 73-2 0-3-4-3-9z"/>
		<path d="m151 263c-14-32-15-31 91-75l78-32-54-22c-29-12-75-29-102-38-73-25-76-27-63-64 6-18 18-32 26-32 9 0 78 25 154 56l139 57 139-57c76-31 145-56 154-56 11 0 37 45 37 66 0 1-49 21-110 44-60 24-107 47-104 51 3 5 10 9 16 9s42 14 80 32c59 27 68 34 62 52-3 12-10 25-14 29-6 7-202-59-241-82-12-7-49 4-135 39-66 27-124 49-130 50-6 0-16-12-23-27z"/>
	</g>
</svg>
