<?xml version="1.0" encoding="UTF-8"?>
<!DOCTYPE svg  PUBLIC '-//W3C//DTD SVG 20010904//EN'  'http://www.w3.org/TR/2001/REC-SVG-20010904/DTD/svg10.dtd'>
<svg width="84pt" height="84pt" version="1.0" viewBox="0 0 84 84" xmlns="http://www.w3.org/2000/svg">
	<g transform="translate(0 84) scale(.1 -.1)">
		<path d="m377 718-5-122-64-55c-34-31-99-90-143-133l-80-77 53-7c29-4 54-9 56-13 2-3 7-52 11-109l8-102h-57c-56 0-56 0-56-30v-30h273c273 0 274 0 295 23l22 23-108 34-6 78c-4 42-9 89-12 104l-5 27 40-16c33-13 43-13 56-3 8 7 15 17 15 22s-48 63-106 129c-91 103-124 154-124 193 0 4 10 6 23 3 93-23 93-23 107 27 7 26 11 48 9 50-47 38-158 106-174 106-21 0-22-5-28-122z"/>
	</g>
</svg>
