<?xml version="1.0" encoding="UTF-8"?>
<!DOCTYPE svg  PUBLIC '-//W3C//DTD SVG 20010904//EN'  'http://www.w3.org/TR/2001/REC-SVG-20010904/DTD/svg10.dtd'>
<svg width="84pt" height="84pt" version="1.0" viewBox="0 0 84 84" xmlns="http://www.w3.org/2000/svg">
	<g transform="translate(0 84) scale(.1 -.1)">
		<path d="m216 795c-22-8-56-30-75-50l-36-35-3-225-4-225h31 31v220c0 219 0 221 24 245 32 32 101 42 151 21 62-26 64-33 65-208v-158h-25-25v140c0 127-2 142-20 160-28 28-110 24-110-6 0-8-4-14-10-14s-10-73-10-200v-200h25 25v200 200h25 25v-140c0-87-4-140-10-140s-10-55-10-145v-145h-40-40v-45-45h225 225v45c0 43-1 45-30 45h-30v145c0 138-1 145-20 145s-20 7-20 140v140h25 25v-200-200h25 25v200c0 187-1 201-20 220-27 27-83 27-110-2-18-20-20-35-20-160v-138h-26-26l3 159c4 139 6 161 23 180 44 48 141 51 193 6l28-23 6-442h25 24v211c0 174-3 217-16 245-20 43-57 70-117 85-53 15-113 2-162-36l-31-23-27 24c-27 23-85 44-122 44-11-1-38-7-59-15z"/>
	</g>
</svg>
