<?xml version="1.0" encoding="UTF-8"?>
<!DOCTYPE svg  PUBLIC '-//W3C//DTD SVG 20010904//EN'  'http://www.w3.org/TR/2001/REC-SVG-20010904/DTD/svg10.dtd'>
<svg width="84pt" height="84pt" version="1.0" viewBox="0 0 84 84" xmlns="http://www.w3.org/2000/svg">
	<g transform="translate(0 84) scale(.1 -.1)">
		<path d="m320 811c-49-49-49-72 4-173 25-48 58-107 72-130 32-50 28-54 114 108 54 101 58 114 50 146-16 55-56 78-140 78-65 0-74-2-100-29z"/>
		<path d="m102 693c-54-26-72-58-72-125 0-112 28-128 220-128 71 0 130 2 130 5 0 13-123 216-145 239-29 31-82 35-133 9z"/>
		<path d="m628 699c-15-8-158-238-158-253 0-11 257-6 289 5 18 6 38 24 46 40 21 39 19 128-3 156-42 52-129 79-174 52z"/>
		<path d="m74 378c-31-14-44-50-44-118s12-85 79-120c51-25 81-25 114 0 19 16 88 124 154 243 6 11-279 7-303-5z"/>
		<path d="m473 383c118-216 154-263 203-263 34 0 98 34 123 66 39 50 22 167-28 194-22 11-304 14-298 3z"/>
		<path d="m382 303c-72-123-102-185-102-209 0-13 14-39 31-59 31-34 32-35 109-35 89 0 121 17 140 75 11 34 9 40-51 148-93 168-81 160-127 80z"/>
	</g>
</svg>
