<?xml version="1.0" encoding="UTF-8"?>
<!DOCTYPE svg  PUBLIC '-//W3C//DTD SVG 20010904//EN'  'http://www.w3.org/TR/2001/REC-SVG-20010904/DTD/svg10.dtd'>
<svg width="103pt" height="98pt" version="1.0" viewBox="0 0 103 98" xmlns="http://www.w3.org/2000/svg">
	<g transform="translate(0 98) scale(.1 -.1)">
		<path d="m12 960c-9-15-12-127-12-462 0-421 1-444 20-468l19-25 433-3c476-2 470-3 501 58 16 32 17 70 15 450-3 379-5 418-21 443l-17 27h-463c-450 0-463-1-475-20zm899-29 24-19v-410c0-389-1-411-19-431-19-21-25-21-431-21s-412 0-431 21c-18 20-19 42-19 431v410l24 19c22 18 44 19 426 19s404-1 426-19z"/>
		<path d="m305 724c-99-75-181-137-182-138-2-2 30-97 70-212l74-209h219 219l72 195c40 107 72 200 70 206-2 10-184 158-327 266l-36 27-179-135zm335-51c83-64 150-121 150-127 0-5-28-83-61-173l-62-163h-182-182l-58 168c-32 92-58 173-59 180-1 12 278 229 297 231 4 1 75-52 157-116z"/>
		<path d="m343 660-132-99 49-143c26-79 51-151 55-160 6-16 24-18 174-18h166l53 148c29 81 52 150 52 154 0 9-266 218-277 217-4 0-67-45-140-99zm290-64c42-32 77-64 77-70s-20-63-44-126l-43-115-270-6-47 132c-43 123-45 133-29 145 10 7 61 44 113 82l95 70 35-27c20-14 70-52 113-85z"/>
		<path d="m408 625c-37-29-79-61-93-71l-26-19 26-70c14-39 32-89 41-112l16-43h116 117l38 99c20 54 37 102 37 107-1 8-185 156-199 161-4 1-36-22-73-52zm149-60c40-31 73-60 73-65s-12-41-26-79l-26-71h-88-88l-18 48c-9 26-23 62-31 81-7 19-10 38-6 42 13 13 128 98 132 99 2 0 37-25 78-55z"/>
	</g>
</svg>
