<?xml version="1.0" encoding="UTF-8"?>
<!DOCTYPE svg  PUBLIC '-//W3C//DTD SVG 20010904//EN'  'http://www.w3.org/TR/2001/REC-SVG-20010904/DTD/svg10.dtd'>
<svg width="84pt" height="84pt" version="1.0" viewBox="0 0 84 84" xmlns="http://www.w3.org/2000/svg">
	<g transform="translate(0 84) scale(.1 -.1)">
		<path d="m20 835c0-3 87-99 194-212l194-206-189-201c-104-110-189-204-189-208 0-5 180-8 400-8s400 3 400 6c0 4-71 81-157 173-86 91-172 183-191 203l-35 37 192 202c105 112 191 207 191 211 0 5-182 8-405 8s-405-2-405-5zm629-92c-80-92-215-233-222-233-5 0-34 28-65 62-32 35-88 96-126 135l-69 73h257 258l-33-37zm-130-510c46-49 99-105 118-125l35-38h-242-242l37 43c80 89 195 207 202 207 4 0 46-39 92-87z"/>
	</g>
</svg>
