<?xml version="1.0" encoding="UTF-8"?>
<!DOCTYPE svg  PUBLIC '-//W3C//DTD SVG 20010904//EN'  'http://www.w3.org/TR/2001/REC-SVG-20010904/DTD/svg10.dtd'>
<svg width="84pt" height="84pt" version="1.0" viewBox="0 0 84 84" xmlns="http://www.w3.org/2000/svg">
	<g transform="translate(0 84) scale(.1 -.1)">
		<path d="m10 834c0-4 88-98 197-211l196-204-34-37c-19-20-106-112-193-205-88-92-157-170-154-172 3-3 186-4 406-3l402 3-194 206-195 206 195 206c107 113 194 208 194 211 0 4-184 6-410 6s-410-3-410-6z"/>
	</g>
</svg>
