<?xml version="1.0" encoding="UTF-8"?>
<!DOCTYPE svg  PUBLIC '-//W3C//DTD SVG 20010904//EN'  'http://www.w3.org/TR/2001/REC-SVG-20010904/DTD/svg10.dtd'>
<svg width="84pt" height="84pt" version="1.0" viewBox="0 0 84 84" xmlns="http://www.w3.org/2000/svg">
	<g transform="translate(0 84) scale(.1 -.1)">
		<path d="m385 818c-2-7-6-44-7-81l-3-68-64 47-64 48-23-30c-13-16-22-33-21-39 2-5 33-32 70-60 36-27 69-53 72-56 3-4-24-28-60-53-36-26-65-51-65-56s12-22 26-39l26-31 41 32c23 17 48 36 55 41 9 7 12-3 12-46 0-41-3-55-12-52-7 3-42-18-78-45l-65-49-6 170-74-6-3-77c-2-43-5-78-8-78s-31 20-63 45c-31 25-60 45-64 45s-7-24-7-54c0-54 0-54 54-93l53-38-53-40c-49-36-54-43-52-74 5-55 27-60 84-17l49 38 6-102h40 39v50c0 28 3 50 6 50s26-16 52-35c52-41 67-41 90-3 16 27 16 28-15 55-17 16-47 39-66 53l-35 25 32 22c17 12 36 26 41 30 6 5 27 22 48 37 22 17 36 35 33 43-4 9 3 13 19 13s23-4 19-13c-3-8 11-26 33-42 21-16 40-31 43-35 3-3 21-16 42-30l36-24-59-44c-70-50-77-63-55-97 22-33 34-32 90 10l46 36v-51-50h44 45l6 102 48-37c58-44 77-41 77 14 0 35-5 44-48 77l-48 38 48 38c47 38 48 39 48 94 0 44-3 54-12 47-7-5-34-26-59-46s-49-37-52-37-7 35-9 78l-3 77h-40-40l-10-156-62 46c-34 26-67 44-73 40s-10 14-10 51c0 43 3 54 13 47 6-5 30-23 53-41l41-31 58 60-31 27c-17 15-48 41-68 57l-38 31 76 53c42 30 76 60 76 67s-11 25-23 40l-24 27-61-46c-33-26-63-47-66-47s-6 35-8 78l-3 77-38 3c-24 2-39-1-42-10z"/>
	</g>
</svg>
