<?xml version="1.0" encoding="UTF-8"?>
<!DOCTYPE svg  PUBLIC '-//W3C//DTD SVG 20010904//EN'  'http://www.w3.org/TR/2001/REC-SVG-20010904/DTD/svg10.dtd'>
<svg width="84pt" height="84pt" version="1.0" viewBox="0 0 84 84" xmlns="http://www.w3.org/2000/svg">
	<g transform="translate(0 84) scale(.1 -.1)">
		<path d="m0 380v-280l59 38c229 143 291 182 326 202l40 23 155-98c85-54 179-113 208-132l52-33v280c0 222-3 280-12 274-13-8-232-145-344-216l-61-38-99 61c-54 34-147 92-206 130s-110 69-113 69-5-126-5-280zm218 56c45-28 82-53 82-56s-41-30-91-60c-49-30-103-63-119-73l-30-19v152 152l38-23c20-12 74-45 120-73zm552-55v-140l-110 67c-60 37-109 69-110 72 0 6 193 129 218 139 1 1 2-62 2-138z"/>
	</g>
</svg>
