<?xml version="1.0" encoding="UTF-8"?>
<!DOCTYPE svg  PUBLIC '-//W3C//DTD SVG 20010904//EN'  'http://www.w3.org/TR/2001/REC-SVG-20010904/DTD/svg10.dtd'>
<svg width="84pt" height="84pt" version="1.0" viewBox="0 0 84 84" xmlns="http://www.w3.org/2000/svg">
	<g transform="translate(0 84) scale(.1 -.1)">
		<path d="m0 380v-280l59 38c229 143 291 182 326 202l40 23 155-98c85-54 179-113 208-132l52-33v280c0 222-3 280-12 274-13-8-232-145-344-216l-61-38-99 61c-54 34-147 92-206 130s-110 69-113 69-5-126-5-280z"/>
	</g>
</svg>
