<?xml version="1.0" encoding="UTF-8"?>
<!DOCTYPE svg  PUBLIC '-//W3C//DTD SVG 20010904//EN'  'http://www.w3.org/TR/2001/REC-SVG-20010904/DTD/svg10.dtd'>
<svg width="84pt" height="84pt" version="1.0" viewBox="0 0 84 84" xmlns="http://www.w3.org/2000/svg">
	<g transform="translate(0 84) scale(.1 -.1)">
		<path d="m380 585v-125h45 45v125 125h-45-45v-125z"/>
		<path d="m212 658c-18-11-32-24-32-29 0-4 24-48 53-96s56-96 60-106c7-19 19-16 61 15 17 14 15 20-46 125l-64 111-32-20z"/>
		<path d="m540 569c-30-56-56-105-58-109-1-4 15-18 36-33 21-14 45-39 52-56s18-31 24-31 37 16 69 35 60 35 62 35c4 0 76 47 83 55 3 3-15 36-35 64-1 2-49-22-105-54-57-32-106-60-110-62-13-7 4 29 59 126 30 51 53 94 51 95-29 21-55 36-63 36-5 0-35-46-65-101z"/>
		<path d="m55 500c-17-32-13-47 14-58 9-4 53-29 99-57l82-50-250-6v-44-45h130 130v53c0 31 6 61 15 73 27 35 17 48-86 104-56 30-105 56-110 58-4 2-15-11-24-28z"/>
		<path d="m590 285v-45h125 125v45 45h-125-125v-45z"/>
	</g>
</svg>
