<?xml version="1.0" encoding="UTF-8"?>
<!DOCTYPE svg  PUBLIC '-//W3C//DTD SVG 20010904//EN'  'http://www.w3.org/TR/2001/REC-SVG-20010904/DTD/svg10.dtd'>
<svg width="84pt" height="84pt" version="1.0" viewBox="0 0 84 84" xmlns="http://www.w3.org/2000/svg">
	<g transform="translate(0 84) scale(.1 -.1)">
		<path d="m380 709v-130l43 3 42 3 3 128 3 127h-46-45v-131z"/>
		<path d="m203 782-32-17 66-108c36-60 63-111 60-114s-54 24-114 60l-108 66-19-39c-11-22-18-41-15-43 2-2 51-30 108-62l104-59 16 25c20 31 49 60 80 80l25 16-61 103c-33 58-65 105-69 107-5 1-23-6-41-15z"/>
		<path d="m538 696c-32-56-58-105-58-108s17-17 38-31c22-14 45-39 52-56s16-31 21-31c7 0 204 106 219 117 7 6-32 73-42 73-5 0-54-27-110-60-55-34-102-59-105-56-3 2 23 52 56 110 34 58 61 108 61 111 0 6-56 35-67 35-4 0-34-47-65-104z"/>
		<path d="m0 415v-46l128 3 127 3 3 43 3 42h-130-131v-45z"/>
		<path d="m594 446c-3-8-4-27-2-43l3-28 123-3 122-3v46 45h-120c-95 0-122-3-126-14z"/>
		<path d="m145 303c-55-31-102-58-104-60-3-2 4-21 15-42l19-40 108 66c59 36 110 63 113 60 3-2-22-50-56-105-33-56-60-105-60-109 0-14 61-46 69-37 14 16 109 183 115 202 5 15-1 22-25 32-17 7-42 30-56 52-14 21-28 38-32 38-3 0-51-26-106-57z"/>
		<path d="m567 325c-10-21-31-42-52-52-19-9-35-20-35-25 0-6 105-203 117-217 1-2 19 4 38 15 42 22 43 18-32 142-30 51-53 95-50 98 2 3 50-22 105-56 56-33 105-60 110-60 10 0 49 67 42 73-14 11-211 117-218 117-5 0-16-16-25-35z"/>
		<path d="m387 244c-4-4-7-61-7-126v-118h45 46l-3 122-3 123-35 3c-20 2-39 0-43-4z"/>
	</g>
</svg>
