<?xml version="1.0" encoding="UTF-8"?>
<!DOCTYPE svg  PUBLIC '-//W3C//DTD SVG 20010904//EN'  'http://www.w3.org/TR/2001/REC-SVG-20010904/DTD/svg10.dtd'>
<svg width="84pt" height="83pt" version="1.0" viewBox="0 0 84 83" xmlns="http://www.w3.org/2000/svg">
	<g transform="translate(0 83) scale(.1 -.1)">
		<path d="m244 805c-12-18-14-34-9-57 4-18 10-124 12-235l4-203h174 174l17-57c10-32 19-62 20-68 26-94 40-137 47-137 4 0 39 9 78 19 60 15 69 21 67 38-3 20-14 22-58 11-24-7-26-4-60 115-19 67-42 132-51 143-16 19-29 21-173 24l-156 3v30 29h130 130v30 30h-130-130v79c0 70 2 80 19 86 24 7 54 69 46 95-12 37-35 50-85 50-42 0-52-4-66-25z"/>
		<path d="m185 487c-47-27-100-94-115-145-27-98 1-215 66-273s95-69 194-69c107 0 133 11 199 88 46 52 61 93 61 165v47h-39-39l-4-58c-5-72-32-111-104-149-50-26-55-27-109-16-69 15-109 43-136 96-38 73-12 196 48 228 19 10 23 20 23 61 0 26-1 48-2 48-2 0-21-10-43-23z"/>
	</g>
</svg>
