<?xml version="1.0" encoding="UTF-8"?>
<!DOCTYPE svg  PUBLIC '-//W3C//DTD SVG 20010904//EN'  'http://www.w3.org/TR/2001/REC-SVG-20010904/DTD/svg10.dtd'>
<svg width="84pt" height="84pt" version="1.0" viewBox="0 0 84 84" xmlns="http://www.w3.org/2000/svg">
	<g transform="translate(0 84) scale(.1 -.1)">
		<path d="m385 820c-51-34-56-94-9-124 29-20 57-20 93-1 49 25 47 92-4 125-37 25-43 25-80 0z"/>
		<path d="m82 698c-8-8-12-65-12-188v-177l160-208v-62-63h85 85v88c0 82-2 92-31 135-17 26-35 47-40 47s-9 7-9 15-9 20-20 27-20 18-20 25-9 18-20 25-20 18-20 24-11 21-25 34c-21 20-30 22-53 14-44-15-42-55 8-114 22-26 36-51 31-54-15-9-91 97-91 125 0 14 7 34 15 45 11 14 14 49 15 135 0 113-7 139-35 139-6 0-16-5-23-12z"/>
		<path d="m722 698c-19-19-16-227 4-267 9-18 13-42 10-54-9-32-75-119-86-112-5 3 8 29 30 56 43 54 48 74 27 103-25 34-57 16-129-74-38-47-77-94-87-105-34-36-41-63-41-154v-91h86 85l-4 130 79 98 79 97 3 180c3 162 2 181-14 192-22 16-27 16-42 1z"/>
		<path d="m329 633c-98-113-115-145-83-157 26-10 30-8 68 41l36 46v-36-37h75 75v37 36l30-42c37-50 56-59 78-38 14 15 11 23-44 94l-59 78-76 3c-71 3-76 1-100-25z"/>
		<path d="m316 440c-36-43-33-67 16-112 67-61 97-48 61 27-15 31-15 37-3 45 11 7 12 15 4 37-14 40-45 41-78 3z"/>
		<path d="m462 458c-15-15-15-51-1-65 9-9 8-18-5-37-21-32-21-66 0-66 32 0 103 73 104 107 0 19-50 73-69 73-9 0-22-5-29-12z"/>
	</g>
</svg>
