<?xml version="1.0" encoding="UTF-8"?>
<!DOCTYPE svg  PUBLIC '-//W3C//DTD SVG 20010904//EN'  'http://www.w3.org/TR/2001/REC-SVG-20010904/DTD/svg10.dtd'>
<svg width="84pt" height="84pt" version="1.0" viewBox="0 0 84 84" xmlns="http://www.w3.org/2000/svg">
	<g transform="translate(0 84) scale(.1 -.1)">
		<path d="m167 666c-58-21-101-55-133-105-25-40-29-57-32-133-3-74-1-95 17-132 26-54 62-91 116-120 38-20 53-21 290-21 214 0 255 2 288 17 20 9 37 21 37 27 0 5 8 12 19 16 10 3 31 23 45 45 24 37 26 47 26 155s-2 118-26 155c-14 22-34 42-44 45s-21 12-24 20-29 21-57 29c-70 21-464 22-522 2zm500-47c96-36 147-107 146-205-1-94-38-151-128-194-36-17-64-20-258-20-212 0-219 1-265 25-95 50-124 94-125 189-1 97 49 168 143 205 34 13 451 14 487 0z"/>
		<path d="m180 579c-41-16-90-71-101-112-23-86 13-167 92-207 34-18 60-20 254-20 179 0 221 3 248 16 45 23 66 44 88 86 27 53 24 104-11 164-45 79-65 84-328 83-119 0-228-5-242-10zm503-62c70-53 70-151 0-204l-36-28h-221c-201 0-224 2-249 19-92 62-68 210 38 239 11 3 113 5 226 4l206-2 36-28z"/>
	</g>
</svg>
