<?xml version="1.0" encoding="UTF-8"?>
<!DOCTYPE svg  PUBLIC '-//W3C//DTD SVG 20010904//EN'  'http://www.w3.org/TR/2001/REC-SVG-20010904/DTD/svg10.dtd'>
<svg width="84pt" height="84pt" version="1.0" viewBox="0 0 84 84" xmlns="http://www.w3.org/2000/svg">
	<g transform="translate(0 84) scale(.1 -.1)">
		<path d="m380 824c-118-19-246-96-293-177-110-188-82-401 71-539 98-88 265-121 392-78 98 33 145 65 198 137 59 79 85 154 85 250 1 214-158 387-373 406-30 3-66 3-80 1zm-70-74c0-11-11-37-25-58-19-29-38-42-79-56-87-30-103 0-32 60 38 32 107 71 129 73 4 1 7-8 7-19zm316-16c41-23 94-77 94-94 0-19-22-20-73-4-44 14-58 24-80 59-50 79-31 91 59 39zm-88-54c12-16 22-32 22-35s-15-28-32-55l-33-50h-67-66l-36 49c-20 27-36 52-36 55 0 4 10 20 22 36 21 29 23 30 113 30s92-1 113-30zm-247-117 35-48-19-61-20-61-62-20-61-20-42 64 27 89c23 73 32 90 52 95 45 13 55 9 90-38zm380 29c4-4 19-44 34-90l27-83-23-33-23-34-60 22c-60 21-60 21-79 81l-20 61 34 48c32 45 36 47 69 41 19-4 38-10 41-13zm-553-227c27-37 32-53 32-99 0-41-4-55-16-60-9-4-18-5-19-4-17 23-54 125-60 165-6 47-5 51 12 47 10-3 33-25 51-49zm678 4c-8-58-56-171-71-166-5 2-14 29-19 59-8 54-7 58 25 102 19 24 41 47 49 49 8 3 17 5 19 6 2 0 1-22-3-50zm-443-54 47-35v-64-64l-35-12c-33-11-38-9-110 41-75 52-76 53-73 92s5 41 53 58c66 23 63 24 118-16zm257 18 60-16v-42c0-42-2-44-75-94-72-50-77-52-110-41l-35 12v64 64l48 35c26 19 48 35 50 35 1 0 29-7 62-17zm-122-228c61-25 58-51-9-60-102-14-192 12-147 42 25 16 93 42 103 39 6-2 29-12 53-21z"/>
	</g>
</svg>
