<?xml version="1.0" encoding="UTF-8"?>
<!DOCTYPE svg  PUBLIC '-//W3C//DTD SVG 20010904//EN'  'http://www.w3.org/TR/2001/REC-SVG-20010904/DTD/svg10.dtd'>
<svg width="83pt" height="83pt" version="1.0" viewBox="0 0 83 83" xmlns="http://www.w3.org/2000/svg">
	<g transform="translate(0 83) scale(.1 -.1)">
		<path d="m116 739c-14-11-40-41-57-66-42-60-27-76 31-34 24 17 51 31 60 31 10 0 42-18 71-40 106-80 167-79 229 4 60 79 54 94-21 51-59-33-76-32-141 13-105 72-126 77-172 41z"/>
		<path d="m433 495c-19-14-83-104-83-118s27-6 62 18c48 32 72 32 117-4 74-58 143-77 191-51 21 11 90 97 90 111 0 15-28 10-62-11-51-31-87-26-162 25-72 48-115 57-153 30z"/>
		<path d="m119 265c-15-8-41-36-58-63-50-78-39-93 31-42 22 17 49 30 59 30 11 0 36-16 58-35 45-41 98-65 143-65 26 0 41 10 80 51 26 28 48 60 48 70 0 24-6 24-55-6-55-34-83-31-146 13-47 33-108 63-128 62-3-1-18-7-32-15z"/>
	</g>
</svg>
