<?xml version="1.0" encoding="UTF-8"?>
<!DOCTYPE svg  PUBLIC '-//W3C//DTD SVG 20010904//EN'  'http://www.w3.org/TR/2001/REC-SVG-20010904/DTD/svg10.dtd'>
<svg width="83pt" height="83pt" version="1.0" viewBox="0 0 83 83" xmlns="http://www.w3.org/2000/svg">
	<g transform="translate(0 83) scale(.1 -.1)">
		<path d="m330 809c-70-20-120-42-120-54 0-7 28-63 62-124 59-106 64-112 88-105 30 10 85 9 120-1 24-6 29 0 88 106 34 61 62 117 62 124s-36 24-80 39c-83 27-156 32-220 15z"/>
		<path d="m361 496c-48-27-67-108-35-154 19-27 65-52 96-52 38 0 85 35 98 74 32 97-70 182-159 132z"/>
		<path d="m5 410c-19-31 24-171 77-250 41-62 119-126 142-117 7 3 40 54 74 113l60 108-33 38c-18 22-36 54-39 73-4 18-14 36-22 39-27 11-252 7-259-4z"/>
		<path d="m574 412c-6-4-16-23-23-43-6-20-25-49-41-64-17-16-30-34-30-39 1-24 127-221 143-224 25-5 146 121 176 183 16 33 26 72 29 122l5 73h-124c-68 0-129-4-135-8z"/>
	</g>
</svg>
