<?xml version="1.0" encoding="UTF-8"?>
<!DOCTYPE svg  PUBLIC '-//W3C//DTD SVG 20010904//EN'  'http://www.w3.org/TR/2001/REC-SVG-20010904/DTD/svg10.dtd'>
<svg width="83pt" height="83pt" version="1.0" viewBox="0 0 83 83" xmlns="http://www.w3.org/2000/svg">
	<g transform="translate(0 83) scale(.1 -.1)">
		<path d="m187 642c-171-172-187-190-187-222s16-51 193-228c121-121 200-192 212-192 27 0 425 398 425 425 0 13-71 91-193 213-176 176-195 192-227 192s-51-16-223-188zm169-189c-3-7-10-13-16-13-16 0-13 283 3 299 10 10 13-16 15-131 1-78 0-148-2-155zm122 138c2-121 0-152-10-149-10 4-14 44-16 157-2 121 0 152 10 149 10-4 14-44 16-157zm132-67c0-68-3-84-15-84s-15 17-15 96c0 85 2 95 15 84 11-9 15-34 15-96zm-380 6c0-73-3-90-15-90s-15 15-15 78c0 67 9 102 27 102 2 0 3-40 3-90zm504-53c8-12 7-20-1-28-16-16-33-2-33 27 0 28 17 28 34 1zm-624-6c0-24-18-37-32-23-8 8-7 16 2 27 17 21 30 19 30-4zm475-251-180-180-360 360h360 360l-180-180z"/>
	</g>
</svg>
