<?xml version="1.0" encoding="UTF-8"?>
<!DOCTYPE svg  PUBLIC '-//W3C//DTD SVG 20010904//EN'  'http://www.w3.org/TR/2001/REC-SVG-20010904/DTD/svg10.dtd'>
<svg width="83pt" height="83pt" version="1.0" viewBox="0 0 83 83" xmlns="http://www.w3.org/2000/svg">
	<g transform="translate(0 83) scale(.1 -.1)">
		<path d="m161 756c-10-12-9-41 3-143 20-166 22-153-13-140-44 16-64-4-59-64l3-47-41 24c-22 13-44 24-47 24-4 0-7-22-7-48 0-41 7-58 48-118l47-69 290-3 289-2 68 67c84 83 87 106 16 111-27 2-48 5-48 6 0 2 25 56 57 121 43 90 54 122 46 134-21 33-43 21-139-69-89-84-99-90-106-71-11 32-55 28-71-5l-12-27-6 24c-4 13-7 45-8 70-2 84-44 91-84 13l-23-46-80 134c-43 73-86 134-95 136s-21-4-28-12zm156-313c33-53 62-68 80-40 5 7 10-14 14-52 9-91 42-108 80-42 19 34 26 39 48 35 21-4 34 3 66 35 21 23 42 41 47 41 4 0-2-21-13-47-26-61-22-87 14-91 28-3 28-4 11-23-16-18-33-19-276-19-230 0-300 7-238 23 17 4 20 14 20 59v55l43-1c42-1 42-1 42 34 0 19-4 62-7 95l-7 60 21-35c12-19 37-59 55-87z"/>
	</g>
</svg>
