<?xml version="1.0" encoding="UTF-8"?>
<!DOCTYPE svg  PUBLIC '-//W3C//DTD SVG 20010904//EN'  'http://www.w3.org/TR/2001/REC-SVG-20010904/DTD/svg10.dtd'>
<svg width="84pt" height="84pt" version="1.0" viewBox="0 0 84 84" xmlns="http://www.w3.org/2000/svg">
	<g transform="translate(0 84) scale(.1 -.1)">
		<path d="m170 546c0-162 3-301 6-310 5-13 23-16 96-16h89l-3-26c-2-21-20-36-93-78-82-46-90-54-93-84l-3-32h251 251l-3 36c-3 35-8 40-90 87-72 40-88 54-88 73v24h170 170v39c0 36-6 44-88 117-48 43-93 83-101 90-12 11-5 34 43 148 40 93 65 140 82 151 19 12 24 23 22 43-2 22-9 28-35 30-24 2-35-2-45-18-12-20-246-140-272-140-6 0-47 36-91 80-77 78-81 80-127 80h-48v-294zm439 73-41-82-87 87 82 37c45 21 83 38 85 39 1 0-16-37-39-81z"/>
	</g>
</svg>
