<?xml version="1.0" encoding="UTF-8"?>
<!DOCTYPE svg  PUBLIC '-//W3C//DTD SVG 20010904//EN'  'http://www.w3.org/TR/2001/REC-SVG-20010904/DTD/svg10.dtd'>
<svg width="84pt" height="84pt" version="1.0" viewBox="0 0 84 84" xmlns="http://www.w3.org/2000/svg">
	<g transform="translate(0 84) scale(.1 -.1)">
		<path d="m314 787c-2-7-3-56-2-108l3-94h110 110v105 105l-108 3c-83 2-109 0-113-11z"/>
		<path d="m177 454c-10-19-15-39-12-44s31-19 63-32c50-20 75-22 197-22s147 2 197 22c32 13 60 27 63 32 9 14-22 80-37 80-7-1-38-9-68-20-40-14-82-19-155-19s-115 5-155 19c-73 26-74 26-93-16z"/>
		<path d="m86 283c-21-44-16-50 64-80 93-36 160-47 275-47s182 11 275 47c80 30 85 36 64 80-20 42-25 43-85 21-169-61-339-61-508 0-60 22-65 21-85-21z"/>
		<path d="m20 148c-35-56-25-69 75-108l90-35h240 240l88 33c85 33 87 35 87 67 0 18-8 43-18 54l-17 22-70-30c-198-84-435-83-629 3-32 14-60 26-62 26-3 0-13-15-24-32z"/>
	</g>
</svg>
