<?xml version="1.0" encoding="UTF-8"?>
<!DOCTYPE svg  PUBLIC '-//W3C//DTD SVG 20010904//EN'  'http://www.w3.org/TR/2001/REC-SVG-20010904/DTD/svg10.dtd'>
<svg width="84pt" height="84pt" version="1.0" viewBox="0 0 84 84" xmlns="http://www.w3.org/2000/svg">
	<g transform="translate(0 84) scale(.1 -.1)">
		<path d="m306 732c-3-3-6-50-6-104v-98l63 1c111 3 107 8 107-141 0-83-4-131-11-136-6-3-45-6-85-6l-75 1 6-204 99-2c91-3 102-1 124 20 50 46 52 59 52 327 0 264-1 272-48 322-24 26-29 27-123 27-54-1-100-4-103-7z"/>
	</g>
</svg>
