<?xml version="1.0" encoding="UTF-8"?>
<!DOCTYPE svg  PUBLIC '-//W3C//DTD SVG 20010904//EN'  'http://www.w3.org/TR/2001/REC-SVG-20010904/DTD/svg10.dtd'>
<svg width="84pt" height="84pt" version="1.0" viewBox="0 0 84 84" xmlns="http://www.w3.org/2000/svg">
	<g transform="translate(0 84) scale(.1 -.1)">
		<path d="m304 756c-92-43-167-180-149-274 15-85 89-190 124-177 9 4 11 0 6-12-13-34-75-227-75-235 0-4 19-8 43-8 39 0 48 5 102 60 33 33 62 60 66 60s33-27 65-60c54-56 61-60 102-60h44l-7 37c-5 30-30 110-72 231-4 13-2 12 11-3 16-20 17-19 55 23 53 58 75 126 68 208-8 85-50 149-128 199-43 28-104 42-114 26-13-21 5-47 43-61 53-19 86-46 111-91 32-57 37-124 13-179-19-44-72-104-72-83 0 6-3 19-7 29-4 11-3 15 5 11 6-4 21 7 34 25 19 27 23 46 23 100 0 67-1 68-46 113-53 53-105 67-103 28 0-17-5-23-22-23-13 0-27-6-31-13-4-8-16-16-25-20-12-4-18-17-18-37 0-24 4-30 23-31 21-1 21-1-3-8-18-5-26-15-28-34-3-24 0-27 25-28 26-1 26-2-7-9-19-5-37-7-39-4-2 2-6 26-9 54-5 57 11 91 55 112 29 14 42 43 25 60-16 16-76-16-111-61-28-35-34-51-35-94-1-58 27-127 55-134 11-3 15-11 11-25-4-18-7-17-38 13-44 42-58 87-51 162s41 120 120 160c46 22 57 32 57 52 0 33-28 33-96 1zm210-165c23-26 32-100 14-122-9-11-21-14-43-8-24 5-25 7-7 8s22 7 22 31-4 30-22 31c-17 1-19 2-5 6 22 6 24 61 2 69-8 4-15 10-15 15 0 13 31-4 54-30zm-49-212c11-17-2-21-24-7-17 10-25 10-41 1-16-11-18-10-14 2 7 17 69 21 79 4zm-1-82 28-23-34-18c-32-18-36-18-67-1l-33 17 23 24c28 30 46 30 83 1zm-120-118c-15-16-29-27-30-26-2 2 2 19 8 40 10 32 13 35 31 26 18-10 18-12-9-40zm190-4 16-49-40 39c-40 39-40 39-18 51 13 7 23 12 24 11s9-24 18-52z"/>
	</g>
</svg>
