<?xml version="1.0" encoding="UTF-8"?>
<!DOCTYPE svg  PUBLIC '-//W3C//DTD SVG 20010904//EN'  'http://www.w3.org/TR/2001/REC-SVG-20010904/DTD/svg10.dtd'>
<svg width="84pt" height="84pt" version="1.0" viewBox="0 0 84 84" xmlns="http://www.w3.org/2000/svg">
	<g transform="translate(0 84) scale(.1 -.1)">
		<path d="m21 666c-8-9-11-91-9-282l3-269 408-3 407-2-2 282-3 283-396 3c-328 2-398 0-408-12zm669-70c0-2-59-56-130-120l-131-118-42 38c-23 21-82 75-131 121l-89 83h262c143 0 261-2 261-4zm-490-157 65-60-65-60c-36-32-68-59-72-59-5 0-8 54-8 120s3 120 8 120c4-1 36-28 72-61zm528-121-3-61-136 118 136 128 3-62c2-33 2-89 0-123zm-358-33c15-15 34-25 52-25 16 0 44 11 62 25s39 25 47 25 44-29 79-65l64-65h-254-254l69 65c40 37 79 65 91 65 11 0 31-11 44-25z"/>
	</g>
</svg>
