<?xml version="1.0" encoding="UTF-8"?>
<!DOCTYPE svg  PUBLIC '-//W3C//DTD SVG 20010904//EN'  'http://www.w3.org/TR/2001/REC-SVG-20010904/DTD/svg10.dtd'>
<svg width="84pt" height="84pt" version="1.0" viewBox="0 0 84 84" xmlns="http://www.w3.org/2000/svg">
	<g transform="translate(0 84) scale(.1 -.1)">
		<path d="m227 703c-4-3-7-48-7-99v-93l-77-3-78-3v-190-190l248-3 247-2v105 105h85 85v190 190h-248c-137 0-252-3-255-7zm413-213v-90h-40-40v49c0 35-4 51-16 55-9 3-65 6-125 6h-109v35 35h165 165v-90zm-160-205v-85h-170-170v85 85h170 170v-85z"/>
	</g>
</svg>
