<?xml version="1.0" encoding="UTF-8"?>
<!DOCTYPE svg  PUBLIC '-//W3C//DTD SVG 20010904//EN'  'http://www.w3.org/TR/2001/REC-SVG-20010904/DTD/svg10.dtd'>
<svg width="84pt" height="84pt" version="1.0" viewBox="0 0 84 84" xmlns="http://www.w3.org/2000/svg">
	<g transform="translate(0 84) scale(.1 -.1)">
		<path d="m204 786c-3-8-4-23-2-33 3-15 15-18 86-21l82-3v-29c0-29-1-29-62-32-63-3-63-3-63-33s1-30 65-36c50-4 55-6 23-7-36-2-44-6-49-26-9-36 2-46 47-46h39v-130c0-73-4-130-9-130-17 0-70-51-86-82-19-40-19-47 4-102 24-55 61-76 134-76 91 0 134 53 125 152-4 42-11 57-37 80-17 15-38 28-46 28-13 0-15 22-15 130v130h46c45 0 45 0 42 33-3 30-6 32-48 38-41 5-39 6 23 7l67 2v35 35h-65-65v30 30h85 85v35 35h-200c-166 0-202-3-206-14z"/>
	</g>
</svg>
