<?xml version="1.0" encoding="UTF-8"?>
<!DOCTYPE svg  PUBLIC '-//W3C//DTD SVG 20010904//EN'  'http://www.w3.org/TR/2001/REC-SVG-20010904/DTD/svg10.dtd'>
<svg width="84pt" height="84pt" version="1.0" viewBox="0 0 84 84" xmlns="http://www.w3.org/2000/svg">
	<g transform="translate(0 84) scale(.1 -.1)">
		<path d="m325 781c-99-45-163-153-152-258 3-30 8-57 11-60 8-9 46 8 46 21 0 8 10 11 31 8 25-4 31 0 36 18 4 15 8 18 14 9 11-18 59 15 59 41 0 10 5 22 10 25 6 4 10-38 10-119v-125l-37-3-38-3-3-157-3-158h116 116l-3 158-3 157-37 3-38 3v125c0 81 4 123 10 119 6-3 10-15 10-25 0-17 34-50 52-50 5 0 9 17 10 38 1 37 1 37 7-8 6-42 8-45 36-45 19 0 33-6 37-17 11-26 44-22 52 5 10 39 6 103-9 148-19 53-86 125-140 150-52 24-146 24-200 0zm210-79c-3-3-11 0-18 7-9 10-8 11 6 5 10-3 15-9 12-12zm-206 6c-2-2-20-16-39-33l-35-30 29 33c17 17 34 32 40 32 5 0 7-1 5-2zm45-57c-18-11-39-30-48-42-18-26-22-18-6 11 6 11 23 26 38 34 40 22 52 19 16-3zm142-23 29-33-32 29c-31 28-38 36-30 36 2 0 16-15 33-32z"/>
	</g>
</svg>
