<?xml version="1.0" encoding="UTF-8"?>
<!DOCTYPE svg  PUBLIC '-//W3C//DTD SVG 20010904//EN'  'http://www.w3.org/TR/2001/REC-SVG-20010904/DTD/svg10.dtd'>
<svg width="84pt" height="84pt" version="1.0" viewBox="0 0 84 84" xmlns="http://www.w3.org/2000/svg">
	<g transform="translate(0 84) scale(.1 -.1)">
		<path d="m132 813c-27-38-45-109-38-148 8-42 61-115 84-115 9 0 23 10 30 21 12 19 10 25-15 51-37 39-39 102-4 149 18 24 21 36 14 48-17 27-49 25-71-6z"/>
		<path d="m248 823c-67-77-60-215 14-267 20-14 24-14 40 1 15 14 18 14 18 1 0-16-47-363-60-443-14-83-12-115 6-115 9 0 44 22 78 48 33 26 67 51 74 56 7 4 39-13 84-48 64-50 109-70 108-48-1 4-7 47-14 97-23 151-66 448-66 457 0 4 9 3 19-4 25-16 56 9 82 67 24 52 24 96 0 144-24 46-46 65-66 57-27-10-28-35-5-80 26-49 23-80-14-122l-23-28-8 70c-4 38-12 75-17 82-6 7-35 12-73 12s-66-5-73-12c-5-7-13-44-17-82l-7-68-29 28c-16 16-32 38-35 49-6 26 11 73 38 102 16 17 18 25 9 42-14 26-43 27-63 4zm204-297c17-12 17-14-2-31-17-15-22-16-37-4-10 7-20 15-22 16-7 5 21 33 33 33 6 0 19-7 28-14zm38-76c0-5-4-10-10-10-5 0-10 5-10 10 0 6 5 10 10 10 6 0 10-4 10-10zm-31-53 27-22-28-24-29-23-33 23-33 22 26 23c33 29 37 29 70 1zm-94-98c-10-15-25-10-19 6 4 8 10 12 15 9s7-10 4-15zm143-7c2-7-2-10-12-6-9 3-16 11-16 16 0 13 23 5 28-10zm-41-50 33-17-35-19c-34-19-36-19-76 0l-42 18 39 17c48 22 43 22 81 1zm-88-98c5-4-41-43-51-44-10 0-11 54-2 63 6 5 39-7 53-19zm151-28v-30l-60 58 22 12c27 15 38 4 38-40z"/>
		<path d="m655 810c-17-19-17-21 1-41 29-32 26-119-4-152-21-22-22-27-10-46 16-26 40-27 60-3 62 70 65 193 5 243-28 23-30 23-52-1z"/>
	</g>
</svg>
