<?xml version="1.0" encoding="UTF-8"?>
<!DOCTYPE svg  PUBLIC '-//W3C//DTD SVG 20010904//EN'  'http://www.w3.org/TR/2001/REC-SVG-20010904/DTD/svg10.dtd'>
<svg width="84pt" height="84pt" version="1.0" viewBox="0 0 84 84" xmlns="http://www.w3.org/2000/svg">
	<g transform="translate(0 84) scale(.1 -.1)">
		<path d="m343 800c-78-17-141-51-193-106-151-160-157-435-11-567 82-74 177-101 331-95 89 4 114 9 165 33 57 27 155 112 155 135s-62 9-100-23c-21-18-60-44-87-57-43-22-61-25-163-25-103 0-121 3-170 26-76 36-111 68-143 131-91 179 4 416 194 483 48 17 148 19 201 5 174-49 247-259 138-398-40-50-108-79-124-53-5 8 21 139 58 294l14 57h-38c-34 0-38-3-43-29l-6-30-31 29c-113 106-300-35-300-225 0-143 122-226 225-153l38 27 29-31c26-28 32-30 75-24 60 8 106 37 154 98 47 60 64 112 63 198-1 124-79 238-191 280-63 23-178 33-240 20zm118-236c72-65 28-237-73-290-40-21-57-17-94 20-30 30-34 40-34 85 0 79 52 180 104 201 27 12 75 4 97-16z"/>
	</g>
</svg>
