<?xml version="1.0" encoding="UTF-8"?>
<!DOCTYPE svg  PUBLIC '-//W3C//DTD SVG 20010904//EN'  'http://www.w3.org/TR/2001/REC-SVG-20010904/DTD/svg10.dtd'>
<svg width="84pt" height="84pt" version="1.0" viewBox="0 0 84 84" xmlns="http://www.w3.org/2000/svg">
	<g transform="translate(0 84) scale(.1 -.1)">
		<path d="m90 797c-30-7-55-16-55-22 0-5 4-35 8-66 7-47 13-58 35-70 15-8 56-30 91-50l63-37-68-39c-38-22-78-45-90-51-15-8-23-28-32-73-6-35-10-64-8-66s30-9 63-15l59-11 84 48c47 26 106 60 132 77l47 29 100-60c155-94 158-95 224-81 31 6 58 14 61 18 2 4-1 33-7 65l-11 58-88 47c-48 26-88 50-88 54 0 6 87 58 155 93 13 7 23 29 31 70 7 33 9 63 6 67-4 3-32 11-62 16-61 11-73 6-249-98l-71-42-71 42c-84 50-195 110-200 109-2 0-29-6-59-12zm158-102c152-90 169-97 194-84 13 7 29 18 36 26 8 7 18 11 23 8 5-4 9-1 9 4 0 6 6 11 13 11 6 0 46 21 87 45 97 59 141 59 126 2-4-15-40-42-120-87-130-73-128-68-29-120 101-51 150-88 155-113 4-22 1-26-24-29-21-3-48 6-96 35-152 89-193 109-215 103-12-3-75-36-139-74-93-54-123-68-148-64-32 5-40 26-17 54 6 9 59 41 117 73 58 31 108 59 112 63 4 5-46 37-112 72-85 46-122 71-126 87-16 61 38 57 154-12z"/>
		<path d="m360 353c-25-14-92-53-150-87s-117-67-132-75c-23-12-28-23-35-70-4-31-8-60-8-66 0-5 27-15 60-22 59-11 61-11 121 22 34 18 94 52 133 75l71 42 93-55c164-97 164-97 231-82 32 8 60 15 62 17s-2 32-8 65c-9 50-16 64-37 74-14 8-57 32-96 55-123 73-237 134-249 133-6-1-31-12-56-26zm121-66c30-18 98-57 152-86 69-38 99-61 103-77 15-61-26-58-142 10-51 30-95 52-98 49-3-4-6-1-6 6s-4 9-10 6c-5-3-10-2-10 3s-11 14-25 20c-30 14-34 12-191-79-55-33-109-59-120-59-66 1-55 54 18 92 29 16 100 55 158 88s108 60 111 60 30-15 60-33z"/>
	</g>
</svg>
