<?xml version="1.0" encoding="UTF-8"?>
<!DOCTYPE svg  PUBLIC '-//W3C//DTD SVG 20010904//EN'  'http://www.w3.org/TR/2001/REC-SVG-20010904/DTD/svg10.dtd'>
<svg width="84pt" height="84pt" version="1.0" viewBox="0 0 84 84" xmlns="http://www.w3.org/2000/svg">
	<g transform="translate(0 84) scale(.1 -.1)">
		<path d="m200 825c0-9 20-38 45-64l45-48v-304-305l-45-44c-25-24-45-48-45-52s22-8 48-8c43 0 52 4 90 43l42 43v330 330l-48 47c-42 41-53 47-90 47-31 0-42-4-42-15z"/>
		<path d="m517 792-47-48v-335-335l38-37c33-32 44-37 85-37 60 0 60 13 2 70l-45 44v296 296l45 44c27 27 45 53 45 67 0 20-5 23-38 23-32 0-45-7-85-48z"/>
	</g>
</svg>
