<?xml version="1.0" encoding="UTF-8"?>
<!DOCTYPE svg  PUBLIC '-//W3C//DTD SVG 20010904//EN'  'http://www.w3.org/TR/2001/REC-SVG-20010904/DTD/svg10.dtd'>
<svg width="84pt" height="84pt" version="1.0" viewBox="0 0 84 84" xmlns="http://www.w3.org/2000/svg">
	<g transform="translate(0 84) scale(.1 -.1)">
		<path d="m457 802c-21-23-22-65-3-81 11-10 21-9 45 3 32 17 46 45 36 76-8 26-56 27-78 2z"/>
		<path d="m468 689c-15-8-18-25-18-103v-93l-62-23c-35-12-69-29-75-38-16-20-18-195-3-223 14-25 46-25 60 0 5 11 10 55 10 98v78l63 24c107 40 107 40 107 131 0 44 3 80 8 80 21-1 41-32 61-92 24-72 36-87 54-69 7 7 5 32-8 88-17 78-18 78-74 116-58 37-92 45-123 26z"/>
		<path d="m365 557c-55-23-66-33-58-54 6-16 39-17 82-2 27 9 31 16 31 45 0 19-1 34-2 33-2 0-25-10-53-22z"/>
		<path d="m496 404c-27-15-28-18-22-67 16-130 31-197 44-202 17-6 52 12 52 28 0 34-34 257-39 257-3-1-19-8-35-16z"/>
		<path d="m30 210v-30h79 80l3-37 3-38 93-3 92-3v-29-30h90c83 0 90-1 90-20s7-20 105-20 105 1 105 20c0 18-7 20-85 20h-85v35 35h-95-95v35 35h-90-90v30 30h-100-100v-30z"/>
	</g>
</svg>
