<?xml version="1.0" encoding="UTF-8"?>
<!DOCTYPE svg  PUBLIC '-//W3C//DTD SVG 20010904//EN'  'http://www.w3.org/TR/2001/REC-SVG-20010904/DTD/svg10.dtd'>
<svg width="84pt" height="84pt" version="1.0" viewBox="0 0 84 84" xmlns="http://www.w3.org/2000/svg">
	<g transform="translate(0 84) scale(.1 -.1)">
		<path d="m390 790c0-44-3-50-21-50-31 0-122-45-162-80-45-39-92-113-107-167-11-42-11-43-55-43-45 0-45 0-45-35s0-35 44-35h44l11-47c30-121 134-219 264-247 24-6 27-11 27-46 0-39 1-40 35-40s35 1 35 40c0 38 1 40 43 50 59 15 83 29 138 78 48 43 109 150 109 192 0 17 7 20 45 20 45 0 45 0 45 35s-1 35-43 35-43 1-55 44c-6 24-31 72-55 107-33 50-56 71-102 96-33 18-75 35-92 39-32 6-33 8-33 55v49h-35-35v-50zm112-166c139-47 192-231 102-351-14-18-46-45-71-60-38-22-59-27-112-27-73 0-111 16-160 65-114 114-69 321 81 376 47 16 107 16 160-3z"/>
	</g>
</svg>
