<?xml version="1.0" encoding="UTF-8"?>
<!DOCTYPE svg  PUBLIC '-//W3C//DTD SVG 20010904//EN'  'http://www.w3.org/TR/2001/REC-SVG-20010904/DTD/svg10.dtd'>
<svg width="84pt" height="84pt" version="1.0" viewBox="0 0 84 84" xmlns="http://www.w3.org/2000/svg">
	<g transform="translate(0 84) scale(.1 -.1)">
		<path d="m250 706c-36-12-83-34-105-48-56-36-136-108-130-118 3-4 37-25 75-45l71-36 44 49c66 74 125 96 250 96 80 0 112-5 157-23 32-12 60-27 64-32 3-6-6-23-21-39l-26-28 78-6c43-4 90-9 105-12l26-5-20 78c-11 43-24 83-29 89s-5 15-1 20-5-2-20-15l-28-24-55 37c-132 87-296 111-435 62z"/>
		<path d="m2 334c8-59 39-158 47-148 26 36 39 36 103-5 159-100 336-109 499-26 40 21 125 86 127 98 0 5 9 15 19 22 22 16 24 15-66 60-66 33-75 35-83 20-26-45-74-86-125-105-123-46-267-35-363 29-12 8-10 15 13 39l29 30-84 7c-46 3-92 9-102 12-17 5-18 1-14-33z"/>
	</g>
</svg>
