<?xml version="1.0" encoding="UTF-8"?>
<!DOCTYPE svg  PUBLIC '-//W3C//DTD SVG 20010904//EN'  'http://www.w3.org/TR/2001/REC-SVG-20010904/DTD/svg10.dtd'>
<svg width="83pt" height="83pt" version="1.0" viewBox="0 0 83 83" xmlns="http://www.w3.org/2000/svg">
	<g transform="translate(0 83) scale(.1 -.1)">
		<path d="m440 745v-35h-165-165v-280-280h40 40v235 235h124 125l3-34 3-33 93 52c52 29 94 55 95 59 2 5-98 67-165 102l-28 15v-36z"/>
		<path d="m660 435v-235h-125-125v36 36l-32-20c-18-10-64-36-102-57l-69-38 24-18c26-19 166-99 174-99 3 0 5 16 5 35v35h165 165v280 280h-40-40v-235z"/>
	</g>
</svg>
