<?xml version="1.0" encoding="UTF-8"?>
<!DOCTYPE svg  PUBLIC '-//W3C//DTD SVG 20010904//EN'  'http://www.w3.org/TR/2001/REC-SVG-20010904/DTD/svg10.dtd'>
<svg width="84pt" height="84pt" version="1.0" viewBox="0 0 84 84" xmlns="http://www.w3.org/2000/svg">
	<g transform="translate(0 84) scale(.1 -.1)">
		<path d="m341 808c-14-45-61-216-61-222 0-4 25-6 55-6h55v84c0 46 3 104 6 130 6 44 6 46-19 46-20 0-28-7-36-32z"/>
		<path d="m424 794c3-26 6-84 6-130v-84h54 54l-23 88c-48 182-43 172-72 172-25 0-26-1-19-46z"/>
		<path d="m0 490c0-29 1-30 50-30h50v-45c0-44 0-45 34-45 31 0 34 3 46 45l13 45h217 217l13-45c11-40 16-45 41-45 26 0 28 3 31 43l3 42 53 3c50 3 52 4 52 33v29h-410-410v-30z"/>
		<path d="m235 398c-3-7-27-94-54-193l-48-180 115-3c63-1 116-1 117 0 2 2 6 90 10 196l7 192h-71c-48 0-73-4-76-12z"/>
		<path d="m445 218c4-106 8-194 10-196 1-1 54-1 117 0l115 3-43 155c-24 85-48 172-54 193l-11 37h-71-70l7-192z"/>
	</g>
</svg>
