<?xml version="1.0" encoding="UTF-8"?>
<!DOCTYPE svg  PUBLIC '-//W3C//DTD SVG 20010904//EN'  'http://www.w3.org/TR/2001/REC-SVG-20010904/DTD/svg10.dtd'>
<svg width="84pt" height="84pt" version="1.0" viewBox="0 0 84 84" xmlns="http://www.w3.org/2000/svg">
	<g transform="translate(0 84) scale(.1 -.1)">
		<path d="m321 830c-64-14-163-63-207-103-22-19-55-66-74-103l-35-69v-145c0-140 1-147 29-201 36-71 104-139 180-178 57-30 61-31 200-31 167 0 195 10 282 92 109 103 144 179 144 318 0 191-101 338-275 402-59 21-183 31-244 18zm-46-238 65-98-16-32-15-32h-125-125l7 38c4 20 17 60 29 87 23 51 89 135 106 135 5 0 38-44 74-98zm395 59c43-45 84-127 93-183l6-38h-130c-92 0-129 3-129 12 0 6-6 19-14 27-13 14-6 28 52 118 37 57 71 103 76 103s26-18 46-39zm-230-226c10-12 10-18 0-30-27-32-71-8-56 30 3 8 14 15 24 15 11 0 25-7 32-15zm87-214c73-115 73-111-16-137-67-20-166-15-234 13l-48 19 70 104 70 105h47l46-1 65-103z"/>
	</g>
</svg>
