<?xml version="1.0" encoding="UTF-8"?>
<!DOCTYPE svg  PUBLIC '-//W3C//DTD SVG 20010904//EN'  'http://www.w3.org/TR/2001/REC-SVG-20010904/DTD/svg10.dtd'>
<svg width="84pt" height="84pt" version="1.0" viewBox="0 0 84 84" xmlns="http://www.w3.org/2000/svg">
	<g transform="translate(0 84) scale(.1 -.1)">
		<path d="m344 730c-5-5-45-10-89-12l-80-3-3-73c-3-67-1-74 18-79s20-12 20-223c0-120 3-225 6-234 5-14 33-16 205-16h199v234 235l28 3c27 3 27 4 27 73v70l-85 3c-61 2-87 7-93 17-9 17-137 21-153 5zm266-90c0-19-7-20-195-20s-195 1-195 20 7 20 195 20 195-1 195-20zm-333-387c-1-59-3-14-3 102s2 164 3 108c2-56 2-151 0-210zm70 0c-1-59-3-14-3 102s2 164 3 108c2-56 2-151 0-210zm83 102c0-130-4-205-10-205s-10 75-10 205 4 205 10 205 10-75 10-205zm70 0c0-130-4-205-10-205s-10 75-10 205 4 205 10 205 10-75 10-205zm70 0c0-130-4-205-10-205s-10 75-10 205 4 205 10 205 10-75 10-205z"/>
	</g>
</svg>
