<?xml version="1.0" encoding="UTF-8"?>
<!DOCTYPE svg  PUBLIC '-//W3C//DTD SVG 20010904//EN'  'http://www.w3.org/TR/2001/REC-SVG-20010904/DTD/svg10.dtd'>
<svg width="84pt" height="84pt" version="1.0" viewBox="0 0 84 84" xmlns="http://www.w3.org/2000/svg">
	<g transform="translate(0 84) scale(.1 -.1)">
		<path d="m177 662-177-177v-65-65l355-355h75 75l335 335v85 85l-335 335h-75-75l-178-178zm441-55 182-183-43-42-44-43-6 48c-4 40-11 53-44 81-21 19-49 36-63 39-23 4-25 9-22 39 2 19 1 45-2 59-7 26-62 95-77 95-14 0-10-26 6-40 19-15 40-83 32-103-5-13-12-12-46 5-32 16-51 19-86 14-24-4-47-11-50-17-13-20-25-7-25 25 0 22 9 45 25 64 43 51 28 73-17 25-40-43-50-70-47-126 3-45 0-52-16-56-57-10-109-84-103-146 4-41 21-38 29 5 5 20 21 47 40 64l33 29 12-44c14-46 66-109 90-109 8 0 14-4 14-8 0-20-38-41-78-44-49-3-58-19-19-32 34-12 101 8 132 38 23 23 23 23 43 3 11-11 41-25 67-32l47-11-75-80-76-79-188 187-188 188 185 185c102 102 187 185 190 185s87-82 188-183zm-157-97c32-18 21-30-25-30-51 0-69 16-34 29 31 13 36 13 59 1zm180-78c44-39 56-113 24-149-29-35-110-44-143-16l-24 18 36 38c27 29 37 50 42 87 8 58 20 62 65 22zm-252-28c37-47 21-74-19-34-20 20-27 60-11 60 5 0 19-12 30-26zm131 12c0-17-39-66-40-49 0 6 4 23 10 37 10 28 30 35 30 12z"/>
	</g>
</svg>
