<?xml version="1.0" encoding="UTF-8"?>
<!DOCTYPE svg  PUBLIC '-//W3C//DTD SVG 20010904//EN'  'http://www.w3.org/TR/2001/REC-SVG-20010904/DTD/svg10.dtd'>
<svg width="84pt" height="84pt" version="1.0" viewBox="0 0 84 84" xmlns="http://www.w3.org/2000/svg">
	<g transform="translate(0 84) scale(.1 -.1)">
		<path d="m310 732c-21-10-59-49-93-94-32-43-85-98-118-124-75-58-104-109-96-175 14-116 91-158 337-180 139-13 291-5 360 17 25 8 66 31 93 50 42 30 47 38 47 72 0 36-3 40-65 76-109 63-160 117-206 215-44 93-69 125-111 147-37 19-106 18-148-4zm90-82c0-38-2-40-30-40s-30 2-30 40 2 40 30 40 30-2 30-40zm-123-107c-2-16-4-3-4 27s2 43 4 28c2-16 2-40 0-55zm213 22c0-8-7-15-15-15s-15 7-15 15 7 15 15 15 15-7 15-15zm-110-30c0-8-9-15-20-15s-20 7-20 15 9 15 20 15 20-7 20-15zm-183-37c-3-8-6-5-6 6-1 11 2 17 5 13 3-3 4-12 1-19zm343-23c0-11-11-15-40-15s-40 4-40 15 11 15 40 15 40-4 40-15zm-150-25c0-5-25-10-55-10s-55 5-55 10c0 6 25 10 55 10s55-4 55-10zm-190-35c0-11-12-15-45-15s-45 4-45 15 12 15 45 15 45-4 45-15zm320-40c0-16-6-25-15-25s-15 9-15 25 6 25 15 25 15-9 15-25zm120-10c0-18-5-25-20-25s-20 7-20 25 5 25 20 25 20-7 20-25zm-350-60c0-37-4-65-10-65s-10 28-10 65 4 65 10 65 10-28 10-65zm138 53c-3-7-21-14-41-16-28-2-37 1-37 12 0 12 11 16 41 16 28 0 39-4 37-12zm-318-28c0-5-11-10-25-10s-25 5-25 10c0 6 11 10 25 10s25-4 25-10zm90-35c0-33-4-45-15-45s-15 12-15 45 4 45 15 45 15-12 15-45zm540 5c0-13-7-20-20-20s-20 7-20 20 7 20 20 20 20-7 20-20zm-240-40c0-28-3-30-35-30s-35 2-35 30 3 30 35 30 35-2 35-30zm130-15c0-22-4-25-35-25s-35 3-35 25 4 25 35 25 35-3 35-25zm-260-5c0-5-4-10-10-10-5 0-10 5-10 10 0 6 5 10 10 10 6 0 10-4 10-10z"/>
	</g>
</svg>
