<?xml version="1.0" encoding="UTF-8"?>
<!DOCTYPE svg  PUBLIC '-//W3C//DTD SVG 20010904//EN'  'http://www.w3.org/TR/2001/REC-SVG-20010904/DTD/svg10.dtd'>
<svg width="84pt" height="84pt" version="1.0" viewBox="0 0 84 84" xmlns="http://www.w3.org/2000/svg">
	<g transform="translate(0 84) scale(.1 -.1)">
		<path d="m310 812c0-5-14-9-31-10-17 0-40-9-51-18-19-18-108-155-108-167 0-4 15-16 33-27l32-20h-87c-98 0-116-11-74-46l27-24-27-51c-20-40-24-61-20-88 4-20 6-46 6-58 0-32 107-229 137-253 22-17 41-20 135-20h109l-3 122-3 123-92 3c-51 1-93 5-93 7s12 25 27 50c20 31 33 43 43 39 63-26 64-14 5 89l-45 79 36-21c19-12 41-21 48-21s26 23 42 52c16 28 38 68 49 88l21 37 26-47 27-47-25-13c-13-8-24-19-24-27 0-10 25-13 108-13h108l48 84c56 97 57 113 4 91-12-5-23 5-43 39-43 73-51 76-207 76-76 0-138-4-138-8z"/>
		<path d="m643 514c-51-30-93-60-92-67 0-7 20-46 44-87l43-75 66 1c61 1 69 3 101 34 22 22 35 43 35 59-1 28-79 183-95 188-5 2-52-22-102-53z"/>
		<path d="m476 236-49-94 39-68c28-48 47-70 62-72s22 2 22 12c0 13 12 16 58 16 44 0 63 5 84 23 28 22 138 217 138 243 0 19-19 18-43-3-15-14-42-19-128-21l-109-4v31c0 54-24 34-74-63z"/>
	</g>
</svg>
