<?xml version="1.0" encoding="UTF-8"?>
<!DOCTYPE svg  PUBLIC '-//W3C//DTD SVG 20010904//EN'  'http://www.w3.org/TR/2001/REC-SVG-20010904/DTD/svg10.dtd'>
<svg width="84pt" height="84pt" version="1.0" viewBox="0 0 84 84" xmlns="http://www.w3.org/2000/svg">
	<g transform="translate(0 84) scale(.1 -.1)">
		<path d="m375 832c-83-6-184-51-249-111-37-34-100-127-114-170-15-44-15-258 0-302 14-43 77-136 114-170 16-15 48-38 71-53 42-26 46-26 221-26h178l45 28c64 42 141 128 173 196 26 55 27 64 24 185-3 116-5 130-32 184-41 80-146 178-223 207-63 24-145 37-208 32zm85-389c37-137 38-166 5-198-50-51-145-17-145 51 0 16 19 97 42 181l42 153 13-38c7-20 26-87 43-149z"/>
	</g>
</svg>
