<?xml version="1.0" encoding="UTF-8"?>
<!DOCTYPE svg  PUBLIC '-//W3C//DTD SVG 20010904//EN'  'http://www.w3.org/TR/2001/REC-SVG-20010904/DTD/svg10.dtd'>
<svg width="84pt" height="84pt" version="1.0" viewBox="0 0 84 84" xmlns="http://www.w3.org/2000/svg">
	<g transform="translate(0 84) scale(.1 -.1)">
		<path d="m295 590c-38-39-56-50-80-50-35 0-55-15-55-42 0-10-4-18-10-18-15 0-12-39 4-56 8-8 34-14 59-14 31 0 49-6 62-20 18-20 17-20-88-20h-107v75 75h-35-35v-107c0-102 2-111 31-161 35-62 48-69 98-52 30 10 43 10 61 0s31-10 62 1c31 10 44 10 59 1 24-15 44-15 69 0 15 10 27 10 55 0 28-11 42-11 70 0 28 10 40 10 55 0 24-15 57-16 65-2 8 13 52 13 60 0 15-24 57-9 100 38l45 47v118c0 97-3 117-15 117s-15-15-15-75v-75h-70c-68 0-70 1-60 20 8 15 21 20 55 20 45 0 45 0 45 36 0 56-44 94-108 94-48 0-52 2-92 50l-42 50h-97-97l-49-50zm115-15v-35h-50c-27 0-50 2-50 5s10 19 22 35c15 21 30 30 50 30 25 0 28-3 28-35zm129 9c12-15 21-31 21-35 0-5-22-9-50-9h-50v35c0 32 2 35 29 35 20 0 36-9 50-26zm-196-146c23-35-25-67-51-35-9 10-7 19 4 36 17 24 32 24 47-1zm321-4c9-24-5-44-30-44-13 0-24 2-24 4s-3 11-6 19c-7 18 22 48 41 41 7-3 16-12 19-20zm-74-44c10-20 8-20-115-20s-125 0-113 20c11 18 24 20 115 20 92 0 103-2 113-20z"/>
		<path d="m23 183c-7-2-13-18-13-34 0-26 3-29 23-24 15 4 28 1 36-9 14-17 61-22 61-7 0 19 41 23 59 7 22-20 45-20 75-1 21 14 26 14 54-2 30-17 32-17 62 0 29 17 33 17 55 3 30-20 49-20 79-1 21 14 26 14 54-2 30-17 32-17 62 0 29 17 31 17 59 1 29-17 32-17 64 1 32 17 35 17 60 0l27-17v34c0 46-35 65-85 47-26-10-40-10-63 0-25 10-37 10-66 0-28-10-41-10-62-1-20 10-33 10-59 1-26-10-40-10-64 1-25 10-37 10-61 0s-36-10-59 0c-23 9-37 9-65-1s-41-10-62-1c-20 10-33 10-60 0-25-9-39-9-59 0-28 13-33 13-52 5z"/>
	</g>
</svg>
