<?xml version="1.0" encoding="UTF-8"?>
<!DOCTYPE svg  PUBLIC '-//W3C//DTD SVG 20010904//EN'  'http://www.w3.org/TR/2001/REC-SVG-20010904/DTD/svg10.dtd'>
<svg width="84pt" height="84pt" version="1.0" viewBox="0 0 84 84" xmlns="http://www.w3.org/2000/svg">
	<g transform="translate(0 84) scale(.1 -.1)">
		<path d="m130 675c0-28 4-35 19-35 11 0 23-5 27-11 4-7 20-8 43-4 20 3 51 6 69 6 17-1 47-1 65-2 17 0 48 3 68 6 23 4 39 3 43-4 9-14 63-14 71-1s48 13 80-2c19-9 34-8 65 2 36 12 40 17 40 47 0 38-1 38-42 17-28-15-34-15-69 2-38 16-41 16-74-2-34-18-36-18-70 0-33 18-36 18-74 2-36-17-40-17-71-1s-35 16-72-1c-38-17-42-17-70-1-42 24-48 22-48-18z"/>
		<path d="m0 563c0-18 15-45 41-75l41-48h342 342l37 44c25 30 37 55 37 75 0 42-16 39-62-14l-40-45h-312-312l-44 45c-51 52-70 57-70 18z"/>
		<path d="m47 282c-33-33-47-56-47-75 0-41 29-34 80 18l44 45h301 301l44-45c53-54 70-57 70-12 0 25-10 42-43 75l-43 42h-330-330l-47-48z"/>
		<path d="m120 118c0-30 5-35 46-52 44-18 46-18 79 0 33 17 35 17 68-1s36-18 72-1c35 17 39 17 74 1 35-15 40-15 74 1 35 17 38 17 70-1 33-17 35-17 75 1 36 17 42 23 42 52 0 37 1 37-44 15-33-15-38-15-75 1-36 17-41 17-62 2-30-20-58-20-88 0-21 15-26 15-62-2-37-16-42-16-74-1-33 16-37 16-70 0s-37-16-70 0c-49 23-55 22-55-15z"/>
	</g>
</svg>
