<?xml version="1.0" encoding="UTF-8"?>
<!DOCTYPE svg  PUBLIC '-//W3C//DTD SVG 20010904//EN'  'http://www.w3.org/TR/2001/REC-SVG-20010904/DTD/svg10.dtd'>
<svg width="84pt" height="84pt" version="1.0" viewBox="0 0 84 84" xmlns="http://www.w3.org/2000/svg">
	<g transform="translate(0 84) scale(.1 -.1)">
		<path d="m360 746c-30-7-72-23-93-36l-39-23-22 28c-16 19-28 26-40 22-28-11-30-36-6-62l22-24-24-33c-69-94-91-216-55-313 6-16 24-49 40-73l29-44-21-22c-24-26-27-49-8-65 10-8 20-4 40 17l27 28 68-34c65-33 70-34 158-29 76 3 98 8 138 32l47 28 27-33c27-32 27-32 45-12s18 21-4 51l-22 30 26 38c14 21 36 60 48 87 39 90 15 238-52 312-19 20-19 21 6 44 29 27 31 42 10 60-13 11-21 8-45-15l-29-28-41 27c-32 21-148 59-170 55-3-1-30-7-60-13zm165-95c99-45 155-131 155-239 0-111-60-202-160-243-44-17-143-17-194 0-55 19-121 84-143 139-37 96-13 231 52 292 71 67 204 90 290 51z"/>
	</g>
</svg>
