<?xml version="1.0" encoding="UTF-8"?>
<!DOCTYPE svg  PUBLIC '-//W3C//DTD SVG 20010904//EN'  'http://www.w3.org/TR/2001/REC-SVG-20010904/DTD/svg10.dtd'>
<svg width="84pt" height="84pt" version="1.0" viewBox="0 0 84 84" xmlns="http://www.w3.org/2000/svg">
	<g transform="translate(0 84) scale(.1 -.1)">
		<path d="m265 822c-66-28-111-60-163-117-83-91-96-128-100-282-3-126-2-133 24-190 34-72 140-180 208-212 45-21 60-22 195-19 120 2 153 6 186 22 61 30 167 142 199 209 26 57 27 64 24 190-3 114-6 138-26 179-48 97-151 189-246 221-68 23-245 22-301-1zm288-80c68-31 115-68 148-113l20-29h-301-301l21 30c29 41 117 106 166 124 21 8 72 15 112 15 59 1 84-4 135-27zm211-234c11-44 6-178-8-213l-15-35h-320-319l-16 47c-18 52-21 158-6 197l10 26h334 334l6-22zm-109-354c-22-20-62-48-90-62-44-23-62-26-145-26s-101 3-145 26c-27 14-68 42-90 62l-40 35h275 275l-40-35z"/>
	</g>
</svg>
