<?xml version="1.0" encoding="UTF-8"?>
<!DOCTYPE svg  PUBLIC '-//W3C//DTD SVG 20010904//EN'  'http://www.w3.org/TR/2001/REC-SVG-20010904/DTD/svg10.dtd'>
<svg width="84pt" height="84pt" version="1.0" viewBox="0 0 84 84" xmlns="http://www.w3.org/2000/svg">
	<g transform="translate(0 84) scale(.1 -.1)">
		<path d="m270 821c-105-41-193-122-238-219-25-53-27-67-27-187s2-134 27-188c36-77 114-157 192-196l63-33 144 4c169 4 189 10 286 101 43 41 73 79 93 122 28 60 30 70 30 189 0 111-3 132-24 180-43 97-151 196-250 229-69 24-235 22-296-2zm120-101c0-46-2-50-27-56-16-4-41-13-57-21-27-14-29-13-57 19-15 18-28 36-29 40 0 13 113 60 163 67 4 1 7-21 7-49zm175 19c22-10 49-25 60-34 19-15 18-16-17-52l-36-36-29 21c-15 11-39 22-53 23-23 4-25 9-28 56l-3 53 33-7c18-3 51-14 73-24zm-362-114 28-34-31-54c-16-29-30-61-30-70 0-14-10-17-50-17-58 0-59 4-31 85 17 48 68 126 81 124 3 0 18-16 33-34zm513-12c27-40 45-83 54-126l7-38-49 3c-50 3-50 3-65 48-8 25-21 52-29 60-12 12-10 19 18 47 18 18 35 33 39 33s15-12 25-27zm-198-53c53-38 76-82 76-145s-23-107-76-145c-111-81-268 5-268 145 0 141 157 226 268 145zm-340-222c7-23 22-54 32-68l19-27-68-66-23 28c-29 37-55 95-64 140l-6 35h48c49 0 49 0 62-42zm592 5c-11-56-44-125-73-151l-25-23-30 36-30 37 24 36c14 19 27 47 31 61 9 40 11 41 62 41h48l-7-37zm-465-157c11-7 35-17 53-21 31-6 32-8 32-56v-49l-32 6c-39 8-105 36-133 57-20 15-20 16 9 46 33 35 43 37 71 17zm299-22c23-29 26-38 15-46-25-17-93-45-126-51l-33-6v47 47l53 21c28 12 54 22 57 23 3 0 18-15 34-35z"/>
	</g>
</svg>
