<?xml version="1.0" encoding="UTF-8"?>
<!DOCTYPE svg  PUBLIC '-//W3C//DTD SVG 20010904//EN'  'http://www.w3.org/TR/2001/REC-SVG-20010904/DTD/svg10.dtd'>
<svg width="84pt" height="84pt" version="1.0" viewBox="0 0 84 84" xmlns="http://www.w3.org/2000/svg">
	<g transform="translate(0 84) scale(.1 -.1)">
		<path d="m289 660c-10-28-14-30-64-30-66 0-115-34-115-81 0-26-3-29-34-29-19 0-37-4-40-8-3-5 5-46 18-93l23-84 352-3 351-2v25c0 14 14 52 30 85 17 33 30 73 30 90v30h-94c-71 0-97-4-106-15-11-13-48-15-244-13l-231 3 191 2 191 3 11 25c11 24 52 36 52 15 0-5 12-10 26-10 23 0 25 3 22 43l-3 42-48 3c-32 2-57-2-73-12-13-9-37-16-53-16-25 0-30 4-33 28-3 26-5 27-76 30l-73 3-10-31z"/>
		<path d="m43 250c-34-37-43-56-43-84 0-31 3-36 23-36 14 0 39 16 62 40 51 52 73 52 77 3 3-37 4-38 46-41l42-3v40 41h54 55l3-37c3-37 4-38 46-41l42-3v40 41h49 50l3-37c3-37 4-38 46-41l42-3v40 41h43c37 0 48-6 82-40 53-54 75-53 75 3-1 34-8 50-39 85l-39 42h-338l-339-1-42-49z"/>
	</g>
</svg>
