<?xml version="1.0" encoding="UTF-8"?>
<!DOCTYPE svg  PUBLIC '-//W3C//DTD SVG 20010904//EN'  'http://www.w3.org/TR/2001/REC-SVG-20010904/DTD/svg10.dtd'>
<svg width="84pt" height="84pt" version="1.0" viewBox="0 0 84 84" xmlns="http://www.w3.org/2000/svg">
	<g transform="translate(0 84) scale(.1 -.1)">
		<path d="m357 813c-4-3-7-21-7-40 0-31-2-33-33-33-39 0-57-15-57-47 0-17-6-23-23-23-33 0-47-19-47-64 0-27-7-47-22-63l-22-24 18-47c12-29 21-81 23-135l4-88-25 7c-18 4-35 0-54-12-15-11-36-21-47-24-18-5-20-15-22-108-3-116 2-122 72-80 35 20 38 20 65 5 36-22 80-22 124 0 32 15 37 15 60 0 32-21 76-22 119-1 31 15 36 15 65 0 39-20 84-20 122-1 27 14 33 14 60 0 16-8 42-15 59-15h30v96c-1 80-3 96-17 101-9 3-36 15-59 26-35 18-45 19-67 9l-26-12v70c0 57 6 83 30 137l30 67-29 30c-22 23-31 42-33 76-3 41-6 45-30 48-23 3-28 8-28 32 0 30-15 40-61 40-26 0-29 3-29 34 0 22-6 36-16 40-21 8-119 8-127-1zm169-174c51-31 41-45-10-15-32 19-59 26-96 26s-64-7-96-26c-50-30-61-17-11 15 46 30 166 30 213 0zm-359-485c-3-3-12-4-19-1-8 3-5 6 6 6 11 1 17-2 13-5zm180 0c-3-3-12-4-19-1-8 3-5 6 6 6 11 1 17-2 13-5zm180 0c-3-3-12-4-19-1-8 3-5 6 6 6 11 1 17-2 13-5z"/>
	</g>
</svg>
