<?xml version="1.0" encoding="UTF-8"?>
<!DOCTYPE svg  PUBLIC '-//W3C//DTD SVG 20010904//EN'  'http://www.w3.org/TR/2001/REC-SVG-20010904/DTD/svg10.dtd'>
<svg width="84pt" height="84pt" version="1.0" viewBox="0 0 84 84" xmlns="http://www.w3.org/2000/svg">
	<g transform="translate(0 84) scale(.1 -.1)">
		<path d="m217 733c-4-3-7-61-7-127 0-94-6-145-26-231-31-132-40-195-28-195 5 0 67 50 137 111l129 112 41-39c23-21 77-72 119-113 53-52 81-72 88-65s1 61-20 170c-21 110-30 190-30 260 0 64-4 104-12 112-13 13-379 18-391 5z"/>
	</g>
</svg>
