<?xml version="1.0" encoding="UTF-8"?>
<!DOCTYPE svg  PUBLIC '-//W3C//DTD SVG 20010904//EN'  'http://www.w3.org/TR/2001/REC-SVG-20010904/DTD/svg10.dtd'>
<svg width="84pt" height="84pt" version="1.0" viewBox="0 0 84 84" xmlns="http://www.w3.org/2000/svg">
	<g transform="translate(0 84) scale(.1 -.1)">
		<path d="m346 829c-83-12-198-71-247-127-22-25-53-74-70-109-30-63-30-66-27-201 3-123 6-142 28-186 34-68 103-142 164-177 45-26 60-29 131-28l80 1-58 9c-198 29-340 212-324 419 11 139 66 238 172 304 71 46 128 61 225 61 133 0 206-31 291-122 75-80 97-131 106-243 6-86-12-165-53-237-53-88-166-165-272-183-45-7-44-8 27-9 65-1 80 3 127 29 63 36 129 108 164 176 22 43 25 64 28 179 3 114 1 138-18 188-25 66-110 165-174 201-88 50-198 71-300 55z"/>
		<path d="m400 685c0-3-22-86-50-185-27-99-50-191-50-205 0-13 13-39 28-57 25-27 36-31 76-31 37 0 52 5 76 28 38 36 38 59 1 201-48 182-81 283-81 249z"/>
	</g>
</svg>
