<?xml version="1.0" encoding="UTF-8"?>
<!DOCTYPE svg  PUBLIC '-//W3C//DTD SVG 20010904//EN'  'http://www.w3.org/TR/2001/REC-SVG-20010904/DTD/svg10.dtd'>
<svg width="84pt" height="84pt" version="1.0" viewBox="0 0 84 84" xmlns="http://www.w3.org/2000/svg">
	<g transform="translate(0 84) scale(.1 -.1)">
		<path d="m395 808c-82-22-120-110-82-185 9-16 23-35 31-42 14-11 16-44 16-217 0-157-3-204-12-204-21 1-89 53-106 82-15 25-15 28 1 46 14 15 15 21 5 29-28 23-179 93-188 88-13-8-13-195-1-214 8-12 14-13 35-3 14 6 26 8 26 3 0-25 88-104 149-134 60-29 74-32 161-32 85 0 101 3 154 30 36 18 78 52 110 87 39 42 55 55 64 46 6-6 18-8 26-5 13 5 16 25 16 111 0 58-4 108-10 111-14 8-190-85-190-101 0-7 8-17 17-22 15-9 14-14-11-47-29-37-81-75-103-75-10 0-13 47-13 201v201l30 34c38 44 47 91 25 138-29 61-89 91-150 74zm60-123c0-27-3-30-30-30-21 0-31 5-33 18-6 33 6 49 35 45 24-3 28-8 28-33z"/>
	</g>
</svg>
