<?xml version="1.0" encoding="UTF-8"?>
<!DOCTYPE svg  PUBLIC '-//W3C//DTD SVG 20010904//EN'  'http://www.w3.org/TR/2001/REC-SVG-20010904/DTD/svg10.dtd'>
<svg width="84pt" height="84pt" version="1.0" viewBox="0 0 84 84" xmlns="http://www.w3.org/2000/svg">
	<g transform="translate(0 84) scale(.1 -.1)">
		<path d="m293 813c3-16 9-41 13-56 5-22 2-31-15-43-30-21-26-92 5-97 11-2 10-26-6-339l-13-248h-42c-26 0-48-6-55-15-11-13 19-15 264-15 250 0 309 5 260 24-9 3-35 6-58 6h-43l-21 278c-26 327-26 322-7 322 11 0 15 11 15 40 0 34-4 41-25 46-18 4-25 13-25 30 0 13 5 24 10 24 6 0 10 16 10 35v35h-136-136l5-27zm217-718c0-58-2-65-20-65s-20 7-20 65 2 65 20 65 20-7 20-65z"/>
	</g>
</svg>
