<?xml version="1.0" encoding="UTF-8"?>
<!DOCTYPE svg  PUBLIC '-//W3C//DTD SVG 20010904//EN'  'http://www.w3.org/TR/2001/REC-SVG-20010904/DTD/svg10.dtd'>
<svg width="84pt" height="84pt" version="1.0" viewBox="0 0 84 84" xmlns="http://www.w3.org/2000/svg">
	<g transform="translate(0 84) scale(.1 -.1)">
		<path d="m436 727c-35-40-148-169-250-287-143-166-186-221-186-242 0-28 1-28 64-28 58 0 64-2 59-19-3-13 8-33 35-62l40-43 41 12c30 10 46 10 61 2s30-8 55 0c26 8 39 8 56-1s30-8 59 1 42 10 59 1 30-9 56-1c25 8 39 8 55 0 47-25 100 20 100 85 0 23 3 25 50 25 48 0 50 1 50 28 0 39-264 476-284 469-8-3-11-78-11-250 0-158-4-247-10-247-7 0-9 108-7 309 2 266 1 309-12 314-10 4-37-18-80-66z"/>
	</g>
</svg>
