<?xml version="1.0" encoding="UTF-8"?>
<!DOCTYPE svg  PUBLIC '-//W3C//DTD SVG 20010904//EN'  'http://www.w3.org/TR/2001/REC-SVG-20010904/DTD/svg10.dtd'>
<svg width="84pt" height="84pt" version="1.0" viewBox="0 0 84 84" xmlns="http://www.w3.org/2000/svg">
	<g transform="translate(0 84) scale(.1 -.1)">
		<path d="m410 435v-255h110 110v26c0 30-19 98-79 279-21 66-44 139-50 163-11 40-13 42-51 42h-40v-255z"/>
		<path d="m18 633c-11-3-18-14-18-30 0-20 3-24 17-18 10 5 26 7 36 6 9-1 32-2 50-2h52c11-1 30-1 43 0 12 0 31 1 42 1 11-1 34-1 50-1 17 0 36 1 43 2 6 1 22-1 35-5 18-6 22-4 22 14 0 27-45 45-77 31-16-8-30-7-48 1s-32 8-47 1c-15-6-32-7-47-1-15 5-35 5-51-1-16-5-33-5-41 0-15 9-32 10-61 2z"/>
		<path d="m18 493c-11-3-18-14-18-28 0-22 3-24 26-15 15 6 32 6 42 1 9-4 28-7 42-4 14 2 34 3 45 2 19-1 44 0 83 2 9 1 28-1 41-5 13-3 31-2 39 3s28 5 44 1c25-8 28-6 28 14 0 18-7 25-30 29-16 4-40 3-52-2-14-5-32-4-45 2-16 7-30 7-45 0s-33-7-51 0c-19 6-36 6-51-1-14-6-28-7-37-1-15 9-32 10-61 2z"/>
		<path d="m18 373c-11-3-18-14-18-28 0-22 3-24 26-15 15 6 32 6 42 1 9-4 26-7 37-4 11 2 30 3 43 3 22-1 58 0 90 1 9 0 29-1 44-4 14-2 32-1 39 3 6 4 25 4 40 0 26-8 29-6 29 14 0 18-7 25-30 29-16 4-40 3-52-2-14-5-32-4-45 2-16 7-30 7-45 0s-33-7-51 0c-19 6-36 6-51-1-14-6-28-7-37-1-15 9-32 10-61 2z"/>
		<path d="m18 243c-11-3-18-14-18-30 0-20 3-24 17-18 10 5 26 7 36 6 9-1 29-1 45-1 15 0 38 0 52-1h48c12 0 31 1 42 1 11-1 34-1 50-1 17 0 36 1 43 2 6 1 22-1 35-5 18-6 22-4 22 14 0 27-43 44-79 32-16-6-35-5-48 1-16 7-30 7-45 0s-33-7-51 0c-19 6-36 6-51-1-14-6-28-7-37-1-15 9-32 10-61 2z"/>
		<path d="m688 218c-16-5-28-17-28-27 0-15 12-17 90-17 86 1 90 2 90 22 0 27-16 34-52 22-17-6-34-6-47 1-11 6-21 11-23 10-2 0-15-5-30-11z"/>
	</g>
</svg>
