<?xml version="1.0" encoding="UTF-8"?>
<!DOCTYPE svg  PUBLIC '-//W3C//DTD SVG 20010904//EN'  'http://www.w3.org/TR/2001/REC-SVG-20010904/DTD/svg10.dtd'>
<svg width="84pt" height="84pt" version="1.0" viewBox="0 0 84 84" xmlns="http://www.w3.org/2000/svg">
	<g transform="translate(0 84) scale(.1 -.1)">
		<path d="m689 717c-35-38-101-140-178-274-39-67-61-90-61-62 0 22-69 96-120 129-27 17-79 67-115 111-36 43-79 85-95 94-27 14-30 14-39-2-16-31-22-126-12-200 8-62 13-76 39-98 21-18 31-36 35-67 5-36 14-50 58-89 32-28 49-50 45-57-16-26-67-43-109-37-52 7-88-10-102-49-21-59 66-86 146-45 27 13 74 23 138 29 157 15 266 47 319 94 19 17 37 21 95 21h72l-2 33c0 18-9 43-20 54-16 18-27 20-86 15-65-4-67-4-61 17 14 42 50 86 86 102 65 29 82 56 86 134 4 65 2 72-24 104-16 19-36 45-45 57l-16 23-34-37z"/>
	</g>
</svg>
