<?xml version="1.0" encoding="UTF-8"?>
<!DOCTYPE svg  PUBLIC '-//W3C//DTD SVG 20010904//EN'  'http://www.w3.org/TR/2001/REC-SVG-20010904/DTD/svg10.dtd'>
<svg width="84pt" height="84pt" version="1.0" viewBox="0 0 84 84" xmlns="http://www.w3.org/2000/svg">
	<g transform="translate(0 84) scale(.1 -.1)">
		<path d="m273 791c-84-79-21-311 84-311 81 0 117 105 78 222-30 87-115 133-162 89z"/>
		<path d="m564 780c-32-13-81-80-94-129-24-92 10-161 82-161 34 0 46 6 74 37 39 42 54 86 54 156 0 40-5 54-29 78-30 30-50 34-87 19z"/>
		<path d="m107 581c-22-11-36-28-46-56-20-58-1-117 54-172 36-37 48-43 84-43 61 0 91 33 91 101 0 63-22 111-67 148s-75 43-116 22z"/>
		<path d="m714 529c-16-5-46-24-66-44-56-57-69-132-30-177 18-21 87-24 126-7 58 27 101 137 74 188-17 33-64 50-104 40z"/>
		<path d="m378 414c-40-21-157-152-184-206-30-59-32-132-4-168 18-23 25-25 98-24 57 1 86 6 105 19 26 16 31 17 85 1 79-22 127-20 173 6 36 20 39 25 39 64 0 59-21 103-100 208-86 114-138 139-212 100z"/>
	</g>
</svg>
