<svg viewBox="0 0 16 16" xml:space="preserve" xmlns="http://www.w3.org/2000/svg">
  <path d="M2.884 5c-.552 0-1-.448-1-1V1c0-.552.448-1 1-1s1 .448 1 1v3c0 .552-.447 1-1 1zm4.5 0c-.552 0-1-.448-1-1V1c0-.552.448-1 1-1s1 .448 1 1v3c0 .552-.447 1-1 1z" fill="#b3b9ba"/>
  <path d="M16 11h-3V8h2c.55 0 1 .45 1 1v2z" fill="#ccdae5"/>
  <path d="M8 11V9c0-.55.45-1 1-1h2v3H8z" fill="#3498db"/>
  <path d="M11 16v-3H8v2c0 .55.45 1 1 1h2z" fill="#ccdae5"/>
  <path d="M16 15v-2h-3v3h2c.55 0 1-.45 1-1z" fill="#3498db"/>
  <path d="M6.5 12.5c-.276 0-.5-.224-.5-.5V9.5H4V12c0 1.378 1.122 2.5 2.5 2.5v-2z" fill="#b3b9ba"/>
  <path d="M6.5 9c0-1.379 1.121-2.5 2.5-2.5v-1c.552 0 1-.448 1-1s-.448-1-1-1H1c-.552 0-1 .448-1 1s.448 1 1 1v1.862C1 9.638 2.8 11.5 5 11.5c.53 0 1.036-.11 1.5-.306V9z" fill="#ffca28"/>
  <path fill="#fff" d="M16 11h-3V8h-2v3H8v2h3v3h2v-3h3z"/>
</svg>
