<svg xmlns="http://www.w3.org/2000/svg" xml:space="preserve" viewBox="0 0 16 16">
  <path fill="#dce8f3" d="M12 6H6V0h4.5c.825 0 1.5.675 1.5 1.5V6z"/>
  <path fill="#3498db" d="M6 6H0V1.5C0 .675.675 0 1.5 0H6v6z"/>
  <path fill="#dce8f3" d="M6 12V6H0v4.5c0 .825.675 1.5 1.5 1.5H6z"/>
  <circle cx="11.998" cy="12" r="3.999" fill="#dce8f3"/>
  <path fill="#81b0dc" d="M10.499 14.3c-.133-.133-.267-.1-.5-.167-.233-.067-.2-.267-.233-.433-.033-.167-.1-.133-.2-.2-.067-.067-.067-.133-.067-.2-.033-.067-.067-.1-.3-.133-.233-.033-.2 0-.433-.167-.167-.1-.633-.333-.733-.5.1 1.133.866 2.3 1.832 2.9.233-.3.7-.6.766-.667.134-.1.001-.333-.132-.433m3.865-.633c-.133-.067-.267-.2-.5-.333-.2-.133-.067-.433.033-.8.1-.333-.6-.567-.866-.667-.3-.1-.566-.233-.966-.267-.3-.033-.4.033-.533.2-.2.267-.6.233-.666.467-.067.233-.167.533.4.8.566.267.8.233.9.667.1.467-.366 1.267.033 1.7.4.433 1.366-.433 1.533-.633.167-.2.5-.633.666-.8.199-.201.099-.268-.034-.334"/>
  <path fill="#81b0dc" d="M14.863 9.233c-.167.1-.5.3-.8.367-.366.067-.733.1-.7.333.033.167-.1.433.1.533.067.033.233-.033.3-.1.067-.1.167.267-.167.267-.3.033-.466.067-.633.033-.267-.1-.233.067-.267.267-.033.2-.2-.1-.233-.233-.033-.167-.033-.233-.233-.3-.3-.1-.9.067-.466.4.4.333.433.467.566.5.167.033.233-.067.5-.033.267.033.5.333.666.4.167.067.633.167.766.333s.267.733.366.967c.1.267.6.667.8.333.2-.367.267-.567.5-.567.335-1.566-.598-3.166-1.065-3.5M8.733 11.9c.133-.167.1-.333.267-.467.167-.133.466-.233.6-.367.167-.133.233-.167.167-.233-.1-.1-.133-.133-.1-.133.033-.033.167-.133.167-.133.033.033.1.2.2.267s.167.067.133-.367c-.035-.4-.468-.467-.668-.667-.1-.1-.466-.333-.566-.367-.5.567-.8 1.267-.9 2.067.033.033.3.267.333.3.134.133.234.267.367.1m1.932-2.8c.167.167.466.333.5.367 0 .033.133-.133.067-.4-.033-.233.1-.267.2-.333s.533-.1.666-.2c.133-.067.333-.2-.067-.533-.5 0-1.033.1-1.499.267.033.1.067.2-.033.367-.1.232-.033.332.166.465"/>
  <path fill="#3498db" d="M11.998 7H12V6H6v6h1c0-2.757 2.242-5 4.998-5z"/>
  <path fill="#fff" d="M12 5H7V0H5v5H0v2h5v5h2V7h5z"/>
</svg>


