<?xml version="1.0" encoding="UTF-8"?>
<svg width="38" height="38" version="1.0" viewBox="0 0 300 300" xmlns="http://www.w3.org/2000/svg">
	<rect x="15.29" y="20.639" width="269.52" height="258.25" ry="20.87" fill="none" stroke="#000" stroke-linejoin="round" stroke-width="14.69"/>
	<g transform="matrix(.38939 0 0 .38939 102.83 -64.47)">
		<path d="m331.95 761.35s33.781-78.449 32.139-117.88c-1.6427-39.432-40.804-99.323-39.638-132.26 1.1662-32.934 23.935-55.416 17.855-74.754s-22.827-36.29-39.638-36.29c-16.811 0-30.7 16.953-36.781 36.29s16.689 41.82 17.855 74.754c1.1662 32.934-37.995 92.825-39.638 132.26-1.6427 39.432 29.282 117.88 29.282 117.88h58.564z" fill="#fff" fill-rule="evenodd" stroke="#000" stroke-width="5.0154"/>
		<rect x="284.65" y="500.24" width="38.881" height="38.223" fill="#f00"/>
	</g>
	<g transform="matrix(.38939 0 0 .38939 -39.203 -64.47)">
		<path d="m331.95 761.35s33.781-78.449 32.139-117.88c-1.6427-39.432-40.804-99.323-39.638-132.26 1.1662-32.934 23.935-55.416 17.855-74.754s-22.827-36.29-39.638-36.29c-16.811 0-30.7 16.953-36.781 36.29s16.689 41.82 17.855 74.754c1.1662 32.934-37.995 92.825-39.638 132.26-1.6427 39.432 29.282 117.88 29.282 117.88h58.564z" fill="#fff" fill-rule="evenodd" stroke="#000" stroke-width="5.0154"/>
		<rect x="284.65" y="500.24" width="38.881" height="38.223" fill="#f00"/>
	</g>
	<g transform="matrix(.38939 0 0 .38939 69.572 -64.47)">
		<path d="m331.95 761.35s33.781-78.449 32.139-117.88c-1.6427-39.432-40.804-99.323-39.638-132.26 1.1662-32.934 23.935-55.416 17.855-74.754s-22.827-36.29-39.638-36.29c-16.811 0-30.7 16.953-36.781 36.29s16.689 41.82 17.855 74.754c1.1662 32.934-37.995 92.825-39.638 132.26-1.6427 39.432 29.282 117.88 29.282 117.88h58.564z" fill="#fff" fill-rule="evenodd" stroke="#000" stroke-width="5.0154"/>
		<rect x="284.65" y="500.24" width="38.881" height="38.223" fill="#f00"/>
	</g>
	<g transform="matrix(.38939 0 0 .38939 -5.1064 -64.47)">
		<path d="m331.95 761.35s33.781-78.449 32.139-117.88c-1.6427-39.432-40.804-99.323-39.638-132.26 1.1662-32.934 23.935-55.416 17.855-74.754s-22.827-36.29-39.638-36.29c-16.811 0-30.7 16.953-36.781 36.29s16.689 41.82 17.855 74.754c1.1662 32.934-37.995 92.825-39.638 132.26-1.6427 39.432 29.282 117.88 29.282 117.88h58.564z" fill="#fff" fill-rule="evenodd" stroke="#000" stroke-width="5.0154"/>
		<rect x="284.65" y="500.24" width="38.881" height="38.223" fill="#f00"/>
	</g>
	<g transform="matrix(.38939 0 0 .38939 31.811 -64.47)">
		<path d="m331.95 761.35s33.781-78.449 32.139-117.88c-1.6427-39.432-40.804-99.323-39.638-132.26 1.1662-32.934 23.935-55.416 17.855-74.754s-22.827-36.29-39.638-36.29c-16.811 0-30.7 16.953-36.781 36.29s16.689 41.82 17.855 74.754c1.1662 32.934-37.995 92.825-39.638 132.26-1.6427 39.432 29.282 117.88 29.282 117.88h58.564z" fill="#fff" fill-rule="evenodd" stroke="#000" stroke-width="5.0154"/>
		<rect x="284.65" y="500.24" width="38.881" height="38.223" fill="#f00"/>
	</g>
</svg>
