<?xml version="1.0" encoding="UTF-8"?>
<svg width="35" height="35" version="1.0" viewBox="0 0 600 600" xmlns="http://www.w3.org/2000/svg">
	<path d="m70.52 300c0 127.2 102.81 230.43 229.48 230.43 126.67 0 229.48-103.23 229.48-230.43 0-127.2-102.81-230.43-229.48-230.43-126.67 0-229.48 103.23-229.48 230.43" fill="#ff7006" fill-rule="evenodd" stroke="#000" stroke-width="11.797"/>
	<path d="m360.49 522.95c16.119-24.638-0.34855-96.836-9.4774-148.34-8.0057-45.163-19.586-92.035-33.179-139.42-13.542-47.209-46.264-142.99-85.047-155.82" fill="none" stroke="#000" stroke-width="9.8311"/>
	<path d="m470.45 145.7c-139.78-89.915-369.05 5.5364-399.34 155.47" fill="none" stroke="#000" stroke-width="9.8311"/>
	<path d="m512.41 387.34c0.73344-90.756-70.844-153.44-105.32-193.19-35.083-40.456-96.406-96.434-78.967-122.05" fill="none" stroke="#000" stroke-width="9.8311"/>
	<path d="m150.92 124.74c88.302-15.97 65.002 79.807 46.969 155-17.82 74.303-42.272 139.97-6.5757 223.57" fill="none" stroke="#000" stroke-width="9.8311"/>
	<rect x="18.255" y="18.255" width="563.49" height="563.49" ry="51.226" fill="none" stroke="#000" stroke-linejoin="bevel" stroke-width="36.51"/>
</svg>
