<?xml version="1.0" encoding="UTF-8"?>
<svg width="38" height="38" version="1.0" viewBox="0 0 300 300" xmlns="http://www.w3.org/2000/svg">
	<rect x="15.29" y="20.639" width="269.52" height="258.25" ry="20.87" fill="none" stroke="#000" stroke-linejoin="round" stroke-width="14.69"/>
	<g transform="matrix(-1.2702 0 0 1.2702 408.62 -82.064)">
		<path transform="matrix(.3368 0 0 .3368 192.59 42.973)" d="m278.91 461.96a78.381 78.381 0 1 1-156.76 0 78.381 78.381 0 1 1 156.76 0z" fill="none" stroke="#000" stroke-width="26"/>
		<path transform="matrix(.3368 0 0 .3368 79.457 42.459)" d="m278.91 461.96a78.381 78.381 0 1 1-156.76 0 78.381 78.381 0 1 1 156.76 0z" fill="none" stroke="#000" stroke-width="26"/>
		<path d="m167.91 153.14 67.883 0.34285 23.999 44.569h-45.941l-47.998-32.57" fill="none" stroke="#000" stroke-linejoin="round" stroke-width="7.0308"/>
		<path d="m170.52 126.43c-3.6873 0-6.4744-0.08227-9.3311 4.282-0.8223 1.4548-1.1983 3.2312-0.89463 4.9994 0.36424 2.0106 1.5546 3.986 2.9579 5.1554 1.8582 1.5485 3.6217 1.429 3.3367 2.8211-0.36568 1.7861-1.4817 4.2682-2.6877 8.2985-1.2242 4.0911-2.6779 9.0982-4.1048 14.03-1.4269 4.9318-2.8276 9.791-3.9364 13.577-0.55439 1.8932-1.0386 3.5188-1.4104 4.7363-0.36225 1.1862-0.68208 2.1076-0.65255 2.0419-1.1552 2.0324-1.3124 3.3568-3.25 5.0866-2.1724 1.9013-3.9412 3.3059-4.5551 3.7349-1.5592 1.1326-2.284 3.523-1.4607 4.7041 1.0376 1.6096 3.1806 1.8565 4.7469 1.375 1.4872-0.4721 3.8414-1.283 6.5713-3.544l0.02105-0.03157 0.03158-0.02105c3.7985-3.2581 5.2037-7.2124 5.3467-7.4412l0.19998-0.30523 0.13683-0.3368c0.32914-0.81022 0.52629-1.5246 0.91568-2.7997s0.88302-2.9223 1.4419-4.831c1.1178-3.8174 2.5114-8.684 3.9364-13.609 1.425-4.925 2.8751-9.9066 4.0837-13.946s1.9723-7.3565 2.2546-8.0622c0.68704-1.7176 1.038-3.5719 0.56836-5.431-0.46966-1.8591-1.8732-3.3595-3.133-3.7083-2.8757-0.80454-2.1127-2.873-0.64144-2.876l12.329-0.0251 0.03039-7.8744c-8e-5 -1.7e-4 -8.0027-1.7e-4 -12.851-1.7e-4z" fill-rule="evenodd" stroke-linecap="round" stroke-width="25"/>
		<path d="m214.73 196.65 23.273-56.97" fill="#fff" fill-rule="evenodd" stroke="#000" stroke-width="8.4201"/>
		<path d="m204.31 178.47 18.909 40" fill="#fff" fill-rule="evenodd" stroke="#000" stroke-linecap="round" stroke-width="3.0733"/>
		<path transform="matrix(.13232 0 0 .13669 187.57 134.99)" d="m278.91 461.96a78.381 78.381 0 1 1-156.76 0 78.381 78.381 0 1 1 156.76 0z" fill="none" stroke="#000" stroke-width="31.305"/>
		<path d="m199.26 179.7 12.421 0.11386" fill="#fff" fill-rule="evenodd" stroke="#000" stroke-width="4.2942"/>
		<path d="m216.88 216.79 12.421 0.11386" fill="#fff" fill-rule="evenodd" stroke="#000" stroke-width="4.2942"/>
		<path d="m249.4 134.59h-29.212c-1.0909 0-2.499 1.9298-1.0909 3.2122 1.5229 1.4493 15.212 4.4243 15.212 4.4243s3.7576 1.0303 5.7576 0.78789c2-0.24243 8.9092-0.84849 9.3334-8.4243z" fill-rule="evenodd" stroke="#000" stroke-width=".3368pt"/>
	</g>
</svg>
