<?xml version="1.0" encoding="UTF-8"?>
<svg width="38" height="38" version="1.0" viewBox="0 0 300 300" xmlns="http://www.w3.org/2000/svg">
	<rect x="15.29" y="20.639" width="269.52" height="258.25" ry="20.87" fill="none" stroke="#000" stroke-linejoin="round" stroke-width="14.69"/>
	<g transform="matrix(.42085 0 0 .42085 26.662 24.252)" stroke="#000" stroke-linecap="round" stroke-linejoin="round">
		<path d="m130.45 68.612 1.7474 246.15c0.11108 15.649 47.034 36.136 69.424 36.136 30.111 0 76.646-24.636 104.02-24.636s60.222 24.636 93.07 24.636 71.171-19.161 71.171-19.161v-257.31s-38.323 19.161-71.171 19.161-65.696-24.636-93.07-24.636-73.908 24.636-104.02 24.636c-30.111 0-71.171-24.978-71.171-24.978z" fill="#fbde65" stroke-width="10"/>
		<path d="m467.83 162.97c-5.318 2.5649-38.861 18.22-69.118 18.22-3.8779 0-7.7648-0.33532-11.634-0.94096v82.12c3.8689 0.60564 7.7558 0.94096 11.634 0.94096 30.257 0 63.8-15.656 69.118-18.22v-82.12z" fill-rule="evenodd" stroke-width="5"/>
		<path d="m305.64 244.14c-1.5212 0-3.1569 0.11292-4.7904 0.25663v82.12c1.6334-0.14371 3.2692-0.25662 4.7904-0.25662 22.62 0 48.954 16.74 75.961 22.583v-82.12c-27.007-5.8429-53.342-22.583-75.961-22.583z" fill-rule="evenodd" stroke-width="5"/>
		<path d="m130.45 243.8 1.7108 71c0.38523 15.644 47.07 36.099 69.46 36.099 2.8245 0 5.8122-0.29144 8.8964-0.68433v-82.12c-3.0842 0.3929-6.0719 0.68434-8.8964 0.68434-30.111 0-71.171-24.978-71.171-24.978z" stroke-width="5"/>
		<path d="m296.06 157.4c-23.338 3.5689-55.208 17.922-80.752 22.412v82.12c25.544-4.4896 57.414-18.843 80.752-22.412v-82.12z" stroke-width="5"/>
		<path d="m130.45 68.612 1.7108 71c0.38523 15.644 47.07 36.099 69.46 36.099 2.8245 0 5.8122-0.29144 8.8964-0.68433v-82.12c-3.0842 0.39289-6.0719 0.68434-8.8964 0.68434-30.111 0-71.171-24.978-71.171-24.978z" stroke-width="5"/>
		<path d="m116.5 529.88v-463.3h14.636v463.3h-14.636z" fill-rule="evenodd" stroke-width="10"/>
		<path d="m305.64 68.955c-1.5212 0-3.1569 0.11292-4.7904 0.25663v82.12c1.6334-0.14371 3.2692-0.25663 4.7904-0.25663 22.62 0 48.954 16.74 75.961 22.583v-82.12c-27.007-5.8429-53.342-22.583-75.961-22.583z" fill-rule="evenodd" stroke-width="5"/>
	</g>
</svg>
