<?xml version="1.0" encoding="UTF-8"?>
<svg width="38" height="38" version="1.0" viewBox="0 0 300 300" xmlns="http://www.w3.org/2000/svg">
	<rect x="15.29" y="20.639" width="269.52" height="258.25" ry="20.87" fill="none" stroke="#000" stroke-linejoin="round" stroke-width="14.69"/>
	<path d="m89.778 97.245c0 1.4686-1.0198 2.2029-3.0595 2.2029-2.2845 0-3.4267-0.73429-3.4267-2.2029 0-6.7718-2.2437-12.279-6.731-16.522-3.9978-3.5899-7.8732-5.3848-11.626-5.3848-5.548 0-9.0155 2.2029-10.402 6.6086l-0.48952 3.3043v0.24476c0 3.2635 2.4068 7.7916 7.2205 13.584 1.3054 1.4686 2.4068 2.6108 3.3043 3.4267 1.3054 1.0606 3.4675 1.591 6.4862 1.591 3.1819 0 8.322-0.61191 15.42-1.8357 7.1797 1.2238 12.361 1.8357 15.542 1.8357 3.1004 0 5.2624-0.53032 6.4863-1.591 3.4267-3.0188 6.2822-6.6902 8.5667-11.014 1.3054-2.4476 1.9581-4.4465 1.9581-5.9967 0-5.14-2.3253-8.3628-6.9758-9.6682-1.2238-0.32636-2.5292-0.48954-3.9162-0.48954-3.753 0-7.5877 1.8357-11.504 5.5072-4.5689 4.0794-6.8534 9.5458-6.8534 16.399m26.557-11.749c0 3.2635-2.2437 7.0981-6.731 11.504l-3.1819 2.6924-1.2238 0.73427c-1.5502 0.24476-3.1819 0.36715-4.8953 0.36715-5.0584 0-7.5877-1.0199-7.5877-3.0596 0.16317-6.2823 2.0397-11.178 5.6296-14.686 3.1003-3.1004 6.2823-4.6505 9.5458-4.6505 4.161 0 6.8126 1.5094 7.9548 4.5281l0.48954 2.57m-11.626 31.085c0-2.1213-5.9967-3.1819-17.99-3.1819-3.2635 0-6.1599 0.12237-8.6891 0.36714l-2.9372 0.24477c-4.4057 0.57111-6.6086 1.387-6.6086 2.4476 0 1.2238 1.1014 1.8357 3.3043 1.8357l14.808-1.2238 14.686 1.2238c2.2844 0 3.4267-0.57111 3.4267-1.7133m6.8534 2.9372c-0.16318 5.548-8.4851 8.322-24.966 8.322-16.318 0-24.599-2.774-24.843-8.322-0.08159-5.2216-0.85668-9.8721-2.3253-13.952-0.89746-2.2029-2.6108-5.0176-5.14-8.4443-3.1819-4.3242-4.7729-8.1588-4.7729-11.504 0-5.2216 2.2437-9.2602 6.731-12.116 2.5292-1.6318 5.344-2.4476 8.4443-2.4476 4.2426 0 8.2812 1.5502 12.116 4.6505 0-3.753 0.36715-6.323 1.1014-7.71 0.57111-1.5502 2.4476-3.4267 5.6296-5.6296v-2.8148l-5.0176-3.0595v-4.4058h4.5281l1.4686-4.5281h4.161l1.591 4.5281h4.4057v4.4058l-4.8953 3.0595v2.8148c3.1003 2.2844 5.0176 4.2426 5.7519 5.8743l0.85667 3.5491c0.08161 0.97905 0.16319 2.2845 0.24477 3.9162 3.8346-3.1003 7.7917-4.6505 11.871-4.6505 5.4664 0 9.7089 2.0805 12.728 6.2415 1.7134 2.4476 2.57 5.2216 2.57 8.322 0 3.3451-1.591 7.2205-4.7729 11.626l-2.8148 3.9162c-3.0187 4.5689-4.5689 10.688-4.6505 18.357m-54.705-34.022c0-3.4267 1.7134-5.6296 5.14-6.6086 0.97905-0.32636 1.9989-0.48953 3.0595-0.48953 3.4267 0 6.6902 1.5502 9.7905 4.6505 3.5083 3.5898 5.344 8.4851 5.5072 14.686 0.08159 1.7949-1.7949 2.8148-5.6296 3.0596h-1.8357c-1.6318 0-3.3043-0.12239-5.0176-0.36715-2.6924-1.3054-5.3848-3.8754-8.0772-7.71-1.9581-2.8556-2.9372-5.2624-2.9372-7.2205"/>
	<path d="m190.87 114.38c0 1.3054 0.93826 1.9581 2.8148 1.9581l8.4443-0.61191c-1e-4 0 2.4475-0.12239 7.3429-0.36714h1.8357l14.319 0.7343 2.9372 0.24475c1.8764 0 2.8147-0.6527 2.8148-1.9581-1e-4 -2.366-5.4665-3.6714-16.399-3.9162h-3.7938c-9.2195 0-15.379 0.69351-18.48 2.0805-1.2238 0.48953-1.8357 1.1014-1.8357 1.8357m-15.298-51.156c-1.5502 0-2.5292 0.7751-2.9372 2.3253-0.08159 0.24476-0.12239 0.48951-0.12239 0.7343 0 1.5502 0.7751 2.5292 2.3253 2.9371 0.24475 0.08159 0.48951 0.12239 0.73428 0.12239 1.9581 0 2.9372-1.0198 2.9372-3.0595 0-2.0397-0.97906-3.0596-2.9372-3.0596m16.032-7.71c-2.1213 0-3.1819 1.0199-3.1819 3.0596 0 2.0397 1.0606 3.0596 3.1819 3.0596 1.9581 0 2.9372-1.0198 2.9372-3.0596 0-2.0397-0.97905-3.0596-2.9372-3.0596m39.04 0c-1.3871 0-2.3254 0.69351-2.8148 2.0805l-0.12239 0.97906c-1e-4 2.0397 0.97896 3.0596 2.9372 3.0596 2.0396 0 3.0594-1.0198 3.0595-3.0596-9e-5 -2.0397-1.02-3.0596-3.0595-3.0596m15.91 7.71c-1.9582 0-2.9373 1.0199-2.9372 3.0596-1.1e-4 2.0397 0.97892 3.0595 2.9372 3.0595 2.0396 0 3.0594-1.0198 3.0596-3.0595-1.2e-4 -1.5502-0.77519-2.5292-2.3253-2.9372-0.24486-0.08159-0.48963-0.12239-0.73428-0.12239m-8.8115 58.498c-1.1e-4 2.2845-4.2019 3.8754-12.605 4.7729l-11.871 0.73427h-2.2029c-9.9538 0-17.541-0.85667-22.763-2.57-2.5292-0.7343-3.7938-1.7134-3.7938-2.9372 0-2.366 0.6527-5.0584 1.9581-8.0772 0.89747-1.7949 1.3462-3.0596 1.3462-3.7938 0-1.5502-1.8765-4.5689-5.6296-9.0562-2.0397-2.3661-3.2227-3.9978-3.5491-4.8953 0-0.48951-0.24476-1.591-0.7343-3.3043l-1.591-6.1191c-1.0606-3.9978-1.7541-8.2404-2.0805-12.728-3.753-1.5502-5.6296-4.0386-5.6296-7.4653 0-2.9372 1.3462-5.0177 4.0386-6.2415 0.89747-0.40795 1.8765-0.61193 2.9372-0.61193 2.6924 0 4.6913 1.2238 5.9967 3.6715 0.57113 1.0606 0.85668 2.1213 0.85668 3.1819l-0.61191 4.6505c0 3.6714 2.6108 8.1588 7.8324 13.462 0.40792-3.3451 0.61191-6.8534 0.61191-10.525 0-5.4664-0.97906-8.9338-2.9372-10.402-0.16318-0.16319-0.32637-0.28555-0.48952-0.36714-1.4686-0.89748-2.2029-2.4884-2.2029-4.7729 0-3.0187 1.387-5.0992 4.161-6.2415 0.89747-0.40794 1.8357-0.61191 2.8148-0.61191 2.8556 0 4.8953 1.3054 6.1191 3.9162 0.48951 0.89748 0.73417 1.8765 0.73428 2.9372l-0.85668 5.2624c0 4.5689 2.2436 11.545 6.731 20.927 1.7132-7.6693 2.5699-13.544 2.57-17.623-1e-4 -3.4267-0.61203-6.5678-1.8357-9.4234-0.48964-1.0606-0.73439-1.8765-0.7343-2.4476-9e-5 -3.0188 1.3461-5.0992 4.0386-6.2415 0.89736-0.40793 1.8356-0.61191 2.8148-0.61191 2.8555 0 4.8544 1.3462 5.9967 4.0386 0.40783 0.89747 0.61182 1.8357 0.6119 2.8148-8e-5 0.16317-0.69359 2.3252-2.0805 6.4862-0.32646 1.0606-0.48963 2.8556-0.48953 5.3848-1e-4 4.0794 0.85656 9.9537 2.57 17.623 4.4056-9.301 6.6085-16.277 6.6086-20.927l-0.7343-5.14v-0.1224c-1.1e-4 -3.0187 1.3869-5.0992 4.161-6.2415 0.89736-0.40794 1.8356-0.61191 2.8148-0.61191 2.8555 0 4.8952 1.3054 6.1191 3.9162 0.48943 0.89748 0.73419 1.8765 0.73429 2.9372-1e-4 2.2845-0.73441 3.9162-2.2029 4.8953-2.2846 1.4686-3.4268 5.0585-3.4267 10.77-9e-5 3.5899 0.20385 7.0574 0.61191 10.402 5.2215-5.3032 7.8323-9.7906 7.8324-13.462l-0.61191-4.6505c-9e-5 -2.8556 1.3053-4.8953 3.9162-6.1191 0.89736-0.48951 1.8764-0.73429 2.9372-0.73429 2.9371 0 5.0175 1.3054 6.2415 3.9162l0.73429 2.3253v0.61191c-9e-5 3.2635-1.8766 5.7519-5.6296 7.4653-0.48963 5.6296-1.8766 12.524-4.161 20.683-0.16327 0.65271-0.24487 1.1422-0.24476 1.4686-1.1e-4 0.57112-0.61201 1.5094-1.8357 2.8148l-1.4686 1.8357c-3.9163 4.4873-5.8744 7.5877-5.8743 9.301-1e-4 0.48952 0.97896 3.0188 2.9372 7.5877 0.32627 1.6317 0.48941 3.0596 0.48952 4.2834m-26.557-70.002c-1.5503 0-2.5293 0.77509-2.9372 2.3252-0.08169 0.24476-0.12247 0.48952-0.12236 0.73428-1.1e-4 1.5502 0.77497 2.5292 2.3252 2.9372 0.24467 0.08159 0.48944 0.12239 0.73431 0.12239 1.958 0 2.937-1.0199 2.9372-3.0596-1.1e-4 -1.4686-0.69359-2.4476-2.0805-2.9372-0.24485-0.08158-0.5304-0.12238-0.85665-0.12238m22.029 47.729c-9e-5 -2.6108-7.343-3.9162-22.029-3.9162-14.767 0-22.151 1.3462-22.151 4.0386 0 1.1422 1.0606 1.7133 3.1819 1.7133 2.4477 0 5.5072-0.20396 9.1786-0.6119l7.9548-0.24476h1.9581c2.2844 0 6.6085 0.20396 12.972 0.61191l5.9967 0.24475c1.958 0 2.9371-0.6119 2.9372-1.8357"/>
	<path d="m211.06 247.96c-16.236 0-24.476-2.7332-24.721-8.1996-0.40794-7.5061-1.6726-13.176-3.7938-17.011-0.89746-1.5502-2.1621-3.4267-3.7938-5.6296-2.774-3.6714-4.3242-6.7718-4.6505-9.301-0.08159-0.6527-0.12238-1.3462-0.12238-2.0805 0-5.14 2.1621-9.1786 6.4862-12.116 1.0606-0.65271 2.1621-1.183 3.3043-1.591 4.3242-1.5502 8.6075-1.3054 12.85 0.7343 1.5502 0.73428 3.1003 1.7133 4.6505 2.9372l0.12239 0.12239c0-1.7134 0.08158-3.5491 0.24477-5.5072 0-0.57114 0.28555-1.3462 0.85666-2.3253 1.3054-2.1213 2.8556-3.7938 4.6505-5.0176 0.32635-0.16319 0.6527-0.36716 0.97906-0.61191v-2.9372l-5.0176-2.9372v-4.4057h4.5281l1.591-4.6505h3.6714l1.591 4.6505h4.5281v4.4057l-5.0176 2.9372v2.9372c4.2426 2.6924 6.4046 5.3848 6.4862 8.0772 0.16317 1.6318 0.24476 3.4267 0.24476 5.3848l0.12239-0.12239c5.14-4.3242 10.525-5.7111 16.154-4.161 1.4686 0.40791 2.8556 1.0198 4.161 1.8357 4.5689 2.774 6.8942 6.8942 6.9758 12.361 0 3.2635-1.6318 7.139-4.8953 11.626-2.6924 3.753-4.365 6.4862-5.0177 8.1996-1.387 3.6714-2.2029 8.4035-2.4476 14.196-0.16316 5.4664-8.4036 8.1996-24.721 8.1996m0-41.243 3.5491-5.6296c0.57112-1.2238 1.0198-2.366 1.3462-3.4267 0.16319-0.57111 0.24478-1.7541 0.24478-3.5491 0-4.8137-1.6726-7.2205-5.0177-7.2205-3.5083 0-5.2624 2.4069-5.2624 7.2205 0 1.7949 0.08159 2.978 0.24476 3.5491 0.6527 2.2029 2.0397 4.8137 4.161 7.8324 0.48954 0.57112 0.7343 0.97905 0.7343 1.2238m32.676-0.24477c0-3.6714-1.2238-6.4862-3.6715-8.4443-2.0397-1.7134-4.4465-2.57-7.2205-2.57-3.5082 0-7.3021 1.7949-11.382 5.3848-4.8137 4.161-7.5469 9.7906-8.1996 16.889 0 0.57111 1.5094 1.2238 4.5281 1.9581 3.5083 0.65271 9.4642 0.97906 17.868 0.97906l5.5072-7.3429c1.7134-2.6108 2.57-4.8953 2.57-6.8534m-32.676 16.522c-2.0397 0.89749-8.2404 1.6726-18.602 2.3253-1.5502 0.0816-2.8148 0.16317-3.7938 0.24476 0.81589 3.1003 1.3462 6.527 1.591 10.28 5.6296-1.7949 12.565-2.6924 20.805-2.6924 8.4035 0 15.339 0.89745 20.805 2.6924 0.24476-4.0794 0.77508-7.5061 1.591-10.28l-18.113-1.4686c-1.5502-0.24475-2.978-0.6119-4.2834-1.1014m-32.676-16.522c0 2.5292 1.9989 6.3639 5.9967 11.504 0.97905 1.2238 1.6726 2.1213 2.0805 2.6924h2.2029c8.4036 0 14.523-0.57111 18.357-1.7134 1.2238-0.32634 1.8357-0.73427 1.8357-1.2238-0.65271-7.0981-3.3859-12.728-8.1996-16.889-3.9978-3.5899-7.7916-5.3848-11.382-5.3848-1.1422 0-2.366 0.24475-3.6714 0.73429-3.2635 0.81587-5.4664 2.9779-6.6086 6.4862l-0.61191 3.3043v0.48951m32.676 37.082c7.6692 0 12.972-0.48954 15.91-1.4686 0.7343-0.24477 1.1014-0.53034 1.1014-0.85669 0-2.1213-5.6296-3.1819-16.889-3.1819-4.3242 0-8.5259 0.28558-12.605 0.85669-3.0188 0.48951-4.5281 1.2646-4.5281 2.3252 0 1.2238 4.8137 1.9989 14.441 2.3253h2.57"/>
	<path d="m83.903 219.69h5.3848c1.2237 0 2.6923 0.04078 4.4057 0.12237l12.116 0.7343h0.12239c1.4685 0 2.2028-0.20399 2.2029-0.61191v-0.48954c-1.1e-4 -2.4476-5.4257-4.0386-16.277-4.7729-1.9582-0.16319-3.6715-0.24478-5.14-0.24478-7.9957 0-14.156 0.81589-18.48 2.4476-1.9581 0.73427-2.9372 1.591-2.9372 2.57v0.48954c0 0.40792 0.7343 0.61191 2.2029 0.61191l16.399-0.85667m22.641 5.5072c-6.4455-0.81587-13.054-1.2238-19.826-1.2238-7.0982 0-13.707 0.40795-19.826 1.2238 0.97906 0.81587 1.4686 2.4068 1.4686 4.7729 0 1.5502-0.24476 2.4884-0.73427 2.8148 4.8952-0.89746 11.259-1.3462 19.092-1.3462 7.8323 0 14.196 0.44874 19.092 1.3462-0.48963-0.32635-0.73439-1.2646-0.73429-2.8148-1e-4 -2.3661 0.48943-3.957 1.4686-4.7729m-19.826 10.525c-4.1611 0-8.8116 0.20397-13.952 0.61192-3.9978 0.32634-5.9967 1.2646-5.9967 2.8148 0 2.0397 6.6494 3.0595 19.948 3.0595 13.299 0 19.948-1.0198 19.948-3.0595-9e-5 -0.6527-0.53041-1.2646-1.591-1.8357-3.1004-1.0606-9.2195-1.591-18.357-1.591m0-64.006c-2.0398 0-3.0597 0.97905-3.0595 2.9372-1.2e-4 2.1213 1.0197 3.1819 3.0595 3.1819 1.958 0 2.937-1.0606 2.9372-3.1819-1e-4 -1.9581-0.97916-2.9372-2.9372-2.9372m0-3.5491c2.937 0 4.9767 1.3462 6.1191 4.0386l0.61191 2.4476v0.36716c-1.1e-4 0.48951-0.32645 1.5094-0.97905 3.0595-1.1423 3.3451-1.7134 6.2415-1.7134 8.6891-9e-5 3.9978 0.89737 9.9129 2.6924 17.745 4.4056-9.301 6.6085-16.318 6.6086-21.05l-0.73429-5.2624c-1.3e-4 -2.8556 1.2645-4.8953 3.7938-6.1191 0.89734-0.48952 1.8764-0.73427 2.9371-0.73427 2.9371 0 5.0176 1.3054 6.2415 3.9162 0.48945 0.97906 0.73421 1.9581 0.73431 2.9372-1e-4 2.1213-0.73439 3.7938-2.2029 5.0177-2.203 2.2029-3.3452 5.7927-3.4267 10.77-9e-5 2.1213 0.20385 5.548 0.61191 10.28 5.3031-5.4664 7.9547-9.9129 7.9548-13.34l-0.61189-4.7729c-1.4e-4 -2.6924 1.2237-4.6913 3.6714-5.9967 0.97895-0.57112 1.9988-0.85669 3.0596-0.85669 2.7739 0 4.8544 1.2646 6.2414 3.7938l0.73431 2.3253v0.73428c-9e-5 3.3451-1.8766 5.8743-5.6296 7.5877-0.16329 3.5083-1.5095 10.402-4.0386 20.683-0.16329 0.48954-0.28567 0.93826-0.36715 1.3462-1.1e-4 1.1422-1.3055 3.1003-3.9162 5.8743-3.5084 3.5083-5.2625 6.2415-5.2624 8.1996-1e-4 0.89745 0.97896 3.3043 2.9372 7.2205 0.32627 0.7343 0.48941 1.8357 0.48951 3.3043v0.85667c-0.08169 0.24476-0.12248 0.53032-0.12236 0.85666v0.12239l0.12236 0.12238c-1e-4 2.9372-7.8733 4.5689-23.62 4.8953h-3.0595l-5.14-0.12238h-0.12239c-7.6694-0.24477-13.503-0.89746-17.501-1.9581-2.5292-0.73427-3.7938-1.6725-3.7938-2.8148 0.08159-0.08158 0.08159-0.57111 0-1.4686-0.0816-0.16317-0.0816-0.32635 0-0.48952 0-1.8765 0.61191-4.0386 1.8357-6.4862 0.97906-1.9581 1.4686-3.3043 1.4686-4.0386 0-1.3054-0.69348-2.8556-2.0805-4.6505l-5.9967-6.8534c-0.65268-0.89746-0.97905-1.7542-0.97905-2.57-2.5292-10.362-3.957-17.093-4.2834-20.193-0.08159-0.65271-0.12238-1.2646-0.12238-1.8357-3.753-1.7133-5.6296-4.2426-5.6296-7.5877 0-2.6924 1.2238-4.6913 3.6714-5.9967 1.0606-0.57112 2.1213-0.85669 3.1819-0.85669 2.8556 0 4.8953 1.3054 6.1191 3.9162 0.48951 0.89747 0.73428 1.8765 0.73428 2.9372l-0.61192 4.7729c0 3.5899 2.6108 8.0364 7.8324 13.34 0.40794-3.5899 0.61192-7.0166 0.61192-10.28 0-4.4873-0.53033-7.4653-1.591-8.9339-0.40795-0.57111-1.0199-1.2238-1.8358-1.9581-1.4686-0.97905-2.2029-2.6108-2.2029-4.8953 0-2.8556 1.3462-4.936 4.0386-6.2414 0.89746-0.40796 1.8765-0.61191 2.9371-0.61191 2.8556 0 4.8953 1.3054 6.1191 3.9162 0.48942 0.89746 0.73418 1.8765 0.73428 2.9372l-0.73428 5.14v0.12238c0 4.6505 2.2028 11.667 6.6086 21.05 1.7132-7.4245 2.5699-13.34 2.57-17.745-1e-4 -3.2635-0.612-6.3638-1.8357-9.301-0.48962-1.1422-0.73439-1.9581-0.73427-2.4476-1.2e-4 -2.8556 1.3053-4.8953 3.9162-6.1191 0.89736-0.48951 1.8764-0.73427 2.9372-0.73427m35.368 15.053c-1.3055 0-2.2438 0.65271-2.8148 1.9581-0.08169 0.32636-0.12249 0.65269-0.12239 0.97904-1e-4 1.6318 0.73418 2.6516 2.2029 3.0596 0.24467 0.08157 0.48945 0.12237 0.73431 0.12237 2.0396 0 3.0594-1.0606 3.0595-3.1819-1.1e-4 -1.9581-1.02-2.9372-3.0595-2.9372m-16.032-7.8324c-1.3871 0-2.3254 0.6935-2.8148 2.0805l-0.12237 0.97906c-1.2e-4 1.4686 0.69337 2.4476 2.0805 2.9372 0.24465 0.08159 0.53021 0.12238 0.85666 0.12238 2.1212 0 3.1818-1.0198 3.1819-3.0595-9e-5 -2.0397-1.0607-3.0595-3.1819-3.0595m-38.917 0c-2.0397 0-3.0595 1.0199-3.0595 3.0595 0 2.0397 1.0199 3.0595 3.0595 3.0595 1.9581 0 2.9372-1.0198 2.9372-3.0595 0-2.0397-0.97905-3.0595-2.9372-3.0595m-16.032 7.8324c-2.0397 0-3.0595 0.97906-3.0595 2.9372 0 2.1213 1.0199 3.1819 3.0595 3.1819 1.9581 0 2.9372-1.0606 2.9372-3.1819 0-1.387-0.69349-2.3252-2.0805-2.8148-0.24479-0.08157-0.53033-0.12237-0.85669-0.12237m35.613 7.8324c-1.1424 7.1797-2.6109 12.361-4.4058 15.542l-1.8357 2.9372v0.12239c-0.24488-0.24478-1.3055-1.4686-3.1819-3.6715-2.3662-2.774-4.8545-8.0364-7.4653-15.787 0.16317 1.1422 0.24476 2.3252 0.24476 3.549 0 3.8346-0.69349 9.7498-2.0805 17.745-4.4057-2.6108-8.6891-6.7718-12.85-12.483 1.387 7.0166 2.4477 11.626 3.1819 13.829 0.48953 1.6318 1.1014 2.57 1.8357 2.8148 6.6902-3.8346 15.542-5.7519 26.557-5.7519 11.096 0 19.948 1.9173 26.557 5.7519 1.4685-0.48951 3.1002-6.0375 4.8953-16.644-4.2427 5.8743-8.4852 10.035-12.728 12.483-1.3871-7.0982-2.0806-12.687-2.0805-16.766-1.1e-4 -1.0606 0.08147-2.57 0.24476-4.5281-1.6319 4.8953-3.5084 9.2602-5.6296 13.095-1.1423 1.7133-2.407 3.3451-3.7938 4.8953-0.65279 0.6527-1.0607 1.1422-1.2238 1.4686l-2.6924-4.7729c-0.08166-0.32635-0.20406-0.6527-0.36713-0.97906-0.6528-1.7949-1.7134-6.0783-3.1819-12.85"/>
</svg>
