<?xml version="1.0" encoding="UTF-8"?>
<svg width="35" height="35" version="1.0" viewBox="0 0 610 610" xmlns="http://www.w3.org/2000/svg">
	<path d="m68.664 221.3c-2.2512 16.311-0.08112 31.88 6.8992 48.398 4.6247 16.03 9.5377 32.705 13.646 42.358 16.882 11.06 25.395 4.5462 33.337-4.6938 3.1154-13.695-8.4768-45.442 4.7832-49.514 11.775-2.2163 22.814 24.608 27.841 37.021s4.5026 37.641 7.739 48.444c3.979 10.06 11.957 9.8848 11.649 15.661-0.31015 5.8073-14.423 15.945-19.745 21.659-5.3972 5.7956-5.7268 8.5232-5.4677 16.432 4.3426 8.6307 16.752 53.858 21.987 68.218 5.4495 10.119 2.2986 9.1972 14.263 13.134 2.1034-13.349 2.6206-15.887 3.6548-23.043-5.2778-4.9278-9.7273-7.3838-10.994-10.994s-0.84162-1.6311-1.4997-8.7803-8.9906-29.103-9.1371-40.734c13.292-13.173 25.864-18.393 39.504-18.703 10.073 12.966 31.884 69.234 38.173 86.422 6.146 16.797 3.7791 15.796 3.3186 23.551-2.1862 6.0214-11.264 8.8413-14.429 12.454s-0.39923-0.23155-6.6705 9.4512c11.406-0.26105 16.387 0.01223 25.497-0.10947 0.23304-7.6671-3.1984-6.3519-1.0994-9.6825s9.0112-3.5143 12.94-6.8283c4.3183-13.11-8.2016-34.563-9.7933-46.357-1.589-11.774 0.0189-12.595-3.8428-25.203-3.8484-12.565-6.1568-22.185-7.1549-43.953 39.979 3.9867 76.111 2.0726 102.4-9.5803 17.174 21.802 16.239 26.969 22.779 33.94 4.1577 8.9501 9.1256 18.192 3.4563 26.803-9.5934 10.16-35.094 26.261-40.527 33.801-2.1372 11.463-6.167 14.518-7.2256 22.143-1.0617 7.6478-0.09456 7.1898 1.258 18.847 8.5711-7.0168 15.784-12.41 21.36-17.433-3.0544-8.6323-6.0822-3.5159-4.3992-12.564 7.9083-2.3 25.525-22.952 36.906-30.468s19.616-11.158 31.253-20.102c4.1047 4.7078 8.0022 19.173 5.6572 31.883-2.3729 12.861-9.6036 28.618-15.551 38.476-6.5755 5.6203-11.349 5.1357-15.391 5.4968-3.4144 3.1857-2.7014 1.0451-9.2674 10.366 10.539-0.09461 16.839-0.18675 23.873-0.46988 3.8953-3.8923 5.6041-3.2252 17.276-5.4985 6.3363-20.633 19.416-55.363 29.213-73.5-8.137-14.591-17.982-34.915-15.234-48.528 5.4159-13.77 21.745-32.489 25.442-45.229s6.3246-20.865 5.0269-28.427-5.3918-12.656-8.1689-18.845c3.9706-1.6386 7.9039-1.4349 23.086 16.645s42.699 111.85 48.371 120.93c5.7994 9.2852 15.075 2.0716 16.498-2.8473 1.499-5.1822-40.664-118.29-56.075-132.37-15.268-13.956-27.724-12.808-40.431-15.596-12.707-5.9209-30.58-17.451-46.031-22.168-16.156-3.1063-35.382 4.8452-60.17 3.6927s-77.238-10.52-101.82-18.697c-24.25-9.7776-39.427-24.083-56.957-32.369-18.335-6.5746-39.319-11.149-56.027-11.002-8.4278 1.1705-30.718 10.529-41.812 15.666-2.2755-3.7025-2.642-8.8265-6.3745-9.4954-7.3532 2.8104-5.9757 15.793-7.7875 21.895z" fill-rule="evenodd"/>
	<path d="m296.63 103.22c-10.588 0.53729-19.031 9.3103-19.031 20.031 0 10.595 8.2431 19.279 18.656 20-4.252 0.54168-8.3618 2.4243-11.625 5.6875-3.3747 3.3747-5.286 26.283-5.75 51.844-19.884 8.588-40.883 16.893-48.219 22.125-1.9413 3.5906-1.7238 8.0454 4.4062 10.625 7.3467-2.6622 24.074-9.2534 43.719-17.25 0.02327 5.1042 0.11422 10.139 0.25 15.062-13.785 16.067-35.517 46.358-37.531 51.938 1.356 4.3992 22.947 43.065 28.469 68.969 3.112 13.771-16.514 4.589-14.375 19.938 20.004-2.9058 33.6-5.9505 45.688-7.5938-3.1875-9.7348-18.492-55.776-33.906-76.938 23.996-19.731 36.689-27.374 52.601-52.611-0.73858-26.51 0.8185-78.283-7.0069-86.108-3.5656-3.5656-8.1446-5.4962-12.812-5.8125 9.8848-1.235 17.531-9.6574 17.531-19.875 0-11.067-8.9645-20.031-20.031-20.031-0.34584 0-0.6897-0.01733-1.0312 0z" fill-rule="evenodd" stroke="#fff" stroke-width="2.5"/>
	<rect x="14.438" y="14.438" width="581.12" height="581.12" rx="50.19" ry="50.796" fill="none" stroke="#000" stroke-linejoin="bevel" stroke-width="28.875"/>
</svg>
