<?xml version="1.0" encoding="UTF-8"?>
<svg width="38" height="38" version="1.0" viewBox="0 0 300 300" xmlns="http://www.w3.org/2000/svg">
	<rect x="15.29" y="20.639" width="269.52" height="258.25" ry="20.87" fill="none" stroke="#000" stroke-linejoin="round" stroke-width="14.69"/>
	<g transform="matrix(.70758 0 0 .70758 -45.584 341.04)">
		<circle transform="matrix(39.814 0 0 39.814 -491.41 -12516)" cx="22.254" cy="304.48" r=".694" d="m 22.948,304.478 c 0,0.38328 -0.310715,0.694 -0.694,0.694 -0.383286,0 -0.694,-0.31072 -0.694,-0.694 0,-0.38329 0.310714,-0.694 0.694,-0.694 0.383285,0 0.694,0.31071 0.694,0.694 z"/>
		<path d="m316.1-130.01h71.386s5.4147 0.55739 5.4147-5.0962v-5.6536h10.551s2.4286 19.31-11.984 21.141h-75.368v-10.391z"/>
		<path d="m138.01-185.19 50.524 50.484s3.3842 4.1406 7.4054 0.19907l4.0212-4.0212 7.4452 7.485s-11.984 15.408-23.45 6.5295l-53.231-53.271 7.286-7.4054z"/>
		<path d="m332.9-202.79 0.0796 50.046c0 9.3961 7.6045 17.04 17.08 17.04 8.5998 0 17.001-9.9535 17.001-17.04v-69.635c0-4.8573-2.0305-9.2368-5.2952-12.382l-40.849-40.73 54.187-54.187c10.192-12.701 4.8175-27.949 4.8175-27.949-5.6536-16.921-24.804-17.478-24.804-17.478l-139.71-0.0398c-7.4452 0-13.497 6.0119-13.497 13.497 0 7.485 6.0517 13.497 13.497 13.497l96.469 0.15926-40.65 40.451c-5.8128 5.9323-8.7591 12.621-8.7591 21.38 0 8.4007 3.3444 15.886 8.9183 21.38l61.512 61.99z"/>
		<path d="m262.75-257.21c-1.274-1.2342-2.4685-2.5879-3.5434-4.061l-80.583 80.743c-6.0915 4.8971-8.0822 13.537-4.4194 20.743 4.1805 8.2415 14.333 11.506 22.574 7.286 1.1148-0.59721 2.15-1.274 3.1055-2.0703l82.733-82.853-19.867-19.788z"/>
	</g>
</svg>
