<?xml version="1.0" encoding="UTF-8"?>
<svg width="284.4" height="284.4" version="1.0" xmlns="http://www.w3.org/2000/svg">
	<g transform="translate(-50.658 -318.74)">
		<g transform="translate(6.7321 -2.0561)" stroke-linecap="round">
			<path transform="translate(227.27 33.612)" d="m6.566 381.37a17.173 35.355 0 1 1-34.345 0 17.173 35.355 0 1 1 34.345 0z" fill="none" stroke="#724500" stroke-linejoin="round" stroke-width="7"/>
			<path d="m220.2 323.73c-2.0953 0.01268-3.7858 1.7172-3.7812 3.8125l-0.58929 55.241c-0.01726 2.1056 0.77235 2.6875 3.3348 4.2902 2.5625 1.6027 4.2729 1.8958 4.2902-0.20983l0.58929-59.228c0.02777-1.0334-0.36621-2.0336-1.0913-2.7704s-1.7188-1.1469-2.7525-1.1358z" fill="#dddd89" fill-rule="evenodd" stroke="#000" stroke-width="1.1"/>
		</g>
		<path d="m180.95 544.89c-32.796-42.196-80.108-86.181-105.31-119.55-3.5489-4.7064 11.68-14.82 14.36-12.003 25.051 26.336 66.326 88.942 97.565 126.48 9.158 11.017 15.277 19.139 27.228 32.307 9.1172-0.20305 3.751 5.4862 1.756 7.0776-1.9951 1.5913-9.4763 7.0028-7.8954-1.0014-10.487-12.814-18.314-21.224-27.705-33.306z" fill="#a54f00" fill-rule="evenodd"/>
		<g stroke="#000" stroke-linecap="round" stroke-linejoin="round">
			<path transform="matrix(1.4365 -.43252 .21792 .86847 543.48 170.61)" d="m-207.58 269.5a35.616 39.714 0 1 1-71.232 0 35.616 39.714 0 1 1 71.232 0z" fill-opacity=".14377" stroke-width="6.043"/>
			<path d="m252.81 546.57c-41.954 6.0976-37.44-17.346-79.691-7.8857 26.631-15.951 28.31-41.728 54.031-56.011" fill="none" stroke-width="7"/>
			<path d="m175.33 537.94-50.172 18.24" fill="none" stroke-width="7"/>
		</g>
		<g transform="matrix(.74493 0 0 .7286 16.104 104.16)" fill="none" stroke="#000" stroke-linecap="round">
			<path transform="matrix(1.0972 0 0 1.2171 595.68 -802.56)" d="m-333.6 985.95a47.856 44.699 0 1 1-95.712 0 47.856 44.699 0 1 1 95.712 0z" stroke-linejoin="round" stroke-width="6.0576"/>
			<path d="m226.14 377.58c-29.029 23.166-63.227 15.564-98.237 5.5558" stroke-width="7"/>
			<path d="m229.17 407.63c-34.67 15.328-73.814 13.108-99.5 4.2931" stroke-width="7"/>
			<path d="m160.73 345.26c-0.12815 16.275 5.1824 38.876 9.3439 45.962" stroke-width="7"/>
			<path d="m191.79 345c4.0413 16.735 1.6479 32.499-1.0102 47.225" stroke-width="7"/>
		</g>
		<g transform="translate(57.24 -2.0561)" stroke-linecap="round">
			<path transform="translate(227.27 33.612)" d="m6.566 381.37a17.173 35.355 0 1 1-34.345 0 17.173 35.355 0 1 1 34.345 0z" fill="none" stroke="#724500" stroke-linejoin="round" stroke-width="7"/>
			<path d="m220.2 323.73c-2.0953 0.01268-3.7858 1.7172-3.7812 3.8125l-0.58929 55.241c-0.01726 2.1056 0.77235 2.6875 3.3348 4.2902 2.5625 1.6027 4.2729 1.8958 4.2902-0.20983l0.58929-59.228c0.02777-1.0334-0.36621-2.0336-1.0913-2.7704s-1.7188-1.1469-2.7525-1.1358z" fill="#dddd89" fill-rule="evenodd" stroke="#000" stroke-width="1.1"/>
		</g>
		<rect x="58.158" y="326.23" width="269.4" height="269.4" ry="21.771" fill="none" stroke="#000" stroke-linejoin="round" stroke-width="15"/>
	</g>
</svg>
