<?xml version="1.0" encoding="UTF-8"?>
<svg width="455.15" height="454.79" enable-background="new 0 0 455.148 454.788" overflow="visible" space="preserve" viewBox="0 0 455.15 454.79" xmlns="http://www.w3.org/2000/svg">
	<path d="m169.89 135.84c3.2467-2.6779 10.783-10.624 23.125-24.363 12.298-13.828 28.754-32.749 50.061-57.596 13.944 22.213 24.207 38.237 31.786 48.773 7.4052 10.404 11.519 14.97 12.515 13.697 7.8804-7.902 14.509-14.619 20.225-20.501 5.6297-5.8826 10.001-10.712 13.467-14.663 17.322 24.408 31.7 44.514 44.302 61.504 12.384 16.858 22.217 29.632 29.839 39.027l-47.161-43.9c-3.8975 11.238-10.262 17.033-19.271 17.56-9.2686 0.3073-23.342-12.292-34.688-14.619s-22.649 4.829-32.74 0.96579c-10.307-4.0827-18.274-20.238-27.931-24.408-9.7004-4.1266-19.531-4.1266-29.839 0-11.216 6.1448-22.432 12.335-33.691 18.524z" clip-rule="evenodd" fill="#7f7f7f" fill-rule="evenodd"/>
	<path d="m171.72 140.95c-5.725 2.7-10.584 6.192-14.869 10.62-4.319 4.392-8.459 7.812-10.619 15.696-2.269 7.812-3.024 18-2.557 30.996h-53.496c1.836 6.768 5.041 12.06 9.756 16.164 4.645 4.032 10.404 6.768 18.252 8.064 7.776 1.26 20.088 1.116 28.045-0.864 7.92-2.16 14.147-6.12 19.08-11.88l25.056 22.068c-10.368 10.439-17.82 19.223-22.896 27.18-5.148 7.74-9 11.809-7.236 19.547 1.764 7.74 7.199 14.328 17.855 26.713 10.62 12.385 25.561 27.684 45.396 46.729-25.271 11.447-46.692 20.375-65.376 27.611-18.648 7.129-33.192 13.5-45.864 14.832-12.816 1.115-23.363-6.66-30.132-7.633-6.804-0.863-10.152-0.756-10.188 2.125 0.036 2.844 1.908 12.096 10.188 14.436 8.243 2.125 10.368 7.561 38.844-1.332 28.692-9.145 89.892-37.043 130.82-52.307 40.717-15.266 77.4-27.9 111.85-38.484l-8.533-3.816c-6.119 1.729-17.244 4.932-33.516 9.756-16.416 4.787-37.512 11.16-64.115 19.115-5.977-8.639-11.305-15.119-16.129-19.979-4.932-4.861-9-7.777-12.744-8.893-10.367-11.629-16.883-20.125-19.547-25.92-2.593-5.76 1.655-6.229 3.42-8.496 1.512-2.305 1.08-1.045 5.939-5.508 4.859-4.824 17.496-15.697 22.931-22.068 5.256-6.371 9.145-9.396 8.893-15.301-0.324-5.975-3.852-12.491-10.584-19.943h58.141l3.852 16.128 4.248-14.868 27.143-2.952-25.055-3.816-7.201-15.3-2.986 14.004-66.637-0.432c-12.24-14.688-23.183-27-33.12-37.368-9.972-10.44-18.648-18.504-26.316-24.624z" clip-rule="evenodd" fill="#7f7f7f" fill-rule="evenodd"/>
	<path d="m131.93 100.27c14.885 0 26.965 12.08 26.965 26.964s-12.08 26.964-26.965 26.964c-14.884 0-26.963-12.08-26.963-26.964s12.079-26.964 26.963-26.964" clip-rule="evenodd" fill="#7f7f7f" fill-rule="evenodd"/>
	<path d="m166.79 138.83c-5.724 2.7-10.584 6.192-14.868 10.62-4.32 4.356-8.46 7.884-10.619 15.732-2.269 7.812-3.025 18-2.557 30.996h-53.496c1.836 6.804 5.04 11.988 9.756 16.128 4.645 4.032 10.404 6.768 18.252 8.064 7.776 1.26 20.088 1.116 28.045-0.864 7.92-2.16 14.147-6.12 19.079-11.88l25.056 22.067c-10.367 10.441-17.819 19.225-22.896 27.18-5.147 7.777-9 11.701-7.235 19.549 1.799 7.703 7.092 14.4 17.819 26.748 10.656 12.42 25.524 27.611 45.433 46.691-25.272 11.449-46.692 20.377-65.377 27.613-18.647 7.092-33.191 13.57-45.863 14.867-12.816 1.045-23.364-6.695-30.133-7.668-6.804-0.973-10.151-0.721-10.188 2.123 0.036 2.846 1.908 12.098 10.188 14.438 8.244 2.195 10.369 7.596 38.844-1.297 28.693-9.107 89.893-37.115 130.82-52.344 40.752-15.264 77.328-27.9 111.82-38.484l-8.496-3.816c-6.119 1.729-17.244 4.934-33.516 9.758-16.416 4.787-37.512 11.158-64.115 19.115-5.977-8.641-11.305-15.121-16.129-19.98-4.932-4.859-9-7.775-12.744-8.893-10.439-11.664-16.775-20.016-19.548-25.883-2.735-5.797 1.765-6.191 3.384-8.533 1.477-2.303 1.152-1.043 5.977-5.508 4.859-4.824 17.496-15.695 22.931-22.066 5.256-6.373 9.145-9.396 8.893-15.301-0.324-5.976-3.816-12.492-10.621-19.944h58.176l3.816 16.128 4.248-14.868 27.18-2.952-25.055-3.816-7.201-15.3-2.988 14.004-66.671-0.432c-12.275-14.688-23.111-27-33.084-37.368-9.972-10.44-18.649-18.504-26.317-24.624z" clip-rule="evenodd" fill="#782121" fill-rule="evenodd"/>
	<path d="m127.13 98.108c14.884 0 26.964 12.08 26.964 26.964s-12.08 26.964-26.964 26.964-26.964-12.08-26.964-26.964 12.081-26.964 26.964-26.964" clip-rule="evenodd" fill="#782121" fill-rule="evenodd"/>
	<path d="m166.99 130c3.2467-2.7657 10.783-10.624 23.125-24.408 12.298-13.828 28.754-32.749 50.061-57.596 13.944 22.169 24.207 38.324 31.786 48.817 7.4052 10.448 11.519 14.882 12.515 13.653 7.8828-7.902 14.509-14.619 20.225-20.501 5.6297-5.8826 10.001-10.755 13.467-14.619 17.322 24.408 31.7 44.514 44.302 61.504 12.387 16.858 22.217 29.632 29.839 39.027l-47.161-43.944c-3.8975 11.326-10.262 17.033-19.271 17.604-9.182 0.3512-23.297-12.38-34.646-14.663-11.388-2.3267-22.649 4.829-32.782 0.9658-10.22-4.1266-18.232-20.15-27.889-24.363-9.7438-4.1266-19.486-4.1266-29.881 0-11.216 6.1447-22.432 12.335-33.691 18.524z" clip-rule="evenodd" fill="#17057a" fill-rule="evenodd"/>
	<path d="m216.1 95.851 22.129-28.315 38.541 56.631c-9.2241-0.35119-17.191-2.3706-24.078-5.8826-7.0155-3.6437-11.174-11.897-17.322-15.628-6.2348-3.7315-12.427-6.0582-19.27-6.8045z" clip-rule="evenodd" fill="#3d258e" fill-rule="evenodd"/>
	<path d="m289.29 125.13 27.933-30.247 21.176 30.247c-6.5836 7.2435-12.732 10.931-19.271 11.721-6.4958 0.6146-14.292-5.8826-19.228-7.8142-5.068-2.0633-8.447-3.2047-10.611-3.9071z" clip-rule="evenodd" fill="#3d258e" fill-rule="evenodd"/>
</svg>
