<?xml version="1.0" encoding="UTF-8"?>
<svg width="37.28" height="37.28" baseProfile="full" version="1.1" viewBox="0 0 300 300" xmlns="http://www.w3.org/2000/svg">
	<path d="m138.75 143.61s-29.149 25.044-35.437 29.791c-6.3889 4.8236-9.8496 6.789-15.001 0.8843-5.0746-5.8165-0.76129-8.388 4.0482-13.747 4.7066-5.2446 34.292-31.714 34.292-31.714l12.097 14.786z"/>
	<path d="m145.8 151.22s-81.057 99.822-85.901 106.23c-4.9101 6.4935-2.9469 10.27 1.0303 13.366 3.8863 3.0254 9.3257 2.282 13.461-2.8846 4.0644-5.078 84.309-105.37 84.309-105.37l-12.9-11.336z"/>
	<path transform="matrix(26.974 0 0 21.225 -4619.8 -4799.2)" d="m176.97 238.13a0.61328 0.78711 0 1 1-1.2266 0 0.61328 0.78711 0 1 1 1.2266 0z"/>
	<path d="m162.87 73.811c19.848-3.6043 36.001-5.172 54.531 8.6977l30.979 27.559c8.7956 10.711 8.9699 22.355-4.3 29.318-12.648 6.6363-29.542 13.339-37.95 15.994-8.3302 2.6304-12.147 2.5264-13.258-2.9644-1.1067-5.4669 4.7853-8.8462 10.229-11.238 5.6518-2.4838 11.146-3.9098 22.672-11.206 11.642-7.3695 8.0459-9.5786-0.5212-16.842-8.6317-7.3177-19.233-9.4837-25.637-0.52096-8.9858 12.015-22.598 33.543-25.408 37.038-2.7654 3.4389-5.6317 6.0215-9.8957 3.951-4.2283-2.0533-26.174-19.641-29.226-24.426-2.915-4.5697-3.1728-5.7271 0.55331-10.862 3.6822-5.0741 11.596-14.594 11.596-14.594 9.7105-12.159 14-13.689-3.2576-7.9809-17.14 5.6689-48.35 16.188-72.544 24.596-7.6439 2.1529-11.077 3.8466-13.16-2.5084-2.1345-6.5118 0.00442-7.3615 7.1014-10.359 7.097-2.9974 89.003-32.196 97.497-33.652z"/>
	<path transform="matrix(25.018 0 0 27.128 -4257.8 -6173.3)" d="m179.09 229.39a0.70312 0.64844 0 1 1-1.4062 0 0.70312 0.64844 0 1 1 1.4062 0z"/>
	<rect x="15.301" y="17.663" width="269.4" height="269.4" ry="21.771" fill="none" stroke="#000" stroke-linejoin="round" stroke-width="15"/>
</svg>
