<?xml version="1.0" encoding="UTF-8"?>
<svg width="580px" height="580px" enable-background="new 0 0 580 580" version="1.1" viewBox="0 0 580 580" xmlns="http://www.w3.org/2000/svg">
	<g transform="matrix(48.15 0 0 48.15 -536.27 -33.307)" display="none" fill="none" stroke="#757575" stroke-width=".1">
		<rect x="1" y="1" width="10" height="10" display="inline"/>
		<rect x="2" y="2" width="8" height="8" display="inline"/>
	</g>
	<path d="m509.63 492.69c-9.144-4.145-19.507-6.644-30.296-6.644s-21.151 2.499-30.295 6.644c-8.961 4.023-19.019 6.4-29.442 6.4s-20.542-2.377-29.442-6.4c-9.143-4.145-19.506-6.644-30.355-6.644-10.729 0-21.092 2.499-30.296 6.644-8.899 4.023-18.958 6.4-29.442 6.4-10.362 0-20.481-2.377-29.381-6.4-9.204-4.145-19.506-6.644-30.356-6.644-10.789 0-21.091 2.499-30.295 6.644-8.961 4.023-19.019 6.4-29.442 6.4s-20.481-2.377-29.442-6.4c-9.144-4.145-19.506-6.644-30.295-6.644-10.85 0-21.152 2.499-30.295 6.644-8.96 4.023-18.958 6.4-29.442 6.4v44.194c10.424 0 20.481-2.378 29.442-6.4 9.144-4.268 19.445-6.767 30.295-6.767 10.79 0 21.152 2.499 30.295 6.767 8.96 4.022 19.019 6.4 29.442 6.4 10.424 0 20.481-2.378 29.442-6.4 9.204-4.268 19.506-6.767 30.295-6.767 10.851 0 21.152 2.499 30.356 6.767 8.9 4.022 18.958 6.4 29.381 6.4 10.424 0 20.543-2.378 29.442-6.4 9.204-4.268 19.567-6.767 30.296-6.767 10.85 0 21.213 2.499 30.355 6.767 8.9 4.022 19.019 6.4 29.442 6.4s20.481-2.378 29.442-6.4c9.144-4.268 19.506-6.767 30.295-6.767s21.152 2.499 30.296 6.767c8.96 4.022 19.019 6.4 29.441 6.4v-44.194c-10.362 1e-3 -20.481-2.376-29.441-6.4z" fill="param(fill)" fill-opacity="param(fill-opacity)" stroke="param(outline)" stroke-opacity="param(outline-opacity)" stroke-width="param(outline-width)"/>
	<path d="m203.93 320.74 50.228-22.615c3.718-2.621 6.218-7.01 6.218-11.886 0-7.863-6.461-14.386-14.386-14.386-2.012 0-3.901 0.488-4.633 0.975l-46.205 20.969-67.296 0.123c-16.702 0-30.295 13.593-30.295 30.355 0 2.5 0.305 4.877 0.914 7.254l30.661 69.856c4.755 10.484 15.361 17.738 27.553 17.738h82.84l47.668 45.778c7.681 7.132 19.688 6.645 26.882-0.976 7.132-7.741 6.705-19.75-0.976-26.882l-54.861-52.117c-3.414-2.987-7.253-4.877-12.801-4.877h-56.019l-25.358-56.324h30.234c0 2e-3 6.279-0.364 9.632-2.985z" fill="param(fill)" fill-opacity="param(fill-opacity)" stroke="param(outline)" stroke-opacity="param(outline-opacity)" stroke-width="param(outline-width)"/>
	<path d="m521.57 333.36c-10.484-167.26-192.14-278.21-335.02-297.16l159.64 407.74 175.37-110.58zm-216.21-68.211c-4.633 0-8.473-3.84-8.473-8.473 0-3.23 1.646-6.4 4.511-7.498 17.129-6.461 156.96-35.842 208.78 62.968 0.976 1.95 2.073 3.962 2.073 6.218 0 4.754-3.841 8.595-8.474 8.595-2.377 0-4.938-0.731-6.034-2.499-7.315-12.496-51.936-90.582-188.97-59.799-1.278 0.366-2.009 0.488-3.412 0.488z" fill="param(fill)" fill-opacity="param(fill-opacity)" stroke="param(outline)" stroke-opacity="param(outline-opacity)" stroke-width="param(outline-width)"/>
	<circle cx="112.19" cy="258.86" r="28.953" fill="param(fill)" fill-opacity="param(fill-opacity)" stroke="param(outline)" stroke-opacity="param(outline-opacity)" stroke-width="param(outline-width)"/>
</svg>
