<?xml version="1.0" encoding="UTF-8"?>
<svg width="580px" height="580px" enable-background="new 0 0 580 580" version="1.1" viewBox="0 0 580 580" xmlns="http://www.w3.org/2000/svg">
	<circle cx="201.59" cy="427.93" r="50.546" fill="param(fill)" fill-opacity="param(fill-opacity)" stroke="param(outline)" stroke-opacity="param(outline-opacity)" stroke-width="param(outline-width)"/>
	<path d="m506.39 446.3-90.51-90.509c-3.727-3.728-8.923-5.071-13.722-4.058-22.709-30.555-35.685-62.187-42.022-80.761 17.662-44.908-3.276-95.118-45.019-136.86-53.502-53.501-127.87-64.464-173.24-20.506-49.437 47.896-32.996 119.74 20.506 173.24 41.901 41.9 91.901 63.271 137.09 45.097 18.605 6.366 50.105 19.327 80.532 41.942-1.016 4.799 0.331 9.996 4.058 13.724l90.511 90.51c5.856 5.858 15.354 5.858 21.213 1e-3l10.605-10.606c5.857-5.859 5.857-15.356 0-21.215zm-187.74-126.99c5.107-4.233 10.156-8.812 15.132-13.787s9.55-10.032 13.775-15.158c6.876 16.658 15.582 35.506 26.441 55.374-19.856-10.855-38.696-19.558-55.348-26.429z" fill="param(fill)" fill-opacity="param(fill-opacity)" stroke="param(outline)" stroke-opacity="param(outline-opacity)" stroke-width="param(outline-width)"/>
</svg>
