<?xml version="1.0" encoding="UTF-8"?>
<svg width="580px" height="580px" enable-background="new 0 0 580 580" version="1.1" viewBox="0 0 580 580" xmlns="http://www.w3.org/2000/svg">
	<g transform="matrix(48.15 0 0 48.15 -536.27 -33.307)" display="none" fill="none" stroke="#757575" stroke-width=".1">
		<rect x="1" y="1" width="10" height="10" display="inline"/>
		<rect x="2" y="2" width="8" height="8" display="inline"/>
	</g>
	<circle cx="478.05" cy="87.691" r="45.353" fill="param(fill)" fill-opacity="param(fill-opacity)" stroke="param(outline)" stroke-opacity="param(outline-opacity)" stroke-width="param(outline-width)"/>
	<path d="m475.24 502.4v9.279c0 9.279-8.888 8.365-8.888 8.365h-117.17v17.056h123.71c23.656-3.006 19.67-34.7 19.67-34.7h-17.318z" fill="param(fill)" fill-opacity="param(fill-opacity)" stroke="param(outline)" stroke-opacity="param(outline-opacity)" stroke-width="param(outline-width)"/>
	<path d="m151.95 512.66c-6.6 6.47-12.155-0.327-12.155-0.327l-82.929-82.863-11.959 12.155 87.373 87.438c18.821 14.573 38.491-10.717 38.491-10.717l-12.22-12.286-6.601 6.6z" fill="param(fill)" fill-opacity="param(fill-opacity)" stroke="param(outline)" stroke-opacity="param(outline-opacity)" stroke-width="param(outline-width)"/>
	<path d="m183.91 162 158.34 0.262-66.722 66.396c-9.541 9.737-14.377 20.716-14.377 35.093 0 13.789 5.49 26.075 14.639 35.093l100.96 101.75 0.131 82.145c0 15.423 12.481 27.97 28.035 27.97 14.115 0 27.904-16.337 27.904-27.97v-114.3c0-7.973-3.333-15.161-8.691-20.324l-67.049-66.853 88.941-88.941c16.729-20.847 7.907-45.875 7.907-45.875-9.28-27.774-40.713-28.688-40.713-28.688l-229.31-0.065c-12.22 0-22.153 9.868-22.153 22.154 0 12.284 9.933 22.151 22.153 22.151z" fill="param(fill)" fill-opacity="param(fill-opacity)" stroke="param(outline)" stroke-opacity="param(outline-opacity)" stroke-width="param(outline-width)"/>
	<path d="m255.79 304.59-132.27 132.53c-9.999 8.038-13.266 22.219-7.254 34.048 6.862 13.527 23.526 18.886 37.054 11.959 1.83-0.98 3.529-2.092 5.097-3.398l135.8-135.99-32.609-32.479c-2.092-2.026-4.052-4.248-5.817-6.666z" fill="param(fill)" fill-opacity="param(fill-opacity)" stroke="param(outline)" stroke-opacity="param(outline-opacity)" stroke-width="param(outline-width)"/>
</svg>
