<?xml version="1.0" encoding="UTF-8"?>
<svg width="580px" height="580px" enable-background="new 0 0 580 580" version="1.1" viewBox="0 0 580 580" xmlns="http://www.w3.org/2000/svg">
	<path d="m547.92 115.72-1.137-0.579-239.48-78.33c-3.902-1.646-7.727-2.017-10.374-2.017-3.376 0-6.652 0.593-9.575 1.724l-252.47 75.305-1.121 0.529c-8.058 3.802-13.686 12.68-13.686 21.59v21.123c0 4.849 1.666 9.458 4.692 12.98 3.573 4.159 8.792 6.544 14.321 6.544 2.43 0 4.826-0.447 7.143-1.33l250.64-74.757 237.7 77.746c2.465 1.023 5.027 1.541 7.64 1.541 10.588 0 18.882-8.542 18.882-19.445v-21.124c-1e-3 -8.706-5.417-17.547-13.172-21.5z" fill="param(fill)" fill-opacity="param(fill-opacity)" stroke="param(outline)" stroke-opacity="param(outline-opacity)" stroke-width="param(outline-width)"/>
	<path d="m504.44 417.99c-7.013-1.597-13.404-9.036-25.055-8.625-11.934 0.414-28.789 11.104-45.074 11.104-16.517-0.352-35.066-11.578-51.92-11.578-16.798 0.119-32.068 11.754-48.186 12.108-16.401 0.058-32.746-10.866-48.808-11.102-16.289-0.413-31.728 9.688-46.942 9.567-14.987-0.294-28.278-11.045-43.153-10.574-15.271 0.594-32.011 12.404-46.942 13.113-15.043 0.237-28.675-10.983-41.964-11.104-13.403-0.236-28.448 8.209-37.497 10.1-9.049 1.716-14.761 1.893-16.91 0.532v31.304c2.149 1.357 7.861 1.183 16.91-0.532 9.049-1.891 24.093-10.336 37.497-10.1 13.291 0.119 26.921 11.34 41.964 11.102 14.931-0.589 31.671-12.698 46.942-13.112 14.875-0.59 28.165 10.396 43.153 10.632 15.214 0.12 30.654-9.92 46.942-9.625 16.062 0.234 32.406 11.159 48.808 11.103 16.117-0.354 31.388-11.991 48.186-12.109 16.854-0.056 35.403 11.342 51.92 11.639 16.285 0 33.142-10.693 45.074-11.105 11.65-0.533 18.042 7.028 25.055 8.563 6.899 1.477 12.159 1.713 16.231 0.472v-31.303c-4.071 1.244-9.331 1.006-16.231-0.47z" fill="param(fill)" fill-opacity="param(fill-opacity)" stroke="param(outline)" stroke-opacity="param(outline-opacity)" stroke-width="param(outline-width)"/>
	<path d="m290.37 395.25c13.235 1.297 25.79 14.053 41.626 14.113 15.778-0.294 35.46-15.059 52.71-15.121 17.305 0.063 35.855 13.293 49.769 14.647 13.687 1.007 23.811-1.536 31.445-8.091l-59.213-130.29c16.457-6.144 30.708-11.694 43.661-16.655 12.781-5.198 29.635-6.852 32.917-13.406 2.997-6.734 3.731-26.697-14.367-25.752-18.493 1.122-75.163 24.156-94.107 32.188-18.947 7.736-15.497 8.622-17.985 14.469-2.432 5.67-0.623 8.328 3.677 20.258 4.186 11.99 11.369 28.82 21.547 51.146l-129.4 69.043c11.932-5.67 24.431-7.855 37.719-6.551z" fill="param(fill)" fill-opacity="param(fill-opacity)" stroke="param(outline)" stroke-opacity="param(outline-opacity)" stroke-width="param(outline-width)"/>
	<path d="m485.13 289.06c-19.95 0-36.14 16.906-36.14 37.739 0 20.832 16.19 37.738 36.14 37.738 19.948 0 36.138-16.906 36.138-37.738-1e-3 -20.832-16.189-37.739-36.138-37.739z" fill="param(fill)" fill-opacity="param(fill-opacity)" stroke="param(outline)" stroke-opacity="param(outline-opacity)" stroke-width="param(outline-width)"/>
	<path d="m117.42 391.23c16.966 5.911 32.575 10.277 47.902 13.113 11.99-5.61 23.019-8.445 33.538-8.268 10.463 0.234 20.756 7.735 28.9 9.096 8.031 1.182 14.309 0.354 19.06-2.244-38.629-15.887-71.375-28.584-99.991-38.745-28.788-10.277-56.5-22.681-70.469-21.912-13.914 0.768-18.947 17.659-12.047 26.104 6.9 8.21 36.026 16.599 53.107 22.856z" fill="param(fill)" fill-opacity="param(fill-opacity)" stroke="param(outline)" stroke-opacity="param(outline-opacity)" stroke-width="param(outline-width)"/>
	<path d="m504.44 470.32c-7.013-1.535-13.404-9.099-25.055-8.566-11.934 0.413-28.789 11.103-45.074 11.103-16.517-0.353-35.066-11.574-51.92-11.574-16.798 0.119-32.068 11.754-48.186 12.106-16.401 0.061-32.746-10.865-48.808-11.103-16.289-0.414-31.728 9.687-46.942 9.568-14.987-0.295-28.278-11.045-43.153-10.572-15.271 0.59-32.011 12.401-46.942 13.113-15.043 0.234-28.675-10.988-41.964-11.105-13.403-0.234-28.448 8.209-37.497 10.1-9.049 1.834-14.761 1.772-16.91 0.474v31.303c2.149 1.298 7.861 1.359 16.91-0.474 9.049-1.892 24.093-10.335 37.497-10.101 13.291 0.118 26.921 11.341 41.964 11.105 14.931-0.711 31.671-12.522 46.942-13.112 14.875-0.474 28.165 10.277 43.153 10.572 15.214 0.117 30.654-9.982 46.942-9.568 16.062 0.236 32.406 11.163 48.808 11.103 16.117-0.353 31.388-11.991 48.186-12.106 16.854 0 35.403 11.222 51.92 11.574 16.285 0 33.142-10.689 45.074-11.103 11.65-0.414 18.042 7.026 25.055 8.623 6.899 1.478 12.159 1.714 16.231 0.475v-31.303c-4.071 1.121-9.331 0.945-16.231-0.532z" fill="param(fill)" fill-opacity="param(fill-opacity)" stroke="param(outline)" stroke-opacity="param(outline-opacity)" stroke-width="param(outline-width)"/>
</svg>
