<?xml version="1.0" encoding="UTF-8"?>
<svg width="580px" height="580px" enable-background="new 0 0 580 580" version="1.1" viewBox="0 0 580 580" xmlns="http://www.w3.org/2000/svg">
	<g transform="matrix(48.15 0 0 48.15 -1210.2 -51.871)" display="none" fill="none" stroke="#757575" stroke-width=".1">
		<rect x="1" y="1" width="10" height="10" display="inline"/>
		<rect x="2" y="2" width="8" height="8" display="inline"/>
	</g>
	<g transform="matrix(48.15 0 0 48.15 -1870.5 102.97)" display="none" fill="none" stroke="#757575" stroke-width=".1">
		<rect x="1" y="1" width="10" height="10" display="inline"/>
		<rect x="2" y="2" width="8" height="8" display="inline"/>
	</g>
	<g transform="matrix(48.15 0 0 48.15 -1210.2 -182.07)" display="none" fill="none" stroke="#757575" stroke-width=".1">
		<rect x="1" y="1" width="10" height="10" display="inline"/>
		<rect x="2" y="2" width="8" height="8" display="inline"/>
	</g>
	<g fill="param(fill)" fill-opacity="param(fill-opacity)" stroke="param(outline)" stroke-opacity="param(outline-opacity)" stroke-width="param(outline-width)">
		<path d="m213.03 435.51-41.252-29.594 42.77-44.273c0.991-1.026 1.077-2.626 0.202-3.753l-22.539-29.006c-0.938-1.207-2.656-1.464-3.909-0.591l-90.153 63.057c-0.186 0.131-0.356 0.282-0.506 0.453-8.263 9.361-11.274 17.269-9.205 24.173 3.825 12.767 24.343 18.344 46.066 24.249 13.3 3.615 27.053 7.354 37.19 12.758 0.054 0.028 0.108 0.056 0.164 0.08l41.696 18.918c0.378 0.172 0.783 0.257 1.185 0.257 0.594 0 1.183-0.185 1.681-0.544 0.834-0.603 1.281-1.606 1.171-2.63l-3.381-31.529c-0.087-0.813-0.516-1.55-1.18-2.025z"/>
		<path d="m487.91 511.31c-14.445-41.76-18.994-84.367-23.394-125.57-1.101-10.313-2.239-20.979-3.517-31.479-0.175-1.439-1.396-2.521-2.847-2.521h-46.204c-0.929 0-1.801 0.45-2.338 1.207-0.538 0.758-0.676 1.729-0.37 2.605 0.864 2.479 1.776 5.081 2.726 7.792 16.062 45.841 42.942 122.56 33.346 149.2-0.322 0.896-0.181 1.892 0.38 2.661 0.541 0.742 1.403 1.18 2.318 1.18 0.032 0 0.064-1e-3 0.098-2e-3l37.188-1.262c0.909-0.03 1.751-0.492 2.267-1.242 0.516-0.752 0.644-1.702 0.347-2.562z"/>
	</g>
	<g fill="param(fill)" fill-opacity="param(fill-opacity)" stroke="param(outline)" stroke-opacity="param(outline-opacity)" stroke-width="param(outline-width)">
		<path d="m169.53 78.761 24.628 3.972c0.857 0.606 1.844 1.027 2.903 1.211l54.377 9.436c0.407 0.071 0.816 0.105 1.223 0.105 1.633 0 3.23-0.56 4.516-1.605 1.606-1.307 2.567-3.246 2.634-5.315l0.01-0.214c0.018-0.321 0.031-0.644 0.031-0.966 0-19.302-15.703-35.005-35.005-35.005-13.19 0-24.973 7.274-30.961 18.606l-21.779-1.409c-1.581-0.093-3.085 0.738-3.827 2.146l-1.675 3.184c-0.604 1.148-0.618 2.517-0.039 3.677s1.682 1.971 2.964 2.177z"/>
		<path d="m250.09 99.783-58.791-10.515c-0.876-0.157-1.781 0.053-2.5 0.581-0.718 0.528-1.188 1.328-1.3 2.212-0.143 1.13-0.228 2.311-0.252 3.509-0.374 18.29 14.202 33.474 32.491 33.848 0.229 5e-3 0.461 7e-3 0.689 7e-3h2e-3c15.52 0 28.785-10.573 32.258-25.713 0.199-0.867 0.034-1.778-0.457-2.521s-1.264-1.252-2.14-1.408z"/>
		<path d="m562.88 473.28c-21.375-25.896-36.785-67.108-50.381-103.47-4.485-11.997-8.723-23.33-12.977-33.617-0.365-0.884-0.945-1.661-1.687-2.264-27.172-22.042-43.628-45.41-50.148-71.271 5.003-0.76 9.919-1.144 14.677-1.144 29.086 0 53.874 13.948 73.676 41.456 1.066 1.481 2.774 2.366 4.6 2.385 1.865 0.029 3.551-0.835 4.646-2.296l15.507-20.685c1.582-2.11 1.521-5.027-0.147-7.069-17.524-21.456-40.04-44.346-85.646-44.346-12.328 0-26.109 1.715-41.004 5.1-17.154-16.118-39.132-23.647-68.842-23.647-5.265 0-10.828 0.251-16.641 0.744 15.466-14.33 27.875-35.177 26.055-52.138-0.896-8.34-5.722-19.446-23.634-24.997-0.051-0.016-0.103-0.03-0.155-0.043l-67.675-16.918-0.219-0.055c-2.961-0.741-5.757-1.44-8.747-1.44-5.13 0-10.047 2.04-16.441 6.821-3.574 2.672-17.009 12.087-34.019 24.007-17.619 12.347-38.721 27.135-56.642 39.875-10.862-8.03-21.912-14.834-32.825-21.549-5.214-3.208-10.587-6.514-15.854-9.907l-6.222-25.53c-0.593-2.434-2.697-4.201-5.196-4.365-2.499-0.166-4.816 1.312-5.724 3.646l-10.507 27.043c-33.805 18.79-70.513 64.304-70.887 64.771-5.01 6.249-5.558 15.473-1.43 24.071 4.272 8.901 12.183 14.43 20.643 14.429 1.015 0 2.043-0.081 3.039-0.237 10.569-1.626 20.815-7.388 30.724-12.959 10.335-5.811 20.097-11.299 28.593-11.299 3.555 0 6.726 0.998 9.694 3.051 11.005 7.614 23.829 23.804 33.465 42.25 8.205 15.706 18.115 40.459 19.317 69.964-12.383 16.168-24.464 35.582-36.163 54.378-20.961 33.683-42.637 68.511-67.484 87.815-1.591 1.235-2.417 3.215-2.176 5.215s1.513 3.727 3.351 4.55l33.808 15.134c0.755 0.338 1.553 0.501 2.342 0.501 1.716 0 3.392-0.771 4.506-2.185 21.254-26.954 39.022-52.247 54.699-74.563 19.966-28.423 37.287-53.079 56.015-73.197 43.382-0.967 102.11-9.868 142.84-45.656l10.273 3.325c23.096 25.658 52.366 33.98 83.327 42.783l0.053 0.016c38.603 25.513 66.867 92.249 85.608 136.5l0.274 0.649c0.828 1.953 2.666 3.291 4.779 3.477 2.123 0.189 4.157-0.81 5.313-2.588l18.03-27.745c1.366-2.1 1.21-4.843-0.385-6.776zm-285.63-246-60.897 13.63c-6.476-10.244-13.292-19.029-20.337-26.748 15.165-8.187 32.458-16.736 54.891-25.97 16.342 7.542 29.516 10.161 43.413 11.208l-17.07 27.88z"/>
	</g>
</svg>
