<?xml version="1.0" encoding="UTF-8"?>
<svg width="580px" height="580px" enable-background="new 0 0 580 580" version="1.1" viewBox="0 0 580 580" xmlns="http://www.w3.org/2000/svg">
	<g transform="matrix(48.15 0 0 48.15 -536.27 -33.307)" display="none" fill="none" stroke="#757575" stroke-width=".1">
		<rect x="1" y="1" width="10" height="10" display="inline"/>
		<rect x="2" y="2" width="8" height="8" display="inline"/>
	</g>
	<path d="m392.53 198.44c-8.013-7.81-17.434-11.718-28.25-11.719-10.36 0-19.262 3.328-26.719 10 0.22 7.023 0.475 14.05 0.813 21.063 4.179 15.444 12.086 29.946 18.031 44.906 0.46 1.386 1.003 2.73 1.563 4.094 2.041 0.292 4.145 0.438 6.313 0.438 10.816 0 20.237-3.908 28.25-11.719 8.012-7.81 12-17.311 12-28.531-1e-3 -11.209-3.989-20.722-12.001-28.532z" fill="param(fill)" fill-opacity="param(fill-opacity)" stroke="param(outline)" stroke-opacity="param(outline-opacity)" stroke-width="param(outline-width)"/>
	<path d="m353.53 270.82c-0.01-2e-3 -0.02-4e-3 -0.029-7e-3l-21.002-49.154-2.934-74.797c2.001 0.257 4.025-0.31 5.594-1.599 10.757-8.846 16.927-21.88 16.927-35.76 0-20.997-14.053-38.763-33.243-44.417v-56.552h-24.563v56.112c-19.97 5.129-34.774 23.295-34.774 44.856 0 15.963 8.064 30.594 21.571 39.138 1.187 0.75 2.548 1.136 3.922 1.136 0.748 0 1.499-0.114 2.227-0.346 0.085-0.027 0.165-0.064 0.248-0.094l3.087 77.917c0.105 2.561 0.678 5.082 1.688 7.438l22.959 53.749c-1.026 2.132-1.836 4.4-2.396 6.782l-33.281 132.62c-8e-3 0.03-0.015 0.062-0.023 0.092l-102.7 84.377c-11.775 9.233-13.836 26.264-4.603 38.039 9.233 11.774 26.264 13.836 38.039 4.603 0.33-0.258 0.653-0.524 0.971-0.798l102.9-84.543c13.472-1.094 25.445-10.434 29.236-24.221 0.133-0.482 0.255-0.968 0.365-1.455l33.281-132.62c4.702-17.664-5.806-35.794-23.469-40.496zm-70.558-139.43c-5.598-5.815-8.792-13.589-8.792-21.891 0-17.442 14.176-31.632 31.601-31.632 17.442 0 31.632 14.19 31.632 31.632 0 6.881-2.224 13.46-6.259 18.863-6.398-6.315-15.299-9.928-24.368-9.446-9.285 0.203-17.945 4.883-23.814 12.474z" fill="param(fill)" fill-opacity="param(fill-opacity)" stroke="param(outline)" stroke-opacity="param(outline-opacity)" stroke-width="param(outline-width)"/>
</svg>
