<?xml version="1.0" encoding="UTF-8"?>
<svg width="580px" height="580px" enable-background="new 0 0 580 580" version="1.1" viewBox="0 0 580 580" xmlns="http://www.w3.org/2000/svg">
	<circle cx="143.87" cy="454.94" r="33.689" fill="param(fill)" fill-opacity="param(fill-opacity)" stroke="param(outline)" stroke-opacity="param(outline-opacity)" stroke-width="param(outline-width)"/>
	<circle cx="216.25" cy="454.94" r="33.689" fill="param(fill)" fill-opacity="param(fill-opacity)" stroke="param(outline)" stroke-opacity="param(outline-opacity)" stroke-width="param(outline-width)"/>
	<circle cx="288.63" cy="454.94" r="33.689" fill="param(fill)" fill-opacity="param(fill-opacity)" stroke="param(outline)" stroke-opacity="param(outline-opacity)" stroke-width="param(outline-width)"/>
	<circle cx="361.01" cy="454.94" r="33.689" fill="param(fill)" fill-opacity="param(fill-opacity)" stroke="param(outline)" stroke-opacity="param(outline-opacity)" stroke-width="param(outline-width)"/>
	<circle cx="433.39" cy="454.94" r="33.689" fill="param(fill)" fill-opacity="param(fill-opacity)" stroke="param(outline)" stroke-opacity="param(outline-opacity)" stroke-width="param(outline-width)"/>
	<circle cx="179" cy="391.1" r="33.689" fill="param(fill)" fill-opacity="param(fill-opacity)" stroke="param(outline)" stroke-opacity="param(outline-opacity)" stroke-width="param(outline-width)"/>
	<circle cx="251.38" cy="391.1" r="33.689" fill="param(fill)" fill-opacity="param(fill-opacity)" stroke="param(outline)" stroke-opacity="param(outline-opacity)" stroke-width="param(outline-width)"/>
	<circle cx="323.76" cy="391.1" r="33.689" fill="param(fill)" fill-opacity="param(fill-opacity)" stroke="param(outline)" stroke-opacity="param(outline-opacity)" stroke-width="param(outline-width)"/>
	<circle cx="396.14" cy="391.1" r="33.689" fill="param(fill)" fill-opacity="param(fill-opacity)" stroke="param(outline)" stroke-opacity="param(outline-opacity)" stroke-width="param(outline-width)"/>
	<circle cx="215.62" cy="328.19" r="33.689" fill="param(fill)" fill-opacity="param(fill-opacity)" stroke="param(outline)" stroke-opacity="param(outline-opacity)" stroke-width="param(outline-width)"/>
	<circle cx="288" cy="328.19" r="33.689" fill="param(fill)" fill-opacity="param(fill-opacity)" stroke="param(outline)" stroke-opacity="param(outline-opacity)" stroke-width="param(outline-width)"/>
	<circle cx="360.38" cy="328.19" r="33.689" fill="param(fill)" fill-opacity="param(fill-opacity)" stroke="param(outline)" stroke-opacity="param(outline-opacity)" stroke-width="param(outline-width)"/>
	<circle cx="251.34" cy="265.88" r="33.689" fill="param(fill)" fill-opacity="param(fill-opacity)" stroke="param(outline)" stroke-opacity="param(outline-opacity)" stroke-width="param(outline-width)"/>
	<circle cx="323.72" cy="265.88" r="33.689" fill="param(fill)" fill-opacity="param(fill-opacity)" stroke="param(outline)" stroke-opacity="param(outline-opacity)" stroke-width="param(outline-width)"/>
	<circle cx="288" cy="204.65" r="33.689" fill="param(fill)" fill-opacity="param(fill-opacity)" stroke="param(outline)" stroke-opacity="param(outline-opacity)" stroke-width="param(outline-width)"/>
	<path d="m485.37 430.94c-6.329-10.965-11.255-19.225-18.118-30.608l-55.035-95.801-69.229-121.45c-6.169-10.799-13.846-24.239-27.15-31.921-8.45-4.878-18.052-7.458-27.767-7.458-19.85 0-38.336 10.662-48.245 27.825-3.533 6.119-6.062 11.239-8.508 16.191-2.249 4.552-4.372 8.852-7.189 13.772-0.029 0.05-0.057 0.101-0.084 0.152l-56.805 104.49-68.755 111.3c-0.889 1.478-1.806 2.947-2.725 4.42-5.811 9.316-12.397 19.876-12.397 33.41 0 30.762 26.984 57.745 57.746 57.745 5.994 0 11.014 0.195 15.869 0.384 5.798 0.225 11.265 0.438 17.966 0.331l143.86-0.25 105.99 1.396 1.561 3e-3c12.609 0 25.98-0.612 38.648-7.925 26.572-15.342 35.708-49.441 20.367-76.012zm-28.246 62.364c-9.3 5.368-19.861 5.813-30.769 5.813l-1.432-2e-3 -105.97-1.396c-0.035-1e-3 -0.07-1e-3 -0.105-1e-3h-0.012l-143.97 0.25c-0.038 0-0.075 0-0.113 1e-3 -6.317 0.103-11.552-0.102-17.162-0.32-5.005-0.194-10.182-0.396-16.481-0.396-21.974 0-41.986-20.012-41.986-41.985 0-9.022 4.862-16.817 10.01-25.069 0.964-1.546 1.926-3.089 2.81-4.559l68.818-111.41c0.076-0.124 0.149-0.25 0.219-0.378l56.868-104.61c3.035-5.308 5.355-10.004 7.599-14.547 2.335-4.727 4.75-9.615 8.027-15.292 7.103-12.302 20.359-19.945 34.597-19.945 6.953 0 13.829 1.849 19.886 5.346 9.614 5.551 15.578 15.992 21.343 26.083l69.239 121.46 55.089 95.895c0.028 0.049 0.056 0.097 0.085 0.144 6.835 11.338 11.729 19.544 18.01 30.424 10.996 19.044 4.447 43.486-14.598 54.483z" fill="param(fill)" fill-opacity="param(fill-opacity)" stroke="param(outline)" stroke-opacity="param(outline-opacity)" stroke-width="param(outline-width)"/>
	<circle cx="286" cy="90.27" r="33.689" fill="param(fill)" fill-opacity="param(fill-opacity)" stroke="param(outline)" stroke-opacity="param(outline-opacity)" stroke-width="param(outline-width)"/>
</svg>
