<?xml version="1.0" encoding="UTF-8"?>
<svg width="580px" height="580px" enable-background="new 0 0 580 580" version="1.1" viewBox="0 0 580 580" xmlns="http://www.w3.org/2000/svg">
	<g transform="matrix(48.15 0 0 48.15 -536.27 -33.307)" display="none" fill="none" stroke="#757575" stroke-width=".1">
		<rect x="1" y="1" width="10" height="10" display="inline"/>
		<rect x="2" y="2" width="8" height="8" display="inline"/>
	</g>
	<path d="m86.092 310.9c-7.446 0-13.714 2.352-18.806 7.054-5.091 4.703-7.637 10.771-7.637 18.205 0 7.052 2.545 13.024 7.637 17.918 5.091 4.895 11.163 7.341 18.214 7.341h106.33c4.314 0 8.228-0.388 11.742-1.165 9.011-1.565 15.279-4.308 18.805-8.229l52.275-58.155 61.096 58.747-24.668 109.84c-0.789 2.354-1.184 4.314-1.183 5.88-1e-3 7.052 2.545 13.123 7.637 18.214 5.091 5.092 11.162 7.638 18.214 7.638 13.313 0 21.542-6.854 24.686-20.563l29.956-133.34c3.525-14.103 1.959-24.481-4.697-31.14l-53.458-53.458 58.155-67.549 37.593 37.593c3.92 3.908 8.425 5.862 13.517 5.862 6.657 0 13.116-2.934 19.38-8.802l61.095-61.095c3.131-3.92 4.696-8.229 4.697-12.926-1e-3 -5.868-2.057-10.762-6.167-14.682-4.111-3.919-8.91-5.88-14.395-5.88-5.486 0-9.795 1.566-12.925 4.697l-50.519 50.536-61.096-61.095c-4.697-4.708-10.571-7.063-17.622-7.063h-95.749c-5.88 0-10.972 2.354-15.274 7.063l-65.792 75.778c-4.697 3.908-7.046 8.802-7.045 14.682 0 5.486 1.957 10.186 5.871 14.1 3.914 3.915 8.614 5.871 14.1 5.871 5.868 0 10.959-2.348 15.274-7.045l61.095-71.081 35.245 0.591-134.52 156.25-91.052-0.592z" fill="param(fill)" fill-opacity="param(fill-opacity)" stroke="param(outline)" stroke-opacity="param(outline-opacity)" stroke-width="param(outline-width)"/>
	<path d="m412.11 125.86c10.576 0 19.782-3.818 27.616-11.456 7.834-7.636 11.751-16.935 11.752-27.895-1e-3 -10.971-3.918-20.275-11.752-27.912s-17.04-11.455-27.616-11.456c-10.96 0-20.258 3.819-27.895 11.456-7.638 7.637-11.456 16.941-11.455 27.912-1e-3 10.96 3.817 20.258 11.455 27.895 7.637 7.638 16.935 11.456 27.895 11.456z" fill="param(fill)" fill-opacity="param(fill-opacity)" stroke="param(outline)" stroke-opacity="param(outline-opacity)" stroke-width="param(outline-width)"/>
	<polygon points="392.14 490.65 544.29 185.2 529.02 178.72 375.11 490.65" fill="param(fill)" fill-opacity="param(fill-opacity)" stroke="param(outline)" stroke-opacity="param(outline-opacity)" stroke-width="param(outline-width)"/>
	<path d="m529.02 490.06c-1e-3 6.657-2.35 12.238-7.046 16.744-4.697 4.506-10.38 6.759-17.048 6.759h-391.22v16.457h391.22c10.971 0 20.373-3.917 28.208-11.751 7.833-7.835 11.75-17.237 11.751-28.209h-15.865z" fill="param(fill)" fill-opacity="param(fill-opacity)" stroke="param(outline)" stroke-opacity="param(outline-opacity)" stroke-width="param(outline-width)"/>
	<path d="m169.51 484.2c7.051 0 14.491-2.743 22.319-8.229l-11.742-12.334c-3.526 2.342-6.854 3.514-9.985 3.514-3.132 0-5.486-0.783-7.063-2.349l-0.574-0.573-130.42-131.01v22.911l121.6 122.19c4.314 3.921 9.603 5.881 15.865 5.881z" fill="param(fill)" fill-opacity="param(fill-opacity)" stroke="param(outline)" stroke-opacity="param(outline-opacity)" stroke-width="param(outline-width)"/>
	<rect x="33.225" y="216.91" width="133.34" height="15.866" fill="param(fill)" fill-opacity="param(fill-opacity)" stroke="param(outline)" stroke-opacity="param(outline-opacity)" stroke-width="param(outline-width)"/>
</svg>
