<?xml version="1.0" encoding="UTF-8"?>
<svg width="580px" height="580px" enable-background="new 0 0 580 580" version="1.1" viewBox="0 0 580 580" xmlns="http://www.w3.org/2000/svg">
	<g transform="matrix(48.15 0 0 48.15 -536.27 -33.307)" display="none" fill="none" stroke="#757575" stroke-width=".1">
		<rect x="1" y="1" width="10" height="10" display="inline"/>
		<rect x="2" y="2" width="8" height="8" display="inline"/>
	</g>
	<path d="m322.79 184.32c9.735 0 18.117-3.543 25.146-10.632 7.029-7.088 10.544-15.797 10.544-26.129 0-10.342-3.515-19.058-10.544-26.146-7.029-7.087-15.411-10.632-25.146-10.632-9.724 0-18.013 3.544-24.865 10.632-6.854 7.088-10.28 15.804-10.28 26.146 0 10.332 3.426 19.041 10.28 26.129 6.852 7.089 15.141 10.633 24.865 10.632z" fill="param(fill)" fill-opacity="param(fill-opacity)" stroke="param(outline)" stroke-opacity="param(outline-opacity)" stroke-width="param(outline-width)"/>
	<path d="m420.15 339.27c-0.401-5.088-2.24-9.771-5.12-13.637l-41.609-110.55c-6.527-17.34-25.872-26.109-43.216-19.581-10.646 4.007-18.053 12.849-20.68 23.09l-18.042 7.935-26.822-40.906c-5.551-8.466-16.035-11.719-25.174-8.503l-4.771-9.814 6.786-9.547c0.477-0.67 0.53-1.554 0.139-2.277l-67.446-124.5c-0.279-0.515-0.756-0.895-1.32-1.051-0.565-0.157-1.168-0.077-1.673 0.221l-28.272 16.692c-0.978 0.578-1.34 1.815-0.829 2.829l63.915 126.58c0.4 0.792 1.24 1.255 2.13 1.175l11.016-1.05 7.404 13.191c-2.462 6.287-1.959 13.625 2.024 19.701l36.831 56.171c4.094 6.244 10.959 9.743 18.045 9.743 2.913 0 5.863-0.592 8.673-1.827l27.046-11.895 38.022 101.02c2.186 5.806 5.812 10.644 10.314 14.274v146.46c0 14.558 11.802 26.359 26.359 26.359s26.359-11.802 26.359-26.359v-161.4c2.495-7.058 2.648-14.982-0.089-22.55z" fill="param(fill)" fill-opacity="param(fill-opacity)" stroke="param(outline)" stroke-opacity="param(outline-opacity)" stroke-width="param(outline-width)"/>
	<path d="m254.55 358.58c0-5.522-4.477-10-10-10h-24.667c-5.523 0-10 4.478-10 10s4.477 10 10 10h24.667c5.523 0 10-4.477 10-10z" fill="param(fill)" fill-opacity="param(fill-opacity)" stroke="param(outline)" stroke-opacity="param(outline-opacity)" stroke-width="param(outline-width)"/>
	<path d="m217.89 372.58h-0.01c-5.519 0-9.995 4.471-10 9.99l-0.159 165.66c-5e-3 5.523 4.468 10.005 9.99 10.01h0.01c5.519 0 9.995-4.471 10-9.99l0.159-165.66c5e-3 -5.524-4.468-10.005-9.99-10.01z" fill="param(fill)" fill-opacity="param(fill-opacity)" stroke="param(outline)" stroke-opacity="param(outline-opacity)" stroke-width="param(outline-width)"/>
	<path d="m257.89 372.58h-0.01c-5.519 0-9.995 4.471-10 9.99l-0.159 165.66c-5e-3 5.523 4.468 10.005 9.99 10.01h0.01c5.519 0 9.995-4.471 10-9.99l0.159-165.66c5e-3 -5.524-4.468-10.005-9.99-10.01z" fill="param(fill)" fill-opacity="param(fill-opacity)" stroke="param(outline)" stroke-opacity="param(outline-opacity)" stroke-width="param(outline-width)"/>
	<path d="m297.89 372.58h-0.01c-5.519 0-9.995 4.471-10 9.99l-0.159 165.66c-5e-3 5.523 4.468 10.005 9.99 10.01h0.01c5.519 0 9.995-4.471 10-9.99l0.159-165.66c5e-3 -5.524-4.468-10.005-9.99-10.01z" fill="param(fill)" fill-opacity="param(fill-opacity)" stroke="param(outline)" stroke-opacity="param(outline-opacity)" stroke-width="param(outline-width)"/>
	<path d="m306.55 358.58c0-5.522-4.478-10-10-10h-24.667c-5.523 0-10 4.478-10 10s4.477 10 10 10h24.667c5.522 0 10-4.477 10-10z" fill="param(fill)" fill-opacity="param(fill-opacity)" stroke="param(outline)" stroke-opacity="param(outline-opacity)" stroke-width="param(outline-width)"/>
</svg>
