<?xml version="1.0" encoding="UTF-8"?>
<svg width="580px" height="580px" enable-background="new 0 0 580 580" version="1.1" viewBox="0 0 580 580" xmlns="http://www.w3.org/2000/svg">
	<g transform="matrix(48.15 0 0 48.15 -536.27 -33.307)" display="none" fill="none" stroke="#757575" stroke-width=".1">
		<rect x="1" y="1" width="10" height="10" display="inline"/>
		<rect x="2" y="2" width="8" height="8" display="inline"/>
	</g>
	<path d="m261.02 134.16c12.023 0 22.288-4.249 30.794-12.748 8.505-8.499 12.758-18.969 12.758-31.411 0-12.036-4.253-22.304-12.758-30.803-8.506-8.499-18.771-12.748-30.794-12.749-12.024 0-22.393 4.25-31.107 12.749s-13.071 18.767-13.071 30.803c0 12.442 4.356 22.912 13.071 31.411 8.714 8.499 19.084 12.749 31.107 12.748z" fill="param(fill)" fill-opacity="param(fill-opacity)" stroke="param(outline)" stroke-opacity="param(outline-opacity)" stroke-width="param(outline-width)"/>
	<path d="m290.26 161.54c-0.418-10.783-6.847-16.175-19.289-16.175h-108.86c-0.418 0-2.905 0.83-7.461 2.487-7.885 2.898-11.828 8.082-11.828 15.549 0 10.784 6.43 16.175 19.289 16.175h108.86c13.695 0 20.125-6.012 19.289-18.036z" fill="param(fill)" fill-opacity="param(fill-opacity)" stroke="param(outline)" stroke-opacity="param(outline-opacity)" stroke-width="param(outline-width)"/>
	<path d="m429.61 30.9c-1e-3 0-2.487-2.904-7.461-8.714l-125.66 125.04c0.405 0.418 0.816 0.835 1.234 1.253 1.657 3.316 2.904 7.05 3.74 11.201 0.417 4.139-0.621 8.904-3.114 14.295 0 0.836-0.418 1.874-1.253 3.114-5.797 8.708-14.504 13.062-26.123 13.062h-59.727v160.5l-34.211 170.47c-1.241 6.632 6e-3 12.748 3.74 18.349 3.733 5.601 8.917 9.021 15.549 10.262 6.632 1.24 12.748-3e-3 18.349-3.73 5.6-3.728 9.229-8.913 10.888-15.559l34.837-176.67h16.175l34.837 176.67c1.24 6.646 4.661 11.831 10.262 15.559s11.926 4.971 18.976 3.73c6.227-1.24 11.309-4.661 15.245-10.262s5.075-11.717 3.417-18.349l-34.211-171.7v-143.72l97.052 96.424 8.087-8.694c32.351-35.667 48.525-79.42 48.526-131.26 0-51.436-16.384-95.19-49.152-131.26zm-113.83 114.46 98.912-99.538c24.465 28.617 38.355 61.796 41.672 99.538h-140.58zm98.913 132.52c-20.745-20.744-50.399-50.398-88.964-88.964v-9.341h130.64c-3.734 36.92-17.625 69.688-41.671 98.305z" fill="param(fill)" fill-opacity="param(fill-opacity)" stroke="param(outline)" stroke-opacity="param(outline-opacity)" stroke-width="param(outline-width)"/>
</svg>
