<?xml version="1.0" encoding="UTF-8"?>
<svg width="580px" height="580px" enable-background="new 0 0 580 580" version="1.1" viewBox="0 0 580 580" xmlns="http://www.w3.org/2000/svg">
	<g transform="matrix(48.15 0 0 48.15 -1210.2 -51.871)" display="none" fill="none" stroke="#757575" stroke-width=".1">
		<rect x="1" y="1" width="10" height="10" display="inline"/>
		<rect x="2" y="2" width="8" height="8" display="inline"/>
	</g>
	<g transform="matrix(48.15 0 0 48.15 -1870.5 102.97)" display="none" fill="none" stroke="#757575" stroke-width=".1">
		<rect x="1" y="1" width="10" height="10" display="inline"/>
		<rect x="2" y="2" width="8" height="8" display="inline"/>
	</g>
	<g transform="matrix(48.15 0 0 48.15 -1210.2 -182.07)" display="none" fill="none" stroke="#757575" stroke-width=".1">
		<rect x="1" y="1" width="10" height="10" display="inline"/>
		<rect x="2" y="2" width="8" height="8" display="inline"/>
	</g>
	<path d="m472.51 70.177c-1.474-0.911-3.312-0.994-4.864-0.22-0.373 0.186-37.683 18.634-68.936 18.634-16.228 0-32.842-6.514-48.909-12.814-15.506-6.08-30.152-11.822-44.16-11.822-14.159 0-32.149 5.89-51.195 12.126-18.784 6.15-38.208 12.51-52.824 12.51-23.788 0-55.67-16.913-65.535-22.49-0.248-2.53-2.356-4.515-4.951-4.515h-14.637c-2.761 0-5 2.239-5 5v463.3c0 2.762 2.239 5 5 5h14.636c2.761 0 5-2.238 5-5v-199.6c6.171 5.52 14.299 10.031 20.232 12.918 15.857 7.717 33.621 12.703 45.254 12.703 16.212 0 36.406-6.612 55.936-13.006 18.267-5.98 35.52-11.63 48.083-11.63 12.118 0 25.909 5.407 40.51 11.132 16.933 6.639 34.441 13.504 52.56 13.504 33.643 0 71.799-18.884 73.407-19.688 1.693-0.848 2.764-2.579 2.764-4.473v-257.31c0-1.732-0.897-3.341-2.371-4.252zm-73.8 275.72c-4.843 0-9.721-0.59-14.608-1.571v-77.602c0-1.177-0.821-2.195-1.972-2.443-11.2-2.423-22.394-6.796-33.218-11.026-15.287-5.973-29.726-11.614-43.271-11.614-1.762 0-3.604 0.143-5.011 0.267-1.29 0.114-2.28 1.195-2.28 2.49v77.33c-12.821 1.493-27.989 6.448-43.904 11.659-14.233 4.66-28.83 9.435-41.428 11.478v-76.772c0-0.718-0.309-1.401-0.848-1.876s-1.254-0.693-1.968-0.604c-3.606 0.459-6.252 0.665-8.581 0.665-23.035 0-53.207-15.316-64.922-21.785l-0.564-79.459v-13.339c6.045 5.975 15.06 10.986 21.41 14.079 15.514 7.554 32.815 12.435 44.076 12.435 3.265 0 6.639-0.376 9.212-0.705 1.249-0.159 2.184-1.222 2.184-2.48v-77.361c13.797-2.027 29.365-7.112 44.54-12.081 14.949-4.895 29.216-9.563 40.792-11.098v76.845c0 0.701 0.295 1.37 0.812 1.844 0.518 0.474 1.212 0.706 1.908 0.646 1.306-0.115 3.005-0.247 4.571-0.247 12.604 0 26.616 5.475 41.452 11.271 11.007 4.301 22.39 8.748 33.98 11.255 0.175 0.038 0.353 0.057 0.528 0.057 0.565 0 1.121-0.192 1.569-0.554 0.589-0.475 0.931-1.19 0.931-1.946v-76.454c4.825 0.869 9.693 1.387 14.608 1.387 25.349 0 53.262-10.723 66.171-16.353v79.354c-9.267 4.303-39.096 17.093-66.171 17.093-3.601 0-7.385-0.307-11.247-0.911-0.72-0.114-1.456 0.095-2.012 0.57s-0.875 1.169-0.875 1.899v82.121c0 1.231 0.896 2.28 2.113 2.47 4.115 0.644 8.159 0.971 12.021 0.971 26.254 0 54.782-11.489 66.171-16.599v79.368c-9.227 4.241-39.847 17.326-66.169 17.326z" fill="param(fill)" fill-opacity="param(fill-opacity)" stroke="param(outline)" stroke-opacity="param(outline-opacity)" stroke-width="param(outline-width)"/>
	<path d="m295.68 154.93c-12.02 1.838-25.846 6.352-40.484 11.131-13.71 4.476-27.888 9.104-40.322 11.29-1.196 0.21-2.067 1.249-2.067 2.462v82.121c0 0.739 0.327 1.439 0.893 1.915 0.454 0.381 1.024 0.585 1.607 0.585 0.144 0 0.289-0.012 0.433-0.038 12.784-2.247 27.133-6.932 41.009-11.462 14.437-4.713 28.073-9.165 39.688-10.941 1.221-0.187 2.122-1.236 2.122-2.471v-82.121c0-0.729-0.318-1.422-0.871-1.896-0.555-0.476-1.287-0.686-2.008-0.575z" fill="param(fill)" fill-opacity="param(fill-opacity)" stroke="param(outline)" stroke-opacity="param(outline-opacity)" stroke-width="param(outline-width)"/>
</svg>
