<?xml version="1.0" encoding="UTF-8"?>
<svg width="580px" height="580px" enable-background="new 0 0 580 580" version="1.1" viewBox="0 0 580 580" xmlns="http://www.w3.org/2000/svg">
	<g transform="matrix(48.15 0 0 48.15 -536.27 -33.307)" display="none" fill="none" stroke="#757575" stroke-width=".1">
		<rect x="1" y="1" width="10" height="10" display="inline"/>
		<rect x="2" y="2" width="8" height="8" display="inline"/>
	</g>
	<path d="m422.1 511.22-58.155-176.22v-141c-1.172-11.748-7.435-17.622-18.788-17.622h-74.612c-1.96-0.382-5.289 1.184-9.985 4.697l-43.473 25.259-45.822-45.23c-4.697-5.091-10.177-7.637-16.439-7.637-13.314 0-19.971 6.854-19.971 20.562 0 5.092 1.763 9.794 5.289 14.109l58.155 58.155c4.696 4.697 9.788 7.045 15.274 7.045 3.513 0 7.625-1.369 12.333-4.105l38.185-21.154v103.98l-58.155 178.57c-1.183 2.749-1.775 5.492-1.775 8.229 0 7.828 2.937 14.584 8.812 20.267 5.874 5.683 12.731 8.524 20.571 8.524 14.09 0 23.681-7.249 28.772-21.745l51.11-154.5 51.701 155.09c5.091 14.485 14.683 21.728 28.773 21.728 7.84 0 14.696-2.838 20.571-8.515 5.874-5.677 8.811-12.43 8.811-20.258 0-2.75-0.394-5.492-1.182-8.229z" fill="param(fill)" fill-opacity="param(fill-opacity)" stroke="param(outline)" stroke-opacity="param(outline-opacity)" stroke-width="param(outline-width)"/>
	<path d="m254.68 92.369 49.944-46.395c1.948-2.354 2.922-5.097 2.923-8.229-1e-3 -8.222-4.112-12.333-12.334-12.334-3.525 0-6.46 0.98-8.802 2.94l-47.579 47.579-67.567 72.837 8.229 8.229 75.186-64.627z" fill="param(fill)" fill-opacity="param(fill-opacity)" stroke="param(outline)" stroke-opacity="param(outline-opacity)" stroke-width="param(outline-width)"/>
	<path d="m275.83 128.21c0 10.972 3.818 20.276 11.456 27.912 7.637 7.637 16.935 11.456 27.895 11.456 10.576 0 19.782-3.818 27.616-11.456 7.834-7.636 11.751-16.94 11.752-27.912-1e-3 -10.959-3.918-20.257-11.752-27.895-7.834-7.637-17.04-11.455-27.616-11.456-10.96 0-20.258 3.819-27.895 11.456-7.638 7.637-11.456 16.936-11.456 27.895z" fill="param(fill)" fill-opacity="param(fill-opacity)" stroke="param(outline)" stroke-opacity="param(outline-opacity)" stroke-width="param(outline-width)"/>
	<path d="m126.62 188.14c-2.354-2.354-4.9-2.354-7.637 0l-0.591 0.573c-2.343 2.355-2.343 4.9 0 7.637l11.168 11.76c2.342 2.343 4.888 2.343 7.637 0l0.574-0.592c2.354-2.736 2.354-5.282 0-7.637l-11.151-11.741z" fill="param(fill)" fill-opacity="param(fill-opacity)" stroke="param(outline)" stroke-opacity="param(outline-opacity)" stroke-width="param(outline-width)"/>
</svg>
