<?xml version="1.0" encoding="UTF-8"?>
<svg width="37.28" height="37.28" baseProfile="full" version="1.1" viewBox="0 0 300 300" xmlns="http://www.w3.org/2000/svg">
	<path d="m210.54 180.46c10.646-0.03755 18.056-20.287 40.297-20.008 22.746 0.27875 25.591 16.965 39.926 17.272-0.07632 9.659-0.00404 7.4919 0.07076 16.156-20.646-0.47809-22.825-21.063-39.758-20.541-16.754 0.5216-20.098 21.23-39.794 20.845-19.875-0.3852-22.102-20.983-42.607-21.078-20.684-0.09497-25.698 19.983-43.611 20.259-4.6689-0.12172-8.9484-1.8179-12.978-4.1557-9.7757-5.6721-18.079-15.122-26.899-15.028-12.456 0.13193-24.091 16.277-39.522 16.447-15.05 0.16458-21.401-12.717-29.421-12.705 0.08785-8.9284-0.09677-7.4108-0.1482-15.801 13.924 0.29583 20.661 13.402 28.615 13.589 8.0426 0.1873 26.877-16.373 36.742-16.264 9.8638 0.10906 15.373 0.60871 24.351 7.3948 16.595-7.7268 49.245-24.841 49.868-25.985 4.9099-9.0064 0.42539-30.955-14.74-34.871-14.998-3.8725-42.615 5.2137-61.998 8.4454-19.307 3.2191-22.546-11.653-5.0941-18.818 17.7-7.2664 43.648-13.535 63.868-17.368 20.099-3.8097 23.13 2.3451 26.071 8.3919 2.9909 6.1492 39.502 89.558 39.502 89.558 3.3511 3.2517 4.2812 4.2752 7.2588 4.265z"/>
	<path transform="matrix(1.0409 0 0 .82877 -145.29 -80.924)" d="m371.07 260.4a18.571 22.679 0 1 1-37.143 0 18.571 22.679 0 1 1 37.143 0z" stroke="#000" stroke-width="21"/>
	<rect x="16.816" y="17.105" width="269.4" height="269.4" ry="21.771" fill="none" stroke="#000" stroke-linejoin="round" stroke-width="15"/>
</svg>
