<?xml version="1.0" encoding="UTF-8"?>
<svg width="38" height="38" version="1.0" viewBox="0 0 300 300" xmlns="http://www.w3.org/2000/svg">
	<rect x="15.29" y="20.639" width="269.52" height="258.25" ry="20.87" fill="none" stroke="#000" stroke-linejoin="round" stroke-width="14.69"/>
	<g transform="matrix(.41091 0 0 .41091 49.011 57.085)">
		<path d="m94.376 101.33c-2.1502 3.2253-16.425 37.33-15.768 39.42 0.657 2.0905-2.4415 5.8584 3.6875 10.507 6.2918 4.7719 116.32 41.723 123.17 41.814 6.5966 0.09107 19.71-2.3294 31.178-7.1673 11.468-4.8379 25.444-11.109 37.628-21.86 12.184-10.751 25.504-27.295 35.478-42.645 9.9745-15.35 20.188-35.896 24.369-49.454s4.1809-22.696 0.71672-31.894c-3.4642-9.198-12.901-17.56-21.502-23.294-8.6007-5.7338-15.41-9.855-30.103-11.109-14.693-1.2543-39.958 0.059728-58.055 3.5836s-35.239 9.0188-50.529 17.56c-15.29 8.541-27.714 20.845-41.212 33.686-13.498 12.841-26.519 28.908-39.778 43.362" fill="#f00" fill-rule="evenodd"/>
		<path d="m185.14 212.04c5.237 10.474 9.2914 22.13 15.711 31.422 6.4195 9.2914 11.868 16.049 22.806 24.327 10.939 8.2778 37.034 28.027 42.825 25.34 5.4806-2.5429 158.51-62.336 164.46-64.364 5.7722-1.9689 8.1933-20.526 9.1225-29.901s-0.29564-17.485-3.5476-26.354c-3.252-8.8691-9.5448-17.949-15.964-26.861-6.4195-8.9113-14.106-18.16-22.553-26.607-8.4467-8.4467-19.132-17.78-28.128-24.073-8.9958-6.2928-20.568-12.839-25.847-13.684-5.2792-0.84467-1.9427 1.3515-5.8282 8.6157-3.8855 7.2642-11.107 24.791-17.485 34.969-6.3773 10.178-13.338 17.78-20.779 26.1-7.4404 8.3207-14.63 16.867-23.864 23.824-9.2333 6.957-22.607 13.469-31.536 17.918-8.9292 4.4497-13.021 6.1221-22.039 8.7799-9.0188 2.6579-21.382 4.7782-32.074 7.1673" fill="#007fff" fill-rule="evenodd"/>
		<path transform="matrix(2.8164 0 0 2.8164 -41.803 -40.094)" d="m146.58 76.997c0.0048 6.4331-5.6364 11.651-12.597 11.651s-12.602-5.2174-12.597-11.651c-0.0048-6.4331 5.6364-11.651 12.597-11.651s12.602 5.2174 12.597 11.651z" fill="#fff"/>
		<path d="m425.76 447.31c-1.5643-1.9363-10.637-19.118-20.162-38.182-15.071-30.165-34.422-63.141-49.498-84.349-7.3564-10.349-24.271-17.075-55.299-21.991-38.141-6.0425-50.842-10.572-72.017-25.682-20.121-14.358-29.008-24.169-40.768-45.007-7.8753-13.954-8.8746-14.714-17.305-13.162-5.6761 1.0452-14.868 7.408-25.142 17.403-17.084 16.621-20.32 17.417-9.9143 2.4396 12.905-18.574 19.601-24.126 31.383-26.019 6.3932-1.0274 14.431-3.6473 17.862-5.822s10.84-3.954 16.465-3.954c26.159 0 69.516-22.51 92.626-48.09 12.843-14.215 33.852-46.383 41.32-63.266 3.4843-7.8769 7.373-12.567 10.42-12.567 9.8644 0 41.119 21.712 60.258 41.861 25.359 26.697 37.44 50.956 37.361 75.021-0.07205 21.765-5.3755 34.752-15.087 36.946-4.0638 0.91785-23.979 7.8724-44.257 15.454-37.343 13.963-49.497 17.076-39.098 10.013 3.0555-2.0752 20.717-8.7208 39.247-14.768 39.58-12.916 47.64-18.667 51.997-37.101 2.6904-11.382 2.3671-15.504-2.1838-27.837-11.746-31.834-41.685-65.721-74.787-84.652l-15.743-9.003-11.153 23.085c-14.351 29.706-49.078 69.653-70.139 80.683-10 5.2373-53.204 19.848-58.837 19.897-12.655 0.11061-13.162 4.3358-2.7498 22.904 5.5179 9.8401 13.621 21.19 18.006 25.222 21.371 19.647 56.53 37.646 79.028 40.456 47.557 5.9399 54.639 7.9879 62.35 18.032 14.455 18.828 34.497 52.955 52.86 90.009 21.397 43.177 18.322 41.754 52.805 24.434 25.715-12.916 17.179-2.976-9.4694 11.028-20.711 10.883-25.973 12.02-30.381 6.5648zm11.352-16.83c-5.2856-6.6069-21.186-41.827-19.599-43.413 0.86176-0.8618 6.7084 8.9227 12.993 21.743 10.743 21.918 13.168 29.872 6.6063 21.67zm-25.533-53.439c-1.8588-1.8588-3.3797-4.8297-3.3797-6.6019 0-4.2959-32.95-57.134-41.196-66.062-14.897-16.128-26.398-31.797-26.398-35.963 0-3.4424 1.651-2.9042 7.2969 2.3788 6.7231 6.2909 23.684 29.417 23.684 32.292 0 0.68346 4.5412 7.192 10.092 14.463 8.668 11.356 36.654 62.871 34.154 62.871-0.48026 0-2.3941-1.5209-4.2529-3.3797zm-377.9-29.736c-11.54-5.682-33.859-26.359-33.859-31.368 0-1.9183 5.3864 0.86667 11.97 6.1888 15.435 12.477 35.12 24.704 44.227 27.469 6.579 1.9974 6.3567 2.1924-2.6847 2.3556-5.4216 0.09787-14.266-1.9926-19.653-4.6455zm8.4691-11.837c-2.2787-1.4411-3.4098-3.3534-2.5137-4.2496 0.89618-0.89618 3.2326 0.30229 5.192 2.6633 4.063 4.8956 3.2839 5.3569-2.6784 1.5863zm-42.328-26.586c0-1.2983 10.525-13.42 23.389-26.938 12.864-13.518 32.31-36.496 43.214-51.063 20.285-27.1 29.156-36.599 29.156-31.222 0 1.6473-1.1845 3.7271-2.6321 4.6218-1.4477 0.89471-13.805 16.368-27.46 34.386-27.896 36.808-24.74 33.157-48.213 55.765-9.5994 9.2457-17.453 15.748-17.453 14.45zm341.62-16.485c-10.854-11.917-17.062-29.442-7.6677-21.645 4.9336 4.0945 16.313 25.087 14.553 26.847-0.61828 0.61832-3.7168-1.7224-6.8856-5.2016zm-50.769-10.807c8.804-5.1257 35.855-13.601 35.855-11.233 0 3.122-27.48 14.327-34.877 14.22-5.4442-0.07821-5.5291-0.33733-0.97815-2.9869zm18.625-78.272c-10.138-10.138-14.656-22.863-8.1179-22.863 1.549 0 2.8164 1.1702 2.8164 2.6003 0 6.1378 15.371 20.091 25.463 23.115 12.502 3.7456 12.173 8.082-0.61288 8.082-6.2514 0-11.614-2.9994-19.549-10.934zm44.627 2.0633c0-0.55674 6.7249-10.37 9.6882-16.988 5.9708-13.336 3.7605-21.325-6.5704-32.355-10.017-10.694-19.859-13.194-31.99-8.125-25.452 12.561-15.842 4.4857-6.629-3.788 7.651-7.128 24.309-7.8759 36.381-1.6334 16.146 8.3493 23.34 34.538 14.186 51.641-2.4639 4.6038-15.066 14.207-15.066 11.248zm-268.98-31.306c-18.184-34.584-9.9411-62.556 31-105.2 23.769-24.758 53.109-45.307 78.426-54.927 34.738-13.2 73.408-16.946 100.49-9.7365 31.428 8.3666 43.326 20.664 45.211 46.733 1.1526 15.934 0.316 18.873-13.132 46.134-14.634 29.664-30.836 50.553-51.975 67.01-11.767 9.1608-11.755 9.1336 3.8105-9.0494 23.243-27.151 35.451-44.955 45.396-66.207 16.197-34.613 10.587-55.605-18.792-70.32-15.395-7.711-19.207-8.4233-43.625-8.1523-49.787 0.55265-93.249 20.7-135.52 62.823-27.311 27.213-41.91 51.741-41.91 70.413 0 6.1489 1.1484 11.89 2.552 12.757s1.8901 4.1085 1.081 7.2023c-0.80904 3.0938 0.65579 8.8709 3.2552 12.838 2.5994 3.9672 4.3309 9.0197 3.8477 11.228-0.48315 2.2082-5.0333-3.8871-10.111-13.545zm88.926 13.321c-7.2868-1.9937-16.124-5.6386-19.638-8.0997-3.5138-2.4612-8.9584-4.4942-12.099-4.518-6.8057-0.0514-14.711-4.5692-12.268-7.0115 2.1493-2.1493 32.653 6.5223 34.722 9.871 0.83178 1.3458 8.4595 4.4666 16.951 6.935 15.316 4.4525 19.98 7.4692 10.51 6.7975-2.7108-0.19225-10.891-1.9807-18.178-3.9744zm-69.836-23.84c-2.3236-1.5016-2.9572-2.7302-1.4082-2.7302s4.7175 1.2286 7.041 2.7302 2.9572 2.7302 1.4082 2.7302c-1.549 0-4.7175-1.2286-7.041-2.7302zm320.04 85.062c0.4181 0.71672-13.498 14.932-16.126 22.219-2.628 7.2867-4.0614 10.273 0.35836 21.502 4.4198 11.229 12.423 26.459 26.161 45.871s50.35 62.415 56.263 70.598c5.913 8.1827-10.751-9.2577-20.785-21.502-10.034-12.244-29.817-35.359-40.687-51.963-12.143-16.604-20.655-36.417-25.55-47.664-10.748-11.247-24.278-26.883-23.86-27.062 1.436-0.43366 20.72 21.504 22.452 20.011 1.7321-1.4932 1.7191-7.0141 4.5263-13.345 2.8072-6.3311 16.83-19.38 17.248-18.664z"/>
	</g>
</svg>
