<?xml version="1.0" encoding="UTF-8"?>
<svg width="37.28" height="37.28" baseProfile="full" version="1.1" viewBox="0 0 300 300" xmlns="http://www.w3.org/2000/svg">
	<path d="m133.48 82.981c4.8695-10.808 37.782-24.18 59.03-22.327 21.226 1.8514 45.2 3.0123 65.529 6.5104 20.376 3.5063 15.776 22.087-4.097 19.145s-30.357-4.7929-41.244-4.9409c-11.448-0.15563-36.638 1.968-36.638 1.968s33.274 50.257 30.45 58.158c-3.017 8.4404-38.716 11.69-42.16 9.5214-4.6208-2.9097-18.539-28.865-18.539-28.865s-0.33464 17.696-7.5544 26.002c-6.9685 8.0169-24.954 17.935-44.691 28.953-19.397 10.829-24.653-6.373-6.9948-16.143 18.003-9.9613 23.713-10.22 33.202-24.448 8.6634-12.989 8.4283-41.821 13.706-53.533z"/>
	<path transform="matrix(9.1043 1.3881 -1.3881 9.1043 -4261.6 -3496.3)" d="m533.25 308.02a1.9688 2.0312 0 1 1-3.9375 0 1.9688 2.0312 0 1 1 3.9375 0z"/>
	<path transform="matrix(8.5739 -3.362 3.362 8.5739 -5484 -867.37)" d="m523.25 317.36a2.2188 3.4375 0 1 1-4.4375 0 2.2188 3.4375 0 1 1 4.4375 0z" fill="none" stroke="#000"/>
	<path d="m62.035 130.79 21.274 45.766" fill="none" stroke="#000" stroke-width="11"/>
	<path d="m167.89 179.27c6.7473 16.813 17.629 43.035 23.391 55.732 6.533 14.421 25.304 9.4824 18.629-5.8639-6.6149-15.21-17.506-38.207-24.246-55.145-5.853-14.71-24.006-10.254-17.774 5.2767z"/>
	<path d="m193.27 162.53c-4.0808-7.5138 13.364-9.7711 16.704-3.5426 3.3034 6.1605 46.385 84.734 53.848 99.206 7.4655 14.477-11.412 20.494-17.801 7.2939-6.0346-12.468-48.565-95.249-52.751-102.96z"/>
	<rect x="14.299" y="16.102" width="269.4" height="269.4" ry="21.771" fill="none" stroke="#000" stroke-linejoin="round" stroke-width="15"/>
</svg>
