<?xml version="1.0" encoding="UTF-8"?>
<svg width="80mm" height="70mm" xmlns="http://www.w3.org/2000/svg" xmlns:xlink="http://www.w3.org/1999/xlink" xmlns:xml="http://www.w3.org/XML/1998/namespace">
	<defs>
		<radialGradient id="a" cx="9.9854" cy="583.81" r="84.55" gradientTransform="scale(1.0566 .94642)" gradientUnits="userSpaceOnUse">
			<stop stop-color="#002723" offset="0"/>
			<stop stop-opacity=".49804" offset="1"/>
			<stop stop-color="#fff" stop-opacity="0" offset="1"/>
		</radialGradient>
	</defs>
	<path d="m226.48 72.187c46.048 93.977-25.844 140.96-36.181 146.6 15.976-48.868 36.181-146.6 36.181-146.6z" fill="#368c00" fill-rule="evenodd" stroke="#e8e9e8" stroke-width="2.5"/>
	<g display="block" fill-rule="evenodd" stroke="#b8b8b8" stroke-width="1.875">
		<path d="m84.722 154.8c-8.6441-85.72 39.258-114.17 39.258-114.17-2.5212-23.051-15.487-19.809-15.487-19.809-94.004 54.386-54.386 152.35-54.386 152.35l1.4407 0.36016c27.013-13.326 29.174-18.729 29.174-18.729z" fill="#b32000"/>
		<path d="m53.387 175.33c-9.7246 4.6822-15.127 2.5212-15.127 2.5212-45.381-110.57 64.236-155.34 64.236-155.34 9.7246-2.8814 6.3567-1.331 6.3567-1.331-95.085 52.945-54.746 156.67-55.466 154.15z" fill="#fff"/>
		<path d="m39.701 179.65c24.852-6.8432 45.021-24.852 45.021-24.852 37.818 15.127 40.339 18.729 48.623 22.33-31.335 38.178-44.661 36.377-58.347 38.538-20.89-7.2034-35.297-36.017-35.297-36.017z" fill="#b32000"/>
		<path d="m75.717 216.38c34.936-4.6822 52.945-41.059 57.627-39.979 36.017 15.487 30.614 14.047 30.614 14.047-33.856 54.386-42.86 42.86-42.86 42.86-26.653-2.5212-45.381-16.928-45.381-16.928z" fill="#fef"/>
		<path d="m165.4 189.73c33.856 14.767 28.814 10.445 31.695 13.686-4.322 35.297-75.996 29.534-75.996 29.534 39.258-30.614 44.301-43.22 44.301-43.22z" fill="#368c00"/>
	</g>
	<g fill-rule="evenodd" stroke="#b8b8b8" stroke-width="1.875">
		<path d="m124.02 40.076c-4.3414-22.709-11.302-19.242-10.3-20.244 40.742-3.6735 48.423 3.0056 48.423 3.0056s1.6578 2.8842 1.7746 2.8551c12.69 22.709 4.9045 23.861 4.9045 23.861-41.41-11.02-39.04-7.1373-44.802-9.4784z" fill="#368c00"/>
		<path d="m169 49.266c9.0042-6.6631-7.9237-27.193-7.9237-27.193 38.718 9.5445 40.699 22.871 40.699 22.871-0.36016 18.909-1.4407 18.369-1.4407 18.369-26.653-13.686-31.335-14.047-31.335-14.047z" fill="#fffbff"/>
		<path d="m200.7 63.493c1.2606-24.492 1.2606-21.97 1.2606-19.449 23.231 11.886 28.814 40.699 28.093 44.301-27.553-22.511-29.354-24.852-29.354-24.852z" fill="#b40000"/>
	</g>
	<g display="block">
		<path d="m85.507 155.03c-2.6661-22.947-0.69232-46.155 0.46156-47.54 107.46 43.375 132.43 61.277 134.77 64.617l0.77108-0.20636c-15.231 34.155-28.464 29.284-28.464 29.284l-2.077-0.92311c-84.925-34.847-100.16-41.309-105.46-45.232z" fill="#fdffff" fill-rule="evenodd" stroke="#b8b8b8" stroke-width="1.875"/>
		<path d="m85.84 106.49c1.9302-15.811 10.229-30.158 10.229-30.158 110.77 13.385 138.15 59.618 137.78 60.555 1.3813 7.9984-0.57315 13.006-2.7398 20.003s-5.0082 11.973-9.7097 15.506c-4.7519 3.5705-132.56-63.136-135.56-65.906z" fill="#fdffff" fill-rule="evenodd" stroke="#b8b8b8" stroke-width="1.875"/>
		<path d="m95.864 76.753c15.657-26.843 27.745-35.184 27.745-35.184 87.695 10.154 106.36 47.692 106.36 47.692l-0.23077-0.23078c9.9233 34.155 5.021 51.26 3.8671 47.337-37.629-49.529-129.52-58.708-137.74-59.613z" fill="#fdffff" fill-rule="evenodd" stroke="#b8b8b8" stroke-width="1.875"/>
		<path transform="matrix(1.0601 0 0 1.1967 49.349 -581.46)" d="m151.31 525.99a101.38 90.646 0 1 1-0.20338-0.17408" display="block" fill="url(#a)" opacity=".1342" stroke-opacity="0"/>
		<text color="#000000" display="block" fill="#000000" font-family="Arial Black" font-size="20" letter-spacing="0" opacity=".76623" stroke-width="1pt" writing-mode="lr" xml:space="preserve"><textPath font-family="Arial Black" font-size="20" writing-mode="lr" xlink:href="#b"><tspan font-family="Arial Black" font-size="20" writing-mode="lr">Volley-Ball</tspan></textPath></text>
		<path id="b" d="m105.25 104.14c92.097 31.952 116.53 58.265 116.53 58.265" fill="none" stroke-opacity="0"/>
	</g>
</svg>
